G04 #@! TF.GenerationSoftware,KiCad,Pcbnew,(5.1.2)-1*
G04 #@! TF.CreationDate,2021-08-14T16:29:42-07:00*
G04 #@! TF.ProjectId,blvdtop,626c7664-746f-4702-9e6b-696361645f70,rev?*
G04 #@! TF.SameCoordinates,Original*
G04 #@! TF.FileFunction,Legend,Top*
G04 #@! TF.FilePolarity,Positive*
%FSLAX46Y46*%
G04 Gerber Fmt 4.6, Leading zero omitted, Abs format (unit mm)*
G04 Created by KiCad (PCBNEW (5.1.2)-1) date 2021-08-14 16:29:42*
%MOMM*%
%LPD*%
G04 APERTURE LIST*
%ADD10C,0.120000*%
%ADD11C,0.150000*%
G04 APERTURE END LIST*
D10*
X94645311Y-21494162D02*
G75*
G03X94645315Y-23655827I-2787811J-1080838D01*
G01*
X94111979Y-21494571D02*
G75*
G03X89602816Y-21495000I-2254479J-1080429D01*
G01*
X94111979Y-23655429D02*
G75*
G02X89602816Y-23655000I-2254479J1080429D01*
G01*
X94645311Y-21494162D02*
X94645315Y-23655827D01*
X84145311Y-21494162D02*
G75*
G03X84145315Y-23655827I-2787811J-1080838D01*
G01*
X83611979Y-21494571D02*
G75*
G03X79102816Y-21495000I-2254479J-1080429D01*
G01*
X83611979Y-23655429D02*
G75*
G02X79102816Y-23655000I-2254479J1080429D01*
G01*
X84145311Y-21494162D02*
X84145315Y-23655827D01*
X35500000Y-22500000D02*
G75*
G03X35500000Y-22500000I-3000000J0D01*
G01*
X26600000Y-20500000D02*
X26600000Y-16400000D01*
X38400000Y-16400000D02*
X38400000Y-20500000D01*
X38400000Y-24500000D02*
X38400000Y-28600000D01*
X26600000Y-24500000D02*
X26600000Y-28600000D01*
X26600000Y-28600000D02*
X38400000Y-28600000D01*
X28700000Y-30000000D02*
X28400000Y-30300000D01*
X28400000Y-30300000D02*
X28400000Y-29700000D01*
X28400000Y-29700000D02*
X28700000Y-30000000D01*
X26600000Y-16400000D02*
X29000000Y-16400000D01*
X31200000Y-16400000D02*
X33800000Y-16400000D01*
X36000000Y-16400000D02*
X38400000Y-16400000D01*
X32000000Y-22500000D02*
X33000000Y-22500000D01*
X32500000Y-23000000D02*
X32500000Y-22000000D01*
D11*
X90738452Y-19067380D02*
X90262261Y-19067380D01*
X90262261Y-18067380D01*
X91071785Y-18543571D02*
X91405119Y-18543571D01*
X91547976Y-19067380D02*
X91071785Y-19067380D01*
X91071785Y-18067380D01*
X91547976Y-18067380D01*
X91976547Y-19067380D02*
X91976547Y-18067380D01*
X92214642Y-18067380D01*
X92357500Y-18115000D01*
X92452738Y-18210238D01*
X92500357Y-18305476D01*
X92547976Y-18495952D01*
X92547976Y-18638809D01*
X92500357Y-18829285D01*
X92452738Y-18924523D01*
X92357500Y-19019761D01*
X92214642Y-19067380D01*
X91976547Y-19067380D01*
X92928928Y-18162619D02*
X92976547Y-18115000D01*
X93071785Y-18067380D01*
X93309880Y-18067380D01*
X93405119Y-18115000D01*
X93452738Y-18162619D01*
X93500357Y-18257857D01*
X93500357Y-18353095D01*
X93452738Y-18495952D01*
X92881309Y-19067380D01*
X93500357Y-19067380D01*
X80238452Y-19067380D02*
X79762261Y-19067380D01*
X79762261Y-18067380D01*
X80571785Y-18543571D02*
X80905119Y-18543571D01*
X81047976Y-19067380D02*
X80571785Y-19067380D01*
X80571785Y-18067380D01*
X81047976Y-18067380D01*
X81476547Y-19067380D02*
X81476547Y-18067380D01*
X81714642Y-18067380D01*
X81857500Y-18115000D01*
X81952738Y-18210238D01*
X82000357Y-18305476D01*
X82047976Y-18495952D01*
X82047976Y-18638809D01*
X82000357Y-18829285D01*
X81952738Y-18924523D01*
X81857500Y-19019761D01*
X81714642Y-19067380D01*
X81476547Y-19067380D01*
X83000357Y-19067380D02*
X82428928Y-19067380D01*
X82714642Y-19067380D02*
X82714642Y-18067380D01*
X82619404Y-18210238D01*
X82524166Y-18305476D01*
X82428928Y-18353095D01*
X269410714Y-15078380D02*
X269410714Y-14078380D01*
X269982142Y-15078380D02*
X269553571Y-14506952D01*
X269982142Y-14078380D02*
X269410714Y-14649809D01*
X270886904Y-14078380D02*
X270410714Y-14078380D01*
X270363095Y-14554571D01*
X270410714Y-14506952D01*
X270505952Y-14459333D01*
X270744047Y-14459333D01*
X270839285Y-14506952D01*
X270886904Y-14554571D01*
X270934523Y-14649809D01*
X270934523Y-14887904D01*
X270886904Y-14983142D01*
X270839285Y-15030761D01*
X270744047Y-15078380D01*
X270505952Y-15078380D01*
X270410714Y-15030761D01*
X270363095Y-14983142D01*
X271791666Y-14078380D02*
X271601190Y-14078380D01*
X271505952Y-14126000D01*
X271458333Y-14173619D01*
X271363095Y-14316476D01*
X271315476Y-14506952D01*
X271315476Y-14887904D01*
X271363095Y-14983142D01*
X271410714Y-15030761D01*
X271505952Y-15078380D01*
X271696428Y-15078380D01*
X271791666Y-15030761D01*
X271839285Y-14983142D01*
X271886904Y-14887904D01*
X271886904Y-14649809D01*
X271839285Y-14554571D01*
X271791666Y-14506952D01*
X271696428Y-14459333D01*
X271505952Y-14459333D01*
X271410714Y-14506952D01*
X271363095Y-14554571D01*
X271315476Y-14649809D01*
X250360714Y-15078380D02*
X250360714Y-14078380D01*
X250932142Y-15078380D02*
X250503571Y-14506952D01*
X250932142Y-14078380D02*
X250360714Y-14649809D01*
X251836904Y-14078380D02*
X251360714Y-14078380D01*
X251313095Y-14554571D01*
X251360714Y-14506952D01*
X251455952Y-14459333D01*
X251694047Y-14459333D01*
X251789285Y-14506952D01*
X251836904Y-14554571D01*
X251884523Y-14649809D01*
X251884523Y-14887904D01*
X251836904Y-14983142D01*
X251789285Y-15030761D01*
X251694047Y-15078380D01*
X251455952Y-15078380D01*
X251360714Y-15030761D01*
X251313095Y-14983142D01*
X252789285Y-14078380D02*
X252313095Y-14078380D01*
X252265476Y-14554571D01*
X252313095Y-14506952D01*
X252408333Y-14459333D01*
X252646428Y-14459333D01*
X252741666Y-14506952D01*
X252789285Y-14554571D01*
X252836904Y-14649809D01*
X252836904Y-14887904D01*
X252789285Y-14983142D01*
X252741666Y-15030761D01*
X252646428Y-15078380D01*
X252408333Y-15078380D01*
X252313095Y-15030761D01*
X252265476Y-14983142D01*
X231310714Y-15078380D02*
X231310714Y-14078380D01*
X231882142Y-15078380D02*
X231453571Y-14506952D01*
X231882142Y-14078380D02*
X231310714Y-14649809D01*
X232786904Y-14078380D02*
X232310714Y-14078380D01*
X232263095Y-14554571D01*
X232310714Y-14506952D01*
X232405952Y-14459333D01*
X232644047Y-14459333D01*
X232739285Y-14506952D01*
X232786904Y-14554571D01*
X232834523Y-14649809D01*
X232834523Y-14887904D01*
X232786904Y-14983142D01*
X232739285Y-15030761D01*
X232644047Y-15078380D01*
X232405952Y-15078380D01*
X232310714Y-15030761D01*
X232263095Y-14983142D01*
X233691666Y-14411714D02*
X233691666Y-15078380D01*
X233453571Y-14030761D02*
X233215476Y-14745047D01*
X233834523Y-14745047D01*
X59860714Y-15078380D02*
X59860714Y-14078380D01*
X60432142Y-15078380D02*
X60003571Y-14506952D01*
X60432142Y-14078380D02*
X59860714Y-14649809D01*
X61336904Y-14078380D02*
X60860714Y-14078380D01*
X60813095Y-14554571D01*
X60860714Y-14506952D01*
X60955952Y-14459333D01*
X61194047Y-14459333D01*
X61289285Y-14506952D01*
X61336904Y-14554571D01*
X61384523Y-14649809D01*
X61384523Y-14887904D01*
X61336904Y-14983142D01*
X61289285Y-15030761D01*
X61194047Y-15078380D01*
X60955952Y-15078380D01*
X60860714Y-15030761D01*
X60813095Y-14983142D01*
X61717857Y-14078380D02*
X62336904Y-14078380D01*
X62003571Y-14459333D01*
X62146428Y-14459333D01*
X62241666Y-14506952D01*
X62289285Y-14554571D01*
X62336904Y-14649809D01*
X62336904Y-14887904D01*
X62289285Y-14983142D01*
X62241666Y-15030761D01*
X62146428Y-15078380D01*
X61860714Y-15078380D01*
X61765476Y-15030761D01*
X61717857Y-14983142D01*
M02*
