G04 #@! TF.GenerationSoftware,KiCad,Pcbnew,(5.1.2)-1*
G04 #@! TF.CreationDate,2021-05-25T07:10:53-07:00*
G04 #@! TF.ProjectId,theboulevard,74686562-6f75-46c6-9576-6172642e6b69,rev?*
G04 #@! TF.SameCoordinates,Original*
G04 #@! TF.FileFunction,Profile,NP*
%FSLAX46Y46*%
G04 Gerber Fmt 4.6, Leading zero omitted, Abs format (unit mm)*
G04 Created by KiCad (PCBNEW (5.1.2)-1) date 2021-05-25 07:10:53*
%MOMM*%
%LPD*%
G04 APERTURE LIST*
%ADD10C,0.050000*%
G04 APERTURE END LIST*
D10*
X45000000Y-16000000D02*
X44950901Y-15998314D01*
X44950901Y-15998314D02*
X44903257Y-15995897D01*
X44903257Y-15995897D02*
X44856045Y-15992697D01*
X44856045Y-15992697D02*
X44809609Y-15988723D01*
X44809609Y-15988723D02*
X44764261Y-15984005D01*
X44764261Y-15984005D02*
X44719070Y-15978433D01*
X44719070Y-15978433D02*
X44671424Y-15971569D01*
X44671424Y-15971569D02*
X44628480Y-15964448D01*
X44628480Y-15964448D02*
X44585458Y-15956383D01*
X44585458Y-15956383D02*
X44543243Y-15947506D01*
X44543243Y-15947506D02*
X44502632Y-15938011D01*
X44502632Y-15938011D02*
X44461998Y-15927518D01*
X44461998Y-15927518D02*
X44421400Y-15915984D01*
X44421400Y-15915984D02*
X44383112Y-15904086D01*
X44383112Y-15904086D02*
X44344847Y-15891146D01*
X44344847Y-15891146D02*
X44307827Y-15877570D01*
X44307827Y-15877570D02*
X44271095Y-15863011D01*
X44271095Y-15863011D02*
X44235120Y-15847638D01*
X44235120Y-15847638D02*
X44200113Y-15831560D01*
X44200113Y-15831560D02*
X44166255Y-15814898D01*
X44166255Y-15814898D02*
X44133089Y-15797457D01*
X44133089Y-15797457D02*
X44100801Y-15779354D01*
X44100801Y-15779354D02*
X44068983Y-15760371D01*
X44068983Y-15760371D02*
X44033113Y-15737530D01*
X44033113Y-15737530D02*
X44003084Y-15717176D01*
X44003084Y-15717176D02*
X43971344Y-15694371D01*
X43971344Y-15694371D02*
X43941870Y-15671948D01*
X43941870Y-15671948D02*
X43913170Y-15648908D01*
X43913170Y-15648908D02*
X43885706Y-15625696D01*
X43885706Y-15625696D02*
X43857963Y-15601046D01*
X43857963Y-15601046D02*
X43826712Y-15571775D01*
X43826712Y-15571775D02*
X43800893Y-15546348D01*
X43800893Y-15546348D02*
X43775382Y-15520084D01*
X43775382Y-15520084D02*
X43750743Y-15493619D01*
X43750743Y-15493619D02*
X43726928Y-15466990D01*
X43726928Y-15466990D02*
X43701941Y-15437927D01*
X43701941Y-15437927D02*
X43677753Y-15408692D01*
X43677753Y-15408692D02*
X43652847Y-15377452D01*
X43652847Y-15377452D02*
X43631045Y-15349166D01*
X43631045Y-15349166D02*
X43608954Y-15319626D01*
X43608954Y-15319626D02*
X43587462Y-15290055D01*
X43587462Y-15290055D02*
X43565270Y-15258693D01*
X43565270Y-15258693D02*
X43544364Y-15228408D01*
X43544364Y-15228408D02*
X43524061Y-15198353D01*
X43524061Y-15198353D02*
X43503713Y-15167635D01*
X43503713Y-15167635D02*
X43482931Y-15135702D01*
X43482931Y-15135702D02*
X43463254Y-15104996D01*
X43463254Y-15104996D02*
X43442246Y-15071778D01*
X43442246Y-15071778D02*
X43421319Y-15038309D01*
X43421319Y-15038309D02*
X43400435Y-15004610D01*
X43400435Y-15004610D02*
X43397590Y-15000000D01*
X28495000Y-16000000D02*
X28546484Y-15998211D01*
X28546484Y-15998211D02*
X28594745Y-15995719D01*
X28594745Y-15995719D02*
X28644826Y-15992242D01*
X28644826Y-15992242D02*
X28690814Y-15988203D01*
X28690814Y-15988203D02*
X28736979Y-15983292D01*
X28736979Y-15983292D02*
X28782941Y-15977496D01*
X28782941Y-15977496D02*
X28826592Y-15971108D01*
X28826592Y-15971108D02*
X28869768Y-15963887D01*
X28869768Y-15963887D02*
X28911887Y-15955935D01*
X28911887Y-15955935D02*
X28953796Y-15947077D01*
X28953796Y-15947077D02*
X28996788Y-15936955D01*
X28996788Y-15936955D02*
X29036560Y-15926597D01*
X29036560Y-15926597D02*
X29075833Y-15915380D01*
X29075833Y-15915380D02*
X29115828Y-15902881D01*
X29115828Y-15902881D02*
X29153307Y-15890125D01*
X29153307Y-15890125D02*
X29190755Y-15876316D01*
X29190755Y-15876316D02*
X29227892Y-15861504D01*
X29227892Y-15861504D02*
X29263583Y-15846160D01*
X29263583Y-15846160D02*
X29298542Y-15830016D01*
X29298542Y-15830016D02*
X29332567Y-15813184D01*
X29332567Y-15813184D02*
X29365888Y-15795563D01*
X29365888Y-15795563D02*
X29397926Y-15777508D01*
X29397926Y-15777508D02*
X29429704Y-15758459D01*
X29429704Y-15758459D02*
X29461395Y-15738273D01*
X29461395Y-15738273D02*
X29492600Y-15717176D01*
X29492600Y-15717176D02*
X29522074Y-15696079D01*
X29522074Y-15696079D02*
X29551130Y-15674111D01*
X29551130Y-15674111D02*
X29579609Y-15651405D01*
X29579609Y-15651405D02*
X29607028Y-15628397D01*
X29607028Y-15628397D02*
X29637950Y-15601046D01*
X29637950Y-15601046D02*
X29669565Y-15571476D01*
X29669565Y-15571476D02*
X29695423Y-15546043D01*
X29695423Y-15546043D02*
X29721862Y-15518835D01*
X29721862Y-15518835D02*
X29746514Y-15492346D01*
X29746514Y-15492346D02*
X29770629Y-15465372D01*
X29770629Y-15465372D02*
X29794239Y-15437927D01*
X29794239Y-15437927D02*
X29819146Y-15407854D01*
X29819146Y-15407854D02*
X29843412Y-15377452D01*
X29843412Y-15377452D02*
X29865376Y-15348992D01*
X29865376Y-15348992D02*
X29887370Y-15319626D01*
X29887370Y-15319626D02*
X29908639Y-15290409D01*
X29908639Y-15290409D02*
X29931112Y-15258693D01*
X29931112Y-15258693D02*
X29953035Y-15226958D01*
X29953035Y-15226958D02*
X29974697Y-15194873D01*
X29974697Y-15194873D02*
X29994678Y-15164677D01*
X29994678Y-15164677D02*
X30014498Y-15134210D01*
X30014498Y-15134210D02*
X30035142Y-15101987D01*
X30035142Y-15101987D02*
X30056149Y-15068745D01*
X30056149Y-15068745D02*
X30077078Y-15035255D01*
X30077078Y-15035255D02*
X30097966Y-15001537D01*
X30097966Y-15001537D02*
X30098916Y-15000000D01*
X182778964Y-15000000D02*
X182808727Y-15031407D01*
X182808727Y-15031407D02*
X182837425Y-15061675D01*
X182837425Y-15061675D02*
X182863715Y-15089244D01*
X182863715Y-15089244D02*
X182889703Y-15116247D01*
X182889703Y-15116247D02*
X182916556Y-15143807D01*
X182916556Y-15143807D02*
X182943674Y-15171218D01*
X182943674Y-15171218D02*
X182970374Y-15197744D01*
X182970374Y-15197744D02*
X182997247Y-15223940D01*
X182997247Y-15223940D02*
X183022859Y-15248409D01*
X183022859Y-15248409D02*
X183051391Y-15275081D01*
X183051391Y-15275081D02*
X183077847Y-15299238D01*
X183077847Y-15299238D02*
X183105060Y-15323509D01*
X183105060Y-15323509D02*
X183134632Y-15349208D01*
X183134632Y-15349208D02*
X183161852Y-15372246D01*
X183161852Y-15372246D02*
X183189810Y-15395295D01*
X183189810Y-15395295D02*
X183221956Y-15421032D01*
X183221956Y-15421032D02*
X183251541Y-15444010D01*
X183251541Y-15444010D02*
X183280115Y-15465564D01*
X183280115Y-15465564D02*
X183309415Y-15487028D01*
X183309415Y-15487028D02*
X183339451Y-15508374D01*
X183339451Y-15508374D02*
X183370245Y-15529584D01*
X183370245Y-15529584D02*
X183401309Y-15550304D01*
X183401309Y-15550304D02*
X183432118Y-15570194D01*
X183432118Y-15570194D02*
X183463132Y-15589574D01*
X183463132Y-15589574D02*
X183494329Y-15608434D01*
X183494329Y-15608434D02*
X183526783Y-15627394D01*
X183526783Y-15627394D02*
X183559984Y-15646114D01*
X183559984Y-15646114D02*
X183595087Y-15665186D01*
X183595087Y-15665186D02*
X183629256Y-15683055D01*
X183629256Y-15683055D02*
X183662990Y-15700047D01*
X183662990Y-15700047D02*
X183701421Y-15718635D01*
X183701421Y-15718635D02*
X183735756Y-15734578D01*
X183735756Y-15734578D02*
X183771111Y-15750352D01*
X183771111Y-15750352D02*
X183809805Y-15766892D01*
X183809805Y-15766892D02*
X183846686Y-15781976D01*
X183846686Y-15781976D02*
X183883643Y-15796444D01*
X183883643Y-15796444D02*
X183922716Y-15811055D01*
X183922716Y-15811055D02*
X183959767Y-15824280D01*
X183959767Y-15824280D02*
X183998240Y-15837381D01*
X183998240Y-15837381D02*
X184036717Y-15849862D01*
X184036717Y-15849862D02*
X184077411Y-15862403D01*
X184077411Y-15862403D02*
X184117746Y-15874184D01*
X184117746Y-15874184D02*
X184157288Y-15885126D01*
X184157288Y-15885126D02*
X184201480Y-15896663D01*
X184201480Y-15896663D02*
X184246533Y-15907697D01*
X184246533Y-15907697D02*
X184288772Y-15917394D01*
X184288772Y-15917394D02*
X184330920Y-15926460D01*
X184330920Y-15926460D02*
X184373797Y-15935081D01*
X184373797Y-15935081D02*
X184423023Y-15944248D01*
X184423023Y-15944248D02*
X184467037Y-15951806D01*
X184467037Y-15951806D02*
X184510895Y-15958752D01*
X184510895Y-15958752D02*
X184554561Y-15965104D01*
X184554561Y-15965104D02*
X184600306Y-15971172D01*
X184600306Y-15971172D02*
X184646799Y-15976742D01*
X184646799Y-15976742D02*
X184692141Y-15981609D01*
X184692141Y-15981609D02*
X184738186Y-15985995D01*
X184738186Y-15985995D02*
X184784939Y-15989891D01*
X184784939Y-15989891D02*
X184832407Y-15993288D01*
X184832407Y-15993288D02*
X184880599Y-15996175D01*
X184880599Y-15996175D02*
X184929518Y-15998543D01*
X184929518Y-15998543D02*
X184985434Y-16000572D01*
X184985434Y-16000572D02*
X185035925Y-16001803D01*
X185035925Y-16001803D02*
X185087169Y-16002482D01*
X185087169Y-16002482D02*
X185140263Y-16002600D01*
X185140263Y-16002600D02*
X185193043Y-16002136D01*
X185193043Y-16002136D02*
X185243224Y-16001175D01*
X185243224Y-16001175D02*
X185285000Y-16000000D01*
X148285000Y-16000000D02*
X148336861Y-16001408D01*
X148336861Y-16001408D02*
X148386905Y-16002265D01*
X148386905Y-16002265D02*
X148442808Y-16002625D01*
X148442808Y-16002625D02*
X148499989Y-16002318D01*
X148499989Y-16002318D02*
X148550452Y-16001465D01*
X148550452Y-16001465D02*
X148605377Y-15999900D01*
X148605377Y-15999900D02*
X148658904Y-15997717D01*
X148658904Y-15997717D02*
X148709562Y-15995036D01*
X148709562Y-15995036D02*
X148757451Y-15991935D01*
X148757451Y-15991935D02*
X148804620Y-15988328D01*
X148804620Y-15988328D02*
X148851077Y-15984226D01*
X148851077Y-15984226D02*
X148896827Y-15979639D01*
X148896827Y-15979639D02*
X148941878Y-15974576D01*
X148941878Y-15974576D02*
X148987612Y-15968864D01*
X148987612Y-15968864D02*
X149037125Y-15962017D01*
X149037125Y-15962017D02*
X149083551Y-15954951D01*
X149083551Y-15954951D02*
X149129190Y-15947373D01*
X149129190Y-15947373D02*
X149174054Y-15939301D01*
X149174054Y-15939301D02*
X149219404Y-15930489D01*
X149219404Y-15930489D02*
X149261477Y-15921714D01*
X149261477Y-15921714D02*
X149302434Y-15912601D01*
X149302434Y-15912601D02*
X149346691Y-15902097D01*
X149346691Y-15902097D02*
X149390128Y-15891110D01*
X149390128Y-15891110D02*
X149430450Y-15880289D01*
X149430450Y-15880289D02*
X149471564Y-15868621D01*
X149471564Y-15868621D02*
X149510433Y-15856983D01*
X149510433Y-15856983D02*
X149550786Y-15844258D01*
X149550786Y-15844258D02*
X149588583Y-15831726D01*
X149588583Y-15831726D02*
X149627087Y-15818335D01*
X149627087Y-15818335D02*
X149669995Y-15802644D01*
X149669995Y-15802644D02*
X149706260Y-15788727D01*
X149706260Y-15788727D02*
X149742496Y-15774209D01*
X149742496Y-15774209D02*
X149780281Y-15758393D01*
X149780281Y-15758393D02*
X149817279Y-15742222D01*
X149817279Y-15742222D02*
X149854119Y-15725422D01*
X149854119Y-15725422D02*
X149888957Y-15708873D01*
X149888957Y-15708873D02*
X149922476Y-15692330D01*
X149922476Y-15692330D02*
X149956467Y-15674912D01*
X149956467Y-15674912D02*
X149989443Y-15657378D01*
X149989443Y-15657378D02*
X150022826Y-15638970D01*
X150022826Y-15638970D02*
X150055738Y-15620155D01*
X150055738Y-15620155D02*
X150087908Y-15601107D01*
X150087908Y-15601107D02*
X150119352Y-15581845D01*
X150119352Y-15581845D02*
X150150587Y-15562063D01*
X150150587Y-15562063D02*
X150181593Y-15541774D01*
X150181593Y-15541774D02*
X150213315Y-15520324D01*
X150213315Y-15520324D02*
X150243776Y-15499052D01*
X150243776Y-15499052D02*
X150273486Y-15477651D01*
X150273486Y-15477651D02*
X150304253Y-15454797D01*
X150304253Y-15454797D02*
X150333558Y-15432359D01*
X150333558Y-15432359D02*
X150362111Y-15409862D01*
X150362111Y-15409862D02*
X150390341Y-15386990D01*
X150390341Y-15386990D02*
X150417831Y-15364114D01*
X150417831Y-15364114D02*
X150446358Y-15339732D01*
X150446358Y-15339732D02*
X150475608Y-15314057D01*
X150475608Y-15314057D02*
X150502524Y-15289827D01*
X150502524Y-15289827D02*
X150528688Y-15265723D01*
X150528688Y-15265723D02*
X150555520Y-15240451D01*
X150555520Y-15240451D02*
X150581570Y-15215395D01*
X150581570Y-15215395D02*
X150607520Y-15189944D01*
X150607520Y-15189944D02*
X150633340Y-15164164D01*
X150633340Y-15164164D02*
X150658385Y-15138757D01*
X150658385Y-15138757D02*
X150685077Y-15111295D01*
X150685077Y-15111295D02*
X150709757Y-15085608D01*
X150709757Y-15085608D02*
X150734251Y-15059902D01*
X150734251Y-15059902D02*
X150761269Y-15031407D01*
X150761269Y-15031407D02*
X150787899Y-15003302D01*
X150787899Y-15003302D02*
X150791036Y-15000000D01*
X179760855Y-12000000D02*
X179735313Y-11973313D01*
X179735313Y-11973313D02*
X179710033Y-11947282D01*
X179710033Y-11947282D02*
X179683787Y-11920645D01*
X179683787Y-11920645D02*
X179657110Y-11893963D01*
X179657110Y-11893963D02*
X179630923Y-11868148D01*
X179630923Y-11868148D02*
X179604155Y-11842130D01*
X179604155Y-11842130D02*
X179574957Y-11814173D01*
X179574957Y-11814173D02*
X179548148Y-11788879D01*
X179548148Y-11788879D02*
X179521730Y-11764301D01*
X179521730Y-11764301D02*
X179493648Y-11738545D01*
X179493648Y-11738545D02*
X179466741Y-11714217D01*
X179466741Y-11714217D02*
X179440082Y-11690448D01*
X179440082Y-11690448D02*
X179412546Y-11666245D01*
X179412546Y-11666245D02*
X179381055Y-11638989D01*
X179381055Y-11638989D02*
X179353301Y-11615344D01*
X179353301Y-11615344D02*
X179322374Y-11589402D01*
X179322374Y-11589402D02*
X179294469Y-11566368D01*
X179294469Y-11566368D02*
X179266511Y-11543640D01*
X179266511Y-11543640D02*
X179238126Y-11520925D01*
X179238126Y-11520925D02*
X179207380Y-11496729D01*
X179207380Y-11496729D02*
X179176231Y-11472652D01*
X179176231Y-11472652D02*
X179145086Y-11449019D01*
X179145086Y-11449019D02*
X179116295Y-11427568D01*
X179116295Y-11427568D02*
X179085984Y-11405404D01*
X179085984Y-11405404D02*
X179054174Y-11382606D01*
X179054174Y-11382606D02*
X179023991Y-11361421D01*
X179023991Y-11361421D02*
X178993125Y-11340215D01*
X178993125Y-11340215D02*
X178960067Y-11318025D01*
X178960067Y-11318025D02*
X178929447Y-11297967D01*
X178929447Y-11297967D02*
X178897455Y-11277532D01*
X178897455Y-11277532D02*
X178865648Y-11257756D01*
X178865648Y-11257756D02*
X178834045Y-11238660D01*
X178834045Y-11238660D02*
X178801178Y-11219404D01*
X178801178Y-11219404D02*
X178768580Y-11200937D01*
X178768580Y-11200937D02*
X178733356Y-11181718D01*
X178733356Y-11181718D02*
X178699958Y-11164234D01*
X178699958Y-11164234D02*
X178665509Y-11146993D01*
X178665509Y-11146993D02*
X178631503Y-11130806D01*
X178631503Y-11130806D02*
X178596586Y-11115097D01*
X178596586Y-11115097D02*
X178560853Y-11100040D01*
X178560853Y-11100040D02*
X178524414Y-11085828D01*
X178524414Y-11085828D02*
X178487396Y-11072664D01*
X178487396Y-11072664D02*
X178448654Y-11060393D01*
X178448654Y-11060393D02*
X178408450Y-11049455D01*
X178408450Y-11049455D02*
X178367081Y-11040346D01*
X178367081Y-11040346D02*
X178323738Y-11033468D01*
X178323738Y-11033468D02*
X178285000Y-11030000D01*
X153810000Y-12000000D02*
X153834829Y-11974043D01*
X153834829Y-11974043D02*
X153860810Y-11947282D01*
X153860810Y-11947282D02*
X153887052Y-11920645D01*
X153887052Y-11920645D02*
X153912096Y-11895581D01*
X153912096Y-11895581D02*
X153937715Y-11870293D01*
X153937715Y-11870293D02*
X153963354Y-11845330D01*
X153963354Y-11845330D02*
X153989184Y-11820525D01*
X153989184Y-11820525D02*
X154015936Y-11795185D01*
X154015936Y-11795185D02*
X154043615Y-11769343D01*
X154043615Y-11769343D02*
X154071084Y-11744057D01*
X154071084Y-11744057D02*
X154098708Y-11718996D01*
X154098708Y-11718996D02*
X154126089Y-11694508D01*
X154126089Y-11694508D02*
X154153208Y-11670595D01*
X154153208Y-11670595D02*
X154181396Y-11646101D01*
X154181396Y-11646101D02*
X154210454Y-11621228D01*
X154210454Y-11621228D02*
X154238249Y-11597795D01*
X154238249Y-11597795D02*
X154266887Y-11574011D01*
X154266887Y-11574011D02*
X154295585Y-11550551D01*
X154295585Y-11550551D02*
X154325882Y-11526185D01*
X154325882Y-11526185D02*
X154354656Y-11503424D01*
X154354656Y-11503424D02*
X154388117Y-11477433D01*
X154388117Y-11477433D02*
X154419238Y-11453710D01*
X154419238Y-11453710D02*
X154449568Y-11431020D01*
X154449568Y-11431020D02*
X154481415Y-11407656D01*
X154481415Y-11407656D02*
X154512430Y-11385358D01*
X154512430Y-11385358D02*
X154542600Y-11364109D01*
X154542600Y-11364109D02*
X154573454Y-11342836D01*
X154573454Y-11342836D02*
X154604968Y-11321593D01*
X154604968Y-11321593D02*
X154638640Y-11299452D01*
X154638640Y-11299452D02*
X154671376Y-11278491D01*
X154671376Y-11278491D02*
X154704674Y-11257756D01*
X154704674Y-11257756D02*
X154736252Y-11238660D01*
X154736252Y-11238660D02*
X154769093Y-11219404D01*
X154769093Y-11219404D02*
X154801666Y-11200937D01*
X154801666Y-11200937D02*
X154836861Y-11181718D01*
X154836861Y-11181718D02*
X154870235Y-11164234D01*
X154870235Y-11164234D02*
X154904657Y-11146993D01*
X154904657Y-11146993D02*
X154938640Y-11130806D01*
X154938640Y-11130806D02*
X154973535Y-11115097D01*
X154973535Y-11115097D02*
X155009245Y-11100040D01*
X155009245Y-11100040D02*
X155045660Y-11085828D01*
X155045660Y-11085828D02*
X155082658Y-11072664D01*
X155082658Y-11072664D02*
X155121380Y-11060393D01*
X155121380Y-11060393D02*
X155161567Y-11049455D01*
X155161567Y-11049455D02*
X155202925Y-11040346D01*
X155202925Y-11040346D02*
X155246259Y-11033468D01*
X155246259Y-11033468D02*
X155285000Y-11030000D01*
X40647500Y-11030000D02*
X40689380Y-11038344D01*
X40689380Y-11038344D02*
X40723744Y-11054016D01*
X40723744Y-11054016D02*
X40756044Y-11072909D01*
X40756044Y-11072909D02*
X40786541Y-11093384D01*
X40786541Y-11093384D02*
X40816585Y-11115501D01*
X40816585Y-11115501D02*
X40844746Y-11137676D01*
X40844746Y-11137676D02*
X40872736Y-11160900D01*
X40872736Y-11160900D02*
X40900782Y-11185208D01*
X40900782Y-11185208D02*
X40927283Y-11209033D01*
X40927283Y-11209033D02*
X40953455Y-11233305D01*
X40953455Y-11233305D02*
X40980183Y-11258800D01*
X40980183Y-11258800D02*
X41007922Y-11285961D01*
X41007922Y-11285961D02*
X41034571Y-11312695D01*
X41034571Y-11312695D02*
X41059496Y-11338234D01*
X41059496Y-11338234D02*
X41084686Y-11364557D01*
X41084686Y-11364557D02*
X41109576Y-11391055D01*
X41109576Y-11391055D02*
X41137867Y-11421744D01*
X41137867Y-11421744D02*
X41163111Y-11449634D01*
X41163111Y-11449634D02*
X41187382Y-11476895D01*
X41187382Y-11476895D02*
X41211179Y-11504044D01*
X41211179Y-11504044D02*
X41235010Y-11531650D01*
X41235010Y-11531650D02*
X41258848Y-11559680D01*
X41258848Y-11559680D02*
X41284281Y-11590056D01*
X41284281Y-11590056D02*
X41306957Y-11617549D01*
X41306957Y-11617549D02*
X41329557Y-11645345D01*
X41329557Y-11645345D02*
X41355788Y-11678115D01*
X41355788Y-11678115D02*
X41379191Y-11707821D01*
X41379191Y-11707821D02*
X41402677Y-11738102D01*
X41402677Y-11738102D02*
X41425435Y-11767903D01*
X41425435Y-11767903D02*
X41450278Y-11800979D01*
X41450278Y-11800979D02*
X41472771Y-11831441D01*
X41472771Y-11831441D02*
X41494088Y-11860788D01*
X41494088Y-11860788D02*
X41516832Y-11892644D01*
X41516832Y-11892644D02*
X41538342Y-11923326D01*
X41538342Y-11923326D02*
X41559466Y-11954015D01*
X41559466Y-11954015D02*
X41580171Y-11984681D01*
X41580171Y-11984681D02*
X41590361Y-12000000D01*
X31910663Y-12000000D02*
X31932079Y-11967958D01*
X31932079Y-11967958D02*
X31952990Y-11937276D01*
X31952990Y-11937276D02*
X31974287Y-11906588D01*
X31974287Y-11906588D02*
X31995446Y-11876621D01*
X31995446Y-11876621D02*
X32017922Y-11845324D01*
X32017922Y-11845324D02*
X32041731Y-11812732D01*
X32041731Y-11812732D02*
X32064039Y-11782695D01*
X32064039Y-11782695D02*
X32085540Y-11754180D01*
X32085540Y-11754180D02*
X32108541Y-11724125D01*
X32108541Y-11724125D02*
X32131722Y-11694287D01*
X32131722Y-11694287D02*
X32155059Y-11664697D01*
X32155059Y-11664697D02*
X32180657Y-11632735D01*
X32180657Y-11632735D02*
X32204220Y-11603764D01*
X32204220Y-11603764D02*
X32227844Y-11575138D01*
X32227844Y-11575138D02*
X32251503Y-11546888D01*
X32251503Y-11546888D02*
X32275169Y-11519047D01*
X32275169Y-11519047D02*
X32298812Y-11491646D01*
X32298812Y-11491646D02*
X32322401Y-11464715D01*
X32322401Y-11464715D02*
X32350171Y-11433538D01*
X32350171Y-11433538D02*
X32375664Y-11405429D01*
X32375664Y-11405429D02*
X32400978Y-11378002D01*
X32400978Y-11378002D02*
X32426080Y-11351300D01*
X32426080Y-11351300D02*
X32451444Y-11324830D01*
X32451444Y-11324830D02*
X32477523Y-11298176D01*
X32477523Y-11298176D02*
X32503730Y-11271988D01*
X32503730Y-11271988D02*
X32529989Y-11246375D01*
X32529989Y-11246375D02*
X32556229Y-11221461D01*
X32556229Y-11221461D02*
X32582833Y-11196944D01*
X32582833Y-11196944D02*
X32609670Y-11173035D01*
X32609670Y-11173035D02*
X32637917Y-11148860D01*
X32637917Y-11148860D02*
X32665566Y-11126308D01*
X32665566Y-11126308D02*
X32694088Y-11104370D01*
X32694088Y-11104370D02*
X32725343Y-11082177D01*
X32725343Y-11082177D02*
X32756580Y-11062414D01*
X32756580Y-11062414D02*
X32789539Y-11045067D01*
X32789539Y-11045067D02*
X32826962Y-11032053D01*
X32826962Y-11032053D02*
X32847500Y-11030000D01*
X266110000Y-16000000D02*
G75*
G02X270110000Y-20000000I0J-4000000D01*
G01*
X270110000Y-92755000D02*
G75*
G02X266110000Y-96755000I-4000000J0D01*
G01*
X16935000Y-96755000D02*
G75*
G02X12935000Y-92755000I0J4000000D01*
G01*
X12935000Y-20000000D02*
G75*
G02X16935000Y-16000000I4000000J0D01*
G01*
X28495000Y-16000000D02*
X16935000Y-16000000D01*
X31910663Y-12000000D02*
X30098916Y-15000000D01*
X40647500Y-11030000D02*
X32847500Y-11030000D01*
X43397590Y-15000000D02*
X41590361Y-12000000D01*
X148285000Y-16000000D02*
X45000000Y-16000000D01*
X153809145Y-12000000D02*
X150791036Y-15000000D01*
X178285000Y-11030000D02*
X155285000Y-11030000D01*
X182778964Y-15000000D02*
X179760855Y-12000000D01*
X185285000Y-16000000D02*
X266110000Y-16000000D01*
X270110000Y-92755000D02*
X270110000Y-20000000D01*
X16935000Y-96755000D02*
X266110000Y-96755000D01*
X12935000Y-20000000D02*
X12935000Y-92755000D01*
M02*
