G04 #@! TF.GenerationSoftware,KiCad,Pcbnew,(5.1.2)-1*
G04 #@! TF.CreationDate,2021-05-25T07:10:53-07:00*
G04 #@! TF.ProjectId,theboulevard,74686562-6f75-46c6-9576-6172642e6b69,rev?*
G04 #@! TF.SameCoordinates,Original*
G04 #@! TF.FileFunction,Paste,Bot*
G04 #@! TF.FilePolarity,Positive*
%FSLAX46Y46*%
G04 Gerber Fmt 4.6, Leading zero omitted, Abs format (unit mm)*
G04 Created by KiCad (PCBNEW (5.1.2)-1) date 2021-05-25 07:10:53*
%MOMM*%
%LPD*%
G04 APERTURE LIST*
%ADD10C,0.700000*%
%ADD11C,0.100000*%
%ADD12C,1.000000*%
%ADD13C,0.250000*%
%ADD14C,1.050000*%
%ADD15R,1.000000X1.700000*%
%ADD16C,0.950000*%
%ADD17C,1.200000*%
%ADD18C,0.600000*%
%ADD19R,1.200000X1.400000*%
G04 APERTURE END LIST*
D10*
X43385660Y-53460660D03*
D11*
G36*
X41688604Y-54662742D02*
G01*
X44587742Y-51763604D01*
X45082716Y-52258578D01*
X42183578Y-55157716D01*
X41688604Y-54662742D01*
X41688604Y-54662742D01*
G37*
D12*
X42325000Y-52400000D03*
D11*
G36*
X40521878Y-53496016D02*
G01*
X43421016Y-50596878D01*
X44128122Y-51303984D01*
X41228984Y-54203122D01*
X40521878Y-53496016D01*
X40521878Y-53496016D01*
G37*
D10*
X41264340Y-51339340D03*
D11*
G36*
X39567284Y-52541422D02*
G01*
X42466422Y-49642284D01*
X42961396Y-50137258D01*
X40062258Y-53036396D01*
X39567284Y-52541422D01*
X39567284Y-52541422D01*
G37*
G36*
X32917572Y-58804933D02*
G01*
X32923639Y-58805833D01*
X32929589Y-58807323D01*
X32935364Y-58809390D01*
X32940908Y-58812012D01*
X32946169Y-58815165D01*
X32951096Y-58818819D01*
X32955640Y-58822938D01*
X33044028Y-58911326D01*
X33048147Y-58915870D01*
X33051801Y-58920797D01*
X33054954Y-58926058D01*
X33057576Y-58931602D01*
X33059643Y-58937377D01*
X33061133Y-58943327D01*
X33062033Y-58949394D01*
X33062334Y-58955520D01*
X33062033Y-58961646D01*
X33061133Y-58967713D01*
X33059643Y-58973663D01*
X33057576Y-58979438D01*
X33054954Y-58984982D01*
X33051801Y-58990243D01*
X33048147Y-58995170D01*
X33044028Y-58999714D01*
X32372276Y-59671466D01*
X32367732Y-59675585D01*
X32362805Y-59679239D01*
X32357544Y-59682392D01*
X32352000Y-59685014D01*
X32346225Y-59687081D01*
X32340275Y-59688571D01*
X32334208Y-59689471D01*
X32328082Y-59689772D01*
X32321956Y-59689471D01*
X32315889Y-59688571D01*
X32309939Y-59687081D01*
X32304164Y-59685014D01*
X32298620Y-59682392D01*
X32293359Y-59679239D01*
X32288432Y-59675585D01*
X32283888Y-59671466D01*
X32195500Y-59583078D01*
X32191381Y-59578534D01*
X32187727Y-59573607D01*
X32184574Y-59568346D01*
X32181952Y-59562802D01*
X32179885Y-59557027D01*
X32178395Y-59551077D01*
X32177495Y-59545010D01*
X32177194Y-59538884D01*
X32177495Y-59532758D01*
X32178395Y-59526691D01*
X32179885Y-59520741D01*
X32181952Y-59514966D01*
X32184574Y-59509422D01*
X32187727Y-59504161D01*
X32191381Y-59499234D01*
X32195500Y-59494690D01*
X32867252Y-58822938D01*
X32871796Y-58818819D01*
X32876723Y-58815165D01*
X32881984Y-58812012D01*
X32887528Y-58809390D01*
X32893303Y-58807323D01*
X32899253Y-58805833D01*
X32905320Y-58804933D01*
X32911446Y-58804632D01*
X32917572Y-58804933D01*
X32917572Y-58804933D01*
G37*
D13*
X32619764Y-59247202D03*
D11*
G36*
X33271126Y-59158486D02*
G01*
X33277193Y-59159386D01*
X33283143Y-59160876D01*
X33288918Y-59162943D01*
X33294462Y-59165565D01*
X33299723Y-59168718D01*
X33304650Y-59172372D01*
X33309194Y-59176491D01*
X33397582Y-59264879D01*
X33401701Y-59269423D01*
X33405355Y-59274350D01*
X33408508Y-59279611D01*
X33411130Y-59285155D01*
X33413197Y-59290930D01*
X33414687Y-59296880D01*
X33415587Y-59302947D01*
X33415888Y-59309073D01*
X33415587Y-59315199D01*
X33414687Y-59321266D01*
X33413197Y-59327216D01*
X33411130Y-59332991D01*
X33408508Y-59338535D01*
X33405355Y-59343796D01*
X33401701Y-59348723D01*
X33397582Y-59353267D01*
X32725830Y-60025019D01*
X32721286Y-60029138D01*
X32716359Y-60032792D01*
X32711098Y-60035945D01*
X32705554Y-60038567D01*
X32699779Y-60040634D01*
X32693829Y-60042124D01*
X32687762Y-60043024D01*
X32681636Y-60043325D01*
X32675510Y-60043024D01*
X32669443Y-60042124D01*
X32663493Y-60040634D01*
X32657718Y-60038567D01*
X32652174Y-60035945D01*
X32646913Y-60032792D01*
X32641986Y-60029138D01*
X32637442Y-60025019D01*
X32549054Y-59936631D01*
X32544935Y-59932087D01*
X32541281Y-59927160D01*
X32538128Y-59921899D01*
X32535506Y-59916355D01*
X32533439Y-59910580D01*
X32531949Y-59904630D01*
X32531049Y-59898563D01*
X32530748Y-59892437D01*
X32531049Y-59886311D01*
X32531949Y-59880244D01*
X32533439Y-59874294D01*
X32535506Y-59868519D01*
X32538128Y-59862975D01*
X32541281Y-59857714D01*
X32544935Y-59852787D01*
X32549054Y-59848243D01*
X33220806Y-59176491D01*
X33225350Y-59172372D01*
X33230277Y-59168718D01*
X33235538Y-59165565D01*
X33241082Y-59162943D01*
X33246857Y-59160876D01*
X33252807Y-59159386D01*
X33258874Y-59158486D01*
X33265000Y-59158185D01*
X33271126Y-59158486D01*
X33271126Y-59158486D01*
G37*
D13*
X32973318Y-59600755D03*
D11*
G36*
X33624679Y-59512040D02*
G01*
X33630746Y-59512940D01*
X33636696Y-59514430D01*
X33642471Y-59516497D01*
X33648015Y-59519119D01*
X33653276Y-59522272D01*
X33658203Y-59525926D01*
X33662747Y-59530045D01*
X33751135Y-59618433D01*
X33755254Y-59622977D01*
X33758908Y-59627904D01*
X33762061Y-59633165D01*
X33764683Y-59638709D01*
X33766750Y-59644484D01*
X33768240Y-59650434D01*
X33769140Y-59656501D01*
X33769441Y-59662627D01*
X33769140Y-59668753D01*
X33768240Y-59674820D01*
X33766750Y-59680770D01*
X33764683Y-59686545D01*
X33762061Y-59692089D01*
X33758908Y-59697350D01*
X33755254Y-59702277D01*
X33751135Y-59706821D01*
X33079383Y-60378573D01*
X33074839Y-60382692D01*
X33069912Y-60386346D01*
X33064651Y-60389499D01*
X33059107Y-60392121D01*
X33053332Y-60394188D01*
X33047382Y-60395678D01*
X33041315Y-60396578D01*
X33035189Y-60396879D01*
X33029063Y-60396578D01*
X33022996Y-60395678D01*
X33017046Y-60394188D01*
X33011271Y-60392121D01*
X33005727Y-60389499D01*
X33000466Y-60386346D01*
X32995539Y-60382692D01*
X32990995Y-60378573D01*
X32902607Y-60290185D01*
X32898488Y-60285641D01*
X32894834Y-60280714D01*
X32891681Y-60275453D01*
X32889059Y-60269909D01*
X32886992Y-60264134D01*
X32885502Y-60258184D01*
X32884602Y-60252117D01*
X32884301Y-60245991D01*
X32884602Y-60239865D01*
X32885502Y-60233798D01*
X32886992Y-60227848D01*
X32889059Y-60222073D01*
X32891681Y-60216529D01*
X32894834Y-60211268D01*
X32898488Y-60206341D01*
X32902607Y-60201797D01*
X33574359Y-59530045D01*
X33578903Y-59525926D01*
X33583830Y-59522272D01*
X33589091Y-59519119D01*
X33594635Y-59516497D01*
X33600410Y-59514430D01*
X33606360Y-59512940D01*
X33612427Y-59512040D01*
X33618553Y-59511739D01*
X33624679Y-59512040D01*
X33624679Y-59512040D01*
G37*
D13*
X33326871Y-59954309D03*
D11*
G36*
X33978232Y-59865593D02*
G01*
X33984299Y-59866493D01*
X33990249Y-59867983D01*
X33996024Y-59870050D01*
X34001568Y-59872672D01*
X34006829Y-59875825D01*
X34011756Y-59879479D01*
X34016300Y-59883598D01*
X34104688Y-59971986D01*
X34108807Y-59976530D01*
X34112461Y-59981457D01*
X34115614Y-59986718D01*
X34118236Y-59992262D01*
X34120303Y-59998037D01*
X34121793Y-60003987D01*
X34122693Y-60010054D01*
X34122994Y-60016180D01*
X34122693Y-60022306D01*
X34121793Y-60028373D01*
X34120303Y-60034323D01*
X34118236Y-60040098D01*
X34115614Y-60045642D01*
X34112461Y-60050903D01*
X34108807Y-60055830D01*
X34104688Y-60060374D01*
X33432936Y-60732126D01*
X33428392Y-60736245D01*
X33423465Y-60739899D01*
X33418204Y-60743052D01*
X33412660Y-60745674D01*
X33406885Y-60747741D01*
X33400935Y-60749231D01*
X33394868Y-60750131D01*
X33388742Y-60750432D01*
X33382616Y-60750131D01*
X33376549Y-60749231D01*
X33370599Y-60747741D01*
X33364824Y-60745674D01*
X33359280Y-60743052D01*
X33354019Y-60739899D01*
X33349092Y-60736245D01*
X33344548Y-60732126D01*
X33256160Y-60643738D01*
X33252041Y-60639194D01*
X33248387Y-60634267D01*
X33245234Y-60629006D01*
X33242612Y-60623462D01*
X33240545Y-60617687D01*
X33239055Y-60611737D01*
X33238155Y-60605670D01*
X33237854Y-60599544D01*
X33238155Y-60593418D01*
X33239055Y-60587351D01*
X33240545Y-60581401D01*
X33242612Y-60575626D01*
X33245234Y-60570082D01*
X33248387Y-60564821D01*
X33252041Y-60559894D01*
X33256160Y-60555350D01*
X33927912Y-59883598D01*
X33932456Y-59879479D01*
X33937383Y-59875825D01*
X33942644Y-59872672D01*
X33948188Y-59870050D01*
X33953963Y-59867983D01*
X33959913Y-59866493D01*
X33965980Y-59865593D01*
X33972106Y-59865292D01*
X33978232Y-59865593D01*
X33978232Y-59865593D01*
G37*
D13*
X33680424Y-60307862D03*
D11*
G36*
X34331786Y-60219146D02*
G01*
X34337853Y-60220046D01*
X34343803Y-60221536D01*
X34349578Y-60223603D01*
X34355122Y-60226225D01*
X34360383Y-60229378D01*
X34365310Y-60233032D01*
X34369854Y-60237151D01*
X34458242Y-60325539D01*
X34462361Y-60330083D01*
X34466015Y-60335010D01*
X34469168Y-60340271D01*
X34471790Y-60345815D01*
X34473857Y-60351590D01*
X34475347Y-60357540D01*
X34476247Y-60363607D01*
X34476548Y-60369733D01*
X34476247Y-60375859D01*
X34475347Y-60381926D01*
X34473857Y-60387876D01*
X34471790Y-60393651D01*
X34469168Y-60399195D01*
X34466015Y-60404456D01*
X34462361Y-60409383D01*
X34458242Y-60413927D01*
X33786490Y-61085679D01*
X33781946Y-61089798D01*
X33777019Y-61093452D01*
X33771758Y-61096605D01*
X33766214Y-61099227D01*
X33760439Y-61101294D01*
X33754489Y-61102784D01*
X33748422Y-61103684D01*
X33742296Y-61103985D01*
X33736170Y-61103684D01*
X33730103Y-61102784D01*
X33724153Y-61101294D01*
X33718378Y-61099227D01*
X33712834Y-61096605D01*
X33707573Y-61093452D01*
X33702646Y-61089798D01*
X33698102Y-61085679D01*
X33609714Y-60997291D01*
X33605595Y-60992747D01*
X33601941Y-60987820D01*
X33598788Y-60982559D01*
X33596166Y-60977015D01*
X33594099Y-60971240D01*
X33592609Y-60965290D01*
X33591709Y-60959223D01*
X33591408Y-60953097D01*
X33591709Y-60946971D01*
X33592609Y-60940904D01*
X33594099Y-60934954D01*
X33596166Y-60929179D01*
X33598788Y-60923635D01*
X33601941Y-60918374D01*
X33605595Y-60913447D01*
X33609714Y-60908903D01*
X34281466Y-60237151D01*
X34286010Y-60233032D01*
X34290937Y-60229378D01*
X34296198Y-60226225D01*
X34301742Y-60223603D01*
X34307517Y-60221536D01*
X34313467Y-60220046D01*
X34319534Y-60219146D01*
X34325660Y-60218845D01*
X34331786Y-60219146D01*
X34331786Y-60219146D01*
G37*
D13*
X34033978Y-60661415D03*
D11*
G36*
X34685339Y-60572700D02*
G01*
X34691406Y-60573600D01*
X34697356Y-60575090D01*
X34703131Y-60577157D01*
X34708675Y-60579779D01*
X34713936Y-60582932D01*
X34718863Y-60586586D01*
X34723407Y-60590705D01*
X34811795Y-60679093D01*
X34815914Y-60683637D01*
X34819568Y-60688564D01*
X34822721Y-60693825D01*
X34825343Y-60699369D01*
X34827410Y-60705144D01*
X34828900Y-60711094D01*
X34829800Y-60717161D01*
X34830101Y-60723287D01*
X34829800Y-60729413D01*
X34828900Y-60735480D01*
X34827410Y-60741430D01*
X34825343Y-60747205D01*
X34822721Y-60752749D01*
X34819568Y-60758010D01*
X34815914Y-60762937D01*
X34811795Y-60767481D01*
X34140043Y-61439233D01*
X34135499Y-61443352D01*
X34130572Y-61447006D01*
X34125311Y-61450159D01*
X34119767Y-61452781D01*
X34113992Y-61454848D01*
X34108042Y-61456338D01*
X34101975Y-61457238D01*
X34095849Y-61457539D01*
X34089723Y-61457238D01*
X34083656Y-61456338D01*
X34077706Y-61454848D01*
X34071931Y-61452781D01*
X34066387Y-61450159D01*
X34061126Y-61447006D01*
X34056199Y-61443352D01*
X34051655Y-61439233D01*
X33963267Y-61350845D01*
X33959148Y-61346301D01*
X33955494Y-61341374D01*
X33952341Y-61336113D01*
X33949719Y-61330569D01*
X33947652Y-61324794D01*
X33946162Y-61318844D01*
X33945262Y-61312777D01*
X33944961Y-61306651D01*
X33945262Y-61300525D01*
X33946162Y-61294458D01*
X33947652Y-61288508D01*
X33949719Y-61282733D01*
X33952341Y-61277189D01*
X33955494Y-61271928D01*
X33959148Y-61267001D01*
X33963267Y-61262457D01*
X34635019Y-60590705D01*
X34639563Y-60586586D01*
X34644490Y-60582932D01*
X34649751Y-60579779D01*
X34655295Y-60577157D01*
X34661070Y-60575090D01*
X34667020Y-60573600D01*
X34673087Y-60572700D01*
X34679213Y-60572399D01*
X34685339Y-60572700D01*
X34685339Y-60572700D01*
G37*
D13*
X34387531Y-61014969D03*
D11*
G36*
X35038893Y-60926253D02*
G01*
X35044960Y-60927153D01*
X35050910Y-60928643D01*
X35056685Y-60930710D01*
X35062229Y-60933332D01*
X35067490Y-60936485D01*
X35072417Y-60940139D01*
X35076961Y-60944258D01*
X35165349Y-61032646D01*
X35169468Y-61037190D01*
X35173122Y-61042117D01*
X35176275Y-61047378D01*
X35178897Y-61052922D01*
X35180964Y-61058697D01*
X35182454Y-61064647D01*
X35183354Y-61070714D01*
X35183655Y-61076840D01*
X35183354Y-61082966D01*
X35182454Y-61089033D01*
X35180964Y-61094983D01*
X35178897Y-61100758D01*
X35176275Y-61106302D01*
X35173122Y-61111563D01*
X35169468Y-61116490D01*
X35165349Y-61121034D01*
X34493597Y-61792786D01*
X34489053Y-61796905D01*
X34484126Y-61800559D01*
X34478865Y-61803712D01*
X34473321Y-61806334D01*
X34467546Y-61808401D01*
X34461596Y-61809891D01*
X34455529Y-61810791D01*
X34449403Y-61811092D01*
X34443277Y-61810791D01*
X34437210Y-61809891D01*
X34431260Y-61808401D01*
X34425485Y-61806334D01*
X34419941Y-61803712D01*
X34414680Y-61800559D01*
X34409753Y-61796905D01*
X34405209Y-61792786D01*
X34316821Y-61704398D01*
X34312702Y-61699854D01*
X34309048Y-61694927D01*
X34305895Y-61689666D01*
X34303273Y-61684122D01*
X34301206Y-61678347D01*
X34299716Y-61672397D01*
X34298816Y-61666330D01*
X34298515Y-61660204D01*
X34298816Y-61654078D01*
X34299716Y-61648011D01*
X34301206Y-61642061D01*
X34303273Y-61636286D01*
X34305895Y-61630742D01*
X34309048Y-61625481D01*
X34312702Y-61620554D01*
X34316821Y-61616010D01*
X34988573Y-60944258D01*
X34993117Y-60940139D01*
X34998044Y-60936485D01*
X35003305Y-60933332D01*
X35008849Y-60930710D01*
X35014624Y-60928643D01*
X35020574Y-60927153D01*
X35026641Y-60926253D01*
X35032767Y-60925952D01*
X35038893Y-60926253D01*
X35038893Y-60926253D01*
G37*
D13*
X34741085Y-61368522D03*
D11*
G36*
X35392446Y-61279807D02*
G01*
X35398513Y-61280707D01*
X35404463Y-61282197D01*
X35410238Y-61284264D01*
X35415782Y-61286886D01*
X35421043Y-61290039D01*
X35425970Y-61293693D01*
X35430514Y-61297812D01*
X35518902Y-61386200D01*
X35523021Y-61390744D01*
X35526675Y-61395671D01*
X35529828Y-61400932D01*
X35532450Y-61406476D01*
X35534517Y-61412251D01*
X35536007Y-61418201D01*
X35536907Y-61424268D01*
X35537208Y-61430394D01*
X35536907Y-61436520D01*
X35536007Y-61442587D01*
X35534517Y-61448537D01*
X35532450Y-61454312D01*
X35529828Y-61459856D01*
X35526675Y-61465117D01*
X35523021Y-61470044D01*
X35518902Y-61474588D01*
X34847150Y-62146340D01*
X34842606Y-62150459D01*
X34837679Y-62154113D01*
X34832418Y-62157266D01*
X34826874Y-62159888D01*
X34821099Y-62161955D01*
X34815149Y-62163445D01*
X34809082Y-62164345D01*
X34802956Y-62164646D01*
X34796830Y-62164345D01*
X34790763Y-62163445D01*
X34784813Y-62161955D01*
X34779038Y-62159888D01*
X34773494Y-62157266D01*
X34768233Y-62154113D01*
X34763306Y-62150459D01*
X34758762Y-62146340D01*
X34670374Y-62057952D01*
X34666255Y-62053408D01*
X34662601Y-62048481D01*
X34659448Y-62043220D01*
X34656826Y-62037676D01*
X34654759Y-62031901D01*
X34653269Y-62025951D01*
X34652369Y-62019884D01*
X34652068Y-62013758D01*
X34652369Y-62007632D01*
X34653269Y-62001565D01*
X34654759Y-61995615D01*
X34656826Y-61989840D01*
X34659448Y-61984296D01*
X34662601Y-61979035D01*
X34666255Y-61974108D01*
X34670374Y-61969564D01*
X35342126Y-61297812D01*
X35346670Y-61293693D01*
X35351597Y-61290039D01*
X35356858Y-61286886D01*
X35362402Y-61284264D01*
X35368177Y-61282197D01*
X35374127Y-61280707D01*
X35380194Y-61279807D01*
X35386320Y-61279506D01*
X35392446Y-61279807D01*
X35392446Y-61279807D01*
G37*
D13*
X35094638Y-61722076D03*
D11*
G36*
X35745999Y-61633360D02*
G01*
X35752066Y-61634260D01*
X35758016Y-61635750D01*
X35763791Y-61637817D01*
X35769335Y-61640439D01*
X35774596Y-61643592D01*
X35779523Y-61647246D01*
X35784067Y-61651365D01*
X35872455Y-61739753D01*
X35876574Y-61744297D01*
X35880228Y-61749224D01*
X35883381Y-61754485D01*
X35886003Y-61760029D01*
X35888070Y-61765804D01*
X35889560Y-61771754D01*
X35890460Y-61777821D01*
X35890761Y-61783947D01*
X35890460Y-61790073D01*
X35889560Y-61796140D01*
X35888070Y-61802090D01*
X35886003Y-61807865D01*
X35883381Y-61813409D01*
X35880228Y-61818670D01*
X35876574Y-61823597D01*
X35872455Y-61828141D01*
X35200703Y-62499893D01*
X35196159Y-62504012D01*
X35191232Y-62507666D01*
X35185971Y-62510819D01*
X35180427Y-62513441D01*
X35174652Y-62515508D01*
X35168702Y-62516998D01*
X35162635Y-62517898D01*
X35156509Y-62518199D01*
X35150383Y-62517898D01*
X35144316Y-62516998D01*
X35138366Y-62515508D01*
X35132591Y-62513441D01*
X35127047Y-62510819D01*
X35121786Y-62507666D01*
X35116859Y-62504012D01*
X35112315Y-62499893D01*
X35023927Y-62411505D01*
X35019808Y-62406961D01*
X35016154Y-62402034D01*
X35013001Y-62396773D01*
X35010379Y-62391229D01*
X35008312Y-62385454D01*
X35006822Y-62379504D01*
X35005922Y-62373437D01*
X35005621Y-62367311D01*
X35005922Y-62361185D01*
X35006822Y-62355118D01*
X35008312Y-62349168D01*
X35010379Y-62343393D01*
X35013001Y-62337849D01*
X35016154Y-62332588D01*
X35019808Y-62327661D01*
X35023927Y-62323117D01*
X35695679Y-61651365D01*
X35700223Y-61647246D01*
X35705150Y-61643592D01*
X35710411Y-61640439D01*
X35715955Y-61637817D01*
X35721730Y-61635750D01*
X35727680Y-61634260D01*
X35733747Y-61633360D01*
X35739873Y-61633059D01*
X35745999Y-61633360D01*
X35745999Y-61633360D01*
G37*
D13*
X35448191Y-62075629D03*
D11*
G36*
X36099553Y-61986913D02*
G01*
X36105620Y-61987813D01*
X36111570Y-61989303D01*
X36117345Y-61991370D01*
X36122889Y-61993992D01*
X36128150Y-61997145D01*
X36133077Y-62000799D01*
X36137621Y-62004918D01*
X36226009Y-62093306D01*
X36230128Y-62097850D01*
X36233782Y-62102777D01*
X36236935Y-62108038D01*
X36239557Y-62113582D01*
X36241624Y-62119357D01*
X36243114Y-62125307D01*
X36244014Y-62131374D01*
X36244315Y-62137500D01*
X36244014Y-62143626D01*
X36243114Y-62149693D01*
X36241624Y-62155643D01*
X36239557Y-62161418D01*
X36236935Y-62166962D01*
X36233782Y-62172223D01*
X36230128Y-62177150D01*
X36226009Y-62181694D01*
X35554257Y-62853446D01*
X35549713Y-62857565D01*
X35544786Y-62861219D01*
X35539525Y-62864372D01*
X35533981Y-62866994D01*
X35528206Y-62869061D01*
X35522256Y-62870551D01*
X35516189Y-62871451D01*
X35510063Y-62871752D01*
X35503937Y-62871451D01*
X35497870Y-62870551D01*
X35491920Y-62869061D01*
X35486145Y-62866994D01*
X35480601Y-62864372D01*
X35475340Y-62861219D01*
X35470413Y-62857565D01*
X35465869Y-62853446D01*
X35377481Y-62765058D01*
X35373362Y-62760514D01*
X35369708Y-62755587D01*
X35366555Y-62750326D01*
X35363933Y-62744782D01*
X35361866Y-62739007D01*
X35360376Y-62733057D01*
X35359476Y-62726990D01*
X35359175Y-62720864D01*
X35359476Y-62714738D01*
X35360376Y-62708671D01*
X35361866Y-62702721D01*
X35363933Y-62696946D01*
X35366555Y-62691402D01*
X35369708Y-62686141D01*
X35373362Y-62681214D01*
X35377481Y-62676670D01*
X36049233Y-62004918D01*
X36053777Y-62000799D01*
X36058704Y-61997145D01*
X36063965Y-61993992D01*
X36069509Y-61991370D01*
X36075284Y-61989303D01*
X36081234Y-61987813D01*
X36087301Y-61986913D01*
X36093427Y-61986612D01*
X36099553Y-61986913D01*
X36099553Y-61986913D01*
G37*
D13*
X35801745Y-62429182D03*
D11*
G36*
X36453106Y-62340467D02*
G01*
X36459173Y-62341367D01*
X36465123Y-62342857D01*
X36470898Y-62344924D01*
X36476442Y-62347546D01*
X36481703Y-62350699D01*
X36486630Y-62354353D01*
X36491174Y-62358472D01*
X36579562Y-62446860D01*
X36583681Y-62451404D01*
X36587335Y-62456331D01*
X36590488Y-62461592D01*
X36593110Y-62467136D01*
X36595177Y-62472911D01*
X36596667Y-62478861D01*
X36597567Y-62484928D01*
X36597868Y-62491054D01*
X36597567Y-62497180D01*
X36596667Y-62503247D01*
X36595177Y-62509197D01*
X36593110Y-62514972D01*
X36590488Y-62520516D01*
X36587335Y-62525777D01*
X36583681Y-62530704D01*
X36579562Y-62535248D01*
X35907810Y-63207000D01*
X35903266Y-63211119D01*
X35898339Y-63214773D01*
X35893078Y-63217926D01*
X35887534Y-63220548D01*
X35881759Y-63222615D01*
X35875809Y-63224105D01*
X35869742Y-63225005D01*
X35863616Y-63225306D01*
X35857490Y-63225005D01*
X35851423Y-63224105D01*
X35845473Y-63222615D01*
X35839698Y-63220548D01*
X35834154Y-63217926D01*
X35828893Y-63214773D01*
X35823966Y-63211119D01*
X35819422Y-63207000D01*
X35731034Y-63118612D01*
X35726915Y-63114068D01*
X35723261Y-63109141D01*
X35720108Y-63103880D01*
X35717486Y-63098336D01*
X35715419Y-63092561D01*
X35713929Y-63086611D01*
X35713029Y-63080544D01*
X35712728Y-63074418D01*
X35713029Y-63068292D01*
X35713929Y-63062225D01*
X35715419Y-63056275D01*
X35717486Y-63050500D01*
X35720108Y-63044956D01*
X35723261Y-63039695D01*
X35726915Y-63034768D01*
X35731034Y-63030224D01*
X36402786Y-62358472D01*
X36407330Y-62354353D01*
X36412257Y-62350699D01*
X36417518Y-62347546D01*
X36423062Y-62344924D01*
X36428837Y-62342857D01*
X36434787Y-62341367D01*
X36440854Y-62340467D01*
X36446980Y-62340166D01*
X36453106Y-62340467D01*
X36453106Y-62340467D01*
G37*
D13*
X36155298Y-62782736D03*
D11*
G36*
X37054146Y-62340467D02*
G01*
X37060213Y-62341367D01*
X37066163Y-62342857D01*
X37071938Y-62344924D01*
X37077482Y-62347546D01*
X37082743Y-62350699D01*
X37087670Y-62354353D01*
X37092214Y-62358472D01*
X37763966Y-63030224D01*
X37768085Y-63034768D01*
X37771739Y-63039695D01*
X37774892Y-63044956D01*
X37777514Y-63050500D01*
X37779581Y-63056275D01*
X37781071Y-63062225D01*
X37781971Y-63068292D01*
X37782272Y-63074418D01*
X37781971Y-63080544D01*
X37781071Y-63086611D01*
X37779581Y-63092561D01*
X37777514Y-63098336D01*
X37774892Y-63103880D01*
X37771739Y-63109141D01*
X37768085Y-63114068D01*
X37763966Y-63118612D01*
X37675578Y-63207000D01*
X37671034Y-63211119D01*
X37666107Y-63214773D01*
X37660846Y-63217926D01*
X37655302Y-63220548D01*
X37649527Y-63222615D01*
X37643577Y-63224105D01*
X37637510Y-63225005D01*
X37631384Y-63225306D01*
X37625258Y-63225005D01*
X37619191Y-63224105D01*
X37613241Y-63222615D01*
X37607466Y-63220548D01*
X37601922Y-63217926D01*
X37596661Y-63214773D01*
X37591734Y-63211119D01*
X37587190Y-63207000D01*
X36915438Y-62535248D01*
X36911319Y-62530704D01*
X36907665Y-62525777D01*
X36904512Y-62520516D01*
X36901890Y-62514972D01*
X36899823Y-62509197D01*
X36898333Y-62503247D01*
X36897433Y-62497180D01*
X36897132Y-62491054D01*
X36897433Y-62484928D01*
X36898333Y-62478861D01*
X36899823Y-62472911D01*
X36901890Y-62467136D01*
X36904512Y-62461592D01*
X36907665Y-62456331D01*
X36911319Y-62451404D01*
X36915438Y-62446860D01*
X37003826Y-62358472D01*
X37008370Y-62354353D01*
X37013297Y-62350699D01*
X37018558Y-62347546D01*
X37024102Y-62344924D01*
X37029877Y-62342857D01*
X37035827Y-62341367D01*
X37041894Y-62340467D01*
X37048020Y-62340166D01*
X37054146Y-62340467D01*
X37054146Y-62340467D01*
G37*
D13*
X37339702Y-62782736D03*
D11*
G36*
X37407699Y-61986913D02*
G01*
X37413766Y-61987813D01*
X37419716Y-61989303D01*
X37425491Y-61991370D01*
X37431035Y-61993992D01*
X37436296Y-61997145D01*
X37441223Y-62000799D01*
X37445767Y-62004918D01*
X38117519Y-62676670D01*
X38121638Y-62681214D01*
X38125292Y-62686141D01*
X38128445Y-62691402D01*
X38131067Y-62696946D01*
X38133134Y-62702721D01*
X38134624Y-62708671D01*
X38135524Y-62714738D01*
X38135825Y-62720864D01*
X38135524Y-62726990D01*
X38134624Y-62733057D01*
X38133134Y-62739007D01*
X38131067Y-62744782D01*
X38128445Y-62750326D01*
X38125292Y-62755587D01*
X38121638Y-62760514D01*
X38117519Y-62765058D01*
X38029131Y-62853446D01*
X38024587Y-62857565D01*
X38019660Y-62861219D01*
X38014399Y-62864372D01*
X38008855Y-62866994D01*
X38003080Y-62869061D01*
X37997130Y-62870551D01*
X37991063Y-62871451D01*
X37984937Y-62871752D01*
X37978811Y-62871451D01*
X37972744Y-62870551D01*
X37966794Y-62869061D01*
X37961019Y-62866994D01*
X37955475Y-62864372D01*
X37950214Y-62861219D01*
X37945287Y-62857565D01*
X37940743Y-62853446D01*
X37268991Y-62181694D01*
X37264872Y-62177150D01*
X37261218Y-62172223D01*
X37258065Y-62166962D01*
X37255443Y-62161418D01*
X37253376Y-62155643D01*
X37251886Y-62149693D01*
X37250986Y-62143626D01*
X37250685Y-62137500D01*
X37250986Y-62131374D01*
X37251886Y-62125307D01*
X37253376Y-62119357D01*
X37255443Y-62113582D01*
X37258065Y-62108038D01*
X37261218Y-62102777D01*
X37264872Y-62097850D01*
X37268991Y-62093306D01*
X37357379Y-62004918D01*
X37361923Y-62000799D01*
X37366850Y-61997145D01*
X37372111Y-61993992D01*
X37377655Y-61991370D01*
X37383430Y-61989303D01*
X37389380Y-61987813D01*
X37395447Y-61986913D01*
X37401573Y-61986612D01*
X37407699Y-61986913D01*
X37407699Y-61986913D01*
G37*
D13*
X37693255Y-62429182D03*
D11*
G36*
X37761253Y-61633360D02*
G01*
X37767320Y-61634260D01*
X37773270Y-61635750D01*
X37779045Y-61637817D01*
X37784589Y-61640439D01*
X37789850Y-61643592D01*
X37794777Y-61647246D01*
X37799321Y-61651365D01*
X38471073Y-62323117D01*
X38475192Y-62327661D01*
X38478846Y-62332588D01*
X38481999Y-62337849D01*
X38484621Y-62343393D01*
X38486688Y-62349168D01*
X38488178Y-62355118D01*
X38489078Y-62361185D01*
X38489379Y-62367311D01*
X38489078Y-62373437D01*
X38488178Y-62379504D01*
X38486688Y-62385454D01*
X38484621Y-62391229D01*
X38481999Y-62396773D01*
X38478846Y-62402034D01*
X38475192Y-62406961D01*
X38471073Y-62411505D01*
X38382685Y-62499893D01*
X38378141Y-62504012D01*
X38373214Y-62507666D01*
X38367953Y-62510819D01*
X38362409Y-62513441D01*
X38356634Y-62515508D01*
X38350684Y-62516998D01*
X38344617Y-62517898D01*
X38338491Y-62518199D01*
X38332365Y-62517898D01*
X38326298Y-62516998D01*
X38320348Y-62515508D01*
X38314573Y-62513441D01*
X38309029Y-62510819D01*
X38303768Y-62507666D01*
X38298841Y-62504012D01*
X38294297Y-62499893D01*
X37622545Y-61828141D01*
X37618426Y-61823597D01*
X37614772Y-61818670D01*
X37611619Y-61813409D01*
X37608997Y-61807865D01*
X37606930Y-61802090D01*
X37605440Y-61796140D01*
X37604540Y-61790073D01*
X37604239Y-61783947D01*
X37604540Y-61777821D01*
X37605440Y-61771754D01*
X37606930Y-61765804D01*
X37608997Y-61760029D01*
X37611619Y-61754485D01*
X37614772Y-61749224D01*
X37618426Y-61744297D01*
X37622545Y-61739753D01*
X37710933Y-61651365D01*
X37715477Y-61647246D01*
X37720404Y-61643592D01*
X37725665Y-61640439D01*
X37731209Y-61637817D01*
X37736984Y-61635750D01*
X37742934Y-61634260D01*
X37749001Y-61633360D01*
X37755127Y-61633059D01*
X37761253Y-61633360D01*
X37761253Y-61633360D01*
G37*
D13*
X38046809Y-62075629D03*
D11*
G36*
X38114806Y-61279807D02*
G01*
X38120873Y-61280707D01*
X38126823Y-61282197D01*
X38132598Y-61284264D01*
X38138142Y-61286886D01*
X38143403Y-61290039D01*
X38148330Y-61293693D01*
X38152874Y-61297812D01*
X38824626Y-61969564D01*
X38828745Y-61974108D01*
X38832399Y-61979035D01*
X38835552Y-61984296D01*
X38838174Y-61989840D01*
X38840241Y-61995615D01*
X38841731Y-62001565D01*
X38842631Y-62007632D01*
X38842932Y-62013758D01*
X38842631Y-62019884D01*
X38841731Y-62025951D01*
X38840241Y-62031901D01*
X38838174Y-62037676D01*
X38835552Y-62043220D01*
X38832399Y-62048481D01*
X38828745Y-62053408D01*
X38824626Y-62057952D01*
X38736238Y-62146340D01*
X38731694Y-62150459D01*
X38726767Y-62154113D01*
X38721506Y-62157266D01*
X38715962Y-62159888D01*
X38710187Y-62161955D01*
X38704237Y-62163445D01*
X38698170Y-62164345D01*
X38692044Y-62164646D01*
X38685918Y-62164345D01*
X38679851Y-62163445D01*
X38673901Y-62161955D01*
X38668126Y-62159888D01*
X38662582Y-62157266D01*
X38657321Y-62154113D01*
X38652394Y-62150459D01*
X38647850Y-62146340D01*
X37976098Y-61474588D01*
X37971979Y-61470044D01*
X37968325Y-61465117D01*
X37965172Y-61459856D01*
X37962550Y-61454312D01*
X37960483Y-61448537D01*
X37958993Y-61442587D01*
X37958093Y-61436520D01*
X37957792Y-61430394D01*
X37958093Y-61424268D01*
X37958993Y-61418201D01*
X37960483Y-61412251D01*
X37962550Y-61406476D01*
X37965172Y-61400932D01*
X37968325Y-61395671D01*
X37971979Y-61390744D01*
X37976098Y-61386200D01*
X38064486Y-61297812D01*
X38069030Y-61293693D01*
X38073957Y-61290039D01*
X38079218Y-61286886D01*
X38084762Y-61284264D01*
X38090537Y-61282197D01*
X38096487Y-61280707D01*
X38102554Y-61279807D01*
X38108680Y-61279506D01*
X38114806Y-61279807D01*
X38114806Y-61279807D01*
G37*
D13*
X38400362Y-61722076D03*
D11*
G36*
X38468359Y-60926253D02*
G01*
X38474426Y-60927153D01*
X38480376Y-60928643D01*
X38486151Y-60930710D01*
X38491695Y-60933332D01*
X38496956Y-60936485D01*
X38501883Y-60940139D01*
X38506427Y-60944258D01*
X39178179Y-61616010D01*
X39182298Y-61620554D01*
X39185952Y-61625481D01*
X39189105Y-61630742D01*
X39191727Y-61636286D01*
X39193794Y-61642061D01*
X39195284Y-61648011D01*
X39196184Y-61654078D01*
X39196485Y-61660204D01*
X39196184Y-61666330D01*
X39195284Y-61672397D01*
X39193794Y-61678347D01*
X39191727Y-61684122D01*
X39189105Y-61689666D01*
X39185952Y-61694927D01*
X39182298Y-61699854D01*
X39178179Y-61704398D01*
X39089791Y-61792786D01*
X39085247Y-61796905D01*
X39080320Y-61800559D01*
X39075059Y-61803712D01*
X39069515Y-61806334D01*
X39063740Y-61808401D01*
X39057790Y-61809891D01*
X39051723Y-61810791D01*
X39045597Y-61811092D01*
X39039471Y-61810791D01*
X39033404Y-61809891D01*
X39027454Y-61808401D01*
X39021679Y-61806334D01*
X39016135Y-61803712D01*
X39010874Y-61800559D01*
X39005947Y-61796905D01*
X39001403Y-61792786D01*
X38329651Y-61121034D01*
X38325532Y-61116490D01*
X38321878Y-61111563D01*
X38318725Y-61106302D01*
X38316103Y-61100758D01*
X38314036Y-61094983D01*
X38312546Y-61089033D01*
X38311646Y-61082966D01*
X38311345Y-61076840D01*
X38311646Y-61070714D01*
X38312546Y-61064647D01*
X38314036Y-61058697D01*
X38316103Y-61052922D01*
X38318725Y-61047378D01*
X38321878Y-61042117D01*
X38325532Y-61037190D01*
X38329651Y-61032646D01*
X38418039Y-60944258D01*
X38422583Y-60940139D01*
X38427510Y-60936485D01*
X38432771Y-60933332D01*
X38438315Y-60930710D01*
X38444090Y-60928643D01*
X38450040Y-60927153D01*
X38456107Y-60926253D01*
X38462233Y-60925952D01*
X38468359Y-60926253D01*
X38468359Y-60926253D01*
G37*
D13*
X38753915Y-61368522D03*
D11*
G36*
X38821913Y-60572700D02*
G01*
X38827980Y-60573600D01*
X38833930Y-60575090D01*
X38839705Y-60577157D01*
X38845249Y-60579779D01*
X38850510Y-60582932D01*
X38855437Y-60586586D01*
X38859981Y-60590705D01*
X39531733Y-61262457D01*
X39535852Y-61267001D01*
X39539506Y-61271928D01*
X39542659Y-61277189D01*
X39545281Y-61282733D01*
X39547348Y-61288508D01*
X39548838Y-61294458D01*
X39549738Y-61300525D01*
X39550039Y-61306651D01*
X39549738Y-61312777D01*
X39548838Y-61318844D01*
X39547348Y-61324794D01*
X39545281Y-61330569D01*
X39542659Y-61336113D01*
X39539506Y-61341374D01*
X39535852Y-61346301D01*
X39531733Y-61350845D01*
X39443345Y-61439233D01*
X39438801Y-61443352D01*
X39433874Y-61447006D01*
X39428613Y-61450159D01*
X39423069Y-61452781D01*
X39417294Y-61454848D01*
X39411344Y-61456338D01*
X39405277Y-61457238D01*
X39399151Y-61457539D01*
X39393025Y-61457238D01*
X39386958Y-61456338D01*
X39381008Y-61454848D01*
X39375233Y-61452781D01*
X39369689Y-61450159D01*
X39364428Y-61447006D01*
X39359501Y-61443352D01*
X39354957Y-61439233D01*
X38683205Y-60767481D01*
X38679086Y-60762937D01*
X38675432Y-60758010D01*
X38672279Y-60752749D01*
X38669657Y-60747205D01*
X38667590Y-60741430D01*
X38666100Y-60735480D01*
X38665200Y-60729413D01*
X38664899Y-60723287D01*
X38665200Y-60717161D01*
X38666100Y-60711094D01*
X38667590Y-60705144D01*
X38669657Y-60699369D01*
X38672279Y-60693825D01*
X38675432Y-60688564D01*
X38679086Y-60683637D01*
X38683205Y-60679093D01*
X38771593Y-60590705D01*
X38776137Y-60586586D01*
X38781064Y-60582932D01*
X38786325Y-60579779D01*
X38791869Y-60577157D01*
X38797644Y-60575090D01*
X38803594Y-60573600D01*
X38809661Y-60572700D01*
X38815787Y-60572399D01*
X38821913Y-60572700D01*
X38821913Y-60572700D01*
G37*
D13*
X39107469Y-61014969D03*
D11*
G36*
X39175466Y-60219146D02*
G01*
X39181533Y-60220046D01*
X39187483Y-60221536D01*
X39193258Y-60223603D01*
X39198802Y-60226225D01*
X39204063Y-60229378D01*
X39208990Y-60233032D01*
X39213534Y-60237151D01*
X39885286Y-60908903D01*
X39889405Y-60913447D01*
X39893059Y-60918374D01*
X39896212Y-60923635D01*
X39898834Y-60929179D01*
X39900901Y-60934954D01*
X39902391Y-60940904D01*
X39903291Y-60946971D01*
X39903592Y-60953097D01*
X39903291Y-60959223D01*
X39902391Y-60965290D01*
X39900901Y-60971240D01*
X39898834Y-60977015D01*
X39896212Y-60982559D01*
X39893059Y-60987820D01*
X39889405Y-60992747D01*
X39885286Y-60997291D01*
X39796898Y-61085679D01*
X39792354Y-61089798D01*
X39787427Y-61093452D01*
X39782166Y-61096605D01*
X39776622Y-61099227D01*
X39770847Y-61101294D01*
X39764897Y-61102784D01*
X39758830Y-61103684D01*
X39752704Y-61103985D01*
X39746578Y-61103684D01*
X39740511Y-61102784D01*
X39734561Y-61101294D01*
X39728786Y-61099227D01*
X39723242Y-61096605D01*
X39717981Y-61093452D01*
X39713054Y-61089798D01*
X39708510Y-61085679D01*
X39036758Y-60413927D01*
X39032639Y-60409383D01*
X39028985Y-60404456D01*
X39025832Y-60399195D01*
X39023210Y-60393651D01*
X39021143Y-60387876D01*
X39019653Y-60381926D01*
X39018753Y-60375859D01*
X39018452Y-60369733D01*
X39018753Y-60363607D01*
X39019653Y-60357540D01*
X39021143Y-60351590D01*
X39023210Y-60345815D01*
X39025832Y-60340271D01*
X39028985Y-60335010D01*
X39032639Y-60330083D01*
X39036758Y-60325539D01*
X39125146Y-60237151D01*
X39129690Y-60233032D01*
X39134617Y-60229378D01*
X39139878Y-60226225D01*
X39145422Y-60223603D01*
X39151197Y-60221536D01*
X39157147Y-60220046D01*
X39163214Y-60219146D01*
X39169340Y-60218845D01*
X39175466Y-60219146D01*
X39175466Y-60219146D01*
G37*
D13*
X39461022Y-60661415D03*
D11*
G36*
X39529020Y-59865593D02*
G01*
X39535087Y-59866493D01*
X39541037Y-59867983D01*
X39546812Y-59870050D01*
X39552356Y-59872672D01*
X39557617Y-59875825D01*
X39562544Y-59879479D01*
X39567088Y-59883598D01*
X40238840Y-60555350D01*
X40242959Y-60559894D01*
X40246613Y-60564821D01*
X40249766Y-60570082D01*
X40252388Y-60575626D01*
X40254455Y-60581401D01*
X40255945Y-60587351D01*
X40256845Y-60593418D01*
X40257146Y-60599544D01*
X40256845Y-60605670D01*
X40255945Y-60611737D01*
X40254455Y-60617687D01*
X40252388Y-60623462D01*
X40249766Y-60629006D01*
X40246613Y-60634267D01*
X40242959Y-60639194D01*
X40238840Y-60643738D01*
X40150452Y-60732126D01*
X40145908Y-60736245D01*
X40140981Y-60739899D01*
X40135720Y-60743052D01*
X40130176Y-60745674D01*
X40124401Y-60747741D01*
X40118451Y-60749231D01*
X40112384Y-60750131D01*
X40106258Y-60750432D01*
X40100132Y-60750131D01*
X40094065Y-60749231D01*
X40088115Y-60747741D01*
X40082340Y-60745674D01*
X40076796Y-60743052D01*
X40071535Y-60739899D01*
X40066608Y-60736245D01*
X40062064Y-60732126D01*
X39390312Y-60060374D01*
X39386193Y-60055830D01*
X39382539Y-60050903D01*
X39379386Y-60045642D01*
X39376764Y-60040098D01*
X39374697Y-60034323D01*
X39373207Y-60028373D01*
X39372307Y-60022306D01*
X39372006Y-60016180D01*
X39372307Y-60010054D01*
X39373207Y-60003987D01*
X39374697Y-59998037D01*
X39376764Y-59992262D01*
X39379386Y-59986718D01*
X39382539Y-59981457D01*
X39386193Y-59976530D01*
X39390312Y-59971986D01*
X39478700Y-59883598D01*
X39483244Y-59879479D01*
X39488171Y-59875825D01*
X39493432Y-59872672D01*
X39498976Y-59870050D01*
X39504751Y-59867983D01*
X39510701Y-59866493D01*
X39516768Y-59865593D01*
X39522894Y-59865292D01*
X39529020Y-59865593D01*
X39529020Y-59865593D01*
G37*
D13*
X39814576Y-60307862D03*
D11*
G36*
X39882573Y-59512040D02*
G01*
X39888640Y-59512940D01*
X39894590Y-59514430D01*
X39900365Y-59516497D01*
X39905909Y-59519119D01*
X39911170Y-59522272D01*
X39916097Y-59525926D01*
X39920641Y-59530045D01*
X40592393Y-60201797D01*
X40596512Y-60206341D01*
X40600166Y-60211268D01*
X40603319Y-60216529D01*
X40605941Y-60222073D01*
X40608008Y-60227848D01*
X40609498Y-60233798D01*
X40610398Y-60239865D01*
X40610699Y-60245991D01*
X40610398Y-60252117D01*
X40609498Y-60258184D01*
X40608008Y-60264134D01*
X40605941Y-60269909D01*
X40603319Y-60275453D01*
X40600166Y-60280714D01*
X40596512Y-60285641D01*
X40592393Y-60290185D01*
X40504005Y-60378573D01*
X40499461Y-60382692D01*
X40494534Y-60386346D01*
X40489273Y-60389499D01*
X40483729Y-60392121D01*
X40477954Y-60394188D01*
X40472004Y-60395678D01*
X40465937Y-60396578D01*
X40459811Y-60396879D01*
X40453685Y-60396578D01*
X40447618Y-60395678D01*
X40441668Y-60394188D01*
X40435893Y-60392121D01*
X40430349Y-60389499D01*
X40425088Y-60386346D01*
X40420161Y-60382692D01*
X40415617Y-60378573D01*
X39743865Y-59706821D01*
X39739746Y-59702277D01*
X39736092Y-59697350D01*
X39732939Y-59692089D01*
X39730317Y-59686545D01*
X39728250Y-59680770D01*
X39726760Y-59674820D01*
X39725860Y-59668753D01*
X39725559Y-59662627D01*
X39725860Y-59656501D01*
X39726760Y-59650434D01*
X39728250Y-59644484D01*
X39730317Y-59638709D01*
X39732939Y-59633165D01*
X39736092Y-59627904D01*
X39739746Y-59622977D01*
X39743865Y-59618433D01*
X39832253Y-59530045D01*
X39836797Y-59525926D01*
X39841724Y-59522272D01*
X39846985Y-59519119D01*
X39852529Y-59516497D01*
X39858304Y-59514430D01*
X39864254Y-59512940D01*
X39870321Y-59512040D01*
X39876447Y-59511739D01*
X39882573Y-59512040D01*
X39882573Y-59512040D01*
G37*
D13*
X40168129Y-59954309D03*
D11*
G36*
X40236126Y-59158486D02*
G01*
X40242193Y-59159386D01*
X40248143Y-59160876D01*
X40253918Y-59162943D01*
X40259462Y-59165565D01*
X40264723Y-59168718D01*
X40269650Y-59172372D01*
X40274194Y-59176491D01*
X40945946Y-59848243D01*
X40950065Y-59852787D01*
X40953719Y-59857714D01*
X40956872Y-59862975D01*
X40959494Y-59868519D01*
X40961561Y-59874294D01*
X40963051Y-59880244D01*
X40963951Y-59886311D01*
X40964252Y-59892437D01*
X40963951Y-59898563D01*
X40963051Y-59904630D01*
X40961561Y-59910580D01*
X40959494Y-59916355D01*
X40956872Y-59921899D01*
X40953719Y-59927160D01*
X40950065Y-59932087D01*
X40945946Y-59936631D01*
X40857558Y-60025019D01*
X40853014Y-60029138D01*
X40848087Y-60032792D01*
X40842826Y-60035945D01*
X40837282Y-60038567D01*
X40831507Y-60040634D01*
X40825557Y-60042124D01*
X40819490Y-60043024D01*
X40813364Y-60043325D01*
X40807238Y-60043024D01*
X40801171Y-60042124D01*
X40795221Y-60040634D01*
X40789446Y-60038567D01*
X40783902Y-60035945D01*
X40778641Y-60032792D01*
X40773714Y-60029138D01*
X40769170Y-60025019D01*
X40097418Y-59353267D01*
X40093299Y-59348723D01*
X40089645Y-59343796D01*
X40086492Y-59338535D01*
X40083870Y-59332991D01*
X40081803Y-59327216D01*
X40080313Y-59321266D01*
X40079413Y-59315199D01*
X40079112Y-59309073D01*
X40079413Y-59302947D01*
X40080313Y-59296880D01*
X40081803Y-59290930D01*
X40083870Y-59285155D01*
X40086492Y-59279611D01*
X40089645Y-59274350D01*
X40093299Y-59269423D01*
X40097418Y-59264879D01*
X40185806Y-59176491D01*
X40190350Y-59172372D01*
X40195277Y-59168718D01*
X40200538Y-59165565D01*
X40206082Y-59162943D01*
X40211857Y-59160876D01*
X40217807Y-59159386D01*
X40223874Y-59158486D01*
X40230000Y-59158185D01*
X40236126Y-59158486D01*
X40236126Y-59158486D01*
G37*
D13*
X40521682Y-59600755D03*
D11*
G36*
X40589680Y-58804933D02*
G01*
X40595747Y-58805833D01*
X40601697Y-58807323D01*
X40607472Y-58809390D01*
X40613016Y-58812012D01*
X40618277Y-58815165D01*
X40623204Y-58818819D01*
X40627748Y-58822938D01*
X41299500Y-59494690D01*
X41303619Y-59499234D01*
X41307273Y-59504161D01*
X41310426Y-59509422D01*
X41313048Y-59514966D01*
X41315115Y-59520741D01*
X41316605Y-59526691D01*
X41317505Y-59532758D01*
X41317806Y-59538884D01*
X41317505Y-59545010D01*
X41316605Y-59551077D01*
X41315115Y-59557027D01*
X41313048Y-59562802D01*
X41310426Y-59568346D01*
X41307273Y-59573607D01*
X41303619Y-59578534D01*
X41299500Y-59583078D01*
X41211112Y-59671466D01*
X41206568Y-59675585D01*
X41201641Y-59679239D01*
X41196380Y-59682392D01*
X41190836Y-59685014D01*
X41185061Y-59687081D01*
X41179111Y-59688571D01*
X41173044Y-59689471D01*
X41166918Y-59689772D01*
X41160792Y-59689471D01*
X41154725Y-59688571D01*
X41148775Y-59687081D01*
X41143000Y-59685014D01*
X41137456Y-59682392D01*
X41132195Y-59679239D01*
X41127268Y-59675585D01*
X41122724Y-59671466D01*
X40450972Y-58999714D01*
X40446853Y-58995170D01*
X40443199Y-58990243D01*
X40440046Y-58984982D01*
X40437424Y-58979438D01*
X40435357Y-58973663D01*
X40433867Y-58967713D01*
X40432967Y-58961646D01*
X40432666Y-58955520D01*
X40432967Y-58949394D01*
X40433867Y-58943327D01*
X40435357Y-58937377D01*
X40437424Y-58931602D01*
X40440046Y-58926058D01*
X40443199Y-58920797D01*
X40446853Y-58915870D01*
X40450972Y-58911326D01*
X40539360Y-58822938D01*
X40543904Y-58818819D01*
X40548831Y-58815165D01*
X40554092Y-58812012D01*
X40559636Y-58809390D01*
X40565411Y-58807323D01*
X40571361Y-58805833D01*
X40577428Y-58804933D01*
X40583554Y-58804632D01*
X40589680Y-58804933D01*
X40589680Y-58804933D01*
G37*
D13*
X40875236Y-59247202D03*
D11*
G36*
X41173044Y-57620529D02*
G01*
X41179111Y-57621429D01*
X41185061Y-57622919D01*
X41190836Y-57624986D01*
X41196380Y-57627608D01*
X41201641Y-57630761D01*
X41206568Y-57634415D01*
X41211112Y-57638534D01*
X41299500Y-57726922D01*
X41303619Y-57731466D01*
X41307273Y-57736393D01*
X41310426Y-57741654D01*
X41313048Y-57747198D01*
X41315115Y-57752973D01*
X41316605Y-57758923D01*
X41317505Y-57764990D01*
X41317806Y-57771116D01*
X41317505Y-57777242D01*
X41316605Y-57783309D01*
X41315115Y-57789259D01*
X41313048Y-57795034D01*
X41310426Y-57800578D01*
X41307273Y-57805839D01*
X41303619Y-57810766D01*
X41299500Y-57815310D01*
X40627748Y-58487062D01*
X40623204Y-58491181D01*
X40618277Y-58494835D01*
X40613016Y-58497988D01*
X40607472Y-58500610D01*
X40601697Y-58502677D01*
X40595747Y-58504167D01*
X40589680Y-58505067D01*
X40583554Y-58505368D01*
X40577428Y-58505067D01*
X40571361Y-58504167D01*
X40565411Y-58502677D01*
X40559636Y-58500610D01*
X40554092Y-58497988D01*
X40548831Y-58494835D01*
X40543904Y-58491181D01*
X40539360Y-58487062D01*
X40450972Y-58398674D01*
X40446853Y-58394130D01*
X40443199Y-58389203D01*
X40440046Y-58383942D01*
X40437424Y-58378398D01*
X40435357Y-58372623D01*
X40433867Y-58366673D01*
X40432967Y-58360606D01*
X40432666Y-58354480D01*
X40432967Y-58348354D01*
X40433867Y-58342287D01*
X40435357Y-58336337D01*
X40437424Y-58330562D01*
X40440046Y-58325018D01*
X40443199Y-58319757D01*
X40446853Y-58314830D01*
X40450972Y-58310286D01*
X41122724Y-57638534D01*
X41127268Y-57634415D01*
X41132195Y-57630761D01*
X41137456Y-57627608D01*
X41143000Y-57624986D01*
X41148775Y-57622919D01*
X41154725Y-57621429D01*
X41160792Y-57620529D01*
X41166918Y-57620228D01*
X41173044Y-57620529D01*
X41173044Y-57620529D01*
G37*
D13*
X40875236Y-58062798D03*
D11*
G36*
X40819490Y-57266976D02*
G01*
X40825557Y-57267876D01*
X40831507Y-57269366D01*
X40837282Y-57271433D01*
X40842826Y-57274055D01*
X40848087Y-57277208D01*
X40853014Y-57280862D01*
X40857558Y-57284981D01*
X40945946Y-57373369D01*
X40950065Y-57377913D01*
X40953719Y-57382840D01*
X40956872Y-57388101D01*
X40959494Y-57393645D01*
X40961561Y-57399420D01*
X40963051Y-57405370D01*
X40963951Y-57411437D01*
X40964252Y-57417563D01*
X40963951Y-57423689D01*
X40963051Y-57429756D01*
X40961561Y-57435706D01*
X40959494Y-57441481D01*
X40956872Y-57447025D01*
X40953719Y-57452286D01*
X40950065Y-57457213D01*
X40945946Y-57461757D01*
X40274194Y-58133509D01*
X40269650Y-58137628D01*
X40264723Y-58141282D01*
X40259462Y-58144435D01*
X40253918Y-58147057D01*
X40248143Y-58149124D01*
X40242193Y-58150614D01*
X40236126Y-58151514D01*
X40230000Y-58151815D01*
X40223874Y-58151514D01*
X40217807Y-58150614D01*
X40211857Y-58149124D01*
X40206082Y-58147057D01*
X40200538Y-58144435D01*
X40195277Y-58141282D01*
X40190350Y-58137628D01*
X40185806Y-58133509D01*
X40097418Y-58045121D01*
X40093299Y-58040577D01*
X40089645Y-58035650D01*
X40086492Y-58030389D01*
X40083870Y-58024845D01*
X40081803Y-58019070D01*
X40080313Y-58013120D01*
X40079413Y-58007053D01*
X40079112Y-58000927D01*
X40079413Y-57994801D01*
X40080313Y-57988734D01*
X40081803Y-57982784D01*
X40083870Y-57977009D01*
X40086492Y-57971465D01*
X40089645Y-57966204D01*
X40093299Y-57961277D01*
X40097418Y-57956733D01*
X40769170Y-57284981D01*
X40773714Y-57280862D01*
X40778641Y-57277208D01*
X40783902Y-57274055D01*
X40789446Y-57271433D01*
X40795221Y-57269366D01*
X40801171Y-57267876D01*
X40807238Y-57266976D01*
X40813364Y-57266675D01*
X40819490Y-57266976D01*
X40819490Y-57266976D01*
G37*
D13*
X40521682Y-57709245D03*
D11*
G36*
X40465937Y-56913422D02*
G01*
X40472004Y-56914322D01*
X40477954Y-56915812D01*
X40483729Y-56917879D01*
X40489273Y-56920501D01*
X40494534Y-56923654D01*
X40499461Y-56927308D01*
X40504005Y-56931427D01*
X40592393Y-57019815D01*
X40596512Y-57024359D01*
X40600166Y-57029286D01*
X40603319Y-57034547D01*
X40605941Y-57040091D01*
X40608008Y-57045866D01*
X40609498Y-57051816D01*
X40610398Y-57057883D01*
X40610699Y-57064009D01*
X40610398Y-57070135D01*
X40609498Y-57076202D01*
X40608008Y-57082152D01*
X40605941Y-57087927D01*
X40603319Y-57093471D01*
X40600166Y-57098732D01*
X40596512Y-57103659D01*
X40592393Y-57108203D01*
X39920641Y-57779955D01*
X39916097Y-57784074D01*
X39911170Y-57787728D01*
X39905909Y-57790881D01*
X39900365Y-57793503D01*
X39894590Y-57795570D01*
X39888640Y-57797060D01*
X39882573Y-57797960D01*
X39876447Y-57798261D01*
X39870321Y-57797960D01*
X39864254Y-57797060D01*
X39858304Y-57795570D01*
X39852529Y-57793503D01*
X39846985Y-57790881D01*
X39841724Y-57787728D01*
X39836797Y-57784074D01*
X39832253Y-57779955D01*
X39743865Y-57691567D01*
X39739746Y-57687023D01*
X39736092Y-57682096D01*
X39732939Y-57676835D01*
X39730317Y-57671291D01*
X39728250Y-57665516D01*
X39726760Y-57659566D01*
X39725860Y-57653499D01*
X39725559Y-57647373D01*
X39725860Y-57641247D01*
X39726760Y-57635180D01*
X39728250Y-57629230D01*
X39730317Y-57623455D01*
X39732939Y-57617911D01*
X39736092Y-57612650D01*
X39739746Y-57607723D01*
X39743865Y-57603179D01*
X40415617Y-56931427D01*
X40420161Y-56927308D01*
X40425088Y-56923654D01*
X40430349Y-56920501D01*
X40435893Y-56917879D01*
X40441668Y-56915812D01*
X40447618Y-56914322D01*
X40453685Y-56913422D01*
X40459811Y-56913121D01*
X40465937Y-56913422D01*
X40465937Y-56913422D01*
G37*
D13*
X40168129Y-57355691D03*
D11*
G36*
X40112384Y-56559869D02*
G01*
X40118451Y-56560769D01*
X40124401Y-56562259D01*
X40130176Y-56564326D01*
X40135720Y-56566948D01*
X40140981Y-56570101D01*
X40145908Y-56573755D01*
X40150452Y-56577874D01*
X40238840Y-56666262D01*
X40242959Y-56670806D01*
X40246613Y-56675733D01*
X40249766Y-56680994D01*
X40252388Y-56686538D01*
X40254455Y-56692313D01*
X40255945Y-56698263D01*
X40256845Y-56704330D01*
X40257146Y-56710456D01*
X40256845Y-56716582D01*
X40255945Y-56722649D01*
X40254455Y-56728599D01*
X40252388Y-56734374D01*
X40249766Y-56739918D01*
X40246613Y-56745179D01*
X40242959Y-56750106D01*
X40238840Y-56754650D01*
X39567088Y-57426402D01*
X39562544Y-57430521D01*
X39557617Y-57434175D01*
X39552356Y-57437328D01*
X39546812Y-57439950D01*
X39541037Y-57442017D01*
X39535087Y-57443507D01*
X39529020Y-57444407D01*
X39522894Y-57444708D01*
X39516768Y-57444407D01*
X39510701Y-57443507D01*
X39504751Y-57442017D01*
X39498976Y-57439950D01*
X39493432Y-57437328D01*
X39488171Y-57434175D01*
X39483244Y-57430521D01*
X39478700Y-57426402D01*
X39390312Y-57338014D01*
X39386193Y-57333470D01*
X39382539Y-57328543D01*
X39379386Y-57323282D01*
X39376764Y-57317738D01*
X39374697Y-57311963D01*
X39373207Y-57306013D01*
X39372307Y-57299946D01*
X39372006Y-57293820D01*
X39372307Y-57287694D01*
X39373207Y-57281627D01*
X39374697Y-57275677D01*
X39376764Y-57269902D01*
X39379386Y-57264358D01*
X39382539Y-57259097D01*
X39386193Y-57254170D01*
X39390312Y-57249626D01*
X40062064Y-56577874D01*
X40066608Y-56573755D01*
X40071535Y-56570101D01*
X40076796Y-56566948D01*
X40082340Y-56564326D01*
X40088115Y-56562259D01*
X40094065Y-56560769D01*
X40100132Y-56559869D01*
X40106258Y-56559568D01*
X40112384Y-56559869D01*
X40112384Y-56559869D01*
G37*
D13*
X39814576Y-57002138D03*
D11*
G36*
X39758830Y-56206316D02*
G01*
X39764897Y-56207216D01*
X39770847Y-56208706D01*
X39776622Y-56210773D01*
X39782166Y-56213395D01*
X39787427Y-56216548D01*
X39792354Y-56220202D01*
X39796898Y-56224321D01*
X39885286Y-56312709D01*
X39889405Y-56317253D01*
X39893059Y-56322180D01*
X39896212Y-56327441D01*
X39898834Y-56332985D01*
X39900901Y-56338760D01*
X39902391Y-56344710D01*
X39903291Y-56350777D01*
X39903592Y-56356903D01*
X39903291Y-56363029D01*
X39902391Y-56369096D01*
X39900901Y-56375046D01*
X39898834Y-56380821D01*
X39896212Y-56386365D01*
X39893059Y-56391626D01*
X39889405Y-56396553D01*
X39885286Y-56401097D01*
X39213534Y-57072849D01*
X39208990Y-57076968D01*
X39204063Y-57080622D01*
X39198802Y-57083775D01*
X39193258Y-57086397D01*
X39187483Y-57088464D01*
X39181533Y-57089954D01*
X39175466Y-57090854D01*
X39169340Y-57091155D01*
X39163214Y-57090854D01*
X39157147Y-57089954D01*
X39151197Y-57088464D01*
X39145422Y-57086397D01*
X39139878Y-57083775D01*
X39134617Y-57080622D01*
X39129690Y-57076968D01*
X39125146Y-57072849D01*
X39036758Y-56984461D01*
X39032639Y-56979917D01*
X39028985Y-56974990D01*
X39025832Y-56969729D01*
X39023210Y-56964185D01*
X39021143Y-56958410D01*
X39019653Y-56952460D01*
X39018753Y-56946393D01*
X39018452Y-56940267D01*
X39018753Y-56934141D01*
X39019653Y-56928074D01*
X39021143Y-56922124D01*
X39023210Y-56916349D01*
X39025832Y-56910805D01*
X39028985Y-56905544D01*
X39032639Y-56900617D01*
X39036758Y-56896073D01*
X39708510Y-56224321D01*
X39713054Y-56220202D01*
X39717981Y-56216548D01*
X39723242Y-56213395D01*
X39728786Y-56210773D01*
X39734561Y-56208706D01*
X39740511Y-56207216D01*
X39746578Y-56206316D01*
X39752704Y-56206015D01*
X39758830Y-56206316D01*
X39758830Y-56206316D01*
G37*
D13*
X39461022Y-56648585D03*
D11*
G36*
X39405277Y-55852762D02*
G01*
X39411344Y-55853662D01*
X39417294Y-55855152D01*
X39423069Y-55857219D01*
X39428613Y-55859841D01*
X39433874Y-55862994D01*
X39438801Y-55866648D01*
X39443345Y-55870767D01*
X39531733Y-55959155D01*
X39535852Y-55963699D01*
X39539506Y-55968626D01*
X39542659Y-55973887D01*
X39545281Y-55979431D01*
X39547348Y-55985206D01*
X39548838Y-55991156D01*
X39549738Y-55997223D01*
X39550039Y-56003349D01*
X39549738Y-56009475D01*
X39548838Y-56015542D01*
X39547348Y-56021492D01*
X39545281Y-56027267D01*
X39542659Y-56032811D01*
X39539506Y-56038072D01*
X39535852Y-56042999D01*
X39531733Y-56047543D01*
X38859981Y-56719295D01*
X38855437Y-56723414D01*
X38850510Y-56727068D01*
X38845249Y-56730221D01*
X38839705Y-56732843D01*
X38833930Y-56734910D01*
X38827980Y-56736400D01*
X38821913Y-56737300D01*
X38815787Y-56737601D01*
X38809661Y-56737300D01*
X38803594Y-56736400D01*
X38797644Y-56734910D01*
X38791869Y-56732843D01*
X38786325Y-56730221D01*
X38781064Y-56727068D01*
X38776137Y-56723414D01*
X38771593Y-56719295D01*
X38683205Y-56630907D01*
X38679086Y-56626363D01*
X38675432Y-56621436D01*
X38672279Y-56616175D01*
X38669657Y-56610631D01*
X38667590Y-56604856D01*
X38666100Y-56598906D01*
X38665200Y-56592839D01*
X38664899Y-56586713D01*
X38665200Y-56580587D01*
X38666100Y-56574520D01*
X38667590Y-56568570D01*
X38669657Y-56562795D01*
X38672279Y-56557251D01*
X38675432Y-56551990D01*
X38679086Y-56547063D01*
X38683205Y-56542519D01*
X39354957Y-55870767D01*
X39359501Y-55866648D01*
X39364428Y-55862994D01*
X39369689Y-55859841D01*
X39375233Y-55857219D01*
X39381008Y-55855152D01*
X39386958Y-55853662D01*
X39393025Y-55852762D01*
X39399151Y-55852461D01*
X39405277Y-55852762D01*
X39405277Y-55852762D01*
G37*
D13*
X39107469Y-56295031D03*
D11*
G36*
X39051723Y-55499209D02*
G01*
X39057790Y-55500109D01*
X39063740Y-55501599D01*
X39069515Y-55503666D01*
X39075059Y-55506288D01*
X39080320Y-55509441D01*
X39085247Y-55513095D01*
X39089791Y-55517214D01*
X39178179Y-55605602D01*
X39182298Y-55610146D01*
X39185952Y-55615073D01*
X39189105Y-55620334D01*
X39191727Y-55625878D01*
X39193794Y-55631653D01*
X39195284Y-55637603D01*
X39196184Y-55643670D01*
X39196485Y-55649796D01*
X39196184Y-55655922D01*
X39195284Y-55661989D01*
X39193794Y-55667939D01*
X39191727Y-55673714D01*
X39189105Y-55679258D01*
X39185952Y-55684519D01*
X39182298Y-55689446D01*
X39178179Y-55693990D01*
X38506427Y-56365742D01*
X38501883Y-56369861D01*
X38496956Y-56373515D01*
X38491695Y-56376668D01*
X38486151Y-56379290D01*
X38480376Y-56381357D01*
X38474426Y-56382847D01*
X38468359Y-56383747D01*
X38462233Y-56384048D01*
X38456107Y-56383747D01*
X38450040Y-56382847D01*
X38444090Y-56381357D01*
X38438315Y-56379290D01*
X38432771Y-56376668D01*
X38427510Y-56373515D01*
X38422583Y-56369861D01*
X38418039Y-56365742D01*
X38329651Y-56277354D01*
X38325532Y-56272810D01*
X38321878Y-56267883D01*
X38318725Y-56262622D01*
X38316103Y-56257078D01*
X38314036Y-56251303D01*
X38312546Y-56245353D01*
X38311646Y-56239286D01*
X38311345Y-56233160D01*
X38311646Y-56227034D01*
X38312546Y-56220967D01*
X38314036Y-56215017D01*
X38316103Y-56209242D01*
X38318725Y-56203698D01*
X38321878Y-56198437D01*
X38325532Y-56193510D01*
X38329651Y-56188966D01*
X39001403Y-55517214D01*
X39005947Y-55513095D01*
X39010874Y-55509441D01*
X39016135Y-55506288D01*
X39021679Y-55503666D01*
X39027454Y-55501599D01*
X39033404Y-55500109D01*
X39039471Y-55499209D01*
X39045597Y-55498908D01*
X39051723Y-55499209D01*
X39051723Y-55499209D01*
G37*
D13*
X38753915Y-55941478D03*
D11*
G36*
X38698170Y-55145655D02*
G01*
X38704237Y-55146555D01*
X38710187Y-55148045D01*
X38715962Y-55150112D01*
X38721506Y-55152734D01*
X38726767Y-55155887D01*
X38731694Y-55159541D01*
X38736238Y-55163660D01*
X38824626Y-55252048D01*
X38828745Y-55256592D01*
X38832399Y-55261519D01*
X38835552Y-55266780D01*
X38838174Y-55272324D01*
X38840241Y-55278099D01*
X38841731Y-55284049D01*
X38842631Y-55290116D01*
X38842932Y-55296242D01*
X38842631Y-55302368D01*
X38841731Y-55308435D01*
X38840241Y-55314385D01*
X38838174Y-55320160D01*
X38835552Y-55325704D01*
X38832399Y-55330965D01*
X38828745Y-55335892D01*
X38824626Y-55340436D01*
X38152874Y-56012188D01*
X38148330Y-56016307D01*
X38143403Y-56019961D01*
X38138142Y-56023114D01*
X38132598Y-56025736D01*
X38126823Y-56027803D01*
X38120873Y-56029293D01*
X38114806Y-56030193D01*
X38108680Y-56030494D01*
X38102554Y-56030193D01*
X38096487Y-56029293D01*
X38090537Y-56027803D01*
X38084762Y-56025736D01*
X38079218Y-56023114D01*
X38073957Y-56019961D01*
X38069030Y-56016307D01*
X38064486Y-56012188D01*
X37976098Y-55923800D01*
X37971979Y-55919256D01*
X37968325Y-55914329D01*
X37965172Y-55909068D01*
X37962550Y-55903524D01*
X37960483Y-55897749D01*
X37958993Y-55891799D01*
X37958093Y-55885732D01*
X37957792Y-55879606D01*
X37958093Y-55873480D01*
X37958993Y-55867413D01*
X37960483Y-55861463D01*
X37962550Y-55855688D01*
X37965172Y-55850144D01*
X37968325Y-55844883D01*
X37971979Y-55839956D01*
X37976098Y-55835412D01*
X38647850Y-55163660D01*
X38652394Y-55159541D01*
X38657321Y-55155887D01*
X38662582Y-55152734D01*
X38668126Y-55150112D01*
X38673901Y-55148045D01*
X38679851Y-55146555D01*
X38685918Y-55145655D01*
X38692044Y-55145354D01*
X38698170Y-55145655D01*
X38698170Y-55145655D01*
G37*
D13*
X38400362Y-55587924D03*
D11*
G36*
X38344617Y-54792102D02*
G01*
X38350684Y-54793002D01*
X38356634Y-54794492D01*
X38362409Y-54796559D01*
X38367953Y-54799181D01*
X38373214Y-54802334D01*
X38378141Y-54805988D01*
X38382685Y-54810107D01*
X38471073Y-54898495D01*
X38475192Y-54903039D01*
X38478846Y-54907966D01*
X38481999Y-54913227D01*
X38484621Y-54918771D01*
X38486688Y-54924546D01*
X38488178Y-54930496D01*
X38489078Y-54936563D01*
X38489379Y-54942689D01*
X38489078Y-54948815D01*
X38488178Y-54954882D01*
X38486688Y-54960832D01*
X38484621Y-54966607D01*
X38481999Y-54972151D01*
X38478846Y-54977412D01*
X38475192Y-54982339D01*
X38471073Y-54986883D01*
X37799321Y-55658635D01*
X37794777Y-55662754D01*
X37789850Y-55666408D01*
X37784589Y-55669561D01*
X37779045Y-55672183D01*
X37773270Y-55674250D01*
X37767320Y-55675740D01*
X37761253Y-55676640D01*
X37755127Y-55676941D01*
X37749001Y-55676640D01*
X37742934Y-55675740D01*
X37736984Y-55674250D01*
X37731209Y-55672183D01*
X37725665Y-55669561D01*
X37720404Y-55666408D01*
X37715477Y-55662754D01*
X37710933Y-55658635D01*
X37622545Y-55570247D01*
X37618426Y-55565703D01*
X37614772Y-55560776D01*
X37611619Y-55555515D01*
X37608997Y-55549971D01*
X37606930Y-55544196D01*
X37605440Y-55538246D01*
X37604540Y-55532179D01*
X37604239Y-55526053D01*
X37604540Y-55519927D01*
X37605440Y-55513860D01*
X37606930Y-55507910D01*
X37608997Y-55502135D01*
X37611619Y-55496591D01*
X37614772Y-55491330D01*
X37618426Y-55486403D01*
X37622545Y-55481859D01*
X38294297Y-54810107D01*
X38298841Y-54805988D01*
X38303768Y-54802334D01*
X38309029Y-54799181D01*
X38314573Y-54796559D01*
X38320348Y-54794492D01*
X38326298Y-54793002D01*
X38332365Y-54792102D01*
X38338491Y-54791801D01*
X38344617Y-54792102D01*
X38344617Y-54792102D01*
G37*
D13*
X38046809Y-55234371D03*
D11*
G36*
X37991063Y-54438549D02*
G01*
X37997130Y-54439449D01*
X38003080Y-54440939D01*
X38008855Y-54443006D01*
X38014399Y-54445628D01*
X38019660Y-54448781D01*
X38024587Y-54452435D01*
X38029131Y-54456554D01*
X38117519Y-54544942D01*
X38121638Y-54549486D01*
X38125292Y-54554413D01*
X38128445Y-54559674D01*
X38131067Y-54565218D01*
X38133134Y-54570993D01*
X38134624Y-54576943D01*
X38135524Y-54583010D01*
X38135825Y-54589136D01*
X38135524Y-54595262D01*
X38134624Y-54601329D01*
X38133134Y-54607279D01*
X38131067Y-54613054D01*
X38128445Y-54618598D01*
X38125292Y-54623859D01*
X38121638Y-54628786D01*
X38117519Y-54633330D01*
X37445767Y-55305082D01*
X37441223Y-55309201D01*
X37436296Y-55312855D01*
X37431035Y-55316008D01*
X37425491Y-55318630D01*
X37419716Y-55320697D01*
X37413766Y-55322187D01*
X37407699Y-55323087D01*
X37401573Y-55323388D01*
X37395447Y-55323087D01*
X37389380Y-55322187D01*
X37383430Y-55320697D01*
X37377655Y-55318630D01*
X37372111Y-55316008D01*
X37366850Y-55312855D01*
X37361923Y-55309201D01*
X37357379Y-55305082D01*
X37268991Y-55216694D01*
X37264872Y-55212150D01*
X37261218Y-55207223D01*
X37258065Y-55201962D01*
X37255443Y-55196418D01*
X37253376Y-55190643D01*
X37251886Y-55184693D01*
X37250986Y-55178626D01*
X37250685Y-55172500D01*
X37250986Y-55166374D01*
X37251886Y-55160307D01*
X37253376Y-55154357D01*
X37255443Y-55148582D01*
X37258065Y-55143038D01*
X37261218Y-55137777D01*
X37264872Y-55132850D01*
X37268991Y-55128306D01*
X37940743Y-54456554D01*
X37945287Y-54452435D01*
X37950214Y-54448781D01*
X37955475Y-54445628D01*
X37961019Y-54443006D01*
X37966794Y-54440939D01*
X37972744Y-54439449D01*
X37978811Y-54438549D01*
X37984937Y-54438248D01*
X37991063Y-54438549D01*
X37991063Y-54438549D01*
G37*
D13*
X37693255Y-54880818D03*
D11*
G36*
X37637510Y-54084995D02*
G01*
X37643577Y-54085895D01*
X37649527Y-54087385D01*
X37655302Y-54089452D01*
X37660846Y-54092074D01*
X37666107Y-54095227D01*
X37671034Y-54098881D01*
X37675578Y-54103000D01*
X37763966Y-54191388D01*
X37768085Y-54195932D01*
X37771739Y-54200859D01*
X37774892Y-54206120D01*
X37777514Y-54211664D01*
X37779581Y-54217439D01*
X37781071Y-54223389D01*
X37781971Y-54229456D01*
X37782272Y-54235582D01*
X37781971Y-54241708D01*
X37781071Y-54247775D01*
X37779581Y-54253725D01*
X37777514Y-54259500D01*
X37774892Y-54265044D01*
X37771739Y-54270305D01*
X37768085Y-54275232D01*
X37763966Y-54279776D01*
X37092214Y-54951528D01*
X37087670Y-54955647D01*
X37082743Y-54959301D01*
X37077482Y-54962454D01*
X37071938Y-54965076D01*
X37066163Y-54967143D01*
X37060213Y-54968633D01*
X37054146Y-54969533D01*
X37048020Y-54969834D01*
X37041894Y-54969533D01*
X37035827Y-54968633D01*
X37029877Y-54967143D01*
X37024102Y-54965076D01*
X37018558Y-54962454D01*
X37013297Y-54959301D01*
X37008370Y-54955647D01*
X37003826Y-54951528D01*
X36915438Y-54863140D01*
X36911319Y-54858596D01*
X36907665Y-54853669D01*
X36904512Y-54848408D01*
X36901890Y-54842864D01*
X36899823Y-54837089D01*
X36898333Y-54831139D01*
X36897433Y-54825072D01*
X36897132Y-54818946D01*
X36897433Y-54812820D01*
X36898333Y-54806753D01*
X36899823Y-54800803D01*
X36901890Y-54795028D01*
X36904512Y-54789484D01*
X36907665Y-54784223D01*
X36911319Y-54779296D01*
X36915438Y-54774752D01*
X37587190Y-54103000D01*
X37591734Y-54098881D01*
X37596661Y-54095227D01*
X37601922Y-54092074D01*
X37607466Y-54089452D01*
X37613241Y-54087385D01*
X37619191Y-54085895D01*
X37625258Y-54084995D01*
X37631384Y-54084694D01*
X37637510Y-54084995D01*
X37637510Y-54084995D01*
G37*
D13*
X37339702Y-54527264D03*
D11*
G36*
X35869742Y-54084995D02*
G01*
X35875809Y-54085895D01*
X35881759Y-54087385D01*
X35887534Y-54089452D01*
X35893078Y-54092074D01*
X35898339Y-54095227D01*
X35903266Y-54098881D01*
X35907810Y-54103000D01*
X36579562Y-54774752D01*
X36583681Y-54779296D01*
X36587335Y-54784223D01*
X36590488Y-54789484D01*
X36593110Y-54795028D01*
X36595177Y-54800803D01*
X36596667Y-54806753D01*
X36597567Y-54812820D01*
X36597868Y-54818946D01*
X36597567Y-54825072D01*
X36596667Y-54831139D01*
X36595177Y-54837089D01*
X36593110Y-54842864D01*
X36590488Y-54848408D01*
X36587335Y-54853669D01*
X36583681Y-54858596D01*
X36579562Y-54863140D01*
X36491174Y-54951528D01*
X36486630Y-54955647D01*
X36481703Y-54959301D01*
X36476442Y-54962454D01*
X36470898Y-54965076D01*
X36465123Y-54967143D01*
X36459173Y-54968633D01*
X36453106Y-54969533D01*
X36446980Y-54969834D01*
X36440854Y-54969533D01*
X36434787Y-54968633D01*
X36428837Y-54967143D01*
X36423062Y-54965076D01*
X36417518Y-54962454D01*
X36412257Y-54959301D01*
X36407330Y-54955647D01*
X36402786Y-54951528D01*
X35731034Y-54279776D01*
X35726915Y-54275232D01*
X35723261Y-54270305D01*
X35720108Y-54265044D01*
X35717486Y-54259500D01*
X35715419Y-54253725D01*
X35713929Y-54247775D01*
X35713029Y-54241708D01*
X35712728Y-54235582D01*
X35713029Y-54229456D01*
X35713929Y-54223389D01*
X35715419Y-54217439D01*
X35717486Y-54211664D01*
X35720108Y-54206120D01*
X35723261Y-54200859D01*
X35726915Y-54195932D01*
X35731034Y-54191388D01*
X35819422Y-54103000D01*
X35823966Y-54098881D01*
X35828893Y-54095227D01*
X35834154Y-54092074D01*
X35839698Y-54089452D01*
X35845473Y-54087385D01*
X35851423Y-54085895D01*
X35857490Y-54084995D01*
X35863616Y-54084694D01*
X35869742Y-54084995D01*
X35869742Y-54084995D01*
G37*
D13*
X36155298Y-54527264D03*
D11*
G36*
X35516189Y-54438549D02*
G01*
X35522256Y-54439449D01*
X35528206Y-54440939D01*
X35533981Y-54443006D01*
X35539525Y-54445628D01*
X35544786Y-54448781D01*
X35549713Y-54452435D01*
X35554257Y-54456554D01*
X36226009Y-55128306D01*
X36230128Y-55132850D01*
X36233782Y-55137777D01*
X36236935Y-55143038D01*
X36239557Y-55148582D01*
X36241624Y-55154357D01*
X36243114Y-55160307D01*
X36244014Y-55166374D01*
X36244315Y-55172500D01*
X36244014Y-55178626D01*
X36243114Y-55184693D01*
X36241624Y-55190643D01*
X36239557Y-55196418D01*
X36236935Y-55201962D01*
X36233782Y-55207223D01*
X36230128Y-55212150D01*
X36226009Y-55216694D01*
X36137621Y-55305082D01*
X36133077Y-55309201D01*
X36128150Y-55312855D01*
X36122889Y-55316008D01*
X36117345Y-55318630D01*
X36111570Y-55320697D01*
X36105620Y-55322187D01*
X36099553Y-55323087D01*
X36093427Y-55323388D01*
X36087301Y-55323087D01*
X36081234Y-55322187D01*
X36075284Y-55320697D01*
X36069509Y-55318630D01*
X36063965Y-55316008D01*
X36058704Y-55312855D01*
X36053777Y-55309201D01*
X36049233Y-55305082D01*
X35377481Y-54633330D01*
X35373362Y-54628786D01*
X35369708Y-54623859D01*
X35366555Y-54618598D01*
X35363933Y-54613054D01*
X35361866Y-54607279D01*
X35360376Y-54601329D01*
X35359476Y-54595262D01*
X35359175Y-54589136D01*
X35359476Y-54583010D01*
X35360376Y-54576943D01*
X35361866Y-54570993D01*
X35363933Y-54565218D01*
X35366555Y-54559674D01*
X35369708Y-54554413D01*
X35373362Y-54549486D01*
X35377481Y-54544942D01*
X35465869Y-54456554D01*
X35470413Y-54452435D01*
X35475340Y-54448781D01*
X35480601Y-54445628D01*
X35486145Y-54443006D01*
X35491920Y-54440939D01*
X35497870Y-54439449D01*
X35503937Y-54438549D01*
X35510063Y-54438248D01*
X35516189Y-54438549D01*
X35516189Y-54438549D01*
G37*
D13*
X35801745Y-54880818D03*
D11*
G36*
X35162635Y-54792102D02*
G01*
X35168702Y-54793002D01*
X35174652Y-54794492D01*
X35180427Y-54796559D01*
X35185971Y-54799181D01*
X35191232Y-54802334D01*
X35196159Y-54805988D01*
X35200703Y-54810107D01*
X35872455Y-55481859D01*
X35876574Y-55486403D01*
X35880228Y-55491330D01*
X35883381Y-55496591D01*
X35886003Y-55502135D01*
X35888070Y-55507910D01*
X35889560Y-55513860D01*
X35890460Y-55519927D01*
X35890761Y-55526053D01*
X35890460Y-55532179D01*
X35889560Y-55538246D01*
X35888070Y-55544196D01*
X35886003Y-55549971D01*
X35883381Y-55555515D01*
X35880228Y-55560776D01*
X35876574Y-55565703D01*
X35872455Y-55570247D01*
X35784067Y-55658635D01*
X35779523Y-55662754D01*
X35774596Y-55666408D01*
X35769335Y-55669561D01*
X35763791Y-55672183D01*
X35758016Y-55674250D01*
X35752066Y-55675740D01*
X35745999Y-55676640D01*
X35739873Y-55676941D01*
X35733747Y-55676640D01*
X35727680Y-55675740D01*
X35721730Y-55674250D01*
X35715955Y-55672183D01*
X35710411Y-55669561D01*
X35705150Y-55666408D01*
X35700223Y-55662754D01*
X35695679Y-55658635D01*
X35023927Y-54986883D01*
X35019808Y-54982339D01*
X35016154Y-54977412D01*
X35013001Y-54972151D01*
X35010379Y-54966607D01*
X35008312Y-54960832D01*
X35006822Y-54954882D01*
X35005922Y-54948815D01*
X35005621Y-54942689D01*
X35005922Y-54936563D01*
X35006822Y-54930496D01*
X35008312Y-54924546D01*
X35010379Y-54918771D01*
X35013001Y-54913227D01*
X35016154Y-54907966D01*
X35019808Y-54903039D01*
X35023927Y-54898495D01*
X35112315Y-54810107D01*
X35116859Y-54805988D01*
X35121786Y-54802334D01*
X35127047Y-54799181D01*
X35132591Y-54796559D01*
X35138366Y-54794492D01*
X35144316Y-54793002D01*
X35150383Y-54792102D01*
X35156509Y-54791801D01*
X35162635Y-54792102D01*
X35162635Y-54792102D01*
G37*
D13*
X35448191Y-55234371D03*
D11*
G36*
X34809082Y-55145655D02*
G01*
X34815149Y-55146555D01*
X34821099Y-55148045D01*
X34826874Y-55150112D01*
X34832418Y-55152734D01*
X34837679Y-55155887D01*
X34842606Y-55159541D01*
X34847150Y-55163660D01*
X35518902Y-55835412D01*
X35523021Y-55839956D01*
X35526675Y-55844883D01*
X35529828Y-55850144D01*
X35532450Y-55855688D01*
X35534517Y-55861463D01*
X35536007Y-55867413D01*
X35536907Y-55873480D01*
X35537208Y-55879606D01*
X35536907Y-55885732D01*
X35536007Y-55891799D01*
X35534517Y-55897749D01*
X35532450Y-55903524D01*
X35529828Y-55909068D01*
X35526675Y-55914329D01*
X35523021Y-55919256D01*
X35518902Y-55923800D01*
X35430514Y-56012188D01*
X35425970Y-56016307D01*
X35421043Y-56019961D01*
X35415782Y-56023114D01*
X35410238Y-56025736D01*
X35404463Y-56027803D01*
X35398513Y-56029293D01*
X35392446Y-56030193D01*
X35386320Y-56030494D01*
X35380194Y-56030193D01*
X35374127Y-56029293D01*
X35368177Y-56027803D01*
X35362402Y-56025736D01*
X35356858Y-56023114D01*
X35351597Y-56019961D01*
X35346670Y-56016307D01*
X35342126Y-56012188D01*
X34670374Y-55340436D01*
X34666255Y-55335892D01*
X34662601Y-55330965D01*
X34659448Y-55325704D01*
X34656826Y-55320160D01*
X34654759Y-55314385D01*
X34653269Y-55308435D01*
X34652369Y-55302368D01*
X34652068Y-55296242D01*
X34652369Y-55290116D01*
X34653269Y-55284049D01*
X34654759Y-55278099D01*
X34656826Y-55272324D01*
X34659448Y-55266780D01*
X34662601Y-55261519D01*
X34666255Y-55256592D01*
X34670374Y-55252048D01*
X34758762Y-55163660D01*
X34763306Y-55159541D01*
X34768233Y-55155887D01*
X34773494Y-55152734D01*
X34779038Y-55150112D01*
X34784813Y-55148045D01*
X34790763Y-55146555D01*
X34796830Y-55145655D01*
X34802956Y-55145354D01*
X34809082Y-55145655D01*
X34809082Y-55145655D01*
G37*
D13*
X35094638Y-55587924D03*
D11*
G36*
X34455529Y-55499209D02*
G01*
X34461596Y-55500109D01*
X34467546Y-55501599D01*
X34473321Y-55503666D01*
X34478865Y-55506288D01*
X34484126Y-55509441D01*
X34489053Y-55513095D01*
X34493597Y-55517214D01*
X35165349Y-56188966D01*
X35169468Y-56193510D01*
X35173122Y-56198437D01*
X35176275Y-56203698D01*
X35178897Y-56209242D01*
X35180964Y-56215017D01*
X35182454Y-56220967D01*
X35183354Y-56227034D01*
X35183655Y-56233160D01*
X35183354Y-56239286D01*
X35182454Y-56245353D01*
X35180964Y-56251303D01*
X35178897Y-56257078D01*
X35176275Y-56262622D01*
X35173122Y-56267883D01*
X35169468Y-56272810D01*
X35165349Y-56277354D01*
X35076961Y-56365742D01*
X35072417Y-56369861D01*
X35067490Y-56373515D01*
X35062229Y-56376668D01*
X35056685Y-56379290D01*
X35050910Y-56381357D01*
X35044960Y-56382847D01*
X35038893Y-56383747D01*
X35032767Y-56384048D01*
X35026641Y-56383747D01*
X35020574Y-56382847D01*
X35014624Y-56381357D01*
X35008849Y-56379290D01*
X35003305Y-56376668D01*
X34998044Y-56373515D01*
X34993117Y-56369861D01*
X34988573Y-56365742D01*
X34316821Y-55693990D01*
X34312702Y-55689446D01*
X34309048Y-55684519D01*
X34305895Y-55679258D01*
X34303273Y-55673714D01*
X34301206Y-55667939D01*
X34299716Y-55661989D01*
X34298816Y-55655922D01*
X34298515Y-55649796D01*
X34298816Y-55643670D01*
X34299716Y-55637603D01*
X34301206Y-55631653D01*
X34303273Y-55625878D01*
X34305895Y-55620334D01*
X34309048Y-55615073D01*
X34312702Y-55610146D01*
X34316821Y-55605602D01*
X34405209Y-55517214D01*
X34409753Y-55513095D01*
X34414680Y-55509441D01*
X34419941Y-55506288D01*
X34425485Y-55503666D01*
X34431260Y-55501599D01*
X34437210Y-55500109D01*
X34443277Y-55499209D01*
X34449403Y-55498908D01*
X34455529Y-55499209D01*
X34455529Y-55499209D01*
G37*
D13*
X34741085Y-55941478D03*
D11*
G36*
X34101975Y-55852762D02*
G01*
X34108042Y-55853662D01*
X34113992Y-55855152D01*
X34119767Y-55857219D01*
X34125311Y-55859841D01*
X34130572Y-55862994D01*
X34135499Y-55866648D01*
X34140043Y-55870767D01*
X34811795Y-56542519D01*
X34815914Y-56547063D01*
X34819568Y-56551990D01*
X34822721Y-56557251D01*
X34825343Y-56562795D01*
X34827410Y-56568570D01*
X34828900Y-56574520D01*
X34829800Y-56580587D01*
X34830101Y-56586713D01*
X34829800Y-56592839D01*
X34828900Y-56598906D01*
X34827410Y-56604856D01*
X34825343Y-56610631D01*
X34822721Y-56616175D01*
X34819568Y-56621436D01*
X34815914Y-56626363D01*
X34811795Y-56630907D01*
X34723407Y-56719295D01*
X34718863Y-56723414D01*
X34713936Y-56727068D01*
X34708675Y-56730221D01*
X34703131Y-56732843D01*
X34697356Y-56734910D01*
X34691406Y-56736400D01*
X34685339Y-56737300D01*
X34679213Y-56737601D01*
X34673087Y-56737300D01*
X34667020Y-56736400D01*
X34661070Y-56734910D01*
X34655295Y-56732843D01*
X34649751Y-56730221D01*
X34644490Y-56727068D01*
X34639563Y-56723414D01*
X34635019Y-56719295D01*
X33963267Y-56047543D01*
X33959148Y-56042999D01*
X33955494Y-56038072D01*
X33952341Y-56032811D01*
X33949719Y-56027267D01*
X33947652Y-56021492D01*
X33946162Y-56015542D01*
X33945262Y-56009475D01*
X33944961Y-56003349D01*
X33945262Y-55997223D01*
X33946162Y-55991156D01*
X33947652Y-55985206D01*
X33949719Y-55979431D01*
X33952341Y-55973887D01*
X33955494Y-55968626D01*
X33959148Y-55963699D01*
X33963267Y-55959155D01*
X34051655Y-55870767D01*
X34056199Y-55866648D01*
X34061126Y-55862994D01*
X34066387Y-55859841D01*
X34071931Y-55857219D01*
X34077706Y-55855152D01*
X34083656Y-55853662D01*
X34089723Y-55852762D01*
X34095849Y-55852461D01*
X34101975Y-55852762D01*
X34101975Y-55852762D01*
G37*
D13*
X34387531Y-56295031D03*
D11*
G36*
X33748422Y-56206316D02*
G01*
X33754489Y-56207216D01*
X33760439Y-56208706D01*
X33766214Y-56210773D01*
X33771758Y-56213395D01*
X33777019Y-56216548D01*
X33781946Y-56220202D01*
X33786490Y-56224321D01*
X34458242Y-56896073D01*
X34462361Y-56900617D01*
X34466015Y-56905544D01*
X34469168Y-56910805D01*
X34471790Y-56916349D01*
X34473857Y-56922124D01*
X34475347Y-56928074D01*
X34476247Y-56934141D01*
X34476548Y-56940267D01*
X34476247Y-56946393D01*
X34475347Y-56952460D01*
X34473857Y-56958410D01*
X34471790Y-56964185D01*
X34469168Y-56969729D01*
X34466015Y-56974990D01*
X34462361Y-56979917D01*
X34458242Y-56984461D01*
X34369854Y-57072849D01*
X34365310Y-57076968D01*
X34360383Y-57080622D01*
X34355122Y-57083775D01*
X34349578Y-57086397D01*
X34343803Y-57088464D01*
X34337853Y-57089954D01*
X34331786Y-57090854D01*
X34325660Y-57091155D01*
X34319534Y-57090854D01*
X34313467Y-57089954D01*
X34307517Y-57088464D01*
X34301742Y-57086397D01*
X34296198Y-57083775D01*
X34290937Y-57080622D01*
X34286010Y-57076968D01*
X34281466Y-57072849D01*
X33609714Y-56401097D01*
X33605595Y-56396553D01*
X33601941Y-56391626D01*
X33598788Y-56386365D01*
X33596166Y-56380821D01*
X33594099Y-56375046D01*
X33592609Y-56369096D01*
X33591709Y-56363029D01*
X33591408Y-56356903D01*
X33591709Y-56350777D01*
X33592609Y-56344710D01*
X33594099Y-56338760D01*
X33596166Y-56332985D01*
X33598788Y-56327441D01*
X33601941Y-56322180D01*
X33605595Y-56317253D01*
X33609714Y-56312709D01*
X33698102Y-56224321D01*
X33702646Y-56220202D01*
X33707573Y-56216548D01*
X33712834Y-56213395D01*
X33718378Y-56210773D01*
X33724153Y-56208706D01*
X33730103Y-56207216D01*
X33736170Y-56206316D01*
X33742296Y-56206015D01*
X33748422Y-56206316D01*
X33748422Y-56206316D01*
G37*
D13*
X34033978Y-56648585D03*
D11*
G36*
X33394868Y-56559869D02*
G01*
X33400935Y-56560769D01*
X33406885Y-56562259D01*
X33412660Y-56564326D01*
X33418204Y-56566948D01*
X33423465Y-56570101D01*
X33428392Y-56573755D01*
X33432936Y-56577874D01*
X34104688Y-57249626D01*
X34108807Y-57254170D01*
X34112461Y-57259097D01*
X34115614Y-57264358D01*
X34118236Y-57269902D01*
X34120303Y-57275677D01*
X34121793Y-57281627D01*
X34122693Y-57287694D01*
X34122994Y-57293820D01*
X34122693Y-57299946D01*
X34121793Y-57306013D01*
X34120303Y-57311963D01*
X34118236Y-57317738D01*
X34115614Y-57323282D01*
X34112461Y-57328543D01*
X34108807Y-57333470D01*
X34104688Y-57338014D01*
X34016300Y-57426402D01*
X34011756Y-57430521D01*
X34006829Y-57434175D01*
X34001568Y-57437328D01*
X33996024Y-57439950D01*
X33990249Y-57442017D01*
X33984299Y-57443507D01*
X33978232Y-57444407D01*
X33972106Y-57444708D01*
X33965980Y-57444407D01*
X33959913Y-57443507D01*
X33953963Y-57442017D01*
X33948188Y-57439950D01*
X33942644Y-57437328D01*
X33937383Y-57434175D01*
X33932456Y-57430521D01*
X33927912Y-57426402D01*
X33256160Y-56754650D01*
X33252041Y-56750106D01*
X33248387Y-56745179D01*
X33245234Y-56739918D01*
X33242612Y-56734374D01*
X33240545Y-56728599D01*
X33239055Y-56722649D01*
X33238155Y-56716582D01*
X33237854Y-56710456D01*
X33238155Y-56704330D01*
X33239055Y-56698263D01*
X33240545Y-56692313D01*
X33242612Y-56686538D01*
X33245234Y-56680994D01*
X33248387Y-56675733D01*
X33252041Y-56670806D01*
X33256160Y-56666262D01*
X33344548Y-56577874D01*
X33349092Y-56573755D01*
X33354019Y-56570101D01*
X33359280Y-56566948D01*
X33364824Y-56564326D01*
X33370599Y-56562259D01*
X33376549Y-56560769D01*
X33382616Y-56559869D01*
X33388742Y-56559568D01*
X33394868Y-56559869D01*
X33394868Y-56559869D01*
G37*
D13*
X33680424Y-57002138D03*
D11*
G36*
X33041315Y-56913422D02*
G01*
X33047382Y-56914322D01*
X33053332Y-56915812D01*
X33059107Y-56917879D01*
X33064651Y-56920501D01*
X33069912Y-56923654D01*
X33074839Y-56927308D01*
X33079383Y-56931427D01*
X33751135Y-57603179D01*
X33755254Y-57607723D01*
X33758908Y-57612650D01*
X33762061Y-57617911D01*
X33764683Y-57623455D01*
X33766750Y-57629230D01*
X33768240Y-57635180D01*
X33769140Y-57641247D01*
X33769441Y-57647373D01*
X33769140Y-57653499D01*
X33768240Y-57659566D01*
X33766750Y-57665516D01*
X33764683Y-57671291D01*
X33762061Y-57676835D01*
X33758908Y-57682096D01*
X33755254Y-57687023D01*
X33751135Y-57691567D01*
X33662747Y-57779955D01*
X33658203Y-57784074D01*
X33653276Y-57787728D01*
X33648015Y-57790881D01*
X33642471Y-57793503D01*
X33636696Y-57795570D01*
X33630746Y-57797060D01*
X33624679Y-57797960D01*
X33618553Y-57798261D01*
X33612427Y-57797960D01*
X33606360Y-57797060D01*
X33600410Y-57795570D01*
X33594635Y-57793503D01*
X33589091Y-57790881D01*
X33583830Y-57787728D01*
X33578903Y-57784074D01*
X33574359Y-57779955D01*
X32902607Y-57108203D01*
X32898488Y-57103659D01*
X32894834Y-57098732D01*
X32891681Y-57093471D01*
X32889059Y-57087927D01*
X32886992Y-57082152D01*
X32885502Y-57076202D01*
X32884602Y-57070135D01*
X32884301Y-57064009D01*
X32884602Y-57057883D01*
X32885502Y-57051816D01*
X32886992Y-57045866D01*
X32889059Y-57040091D01*
X32891681Y-57034547D01*
X32894834Y-57029286D01*
X32898488Y-57024359D01*
X32902607Y-57019815D01*
X32990995Y-56931427D01*
X32995539Y-56927308D01*
X33000466Y-56923654D01*
X33005727Y-56920501D01*
X33011271Y-56917879D01*
X33017046Y-56915812D01*
X33022996Y-56914322D01*
X33029063Y-56913422D01*
X33035189Y-56913121D01*
X33041315Y-56913422D01*
X33041315Y-56913422D01*
G37*
D13*
X33326871Y-57355691D03*
D11*
G36*
X32687762Y-57266976D02*
G01*
X32693829Y-57267876D01*
X32699779Y-57269366D01*
X32705554Y-57271433D01*
X32711098Y-57274055D01*
X32716359Y-57277208D01*
X32721286Y-57280862D01*
X32725830Y-57284981D01*
X33397582Y-57956733D01*
X33401701Y-57961277D01*
X33405355Y-57966204D01*
X33408508Y-57971465D01*
X33411130Y-57977009D01*
X33413197Y-57982784D01*
X33414687Y-57988734D01*
X33415587Y-57994801D01*
X33415888Y-58000927D01*
X33415587Y-58007053D01*
X33414687Y-58013120D01*
X33413197Y-58019070D01*
X33411130Y-58024845D01*
X33408508Y-58030389D01*
X33405355Y-58035650D01*
X33401701Y-58040577D01*
X33397582Y-58045121D01*
X33309194Y-58133509D01*
X33304650Y-58137628D01*
X33299723Y-58141282D01*
X33294462Y-58144435D01*
X33288918Y-58147057D01*
X33283143Y-58149124D01*
X33277193Y-58150614D01*
X33271126Y-58151514D01*
X33265000Y-58151815D01*
X33258874Y-58151514D01*
X33252807Y-58150614D01*
X33246857Y-58149124D01*
X33241082Y-58147057D01*
X33235538Y-58144435D01*
X33230277Y-58141282D01*
X33225350Y-58137628D01*
X33220806Y-58133509D01*
X32549054Y-57461757D01*
X32544935Y-57457213D01*
X32541281Y-57452286D01*
X32538128Y-57447025D01*
X32535506Y-57441481D01*
X32533439Y-57435706D01*
X32531949Y-57429756D01*
X32531049Y-57423689D01*
X32530748Y-57417563D01*
X32531049Y-57411437D01*
X32531949Y-57405370D01*
X32533439Y-57399420D01*
X32535506Y-57393645D01*
X32538128Y-57388101D01*
X32541281Y-57382840D01*
X32544935Y-57377913D01*
X32549054Y-57373369D01*
X32637442Y-57284981D01*
X32641986Y-57280862D01*
X32646913Y-57277208D01*
X32652174Y-57274055D01*
X32657718Y-57271433D01*
X32663493Y-57269366D01*
X32669443Y-57267876D01*
X32675510Y-57266976D01*
X32681636Y-57266675D01*
X32687762Y-57266976D01*
X32687762Y-57266976D01*
G37*
D13*
X32973318Y-57709245D03*
D11*
G36*
X32334208Y-57620529D02*
G01*
X32340275Y-57621429D01*
X32346225Y-57622919D01*
X32352000Y-57624986D01*
X32357544Y-57627608D01*
X32362805Y-57630761D01*
X32367732Y-57634415D01*
X32372276Y-57638534D01*
X33044028Y-58310286D01*
X33048147Y-58314830D01*
X33051801Y-58319757D01*
X33054954Y-58325018D01*
X33057576Y-58330562D01*
X33059643Y-58336337D01*
X33061133Y-58342287D01*
X33062033Y-58348354D01*
X33062334Y-58354480D01*
X33062033Y-58360606D01*
X33061133Y-58366673D01*
X33059643Y-58372623D01*
X33057576Y-58378398D01*
X33054954Y-58383942D01*
X33051801Y-58389203D01*
X33048147Y-58394130D01*
X33044028Y-58398674D01*
X32955640Y-58487062D01*
X32951096Y-58491181D01*
X32946169Y-58494835D01*
X32940908Y-58497988D01*
X32935364Y-58500610D01*
X32929589Y-58502677D01*
X32923639Y-58504167D01*
X32917572Y-58505067D01*
X32911446Y-58505368D01*
X32905320Y-58505067D01*
X32899253Y-58504167D01*
X32893303Y-58502677D01*
X32887528Y-58500610D01*
X32881984Y-58497988D01*
X32876723Y-58494835D01*
X32871796Y-58491181D01*
X32867252Y-58487062D01*
X32195500Y-57815310D01*
X32191381Y-57810766D01*
X32187727Y-57805839D01*
X32184574Y-57800578D01*
X32181952Y-57795034D01*
X32179885Y-57789259D01*
X32178395Y-57783309D01*
X32177495Y-57777242D01*
X32177194Y-57771116D01*
X32177495Y-57764990D01*
X32178395Y-57758923D01*
X32179885Y-57752973D01*
X32181952Y-57747198D01*
X32184574Y-57741654D01*
X32187727Y-57736393D01*
X32191381Y-57731466D01*
X32195500Y-57726922D01*
X32283888Y-57638534D01*
X32288432Y-57634415D01*
X32293359Y-57630761D01*
X32298620Y-57627608D01*
X32304164Y-57624986D01*
X32309939Y-57622919D01*
X32315889Y-57621429D01*
X32321956Y-57620529D01*
X32328082Y-57620228D01*
X32334208Y-57620529D01*
X32334208Y-57620529D01*
G37*
D13*
X32619764Y-58062798D03*
D11*
G36*
X39529720Y-58017295D02*
G01*
X39553988Y-58020895D01*
X39577787Y-58026856D01*
X39600886Y-58035121D01*
X39623065Y-58045611D01*
X39644108Y-58058223D01*
X39663814Y-58072838D01*
X39681992Y-58089314D01*
X40070902Y-58478224D01*
X40087378Y-58496402D01*
X40101993Y-58516108D01*
X40114605Y-58537151D01*
X40125095Y-58559330D01*
X40133360Y-58582429D01*
X40139321Y-58606228D01*
X40142921Y-58630496D01*
X40144125Y-58655000D01*
X40142921Y-58679504D01*
X40139321Y-58703772D01*
X40133360Y-58727571D01*
X40125095Y-58750670D01*
X40114605Y-58772849D01*
X40101993Y-58793892D01*
X40087378Y-58813598D01*
X40070902Y-58831776D01*
X39681992Y-59220686D01*
X39663814Y-59237162D01*
X39644108Y-59251777D01*
X39623065Y-59264389D01*
X39600886Y-59274879D01*
X39577787Y-59283144D01*
X39553988Y-59289105D01*
X39529720Y-59292705D01*
X39505216Y-59293909D01*
X39480712Y-59292705D01*
X39456444Y-59289105D01*
X39432645Y-59283144D01*
X39409546Y-59274879D01*
X39387367Y-59264389D01*
X39366324Y-59251777D01*
X39346618Y-59237162D01*
X39328440Y-59220686D01*
X38939530Y-58831776D01*
X38923054Y-58813598D01*
X38908439Y-58793892D01*
X38895827Y-58772849D01*
X38885337Y-58750670D01*
X38877072Y-58727571D01*
X38871111Y-58703772D01*
X38867511Y-58679504D01*
X38866307Y-58655000D01*
X38867511Y-58630496D01*
X38871111Y-58606228D01*
X38877072Y-58582429D01*
X38885337Y-58559330D01*
X38895827Y-58537151D01*
X38908439Y-58516108D01*
X38923054Y-58496402D01*
X38939530Y-58478224D01*
X39328440Y-58089314D01*
X39346618Y-58072838D01*
X39366324Y-58058223D01*
X39387367Y-58045611D01*
X39409546Y-58035121D01*
X39432645Y-58026856D01*
X39456444Y-58020895D01*
X39480712Y-58017295D01*
X39505216Y-58016091D01*
X39529720Y-58017295D01*
X39529720Y-58017295D01*
G37*
D14*
X39505216Y-58655000D03*
D11*
G36*
X38610482Y-58936534D02*
G01*
X38634750Y-58940134D01*
X38658549Y-58946095D01*
X38681648Y-58954360D01*
X38703827Y-58964850D01*
X38724870Y-58977462D01*
X38744576Y-58992077D01*
X38762754Y-59008553D01*
X39151664Y-59397463D01*
X39168140Y-59415641D01*
X39182755Y-59435347D01*
X39195367Y-59456390D01*
X39205857Y-59478569D01*
X39214122Y-59501668D01*
X39220083Y-59525467D01*
X39223683Y-59549735D01*
X39224887Y-59574239D01*
X39223683Y-59598743D01*
X39220083Y-59623011D01*
X39214122Y-59646810D01*
X39205857Y-59669909D01*
X39195367Y-59692088D01*
X39182755Y-59713131D01*
X39168140Y-59732837D01*
X39151664Y-59751015D01*
X38762754Y-60139925D01*
X38744576Y-60156401D01*
X38724870Y-60171016D01*
X38703827Y-60183628D01*
X38681648Y-60194118D01*
X38658549Y-60202383D01*
X38634750Y-60208344D01*
X38610482Y-60211944D01*
X38585978Y-60213148D01*
X38561474Y-60211944D01*
X38537206Y-60208344D01*
X38513407Y-60202383D01*
X38490308Y-60194118D01*
X38468129Y-60183628D01*
X38447086Y-60171016D01*
X38427380Y-60156401D01*
X38409202Y-60139925D01*
X38020292Y-59751015D01*
X38003816Y-59732837D01*
X37989201Y-59713131D01*
X37976589Y-59692088D01*
X37966099Y-59669909D01*
X37957834Y-59646810D01*
X37951873Y-59623011D01*
X37948273Y-59598743D01*
X37947069Y-59574239D01*
X37948273Y-59549735D01*
X37951873Y-59525467D01*
X37957834Y-59501668D01*
X37966099Y-59478569D01*
X37976589Y-59456390D01*
X37989201Y-59435347D01*
X38003816Y-59415641D01*
X38020292Y-59397463D01*
X38409202Y-59008553D01*
X38427380Y-58992077D01*
X38447086Y-58977462D01*
X38468129Y-58964850D01*
X38490308Y-58954360D01*
X38513407Y-58946095D01*
X38537206Y-58940134D01*
X38561474Y-58936534D01*
X38585978Y-58935330D01*
X38610482Y-58936534D01*
X38610482Y-58936534D01*
G37*
D14*
X38585978Y-59574239D03*
D11*
G36*
X37691243Y-59855773D02*
G01*
X37715511Y-59859373D01*
X37739310Y-59865334D01*
X37762409Y-59873599D01*
X37784588Y-59884089D01*
X37805631Y-59896701D01*
X37825337Y-59911316D01*
X37843515Y-59927792D01*
X38232425Y-60316702D01*
X38248901Y-60334880D01*
X38263516Y-60354586D01*
X38276128Y-60375629D01*
X38286618Y-60397808D01*
X38294883Y-60420907D01*
X38300844Y-60444706D01*
X38304444Y-60468974D01*
X38305648Y-60493478D01*
X38304444Y-60517982D01*
X38300844Y-60542250D01*
X38294883Y-60566049D01*
X38286618Y-60589148D01*
X38276128Y-60611327D01*
X38263516Y-60632370D01*
X38248901Y-60652076D01*
X38232425Y-60670254D01*
X37843515Y-61059164D01*
X37825337Y-61075640D01*
X37805631Y-61090255D01*
X37784588Y-61102867D01*
X37762409Y-61113357D01*
X37739310Y-61121622D01*
X37715511Y-61127583D01*
X37691243Y-61131183D01*
X37666739Y-61132387D01*
X37642235Y-61131183D01*
X37617967Y-61127583D01*
X37594168Y-61121622D01*
X37571069Y-61113357D01*
X37548890Y-61102867D01*
X37527847Y-61090255D01*
X37508141Y-61075640D01*
X37489963Y-61059164D01*
X37101053Y-60670254D01*
X37084577Y-60652076D01*
X37069962Y-60632370D01*
X37057350Y-60611327D01*
X37046860Y-60589148D01*
X37038595Y-60566049D01*
X37032634Y-60542250D01*
X37029034Y-60517982D01*
X37027830Y-60493478D01*
X37029034Y-60468974D01*
X37032634Y-60444706D01*
X37038595Y-60420907D01*
X37046860Y-60397808D01*
X37057350Y-60375629D01*
X37069962Y-60354586D01*
X37084577Y-60334880D01*
X37101053Y-60316702D01*
X37489963Y-59927792D01*
X37508141Y-59911316D01*
X37527847Y-59896701D01*
X37548890Y-59884089D01*
X37571069Y-59873599D01*
X37594168Y-59865334D01*
X37617967Y-59859373D01*
X37642235Y-59855773D01*
X37666739Y-59854569D01*
X37691243Y-59855773D01*
X37691243Y-59855773D01*
G37*
D14*
X37666739Y-60493478D03*
D11*
G36*
X36772004Y-60775011D02*
G01*
X36796272Y-60778611D01*
X36820071Y-60784572D01*
X36843170Y-60792837D01*
X36865349Y-60803327D01*
X36886392Y-60815939D01*
X36906098Y-60830554D01*
X36924276Y-60847030D01*
X37313186Y-61235940D01*
X37329662Y-61254118D01*
X37344277Y-61273824D01*
X37356889Y-61294867D01*
X37367379Y-61317046D01*
X37375644Y-61340145D01*
X37381605Y-61363944D01*
X37385205Y-61388212D01*
X37386409Y-61412716D01*
X37385205Y-61437220D01*
X37381605Y-61461488D01*
X37375644Y-61485287D01*
X37367379Y-61508386D01*
X37356889Y-61530565D01*
X37344277Y-61551608D01*
X37329662Y-61571314D01*
X37313186Y-61589492D01*
X36924276Y-61978402D01*
X36906098Y-61994878D01*
X36886392Y-62009493D01*
X36865349Y-62022105D01*
X36843170Y-62032595D01*
X36820071Y-62040860D01*
X36796272Y-62046821D01*
X36772004Y-62050421D01*
X36747500Y-62051625D01*
X36722996Y-62050421D01*
X36698728Y-62046821D01*
X36674929Y-62040860D01*
X36651830Y-62032595D01*
X36629651Y-62022105D01*
X36608608Y-62009493D01*
X36588902Y-61994878D01*
X36570724Y-61978402D01*
X36181814Y-61589492D01*
X36165338Y-61571314D01*
X36150723Y-61551608D01*
X36138111Y-61530565D01*
X36127621Y-61508386D01*
X36119356Y-61485287D01*
X36113395Y-61461488D01*
X36109795Y-61437220D01*
X36108591Y-61412716D01*
X36109795Y-61388212D01*
X36113395Y-61363944D01*
X36119356Y-61340145D01*
X36127621Y-61317046D01*
X36138111Y-61294867D01*
X36150723Y-61273824D01*
X36165338Y-61254118D01*
X36181814Y-61235940D01*
X36570724Y-60847030D01*
X36588902Y-60830554D01*
X36608608Y-60815939D01*
X36629651Y-60803327D01*
X36651830Y-60792837D01*
X36674929Y-60784572D01*
X36698728Y-60778611D01*
X36722996Y-60775011D01*
X36747500Y-60773807D01*
X36772004Y-60775011D01*
X36772004Y-60775011D01*
G37*
D14*
X36747500Y-61412716D03*
D11*
G36*
X38610482Y-57098056D02*
G01*
X38634750Y-57101656D01*
X38658549Y-57107617D01*
X38681648Y-57115882D01*
X38703827Y-57126372D01*
X38724870Y-57138984D01*
X38744576Y-57153599D01*
X38762754Y-57170075D01*
X39151664Y-57558985D01*
X39168140Y-57577163D01*
X39182755Y-57596869D01*
X39195367Y-57617912D01*
X39205857Y-57640091D01*
X39214122Y-57663190D01*
X39220083Y-57686989D01*
X39223683Y-57711257D01*
X39224887Y-57735761D01*
X39223683Y-57760265D01*
X39220083Y-57784533D01*
X39214122Y-57808332D01*
X39205857Y-57831431D01*
X39195367Y-57853610D01*
X39182755Y-57874653D01*
X39168140Y-57894359D01*
X39151664Y-57912537D01*
X38762754Y-58301447D01*
X38744576Y-58317923D01*
X38724870Y-58332538D01*
X38703827Y-58345150D01*
X38681648Y-58355640D01*
X38658549Y-58363905D01*
X38634750Y-58369866D01*
X38610482Y-58373466D01*
X38585978Y-58374670D01*
X38561474Y-58373466D01*
X38537206Y-58369866D01*
X38513407Y-58363905D01*
X38490308Y-58355640D01*
X38468129Y-58345150D01*
X38447086Y-58332538D01*
X38427380Y-58317923D01*
X38409202Y-58301447D01*
X38020292Y-57912537D01*
X38003816Y-57894359D01*
X37989201Y-57874653D01*
X37976589Y-57853610D01*
X37966099Y-57831431D01*
X37957834Y-57808332D01*
X37951873Y-57784533D01*
X37948273Y-57760265D01*
X37947069Y-57735761D01*
X37948273Y-57711257D01*
X37951873Y-57686989D01*
X37957834Y-57663190D01*
X37966099Y-57640091D01*
X37976589Y-57617912D01*
X37989201Y-57596869D01*
X38003816Y-57577163D01*
X38020292Y-57558985D01*
X38409202Y-57170075D01*
X38427380Y-57153599D01*
X38447086Y-57138984D01*
X38468129Y-57126372D01*
X38490308Y-57115882D01*
X38513407Y-57107617D01*
X38537206Y-57101656D01*
X38561474Y-57098056D01*
X38585978Y-57096852D01*
X38610482Y-57098056D01*
X38610482Y-57098056D01*
G37*
D14*
X38585978Y-57735761D03*
D11*
G36*
X37691243Y-58017295D02*
G01*
X37715511Y-58020895D01*
X37739310Y-58026856D01*
X37762409Y-58035121D01*
X37784588Y-58045611D01*
X37805631Y-58058223D01*
X37825337Y-58072838D01*
X37843515Y-58089314D01*
X38232425Y-58478224D01*
X38248901Y-58496402D01*
X38263516Y-58516108D01*
X38276128Y-58537151D01*
X38286618Y-58559330D01*
X38294883Y-58582429D01*
X38300844Y-58606228D01*
X38304444Y-58630496D01*
X38305648Y-58655000D01*
X38304444Y-58679504D01*
X38300844Y-58703772D01*
X38294883Y-58727571D01*
X38286618Y-58750670D01*
X38276128Y-58772849D01*
X38263516Y-58793892D01*
X38248901Y-58813598D01*
X38232425Y-58831776D01*
X37843515Y-59220686D01*
X37825337Y-59237162D01*
X37805631Y-59251777D01*
X37784588Y-59264389D01*
X37762409Y-59274879D01*
X37739310Y-59283144D01*
X37715511Y-59289105D01*
X37691243Y-59292705D01*
X37666739Y-59293909D01*
X37642235Y-59292705D01*
X37617967Y-59289105D01*
X37594168Y-59283144D01*
X37571069Y-59274879D01*
X37548890Y-59264389D01*
X37527847Y-59251777D01*
X37508141Y-59237162D01*
X37489963Y-59220686D01*
X37101053Y-58831776D01*
X37084577Y-58813598D01*
X37069962Y-58793892D01*
X37057350Y-58772849D01*
X37046860Y-58750670D01*
X37038595Y-58727571D01*
X37032634Y-58703772D01*
X37029034Y-58679504D01*
X37027830Y-58655000D01*
X37029034Y-58630496D01*
X37032634Y-58606228D01*
X37038595Y-58582429D01*
X37046860Y-58559330D01*
X37057350Y-58537151D01*
X37069962Y-58516108D01*
X37084577Y-58496402D01*
X37101053Y-58478224D01*
X37489963Y-58089314D01*
X37508141Y-58072838D01*
X37527847Y-58058223D01*
X37548890Y-58045611D01*
X37571069Y-58035121D01*
X37594168Y-58026856D01*
X37617967Y-58020895D01*
X37642235Y-58017295D01*
X37666739Y-58016091D01*
X37691243Y-58017295D01*
X37691243Y-58017295D01*
G37*
D14*
X37666739Y-58655000D03*
D11*
G36*
X36772004Y-58936534D02*
G01*
X36796272Y-58940134D01*
X36820071Y-58946095D01*
X36843170Y-58954360D01*
X36865349Y-58964850D01*
X36886392Y-58977462D01*
X36906098Y-58992077D01*
X36924276Y-59008553D01*
X37313186Y-59397463D01*
X37329662Y-59415641D01*
X37344277Y-59435347D01*
X37356889Y-59456390D01*
X37367379Y-59478569D01*
X37375644Y-59501668D01*
X37381605Y-59525467D01*
X37385205Y-59549735D01*
X37386409Y-59574239D01*
X37385205Y-59598743D01*
X37381605Y-59623011D01*
X37375644Y-59646810D01*
X37367379Y-59669909D01*
X37356889Y-59692088D01*
X37344277Y-59713131D01*
X37329662Y-59732837D01*
X37313186Y-59751015D01*
X36924276Y-60139925D01*
X36906098Y-60156401D01*
X36886392Y-60171016D01*
X36865349Y-60183628D01*
X36843170Y-60194118D01*
X36820071Y-60202383D01*
X36796272Y-60208344D01*
X36772004Y-60211944D01*
X36747500Y-60213148D01*
X36722996Y-60211944D01*
X36698728Y-60208344D01*
X36674929Y-60202383D01*
X36651830Y-60194118D01*
X36629651Y-60183628D01*
X36608608Y-60171016D01*
X36588902Y-60156401D01*
X36570724Y-60139925D01*
X36181814Y-59751015D01*
X36165338Y-59732837D01*
X36150723Y-59713131D01*
X36138111Y-59692088D01*
X36127621Y-59669909D01*
X36119356Y-59646810D01*
X36113395Y-59623011D01*
X36109795Y-59598743D01*
X36108591Y-59574239D01*
X36109795Y-59549735D01*
X36113395Y-59525467D01*
X36119356Y-59501668D01*
X36127621Y-59478569D01*
X36138111Y-59456390D01*
X36150723Y-59435347D01*
X36165338Y-59415641D01*
X36181814Y-59397463D01*
X36570724Y-59008553D01*
X36588902Y-58992077D01*
X36608608Y-58977462D01*
X36629651Y-58964850D01*
X36651830Y-58954360D01*
X36674929Y-58946095D01*
X36698728Y-58940134D01*
X36722996Y-58936534D01*
X36747500Y-58935330D01*
X36772004Y-58936534D01*
X36772004Y-58936534D01*
G37*
D14*
X36747500Y-59574239D03*
D11*
G36*
X35852765Y-59855773D02*
G01*
X35877033Y-59859373D01*
X35900832Y-59865334D01*
X35923931Y-59873599D01*
X35946110Y-59884089D01*
X35967153Y-59896701D01*
X35986859Y-59911316D01*
X36005037Y-59927792D01*
X36393947Y-60316702D01*
X36410423Y-60334880D01*
X36425038Y-60354586D01*
X36437650Y-60375629D01*
X36448140Y-60397808D01*
X36456405Y-60420907D01*
X36462366Y-60444706D01*
X36465966Y-60468974D01*
X36467170Y-60493478D01*
X36465966Y-60517982D01*
X36462366Y-60542250D01*
X36456405Y-60566049D01*
X36448140Y-60589148D01*
X36437650Y-60611327D01*
X36425038Y-60632370D01*
X36410423Y-60652076D01*
X36393947Y-60670254D01*
X36005037Y-61059164D01*
X35986859Y-61075640D01*
X35967153Y-61090255D01*
X35946110Y-61102867D01*
X35923931Y-61113357D01*
X35900832Y-61121622D01*
X35877033Y-61127583D01*
X35852765Y-61131183D01*
X35828261Y-61132387D01*
X35803757Y-61131183D01*
X35779489Y-61127583D01*
X35755690Y-61121622D01*
X35732591Y-61113357D01*
X35710412Y-61102867D01*
X35689369Y-61090255D01*
X35669663Y-61075640D01*
X35651485Y-61059164D01*
X35262575Y-60670254D01*
X35246099Y-60652076D01*
X35231484Y-60632370D01*
X35218872Y-60611327D01*
X35208382Y-60589148D01*
X35200117Y-60566049D01*
X35194156Y-60542250D01*
X35190556Y-60517982D01*
X35189352Y-60493478D01*
X35190556Y-60468974D01*
X35194156Y-60444706D01*
X35200117Y-60420907D01*
X35208382Y-60397808D01*
X35218872Y-60375629D01*
X35231484Y-60354586D01*
X35246099Y-60334880D01*
X35262575Y-60316702D01*
X35651485Y-59927792D01*
X35669663Y-59911316D01*
X35689369Y-59896701D01*
X35710412Y-59884089D01*
X35732591Y-59873599D01*
X35755690Y-59865334D01*
X35779489Y-59859373D01*
X35803757Y-59855773D01*
X35828261Y-59854569D01*
X35852765Y-59855773D01*
X35852765Y-59855773D01*
G37*
D14*
X35828261Y-60493478D03*
D11*
G36*
X37691243Y-56178817D02*
G01*
X37715511Y-56182417D01*
X37739310Y-56188378D01*
X37762409Y-56196643D01*
X37784588Y-56207133D01*
X37805631Y-56219745D01*
X37825337Y-56234360D01*
X37843515Y-56250836D01*
X38232425Y-56639746D01*
X38248901Y-56657924D01*
X38263516Y-56677630D01*
X38276128Y-56698673D01*
X38286618Y-56720852D01*
X38294883Y-56743951D01*
X38300844Y-56767750D01*
X38304444Y-56792018D01*
X38305648Y-56816522D01*
X38304444Y-56841026D01*
X38300844Y-56865294D01*
X38294883Y-56889093D01*
X38286618Y-56912192D01*
X38276128Y-56934371D01*
X38263516Y-56955414D01*
X38248901Y-56975120D01*
X38232425Y-56993298D01*
X37843515Y-57382208D01*
X37825337Y-57398684D01*
X37805631Y-57413299D01*
X37784588Y-57425911D01*
X37762409Y-57436401D01*
X37739310Y-57444666D01*
X37715511Y-57450627D01*
X37691243Y-57454227D01*
X37666739Y-57455431D01*
X37642235Y-57454227D01*
X37617967Y-57450627D01*
X37594168Y-57444666D01*
X37571069Y-57436401D01*
X37548890Y-57425911D01*
X37527847Y-57413299D01*
X37508141Y-57398684D01*
X37489963Y-57382208D01*
X37101053Y-56993298D01*
X37084577Y-56975120D01*
X37069962Y-56955414D01*
X37057350Y-56934371D01*
X37046860Y-56912192D01*
X37038595Y-56889093D01*
X37032634Y-56865294D01*
X37029034Y-56841026D01*
X37027830Y-56816522D01*
X37029034Y-56792018D01*
X37032634Y-56767750D01*
X37038595Y-56743951D01*
X37046860Y-56720852D01*
X37057350Y-56698673D01*
X37069962Y-56677630D01*
X37084577Y-56657924D01*
X37101053Y-56639746D01*
X37489963Y-56250836D01*
X37508141Y-56234360D01*
X37527847Y-56219745D01*
X37548890Y-56207133D01*
X37571069Y-56196643D01*
X37594168Y-56188378D01*
X37617967Y-56182417D01*
X37642235Y-56178817D01*
X37666739Y-56177613D01*
X37691243Y-56178817D01*
X37691243Y-56178817D01*
G37*
D14*
X37666739Y-56816522D03*
D11*
G36*
X36772004Y-57098056D02*
G01*
X36796272Y-57101656D01*
X36820071Y-57107617D01*
X36843170Y-57115882D01*
X36865349Y-57126372D01*
X36886392Y-57138984D01*
X36906098Y-57153599D01*
X36924276Y-57170075D01*
X37313186Y-57558985D01*
X37329662Y-57577163D01*
X37344277Y-57596869D01*
X37356889Y-57617912D01*
X37367379Y-57640091D01*
X37375644Y-57663190D01*
X37381605Y-57686989D01*
X37385205Y-57711257D01*
X37386409Y-57735761D01*
X37385205Y-57760265D01*
X37381605Y-57784533D01*
X37375644Y-57808332D01*
X37367379Y-57831431D01*
X37356889Y-57853610D01*
X37344277Y-57874653D01*
X37329662Y-57894359D01*
X37313186Y-57912537D01*
X36924276Y-58301447D01*
X36906098Y-58317923D01*
X36886392Y-58332538D01*
X36865349Y-58345150D01*
X36843170Y-58355640D01*
X36820071Y-58363905D01*
X36796272Y-58369866D01*
X36772004Y-58373466D01*
X36747500Y-58374670D01*
X36722996Y-58373466D01*
X36698728Y-58369866D01*
X36674929Y-58363905D01*
X36651830Y-58355640D01*
X36629651Y-58345150D01*
X36608608Y-58332538D01*
X36588902Y-58317923D01*
X36570724Y-58301447D01*
X36181814Y-57912537D01*
X36165338Y-57894359D01*
X36150723Y-57874653D01*
X36138111Y-57853610D01*
X36127621Y-57831431D01*
X36119356Y-57808332D01*
X36113395Y-57784533D01*
X36109795Y-57760265D01*
X36108591Y-57735761D01*
X36109795Y-57711257D01*
X36113395Y-57686989D01*
X36119356Y-57663190D01*
X36127621Y-57640091D01*
X36138111Y-57617912D01*
X36150723Y-57596869D01*
X36165338Y-57577163D01*
X36181814Y-57558985D01*
X36570724Y-57170075D01*
X36588902Y-57153599D01*
X36608608Y-57138984D01*
X36629651Y-57126372D01*
X36651830Y-57115882D01*
X36674929Y-57107617D01*
X36698728Y-57101656D01*
X36722996Y-57098056D01*
X36747500Y-57096852D01*
X36772004Y-57098056D01*
X36772004Y-57098056D01*
G37*
D14*
X36747500Y-57735761D03*
D11*
G36*
X35852765Y-58017295D02*
G01*
X35877033Y-58020895D01*
X35900832Y-58026856D01*
X35923931Y-58035121D01*
X35946110Y-58045611D01*
X35967153Y-58058223D01*
X35986859Y-58072838D01*
X36005037Y-58089314D01*
X36393947Y-58478224D01*
X36410423Y-58496402D01*
X36425038Y-58516108D01*
X36437650Y-58537151D01*
X36448140Y-58559330D01*
X36456405Y-58582429D01*
X36462366Y-58606228D01*
X36465966Y-58630496D01*
X36467170Y-58655000D01*
X36465966Y-58679504D01*
X36462366Y-58703772D01*
X36456405Y-58727571D01*
X36448140Y-58750670D01*
X36437650Y-58772849D01*
X36425038Y-58793892D01*
X36410423Y-58813598D01*
X36393947Y-58831776D01*
X36005037Y-59220686D01*
X35986859Y-59237162D01*
X35967153Y-59251777D01*
X35946110Y-59264389D01*
X35923931Y-59274879D01*
X35900832Y-59283144D01*
X35877033Y-59289105D01*
X35852765Y-59292705D01*
X35828261Y-59293909D01*
X35803757Y-59292705D01*
X35779489Y-59289105D01*
X35755690Y-59283144D01*
X35732591Y-59274879D01*
X35710412Y-59264389D01*
X35689369Y-59251777D01*
X35669663Y-59237162D01*
X35651485Y-59220686D01*
X35262575Y-58831776D01*
X35246099Y-58813598D01*
X35231484Y-58793892D01*
X35218872Y-58772849D01*
X35208382Y-58750670D01*
X35200117Y-58727571D01*
X35194156Y-58703772D01*
X35190556Y-58679504D01*
X35189352Y-58655000D01*
X35190556Y-58630496D01*
X35194156Y-58606228D01*
X35200117Y-58582429D01*
X35208382Y-58559330D01*
X35218872Y-58537151D01*
X35231484Y-58516108D01*
X35246099Y-58496402D01*
X35262575Y-58478224D01*
X35651485Y-58089314D01*
X35669663Y-58072838D01*
X35689369Y-58058223D01*
X35710412Y-58045611D01*
X35732591Y-58035121D01*
X35755690Y-58026856D01*
X35779489Y-58020895D01*
X35803757Y-58017295D01*
X35828261Y-58016091D01*
X35852765Y-58017295D01*
X35852765Y-58017295D01*
G37*
D14*
X35828261Y-58655000D03*
D11*
G36*
X34933526Y-58936534D02*
G01*
X34957794Y-58940134D01*
X34981593Y-58946095D01*
X35004692Y-58954360D01*
X35026871Y-58964850D01*
X35047914Y-58977462D01*
X35067620Y-58992077D01*
X35085798Y-59008553D01*
X35474708Y-59397463D01*
X35491184Y-59415641D01*
X35505799Y-59435347D01*
X35518411Y-59456390D01*
X35528901Y-59478569D01*
X35537166Y-59501668D01*
X35543127Y-59525467D01*
X35546727Y-59549735D01*
X35547931Y-59574239D01*
X35546727Y-59598743D01*
X35543127Y-59623011D01*
X35537166Y-59646810D01*
X35528901Y-59669909D01*
X35518411Y-59692088D01*
X35505799Y-59713131D01*
X35491184Y-59732837D01*
X35474708Y-59751015D01*
X35085798Y-60139925D01*
X35067620Y-60156401D01*
X35047914Y-60171016D01*
X35026871Y-60183628D01*
X35004692Y-60194118D01*
X34981593Y-60202383D01*
X34957794Y-60208344D01*
X34933526Y-60211944D01*
X34909022Y-60213148D01*
X34884518Y-60211944D01*
X34860250Y-60208344D01*
X34836451Y-60202383D01*
X34813352Y-60194118D01*
X34791173Y-60183628D01*
X34770130Y-60171016D01*
X34750424Y-60156401D01*
X34732246Y-60139925D01*
X34343336Y-59751015D01*
X34326860Y-59732837D01*
X34312245Y-59713131D01*
X34299633Y-59692088D01*
X34289143Y-59669909D01*
X34280878Y-59646810D01*
X34274917Y-59623011D01*
X34271317Y-59598743D01*
X34270113Y-59574239D01*
X34271317Y-59549735D01*
X34274917Y-59525467D01*
X34280878Y-59501668D01*
X34289143Y-59478569D01*
X34299633Y-59456390D01*
X34312245Y-59435347D01*
X34326860Y-59415641D01*
X34343336Y-59397463D01*
X34732246Y-59008553D01*
X34750424Y-58992077D01*
X34770130Y-58977462D01*
X34791173Y-58964850D01*
X34813352Y-58954360D01*
X34836451Y-58946095D01*
X34860250Y-58940134D01*
X34884518Y-58936534D01*
X34909022Y-58935330D01*
X34933526Y-58936534D01*
X34933526Y-58936534D01*
G37*
D14*
X34909022Y-59574239D03*
D11*
G36*
X36772004Y-55259579D02*
G01*
X36796272Y-55263179D01*
X36820071Y-55269140D01*
X36843170Y-55277405D01*
X36865349Y-55287895D01*
X36886392Y-55300507D01*
X36906098Y-55315122D01*
X36924276Y-55331598D01*
X37313186Y-55720508D01*
X37329662Y-55738686D01*
X37344277Y-55758392D01*
X37356889Y-55779435D01*
X37367379Y-55801614D01*
X37375644Y-55824713D01*
X37381605Y-55848512D01*
X37385205Y-55872780D01*
X37386409Y-55897284D01*
X37385205Y-55921788D01*
X37381605Y-55946056D01*
X37375644Y-55969855D01*
X37367379Y-55992954D01*
X37356889Y-56015133D01*
X37344277Y-56036176D01*
X37329662Y-56055882D01*
X37313186Y-56074060D01*
X36924276Y-56462970D01*
X36906098Y-56479446D01*
X36886392Y-56494061D01*
X36865349Y-56506673D01*
X36843170Y-56517163D01*
X36820071Y-56525428D01*
X36796272Y-56531389D01*
X36772004Y-56534989D01*
X36747500Y-56536193D01*
X36722996Y-56534989D01*
X36698728Y-56531389D01*
X36674929Y-56525428D01*
X36651830Y-56517163D01*
X36629651Y-56506673D01*
X36608608Y-56494061D01*
X36588902Y-56479446D01*
X36570724Y-56462970D01*
X36181814Y-56074060D01*
X36165338Y-56055882D01*
X36150723Y-56036176D01*
X36138111Y-56015133D01*
X36127621Y-55992954D01*
X36119356Y-55969855D01*
X36113395Y-55946056D01*
X36109795Y-55921788D01*
X36108591Y-55897284D01*
X36109795Y-55872780D01*
X36113395Y-55848512D01*
X36119356Y-55824713D01*
X36127621Y-55801614D01*
X36138111Y-55779435D01*
X36150723Y-55758392D01*
X36165338Y-55738686D01*
X36181814Y-55720508D01*
X36570724Y-55331598D01*
X36588902Y-55315122D01*
X36608608Y-55300507D01*
X36629651Y-55287895D01*
X36651830Y-55277405D01*
X36674929Y-55269140D01*
X36698728Y-55263179D01*
X36722996Y-55259579D01*
X36747500Y-55258375D01*
X36772004Y-55259579D01*
X36772004Y-55259579D01*
G37*
D14*
X36747500Y-55897284D03*
D11*
G36*
X35852765Y-56178817D02*
G01*
X35877033Y-56182417D01*
X35900832Y-56188378D01*
X35923931Y-56196643D01*
X35946110Y-56207133D01*
X35967153Y-56219745D01*
X35986859Y-56234360D01*
X36005037Y-56250836D01*
X36393947Y-56639746D01*
X36410423Y-56657924D01*
X36425038Y-56677630D01*
X36437650Y-56698673D01*
X36448140Y-56720852D01*
X36456405Y-56743951D01*
X36462366Y-56767750D01*
X36465966Y-56792018D01*
X36467170Y-56816522D01*
X36465966Y-56841026D01*
X36462366Y-56865294D01*
X36456405Y-56889093D01*
X36448140Y-56912192D01*
X36437650Y-56934371D01*
X36425038Y-56955414D01*
X36410423Y-56975120D01*
X36393947Y-56993298D01*
X36005037Y-57382208D01*
X35986859Y-57398684D01*
X35967153Y-57413299D01*
X35946110Y-57425911D01*
X35923931Y-57436401D01*
X35900832Y-57444666D01*
X35877033Y-57450627D01*
X35852765Y-57454227D01*
X35828261Y-57455431D01*
X35803757Y-57454227D01*
X35779489Y-57450627D01*
X35755690Y-57444666D01*
X35732591Y-57436401D01*
X35710412Y-57425911D01*
X35689369Y-57413299D01*
X35669663Y-57398684D01*
X35651485Y-57382208D01*
X35262575Y-56993298D01*
X35246099Y-56975120D01*
X35231484Y-56955414D01*
X35218872Y-56934371D01*
X35208382Y-56912192D01*
X35200117Y-56889093D01*
X35194156Y-56865294D01*
X35190556Y-56841026D01*
X35189352Y-56816522D01*
X35190556Y-56792018D01*
X35194156Y-56767750D01*
X35200117Y-56743951D01*
X35208382Y-56720852D01*
X35218872Y-56698673D01*
X35231484Y-56677630D01*
X35246099Y-56657924D01*
X35262575Y-56639746D01*
X35651485Y-56250836D01*
X35669663Y-56234360D01*
X35689369Y-56219745D01*
X35710412Y-56207133D01*
X35732591Y-56196643D01*
X35755690Y-56188378D01*
X35779489Y-56182417D01*
X35803757Y-56178817D01*
X35828261Y-56177613D01*
X35852765Y-56178817D01*
X35852765Y-56178817D01*
G37*
D14*
X35828261Y-56816522D03*
D11*
G36*
X34933526Y-57098056D02*
G01*
X34957794Y-57101656D01*
X34981593Y-57107617D01*
X35004692Y-57115882D01*
X35026871Y-57126372D01*
X35047914Y-57138984D01*
X35067620Y-57153599D01*
X35085798Y-57170075D01*
X35474708Y-57558985D01*
X35491184Y-57577163D01*
X35505799Y-57596869D01*
X35518411Y-57617912D01*
X35528901Y-57640091D01*
X35537166Y-57663190D01*
X35543127Y-57686989D01*
X35546727Y-57711257D01*
X35547931Y-57735761D01*
X35546727Y-57760265D01*
X35543127Y-57784533D01*
X35537166Y-57808332D01*
X35528901Y-57831431D01*
X35518411Y-57853610D01*
X35505799Y-57874653D01*
X35491184Y-57894359D01*
X35474708Y-57912537D01*
X35085798Y-58301447D01*
X35067620Y-58317923D01*
X35047914Y-58332538D01*
X35026871Y-58345150D01*
X35004692Y-58355640D01*
X34981593Y-58363905D01*
X34957794Y-58369866D01*
X34933526Y-58373466D01*
X34909022Y-58374670D01*
X34884518Y-58373466D01*
X34860250Y-58369866D01*
X34836451Y-58363905D01*
X34813352Y-58355640D01*
X34791173Y-58345150D01*
X34770130Y-58332538D01*
X34750424Y-58317923D01*
X34732246Y-58301447D01*
X34343336Y-57912537D01*
X34326860Y-57894359D01*
X34312245Y-57874653D01*
X34299633Y-57853610D01*
X34289143Y-57831431D01*
X34280878Y-57808332D01*
X34274917Y-57784533D01*
X34271317Y-57760265D01*
X34270113Y-57735761D01*
X34271317Y-57711257D01*
X34274917Y-57686989D01*
X34280878Y-57663190D01*
X34289143Y-57640091D01*
X34299633Y-57617912D01*
X34312245Y-57596869D01*
X34326860Y-57577163D01*
X34343336Y-57558985D01*
X34732246Y-57170075D01*
X34750424Y-57153599D01*
X34770130Y-57138984D01*
X34791173Y-57126372D01*
X34813352Y-57115882D01*
X34836451Y-57107617D01*
X34860250Y-57101656D01*
X34884518Y-57098056D01*
X34909022Y-57096852D01*
X34933526Y-57098056D01*
X34933526Y-57098056D01*
G37*
D14*
X34909022Y-57735761D03*
D11*
G36*
X34014288Y-58017295D02*
G01*
X34038556Y-58020895D01*
X34062355Y-58026856D01*
X34085454Y-58035121D01*
X34107633Y-58045611D01*
X34128676Y-58058223D01*
X34148382Y-58072838D01*
X34166560Y-58089314D01*
X34555470Y-58478224D01*
X34571946Y-58496402D01*
X34586561Y-58516108D01*
X34599173Y-58537151D01*
X34609663Y-58559330D01*
X34617928Y-58582429D01*
X34623889Y-58606228D01*
X34627489Y-58630496D01*
X34628693Y-58655000D01*
X34627489Y-58679504D01*
X34623889Y-58703772D01*
X34617928Y-58727571D01*
X34609663Y-58750670D01*
X34599173Y-58772849D01*
X34586561Y-58793892D01*
X34571946Y-58813598D01*
X34555470Y-58831776D01*
X34166560Y-59220686D01*
X34148382Y-59237162D01*
X34128676Y-59251777D01*
X34107633Y-59264389D01*
X34085454Y-59274879D01*
X34062355Y-59283144D01*
X34038556Y-59289105D01*
X34014288Y-59292705D01*
X33989784Y-59293909D01*
X33965280Y-59292705D01*
X33941012Y-59289105D01*
X33917213Y-59283144D01*
X33894114Y-59274879D01*
X33871935Y-59264389D01*
X33850892Y-59251777D01*
X33831186Y-59237162D01*
X33813008Y-59220686D01*
X33424098Y-58831776D01*
X33407622Y-58813598D01*
X33393007Y-58793892D01*
X33380395Y-58772849D01*
X33369905Y-58750670D01*
X33361640Y-58727571D01*
X33355679Y-58703772D01*
X33352079Y-58679504D01*
X33350875Y-58655000D01*
X33352079Y-58630496D01*
X33355679Y-58606228D01*
X33361640Y-58582429D01*
X33369905Y-58559330D01*
X33380395Y-58537151D01*
X33393007Y-58516108D01*
X33407622Y-58496402D01*
X33424098Y-58478224D01*
X33813008Y-58089314D01*
X33831186Y-58072838D01*
X33850892Y-58058223D01*
X33871935Y-58045611D01*
X33894114Y-58035121D01*
X33917213Y-58026856D01*
X33941012Y-58020895D01*
X33965280Y-58017295D01*
X33989784Y-58016091D01*
X34014288Y-58017295D01*
X34014288Y-58017295D01*
G37*
D14*
X33989784Y-58655000D03*
D15*
X38647500Y-42150000D03*
X38647500Y-35850000D03*
X34847500Y-42150000D03*
X34847500Y-35850000D03*
D11*
G36*
X41160779Y-65601144D02*
G01*
X41183834Y-65604563D01*
X41206443Y-65610227D01*
X41228387Y-65618079D01*
X41249457Y-65628044D01*
X41269448Y-65640026D01*
X41288168Y-65653910D01*
X41305438Y-65669562D01*
X41321090Y-65686832D01*
X41334974Y-65705552D01*
X41346956Y-65725543D01*
X41356921Y-65746613D01*
X41364773Y-65768557D01*
X41370437Y-65791166D01*
X41373856Y-65814221D01*
X41375000Y-65837500D01*
X41375000Y-66312500D01*
X41373856Y-66335779D01*
X41370437Y-66358834D01*
X41364773Y-66381443D01*
X41356921Y-66403387D01*
X41346956Y-66424457D01*
X41334974Y-66444448D01*
X41321090Y-66463168D01*
X41305438Y-66480438D01*
X41288168Y-66496090D01*
X41269448Y-66509974D01*
X41249457Y-66521956D01*
X41228387Y-66531921D01*
X41206443Y-66539773D01*
X41183834Y-66545437D01*
X41160779Y-66548856D01*
X41137500Y-66550000D01*
X40562500Y-66550000D01*
X40539221Y-66548856D01*
X40516166Y-66545437D01*
X40493557Y-66539773D01*
X40471613Y-66531921D01*
X40450543Y-66521956D01*
X40430552Y-66509974D01*
X40411832Y-66496090D01*
X40394562Y-66480438D01*
X40378910Y-66463168D01*
X40365026Y-66444448D01*
X40353044Y-66424457D01*
X40343079Y-66403387D01*
X40335227Y-66381443D01*
X40329563Y-66358834D01*
X40326144Y-66335779D01*
X40325000Y-66312500D01*
X40325000Y-65837500D01*
X40326144Y-65814221D01*
X40329563Y-65791166D01*
X40335227Y-65768557D01*
X40343079Y-65746613D01*
X40353044Y-65725543D01*
X40365026Y-65705552D01*
X40378910Y-65686832D01*
X40394562Y-65669562D01*
X40411832Y-65653910D01*
X40430552Y-65640026D01*
X40450543Y-65628044D01*
X40471613Y-65618079D01*
X40493557Y-65610227D01*
X40516166Y-65604563D01*
X40539221Y-65601144D01*
X40562500Y-65600000D01*
X41137500Y-65600000D01*
X41160779Y-65601144D01*
X41160779Y-65601144D01*
G37*
D16*
X40850000Y-66075000D03*
D11*
G36*
X42910779Y-65601144D02*
G01*
X42933834Y-65604563D01*
X42956443Y-65610227D01*
X42978387Y-65618079D01*
X42999457Y-65628044D01*
X43019448Y-65640026D01*
X43038168Y-65653910D01*
X43055438Y-65669562D01*
X43071090Y-65686832D01*
X43084974Y-65705552D01*
X43096956Y-65725543D01*
X43106921Y-65746613D01*
X43114773Y-65768557D01*
X43120437Y-65791166D01*
X43123856Y-65814221D01*
X43125000Y-65837500D01*
X43125000Y-66312500D01*
X43123856Y-66335779D01*
X43120437Y-66358834D01*
X43114773Y-66381443D01*
X43106921Y-66403387D01*
X43096956Y-66424457D01*
X43084974Y-66444448D01*
X43071090Y-66463168D01*
X43055438Y-66480438D01*
X43038168Y-66496090D01*
X43019448Y-66509974D01*
X42999457Y-66521956D01*
X42978387Y-66531921D01*
X42956443Y-66539773D01*
X42933834Y-66545437D01*
X42910779Y-66548856D01*
X42887500Y-66550000D01*
X42312500Y-66550000D01*
X42289221Y-66548856D01*
X42266166Y-66545437D01*
X42243557Y-66539773D01*
X42221613Y-66531921D01*
X42200543Y-66521956D01*
X42180552Y-66509974D01*
X42161832Y-66496090D01*
X42144562Y-66480438D01*
X42128910Y-66463168D01*
X42115026Y-66444448D01*
X42103044Y-66424457D01*
X42093079Y-66403387D01*
X42085227Y-66381443D01*
X42079563Y-66358834D01*
X42076144Y-66335779D01*
X42075000Y-66312500D01*
X42075000Y-65837500D01*
X42076144Y-65814221D01*
X42079563Y-65791166D01*
X42085227Y-65768557D01*
X42093079Y-65746613D01*
X42103044Y-65725543D01*
X42115026Y-65705552D01*
X42128910Y-65686832D01*
X42144562Y-65669562D01*
X42161832Y-65653910D01*
X42180552Y-65640026D01*
X42200543Y-65628044D01*
X42221613Y-65618079D01*
X42243557Y-65610227D01*
X42266166Y-65604563D01*
X42289221Y-65601144D01*
X42312500Y-65600000D01*
X42887500Y-65600000D01*
X42910779Y-65601144D01*
X42910779Y-65601144D01*
G37*
D16*
X42600000Y-66075000D03*
D11*
G36*
X41485779Y-40101144D02*
G01*
X41508834Y-40104563D01*
X41531443Y-40110227D01*
X41553387Y-40118079D01*
X41574457Y-40128044D01*
X41594448Y-40140026D01*
X41613168Y-40153910D01*
X41630438Y-40169562D01*
X41646090Y-40186832D01*
X41659974Y-40205552D01*
X41671956Y-40225543D01*
X41681921Y-40246613D01*
X41689773Y-40268557D01*
X41695437Y-40291166D01*
X41698856Y-40314221D01*
X41700000Y-40337500D01*
X41700000Y-40912500D01*
X41698856Y-40935779D01*
X41695437Y-40958834D01*
X41689773Y-40981443D01*
X41681921Y-41003387D01*
X41671956Y-41024457D01*
X41659974Y-41044448D01*
X41646090Y-41063168D01*
X41630438Y-41080438D01*
X41613168Y-41096090D01*
X41594448Y-41109974D01*
X41574457Y-41121956D01*
X41553387Y-41131921D01*
X41531443Y-41139773D01*
X41508834Y-41145437D01*
X41485779Y-41148856D01*
X41462500Y-41150000D01*
X40987500Y-41150000D01*
X40964221Y-41148856D01*
X40941166Y-41145437D01*
X40918557Y-41139773D01*
X40896613Y-41131921D01*
X40875543Y-41121956D01*
X40855552Y-41109974D01*
X40836832Y-41096090D01*
X40819562Y-41080438D01*
X40803910Y-41063168D01*
X40790026Y-41044448D01*
X40778044Y-41024457D01*
X40768079Y-41003387D01*
X40760227Y-40981443D01*
X40754563Y-40958834D01*
X40751144Y-40935779D01*
X40750000Y-40912500D01*
X40750000Y-40337500D01*
X40751144Y-40314221D01*
X40754563Y-40291166D01*
X40760227Y-40268557D01*
X40768079Y-40246613D01*
X40778044Y-40225543D01*
X40790026Y-40205552D01*
X40803910Y-40186832D01*
X40819562Y-40169562D01*
X40836832Y-40153910D01*
X40855552Y-40140026D01*
X40875543Y-40128044D01*
X40896613Y-40118079D01*
X40918557Y-40110227D01*
X40941166Y-40104563D01*
X40964221Y-40101144D01*
X40987500Y-40100000D01*
X41462500Y-40100000D01*
X41485779Y-40101144D01*
X41485779Y-40101144D01*
G37*
D16*
X41225000Y-40625000D03*
D11*
G36*
X41485779Y-41851144D02*
G01*
X41508834Y-41854563D01*
X41531443Y-41860227D01*
X41553387Y-41868079D01*
X41574457Y-41878044D01*
X41594448Y-41890026D01*
X41613168Y-41903910D01*
X41630438Y-41919562D01*
X41646090Y-41936832D01*
X41659974Y-41955552D01*
X41671956Y-41975543D01*
X41681921Y-41996613D01*
X41689773Y-42018557D01*
X41695437Y-42041166D01*
X41698856Y-42064221D01*
X41700000Y-42087500D01*
X41700000Y-42662500D01*
X41698856Y-42685779D01*
X41695437Y-42708834D01*
X41689773Y-42731443D01*
X41681921Y-42753387D01*
X41671956Y-42774457D01*
X41659974Y-42794448D01*
X41646090Y-42813168D01*
X41630438Y-42830438D01*
X41613168Y-42846090D01*
X41594448Y-42859974D01*
X41574457Y-42871956D01*
X41553387Y-42881921D01*
X41531443Y-42889773D01*
X41508834Y-42895437D01*
X41485779Y-42898856D01*
X41462500Y-42900000D01*
X40987500Y-42900000D01*
X40964221Y-42898856D01*
X40941166Y-42895437D01*
X40918557Y-42889773D01*
X40896613Y-42881921D01*
X40875543Y-42871956D01*
X40855552Y-42859974D01*
X40836832Y-42846090D01*
X40819562Y-42830438D01*
X40803910Y-42813168D01*
X40790026Y-42794448D01*
X40778044Y-42774457D01*
X40768079Y-42753387D01*
X40760227Y-42731443D01*
X40754563Y-42708834D01*
X40751144Y-42685779D01*
X40750000Y-42662500D01*
X40750000Y-42087500D01*
X40751144Y-42064221D01*
X40754563Y-42041166D01*
X40760227Y-42018557D01*
X40768079Y-41996613D01*
X40778044Y-41975543D01*
X40790026Y-41955552D01*
X40803910Y-41936832D01*
X40819562Y-41919562D01*
X40836832Y-41903910D01*
X40855552Y-41890026D01*
X40875543Y-41878044D01*
X40896613Y-41868079D01*
X40918557Y-41860227D01*
X40941166Y-41854563D01*
X40964221Y-41851144D01*
X40987500Y-41850000D01*
X41462500Y-41850000D01*
X41485779Y-41851144D01*
X41485779Y-41851144D01*
G37*
D16*
X41225000Y-42375000D03*
D11*
G36*
X39008279Y-47256144D02*
G01*
X39031334Y-47259563D01*
X39053943Y-47265227D01*
X39075887Y-47273079D01*
X39096957Y-47283044D01*
X39116948Y-47295026D01*
X39135668Y-47308910D01*
X39152938Y-47324562D01*
X39168590Y-47341832D01*
X39182474Y-47360552D01*
X39194456Y-47380543D01*
X39204421Y-47401613D01*
X39212273Y-47423557D01*
X39217937Y-47446166D01*
X39221356Y-47469221D01*
X39222500Y-47492500D01*
X39222500Y-48067500D01*
X39221356Y-48090779D01*
X39217937Y-48113834D01*
X39212273Y-48136443D01*
X39204421Y-48158387D01*
X39194456Y-48179457D01*
X39182474Y-48199448D01*
X39168590Y-48218168D01*
X39152938Y-48235438D01*
X39135668Y-48251090D01*
X39116948Y-48264974D01*
X39096957Y-48276956D01*
X39075887Y-48286921D01*
X39053943Y-48294773D01*
X39031334Y-48300437D01*
X39008279Y-48303856D01*
X38985000Y-48305000D01*
X38510000Y-48305000D01*
X38486721Y-48303856D01*
X38463666Y-48300437D01*
X38441057Y-48294773D01*
X38419113Y-48286921D01*
X38398043Y-48276956D01*
X38378052Y-48264974D01*
X38359332Y-48251090D01*
X38342062Y-48235438D01*
X38326410Y-48218168D01*
X38312526Y-48199448D01*
X38300544Y-48179457D01*
X38290579Y-48158387D01*
X38282727Y-48136443D01*
X38277063Y-48113834D01*
X38273644Y-48090779D01*
X38272500Y-48067500D01*
X38272500Y-47492500D01*
X38273644Y-47469221D01*
X38277063Y-47446166D01*
X38282727Y-47423557D01*
X38290579Y-47401613D01*
X38300544Y-47380543D01*
X38312526Y-47360552D01*
X38326410Y-47341832D01*
X38342062Y-47324562D01*
X38359332Y-47308910D01*
X38378052Y-47295026D01*
X38398043Y-47283044D01*
X38419113Y-47273079D01*
X38441057Y-47265227D01*
X38463666Y-47259563D01*
X38486721Y-47256144D01*
X38510000Y-47255000D01*
X38985000Y-47255000D01*
X39008279Y-47256144D01*
X39008279Y-47256144D01*
G37*
D16*
X38747500Y-47780000D03*
D11*
G36*
X39008279Y-49006144D02*
G01*
X39031334Y-49009563D01*
X39053943Y-49015227D01*
X39075887Y-49023079D01*
X39096957Y-49033044D01*
X39116948Y-49045026D01*
X39135668Y-49058910D01*
X39152938Y-49074562D01*
X39168590Y-49091832D01*
X39182474Y-49110552D01*
X39194456Y-49130543D01*
X39204421Y-49151613D01*
X39212273Y-49173557D01*
X39217937Y-49196166D01*
X39221356Y-49219221D01*
X39222500Y-49242500D01*
X39222500Y-49817500D01*
X39221356Y-49840779D01*
X39217937Y-49863834D01*
X39212273Y-49886443D01*
X39204421Y-49908387D01*
X39194456Y-49929457D01*
X39182474Y-49949448D01*
X39168590Y-49968168D01*
X39152938Y-49985438D01*
X39135668Y-50001090D01*
X39116948Y-50014974D01*
X39096957Y-50026956D01*
X39075887Y-50036921D01*
X39053943Y-50044773D01*
X39031334Y-50050437D01*
X39008279Y-50053856D01*
X38985000Y-50055000D01*
X38510000Y-50055000D01*
X38486721Y-50053856D01*
X38463666Y-50050437D01*
X38441057Y-50044773D01*
X38419113Y-50036921D01*
X38398043Y-50026956D01*
X38378052Y-50014974D01*
X38359332Y-50001090D01*
X38342062Y-49985438D01*
X38326410Y-49968168D01*
X38312526Y-49949448D01*
X38300544Y-49929457D01*
X38290579Y-49908387D01*
X38282727Y-49886443D01*
X38277063Y-49863834D01*
X38273644Y-49840779D01*
X38272500Y-49817500D01*
X38272500Y-49242500D01*
X38273644Y-49219221D01*
X38277063Y-49196166D01*
X38282727Y-49173557D01*
X38290579Y-49151613D01*
X38300544Y-49130543D01*
X38312526Y-49110552D01*
X38326410Y-49091832D01*
X38342062Y-49074562D01*
X38359332Y-49058910D01*
X38378052Y-49045026D01*
X38398043Y-49033044D01*
X38419113Y-49023079D01*
X38441057Y-49015227D01*
X38463666Y-49009563D01*
X38486721Y-49006144D01*
X38510000Y-49005000D01*
X38985000Y-49005000D01*
X39008279Y-49006144D01*
X39008279Y-49006144D01*
G37*
D16*
X38747500Y-49530000D03*
D11*
G36*
X35008279Y-47256144D02*
G01*
X35031334Y-47259563D01*
X35053943Y-47265227D01*
X35075887Y-47273079D01*
X35096957Y-47283044D01*
X35116948Y-47295026D01*
X35135668Y-47308910D01*
X35152938Y-47324562D01*
X35168590Y-47341832D01*
X35182474Y-47360552D01*
X35194456Y-47380543D01*
X35204421Y-47401613D01*
X35212273Y-47423557D01*
X35217937Y-47446166D01*
X35221356Y-47469221D01*
X35222500Y-47492500D01*
X35222500Y-48067500D01*
X35221356Y-48090779D01*
X35217937Y-48113834D01*
X35212273Y-48136443D01*
X35204421Y-48158387D01*
X35194456Y-48179457D01*
X35182474Y-48199448D01*
X35168590Y-48218168D01*
X35152938Y-48235438D01*
X35135668Y-48251090D01*
X35116948Y-48264974D01*
X35096957Y-48276956D01*
X35075887Y-48286921D01*
X35053943Y-48294773D01*
X35031334Y-48300437D01*
X35008279Y-48303856D01*
X34985000Y-48305000D01*
X34510000Y-48305000D01*
X34486721Y-48303856D01*
X34463666Y-48300437D01*
X34441057Y-48294773D01*
X34419113Y-48286921D01*
X34398043Y-48276956D01*
X34378052Y-48264974D01*
X34359332Y-48251090D01*
X34342062Y-48235438D01*
X34326410Y-48218168D01*
X34312526Y-48199448D01*
X34300544Y-48179457D01*
X34290579Y-48158387D01*
X34282727Y-48136443D01*
X34277063Y-48113834D01*
X34273644Y-48090779D01*
X34272500Y-48067500D01*
X34272500Y-47492500D01*
X34273644Y-47469221D01*
X34277063Y-47446166D01*
X34282727Y-47423557D01*
X34290579Y-47401613D01*
X34300544Y-47380543D01*
X34312526Y-47360552D01*
X34326410Y-47341832D01*
X34342062Y-47324562D01*
X34359332Y-47308910D01*
X34378052Y-47295026D01*
X34398043Y-47283044D01*
X34419113Y-47273079D01*
X34441057Y-47265227D01*
X34463666Y-47259563D01*
X34486721Y-47256144D01*
X34510000Y-47255000D01*
X34985000Y-47255000D01*
X35008279Y-47256144D01*
X35008279Y-47256144D01*
G37*
D16*
X34747500Y-47780000D03*
D11*
G36*
X35008279Y-49006144D02*
G01*
X35031334Y-49009563D01*
X35053943Y-49015227D01*
X35075887Y-49023079D01*
X35096957Y-49033044D01*
X35116948Y-49045026D01*
X35135668Y-49058910D01*
X35152938Y-49074562D01*
X35168590Y-49091832D01*
X35182474Y-49110552D01*
X35194456Y-49130543D01*
X35204421Y-49151613D01*
X35212273Y-49173557D01*
X35217937Y-49196166D01*
X35221356Y-49219221D01*
X35222500Y-49242500D01*
X35222500Y-49817500D01*
X35221356Y-49840779D01*
X35217937Y-49863834D01*
X35212273Y-49886443D01*
X35204421Y-49908387D01*
X35194456Y-49929457D01*
X35182474Y-49949448D01*
X35168590Y-49968168D01*
X35152938Y-49985438D01*
X35135668Y-50001090D01*
X35116948Y-50014974D01*
X35096957Y-50026956D01*
X35075887Y-50036921D01*
X35053943Y-50044773D01*
X35031334Y-50050437D01*
X35008279Y-50053856D01*
X34985000Y-50055000D01*
X34510000Y-50055000D01*
X34486721Y-50053856D01*
X34463666Y-50050437D01*
X34441057Y-50044773D01*
X34419113Y-50036921D01*
X34398043Y-50026956D01*
X34378052Y-50014974D01*
X34359332Y-50001090D01*
X34342062Y-49985438D01*
X34326410Y-49968168D01*
X34312526Y-49949448D01*
X34300544Y-49929457D01*
X34290579Y-49908387D01*
X34282727Y-49886443D01*
X34277063Y-49863834D01*
X34273644Y-49840779D01*
X34272500Y-49817500D01*
X34272500Y-49242500D01*
X34273644Y-49219221D01*
X34277063Y-49196166D01*
X34282727Y-49173557D01*
X34290579Y-49151613D01*
X34300544Y-49130543D01*
X34312526Y-49110552D01*
X34326410Y-49091832D01*
X34342062Y-49074562D01*
X34359332Y-49058910D01*
X34378052Y-49045026D01*
X34398043Y-49033044D01*
X34419113Y-49023079D01*
X34441057Y-49015227D01*
X34463666Y-49009563D01*
X34486721Y-49006144D01*
X34510000Y-49005000D01*
X34985000Y-49005000D01*
X35008279Y-49006144D01*
X35008279Y-49006144D01*
G37*
D16*
X34747500Y-49530000D03*
D11*
G36*
X39922005Y-11536204D02*
G01*
X39946273Y-11539804D01*
X39970072Y-11545765D01*
X39993171Y-11554030D01*
X40015350Y-11564520D01*
X40036393Y-11577132D01*
X40056099Y-11591747D01*
X40074277Y-11608223D01*
X40090753Y-11626401D01*
X40105368Y-11646107D01*
X40117980Y-11667150D01*
X40128470Y-11689329D01*
X40136735Y-11712428D01*
X40142696Y-11736227D01*
X40146296Y-11760495D01*
X40147500Y-11784999D01*
X40147500Y-13085001D01*
X40146296Y-13109505D01*
X40142696Y-13133773D01*
X40136735Y-13157572D01*
X40128470Y-13180671D01*
X40117980Y-13202850D01*
X40105368Y-13223893D01*
X40090753Y-13243599D01*
X40074277Y-13261777D01*
X40056099Y-13278253D01*
X40036393Y-13292868D01*
X40015350Y-13305480D01*
X39993171Y-13315970D01*
X39970072Y-13324235D01*
X39946273Y-13330196D01*
X39922005Y-13333796D01*
X39897501Y-13335000D01*
X39197499Y-13335000D01*
X39172995Y-13333796D01*
X39148727Y-13330196D01*
X39124928Y-13324235D01*
X39101829Y-13315970D01*
X39079650Y-13305480D01*
X39058607Y-13292868D01*
X39038901Y-13278253D01*
X39020723Y-13261777D01*
X39004247Y-13243599D01*
X38989632Y-13223893D01*
X38977020Y-13202850D01*
X38966530Y-13180671D01*
X38958265Y-13157572D01*
X38952304Y-13133773D01*
X38948704Y-13109505D01*
X38947500Y-13085001D01*
X38947500Y-11784999D01*
X38948704Y-11760495D01*
X38952304Y-11736227D01*
X38958265Y-11712428D01*
X38966530Y-11689329D01*
X38977020Y-11667150D01*
X38989632Y-11646107D01*
X39004247Y-11626401D01*
X39020723Y-11608223D01*
X39038901Y-11591747D01*
X39058607Y-11577132D01*
X39079650Y-11564520D01*
X39101829Y-11554030D01*
X39124928Y-11545765D01*
X39148727Y-11539804D01*
X39172995Y-11536204D01*
X39197499Y-11535000D01*
X39897501Y-11535000D01*
X39922005Y-11536204D01*
X39922005Y-11536204D01*
G37*
D17*
X39547500Y-12435000D03*
D11*
G36*
X34322005Y-11536204D02*
G01*
X34346273Y-11539804D01*
X34370072Y-11545765D01*
X34393171Y-11554030D01*
X34415350Y-11564520D01*
X34436393Y-11577132D01*
X34456099Y-11591747D01*
X34474277Y-11608223D01*
X34490753Y-11626401D01*
X34505368Y-11646107D01*
X34517980Y-11667150D01*
X34528470Y-11689329D01*
X34536735Y-11712428D01*
X34542696Y-11736227D01*
X34546296Y-11760495D01*
X34547500Y-11784999D01*
X34547500Y-13085001D01*
X34546296Y-13109505D01*
X34542696Y-13133773D01*
X34536735Y-13157572D01*
X34528470Y-13180671D01*
X34517980Y-13202850D01*
X34505368Y-13223893D01*
X34490753Y-13243599D01*
X34474277Y-13261777D01*
X34456099Y-13278253D01*
X34436393Y-13292868D01*
X34415350Y-13305480D01*
X34393171Y-13315970D01*
X34370072Y-13324235D01*
X34346273Y-13330196D01*
X34322005Y-13333796D01*
X34297501Y-13335000D01*
X33597499Y-13335000D01*
X33572995Y-13333796D01*
X33548727Y-13330196D01*
X33524928Y-13324235D01*
X33501829Y-13315970D01*
X33479650Y-13305480D01*
X33458607Y-13292868D01*
X33438901Y-13278253D01*
X33420723Y-13261777D01*
X33404247Y-13243599D01*
X33389632Y-13223893D01*
X33377020Y-13202850D01*
X33366530Y-13180671D01*
X33358265Y-13157572D01*
X33352304Y-13133773D01*
X33348704Y-13109505D01*
X33347500Y-13085001D01*
X33347500Y-11784999D01*
X33348704Y-11760495D01*
X33352304Y-11736227D01*
X33358265Y-11712428D01*
X33366530Y-11689329D01*
X33377020Y-11667150D01*
X33389632Y-11646107D01*
X33404247Y-11626401D01*
X33420723Y-11608223D01*
X33438901Y-11591747D01*
X33458607Y-11577132D01*
X33479650Y-11564520D01*
X33501829Y-11554030D01*
X33524928Y-11545765D01*
X33548727Y-11539804D01*
X33572995Y-11536204D01*
X33597499Y-11535000D01*
X34297501Y-11535000D01*
X34322005Y-11536204D01*
X34322005Y-11536204D01*
G37*
D17*
X33947500Y-12435000D03*
D11*
G36*
X38412203Y-15535722D02*
G01*
X38426764Y-15537882D01*
X38441043Y-15541459D01*
X38454903Y-15546418D01*
X38468210Y-15552712D01*
X38480836Y-15560280D01*
X38492659Y-15569048D01*
X38503566Y-15578934D01*
X38513452Y-15589841D01*
X38522220Y-15601664D01*
X38529788Y-15614290D01*
X38536082Y-15627597D01*
X38541041Y-15641457D01*
X38544618Y-15655736D01*
X38546778Y-15670297D01*
X38547500Y-15685000D01*
X38547500Y-16935000D01*
X38546778Y-16949703D01*
X38544618Y-16964264D01*
X38541041Y-16978543D01*
X38536082Y-16992403D01*
X38529788Y-17005710D01*
X38522220Y-17018336D01*
X38513452Y-17030159D01*
X38503566Y-17041066D01*
X38492659Y-17050952D01*
X38480836Y-17059720D01*
X38468210Y-17067288D01*
X38454903Y-17073582D01*
X38441043Y-17078541D01*
X38426764Y-17082118D01*
X38412203Y-17084278D01*
X38397500Y-17085000D01*
X38097500Y-17085000D01*
X38082797Y-17084278D01*
X38068236Y-17082118D01*
X38053957Y-17078541D01*
X38040097Y-17073582D01*
X38026790Y-17067288D01*
X38014164Y-17059720D01*
X38002341Y-17050952D01*
X37991434Y-17041066D01*
X37981548Y-17030159D01*
X37972780Y-17018336D01*
X37965212Y-17005710D01*
X37958918Y-16992403D01*
X37953959Y-16978543D01*
X37950382Y-16964264D01*
X37948222Y-16949703D01*
X37947500Y-16935000D01*
X37947500Y-15685000D01*
X37948222Y-15670297D01*
X37950382Y-15655736D01*
X37953959Y-15641457D01*
X37958918Y-15627597D01*
X37965212Y-15614290D01*
X37972780Y-15601664D01*
X37981548Y-15589841D01*
X37991434Y-15578934D01*
X38002341Y-15569048D01*
X38014164Y-15560280D01*
X38026790Y-15552712D01*
X38040097Y-15546418D01*
X38053957Y-15541459D01*
X38068236Y-15537882D01*
X38082797Y-15535722D01*
X38097500Y-15535000D01*
X38397500Y-15535000D01*
X38412203Y-15535722D01*
X38412203Y-15535722D01*
G37*
D18*
X38247500Y-16310000D03*
D11*
G36*
X37412203Y-15535722D02*
G01*
X37426764Y-15537882D01*
X37441043Y-15541459D01*
X37454903Y-15546418D01*
X37468210Y-15552712D01*
X37480836Y-15560280D01*
X37492659Y-15569048D01*
X37503566Y-15578934D01*
X37513452Y-15589841D01*
X37522220Y-15601664D01*
X37529788Y-15614290D01*
X37536082Y-15627597D01*
X37541041Y-15641457D01*
X37544618Y-15655736D01*
X37546778Y-15670297D01*
X37547500Y-15685000D01*
X37547500Y-16935000D01*
X37546778Y-16949703D01*
X37544618Y-16964264D01*
X37541041Y-16978543D01*
X37536082Y-16992403D01*
X37529788Y-17005710D01*
X37522220Y-17018336D01*
X37513452Y-17030159D01*
X37503566Y-17041066D01*
X37492659Y-17050952D01*
X37480836Y-17059720D01*
X37468210Y-17067288D01*
X37454903Y-17073582D01*
X37441043Y-17078541D01*
X37426764Y-17082118D01*
X37412203Y-17084278D01*
X37397500Y-17085000D01*
X37097500Y-17085000D01*
X37082797Y-17084278D01*
X37068236Y-17082118D01*
X37053957Y-17078541D01*
X37040097Y-17073582D01*
X37026790Y-17067288D01*
X37014164Y-17059720D01*
X37002341Y-17050952D01*
X36991434Y-17041066D01*
X36981548Y-17030159D01*
X36972780Y-17018336D01*
X36965212Y-17005710D01*
X36958918Y-16992403D01*
X36953959Y-16978543D01*
X36950382Y-16964264D01*
X36948222Y-16949703D01*
X36947500Y-16935000D01*
X36947500Y-15685000D01*
X36948222Y-15670297D01*
X36950382Y-15655736D01*
X36953959Y-15641457D01*
X36958918Y-15627597D01*
X36965212Y-15614290D01*
X36972780Y-15601664D01*
X36981548Y-15589841D01*
X36991434Y-15578934D01*
X37002341Y-15569048D01*
X37014164Y-15560280D01*
X37026790Y-15552712D01*
X37040097Y-15546418D01*
X37053957Y-15541459D01*
X37068236Y-15537882D01*
X37082797Y-15535722D01*
X37097500Y-15535000D01*
X37397500Y-15535000D01*
X37412203Y-15535722D01*
X37412203Y-15535722D01*
G37*
D18*
X37247500Y-16310000D03*
D11*
G36*
X36412203Y-15535722D02*
G01*
X36426764Y-15537882D01*
X36441043Y-15541459D01*
X36454903Y-15546418D01*
X36468210Y-15552712D01*
X36480836Y-15560280D01*
X36492659Y-15569048D01*
X36503566Y-15578934D01*
X36513452Y-15589841D01*
X36522220Y-15601664D01*
X36529788Y-15614290D01*
X36536082Y-15627597D01*
X36541041Y-15641457D01*
X36544618Y-15655736D01*
X36546778Y-15670297D01*
X36547500Y-15685000D01*
X36547500Y-16935000D01*
X36546778Y-16949703D01*
X36544618Y-16964264D01*
X36541041Y-16978543D01*
X36536082Y-16992403D01*
X36529788Y-17005710D01*
X36522220Y-17018336D01*
X36513452Y-17030159D01*
X36503566Y-17041066D01*
X36492659Y-17050952D01*
X36480836Y-17059720D01*
X36468210Y-17067288D01*
X36454903Y-17073582D01*
X36441043Y-17078541D01*
X36426764Y-17082118D01*
X36412203Y-17084278D01*
X36397500Y-17085000D01*
X36097500Y-17085000D01*
X36082797Y-17084278D01*
X36068236Y-17082118D01*
X36053957Y-17078541D01*
X36040097Y-17073582D01*
X36026790Y-17067288D01*
X36014164Y-17059720D01*
X36002341Y-17050952D01*
X35991434Y-17041066D01*
X35981548Y-17030159D01*
X35972780Y-17018336D01*
X35965212Y-17005710D01*
X35958918Y-16992403D01*
X35953959Y-16978543D01*
X35950382Y-16964264D01*
X35948222Y-16949703D01*
X35947500Y-16935000D01*
X35947500Y-15685000D01*
X35948222Y-15670297D01*
X35950382Y-15655736D01*
X35953959Y-15641457D01*
X35958918Y-15627597D01*
X35965212Y-15614290D01*
X35972780Y-15601664D01*
X35981548Y-15589841D01*
X35991434Y-15578934D01*
X36002341Y-15569048D01*
X36014164Y-15560280D01*
X36026790Y-15552712D01*
X36040097Y-15546418D01*
X36053957Y-15541459D01*
X36068236Y-15537882D01*
X36082797Y-15535722D01*
X36097500Y-15535000D01*
X36397500Y-15535000D01*
X36412203Y-15535722D01*
X36412203Y-15535722D01*
G37*
D18*
X36247500Y-16310000D03*
D11*
G36*
X35412203Y-15535722D02*
G01*
X35426764Y-15537882D01*
X35441043Y-15541459D01*
X35454903Y-15546418D01*
X35468210Y-15552712D01*
X35480836Y-15560280D01*
X35492659Y-15569048D01*
X35503566Y-15578934D01*
X35513452Y-15589841D01*
X35522220Y-15601664D01*
X35529788Y-15614290D01*
X35536082Y-15627597D01*
X35541041Y-15641457D01*
X35544618Y-15655736D01*
X35546778Y-15670297D01*
X35547500Y-15685000D01*
X35547500Y-16935000D01*
X35546778Y-16949703D01*
X35544618Y-16964264D01*
X35541041Y-16978543D01*
X35536082Y-16992403D01*
X35529788Y-17005710D01*
X35522220Y-17018336D01*
X35513452Y-17030159D01*
X35503566Y-17041066D01*
X35492659Y-17050952D01*
X35480836Y-17059720D01*
X35468210Y-17067288D01*
X35454903Y-17073582D01*
X35441043Y-17078541D01*
X35426764Y-17082118D01*
X35412203Y-17084278D01*
X35397500Y-17085000D01*
X35097500Y-17085000D01*
X35082797Y-17084278D01*
X35068236Y-17082118D01*
X35053957Y-17078541D01*
X35040097Y-17073582D01*
X35026790Y-17067288D01*
X35014164Y-17059720D01*
X35002341Y-17050952D01*
X34991434Y-17041066D01*
X34981548Y-17030159D01*
X34972780Y-17018336D01*
X34965212Y-17005710D01*
X34958918Y-16992403D01*
X34953959Y-16978543D01*
X34950382Y-16964264D01*
X34948222Y-16949703D01*
X34947500Y-16935000D01*
X34947500Y-15685000D01*
X34948222Y-15670297D01*
X34950382Y-15655736D01*
X34953959Y-15641457D01*
X34958918Y-15627597D01*
X34965212Y-15614290D01*
X34972780Y-15601664D01*
X34981548Y-15589841D01*
X34991434Y-15578934D01*
X35002341Y-15569048D01*
X35014164Y-15560280D01*
X35026790Y-15552712D01*
X35040097Y-15546418D01*
X35053957Y-15541459D01*
X35068236Y-15537882D01*
X35082797Y-15535722D01*
X35097500Y-15535000D01*
X35397500Y-15535000D01*
X35412203Y-15535722D01*
X35412203Y-15535722D01*
G37*
D18*
X35247500Y-16310000D03*
D19*
X258885000Y-92310000D03*
X262285000Y-92310000D03*
X239835000Y-92310000D03*
X243235000Y-92310000D03*
X220785000Y-92310000D03*
X224185000Y-92310000D03*
X201735000Y-92310000D03*
X205135000Y-92310000D03*
X177303750Y-92310000D03*
X180703750Y-92310000D03*
X154110000Y-92310000D03*
X157510000Y-92310000D03*
X135678750Y-92310000D03*
X139078750Y-92310000D03*
X128678750Y-92310000D03*
X132078750Y-92310000D03*
X104103750Y-92310000D03*
X107503750Y-92310000D03*
X85053750Y-92310000D03*
X88453750Y-92310000D03*
X71956875Y-92310000D03*
X75356875Y-92310000D03*
X49335000Y-92310000D03*
X52735000Y-92310000D03*
X20760000Y-92310000D03*
X24160000Y-92310000D03*
X256503750Y-73260000D03*
X259903750Y-73260000D03*
X237453750Y-73260000D03*
X240853750Y-73260000D03*
X218403750Y-73260000D03*
X221803750Y-73260000D03*
X199353750Y-73260000D03*
X202753750Y-73260000D03*
X180303750Y-73260000D03*
X183703750Y-73260000D03*
X161253750Y-73260000D03*
X164653750Y-73260000D03*
X142203750Y-73260000D03*
X145603750Y-73260000D03*
X123153750Y-73260000D03*
X126553750Y-73260000D03*
X104103750Y-73260000D03*
X107503750Y-73260000D03*
X85053750Y-73260000D03*
X88453750Y-73260000D03*
X68385000Y-73260000D03*
X71785000Y-73260000D03*
X52906875Y-73260000D03*
X56306875Y-73260000D03*
X20760000Y-73260000D03*
X24160000Y-73260000D03*
X258885000Y-54210000D03*
X262285000Y-54210000D03*
X243406875Y-54210000D03*
X246806875Y-54210000D03*
X224356875Y-54210000D03*
X227756875Y-54210000D03*
X205306875Y-54210000D03*
X208706875Y-54210000D03*
X186256875Y-54210000D03*
X189656875Y-54210000D03*
X167206875Y-54210000D03*
X170606875Y-54210000D03*
X148156875Y-54210000D03*
X151556875Y-54210000D03*
X129106875Y-54210000D03*
X132506875Y-54210000D03*
X110056875Y-54210000D03*
X113456875Y-54210000D03*
X91006875Y-54210000D03*
X94406875Y-54210000D03*
X71956875Y-54210000D03*
X75356875Y-54210000D03*
X50525625Y-54210000D03*
X53925625Y-54210000D03*
X20760000Y-54210000D03*
X24160000Y-54210000D03*
X258885000Y-35160000D03*
X262285000Y-35160000D03*
X239835000Y-35160000D03*
X243235000Y-35160000D03*
X220785000Y-35160000D03*
X224185000Y-35160000D03*
X201735000Y-35160000D03*
X205135000Y-35160000D03*
X182685000Y-35160000D03*
X186085000Y-35160000D03*
X163635000Y-35160000D03*
X167035000Y-35160000D03*
X144585000Y-35160000D03*
X147985000Y-35160000D03*
X125535000Y-35160000D03*
X128935000Y-35160000D03*
X106485000Y-35160000D03*
X109885000Y-35160000D03*
X87435000Y-35160000D03*
X90835000Y-35160000D03*
X68385000Y-35160000D03*
X71785000Y-35160000D03*
X49335000Y-35160000D03*
X52735000Y-35160000D03*
X20760000Y-35160000D03*
X24160000Y-35160000D03*
D11*
G36*
X24635779Y-58076144D02*
G01*
X24658834Y-58079563D01*
X24681443Y-58085227D01*
X24703387Y-58093079D01*
X24724457Y-58103044D01*
X24744448Y-58115026D01*
X24763168Y-58128910D01*
X24780438Y-58144562D01*
X24796090Y-58161832D01*
X24809974Y-58180552D01*
X24821956Y-58200543D01*
X24831921Y-58221613D01*
X24839773Y-58243557D01*
X24845437Y-58266166D01*
X24848856Y-58289221D01*
X24850000Y-58312500D01*
X24850000Y-58787500D01*
X24848856Y-58810779D01*
X24845437Y-58833834D01*
X24839773Y-58856443D01*
X24831921Y-58878387D01*
X24821956Y-58899457D01*
X24809974Y-58919448D01*
X24796090Y-58938168D01*
X24780438Y-58955438D01*
X24763168Y-58971090D01*
X24744448Y-58984974D01*
X24724457Y-58996956D01*
X24703387Y-59006921D01*
X24681443Y-59014773D01*
X24658834Y-59020437D01*
X24635779Y-59023856D01*
X24612500Y-59025000D01*
X24037500Y-59025000D01*
X24014221Y-59023856D01*
X23991166Y-59020437D01*
X23968557Y-59014773D01*
X23946613Y-59006921D01*
X23925543Y-58996956D01*
X23905552Y-58984974D01*
X23886832Y-58971090D01*
X23869562Y-58955438D01*
X23853910Y-58938168D01*
X23840026Y-58919448D01*
X23828044Y-58899457D01*
X23818079Y-58878387D01*
X23810227Y-58856443D01*
X23804563Y-58833834D01*
X23801144Y-58810779D01*
X23800000Y-58787500D01*
X23800000Y-58312500D01*
X23801144Y-58289221D01*
X23804563Y-58266166D01*
X23810227Y-58243557D01*
X23818079Y-58221613D01*
X23828044Y-58200543D01*
X23840026Y-58180552D01*
X23853910Y-58161832D01*
X23869562Y-58144562D01*
X23886832Y-58128910D01*
X23905552Y-58115026D01*
X23925543Y-58103044D01*
X23946613Y-58093079D01*
X23968557Y-58085227D01*
X23991166Y-58079563D01*
X24014221Y-58076144D01*
X24037500Y-58075000D01*
X24612500Y-58075000D01*
X24635779Y-58076144D01*
X24635779Y-58076144D01*
G37*
D16*
X24325000Y-58550000D03*
D11*
G36*
X26385779Y-58076144D02*
G01*
X26408834Y-58079563D01*
X26431443Y-58085227D01*
X26453387Y-58093079D01*
X26474457Y-58103044D01*
X26494448Y-58115026D01*
X26513168Y-58128910D01*
X26530438Y-58144562D01*
X26546090Y-58161832D01*
X26559974Y-58180552D01*
X26571956Y-58200543D01*
X26581921Y-58221613D01*
X26589773Y-58243557D01*
X26595437Y-58266166D01*
X26598856Y-58289221D01*
X26600000Y-58312500D01*
X26600000Y-58787500D01*
X26598856Y-58810779D01*
X26595437Y-58833834D01*
X26589773Y-58856443D01*
X26581921Y-58878387D01*
X26571956Y-58899457D01*
X26559974Y-58919448D01*
X26546090Y-58938168D01*
X26530438Y-58955438D01*
X26513168Y-58971090D01*
X26494448Y-58984974D01*
X26474457Y-58996956D01*
X26453387Y-59006921D01*
X26431443Y-59014773D01*
X26408834Y-59020437D01*
X26385779Y-59023856D01*
X26362500Y-59025000D01*
X25787500Y-59025000D01*
X25764221Y-59023856D01*
X25741166Y-59020437D01*
X25718557Y-59014773D01*
X25696613Y-59006921D01*
X25675543Y-58996956D01*
X25655552Y-58984974D01*
X25636832Y-58971090D01*
X25619562Y-58955438D01*
X25603910Y-58938168D01*
X25590026Y-58919448D01*
X25578044Y-58899457D01*
X25568079Y-58878387D01*
X25560227Y-58856443D01*
X25554563Y-58833834D01*
X25551144Y-58810779D01*
X25550000Y-58787500D01*
X25550000Y-58312500D01*
X25551144Y-58289221D01*
X25554563Y-58266166D01*
X25560227Y-58243557D01*
X25568079Y-58221613D01*
X25578044Y-58200543D01*
X25590026Y-58180552D01*
X25603910Y-58161832D01*
X25619562Y-58144562D01*
X25636832Y-58128910D01*
X25655552Y-58115026D01*
X25675543Y-58103044D01*
X25696613Y-58093079D01*
X25718557Y-58085227D01*
X25741166Y-58079563D01*
X25764221Y-58076144D01*
X25787500Y-58075000D01*
X26362500Y-58075000D01*
X26385779Y-58076144D01*
X26385779Y-58076144D01*
G37*
D16*
X26075000Y-58550000D03*
D11*
G36*
X40435779Y-24276144D02*
G01*
X40458834Y-24279563D01*
X40481443Y-24285227D01*
X40503387Y-24293079D01*
X40524457Y-24303044D01*
X40544448Y-24315026D01*
X40563168Y-24328910D01*
X40580438Y-24344562D01*
X40596090Y-24361832D01*
X40609974Y-24380552D01*
X40621956Y-24400543D01*
X40631921Y-24421613D01*
X40639773Y-24443557D01*
X40645437Y-24466166D01*
X40648856Y-24489221D01*
X40650000Y-24512500D01*
X40650000Y-24987500D01*
X40648856Y-25010779D01*
X40645437Y-25033834D01*
X40639773Y-25056443D01*
X40631921Y-25078387D01*
X40621956Y-25099457D01*
X40609974Y-25119448D01*
X40596090Y-25138168D01*
X40580438Y-25155438D01*
X40563168Y-25171090D01*
X40544448Y-25184974D01*
X40524457Y-25196956D01*
X40503387Y-25206921D01*
X40481443Y-25214773D01*
X40458834Y-25220437D01*
X40435779Y-25223856D01*
X40412500Y-25225000D01*
X39837500Y-25225000D01*
X39814221Y-25223856D01*
X39791166Y-25220437D01*
X39768557Y-25214773D01*
X39746613Y-25206921D01*
X39725543Y-25196956D01*
X39705552Y-25184974D01*
X39686832Y-25171090D01*
X39669562Y-25155438D01*
X39653910Y-25138168D01*
X39640026Y-25119448D01*
X39628044Y-25099457D01*
X39618079Y-25078387D01*
X39610227Y-25056443D01*
X39604563Y-25033834D01*
X39601144Y-25010779D01*
X39600000Y-24987500D01*
X39600000Y-24512500D01*
X39601144Y-24489221D01*
X39604563Y-24466166D01*
X39610227Y-24443557D01*
X39618079Y-24421613D01*
X39628044Y-24400543D01*
X39640026Y-24380552D01*
X39653910Y-24361832D01*
X39669562Y-24344562D01*
X39686832Y-24328910D01*
X39705552Y-24315026D01*
X39725543Y-24303044D01*
X39746613Y-24293079D01*
X39768557Y-24285227D01*
X39791166Y-24279563D01*
X39814221Y-24276144D01*
X39837500Y-24275000D01*
X40412500Y-24275000D01*
X40435779Y-24276144D01*
X40435779Y-24276144D01*
G37*
D16*
X40125000Y-24750000D03*
D11*
G36*
X38685779Y-24276144D02*
G01*
X38708834Y-24279563D01*
X38731443Y-24285227D01*
X38753387Y-24293079D01*
X38774457Y-24303044D01*
X38794448Y-24315026D01*
X38813168Y-24328910D01*
X38830438Y-24344562D01*
X38846090Y-24361832D01*
X38859974Y-24380552D01*
X38871956Y-24400543D01*
X38881921Y-24421613D01*
X38889773Y-24443557D01*
X38895437Y-24466166D01*
X38898856Y-24489221D01*
X38900000Y-24512500D01*
X38900000Y-24987500D01*
X38898856Y-25010779D01*
X38895437Y-25033834D01*
X38889773Y-25056443D01*
X38881921Y-25078387D01*
X38871956Y-25099457D01*
X38859974Y-25119448D01*
X38846090Y-25138168D01*
X38830438Y-25155438D01*
X38813168Y-25171090D01*
X38794448Y-25184974D01*
X38774457Y-25196956D01*
X38753387Y-25206921D01*
X38731443Y-25214773D01*
X38708834Y-25220437D01*
X38685779Y-25223856D01*
X38662500Y-25225000D01*
X38087500Y-25225000D01*
X38064221Y-25223856D01*
X38041166Y-25220437D01*
X38018557Y-25214773D01*
X37996613Y-25206921D01*
X37975543Y-25196956D01*
X37955552Y-25184974D01*
X37936832Y-25171090D01*
X37919562Y-25155438D01*
X37903910Y-25138168D01*
X37890026Y-25119448D01*
X37878044Y-25099457D01*
X37868079Y-25078387D01*
X37860227Y-25056443D01*
X37854563Y-25033834D01*
X37851144Y-25010779D01*
X37850000Y-24987500D01*
X37850000Y-24512500D01*
X37851144Y-24489221D01*
X37854563Y-24466166D01*
X37860227Y-24443557D01*
X37868079Y-24421613D01*
X37878044Y-24400543D01*
X37890026Y-24380552D01*
X37903910Y-24361832D01*
X37919562Y-24344562D01*
X37936832Y-24328910D01*
X37955552Y-24315026D01*
X37975543Y-24303044D01*
X37996613Y-24293079D01*
X38018557Y-24285227D01*
X38041166Y-24279563D01*
X38064221Y-24276144D01*
X38087500Y-24275000D01*
X38662500Y-24275000D01*
X38685779Y-24276144D01*
X38685779Y-24276144D01*
G37*
D16*
X38375000Y-24750000D03*
D11*
G36*
X46585779Y-59551144D02*
G01*
X46608834Y-59554563D01*
X46631443Y-59560227D01*
X46653387Y-59568079D01*
X46674457Y-59578044D01*
X46694448Y-59590026D01*
X46713168Y-59603910D01*
X46730438Y-59619562D01*
X46746090Y-59636832D01*
X46759974Y-59655552D01*
X46771956Y-59675543D01*
X46781921Y-59696613D01*
X46789773Y-59718557D01*
X46795437Y-59741166D01*
X46798856Y-59764221D01*
X46800000Y-59787500D01*
X46800000Y-60262500D01*
X46798856Y-60285779D01*
X46795437Y-60308834D01*
X46789773Y-60331443D01*
X46781921Y-60353387D01*
X46771956Y-60374457D01*
X46759974Y-60394448D01*
X46746090Y-60413168D01*
X46730438Y-60430438D01*
X46713168Y-60446090D01*
X46694448Y-60459974D01*
X46674457Y-60471956D01*
X46653387Y-60481921D01*
X46631443Y-60489773D01*
X46608834Y-60495437D01*
X46585779Y-60498856D01*
X46562500Y-60500000D01*
X45987500Y-60500000D01*
X45964221Y-60498856D01*
X45941166Y-60495437D01*
X45918557Y-60489773D01*
X45896613Y-60481921D01*
X45875543Y-60471956D01*
X45855552Y-60459974D01*
X45836832Y-60446090D01*
X45819562Y-60430438D01*
X45803910Y-60413168D01*
X45790026Y-60394448D01*
X45778044Y-60374457D01*
X45768079Y-60353387D01*
X45760227Y-60331443D01*
X45754563Y-60308834D01*
X45751144Y-60285779D01*
X45750000Y-60262500D01*
X45750000Y-59787500D01*
X45751144Y-59764221D01*
X45754563Y-59741166D01*
X45760227Y-59718557D01*
X45768079Y-59696613D01*
X45778044Y-59675543D01*
X45790026Y-59655552D01*
X45803910Y-59636832D01*
X45819562Y-59619562D01*
X45836832Y-59603910D01*
X45855552Y-59590026D01*
X45875543Y-59578044D01*
X45896613Y-59568079D01*
X45918557Y-59560227D01*
X45941166Y-59554563D01*
X45964221Y-59551144D01*
X45987500Y-59550000D01*
X46562500Y-59550000D01*
X46585779Y-59551144D01*
X46585779Y-59551144D01*
G37*
D16*
X46275000Y-60025000D03*
D11*
G36*
X44835779Y-59551144D02*
G01*
X44858834Y-59554563D01*
X44881443Y-59560227D01*
X44903387Y-59568079D01*
X44924457Y-59578044D01*
X44944448Y-59590026D01*
X44963168Y-59603910D01*
X44980438Y-59619562D01*
X44996090Y-59636832D01*
X45009974Y-59655552D01*
X45021956Y-59675543D01*
X45031921Y-59696613D01*
X45039773Y-59718557D01*
X45045437Y-59741166D01*
X45048856Y-59764221D01*
X45050000Y-59787500D01*
X45050000Y-60262500D01*
X45048856Y-60285779D01*
X45045437Y-60308834D01*
X45039773Y-60331443D01*
X45031921Y-60353387D01*
X45021956Y-60374457D01*
X45009974Y-60394448D01*
X44996090Y-60413168D01*
X44980438Y-60430438D01*
X44963168Y-60446090D01*
X44944448Y-60459974D01*
X44924457Y-60471956D01*
X44903387Y-60481921D01*
X44881443Y-60489773D01*
X44858834Y-60495437D01*
X44835779Y-60498856D01*
X44812500Y-60500000D01*
X44237500Y-60500000D01*
X44214221Y-60498856D01*
X44191166Y-60495437D01*
X44168557Y-60489773D01*
X44146613Y-60481921D01*
X44125543Y-60471956D01*
X44105552Y-60459974D01*
X44086832Y-60446090D01*
X44069562Y-60430438D01*
X44053910Y-60413168D01*
X44040026Y-60394448D01*
X44028044Y-60374457D01*
X44018079Y-60353387D01*
X44010227Y-60331443D01*
X44004563Y-60308834D01*
X44001144Y-60285779D01*
X44000000Y-60262500D01*
X44000000Y-59787500D01*
X44001144Y-59764221D01*
X44004563Y-59741166D01*
X44010227Y-59718557D01*
X44018079Y-59696613D01*
X44028044Y-59675543D01*
X44040026Y-59655552D01*
X44053910Y-59636832D01*
X44069562Y-59619562D01*
X44086832Y-59603910D01*
X44105552Y-59590026D01*
X44125543Y-59578044D01*
X44146613Y-59568079D01*
X44168557Y-59560227D01*
X44191166Y-59554563D01*
X44214221Y-59551144D01*
X44237500Y-59550000D01*
X44812500Y-59550000D01*
X44835779Y-59551144D01*
X44835779Y-59551144D01*
G37*
D16*
X44525000Y-60025000D03*
D11*
G36*
X28694206Y-54748695D02*
G01*
X28717261Y-54752114D01*
X28739870Y-54757778D01*
X28761814Y-54765630D01*
X28782884Y-54775595D01*
X28802875Y-54787577D01*
X28821595Y-54801461D01*
X28838865Y-54817113D01*
X29245451Y-55223699D01*
X29261103Y-55240969D01*
X29274987Y-55259689D01*
X29286969Y-55279680D01*
X29296934Y-55300750D01*
X29304786Y-55322694D01*
X29310450Y-55345303D01*
X29313869Y-55368358D01*
X29315013Y-55391637D01*
X29313869Y-55414916D01*
X29310450Y-55437971D01*
X29304786Y-55460580D01*
X29296934Y-55482524D01*
X29286969Y-55503594D01*
X29274987Y-55523585D01*
X29261103Y-55542305D01*
X29245451Y-55559575D01*
X28909575Y-55895451D01*
X28892305Y-55911103D01*
X28873585Y-55924987D01*
X28853594Y-55936969D01*
X28832524Y-55946934D01*
X28810580Y-55954786D01*
X28787971Y-55960450D01*
X28764916Y-55963869D01*
X28741637Y-55965013D01*
X28718358Y-55963869D01*
X28695303Y-55960450D01*
X28672694Y-55954786D01*
X28650750Y-55946934D01*
X28629680Y-55936969D01*
X28609689Y-55924987D01*
X28590969Y-55911103D01*
X28573699Y-55895451D01*
X28167113Y-55488865D01*
X28151461Y-55471595D01*
X28137577Y-55452875D01*
X28125595Y-55432884D01*
X28115630Y-55411814D01*
X28107778Y-55389870D01*
X28102114Y-55367261D01*
X28098695Y-55344206D01*
X28097551Y-55320927D01*
X28098695Y-55297648D01*
X28102114Y-55274593D01*
X28107778Y-55251984D01*
X28115630Y-55230040D01*
X28125595Y-55208970D01*
X28137577Y-55188979D01*
X28151461Y-55170259D01*
X28167113Y-55152989D01*
X28502989Y-54817113D01*
X28520259Y-54801461D01*
X28538979Y-54787577D01*
X28558970Y-54775595D01*
X28580040Y-54765630D01*
X28601984Y-54757778D01*
X28624593Y-54752114D01*
X28647648Y-54748695D01*
X28670927Y-54747551D01*
X28694206Y-54748695D01*
X28694206Y-54748695D01*
G37*
D16*
X28706282Y-55356282D03*
D11*
G36*
X29931642Y-55986131D02*
G01*
X29954697Y-55989550D01*
X29977306Y-55995214D01*
X29999250Y-56003066D01*
X30020320Y-56013031D01*
X30040311Y-56025013D01*
X30059031Y-56038897D01*
X30076301Y-56054549D01*
X30482887Y-56461135D01*
X30498539Y-56478405D01*
X30512423Y-56497125D01*
X30524405Y-56517116D01*
X30534370Y-56538186D01*
X30542222Y-56560130D01*
X30547886Y-56582739D01*
X30551305Y-56605794D01*
X30552449Y-56629073D01*
X30551305Y-56652352D01*
X30547886Y-56675407D01*
X30542222Y-56698016D01*
X30534370Y-56719960D01*
X30524405Y-56741030D01*
X30512423Y-56761021D01*
X30498539Y-56779741D01*
X30482887Y-56797011D01*
X30147011Y-57132887D01*
X30129741Y-57148539D01*
X30111021Y-57162423D01*
X30091030Y-57174405D01*
X30069960Y-57184370D01*
X30048016Y-57192222D01*
X30025407Y-57197886D01*
X30002352Y-57201305D01*
X29979073Y-57202449D01*
X29955794Y-57201305D01*
X29932739Y-57197886D01*
X29910130Y-57192222D01*
X29888186Y-57184370D01*
X29867116Y-57174405D01*
X29847125Y-57162423D01*
X29828405Y-57148539D01*
X29811135Y-57132887D01*
X29404549Y-56726301D01*
X29388897Y-56709031D01*
X29375013Y-56690311D01*
X29363031Y-56670320D01*
X29353066Y-56649250D01*
X29345214Y-56627306D01*
X29339550Y-56604697D01*
X29336131Y-56581642D01*
X29334987Y-56558363D01*
X29336131Y-56535084D01*
X29339550Y-56512029D01*
X29345214Y-56489420D01*
X29353066Y-56467476D01*
X29363031Y-56446406D01*
X29375013Y-56426415D01*
X29388897Y-56407695D01*
X29404549Y-56390425D01*
X29740425Y-56054549D01*
X29757695Y-56038897D01*
X29776415Y-56025013D01*
X29796406Y-56013031D01*
X29817476Y-56003066D01*
X29839420Y-55995214D01*
X29862029Y-55989550D01*
X29885084Y-55986131D01*
X29908363Y-55984987D01*
X29931642Y-55986131D01*
X29931642Y-55986131D01*
G37*
D16*
X29943718Y-56593718D03*
D11*
G36*
X28889916Y-60261131D02*
G01*
X28912971Y-60264550D01*
X28935580Y-60270214D01*
X28957524Y-60278066D01*
X28978594Y-60288031D01*
X28998585Y-60300013D01*
X29017305Y-60313897D01*
X29034575Y-60329549D01*
X29370451Y-60665425D01*
X29386103Y-60682695D01*
X29399987Y-60701415D01*
X29411969Y-60721406D01*
X29421934Y-60742476D01*
X29429786Y-60764420D01*
X29435450Y-60787029D01*
X29438869Y-60810084D01*
X29440013Y-60833363D01*
X29438869Y-60856642D01*
X29435450Y-60879697D01*
X29429786Y-60902306D01*
X29421934Y-60924250D01*
X29411969Y-60945320D01*
X29399987Y-60965311D01*
X29386103Y-60984031D01*
X29370451Y-61001301D01*
X28963865Y-61407887D01*
X28946595Y-61423539D01*
X28927875Y-61437423D01*
X28907884Y-61449405D01*
X28886814Y-61459370D01*
X28864870Y-61467222D01*
X28842261Y-61472886D01*
X28819206Y-61476305D01*
X28795927Y-61477449D01*
X28772648Y-61476305D01*
X28749593Y-61472886D01*
X28726984Y-61467222D01*
X28705040Y-61459370D01*
X28683970Y-61449405D01*
X28663979Y-61437423D01*
X28645259Y-61423539D01*
X28627989Y-61407887D01*
X28292113Y-61072011D01*
X28276461Y-61054741D01*
X28262577Y-61036021D01*
X28250595Y-61016030D01*
X28240630Y-60994960D01*
X28232778Y-60973016D01*
X28227114Y-60950407D01*
X28223695Y-60927352D01*
X28222551Y-60904073D01*
X28223695Y-60880794D01*
X28227114Y-60857739D01*
X28232778Y-60835130D01*
X28240630Y-60813186D01*
X28250595Y-60792116D01*
X28262577Y-60772125D01*
X28276461Y-60753405D01*
X28292113Y-60736135D01*
X28698699Y-60329549D01*
X28715969Y-60313897D01*
X28734689Y-60300013D01*
X28754680Y-60288031D01*
X28775750Y-60278066D01*
X28797694Y-60270214D01*
X28820303Y-60264550D01*
X28843358Y-60261131D01*
X28866637Y-60259987D01*
X28889916Y-60261131D01*
X28889916Y-60261131D01*
G37*
D16*
X28831282Y-60868718D03*
D11*
G36*
X30127352Y-59023695D02*
G01*
X30150407Y-59027114D01*
X30173016Y-59032778D01*
X30194960Y-59040630D01*
X30216030Y-59050595D01*
X30236021Y-59062577D01*
X30254741Y-59076461D01*
X30272011Y-59092113D01*
X30607887Y-59427989D01*
X30623539Y-59445259D01*
X30637423Y-59463979D01*
X30649405Y-59483970D01*
X30659370Y-59505040D01*
X30667222Y-59526984D01*
X30672886Y-59549593D01*
X30676305Y-59572648D01*
X30677449Y-59595927D01*
X30676305Y-59619206D01*
X30672886Y-59642261D01*
X30667222Y-59664870D01*
X30659370Y-59686814D01*
X30649405Y-59707884D01*
X30637423Y-59727875D01*
X30623539Y-59746595D01*
X30607887Y-59763865D01*
X30201301Y-60170451D01*
X30184031Y-60186103D01*
X30165311Y-60199987D01*
X30145320Y-60211969D01*
X30124250Y-60221934D01*
X30102306Y-60229786D01*
X30079697Y-60235450D01*
X30056642Y-60238869D01*
X30033363Y-60240013D01*
X30010084Y-60238869D01*
X29987029Y-60235450D01*
X29964420Y-60229786D01*
X29942476Y-60221934D01*
X29921406Y-60211969D01*
X29901415Y-60199987D01*
X29882695Y-60186103D01*
X29865425Y-60170451D01*
X29529549Y-59834575D01*
X29513897Y-59817305D01*
X29500013Y-59798585D01*
X29488031Y-59778594D01*
X29478066Y-59757524D01*
X29470214Y-59735580D01*
X29464550Y-59712971D01*
X29461131Y-59689916D01*
X29459987Y-59666637D01*
X29461131Y-59643358D01*
X29464550Y-59620303D01*
X29470214Y-59597694D01*
X29478066Y-59575750D01*
X29488031Y-59554680D01*
X29500013Y-59534689D01*
X29513897Y-59515969D01*
X29529549Y-59498699D01*
X29936135Y-59092113D01*
X29953405Y-59076461D01*
X29972125Y-59062577D01*
X29992116Y-59050595D01*
X30013186Y-59040630D01*
X30035130Y-59032778D01*
X30057739Y-59027114D01*
X30080794Y-59023695D01*
X30104073Y-59022551D01*
X30127352Y-59023695D01*
X30127352Y-59023695D01*
G37*
D16*
X30068718Y-59631282D03*
D11*
G36*
X37008279Y-47776144D02*
G01*
X37031334Y-47779563D01*
X37053943Y-47785227D01*
X37075887Y-47793079D01*
X37096957Y-47803044D01*
X37116948Y-47815026D01*
X37135668Y-47828910D01*
X37152938Y-47844562D01*
X37168590Y-47861832D01*
X37182474Y-47880552D01*
X37194456Y-47900543D01*
X37204421Y-47921613D01*
X37212273Y-47943557D01*
X37217937Y-47966166D01*
X37221356Y-47989221D01*
X37222500Y-48012500D01*
X37222500Y-48587500D01*
X37221356Y-48610779D01*
X37217937Y-48633834D01*
X37212273Y-48656443D01*
X37204421Y-48678387D01*
X37194456Y-48699457D01*
X37182474Y-48719448D01*
X37168590Y-48738168D01*
X37152938Y-48755438D01*
X37135668Y-48771090D01*
X37116948Y-48784974D01*
X37096957Y-48796956D01*
X37075887Y-48806921D01*
X37053943Y-48814773D01*
X37031334Y-48820437D01*
X37008279Y-48823856D01*
X36985000Y-48825000D01*
X36510000Y-48825000D01*
X36486721Y-48823856D01*
X36463666Y-48820437D01*
X36441057Y-48814773D01*
X36419113Y-48806921D01*
X36398043Y-48796956D01*
X36378052Y-48784974D01*
X36359332Y-48771090D01*
X36342062Y-48755438D01*
X36326410Y-48738168D01*
X36312526Y-48719448D01*
X36300544Y-48699457D01*
X36290579Y-48678387D01*
X36282727Y-48656443D01*
X36277063Y-48633834D01*
X36273644Y-48610779D01*
X36272500Y-48587500D01*
X36272500Y-48012500D01*
X36273644Y-47989221D01*
X36277063Y-47966166D01*
X36282727Y-47943557D01*
X36290579Y-47921613D01*
X36300544Y-47900543D01*
X36312526Y-47880552D01*
X36326410Y-47861832D01*
X36342062Y-47844562D01*
X36359332Y-47828910D01*
X36378052Y-47815026D01*
X36398043Y-47803044D01*
X36419113Y-47793079D01*
X36441057Y-47785227D01*
X36463666Y-47779563D01*
X36486721Y-47776144D01*
X36510000Y-47775000D01*
X36985000Y-47775000D01*
X37008279Y-47776144D01*
X37008279Y-47776144D01*
G37*
D16*
X36747500Y-48300000D03*
D11*
G36*
X37008279Y-49526144D02*
G01*
X37031334Y-49529563D01*
X37053943Y-49535227D01*
X37075887Y-49543079D01*
X37096957Y-49553044D01*
X37116948Y-49565026D01*
X37135668Y-49578910D01*
X37152938Y-49594562D01*
X37168590Y-49611832D01*
X37182474Y-49630552D01*
X37194456Y-49650543D01*
X37204421Y-49671613D01*
X37212273Y-49693557D01*
X37217937Y-49716166D01*
X37221356Y-49739221D01*
X37222500Y-49762500D01*
X37222500Y-50337500D01*
X37221356Y-50360779D01*
X37217937Y-50383834D01*
X37212273Y-50406443D01*
X37204421Y-50428387D01*
X37194456Y-50449457D01*
X37182474Y-50469448D01*
X37168590Y-50488168D01*
X37152938Y-50505438D01*
X37135668Y-50521090D01*
X37116948Y-50534974D01*
X37096957Y-50546956D01*
X37075887Y-50556921D01*
X37053943Y-50564773D01*
X37031334Y-50570437D01*
X37008279Y-50573856D01*
X36985000Y-50575000D01*
X36510000Y-50575000D01*
X36486721Y-50573856D01*
X36463666Y-50570437D01*
X36441057Y-50564773D01*
X36419113Y-50556921D01*
X36398043Y-50546956D01*
X36378052Y-50534974D01*
X36359332Y-50521090D01*
X36342062Y-50505438D01*
X36326410Y-50488168D01*
X36312526Y-50469448D01*
X36300544Y-50449457D01*
X36290579Y-50428387D01*
X36282727Y-50406443D01*
X36277063Y-50383834D01*
X36273644Y-50360779D01*
X36272500Y-50337500D01*
X36272500Y-49762500D01*
X36273644Y-49739221D01*
X36277063Y-49716166D01*
X36282727Y-49693557D01*
X36290579Y-49671613D01*
X36300544Y-49650543D01*
X36312526Y-49630552D01*
X36326410Y-49611832D01*
X36342062Y-49594562D01*
X36359332Y-49578910D01*
X36378052Y-49565026D01*
X36398043Y-49553044D01*
X36419113Y-49543079D01*
X36441057Y-49535227D01*
X36463666Y-49529563D01*
X36486721Y-49526144D01*
X36510000Y-49525000D01*
X36985000Y-49525000D01*
X37008279Y-49526144D01*
X37008279Y-49526144D01*
G37*
D16*
X36747500Y-50050000D03*
M02*
