M48
; DRILL file {KiCad (5.1.2)-1} date 5/25/2021 7:11:02 AM
; FORMAT={-:-/ absolute / inch / decimal}
; #@! TF.CreationDate,2021-05-25T07:11:02-07:00
; #@! TF.GenerationSoftware,Kicad,Pcbnew,(5.1.2)-1
; #@! TF.FileFunction,Plated,1,2,PTH
FMAT,2
INCH
T1C0.0157
T2C0.0315
T3C0.0591
%
G90
G05
T1
X1.1029Y-1.5586
X1.1368Y-2.3041
X1.1727Y-2.1048
X1.1929Y-2.8051
X1.2119Y-2.4049
X1.2283Y-1.5098
X1.2283Y-1.9321
X1.2431Y-2.9429
X1.2707Y-2.1405
X1.2842Y-2.0908
X1.2884Y-1.9892
X1.3537Y-2.1188
X1.3612Y-2.06
X1.3986Y-2.0
X1.3996Y-1.7963
X1.4252Y-2.0866
X1.436Y-2.563
X1.4498Y-1.5945
X1.4961Y-0.7087
X1.5148Y-2.0807
X1.5463Y-2.7598
X1.5669Y-1.5945
X1.6437Y-0.7874
X1.6634Y-2.9429
X1.6683Y-2.3396
X1.6772Y-1.3563
X1.6801Y-1.5098
X1.6988Y-2.3681
X1.7421Y-2.1722
X1.7884Y-1.563
X1.8888Y-2.188
X1.9134Y-2.3602
X2.3622Y-2.1358
X2.4213Y-2.8445
X2.8671Y-2.9715
X2.8817Y-3.008
X2.9069Y-3.0383
X2.9299Y-3.0702
X3.1988Y-2.8543
T2
X6.3695Y-0.5547
X6.3695Y-0.6335
X6.4482Y-0.5547
X6.4482Y-0.6335
X6.527Y-0.5547
X6.527Y-0.6335
X6.6057Y-0.5547
X6.6057Y-0.6335
X6.6844Y-0.5547
X6.6844Y-0.6335
X6.7632Y-0.5547
X6.7632Y-0.6335
T3
X2.6093Y-2.5843
X2.8593Y-2.4843
X3.9218Y-2.5843
X4.1718Y-2.4843
X7.8593Y-3.3343
X8.1093Y-3.2343
X0.7343Y-3.3343
X0.9843Y-3.2343
X8.6093Y-1.8343
X8.8593Y-1.7343
X3.3593Y-1.0843
X3.6093Y-0.9843
X3.3593Y-3.3343
X3.6093Y-3.2343
X6.5468Y-1.8343
X6.7968Y-1.7343
X7.1093Y-2.5843
X7.3593Y-2.4843
X9.828Y-1.8343
X10.078Y-1.7343
X2.7968Y-3.3343
X3.0468Y-3.2343
X7.1093Y-1.0843
X7.3593Y-0.9843
X7.8593Y-2.5843
X8.1093Y-2.4843
X6.3593Y-1.0843
X6.6093Y-0.9843
X2.7968Y-1.8343
X3.0468Y-1.7343
X8.4218Y-2.5843
X8.6718Y-2.4843
X0.7343Y-1.8343
X0.9843Y-1.7343
X10.0155Y-3.3343
X10.2655Y-3.2343
X4.2968Y-1.8343
X4.5468Y-1.7343
X9.1718Y-3.3343
X9.4218Y-3.2343
X2.6093Y-1.0843
X2.8593Y-0.9843
X3.3593Y-1.8343
X3.6093Y-1.7343
X3.1718Y-2.5843
X3.4218Y-2.4843
X5.7968Y-1.8343
X6.0468Y-1.7343
X10.1093Y-3.3343
X10.3593Y-3.2343
X8.6093Y-2.5843
X8.8593Y-2.4843
X4.6718Y-2.5843
X4.9218Y-2.4843
X9.3593Y-3.3343
X9.6093Y-3.2343
X1.8593Y-2.5843
X2.1093Y-2.4843
X6.9218Y-2.5843
X7.1718Y-2.4843
X4.8593Y-1.8343
X5.1093Y-1.7343
X0.7343Y-2.5843
X0.9843Y-2.4843
X7.8593Y-1.8343
X8.1093Y-1.7343
X4.1093Y-1.0843
X4.3593Y-0.9843
X5.9843Y-3.3343
X6.2343Y-3.2343
X10.1093Y-2.5843
X10.3593Y-2.4843
X5.6093Y-1.8343
X5.8593Y-1.7343
X10.1093Y-1.0843
X10.3593Y-0.9843
X6.3593Y-2.5843
X6.6093Y-2.4843
X8.0468Y-1.8343
X8.2968Y-1.7343
X0.7343Y-1.0843
X0.9843Y-0.9843
X7.1093Y-3.3343
X7.3593Y-3.2343
X10.0155Y-2.5843
X10.2655Y-2.4843
X4.1093Y-2.5843
X4.3593Y-2.4843
X5.6093Y-1.0843
X5.8593Y-0.9843
X5.6093Y-3.3343
X5.8593Y-3.2343
X5.9843Y-3.3343
X6.2343Y-3.2343
X4.8593Y-1.0843
X5.1093Y-0.9843
X1.953Y-3.3343
X2.203Y-3.2343
X4.1093Y-1.8343
X4.3593Y-1.7343
X5.2343Y-3.3343
X5.4843Y-3.2343
X1.8593Y-1.0843
X2.1093Y-0.9843
X10.1093Y-1.8343
X10.3593Y-1.7343
X5.5155Y-3.3343
X5.7655Y-3.2343
X1.953Y-1.8343
X2.203Y-1.7343
X7.2968Y-1.8343
X7.5468Y-1.7343
X2.6093Y-1.8343
X2.8593Y-1.7343
X5.6093Y-2.5843
X5.8593Y-2.4843
X7.6718Y-2.5843
X7.9218Y-2.4843
X8.6093Y-3.3343
X8.8593Y-3.2343
X2.6093Y-3.3343
X2.8593Y-3.2343
X5.4218Y-2.5843
X5.6718Y-2.4843
X4.1093Y-3.3343
X4.3593Y-3.2343
X7.1093Y-1.8343
X7.3593Y-1.7343
X9.3593Y-2.5843
X9.6093Y-2.4843
X8.7968Y-1.8343
X9.0468Y-1.7343
X5.1405Y-3.3343
X5.3905Y-3.2343
X4.8593Y-2.5843
X5.1093Y-2.4843
X9.3593Y-1.8343
X9.6093Y-1.7343
X7.0155Y-3.3343
X7.2655Y-3.2343
X6.3593Y-3.3343
X6.6093Y-3.2343
X9.1718Y-2.5843
X9.4218Y-2.4843
X3.3593Y-2.5843
X3.6093Y-2.4843
X8.6093Y-1.0843
X8.8593Y-0.9843
X3.6405Y-3.3343
X3.8905Y-3.2343
X4.8593Y-3.3343
X5.1093Y-3.2343
X6.7343Y-3.3343
X6.9843Y-3.2343
X9.3593Y-1.0843
X9.6093Y-0.9843
X8.328Y-3.3343
X8.578Y-3.2343
X3.5468Y-1.8343
X3.7968Y-1.7343
X2.1405Y-2.5843
X2.3905Y-2.4843
X7.8593Y-1.0843
X8.1093Y-0.9843
X6.3593Y-1.8343
X6.6093Y-1.7343
X1.8593Y-1.8343
X2.1093Y-1.7343
X1.8593Y-3.3343
X2.1093Y-3.2343
X6.1718Y-2.5843
X6.4218Y-2.4843
X5.0468Y-1.8343
X5.2968Y-1.7343
T0
M30
