G04 #@! TF.GenerationSoftware,KiCad,Pcbnew,(5.1.2)-1*
G04 #@! TF.CreationDate,2021-05-25T07:10:53-07:00*
G04 #@! TF.ProjectId,theboulevard,74686562-6f75-46c6-9576-6172642e6b69,rev?*
G04 #@! TF.SameCoordinates,Original*
G04 #@! TF.FileFunction,Legend,Bot*
G04 #@! TF.FilePolarity,Positive*
%FSLAX46Y46*%
G04 Gerber Fmt 4.6, Leading zero omitted, Abs format (unit mm)*
G04 Created by KiCad (PCBNEW (5.1.2)-1) date 2021-05-25 07:10:53*
%MOMM*%
%LPD*%
G04 APERTURE LIST*
%ADD10C,0.150000*%
%ADD11C,0.120000*%
%ADD12C,0.200000*%
G04 APERTURE END LIST*
D10*
X179075000Y-14717380D02*
X179408333Y-14241190D01*
X179646428Y-14717380D02*
X179646428Y-13717380D01*
X179265476Y-13717380D01*
X179170238Y-13765000D01*
X179122619Y-13812619D01*
X179075000Y-13907857D01*
X179075000Y-14050714D01*
X179122619Y-14145952D01*
X179170238Y-14193571D01*
X179265476Y-14241190D01*
X179646428Y-14241190D01*
X178265476Y-14669761D02*
X178360714Y-14717380D01*
X178551190Y-14717380D01*
X178646428Y-14669761D01*
X178694047Y-14574523D01*
X178694047Y-14193571D01*
X178646428Y-14098333D01*
X178551190Y-14050714D01*
X178360714Y-14050714D01*
X178265476Y-14098333D01*
X178217857Y-14193571D01*
X178217857Y-14288809D01*
X178694047Y-14384047D01*
X177360714Y-14717380D02*
X177360714Y-13717380D01*
X177360714Y-14669761D02*
X177455952Y-14717380D01*
X177646428Y-14717380D01*
X177741666Y-14669761D01*
X177789285Y-14622142D01*
X177836904Y-14526904D01*
X177836904Y-14241190D01*
X177789285Y-14145952D01*
X177741666Y-14098333D01*
X177646428Y-14050714D01*
X177455952Y-14050714D01*
X177360714Y-14098333D01*
X176217857Y-13717380D02*
X175979761Y-14717380D01*
X175789285Y-14003095D01*
X175598809Y-14717380D01*
X175360714Y-13717380D01*
X174979761Y-14717380D02*
X174979761Y-14050714D01*
X174979761Y-13717380D02*
X175027380Y-13765000D01*
X174979761Y-13812619D01*
X174932142Y-13765000D01*
X174979761Y-13717380D01*
X174979761Y-13812619D01*
X174503571Y-14717380D02*
X174503571Y-14050714D01*
X174503571Y-14241190D02*
X174455952Y-14145952D01*
X174408333Y-14098333D01*
X174313095Y-14050714D01*
X174217857Y-14050714D01*
X173503571Y-14669761D02*
X173598809Y-14717380D01*
X173789285Y-14717380D01*
X173884523Y-14669761D01*
X173932142Y-14574523D01*
X173932142Y-14193571D01*
X173884523Y-14098333D01*
X173789285Y-14050714D01*
X173598809Y-14050714D01*
X173503571Y-14098333D01*
X173455952Y-14193571D01*
X173455952Y-14288809D01*
X173932142Y-14384047D01*
X179932142Y-15367380D02*
X179360714Y-15367380D01*
X179646428Y-16367380D02*
X179646428Y-15367380D01*
X179027380Y-16367380D02*
X179027380Y-15367380D01*
X178598809Y-16367380D02*
X178598809Y-15843571D01*
X178646428Y-15748333D01*
X178741666Y-15700714D01*
X178884523Y-15700714D01*
X178979761Y-15748333D01*
X179027380Y-15795952D01*
X178122619Y-16367380D02*
X178122619Y-15700714D01*
X178122619Y-15367380D02*
X178170238Y-15415000D01*
X178122619Y-15462619D01*
X178075000Y-15415000D01*
X178122619Y-15367380D01*
X178122619Y-15462619D01*
X177694047Y-16319761D02*
X177598809Y-16367380D01*
X177408333Y-16367380D01*
X177313095Y-16319761D01*
X177265476Y-16224523D01*
X177265476Y-16176904D01*
X177313095Y-16081666D01*
X177408333Y-16034047D01*
X177551190Y-16034047D01*
X177646428Y-15986428D01*
X177694047Y-15891190D01*
X177694047Y-15843571D01*
X177646428Y-15748333D01*
X177551190Y-15700714D01*
X177408333Y-15700714D01*
X177313095Y-15748333D01*
X176122619Y-16319761D02*
X175979761Y-16367380D01*
X175741666Y-16367380D01*
X175646428Y-16319761D01*
X175598809Y-16272142D01*
X175551190Y-16176904D01*
X175551190Y-16081666D01*
X175598809Y-15986428D01*
X175646428Y-15938809D01*
X175741666Y-15891190D01*
X175932142Y-15843571D01*
X176027380Y-15795952D01*
X176075000Y-15748333D01*
X176122619Y-15653095D01*
X176122619Y-15557857D01*
X176075000Y-15462619D01*
X176027380Y-15415000D01*
X175932142Y-15367380D01*
X175694047Y-15367380D01*
X175551190Y-15415000D01*
X175122619Y-16367380D02*
X175122619Y-15700714D01*
X175122619Y-15367380D02*
X175170238Y-15415000D01*
X175122619Y-15462619D01*
X175075000Y-15415000D01*
X175122619Y-15367380D01*
X175122619Y-15462619D01*
X174217857Y-16367380D02*
X174217857Y-15367380D01*
X174217857Y-16319761D02*
X174313095Y-16367380D01*
X174503571Y-16367380D01*
X174598809Y-16319761D01*
X174646428Y-16272142D01*
X174694047Y-16176904D01*
X174694047Y-15891190D01*
X174646428Y-15795952D01*
X174598809Y-15748333D01*
X174503571Y-15700714D01*
X174313095Y-15700714D01*
X174217857Y-15748333D01*
X173360714Y-16319761D02*
X173455952Y-16367380D01*
X173646428Y-16367380D01*
X173741666Y-16319761D01*
X173789285Y-16224523D01*
X173789285Y-15843571D01*
X173741666Y-15748333D01*
X173646428Y-15700714D01*
X173455952Y-15700714D01*
X173360714Y-15748333D01*
X173313095Y-15843571D01*
X173313095Y-15938809D01*
X173789285Y-16034047D01*
D11*
X32154841Y-59167652D02*
X31642189Y-58655000D01*
X41852811Y-58655000D02*
X41340159Y-59167652D01*
X41340159Y-58142348D02*
X41852811Y-58655000D01*
X36747500Y-53549689D02*
X36234848Y-54062341D01*
X37260152Y-54062341D02*
X36747500Y-53549689D01*
X36747500Y-63760311D02*
X37260152Y-63247659D01*
X36234848Y-63247659D02*
X36747500Y-63760311D01*
X33997500Y-37750000D02*
X33997500Y-40250000D01*
X35747500Y-36250000D02*
X37747500Y-36250000D01*
X39497500Y-37750000D02*
X39497500Y-40250000D01*
X35747500Y-41750000D02*
X37747500Y-41750000D01*
X34447500Y-37300000D02*
X33997500Y-37750000D01*
X34447500Y-40700000D02*
X33997500Y-40250000D01*
X39047500Y-40700000D02*
X39497500Y-40250000D01*
X39047500Y-37300000D02*
X39497500Y-37750000D01*
X41896267Y-66585000D02*
X41553733Y-66585000D01*
X41896267Y-65565000D02*
X41553733Y-65565000D01*
X40715000Y-41671267D02*
X40715000Y-41328733D01*
X41735000Y-41671267D02*
X41735000Y-41328733D01*
X38237500Y-48826267D02*
X38237500Y-48483733D01*
X39257500Y-48826267D02*
X39257500Y-48483733D01*
X34237500Y-48826267D02*
X34237500Y-48483733D01*
X35257500Y-48826267D02*
X35257500Y-48483733D01*
X34807500Y-11625000D02*
X38687500Y-11625000D01*
X39857500Y-16095000D02*
X38807500Y-16095000D01*
X39857500Y-13595000D02*
X39857500Y-16095000D01*
X34687500Y-16095000D02*
X34687500Y-17085000D01*
X33637500Y-16095000D02*
X34687500Y-16095000D01*
X33637500Y-13595000D02*
X33637500Y-16095000D01*
D12*
X257385000Y-91110000D02*
X257385000Y-93510000D01*
X263385000Y-91110000D02*
X257385000Y-91110000D01*
X263385000Y-93510000D02*
X263385000Y-91110000D01*
X257385000Y-93510000D02*
X263385000Y-93510000D01*
X257660000Y-93510000D02*
X257660000Y-91110000D01*
X257785000Y-93510000D02*
X257785000Y-91110000D01*
X257510000Y-91110000D02*
X257510000Y-93510000D01*
X238335000Y-91110000D02*
X238335000Y-93510000D01*
X244335000Y-91110000D02*
X238335000Y-91110000D01*
X244335000Y-93510000D02*
X244335000Y-91110000D01*
X238335000Y-93510000D02*
X244335000Y-93510000D01*
X238610000Y-93510000D02*
X238610000Y-91110000D01*
X238735000Y-93510000D02*
X238735000Y-91110000D01*
X238460000Y-91110000D02*
X238460000Y-93510000D01*
X219285000Y-91110000D02*
X219285000Y-93510000D01*
X225285000Y-91110000D02*
X219285000Y-91110000D01*
X225285000Y-93510000D02*
X225285000Y-91110000D01*
X219285000Y-93510000D02*
X225285000Y-93510000D01*
X219560000Y-93510000D02*
X219560000Y-91110000D01*
X219685000Y-93510000D02*
X219685000Y-91110000D01*
X219410000Y-91110000D02*
X219410000Y-93510000D01*
X200235000Y-91110000D02*
X200235000Y-93510000D01*
X206235000Y-91110000D02*
X200235000Y-91110000D01*
X206235000Y-93510000D02*
X206235000Y-91110000D01*
X200235000Y-93510000D02*
X206235000Y-93510000D01*
X200510000Y-93510000D02*
X200510000Y-91110000D01*
X200635000Y-93510000D02*
X200635000Y-91110000D01*
X200360000Y-91110000D02*
X200360000Y-93510000D01*
X175803750Y-91110000D02*
X175803750Y-93510000D01*
X181803750Y-91110000D02*
X175803750Y-91110000D01*
X181803750Y-93510000D02*
X181803750Y-91110000D01*
X175803750Y-93510000D02*
X181803750Y-93510000D01*
X176078750Y-93510000D02*
X176078750Y-91110000D01*
X176203750Y-93510000D02*
X176203750Y-91110000D01*
X175928750Y-91110000D02*
X175928750Y-93510000D01*
X152610000Y-91110000D02*
X152610000Y-93510000D01*
X158610000Y-91110000D02*
X152610000Y-91110000D01*
X158610000Y-93510000D02*
X158610000Y-91110000D01*
X152610000Y-93510000D02*
X158610000Y-93510000D01*
X152885000Y-93510000D02*
X152885000Y-91110000D01*
X153010000Y-93510000D02*
X153010000Y-91110000D01*
X152735000Y-91110000D02*
X152735000Y-93510000D01*
X134178750Y-91110000D02*
X134178750Y-93510000D01*
X140178750Y-91110000D02*
X134178750Y-91110000D01*
X140178750Y-93510000D02*
X140178750Y-91110000D01*
X134178750Y-93510000D02*
X140178750Y-93510000D01*
X134453750Y-93510000D02*
X134453750Y-91110000D01*
X134578750Y-93510000D02*
X134578750Y-91110000D01*
X134303750Y-91110000D02*
X134303750Y-93510000D01*
X127178750Y-91110000D02*
X127178750Y-93510000D01*
X133178750Y-91110000D02*
X127178750Y-91110000D01*
X133178750Y-93510000D02*
X133178750Y-91110000D01*
X127178750Y-93510000D02*
X133178750Y-93510000D01*
X127453750Y-93510000D02*
X127453750Y-91110000D01*
X127578750Y-93510000D02*
X127578750Y-91110000D01*
X127303750Y-91110000D02*
X127303750Y-93510000D01*
X102603750Y-91110000D02*
X102603750Y-93510000D01*
X108603750Y-91110000D02*
X102603750Y-91110000D01*
X108603750Y-93510000D02*
X108603750Y-91110000D01*
X102603750Y-93510000D02*
X108603750Y-93510000D01*
X102878750Y-93510000D02*
X102878750Y-91110000D01*
X103003750Y-93510000D02*
X103003750Y-91110000D01*
X102728750Y-91110000D02*
X102728750Y-93510000D01*
X83553750Y-91110000D02*
X83553750Y-93510000D01*
X89553750Y-91110000D02*
X83553750Y-91110000D01*
X89553750Y-93510000D02*
X89553750Y-91110000D01*
X83553750Y-93510000D02*
X89553750Y-93510000D01*
X83828750Y-93510000D02*
X83828750Y-91110000D01*
X83953750Y-93510000D02*
X83953750Y-91110000D01*
X83678750Y-91110000D02*
X83678750Y-93510000D01*
X70456875Y-91110000D02*
X70456875Y-93510000D01*
X76456875Y-91110000D02*
X70456875Y-91110000D01*
X76456875Y-93510000D02*
X76456875Y-91110000D01*
X70456875Y-93510000D02*
X76456875Y-93510000D01*
X70731875Y-93510000D02*
X70731875Y-91110000D01*
X70856875Y-93510000D02*
X70856875Y-91110000D01*
X70581875Y-91110000D02*
X70581875Y-93510000D01*
X47835000Y-91110000D02*
X47835000Y-93510000D01*
X53835000Y-91110000D02*
X47835000Y-91110000D01*
X53835000Y-93510000D02*
X53835000Y-91110000D01*
X47835000Y-93510000D02*
X53835000Y-93510000D01*
X48110000Y-93510000D02*
X48110000Y-91110000D01*
X48235000Y-93510000D02*
X48235000Y-91110000D01*
X47960000Y-91110000D02*
X47960000Y-93510000D01*
X19260000Y-91110000D02*
X19260000Y-93510000D01*
X25260000Y-91110000D02*
X19260000Y-91110000D01*
X25260000Y-93510000D02*
X25260000Y-91110000D01*
X19260000Y-93510000D02*
X25260000Y-93510000D01*
X19535000Y-93510000D02*
X19535000Y-91110000D01*
X19660000Y-93510000D02*
X19660000Y-91110000D01*
X19385000Y-91110000D02*
X19385000Y-93510000D01*
X255003750Y-72060000D02*
X255003750Y-74460000D01*
X261003750Y-72060000D02*
X255003750Y-72060000D01*
X261003750Y-74460000D02*
X261003750Y-72060000D01*
X255003750Y-74460000D02*
X261003750Y-74460000D01*
X255278750Y-74460000D02*
X255278750Y-72060000D01*
X255403750Y-74460000D02*
X255403750Y-72060000D01*
X255128750Y-72060000D02*
X255128750Y-74460000D01*
X235953750Y-72060000D02*
X235953750Y-74460000D01*
X241953750Y-72060000D02*
X235953750Y-72060000D01*
X241953750Y-74460000D02*
X241953750Y-72060000D01*
X235953750Y-74460000D02*
X241953750Y-74460000D01*
X236228750Y-74460000D02*
X236228750Y-72060000D01*
X236353750Y-74460000D02*
X236353750Y-72060000D01*
X236078750Y-72060000D02*
X236078750Y-74460000D01*
X216903750Y-72060000D02*
X216903750Y-74460000D01*
X222903750Y-72060000D02*
X216903750Y-72060000D01*
X222903750Y-74460000D02*
X222903750Y-72060000D01*
X216903750Y-74460000D02*
X222903750Y-74460000D01*
X217178750Y-74460000D02*
X217178750Y-72060000D01*
X217303750Y-74460000D02*
X217303750Y-72060000D01*
X217028750Y-72060000D02*
X217028750Y-74460000D01*
X197853750Y-72060000D02*
X197853750Y-74460000D01*
X203853750Y-72060000D02*
X197853750Y-72060000D01*
X203853750Y-74460000D02*
X203853750Y-72060000D01*
X197853750Y-74460000D02*
X203853750Y-74460000D01*
X198128750Y-74460000D02*
X198128750Y-72060000D01*
X198253750Y-74460000D02*
X198253750Y-72060000D01*
X197978750Y-72060000D02*
X197978750Y-74460000D01*
X178803750Y-72060000D02*
X178803750Y-74460000D01*
X184803750Y-72060000D02*
X178803750Y-72060000D01*
X184803750Y-74460000D02*
X184803750Y-72060000D01*
X178803750Y-74460000D02*
X184803750Y-74460000D01*
X179078750Y-74460000D02*
X179078750Y-72060000D01*
X179203750Y-74460000D02*
X179203750Y-72060000D01*
X178928750Y-72060000D02*
X178928750Y-74460000D01*
X159753750Y-72060000D02*
X159753750Y-74460000D01*
X165753750Y-72060000D02*
X159753750Y-72060000D01*
X165753750Y-74460000D02*
X165753750Y-72060000D01*
X159753750Y-74460000D02*
X165753750Y-74460000D01*
X160028750Y-74460000D02*
X160028750Y-72060000D01*
X160153750Y-74460000D02*
X160153750Y-72060000D01*
X159878750Y-72060000D02*
X159878750Y-74460000D01*
X140703750Y-72060000D02*
X140703750Y-74460000D01*
X146703750Y-72060000D02*
X140703750Y-72060000D01*
X146703750Y-74460000D02*
X146703750Y-72060000D01*
X140703750Y-74460000D02*
X146703750Y-74460000D01*
X140978750Y-74460000D02*
X140978750Y-72060000D01*
X141103750Y-74460000D02*
X141103750Y-72060000D01*
X140828750Y-72060000D02*
X140828750Y-74460000D01*
X121653750Y-72060000D02*
X121653750Y-74460000D01*
X127653750Y-72060000D02*
X121653750Y-72060000D01*
X127653750Y-74460000D02*
X127653750Y-72060000D01*
X121653750Y-74460000D02*
X127653750Y-74460000D01*
X121928750Y-74460000D02*
X121928750Y-72060000D01*
X122053750Y-74460000D02*
X122053750Y-72060000D01*
X121778750Y-72060000D02*
X121778750Y-74460000D01*
X102603750Y-72060000D02*
X102603750Y-74460000D01*
X108603750Y-72060000D02*
X102603750Y-72060000D01*
X108603750Y-74460000D02*
X108603750Y-72060000D01*
X102603750Y-74460000D02*
X108603750Y-74460000D01*
X102878750Y-74460000D02*
X102878750Y-72060000D01*
X103003750Y-74460000D02*
X103003750Y-72060000D01*
X102728750Y-72060000D02*
X102728750Y-74460000D01*
X83553750Y-72060000D02*
X83553750Y-74460000D01*
X89553750Y-72060000D02*
X83553750Y-72060000D01*
X89553750Y-74460000D02*
X89553750Y-72060000D01*
X83553750Y-74460000D02*
X89553750Y-74460000D01*
X83828750Y-74460000D02*
X83828750Y-72060000D01*
X83953750Y-74460000D02*
X83953750Y-72060000D01*
X83678750Y-72060000D02*
X83678750Y-74460000D01*
X66885000Y-72060000D02*
X66885000Y-74460000D01*
X72885000Y-72060000D02*
X66885000Y-72060000D01*
X72885000Y-74460000D02*
X72885000Y-72060000D01*
X66885000Y-74460000D02*
X72885000Y-74460000D01*
X67160000Y-74460000D02*
X67160000Y-72060000D01*
X67285000Y-74460000D02*
X67285000Y-72060000D01*
X67010000Y-72060000D02*
X67010000Y-74460000D01*
X51406875Y-72060000D02*
X51406875Y-74460000D01*
X57406875Y-72060000D02*
X51406875Y-72060000D01*
X57406875Y-74460000D02*
X57406875Y-72060000D01*
X51406875Y-74460000D02*
X57406875Y-74460000D01*
X51681875Y-74460000D02*
X51681875Y-72060000D01*
X51806875Y-74460000D02*
X51806875Y-72060000D01*
X51531875Y-72060000D02*
X51531875Y-74460000D01*
X19260000Y-72060000D02*
X19260000Y-74460000D01*
X25260000Y-72060000D02*
X19260000Y-72060000D01*
X25260000Y-74460000D02*
X25260000Y-72060000D01*
X19260000Y-74460000D02*
X25260000Y-74460000D01*
X19535000Y-74460000D02*
X19535000Y-72060000D01*
X19660000Y-74460000D02*
X19660000Y-72060000D01*
X19385000Y-72060000D02*
X19385000Y-74460000D01*
X257385000Y-53010000D02*
X257385000Y-55410000D01*
X263385000Y-53010000D02*
X257385000Y-53010000D01*
X263385000Y-55410000D02*
X263385000Y-53010000D01*
X257385000Y-55410000D02*
X263385000Y-55410000D01*
X257660000Y-55410000D02*
X257660000Y-53010000D01*
X257785000Y-55410000D02*
X257785000Y-53010000D01*
X257510000Y-53010000D02*
X257510000Y-55410000D01*
X241906875Y-53010000D02*
X241906875Y-55410000D01*
X247906875Y-53010000D02*
X241906875Y-53010000D01*
X247906875Y-55410000D02*
X247906875Y-53010000D01*
X241906875Y-55410000D02*
X247906875Y-55410000D01*
X242181875Y-55410000D02*
X242181875Y-53010000D01*
X242306875Y-55410000D02*
X242306875Y-53010000D01*
X242031875Y-53010000D02*
X242031875Y-55410000D01*
X222856875Y-53010000D02*
X222856875Y-55410000D01*
X228856875Y-53010000D02*
X222856875Y-53010000D01*
X228856875Y-55410000D02*
X228856875Y-53010000D01*
X222856875Y-55410000D02*
X228856875Y-55410000D01*
X223131875Y-55410000D02*
X223131875Y-53010000D01*
X223256875Y-55410000D02*
X223256875Y-53010000D01*
X222981875Y-53010000D02*
X222981875Y-55410000D01*
X203806875Y-53010000D02*
X203806875Y-55410000D01*
X209806875Y-53010000D02*
X203806875Y-53010000D01*
X209806875Y-55410000D02*
X209806875Y-53010000D01*
X203806875Y-55410000D02*
X209806875Y-55410000D01*
X204081875Y-55410000D02*
X204081875Y-53010000D01*
X204206875Y-55410000D02*
X204206875Y-53010000D01*
X203931875Y-53010000D02*
X203931875Y-55410000D01*
X184756875Y-53010000D02*
X184756875Y-55410000D01*
X190756875Y-53010000D02*
X184756875Y-53010000D01*
X190756875Y-55410000D02*
X190756875Y-53010000D01*
X184756875Y-55410000D02*
X190756875Y-55410000D01*
X185031875Y-55410000D02*
X185031875Y-53010000D01*
X185156875Y-55410000D02*
X185156875Y-53010000D01*
X184881875Y-53010000D02*
X184881875Y-55410000D01*
X165706875Y-53010000D02*
X165706875Y-55410000D01*
X171706875Y-53010000D02*
X165706875Y-53010000D01*
X171706875Y-55410000D02*
X171706875Y-53010000D01*
X165706875Y-55410000D02*
X171706875Y-55410000D01*
X165981875Y-55410000D02*
X165981875Y-53010000D01*
X166106875Y-55410000D02*
X166106875Y-53010000D01*
X165831875Y-53010000D02*
X165831875Y-55410000D01*
X146656875Y-53010000D02*
X146656875Y-55410000D01*
X152656875Y-53010000D02*
X146656875Y-53010000D01*
X152656875Y-55410000D02*
X152656875Y-53010000D01*
X146656875Y-55410000D02*
X152656875Y-55410000D01*
X146931875Y-55410000D02*
X146931875Y-53010000D01*
X147056875Y-55410000D02*
X147056875Y-53010000D01*
X146781875Y-53010000D02*
X146781875Y-55410000D01*
X127606875Y-53010000D02*
X127606875Y-55410000D01*
X133606875Y-53010000D02*
X127606875Y-53010000D01*
X133606875Y-55410000D02*
X133606875Y-53010000D01*
X127606875Y-55410000D02*
X133606875Y-55410000D01*
X127881875Y-55410000D02*
X127881875Y-53010000D01*
X128006875Y-55410000D02*
X128006875Y-53010000D01*
X127731875Y-53010000D02*
X127731875Y-55410000D01*
X108556875Y-53010000D02*
X108556875Y-55410000D01*
X114556875Y-53010000D02*
X108556875Y-53010000D01*
X114556875Y-55410000D02*
X114556875Y-53010000D01*
X108556875Y-55410000D02*
X114556875Y-55410000D01*
X108831875Y-55410000D02*
X108831875Y-53010000D01*
X108956875Y-55410000D02*
X108956875Y-53010000D01*
X108681875Y-53010000D02*
X108681875Y-55410000D01*
X89506875Y-53010000D02*
X89506875Y-55410000D01*
X95506875Y-53010000D02*
X89506875Y-53010000D01*
X95506875Y-55410000D02*
X95506875Y-53010000D01*
X89506875Y-55410000D02*
X95506875Y-55410000D01*
X89781875Y-55410000D02*
X89781875Y-53010000D01*
X89906875Y-55410000D02*
X89906875Y-53010000D01*
X89631875Y-53010000D02*
X89631875Y-55410000D01*
X70456875Y-53010000D02*
X70456875Y-55410000D01*
X76456875Y-53010000D02*
X70456875Y-53010000D01*
X76456875Y-55410000D02*
X76456875Y-53010000D01*
X70456875Y-55410000D02*
X76456875Y-55410000D01*
X70731875Y-55410000D02*
X70731875Y-53010000D01*
X70856875Y-55410000D02*
X70856875Y-53010000D01*
X70581875Y-53010000D02*
X70581875Y-55410000D01*
X49025625Y-53010000D02*
X49025625Y-55410000D01*
X55025625Y-53010000D02*
X49025625Y-53010000D01*
X55025625Y-55410000D02*
X55025625Y-53010000D01*
X49025625Y-55410000D02*
X55025625Y-55410000D01*
X49300625Y-55410000D02*
X49300625Y-53010000D01*
X49425625Y-55410000D02*
X49425625Y-53010000D01*
X49150625Y-53010000D02*
X49150625Y-55410000D01*
X19260000Y-53010000D02*
X19260000Y-55410000D01*
X25260000Y-53010000D02*
X19260000Y-53010000D01*
X25260000Y-55410000D02*
X25260000Y-53010000D01*
X19260000Y-55410000D02*
X25260000Y-55410000D01*
X19535000Y-55410000D02*
X19535000Y-53010000D01*
X19660000Y-55410000D02*
X19660000Y-53010000D01*
X19385000Y-53010000D02*
X19385000Y-55410000D01*
X257385000Y-33960000D02*
X257385000Y-36360000D01*
X263385000Y-33960000D02*
X257385000Y-33960000D01*
X263385000Y-36360000D02*
X263385000Y-33960000D01*
X257385000Y-36360000D02*
X263385000Y-36360000D01*
X257660000Y-36360000D02*
X257660000Y-33960000D01*
X257785000Y-36360000D02*
X257785000Y-33960000D01*
X257510000Y-33960000D02*
X257510000Y-36360000D01*
X238335000Y-33960000D02*
X238335000Y-36360000D01*
X244335000Y-33960000D02*
X238335000Y-33960000D01*
X244335000Y-36360000D02*
X244335000Y-33960000D01*
X238335000Y-36360000D02*
X244335000Y-36360000D01*
X238610000Y-36360000D02*
X238610000Y-33960000D01*
X238735000Y-36360000D02*
X238735000Y-33960000D01*
X238460000Y-33960000D02*
X238460000Y-36360000D01*
X219285000Y-33960000D02*
X219285000Y-36360000D01*
X225285000Y-33960000D02*
X219285000Y-33960000D01*
X225285000Y-36360000D02*
X225285000Y-33960000D01*
X219285000Y-36360000D02*
X225285000Y-36360000D01*
X219560000Y-36360000D02*
X219560000Y-33960000D01*
X219685000Y-36360000D02*
X219685000Y-33960000D01*
X219410000Y-33960000D02*
X219410000Y-36360000D01*
X200235000Y-33960000D02*
X200235000Y-36360000D01*
X206235000Y-33960000D02*
X200235000Y-33960000D01*
X206235000Y-36360000D02*
X206235000Y-33960000D01*
X200235000Y-36360000D02*
X206235000Y-36360000D01*
X200510000Y-36360000D02*
X200510000Y-33960000D01*
X200635000Y-36360000D02*
X200635000Y-33960000D01*
X200360000Y-33960000D02*
X200360000Y-36360000D01*
X181185000Y-33960000D02*
X181185000Y-36360000D01*
X187185000Y-33960000D02*
X181185000Y-33960000D01*
X187185000Y-36360000D02*
X187185000Y-33960000D01*
X181185000Y-36360000D02*
X187185000Y-36360000D01*
X181460000Y-36360000D02*
X181460000Y-33960000D01*
X181585000Y-36360000D02*
X181585000Y-33960000D01*
X181310000Y-33960000D02*
X181310000Y-36360000D01*
X162135000Y-33960000D02*
X162135000Y-36360000D01*
X168135000Y-33960000D02*
X162135000Y-33960000D01*
X168135000Y-36360000D02*
X168135000Y-33960000D01*
X162135000Y-36360000D02*
X168135000Y-36360000D01*
X162410000Y-36360000D02*
X162410000Y-33960000D01*
X162535000Y-36360000D02*
X162535000Y-33960000D01*
X162260000Y-33960000D02*
X162260000Y-36360000D01*
X143085000Y-33960000D02*
X143085000Y-36360000D01*
X149085000Y-33960000D02*
X143085000Y-33960000D01*
X149085000Y-36360000D02*
X149085000Y-33960000D01*
X143085000Y-36360000D02*
X149085000Y-36360000D01*
X143360000Y-36360000D02*
X143360000Y-33960000D01*
X143485000Y-36360000D02*
X143485000Y-33960000D01*
X143210000Y-33960000D02*
X143210000Y-36360000D01*
X124035000Y-33960000D02*
X124035000Y-36360000D01*
X130035000Y-33960000D02*
X124035000Y-33960000D01*
X130035000Y-36360000D02*
X130035000Y-33960000D01*
X124035000Y-36360000D02*
X130035000Y-36360000D01*
X124310000Y-36360000D02*
X124310000Y-33960000D01*
X124435000Y-36360000D02*
X124435000Y-33960000D01*
X124160000Y-33960000D02*
X124160000Y-36360000D01*
X104985000Y-33960000D02*
X104985000Y-36360000D01*
X110985000Y-33960000D02*
X104985000Y-33960000D01*
X110985000Y-36360000D02*
X110985000Y-33960000D01*
X104985000Y-36360000D02*
X110985000Y-36360000D01*
X105260000Y-36360000D02*
X105260000Y-33960000D01*
X105385000Y-36360000D02*
X105385000Y-33960000D01*
X105110000Y-33960000D02*
X105110000Y-36360000D01*
X85935000Y-33960000D02*
X85935000Y-36360000D01*
X91935000Y-33960000D02*
X85935000Y-33960000D01*
X91935000Y-36360000D02*
X91935000Y-33960000D01*
X85935000Y-36360000D02*
X91935000Y-36360000D01*
X86210000Y-36360000D02*
X86210000Y-33960000D01*
X86335000Y-36360000D02*
X86335000Y-33960000D01*
X86060000Y-33960000D02*
X86060000Y-36360000D01*
X66885000Y-33960000D02*
X66885000Y-36360000D01*
X72885000Y-33960000D02*
X66885000Y-33960000D01*
X72885000Y-36360000D02*
X72885000Y-33960000D01*
X66885000Y-36360000D02*
X72885000Y-36360000D01*
X67160000Y-36360000D02*
X67160000Y-33960000D01*
X67285000Y-36360000D02*
X67285000Y-33960000D01*
X67010000Y-33960000D02*
X67010000Y-36360000D01*
X47835000Y-33960000D02*
X47835000Y-36360000D01*
X53835000Y-33960000D02*
X47835000Y-33960000D01*
X53835000Y-36360000D02*
X53835000Y-33960000D01*
X47835000Y-36360000D02*
X53835000Y-36360000D01*
X48110000Y-36360000D02*
X48110000Y-33960000D01*
X48235000Y-36360000D02*
X48235000Y-33960000D01*
X47960000Y-33960000D02*
X47960000Y-36360000D01*
X19260000Y-33960000D02*
X19260000Y-36360000D01*
X25260000Y-33960000D02*
X19260000Y-33960000D01*
X25260000Y-36360000D02*
X25260000Y-33960000D01*
X19260000Y-36360000D02*
X25260000Y-36360000D01*
X19535000Y-36360000D02*
X19535000Y-33960000D01*
X19660000Y-36360000D02*
X19660000Y-33960000D01*
X19385000Y-33960000D02*
X19385000Y-36360000D01*
D11*
X25371267Y-59060000D02*
X25028733Y-59060000D01*
X25371267Y-58040000D02*
X25028733Y-58040000D01*
X39078733Y-24240000D02*
X39421267Y-24240000D01*
X39078733Y-25260000D02*
X39421267Y-25260000D01*
X45228733Y-59515000D02*
X45571267Y-59515000D01*
X45228733Y-60535000D02*
X45571267Y-60535000D01*
X29085480Y-56456729D02*
X28843271Y-56214520D01*
X29806729Y-55735480D02*
X29564520Y-55493271D01*
X29931729Y-60489520D02*
X29689520Y-60731729D01*
X29210480Y-59768271D02*
X28968271Y-60010480D01*
X36237500Y-49346267D02*
X36237500Y-49003733D01*
X37257500Y-49346267D02*
X37257500Y-49003733D01*
D10*
X38033333Y-75502380D02*
X38366666Y-75026190D01*
X38604761Y-75502380D02*
X38604761Y-74502380D01*
X38223809Y-74502380D01*
X38128571Y-74550000D01*
X38080952Y-74597619D01*
X38033333Y-74692857D01*
X38033333Y-74835714D01*
X38080952Y-74930952D01*
X38128571Y-74978571D01*
X38223809Y-75026190D01*
X38604761Y-75026190D01*
X37604761Y-74978571D02*
X37271428Y-74978571D01*
X37128571Y-75502380D02*
X37604761Y-75502380D01*
X37604761Y-74502380D01*
X37128571Y-74502380D01*
X36366666Y-74978571D02*
X36700000Y-74978571D01*
X36700000Y-75502380D02*
X36700000Y-74502380D01*
X36223809Y-74502380D01*
X35700000Y-74502380D02*
X35700000Y-74740476D01*
X35938095Y-74645238D02*
X35700000Y-74740476D01*
X35461904Y-74645238D01*
X35842857Y-74930952D02*
X35700000Y-74740476D01*
X35557142Y-74930952D01*
X34938095Y-74502380D02*
X34938095Y-74740476D01*
X35176190Y-74645238D02*
X34938095Y-74740476D01*
X34700000Y-74645238D01*
X35080952Y-74930952D02*
X34938095Y-74740476D01*
X34795238Y-74930952D01*
X43032106Y-52366328D02*
X42695388Y-52703046D01*
X43638197Y-52231641D02*
X43032106Y-52366328D01*
X43166793Y-51760237D01*
X41853595Y-51861252D02*
X42257656Y-52265313D01*
X42055625Y-52063282D02*
X42762732Y-51356176D01*
X42729060Y-51524534D01*
X42729060Y-51659221D01*
X42762732Y-51760237D01*
X34265218Y-62214777D02*
X33692798Y-62787197D01*
X33591783Y-62820869D01*
X33524439Y-62820869D01*
X33423424Y-62787197D01*
X33288737Y-62652510D01*
X33255065Y-62551495D01*
X33255065Y-62484151D01*
X33288737Y-62383136D01*
X33861157Y-61810716D01*
X32446943Y-61810716D02*
X32851004Y-62214777D01*
X32648974Y-62012747D02*
X33356080Y-61305640D01*
X33322409Y-61473999D01*
X33322409Y-61608686D01*
X33356080Y-61709701D01*
X33402261Y-37666666D02*
X33449880Y-37809523D01*
X33449880Y-38047619D01*
X33402261Y-38142857D01*
X33354642Y-38190476D01*
X33259404Y-38238095D01*
X33164166Y-38238095D01*
X33068928Y-38190476D01*
X33021309Y-38142857D01*
X32973690Y-38047619D01*
X32926071Y-37857142D01*
X32878452Y-37761904D01*
X32830833Y-37714285D01*
X32735595Y-37666666D01*
X32640357Y-37666666D01*
X32545119Y-37714285D01*
X32497500Y-37761904D01*
X32449880Y-37857142D01*
X32449880Y-38095238D01*
X32497500Y-38238095D01*
X32449880Y-38571428D02*
X33449880Y-38809523D01*
X32735595Y-39000000D01*
X33449880Y-39190476D01*
X32449880Y-39428571D01*
X33449880Y-40333333D02*
X33449880Y-39761904D01*
X33449880Y-40047619D02*
X32449880Y-40047619D01*
X32592738Y-39952380D01*
X32687976Y-39857142D01*
X32735595Y-39761904D01*
X41891666Y-65097380D02*
X42225000Y-64621190D01*
X42463095Y-65097380D02*
X42463095Y-64097380D01*
X42082142Y-64097380D01*
X41986904Y-64145000D01*
X41939285Y-64192619D01*
X41891666Y-64287857D01*
X41891666Y-64430714D01*
X41939285Y-64525952D01*
X41986904Y-64573571D01*
X42082142Y-64621190D01*
X42463095Y-64621190D01*
X41034523Y-64430714D02*
X41034523Y-65097380D01*
X41272619Y-64049761D02*
X41510714Y-64764047D01*
X40891666Y-64764047D01*
X43107380Y-41333333D02*
X42631190Y-41000000D01*
X43107380Y-40761904D02*
X42107380Y-40761904D01*
X42107380Y-41142857D01*
X42155000Y-41238095D01*
X42202619Y-41285714D01*
X42297857Y-41333333D01*
X42440714Y-41333333D01*
X42535952Y-41285714D01*
X42583571Y-41238095D01*
X42631190Y-41142857D01*
X42631190Y-40761904D01*
X42107380Y-41666666D02*
X42107380Y-42285714D01*
X42488333Y-41952380D01*
X42488333Y-42095238D01*
X42535952Y-42190476D01*
X42583571Y-42238095D01*
X42678809Y-42285714D01*
X42916904Y-42285714D01*
X43012142Y-42238095D01*
X43059761Y-42190476D01*
X43107380Y-42095238D01*
X43107380Y-41809523D01*
X43059761Y-41714285D01*
X43012142Y-41666666D01*
X40629880Y-48488333D02*
X40153690Y-48155000D01*
X40629880Y-47916904D02*
X39629880Y-47916904D01*
X39629880Y-48297857D01*
X39677500Y-48393095D01*
X39725119Y-48440714D01*
X39820357Y-48488333D01*
X39963214Y-48488333D01*
X40058452Y-48440714D01*
X40106071Y-48393095D01*
X40153690Y-48297857D01*
X40153690Y-47916904D01*
X39725119Y-48869285D02*
X39677500Y-48916904D01*
X39629880Y-49012142D01*
X39629880Y-49250238D01*
X39677500Y-49345476D01*
X39725119Y-49393095D01*
X39820357Y-49440714D01*
X39915595Y-49440714D01*
X40058452Y-49393095D01*
X40629880Y-48821666D01*
X40629880Y-49440714D01*
X36629880Y-48488333D02*
X36153690Y-48155000D01*
X36629880Y-47916904D02*
X35629880Y-47916904D01*
X35629880Y-48297857D01*
X35677500Y-48393095D01*
X35725119Y-48440714D01*
X35820357Y-48488333D01*
X35963214Y-48488333D01*
X36058452Y-48440714D01*
X36106071Y-48393095D01*
X36153690Y-48297857D01*
X36153690Y-47916904D01*
X36629880Y-49440714D02*
X36629880Y-48869285D01*
X36629880Y-49155000D02*
X35629880Y-49155000D01*
X35772738Y-49059761D01*
X35867976Y-48964523D01*
X35915595Y-48869285D01*
X37080833Y-17742380D02*
X37080833Y-18456666D01*
X37128452Y-18599523D01*
X37223690Y-18694761D01*
X37366547Y-18742380D01*
X37461785Y-18742380D01*
X36080833Y-18742380D02*
X36652261Y-18742380D01*
X36366547Y-18742380D02*
X36366547Y-17742380D01*
X36461785Y-17885238D01*
X36557023Y-17980476D01*
X36652261Y-18028095D01*
X261556428Y-90746904D02*
X261556428Y-89946904D01*
X261365952Y-89946904D01*
X261251666Y-89985000D01*
X261175476Y-90061190D01*
X261137380Y-90137380D01*
X261099285Y-90289761D01*
X261099285Y-90404047D01*
X261137380Y-90556428D01*
X261175476Y-90632619D01*
X261251666Y-90708809D01*
X261365952Y-90746904D01*
X261556428Y-90746904D01*
X260375476Y-89946904D02*
X260756428Y-89946904D01*
X260794523Y-90327857D01*
X260756428Y-90289761D01*
X260680238Y-90251666D01*
X260489761Y-90251666D01*
X260413571Y-90289761D01*
X260375476Y-90327857D01*
X260337380Y-90404047D01*
X260337380Y-90594523D01*
X260375476Y-90670714D01*
X260413571Y-90708809D01*
X260489761Y-90746904D01*
X260680238Y-90746904D01*
X260756428Y-90708809D01*
X260794523Y-90670714D01*
X260032619Y-90023095D02*
X259994523Y-89985000D01*
X259918333Y-89946904D01*
X259727857Y-89946904D01*
X259651666Y-89985000D01*
X259613571Y-90023095D01*
X259575476Y-90099285D01*
X259575476Y-90175476D01*
X259613571Y-90289761D01*
X260070714Y-90746904D01*
X259575476Y-90746904D01*
X242506428Y-90746904D02*
X242506428Y-89946904D01*
X242315952Y-89946904D01*
X242201666Y-89985000D01*
X242125476Y-90061190D01*
X242087380Y-90137380D01*
X242049285Y-90289761D01*
X242049285Y-90404047D01*
X242087380Y-90556428D01*
X242125476Y-90632619D01*
X242201666Y-90708809D01*
X242315952Y-90746904D01*
X242506428Y-90746904D01*
X241325476Y-89946904D02*
X241706428Y-89946904D01*
X241744523Y-90327857D01*
X241706428Y-90289761D01*
X241630238Y-90251666D01*
X241439761Y-90251666D01*
X241363571Y-90289761D01*
X241325476Y-90327857D01*
X241287380Y-90404047D01*
X241287380Y-90594523D01*
X241325476Y-90670714D01*
X241363571Y-90708809D01*
X241439761Y-90746904D01*
X241630238Y-90746904D01*
X241706428Y-90708809D01*
X241744523Y-90670714D01*
X240525476Y-90746904D02*
X240982619Y-90746904D01*
X240754047Y-90746904D02*
X240754047Y-89946904D01*
X240830238Y-90061190D01*
X240906428Y-90137380D01*
X240982619Y-90175476D01*
X223456428Y-90746904D02*
X223456428Y-89946904D01*
X223265952Y-89946904D01*
X223151666Y-89985000D01*
X223075476Y-90061190D01*
X223037380Y-90137380D01*
X222999285Y-90289761D01*
X222999285Y-90404047D01*
X223037380Y-90556428D01*
X223075476Y-90632619D01*
X223151666Y-90708809D01*
X223265952Y-90746904D01*
X223456428Y-90746904D01*
X222275476Y-89946904D02*
X222656428Y-89946904D01*
X222694523Y-90327857D01*
X222656428Y-90289761D01*
X222580238Y-90251666D01*
X222389761Y-90251666D01*
X222313571Y-90289761D01*
X222275476Y-90327857D01*
X222237380Y-90404047D01*
X222237380Y-90594523D01*
X222275476Y-90670714D01*
X222313571Y-90708809D01*
X222389761Y-90746904D01*
X222580238Y-90746904D01*
X222656428Y-90708809D01*
X222694523Y-90670714D01*
X221742142Y-89946904D02*
X221665952Y-89946904D01*
X221589761Y-89985000D01*
X221551666Y-90023095D01*
X221513571Y-90099285D01*
X221475476Y-90251666D01*
X221475476Y-90442142D01*
X221513571Y-90594523D01*
X221551666Y-90670714D01*
X221589761Y-90708809D01*
X221665952Y-90746904D01*
X221742142Y-90746904D01*
X221818333Y-90708809D01*
X221856428Y-90670714D01*
X221894523Y-90594523D01*
X221932619Y-90442142D01*
X221932619Y-90251666D01*
X221894523Y-90099285D01*
X221856428Y-90023095D01*
X221818333Y-89985000D01*
X221742142Y-89946904D01*
X204406428Y-90746904D02*
X204406428Y-89946904D01*
X204215952Y-89946904D01*
X204101666Y-89985000D01*
X204025476Y-90061190D01*
X203987380Y-90137380D01*
X203949285Y-90289761D01*
X203949285Y-90404047D01*
X203987380Y-90556428D01*
X204025476Y-90632619D01*
X204101666Y-90708809D01*
X204215952Y-90746904D01*
X204406428Y-90746904D01*
X203263571Y-90213571D02*
X203263571Y-90746904D01*
X203454047Y-89908809D02*
X203644523Y-90480238D01*
X203149285Y-90480238D01*
X202806428Y-90746904D02*
X202654047Y-90746904D01*
X202577857Y-90708809D01*
X202539761Y-90670714D01*
X202463571Y-90556428D01*
X202425476Y-90404047D01*
X202425476Y-90099285D01*
X202463571Y-90023095D01*
X202501666Y-89985000D01*
X202577857Y-89946904D01*
X202730238Y-89946904D01*
X202806428Y-89985000D01*
X202844523Y-90023095D01*
X202882619Y-90099285D01*
X202882619Y-90289761D01*
X202844523Y-90365952D01*
X202806428Y-90404047D01*
X202730238Y-90442142D01*
X202577857Y-90442142D01*
X202501666Y-90404047D01*
X202463571Y-90365952D01*
X202425476Y-90289761D01*
X179975178Y-90746904D02*
X179975178Y-89946904D01*
X179784702Y-89946904D01*
X179670416Y-89985000D01*
X179594226Y-90061190D01*
X179556130Y-90137380D01*
X179518035Y-90289761D01*
X179518035Y-90404047D01*
X179556130Y-90556428D01*
X179594226Y-90632619D01*
X179670416Y-90708809D01*
X179784702Y-90746904D01*
X179975178Y-90746904D01*
X178832321Y-90213571D02*
X178832321Y-90746904D01*
X179022797Y-89908809D02*
X179213273Y-90480238D01*
X178718035Y-90480238D01*
X178298988Y-90289761D02*
X178375178Y-90251666D01*
X178413273Y-90213571D01*
X178451369Y-90137380D01*
X178451369Y-90099285D01*
X178413273Y-90023095D01*
X178375178Y-89985000D01*
X178298988Y-89946904D01*
X178146607Y-89946904D01*
X178070416Y-89985000D01*
X178032321Y-90023095D01*
X177994226Y-90099285D01*
X177994226Y-90137380D01*
X178032321Y-90213571D01*
X178070416Y-90251666D01*
X178146607Y-90289761D01*
X178298988Y-90289761D01*
X178375178Y-90327857D01*
X178413273Y-90365952D01*
X178451369Y-90442142D01*
X178451369Y-90594523D01*
X178413273Y-90670714D01*
X178375178Y-90708809D01*
X178298988Y-90746904D01*
X178146607Y-90746904D01*
X178070416Y-90708809D01*
X178032321Y-90670714D01*
X177994226Y-90594523D01*
X177994226Y-90442142D01*
X178032321Y-90365952D01*
X178070416Y-90327857D01*
X178146607Y-90289761D01*
X156781428Y-90746904D02*
X156781428Y-89946904D01*
X156590952Y-89946904D01*
X156476666Y-89985000D01*
X156400476Y-90061190D01*
X156362380Y-90137380D01*
X156324285Y-90289761D01*
X156324285Y-90404047D01*
X156362380Y-90556428D01*
X156400476Y-90632619D01*
X156476666Y-90708809D01*
X156590952Y-90746904D01*
X156781428Y-90746904D01*
X155638571Y-90213571D02*
X155638571Y-90746904D01*
X155829047Y-89908809D02*
X156019523Y-90480238D01*
X155524285Y-90480238D01*
X155295714Y-89946904D02*
X154762380Y-89946904D01*
X155105238Y-90746904D01*
X138350178Y-90746904D02*
X138350178Y-89946904D01*
X138159702Y-89946904D01*
X138045416Y-89985000D01*
X137969226Y-90061190D01*
X137931130Y-90137380D01*
X137893035Y-90289761D01*
X137893035Y-90404047D01*
X137931130Y-90556428D01*
X137969226Y-90632619D01*
X138045416Y-90708809D01*
X138159702Y-90746904D01*
X138350178Y-90746904D01*
X137207321Y-90213571D02*
X137207321Y-90746904D01*
X137397797Y-89908809D02*
X137588273Y-90480238D01*
X137093035Y-90480238D01*
X136445416Y-89946904D02*
X136597797Y-89946904D01*
X136673988Y-89985000D01*
X136712083Y-90023095D01*
X136788273Y-90137380D01*
X136826369Y-90289761D01*
X136826369Y-90594523D01*
X136788273Y-90670714D01*
X136750178Y-90708809D01*
X136673988Y-90746904D01*
X136521607Y-90746904D01*
X136445416Y-90708809D01*
X136407321Y-90670714D01*
X136369226Y-90594523D01*
X136369226Y-90404047D01*
X136407321Y-90327857D01*
X136445416Y-90289761D01*
X136521607Y-90251666D01*
X136673988Y-90251666D01*
X136750178Y-90289761D01*
X136788273Y-90327857D01*
X136826369Y-90404047D01*
X131350178Y-90746904D02*
X131350178Y-89946904D01*
X131159702Y-89946904D01*
X131045416Y-89985000D01*
X130969226Y-90061190D01*
X130931130Y-90137380D01*
X130893035Y-90289761D01*
X130893035Y-90404047D01*
X130931130Y-90556428D01*
X130969226Y-90632619D01*
X131045416Y-90708809D01*
X131159702Y-90746904D01*
X131350178Y-90746904D01*
X130207321Y-90213571D02*
X130207321Y-90746904D01*
X130397797Y-89908809D02*
X130588273Y-90480238D01*
X130093035Y-90480238D01*
X129407321Y-89946904D02*
X129788273Y-89946904D01*
X129826369Y-90327857D01*
X129788273Y-90289761D01*
X129712083Y-90251666D01*
X129521607Y-90251666D01*
X129445416Y-90289761D01*
X129407321Y-90327857D01*
X129369226Y-90404047D01*
X129369226Y-90594523D01*
X129407321Y-90670714D01*
X129445416Y-90708809D01*
X129521607Y-90746904D01*
X129712083Y-90746904D01*
X129788273Y-90708809D01*
X129826369Y-90670714D01*
X106775178Y-90746904D02*
X106775178Y-89946904D01*
X106584702Y-89946904D01*
X106470416Y-89985000D01*
X106394226Y-90061190D01*
X106356130Y-90137380D01*
X106318035Y-90289761D01*
X106318035Y-90404047D01*
X106356130Y-90556428D01*
X106394226Y-90632619D01*
X106470416Y-90708809D01*
X106584702Y-90746904D01*
X106775178Y-90746904D01*
X105632321Y-90213571D02*
X105632321Y-90746904D01*
X105822797Y-89908809D02*
X106013273Y-90480238D01*
X105518035Y-90480238D01*
X104870416Y-90213571D02*
X104870416Y-90746904D01*
X105060892Y-89908809D02*
X105251369Y-90480238D01*
X104756130Y-90480238D01*
X87725178Y-90746904D02*
X87725178Y-89946904D01*
X87534702Y-89946904D01*
X87420416Y-89985000D01*
X87344226Y-90061190D01*
X87306130Y-90137380D01*
X87268035Y-90289761D01*
X87268035Y-90404047D01*
X87306130Y-90556428D01*
X87344226Y-90632619D01*
X87420416Y-90708809D01*
X87534702Y-90746904D01*
X87725178Y-90746904D01*
X86582321Y-90213571D02*
X86582321Y-90746904D01*
X86772797Y-89908809D02*
X86963273Y-90480238D01*
X86468035Y-90480238D01*
X86239464Y-89946904D02*
X85744226Y-89946904D01*
X86010892Y-90251666D01*
X85896607Y-90251666D01*
X85820416Y-90289761D01*
X85782321Y-90327857D01*
X85744226Y-90404047D01*
X85744226Y-90594523D01*
X85782321Y-90670714D01*
X85820416Y-90708809D01*
X85896607Y-90746904D01*
X86125178Y-90746904D01*
X86201369Y-90708809D01*
X86239464Y-90670714D01*
X74628303Y-90746904D02*
X74628303Y-89946904D01*
X74437827Y-89946904D01*
X74323541Y-89985000D01*
X74247351Y-90061190D01*
X74209255Y-90137380D01*
X74171160Y-90289761D01*
X74171160Y-90404047D01*
X74209255Y-90556428D01*
X74247351Y-90632619D01*
X74323541Y-90708809D01*
X74437827Y-90746904D01*
X74628303Y-90746904D01*
X73485446Y-90213571D02*
X73485446Y-90746904D01*
X73675922Y-89908809D02*
X73866398Y-90480238D01*
X73371160Y-90480238D01*
X73104494Y-90023095D02*
X73066398Y-89985000D01*
X72990208Y-89946904D01*
X72799732Y-89946904D01*
X72723541Y-89985000D01*
X72685446Y-90023095D01*
X72647351Y-90099285D01*
X72647351Y-90175476D01*
X72685446Y-90289761D01*
X73142589Y-90746904D01*
X72647351Y-90746904D01*
X52006428Y-90746904D02*
X52006428Y-89946904D01*
X51815952Y-89946904D01*
X51701666Y-89985000D01*
X51625476Y-90061190D01*
X51587380Y-90137380D01*
X51549285Y-90289761D01*
X51549285Y-90404047D01*
X51587380Y-90556428D01*
X51625476Y-90632619D01*
X51701666Y-90708809D01*
X51815952Y-90746904D01*
X52006428Y-90746904D01*
X50863571Y-90213571D02*
X50863571Y-90746904D01*
X51054047Y-89908809D02*
X51244523Y-90480238D01*
X50749285Y-90480238D01*
X50025476Y-90746904D02*
X50482619Y-90746904D01*
X50254047Y-90746904D02*
X50254047Y-89946904D01*
X50330238Y-90061190D01*
X50406428Y-90137380D01*
X50482619Y-90175476D01*
X23431428Y-90746904D02*
X23431428Y-89946904D01*
X23240952Y-89946904D01*
X23126666Y-89985000D01*
X23050476Y-90061190D01*
X23012380Y-90137380D01*
X22974285Y-90289761D01*
X22974285Y-90404047D01*
X23012380Y-90556428D01*
X23050476Y-90632619D01*
X23126666Y-90708809D01*
X23240952Y-90746904D01*
X23431428Y-90746904D01*
X22288571Y-90213571D02*
X22288571Y-90746904D01*
X22479047Y-89908809D02*
X22669523Y-90480238D01*
X22174285Y-90480238D01*
X21717142Y-89946904D02*
X21640952Y-89946904D01*
X21564761Y-89985000D01*
X21526666Y-90023095D01*
X21488571Y-90099285D01*
X21450476Y-90251666D01*
X21450476Y-90442142D01*
X21488571Y-90594523D01*
X21526666Y-90670714D01*
X21564761Y-90708809D01*
X21640952Y-90746904D01*
X21717142Y-90746904D01*
X21793333Y-90708809D01*
X21831428Y-90670714D01*
X21869523Y-90594523D01*
X21907619Y-90442142D01*
X21907619Y-90251666D01*
X21869523Y-90099285D01*
X21831428Y-90023095D01*
X21793333Y-89985000D01*
X21717142Y-89946904D01*
X259175178Y-71696904D02*
X259175178Y-70896904D01*
X258984702Y-70896904D01*
X258870416Y-70935000D01*
X258794226Y-71011190D01*
X258756130Y-71087380D01*
X258718035Y-71239761D01*
X258718035Y-71354047D01*
X258756130Y-71506428D01*
X258794226Y-71582619D01*
X258870416Y-71658809D01*
X258984702Y-71696904D01*
X259175178Y-71696904D01*
X258451369Y-70896904D02*
X257956130Y-70896904D01*
X258222797Y-71201666D01*
X258108511Y-71201666D01*
X258032321Y-71239761D01*
X257994226Y-71277857D01*
X257956130Y-71354047D01*
X257956130Y-71544523D01*
X257994226Y-71620714D01*
X258032321Y-71658809D01*
X258108511Y-71696904D01*
X258337083Y-71696904D01*
X258413273Y-71658809D01*
X258451369Y-71620714D01*
X257575178Y-71696904D02*
X257422797Y-71696904D01*
X257346607Y-71658809D01*
X257308511Y-71620714D01*
X257232321Y-71506428D01*
X257194226Y-71354047D01*
X257194226Y-71049285D01*
X257232321Y-70973095D01*
X257270416Y-70935000D01*
X257346607Y-70896904D01*
X257498988Y-70896904D01*
X257575178Y-70935000D01*
X257613273Y-70973095D01*
X257651369Y-71049285D01*
X257651369Y-71239761D01*
X257613273Y-71315952D01*
X257575178Y-71354047D01*
X257498988Y-71392142D01*
X257346607Y-71392142D01*
X257270416Y-71354047D01*
X257232321Y-71315952D01*
X257194226Y-71239761D01*
X240125178Y-71696904D02*
X240125178Y-70896904D01*
X239934702Y-70896904D01*
X239820416Y-70935000D01*
X239744226Y-71011190D01*
X239706130Y-71087380D01*
X239668035Y-71239761D01*
X239668035Y-71354047D01*
X239706130Y-71506428D01*
X239744226Y-71582619D01*
X239820416Y-71658809D01*
X239934702Y-71696904D01*
X240125178Y-71696904D01*
X239401369Y-70896904D02*
X238906130Y-70896904D01*
X239172797Y-71201666D01*
X239058511Y-71201666D01*
X238982321Y-71239761D01*
X238944226Y-71277857D01*
X238906130Y-71354047D01*
X238906130Y-71544523D01*
X238944226Y-71620714D01*
X238982321Y-71658809D01*
X239058511Y-71696904D01*
X239287083Y-71696904D01*
X239363273Y-71658809D01*
X239401369Y-71620714D01*
X238448988Y-71239761D02*
X238525178Y-71201666D01*
X238563273Y-71163571D01*
X238601369Y-71087380D01*
X238601369Y-71049285D01*
X238563273Y-70973095D01*
X238525178Y-70935000D01*
X238448988Y-70896904D01*
X238296607Y-70896904D01*
X238220416Y-70935000D01*
X238182321Y-70973095D01*
X238144226Y-71049285D01*
X238144226Y-71087380D01*
X238182321Y-71163571D01*
X238220416Y-71201666D01*
X238296607Y-71239761D01*
X238448988Y-71239761D01*
X238525178Y-71277857D01*
X238563273Y-71315952D01*
X238601369Y-71392142D01*
X238601369Y-71544523D01*
X238563273Y-71620714D01*
X238525178Y-71658809D01*
X238448988Y-71696904D01*
X238296607Y-71696904D01*
X238220416Y-71658809D01*
X238182321Y-71620714D01*
X238144226Y-71544523D01*
X238144226Y-71392142D01*
X238182321Y-71315952D01*
X238220416Y-71277857D01*
X238296607Y-71239761D01*
X221075178Y-71696904D02*
X221075178Y-70896904D01*
X220884702Y-70896904D01*
X220770416Y-70935000D01*
X220694226Y-71011190D01*
X220656130Y-71087380D01*
X220618035Y-71239761D01*
X220618035Y-71354047D01*
X220656130Y-71506428D01*
X220694226Y-71582619D01*
X220770416Y-71658809D01*
X220884702Y-71696904D01*
X221075178Y-71696904D01*
X220351369Y-70896904D02*
X219856130Y-70896904D01*
X220122797Y-71201666D01*
X220008511Y-71201666D01*
X219932321Y-71239761D01*
X219894226Y-71277857D01*
X219856130Y-71354047D01*
X219856130Y-71544523D01*
X219894226Y-71620714D01*
X219932321Y-71658809D01*
X220008511Y-71696904D01*
X220237083Y-71696904D01*
X220313273Y-71658809D01*
X220351369Y-71620714D01*
X219589464Y-70896904D02*
X219056130Y-70896904D01*
X219398988Y-71696904D01*
X202025178Y-71696904D02*
X202025178Y-70896904D01*
X201834702Y-70896904D01*
X201720416Y-70935000D01*
X201644226Y-71011190D01*
X201606130Y-71087380D01*
X201568035Y-71239761D01*
X201568035Y-71354047D01*
X201606130Y-71506428D01*
X201644226Y-71582619D01*
X201720416Y-71658809D01*
X201834702Y-71696904D01*
X202025178Y-71696904D01*
X201301369Y-70896904D02*
X200806130Y-70896904D01*
X201072797Y-71201666D01*
X200958511Y-71201666D01*
X200882321Y-71239761D01*
X200844226Y-71277857D01*
X200806130Y-71354047D01*
X200806130Y-71544523D01*
X200844226Y-71620714D01*
X200882321Y-71658809D01*
X200958511Y-71696904D01*
X201187083Y-71696904D01*
X201263273Y-71658809D01*
X201301369Y-71620714D01*
X200120416Y-70896904D02*
X200272797Y-70896904D01*
X200348988Y-70935000D01*
X200387083Y-70973095D01*
X200463273Y-71087380D01*
X200501369Y-71239761D01*
X200501369Y-71544523D01*
X200463273Y-71620714D01*
X200425178Y-71658809D01*
X200348988Y-71696904D01*
X200196607Y-71696904D01*
X200120416Y-71658809D01*
X200082321Y-71620714D01*
X200044226Y-71544523D01*
X200044226Y-71354047D01*
X200082321Y-71277857D01*
X200120416Y-71239761D01*
X200196607Y-71201666D01*
X200348988Y-71201666D01*
X200425178Y-71239761D01*
X200463273Y-71277857D01*
X200501369Y-71354047D01*
X182975178Y-71696904D02*
X182975178Y-70896904D01*
X182784702Y-70896904D01*
X182670416Y-70935000D01*
X182594226Y-71011190D01*
X182556130Y-71087380D01*
X182518035Y-71239761D01*
X182518035Y-71354047D01*
X182556130Y-71506428D01*
X182594226Y-71582619D01*
X182670416Y-71658809D01*
X182784702Y-71696904D01*
X182975178Y-71696904D01*
X182251369Y-70896904D02*
X181756130Y-70896904D01*
X182022797Y-71201666D01*
X181908511Y-71201666D01*
X181832321Y-71239761D01*
X181794226Y-71277857D01*
X181756130Y-71354047D01*
X181756130Y-71544523D01*
X181794226Y-71620714D01*
X181832321Y-71658809D01*
X181908511Y-71696904D01*
X182137083Y-71696904D01*
X182213273Y-71658809D01*
X182251369Y-71620714D01*
X181032321Y-70896904D02*
X181413273Y-70896904D01*
X181451369Y-71277857D01*
X181413273Y-71239761D01*
X181337083Y-71201666D01*
X181146607Y-71201666D01*
X181070416Y-71239761D01*
X181032321Y-71277857D01*
X180994226Y-71354047D01*
X180994226Y-71544523D01*
X181032321Y-71620714D01*
X181070416Y-71658809D01*
X181146607Y-71696904D01*
X181337083Y-71696904D01*
X181413273Y-71658809D01*
X181451369Y-71620714D01*
X163925178Y-71696904D02*
X163925178Y-70896904D01*
X163734702Y-70896904D01*
X163620416Y-70935000D01*
X163544226Y-71011190D01*
X163506130Y-71087380D01*
X163468035Y-71239761D01*
X163468035Y-71354047D01*
X163506130Y-71506428D01*
X163544226Y-71582619D01*
X163620416Y-71658809D01*
X163734702Y-71696904D01*
X163925178Y-71696904D01*
X163201369Y-70896904D02*
X162706130Y-70896904D01*
X162972797Y-71201666D01*
X162858511Y-71201666D01*
X162782321Y-71239761D01*
X162744226Y-71277857D01*
X162706130Y-71354047D01*
X162706130Y-71544523D01*
X162744226Y-71620714D01*
X162782321Y-71658809D01*
X162858511Y-71696904D01*
X163087083Y-71696904D01*
X163163273Y-71658809D01*
X163201369Y-71620714D01*
X162020416Y-71163571D02*
X162020416Y-71696904D01*
X162210892Y-70858809D02*
X162401369Y-71430238D01*
X161906130Y-71430238D01*
X144875178Y-71696904D02*
X144875178Y-70896904D01*
X144684702Y-70896904D01*
X144570416Y-70935000D01*
X144494226Y-71011190D01*
X144456130Y-71087380D01*
X144418035Y-71239761D01*
X144418035Y-71354047D01*
X144456130Y-71506428D01*
X144494226Y-71582619D01*
X144570416Y-71658809D01*
X144684702Y-71696904D01*
X144875178Y-71696904D01*
X144151369Y-70896904D02*
X143656130Y-70896904D01*
X143922797Y-71201666D01*
X143808511Y-71201666D01*
X143732321Y-71239761D01*
X143694226Y-71277857D01*
X143656130Y-71354047D01*
X143656130Y-71544523D01*
X143694226Y-71620714D01*
X143732321Y-71658809D01*
X143808511Y-71696904D01*
X144037083Y-71696904D01*
X144113273Y-71658809D01*
X144151369Y-71620714D01*
X143389464Y-70896904D02*
X142894226Y-70896904D01*
X143160892Y-71201666D01*
X143046607Y-71201666D01*
X142970416Y-71239761D01*
X142932321Y-71277857D01*
X142894226Y-71354047D01*
X142894226Y-71544523D01*
X142932321Y-71620714D01*
X142970416Y-71658809D01*
X143046607Y-71696904D01*
X143275178Y-71696904D01*
X143351369Y-71658809D01*
X143389464Y-71620714D01*
X125825178Y-71696904D02*
X125825178Y-70896904D01*
X125634702Y-70896904D01*
X125520416Y-70935000D01*
X125444226Y-71011190D01*
X125406130Y-71087380D01*
X125368035Y-71239761D01*
X125368035Y-71354047D01*
X125406130Y-71506428D01*
X125444226Y-71582619D01*
X125520416Y-71658809D01*
X125634702Y-71696904D01*
X125825178Y-71696904D01*
X125101369Y-70896904D02*
X124606130Y-70896904D01*
X124872797Y-71201666D01*
X124758511Y-71201666D01*
X124682321Y-71239761D01*
X124644226Y-71277857D01*
X124606130Y-71354047D01*
X124606130Y-71544523D01*
X124644226Y-71620714D01*
X124682321Y-71658809D01*
X124758511Y-71696904D01*
X124987083Y-71696904D01*
X125063273Y-71658809D01*
X125101369Y-71620714D01*
X124301369Y-70973095D02*
X124263273Y-70935000D01*
X124187083Y-70896904D01*
X123996607Y-70896904D01*
X123920416Y-70935000D01*
X123882321Y-70973095D01*
X123844226Y-71049285D01*
X123844226Y-71125476D01*
X123882321Y-71239761D01*
X124339464Y-71696904D01*
X123844226Y-71696904D01*
X106775178Y-71696904D02*
X106775178Y-70896904D01*
X106584702Y-70896904D01*
X106470416Y-70935000D01*
X106394226Y-71011190D01*
X106356130Y-71087380D01*
X106318035Y-71239761D01*
X106318035Y-71354047D01*
X106356130Y-71506428D01*
X106394226Y-71582619D01*
X106470416Y-71658809D01*
X106584702Y-71696904D01*
X106775178Y-71696904D01*
X106051369Y-70896904D02*
X105556130Y-70896904D01*
X105822797Y-71201666D01*
X105708511Y-71201666D01*
X105632321Y-71239761D01*
X105594226Y-71277857D01*
X105556130Y-71354047D01*
X105556130Y-71544523D01*
X105594226Y-71620714D01*
X105632321Y-71658809D01*
X105708511Y-71696904D01*
X105937083Y-71696904D01*
X106013273Y-71658809D01*
X106051369Y-71620714D01*
X104794226Y-71696904D02*
X105251369Y-71696904D01*
X105022797Y-71696904D02*
X105022797Y-70896904D01*
X105098988Y-71011190D01*
X105175178Y-71087380D01*
X105251369Y-71125476D01*
X87725178Y-71696904D02*
X87725178Y-70896904D01*
X87534702Y-70896904D01*
X87420416Y-70935000D01*
X87344226Y-71011190D01*
X87306130Y-71087380D01*
X87268035Y-71239761D01*
X87268035Y-71354047D01*
X87306130Y-71506428D01*
X87344226Y-71582619D01*
X87420416Y-71658809D01*
X87534702Y-71696904D01*
X87725178Y-71696904D01*
X87001369Y-70896904D02*
X86506130Y-70896904D01*
X86772797Y-71201666D01*
X86658511Y-71201666D01*
X86582321Y-71239761D01*
X86544226Y-71277857D01*
X86506130Y-71354047D01*
X86506130Y-71544523D01*
X86544226Y-71620714D01*
X86582321Y-71658809D01*
X86658511Y-71696904D01*
X86887083Y-71696904D01*
X86963273Y-71658809D01*
X87001369Y-71620714D01*
X86010892Y-70896904D02*
X85934702Y-70896904D01*
X85858511Y-70935000D01*
X85820416Y-70973095D01*
X85782321Y-71049285D01*
X85744226Y-71201666D01*
X85744226Y-71392142D01*
X85782321Y-71544523D01*
X85820416Y-71620714D01*
X85858511Y-71658809D01*
X85934702Y-71696904D01*
X86010892Y-71696904D01*
X86087083Y-71658809D01*
X86125178Y-71620714D01*
X86163273Y-71544523D01*
X86201369Y-71392142D01*
X86201369Y-71201666D01*
X86163273Y-71049285D01*
X86125178Y-70973095D01*
X86087083Y-70935000D01*
X86010892Y-70896904D01*
X71056428Y-71696904D02*
X71056428Y-70896904D01*
X70865952Y-70896904D01*
X70751666Y-70935000D01*
X70675476Y-71011190D01*
X70637380Y-71087380D01*
X70599285Y-71239761D01*
X70599285Y-71354047D01*
X70637380Y-71506428D01*
X70675476Y-71582619D01*
X70751666Y-71658809D01*
X70865952Y-71696904D01*
X71056428Y-71696904D01*
X70294523Y-70973095D02*
X70256428Y-70935000D01*
X70180238Y-70896904D01*
X69989761Y-70896904D01*
X69913571Y-70935000D01*
X69875476Y-70973095D01*
X69837380Y-71049285D01*
X69837380Y-71125476D01*
X69875476Y-71239761D01*
X70332619Y-71696904D01*
X69837380Y-71696904D01*
X69456428Y-71696904D02*
X69304047Y-71696904D01*
X69227857Y-71658809D01*
X69189761Y-71620714D01*
X69113571Y-71506428D01*
X69075476Y-71354047D01*
X69075476Y-71049285D01*
X69113571Y-70973095D01*
X69151666Y-70935000D01*
X69227857Y-70896904D01*
X69380238Y-70896904D01*
X69456428Y-70935000D01*
X69494523Y-70973095D01*
X69532619Y-71049285D01*
X69532619Y-71239761D01*
X69494523Y-71315952D01*
X69456428Y-71354047D01*
X69380238Y-71392142D01*
X69227857Y-71392142D01*
X69151666Y-71354047D01*
X69113571Y-71315952D01*
X69075476Y-71239761D01*
X55578303Y-71696904D02*
X55578303Y-70896904D01*
X55387827Y-70896904D01*
X55273541Y-70935000D01*
X55197351Y-71011190D01*
X55159255Y-71087380D01*
X55121160Y-71239761D01*
X55121160Y-71354047D01*
X55159255Y-71506428D01*
X55197351Y-71582619D01*
X55273541Y-71658809D01*
X55387827Y-71696904D01*
X55578303Y-71696904D01*
X54816398Y-70973095D02*
X54778303Y-70935000D01*
X54702113Y-70896904D01*
X54511636Y-70896904D01*
X54435446Y-70935000D01*
X54397351Y-70973095D01*
X54359255Y-71049285D01*
X54359255Y-71125476D01*
X54397351Y-71239761D01*
X54854494Y-71696904D01*
X54359255Y-71696904D01*
X53902113Y-71239761D02*
X53978303Y-71201666D01*
X54016398Y-71163571D01*
X54054494Y-71087380D01*
X54054494Y-71049285D01*
X54016398Y-70973095D01*
X53978303Y-70935000D01*
X53902113Y-70896904D01*
X53749732Y-70896904D01*
X53673541Y-70935000D01*
X53635446Y-70973095D01*
X53597351Y-71049285D01*
X53597351Y-71087380D01*
X53635446Y-71163571D01*
X53673541Y-71201666D01*
X53749732Y-71239761D01*
X53902113Y-71239761D01*
X53978303Y-71277857D01*
X54016398Y-71315952D01*
X54054494Y-71392142D01*
X54054494Y-71544523D01*
X54016398Y-71620714D01*
X53978303Y-71658809D01*
X53902113Y-71696904D01*
X53749732Y-71696904D01*
X53673541Y-71658809D01*
X53635446Y-71620714D01*
X53597351Y-71544523D01*
X53597351Y-71392142D01*
X53635446Y-71315952D01*
X53673541Y-71277857D01*
X53749732Y-71239761D01*
X23431428Y-71696904D02*
X23431428Y-70896904D01*
X23240952Y-70896904D01*
X23126666Y-70935000D01*
X23050476Y-71011190D01*
X23012380Y-71087380D01*
X22974285Y-71239761D01*
X22974285Y-71354047D01*
X23012380Y-71506428D01*
X23050476Y-71582619D01*
X23126666Y-71658809D01*
X23240952Y-71696904D01*
X23431428Y-71696904D01*
X22669523Y-70973095D02*
X22631428Y-70935000D01*
X22555238Y-70896904D01*
X22364761Y-70896904D01*
X22288571Y-70935000D01*
X22250476Y-70973095D01*
X22212380Y-71049285D01*
X22212380Y-71125476D01*
X22250476Y-71239761D01*
X22707619Y-71696904D01*
X22212380Y-71696904D01*
X21945714Y-70896904D02*
X21412380Y-70896904D01*
X21755238Y-71696904D01*
X261556428Y-52646904D02*
X261556428Y-51846904D01*
X261365952Y-51846904D01*
X261251666Y-51885000D01*
X261175476Y-51961190D01*
X261137380Y-52037380D01*
X261099285Y-52189761D01*
X261099285Y-52304047D01*
X261137380Y-52456428D01*
X261175476Y-52532619D01*
X261251666Y-52608809D01*
X261365952Y-52646904D01*
X261556428Y-52646904D01*
X260794523Y-51923095D02*
X260756428Y-51885000D01*
X260680238Y-51846904D01*
X260489761Y-51846904D01*
X260413571Y-51885000D01*
X260375476Y-51923095D01*
X260337380Y-51999285D01*
X260337380Y-52075476D01*
X260375476Y-52189761D01*
X260832619Y-52646904D01*
X260337380Y-52646904D01*
X259651666Y-51846904D02*
X259804047Y-51846904D01*
X259880238Y-51885000D01*
X259918333Y-51923095D01*
X259994523Y-52037380D01*
X260032619Y-52189761D01*
X260032619Y-52494523D01*
X259994523Y-52570714D01*
X259956428Y-52608809D01*
X259880238Y-52646904D01*
X259727857Y-52646904D01*
X259651666Y-52608809D01*
X259613571Y-52570714D01*
X259575476Y-52494523D01*
X259575476Y-52304047D01*
X259613571Y-52227857D01*
X259651666Y-52189761D01*
X259727857Y-52151666D01*
X259880238Y-52151666D01*
X259956428Y-52189761D01*
X259994523Y-52227857D01*
X260032619Y-52304047D01*
X246078303Y-52646904D02*
X246078303Y-51846904D01*
X245887827Y-51846904D01*
X245773541Y-51885000D01*
X245697351Y-51961190D01*
X245659255Y-52037380D01*
X245621160Y-52189761D01*
X245621160Y-52304047D01*
X245659255Y-52456428D01*
X245697351Y-52532619D01*
X245773541Y-52608809D01*
X245887827Y-52646904D01*
X246078303Y-52646904D01*
X245316398Y-51923095D02*
X245278303Y-51885000D01*
X245202113Y-51846904D01*
X245011636Y-51846904D01*
X244935446Y-51885000D01*
X244897351Y-51923095D01*
X244859255Y-51999285D01*
X244859255Y-52075476D01*
X244897351Y-52189761D01*
X245354494Y-52646904D01*
X244859255Y-52646904D01*
X244135446Y-51846904D02*
X244516398Y-51846904D01*
X244554494Y-52227857D01*
X244516398Y-52189761D01*
X244440208Y-52151666D01*
X244249732Y-52151666D01*
X244173541Y-52189761D01*
X244135446Y-52227857D01*
X244097351Y-52304047D01*
X244097351Y-52494523D01*
X244135446Y-52570714D01*
X244173541Y-52608809D01*
X244249732Y-52646904D01*
X244440208Y-52646904D01*
X244516398Y-52608809D01*
X244554494Y-52570714D01*
X227028303Y-52646904D02*
X227028303Y-51846904D01*
X226837827Y-51846904D01*
X226723541Y-51885000D01*
X226647351Y-51961190D01*
X226609255Y-52037380D01*
X226571160Y-52189761D01*
X226571160Y-52304047D01*
X226609255Y-52456428D01*
X226647351Y-52532619D01*
X226723541Y-52608809D01*
X226837827Y-52646904D01*
X227028303Y-52646904D01*
X226266398Y-51923095D02*
X226228303Y-51885000D01*
X226152113Y-51846904D01*
X225961636Y-51846904D01*
X225885446Y-51885000D01*
X225847351Y-51923095D01*
X225809255Y-51999285D01*
X225809255Y-52075476D01*
X225847351Y-52189761D01*
X226304494Y-52646904D01*
X225809255Y-52646904D01*
X225123541Y-52113571D02*
X225123541Y-52646904D01*
X225314017Y-51808809D02*
X225504494Y-52380238D01*
X225009255Y-52380238D01*
X207978303Y-52646904D02*
X207978303Y-51846904D01*
X207787827Y-51846904D01*
X207673541Y-51885000D01*
X207597351Y-51961190D01*
X207559255Y-52037380D01*
X207521160Y-52189761D01*
X207521160Y-52304047D01*
X207559255Y-52456428D01*
X207597351Y-52532619D01*
X207673541Y-52608809D01*
X207787827Y-52646904D01*
X207978303Y-52646904D01*
X207216398Y-51923095D02*
X207178303Y-51885000D01*
X207102113Y-51846904D01*
X206911636Y-51846904D01*
X206835446Y-51885000D01*
X206797351Y-51923095D01*
X206759255Y-51999285D01*
X206759255Y-52075476D01*
X206797351Y-52189761D01*
X207254494Y-52646904D01*
X206759255Y-52646904D01*
X206492589Y-51846904D02*
X205997351Y-51846904D01*
X206264017Y-52151666D01*
X206149732Y-52151666D01*
X206073541Y-52189761D01*
X206035446Y-52227857D01*
X205997351Y-52304047D01*
X205997351Y-52494523D01*
X206035446Y-52570714D01*
X206073541Y-52608809D01*
X206149732Y-52646904D01*
X206378303Y-52646904D01*
X206454494Y-52608809D01*
X206492589Y-52570714D01*
X188928303Y-52646904D02*
X188928303Y-51846904D01*
X188737827Y-51846904D01*
X188623541Y-51885000D01*
X188547351Y-51961190D01*
X188509255Y-52037380D01*
X188471160Y-52189761D01*
X188471160Y-52304047D01*
X188509255Y-52456428D01*
X188547351Y-52532619D01*
X188623541Y-52608809D01*
X188737827Y-52646904D01*
X188928303Y-52646904D01*
X188166398Y-51923095D02*
X188128303Y-51885000D01*
X188052113Y-51846904D01*
X187861636Y-51846904D01*
X187785446Y-51885000D01*
X187747351Y-51923095D01*
X187709255Y-51999285D01*
X187709255Y-52075476D01*
X187747351Y-52189761D01*
X188204494Y-52646904D01*
X187709255Y-52646904D01*
X187404494Y-51923095D02*
X187366398Y-51885000D01*
X187290208Y-51846904D01*
X187099732Y-51846904D01*
X187023541Y-51885000D01*
X186985446Y-51923095D01*
X186947351Y-51999285D01*
X186947351Y-52075476D01*
X186985446Y-52189761D01*
X187442589Y-52646904D01*
X186947351Y-52646904D01*
X169878303Y-52646904D02*
X169878303Y-51846904D01*
X169687827Y-51846904D01*
X169573541Y-51885000D01*
X169497351Y-51961190D01*
X169459255Y-52037380D01*
X169421160Y-52189761D01*
X169421160Y-52304047D01*
X169459255Y-52456428D01*
X169497351Y-52532619D01*
X169573541Y-52608809D01*
X169687827Y-52646904D01*
X169878303Y-52646904D01*
X169116398Y-51923095D02*
X169078303Y-51885000D01*
X169002113Y-51846904D01*
X168811636Y-51846904D01*
X168735446Y-51885000D01*
X168697351Y-51923095D01*
X168659255Y-51999285D01*
X168659255Y-52075476D01*
X168697351Y-52189761D01*
X169154494Y-52646904D01*
X168659255Y-52646904D01*
X167897351Y-52646904D02*
X168354494Y-52646904D01*
X168125922Y-52646904D02*
X168125922Y-51846904D01*
X168202113Y-51961190D01*
X168278303Y-52037380D01*
X168354494Y-52075476D01*
X150828303Y-52646904D02*
X150828303Y-51846904D01*
X150637827Y-51846904D01*
X150523541Y-51885000D01*
X150447351Y-51961190D01*
X150409255Y-52037380D01*
X150371160Y-52189761D01*
X150371160Y-52304047D01*
X150409255Y-52456428D01*
X150447351Y-52532619D01*
X150523541Y-52608809D01*
X150637827Y-52646904D01*
X150828303Y-52646904D01*
X150066398Y-51923095D02*
X150028303Y-51885000D01*
X149952113Y-51846904D01*
X149761636Y-51846904D01*
X149685446Y-51885000D01*
X149647351Y-51923095D01*
X149609255Y-51999285D01*
X149609255Y-52075476D01*
X149647351Y-52189761D01*
X150104494Y-52646904D01*
X149609255Y-52646904D01*
X149114017Y-51846904D02*
X149037827Y-51846904D01*
X148961636Y-51885000D01*
X148923541Y-51923095D01*
X148885446Y-51999285D01*
X148847351Y-52151666D01*
X148847351Y-52342142D01*
X148885446Y-52494523D01*
X148923541Y-52570714D01*
X148961636Y-52608809D01*
X149037827Y-52646904D01*
X149114017Y-52646904D01*
X149190208Y-52608809D01*
X149228303Y-52570714D01*
X149266398Y-52494523D01*
X149304494Y-52342142D01*
X149304494Y-52151666D01*
X149266398Y-51999285D01*
X149228303Y-51923095D01*
X149190208Y-51885000D01*
X149114017Y-51846904D01*
X131778303Y-52646904D02*
X131778303Y-51846904D01*
X131587827Y-51846904D01*
X131473541Y-51885000D01*
X131397351Y-51961190D01*
X131359255Y-52037380D01*
X131321160Y-52189761D01*
X131321160Y-52304047D01*
X131359255Y-52456428D01*
X131397351Y-52532619D01*
X131473541Y-52608809D01*
X131587827Y-52646904D01*
X131778303Y-52646904D01*
X130559255Y-52646904D02*
X131016398Y-52646904D01*
X130787827Y-52646904D02*
X130787827Y-51846904D01*
X130864017Y-51961190D01*
X130940208Y-52037380D01*
X131016398Y-52075476D01*
X130178303Y-52646904D02*
X130025922Y-52646904D01*
X129949732Y-52608809D01*
X129911636Y-52570714D01*
X129835446Y-52456428D01*
X129797351Y-52304047D01*
X129797351Y-51999285D01*
X129835446Y-51923095D01*
X129873541Y-51885000D01*
X129949732Y-51846904D01*
X130102113Y-51846904D01*
X130178303Y-51885000D01*
X130216398Y-51923095D01*
X130254494Y-51999285D01*
X130254494Y-52189761D01*
X130216398Y-52265952D01*
X130178303Y-52304047D01*
X130102113Y-52342142D01*
X129949732Y-52342142D01*
X129873541Y-52304047D01*
X129835446Y-52265952D01*
X129797351Y-52189761D01*
X112728303Y-52646904D02*
X112728303Y-51846904D01*
X112537827Y-51846904D01*
X112423541Y-51885000D01*
X112347351Y-51961190D01*
X112309255Y-52037380D01*
X112271160Y-52189761D01*
X112271160Y-52304047D01*
X112309255Y-52456428D01*
X112347351Y-52532619D01*
X112423541Y-52608809D01*
X112537827Y-52646904D01*
X112728303Y-52646904D01*
X111509255Y-52646904D02*
X111966398Y-52646904D01*
X111737827Y-52646904D02*
X111737827Y-51846904D01*
X111814017Y-51961190D01*
X111890208Y-52037380D01*
X111966398Y-52075476D01*
X111052113Y-52189761D02*
X111128303Y-52151666D01*
X111166398Y-52113571D01*
X111204494Y-52037380D01*
X111204494Y-51999285D01*
X111166398Y-51923095D01*
X111128303Y-51885000D01*
X111052113Y-51846904D01*
X110899732Y-51846904D01*
X110823541Y-51885000D01*
X110785446Y-51923095D01*
X110747351Y-51999285D01*
X110747351Y-52037380D01*
X110785446Y-52113571D01*
X110823541Y-52151666D01*
X110899732Y-52189761D01*
X111052113Y-52189761D01*
X111128303Y-52227857D01*
X111166398Y-52265952D01*
X111204494Y-52342142D01*
X111204494Y-52494523D01*
X111166398Y-52570714D01*
X111128303Y-52608809D01*
X111052113Y-52646904D01*
X110899732Y-52646904D01*
X110823541Y-52608809D01*
X110785446Y-52570714D01*
X110747351Y-52494523D01*
X110747351Y-52342142D01*
X110785446Y-52265952D01*
X110823541Y-52227857D01*
X110899732Y-52189761D01*
X93678303Y-52646904D02*
X93678303Y-51846904D01*
X93487827Y-51846904D01*
X93373541Y-51885000D01*
X93297351Y-51961190D01*
X93259255Y-52037380D01*
X93221160Y-52189761D01*
X93221160Y-52304047D01*
X93259255Y-52456428D01*
X93297351Y-52532619D01*
X93373541Y-52608809D01*
X93487827Y-52646904D01*
X93678303Y-52646904D01*
X92459255Y-52646904D02*
X92916398Y-52646904D01*
X92687827Y-52646904D02*
X92687827Y-51846904D01*
X92764017Y-51961190D01*
X92840208Y-52037380D01*
X92916398Y-52075476D01*
X92192589Y-51846904D02*
X91659255Y-51846904D01*
X92002113Y-52646904D01*
X74628303Y-52646904D02*
X74628303Y-51846904D01*
X74437827Y-51846904D01*
X74323541Y-51885000D01*
X74247351Y-51961190D01*
X74209255Y-52037380D01*
X74171160Y-52189761D01*
X74171160Y-52304047D01*
X74209255Y-52456428D01*
X74247351Y-52532619D01*
X74323541Y-52608809D01*
X74437827Y-52646904D01*
X74628303Y-52646904D01*
X73409255Y-52646904D02*
X73866398Y-52646904D01*
X73637827Y-52646904D02*
X73637827Y-51846904D01*
X73714017Y-51961190D01*
X73790208Y-52037380D01*
X73866398Y-52075476D01*
X72723541Y-51846904D02*
X72875922Y-51846904D01*
X72952113Y-51885000D01*
X72990208Y-51923095D01*
X73066398Y-52037380D01*
X73104494Y-52189761D01*
X73104494Y-52494523D01*
X73066398Y-52570714D01*
X73028303Y-52608809D01*
X72952113Y-52646904D01*
X72799732Y-52646904D01*
X72723541Y-52608809D01*
X72685446Y-52570714D01*
X72647351Y-52494523D01*
X72647351Y-52304047D01*
X72685446Y-52227857D01*
X72723541Y-52189761D01*
X72799732Y-52151666D01*
X72952113Y-52151666D01*
X73028303Y-52189761D01*
X73066398Y-52227857D01*
X73104494Y-52304047D01*
X53197053Y-52646904D02*
X53197053Y-51846904D01*
X53006577Y-51846904D01*
X52892291Y-51885000D01*
X52816101Y-51961190D01*
X52778005Y-52037380D01*
X52739910Y-52189761D01*
X52739910Y-52304047D01*
X52778005Y-52456428D01*
X52816101Y-52532619D01*
X52892291Y-52608809D01*
X53006577Y-52646904D01*
X53197053Y-52646904D01*
X51978005Y-52646904D02*
X52435148Y-52646904D01*
X52206577Y-52646904D02*
X52206577Y-51846904D01*
X52282767Y-51961190D01*
X52358958Y-52037380D01*
X52435148Y-52075476D01*
X51254196Y-51846904D02*
X51635148Y-51846904D01*
X51673244Y-52227857D01*
X51635148Y-52189761D01*
X51558958Y-52151666D01*
X51368482Y-52151666D01*
X51292291Y-52189761D01*
X51254196Y-52227857D01*
X51216101Y-52304047D01*
X51216101Y-52494523D01*
X51254196Y-52570714D01*
X51292291Y-52608809D01*
X51368482Y-52646904D01*
X51558958Y-52646904D01*
X51635148Y-52608809D01*
X51673244Y-52570714D01*
X23431428Y-52646904D02*
X23431428Y-51846904D01*
X23240952Y-51846904D01*
X23126666Y-51885000D01*
X23050476Y-51961190D01*
X23012380Y-52037380D01*
X22974285Y-52189761D01*
X22974285Y-52304047D01*
X23012380Y-52456428D01*
X23050476Y-52532619D01*
X23126666Y-52608809D01*
X23240952Y-52646904D01*
X23431428Y-52646904D01*
X22212380Y-52646904D02*
X22669523Y-52646904D01*
X22440952Y-52646904D02*
X22440952Y-51846904D01*
X22517142Y-51961190D01*
X22593333Y-52037380D01*
X22669523Y-52075476D01*
X21526666Y-52113571D02*
X21526666Y-52646904D01*
X21717142Y-51808809D02*
X21907619Y-52380238D01*
X21412380Y-52380238D01*
X261556428Y-33596904D02*
X261556428Y-32796904D01*
X261365952Y-32796904D01*
X261251666Y-32835000D01*
X261175476Y-32911190D01*
X261137380Y-32987380D01*
X261099285Y-33139761D01*
X261099285Y-33254047D01*
X261137380Y-33406428D01*
X261175476Y-33482619D01*
X261251666Y-33558809D01*
X261365952Y-33596904D01*
X261556428Y-33596904D01*
X260337380Y-33596904D02*
X260794523Y-33596904D01*
X260565952Y-33596904D02*
X260565952Y-32796904D01*
X260642142Y-32911190D01*
X260718333Y-32987380D01*
X260794523Y-33025476D01*
X260070714Y-32796904D02*
X259575476Y-32796904D01*
X259842142Y-33101666D01*
X259727857Y-33101666D01*
X259651666Y-33139761D01*
X259613571Y-33177857D01*
X259575476Y-33254047D01*
X259575476Y-33444523D01*
X259613571Y-33520714D01*
X259651666Y-33558809D01*
X259727857Y-33596904D01*
X259956428Y-33596904D01*
X260032619Y-33558809D01*
X260070714Y-33520714D01*
X242506428Y-33596904D02*
X242506428Y-32796904D01*
X242315952Y-32796904D01*
X242201666Y-32835000D01*
X242125476Y-32911190D01*
X242087380Y-32987380D01*
X242049285Y-33139761D01*
X242049285Y-33254047D01*
X242087380Y-33406428D01*
X242125476Y-33482619D01*
X242201666Y-33558809D01*
X242315952Y-33596904D01*
X242506428Y-33596904D01*
X241287380Y-33596904D02*
X241744523Y-33596904D01*
X241515952Y-33596904D02*
X241515952Y-32796904D01*
X241592142Y-32911190D01*
X241668333Y-32987380D01*
X241744523Y-33025476D01*
X240982619Y-32873095D02*
X240944523Y-32835000D01*
X240868333Y-32796904D01*
X240677857Y-32796904D01*
X240601666Y-32835000D01*
X240563571Y-32873095D01*
X240525476Y-32949285D01*
X240525476Y-33025476D01*
X240563571Y-33139761D01*
X241020714Y-33596904D01*
X240525476Y-33596904D01*
X223456428Y-33596904D02*
X223456428Y-32796904D01*
X223265952Y-32796904D01*
X223151666Y-32835000D01*
X223075476Y-32911190D01*
X223037380Y-32987380D01*
X222999285Y-33139761D01*
X222999285Y-33254047D01*
X223037380Y-33406428D01*
X223075476Y-33482619D01*
X223151666Y-33558809D01*
X223265952Y-33596904D01*
X223456428Y-33596904D01*
X222237380Y-33596904D02*
X222694523Y-33596904D01*
X222465952Y-33596904D02*
X222465952Y-32796904D01*
X222542142Y-32911190D01*
X222618333Y-32987380D01*
X222694523Y-33025476D01*
X221475476Y-33596904D02*
X221932619Y-33596904D01*
X221704047Y-33596904D02*
X221704047Y-32796904D01*
X221780238Y-32911190D01*
X221856428Y-32987380D01*
X221932619Y-33025476D01*
X204406428Y-33596904D02*
X204406428Y-32796904D01*
X204215952Y-32796904D01*
X204101666Y-32835000D01*
X204025476Y-32911190D01*
X203987380Y-32987380D01*
X203949285Y-33139761D01*
X203949285Y-33254047D01*
X203987380Y-33406428D01*
X204025476Y-33482619D01*
X204101666Y-33558809D01*
X204215952Y-33596904D01*
X204406428Y-33596904D01*
X203187380Y-33596904D02*
X203644523Y-33596904D01*
X203415952Y-33596904D02*
X203415952Y-32796904D01*
X203492142Y-32911190D01*
X203568333Y-32987380D01*
X203644523Y-33025476D01*
X202692142Y-32796904D02*
X202615952Y-32796904D01*
X202539761Y-32835000D01*
X202501666Y-32873095D01*
X202463571Y-32949285D01*
X202425476Y-33101666D01*
X202425476Y-33292142D01*
X202463571Y-33444523D01*
X202501666Y-33520714D01*
X202539761Y-33558809D01*
X202615952Y-33596904D01*
X202692142Y-33596904D01*
X202768333Y-33558809D01*
X202806428Y-33520714D01*
X202844523Y-33444523D01*
X202882619Y-33292142D01*
X202882619Y-33101666D01*
X202844523Y-32949285D01*
X202806428Y-32873095D01*
X202768333Y-32835000D01*
X202692142Y-32796904D01*
X184975476Y-33596904D02*
X184975476Y-32796904D01*
X184785000Y-32796904D01*
X184670714Y-32835000D01*
X184594523Y-32911190D01*
X184556428Y-32987380D01*
X184518333Y-33139761D01*
X184518333Y-33254047D01*
X184556428Y-33406428D01*
X184594523Y-33482619D01*
X184670714Y-33558809D01*
X184785000Y-33596904D01*
X184975476Y-33596904D01*
X184137380Y-33596904D02*
X183985000Y-33596904D01*
X183908809Y-33558809D01*
X183870714Y-33520714D01*
X183794523Y-33406428D01*
X183756428Y-33254047D01*
X183756428Y-32949285D01*
X183794523Y-32873095D01*
X183832619Y-32835000D01*
X183908809Y-32796904D01*
X184061190Y-32796904D01*
X184137380Y-32835000D01*
X184175476Y-32873095D01*
X184213571Y-32949285D01*
X184213571Y-33139761D01*
X184175476Y-33215952D01*
X184137380Y-33254047D01*
X184061190Y-33292142D01*
X183908809Y-33292142D01*
X183832619Y-33254047D01*
X183794523Y-33215952D01*
X183756428Y-33139761D01*
X165925476Y-33596904D02*
X165925476Y-32796904D01*
X165735000Y-32796904D01*
X165620714Y-32835000D01*
X165544523Y-32911190D01*
X165506428Y-32987380D01*
X165468333Y-33139761D01*
X165468333Y-33254047D01*
X165506428Y-33406428D01*
X165544523Y-33482619D01*
X165620714Y-33558809D01*
X165735000Y-33596904D01*
X165925476Y-33596904D01*
X165011190Y-33139761D02*
X165087380Y-33101666D01*
X165125476Y-33063571D01*
X165163571Y-32987380D01*
X165163571Y-32949285D01*
X165125476Y-32873095D01*
X165087380Y-32835000D01*
X165011190Y-32796904D01*
X164858809Y-32796904D01*
X164782619Y-32835000D01*
X164744523Y-32873095D01*
X164706428Y-32949285D01*
X164706428Y-32987380D01*
X164744523Y-33063571D01*
X164782619Y-33101666D01*
X164858809Y-33139761D01*
X165011190Y-33139761D01*
X165087380Y-33177857D01*
X165125476Y-33215952D01*
X165163571Y-33292142D01*
X165163571Y-33444523D01*
X165125476Y-33520714D01*
X165087380Y-33558809D01*
X165011190Y-33596904D01*
X164858809Y-33596904D01*
X164782619Y-33558809D01*
X164744523Y-33520714D01*
X164706428Y-33444523D01*
X164706428Y-33292142D01*
X164744523Y-33215952D01*
X164782619Y-33177857D01*
X164858809Y-33139761D01*
X146875476Y-33596904D02*
X146875476Y-32796904D01*
X146685000Y-32796904D01*
X146570714Y-32835000D01*
X146494523Y-32911190D01*
X146456428Y-32987380D01*
X146418333Y-33139761D01*
X146418333Y-33254047D01*
X146456428Y-33406428D01*
X146494523Y-33482619D01*
X146570714Y-33558809D01*
X146685000Y-33596904D01*
X146875476Y-33596904D01*
X146151666Y-32796904D02*
X145618333Y-32796904D01*
X145961190Y-33596904D01*
X127825476Y-33596904D02*
X127825476Y-32796904D01*
X127635000Y-32796904D01*
X127520714Y-32835000D01*
X127444523Y-32911190D01*
X127406428Y-32987380D01*
X127368333Y-33139761D01*
X127368333Y-33254047D01*
X127406428Y-33406428D01*
X127444523Y-33482619D01*
X127520714Y-33558809D01*
X127635000Y-33596904D01*
X127825476Y-33596904D01*
X126682619Y-32796904D02*
X126835000Y-32796904D01*
X126911190Y-32835000D01*
X126949285Y-32873095D01*
X127025476Y-32987380D01*
X127063571Y-33139761D01*
X127063571Y-33444523D01*
X127025476Y-33520714D01*
X126987380Y-33558809D01*
X126911190Y-33596904D01*
X126758809Y-33596904D01*
X126682619Y-33558809D01*
X126644523Y-33520714D01*
X126606428Y-33444523D01*
X126606428Y-33254047D01*
X126644523Y-33177857D01*
X126682619Y-33139761D01*
X126758809Y-33101666D01*
X126911190Y-33101666D01*
X126987380Y-33139761D01*
X127025476Y-33177857D01*
X127063571Y-33254047D01*
X108775476Y-33596904D02*
X108775476Y-32796904D01*
X108585000Y-32796904D01*
X108470714Y-32835000D01*
X108394523Y-32911190D01*
X108356428Y-32987380D01*
X108318333Y-33139761D01*
X108318333Y-33254047D01*
X108356428Y-33406428D01*
X108394523Y-33482619D01*
X108470714Y-33558809D01*
X108585000Y-33596904D01*
X108775476Y-33596904D01*
X107594523Y-32796904D02*
X107975476Y-32796904D01*
X108013571Y-33177857D01*
X107975476Y-33139761D01*
X107899285Y-33101666D01*
X107708809Y-33101666D01*
X107632619Y-33139761D01*
X107594523Y-33177857D01*
X107556428Y-33254047D01*
X107556428Y-33444523D01*
X107594523Y-33520714D01*
X107632619Y-33558809D01*
X107708809Y-33596904D01*
X107899285Y-33596904D01*
X107975476Y-33558809D01*
X108013571Y-33520714D01*
X89725476Y-33596904D02*
X89725476Y-32796904D01*
X89535000Y-32796904D01*
X89420714Y-32835000D01*
X89344523Y-32911190D01*
X89306428Y-32987380D01*
X89268333Y-33139761D01*
X89268333Y-33254047D01*
X89306428Y-33406428D01*
X89344523Y-33482619D01*
X89420714Y-33558809D01*
X89535000Y-33596904D01*
X89725476Y-33596904D01*
X88582619Y-33063571D02*
X88582619Y-33596904D01*
X88773095Y-32758809D02*
X88963571Y-33330238D01*
X88468333Y-33330238D01*
X70675476Y-33596904D02*
X70675476Y-32796904D01*
X70485000Y-32796904D01*
X70370714Y-32835000D01*
X70294523Y-32911190D01*
X70256428Y-32987380D01*
X70218333Y-33139761D01*
X70218333Y-33254047D01*
X70256428Y-33406428D01*
X70294523Y-33482619D01*
X70370714Y-33558809D01*
X70485000Y-33596904D01*
X70675476Y-33596904D01*
X69951666Y-32796904D02*
X69456428Y-32796904D01*
X69723095Y-33101666D01*
X69608809Y-33101666D01*
X69532619Y-33139761D01*
X69494523Y-33177857D01*
X69456428Y-33254047D01*
X69456428Y-33444523D01*
X69494523Y-33520714D01*
X69532619Y-33558809D01*
X69608809Y-33596904D01*
X69837380Y-33596904D01*
X69913571Y-33558809D01*
X69951666Y-33520714D01*
X51625476Y-33596904D02*
X51625476Y-32796904D01*
X51435000Y-32796904D01*
X51320714Y-32835000D01*
X51244523Y-32911190D01*
X51206428Y-32987380D01*
X51168333Y-33139761D01*
X51168333Y-33254047D01*
X51206428Y-33406428D01*
X51244523Y-33482619D01*
X51320714Y-33558809D01*
X51435000Y-33596904D01*
X51625476Y-33596904D01*
X50863571Y-32873095D02*
X50825476Y-32835000D01*
X50749285Y-32796904D01*
X50558809Y-32796904D01*
X50482619Y-32835000D01*
X50444523Y-32873095D01*
X50406428Y-32949285D01*
X50406428Y-33025476D01*
X50444523Y-33139761D01*
X50901666Y-33596904D01*
X50406428Y-33596904D01*
X23050476Y-33596904D02*
X23050476Y-32796904D01*
X22860000Y-32796904D01*
X22745714Y-32835000D01*
X22669523Y-32911190D01*
X22631428Y-32987380D01*
X22593333Y-33139761D01*
X22593333Y-33254047D01*
X22631428Y-33406428D01*
X22669523Y-33482619D01*
X22745714Y-33558809D01*
X22860000Y-33596904D01*
X23050476Y-33596904D01*
X21831428Y-33596904D02*
X22288571Y-33596904D01*
X22060000Y-33596904D02*
X22060000Y-32796904D01*
X22136190Y-32911190D01*
X22212380Y-32987380D01*
X22288571Y-33025476D01*
X25366666Y-57477142D02*
X25414285Y-57524761D01*
X25557142Y-57572380D01*
X25652380Y-57572380D01*
X25795238Y-57524761D01*
X25890476Y-57429523D01*
X25938095Y-57334285D01*
X25985714Y-57143809D01*
X25985714Y-57000952D01*
X25938095Y-56810476D01*
X25890476Y-56715238D01*
X25795238Y-56620000D01*
X25652380Y-56572380D01*
X25557142Y-56572380D01*
X25414285Y-56620000D01*
X25366666Y-56667619D01*
X24509523Y-56572380D02*
X24700000Y-56572380D01*
X24795238Y-56620000D01*
X24842857Y-56667619D01*
X24938095Y-56810476D01*
X24985714Y-57000952D01*
X24985714Y-57381904D01*
X24938095Y-57477142D01*
X24890476Y-57524761D01*
X24795238Y-57572380D01*
X24604761Y-57572380D01*
X24509523Y-57524761D01*
X24461904Y-57477142D01*
X24414285Y-57381904D01*
X24414285Y-57143809D01*
X24461904Y-57048571D01*
X24509523Y-57000952D01*
X24604761Y-56953333D01*
X24795238Y-56953333D01*
X24890476Y-57000952D01*
X24938095Y-57048571D01*
X24985714Y-57143809D01*
X39416666Y-26537142D02*
X39464285Y-26584761D01*
X39607142Y-26632380D01*
X39702380Y-26632380D01*
X39845238Y-26584761D01*
X39940476Y-26489523D01*
X39988095Y-26394285D01*
X40035714Y-26203809D01*
X40035714Y-26060952D01*
X39988095Y-25870476D01*
X39940476Y-25775238D01*
X39845238Y-25680000D01*
X39702380Y-25632380D01*
X39607142Y-25632380D01*
X39464285Y-25680000D01*
X39416666Y-25727619D01*
X38511904Y-25632380D02*
X38988095Y-25632380D01*
X39035714Y-26108571D01*
X38988095Y-26060952D01*
X38892857Y-26013333D01*
X38654761Y-26013333D01*
X38559523Y-26060952D01*
X38511904Y-26108571D01*
X38464285Y-26203809D01*
X38464285Y-26441904D01*
X38511904Y-26537142D01*
X38559523Y-26584761D01*
X38654761Y-26632380D01*
X38892857Y-26632380D01*
X38988095Y-26584761D01*
X39035714Y-26537142D01*
X45566666Y-61812142D02*
X45614285Y-61859761D01*
X45757142Y-61907380D01*
X45852380Y-61907380D01*
X45995238Y-61859761D01*
X46090476Y-61764523D01*
X46138095Y-61669285D01*
X46185714Y-61478809D01*
X46185714Y-61335952D01*
X46138095Y-61145476D01*
X46090476Y-61050238D01*
X45995238Y-60955000D01*
X45852380Y-60907380D01*
X45757142Y-60907380D01*
X45614285Y-60955000D01*
X45566666Y-61002619D01*
X44709523Y-61240714D02*
X44709523Y-61907380D01*
X44947619Y-60859761D02*
X45185714Y-61574047D01*
X44566666Y-61574047D01*
X30201475Y-55334226D02*
X30201475Y-55401569D01*
X30268819Y-55536256D01*
X30336162Y-55603600D01*
X30470850Y-55670943D01*
X30605537Y-55670943D01*
X30706552Y-55637272D01*
X30874911Y-55536256D01*
X30975926Y-55435241D01*
X31076941Y-55266882D01*
X31110613Y-55165867D01*
X31110613Y-55031180D01*
X31043269Y-54896493D01*
X30975926Y-54829149D01*
X30841239Y-54761806D01*
X30773895Y-54761806D01*
X30605537Y-54458760D02*
X30167804Y-54021027D01*
X30134132Y-54526104D01*
X30033117Y-54425088D01*
X29932101Y-54391417D01*
X29864758Y-54391417D01*
X29763743Y-54425088D01*
X29595384Y-54593447D01*
X29561712Y-54694462D01*
X29561712Y-54761806D01*
X29595384Y-54862821D01*
X29797414Y-55064852D01*
X29898430Y-55098524D01*
X29965773Y-55098524D01*
X28809226Y-59373524D02*
X28876569Y-59373524D01*
X29011256Y-59306180D01*
X29078600Y-59238837D01*
X29145943Y-59104149D01*
X29145943Y-58969462D01*
X29112272Y-58868447D01*
X29011256Y-58700088D01*
X28910241Y-58599073D01*
X28741882Y-58498058D01*
X28640867Y-58464386D01*
X28506180Y-58464386D01*
X28371493Y-58531730D01*
X28304149Y-58599073D01*
X28236806Y-58733760D01*
X28236806Y-58801104D01*
X27967432Y-59070478D02*
X27900088Y-59070478D01*
X27799073Y-59104149D01*
X27630714Y-59272508D01*
X27597043Y-59373524D01*
X27597043Y-59440867D01*
X27630714Y-59541882D01*
X27698058Y-59609226D01*
X27832745Y-59676569D01*
X28640867Y-59676569D01*
X28203134Y-60114302D01*
X38534642Y-49008333D02*
X38582261Y-48960714D01*
X38629880Y-48817857D01*
X38629880Y-48722619D01*
X38582261Y-48579761D01*
X38487023Y-48484523D01*
X38391785Y-48436904D01*
X38201309Y-48389285D01*
X38058452Y-48389285D01*
X37867976Y-48436904D01*
X37772738Y-48484523D01*
X37677500Y-48579761D01*
X37629880Y-48722619D01*
X37629880Y-48817857D01*
X37677500Y-48960714D01*
X37725119Y-49008333D01*
X38629880Y-49960714D02*
X38629880Y-49389285D01*
X38629880Y-49675000D02*
X37629880Y-49675000D01*
X37772738Y-49579761D01*
X37867976Y-49484523D01*
X37915595Y-49389285D01*
M02*
