M48
; DRILL file {KiCad (5.1.2)-1} date 5/25/2021 7:11:02 AM
; FORMAT={-:-/ absolute / inch / decimal}
; #@! TF.CreationDate,2021-05-25T07:11:02-07:00
; #@! TF.GenerationSoftware,Kicad,Pcbnew,(5.1.2)-1
; #@! TF.FileFunction,NonPlated,1,2,NPTH
FMAT,2
INCH
T1C0.0669
T2C0.1201
T3C0.1575
%
G90
G05
T1
X2.7468Y-3.4343
X3.1468Y-3.4343
X7.0593Y-1.1843
X7.4593Y-1.1843
X7.8093Y-2.6843
X8.2093Y-2.6843
X6.3093Y-1.1843
X6.7093Y-1.1843
X2.7468Y-1.9343
X3.1468Y-1.9343
X8.3718Y-2.6843
X8.7718Y-2.6843
X0.6843Y-1.9343
X1.0843Y-1.9343
X9.9655Y-3.4343
X10.3655Y-3.4343
X4.2468Y-1.9343
X4.6468Y-1.9343
X9.1218Y-3.4343
X9.5218Y-3.4343
X2.5593Y-1.1843
X2.9593Y-1.1843
X3.3093Y-1.9343
X3.7093Y-1.9343
X3.1218Y-2.6843
X3.5218Y-2.6843
X5.7468Y-1.9343
X6.1468Y-1.9343
X10.0593Y-3.4343
X10.4593Y-3.4343
X8.5593Y-2.6843
X8.9593Y-2.6843
X4.6218Y-2.6843
X5.0218Y-2.6843
X9.3093Y-3.4343
X9.7093Y-3.4343
X1.8093Y-2.6843
X2.2093Y-2.6843
X6.8718Y-2.6843
X7.2718Y-2.6843
X4.8093Y-1.9343
X5.2093Y-1.9343
X0.6843Y-2.6843
X1.0843Y-2.6843
X7.8093Y-1.9343
X8.2093Y-1.9343
X4.0593Y-1.1843
X4.4593Y-1.1843
X5.9343Y-3.4343
X6.3343Y-3.4343
X10.0593Y-2.6843
X10.4593Y-2.6843
X5.5593Y-1.9343
X5.9593Y-1.9343
X10.0593Y-1.1843
X10.4593Y-1.1843
X6.3093Y-2.6843
X6.7093Y-2.6843
X7.9968Y-1.9343
X8.3968Y-1.9343
X0.6843Y-1.1843
X1.0843Y-1.1843
X7.0593Y-3.4343
X7.4593Y-3.4343
X9.9655Y-2.6843
X10.3655Y-2.6843
X4.0593Y-2.6843
X4.4593Y-2.6843
X5.5593Y-1.1843
X5.9593Y-1.1843
X5.5593Y-3.4343
X5.9593Y-3.4343
X5.9343Y-3.4343
X6.3343Y-3.4343
X4.8093Y-1.1843
X5.2093Y-1.1843
X1.903Y-3.4343
X2.303Y-3.4343
X4.0593Y-1.9343
X4.4593Y-1.9343
X5.1843Y-3.4343
X5.5843Y-3.4343
X1.8093Y-1.1843
X2.2093Y-1.1843
X10.0593Y-1.9343
X10.4593Y-1.9343
X5.4655Y-3.4343
X5.8655Y-3.4343
X1.903Y-1.9343
X2.303Y-1.9343
X7.2468Y-1.9343
X7.6468Y-1.9343
X2.5593Y-1.9343
X2.9593Y-1.9343
X5.5593Y-2.6843
X5.9593Y-2.6843
X7.6218Y-2.6843
X8.0218Y-2.6843
X8.5593Y-3.4343
X8.9593Y-3.4343
X2.5593Y-3.4343
X2.9593Y-3.4343
X5.3718Y-2.6843
X5.7718Y-2.6843
X4.0593Y-3.4343
X4.4593Y-3.4343
X7.0593Y-1.9343
X7.4593Y-1.9343
X9.3093Y-2.6843
X9.7093Y-2.6843
X8.7468Y-1.9343
X9.1468Y-1.9343
X5.0905Y-3.4343
X5.4905Y-3.4343
X4.8093Y-2.6843
X5.2093Y-2.6843
X9.3093Y-1.9343
X9.7093Y-1.9343
X6.9655Y-3.4343
X7.3655Y-3.4343
X6.3093Y-3.4343
X6.7093Y-3.4343
X9.1218Y-2.6843
X9.5218Y-2.6843
X3.3093Y-2.6843
X3.7093Y-2.6843
X8.5593Y-1.1843
X8.9593Y-1.1843
X3.5905Y-3.4343
X3.9905Y-3.4343
X4.8093Y-3.4343
X5.2093Y-3.4343
X6.6843Y-3.4343
X7.0843Y-3.4343
X9.3093Y-1.1843
X9.7093Y-1.1843
X8.278Y-3.4343
X8.678Y-3.4343
X3.4968Y-1.9343
X3.8968Y-1.9343
X2.0905Y-2.6843
X2.4905Y-2.6843
X7.8093Y-1.1843
X8.2093Y-1.1843
X6.3093Y-1.9343
X6.7093Y-1.9343
X1.8093Y-1.9343
X2.2093Y-1.9343
X1.8093Y-3.4343
X2.2093Y-3.4343
X6.1218Y-2.6843
X6.5218Y-2.6843
X4.9968Y-1.9343
X5.3968Y-1.9343
X2.5593Y-2.6843
X2.9593Y-2.6843
X3.8718Y-2.6843
X4.2718Y-2.6843
X7.8093Y-3.4343
X8.2093Y-3.4343
X0.6843Y-3.4343
X1.0843Y-3.4343
X8.5593Y-1.9343
X8.9593Y-1.9343
X3.3093Y-1.1843
X3.7093Y-1.1843
X3.3093Y-3.4343
X3.7093Y-3.4343
X6.4968Y-1.9343
X6.8968Y-1.9343
X7.0593Y-2.6843
X7.4593Y-2.6843
X9.778Y-1.9343
X10.178Y-1.9343
T2
X3.8823Y-3.7098
X8.3863Y-3.7098
X5.6657Y-3.7093
X6.6028Y-3.7093
X4.9157Y-3.7093
X5.8528Y-3.7093
X3.697Y-3.7098
X7.634Y-3.7098
X4.822Y-3.7098
X5.759Y-3.7098
X6.697Y-3.7098
X7.634Y-3.7098
X6.4157Y-3.7093
X7.3528Y-3.7093
T3
X4.2593Y-3.4343
X7.2593Y-1.9343
X9.5093Y-2.6843
X8.9468Y-1.9343
X4.822Y-3.1098
X5.2905Y-3.4343
X5.759Y-3.1098
X5.0093Y-2.6843
X9.5093Y-1.9343
X6.697Y-3.1098
X7.1655Y-3.4343
X7.634Y-3.1098
X6.5093Y-3.4343
X9.3218Y-2.6843
X3.5093Y-2.6843
X8.7593Y-1.1843
X3.7905Y-3.4343
X5.0093Y-3.4343
X6.4157Y-3.1093
X6.8843Y-3.4343
X7.3528Y-3.1093
X9.5093Y-1.1843
X8.478Y-3.4343
X3.6968Y-1.9343
X2.2905Y-2.6843
X8.0093Y-1.1843
X6.5093Y-1.9343
X2.0093Y-1.9343
X2.0093Y-3.4343
X6.3218Y-2.6843
X5.1968Y-1.9343
X2.7593Y-2.6843
X4.0718Y-2.6843
X8.0093Y-3.4343
X0.8843Y-3.4343
X8.7593Y-1.9343
X3.5093Y-1.1843
X3.5093Y-3.4343
X6.6968Y-1.9343
X7.2593Y-2.6843
X9.978Y-1.9343
X2.9468Y-3.4343
X7.2593Y-1.1843
X8.0093Y-2.6843
X6.5093Y-1.1843
X2.9468Y-1.9343
X8.5718Y-2.6843
X0.8843Y-1.9343
X10.1655Y-3.4343
X4.4468Y-1.9343
X9.3218Y-3.4343
X2.7593Y-1.1843
X3.5093Y-1.9343
X3.3218Y-2.6843
X5.9468Y-1.9343
X10.2593Y-3.4343
X8.7593Y-2.6843
X4.8218Y-2.6843
X9.5093Y-3.4343
X2.0093Y-2.6843
X7.0718Y-2.6843
X5.0093Y-1.9343
X0.8843Y-2.6843
X8.0093Y-1.9343
X4.2593Y-1.1843
X3.8823Y-3.1098
X6.1343Y-3.4343
X8.3863Y-3.1098
X10.2593Y-2.6843
X5.7593Y-1.9343
X10.2593Y-1.1843
X6.5093Y-2.6843
X8.1968Y-1.9343
X0.8843Y-1.1843
X7.2593Y-3.4343
X10.1655Y-2.6843
X4.2593Y-2.6843
X5.7593Y-1.1843
X5.7593Y-3.4343
X5.6657Y-3.1093
X6.1343Y-3.4343
X6.6028Y-3.1093
X5.0093Y-1.1843
X2.103Y-3.4343
X4.2593Y-1.9343
X4.9157Y-3.1093
X5.3843Y-3.4343
X5.8528Y-3.1093
X2.0093Y-1.1843
X10.2593Y-1.9343
X3.697Y-3.1098
X5.6655Y-3.4343
X7.634Y-3.1098
X2.103Y-1.9343
X7.4468Y-1.9343
X2.7593Y-1.9343
X5.7593Y-2.6843
X7.8218Y-2.6843
X8.7593Y-3.4343
X2.7593Y-3.4343
X5.5718Y-2.6843
T0
M30
