<?xml version="1.0" standalone="no"?>
 <!DOCTYPE svg PUBLIC "-//W3C//DTD SVG 1.1//EN" 
 "http://www.w3.org/Graphics/SVG/1.1/DTD/svg11.dtd"> 
<svg xmlns="http://www.w3.org/2000/svg" version="1.1" 
    width="33.5991cm" height="10.8026cm" viewBox="0 0 132280 42530 ">
<title>SVG Picture created as steppedcaps-brd.svg date 2021/05/06 15:27:54 </title>
  <desc>Picture generated by PCBNEW </desc>
<g style="fill:#000000; fill-opacity:1;stroke:#000000; stroke-opacity:1;
stroke-linecap:round; stroke-linejoin:round; "
 transform="translate(0 0) scale(1 1)">
</g>
<g style="fill:#000000; fill-opacity:0.0; 
stroke:#000000; stroke-width:-0.000393701; stroke-opacity:1; 
stroke-linecap:round; stroke-linejoin:round;">
</g>
<g style="fill:#000000; fill-opacity:0.0; 
stroke:#000000; stroke-width:78.7402; stroke-opacity:1; 
stroke-linecap:round; stroke-linejoin:round;">
<path d="M52275 33345
L52275 32951
" />
<path d="M52275.5 33345.5 A196.85 196.85 0.0 0 0 52472.3 33542.3 " />
<path d="M80646.6 39054.1 A196.85 196.85 0.0 0 0 80843.4 38857.3 " />
<path d="M71025.5 33345.5 A196.85 196.85 0.0 0 0 71222.3 33542.3 " />
<path d="M61852 33542
L66187 33542
" />
<path d="M80843 33739
L80843 38857
" />
<circle cx="9583.27" cy="41062" r="531.496" /> 
<circle cx="9583.27" cy="1554.13" r="531.496" /> 
<circle cx="47473" cy="1554.13" r="531.496" /> 
<circle cx="47473" cy="41062" r="531.496" /> 
<circle cx="85362.8" cy="41062" r="531.496" /> 
<circle cx="123253" cy="41062" r="531.496" /> 
<circle cx="85362.8" cy="1554.13" r="531.496" /> 
<circle cx="123253" cy="1554.13" r="531.496" /> 
<path d="M99003 26042
L107871 26042
" />
<path d="M99037 31554
L99003 31554
" />
<path d="M108922 26436
L108831 26436
" />
<path d="M38028 33542
L38077 33542
" />
<path d="M111225 9054
L111190 9054
" />
<path d="M123774 9054
L123809 9054
" />
<path d="M8441.54 41022.6 A1141.73 1141.73 0.0 0 0 10725 41022.6 " />
<path d="M46331.3 41022.6 A1141.73 1141.73 0.0 0 0 48614.8 41022.6 " />
<path d="M84221.1 41022.6 A1141.73 1141.73 0.0 0 0 86504.5 41022.6 " />
<path d="M122111 41022.6 A1141.73 1141.73 0.0 0 0 124394 41022.6 " />
<path d="M124394 1593.5 A1141.73 1141.73 0.0 0 0 122111 1593.5 " />
<path d="M86504.5 1593.5 A1141.73 1141.73 0.0 0 0 84221.1 1593.5 " />
<path d="M48614.8 1593.5 A1141.73 1141.73 0.0 0 0 46331.3 1593.5 " />
<path d="M10725 1593.5 A1141.73 1141.73 0.0 0 0 8441.54 1593.5 " />
<path d="M1787 40274
L8441 40274
" />
<path d="M8441 2223
L1787 2223
" />
<path d="M86504 40274
L122110 40274
" />
<path d="M48614 40274
L84221 40274
" />
<path d="M10725 40274
L46331 40274
" />
<path d="M46331 2223
L10725 2223
" />
<path d="M84221 2223
L48614 2223
" />
<path d="M84221 1593
L84221 2223
" />
<path d="M86504 2223
L86504 1593
" />
<path d="M48614 2223
L48614 1593
" />
<path d="M46331 2223
L46331 1593
" />
<path d="M8441 2223
L8441 1593
" />
<path d="M10725 2223
L10725 1593
" />
<path d="M8441 40274
L8441 41022
" />
<path d="M10725 40274
L10725 41022
" />
<path d="M48614 40274
L48614 41022
" />
<path d="M46331 40274
L46331 41022
" />
<path d="M84221 40274
L84221 41022
" />
<path d="M86504 40274
L86504 41022
" />
<path d="M124394 40274
L124394 41022
" />
<path d="M122110 40274
L122110 41022
" />
<path d="M122110 2223
L122110 1593
" />
<path d="M124394 1593
L124394 2223
" />
<path d="M130654 2223
L124394 2223
" />
<path d="M606.89 39093.5 A1181.1 1181.1 0.0 0 0 1787.99 40274.6 " />
<path d="M1787.99 2223.43 A1181.1 1181.1 0.0 0 0 606.89 3404.53 " />
<path d="M131835 3404.53 A1181.1 1181.1 0.0 0 0 130654 2223.43 " />
<path d="M130654 40274.6 A1181.1 1181.1 0.0 0 0 131835 39093.5 " />
<path d="M606 3404
L606 39093
" />
<path d="M131835 3404
L131835 39093
" />
<path d="M86504 2223
L122110 2223
" />
<path d="M124394 40274
L130654 40274
" />
<path d="M80400.5 33345.5 A196.85 196.85 0.0 0 0 80597.3 33542.3 " />
<path d="M69903 39054
L80646 39054
" />
<path d="M47634 33345
L47634 32951
" />
<path d="M75981.4 32754.9 A196.85 196.85 0.0 0 0 75784.5 32951.8 " />
<path d="M61458 32754
L57231 32754
" />
<path d="M80646 33542
L80597 33542
" />
<path d="M47831.4 32754.9 A196.85 196.85 0.0 0 0 47634.5 32951.8 " />
<path d="M66581.4 32754.9 A196.85 196.85 0.0 0 0 66384.5 32951.8 " />
<path d="M61655.4 32951.8 A196.85 196.85 0.0 0 0 61458.6 32754.9 " />
<path d="M57034 33345
L57034 32951
" />
<path d="M61655.4 33345.5 A196.85 196.85 0.0 0 0 61852.3 33542.3 " />
<path d="M61655 33345
L61655 32951
" />
<path d="M71025.5 32951.8 A196.85 196.85 0.0 0 0 70828.6 32754.9 " />
<path d="M66384 33345
L66384 32951
" />
<path d="M75784 33345
L75784 32951
" />
<path d="M71025 33345
L71025 32951
" />
<path d="M75587.7 33542.3 A196.85 196.85 0.0 0 0 75784.5 33345.5 " />
<path d="M71222 33542
L75587 33542
" />
<path d="M70828 32754
L66581 32754
" />
<path d="M57231.4 32754.9 A196.85 196.85 0.0 0 0 57034.5 32951.8 " />
<path d="M52078 32754
L47831 32754
" />
<path d="M52275.5 32951.8 A196.85 196.85 0.0 0 0 52078.6 32754.9 " />
<path d="M80203 32754
L75981 32754
" />
<path d="M56837.7 33542.3 A196.85 196.85 0.0 0 0 57034.5 33345.5 " />
<path d="M47437.7 33542.3 A196.85 196.85 0.0 0 0 47634.5 33345.5 " />
<path d="M80843.4 33739.2 A196.85 196.85 0.0 0 0 80646.6 33542.3 " />
<path d="M80400 33345
L80400 32951
" />
<path d="M42905.4 32951.8 A196.85 196.85 0.0 0 0 42708.6 32754.9 " />
<path d="M42708 32754
L38471 32754
" />
<path d="M38471.4 32754.9 A196.85 196.85 0.0 0 0 38274.5 32951.8 " />
<path d="M52472 33542
L56837 33542
" />
<path d="M37831 33739
L37831 38857
" />
<path d="M38077.7 33542.3 A196.85 196.85 0.0 0 0 38274.5 33345.5 " />
<path d="M38028 39054
L69903 39054
" />
<path d="M43102 33542
L47437 33542
" />
<path d="M80400.5 32951.8 A196.85 196.85 0.0 0 0 80203.6 32754.9 " />
<path d="M38274 33345
L38274 32951
" />
<path d="M38028.4 33542.3 A196.85 196.85 0.0 0 0 37831.6 33739.2 " />
<path d="M66187.7 33542.3 A196.85 196.85 0.0 0 0 66384.5 33345.5 " />
<path d="M42905 33345
L42905 32951
" />
<path d="M37831.6 38857.3 A196.85 196.85 0.0 0 0 38028.4 39054.1 " />
<path d="M42905.4 33345.5 A196.85 196.85 0.0 0 0 43102.3 33542.3 " />
<path d="M102187 31554.1 A196.85 196.85 0.0 0 0 101990 31751 " />
<path d="M111194 32341.5 A196.85 196.85 0.0 0 0 111390 32144.7 " />
<path d="M114631 26239.2 A196.85 196.85 0.0 0 0 114434 26042.3 " />
<path d="M114630 26239
L114630 31357
" />
<path d="M111587 31554
L114434 31554
" />
<path d="M99234 31750
L99234 32144
" />
<path d="M99431 32341
L101793 32341
" />
<path d="M96601.9 31357.3 A196.85 196.85 0.0 0 0 96798.7 31554.1 " />
<path d="M98806 26239
L98806 31357
" />
<path d="M99003.4 26042.3 A196.85 196.85 0.0 0 0 98806.6 26239.2 " />
<path d="M108831 26436 A196.85 196.85 0.0 0 0 108635 26632.9 " />
<path d="M96601 26239
L96601 31357
" />
<path d="M96798 31554
L97192 31554
" />
<path d="M98806.6 31357.3 A196.85 196.85 0.0 0 0 99003.4 31554.1 " />
<path d="M102187 31554
L107871 31554
" />
<path d="M108068 26239.2 A196.85 196.85 0.0 0 0 107872 26042.3 " />
<path d="M96798.7 26042.3 A196.85 196.85 0.0 0 0 96601.9 26239.2 " />
<path d="M107872 31554.1 A196.85 196.85 0.0 0 0 108068 31357.3 " />
<path d="M108922 26436 A196.85 196.85 0.0 0 0 109119 26239.2 " />
<path d="M111587 31554.1 A196.85 196.85 0.0 0 0 111390 31751 " />
<path d="M109315 26042
L114434 26042
" />
<path d="M111390 31750
L111390 32144
" />
<path d="M101794 32341.5 A196.85 196.85 0.0 0 0 101990 32144.7 " />
<path d="M99234.5 32144.7 A196.85 196.85 0.0 0 0 99431.4 32341.5 " />
<path d="M99234.5 31751 A196.85 196.85 0.0 0 0 99037.7 31554.1 " />
<path d="M108831 32341
L111193 32341
" />
<path d="M97389.3 26239.2 A196.85 196.85 0.0 0 0 97192.4 26042.3 " />
<path d="M108068 26239
L108068 31357
" />
<path d="M97192.4 31554.1 A196.85 196.85 0.0 0 0 97389.3 31357.3 " />
<path d="M96798 26042
L97192 26042
" />
<path d="M114434 31554.1 A196.85 196.85 0.0 0 0 114631 31357.3 " />
<path d="M109316 26042.3 A196.85 196.85 0.0 0 0 109119 26239.2 " />
<path d="M101990 31750
L101990 32144
" />
<path d="M108634 26632
L108634 32144
" />
<path d="M97389 26239
L97389 31357
" />
<path d="M108635 32144.7 A196.85 196.85 0.0 0 0 108831 32341.5 " />
<path d="M6798 18542
L7192 18542
" />
<path d="M16193 18739
L16193 23857
" />
<path d="M15996.6 24054.1 A196.85 196.85 0.0 0 0 16193.4 23857.3 " />
<path d="M18398 18739
L18398 23857
" />
<path d="M7389 18739
L7389 23857
" />
<path d="M6798 24054
L7192 24054
" />
<path d="M9003 18542
L15996 18542
" />
<path d="M8806.59 23857.3 A196.85 196.85 0.0 0 0 9003.44 24054.1 " />
<path d="M6601 18739
L6601 23857
" />
<path d="M9003 24054
L15996 24054
" />
<path d="M7389.27 18739.2 A196.85 196.85 0.0 0 0 7192.42 18542.3 " />
<path d="M7192.42 24054.1 A196.85 196.85 0.0 0 0 7389.27 23857.3 " />
<path d="M17610 18739
L17610 23857
" />
<path d="M17807 18542
L18201 18542
" />
<path d="M17807 24054
L18201 24054
" />
<path d="M18201.3 24054.1 A196.85 196.85 0.0 0 0 18398.1 23857.3 " />
<path d="M8806 18739
L8806 23857
" />
<path d="M17610.7 23857.3 A196.85 196.85 0.0 0 0 17807.6 24054.1 " />
<path d="M6798.72 18542.3 A196.85 196.85 0.0 0 0 6601.87 18739.2 " />
<path d="M9003.44 18542.3 A196.85 196.85 0.0 0 0 8806.59 18739.2 " />
<path d="M16193.4 18739.2 A196.85 196.85 0.0 0 0 15996.6 18542.3 " />
<path d="M18398.1 18739.2 A196.85 196.85 0.0 0 0 18201.3 18542.3 " />
<path d="M17807.6 18542.3 A196.85 196.85 0.0 0 0 17610.7 18739.2 " />
<path d="M6601.87 23857.3 A196.85 196.85 0.0 0 0 6798.72 24054.1 " />
<path d="M110994 3739
L110994 8857
" />
<path d="M120822 9644.69 A196.85 196.85 0.0 0 0 121019 9841.54 " />
<path d="M111422 9250
L111422 9644
" />
<path d="M111422 9250.98 A196.85 196.85 0.0 0 0 111225 9054.13 " />
<path d="M123775 9054.13 A196.85 196.85 0.0 0 0 123578 9250.98 " />
<path d="M113981 9841.54 A196.85 196.85 0.0 0 0 114178 9644.69 " />
<path d="M114177 9250
L114177 9644
" />
<path d="M123809 9054.13 A196.85 196.85 0.0 0 0 124006 8857.28 " />
<path d="M123577 9250
L123577 9644
" />
<path d="M111191 3542.32 A196.85 196.85 0.0 0 0 110994 3739.17 " />
<path d="M111422 9644.69 A196.85 196.85 0.0 0 0 111619 9841.54 " />
<path d="M121018 9841
L123381 9841
" />
<path d="M110994 8857.28 A196.85 196.85 0.0 0 0 111191 9054.13 " />
<path d="M124005 3739
L124005 8857
" />
<path d="M114375 9054.13 A196.85 196.85 0.0 0 0 114178 9250.98 " />
<path d="M111618 9841
L113981 9841
" />
<path d="M123381 9841.54 A196.85 196.85 0.0 0 0 123578 9644.69 " />
<path d="M114374 9054
L120625 9054
" />
<path d="M120822 9250.98 A196.85 196.85 0.0 0 0 120625 9054.13 " />
<path d="M111190 3542
L123809 3542
" />
<path d="M124006 3739.17 A196.85 196.85 0.0 0 0 123809 3542.32 " />
<path d="M120822 9250
L120822 9644
" />
</g>
<g style="fill:#000000; fill-opacity:0.0; 
stroke:#000000; stroke-width:19.685; stroke-opacity:1; 
stroke-linecap:round; stroke-linejoin:round;">
<path d="M17394.4 32341.5 A196.85 196.85 0.0 0 0 17591.2 32144.7 " />
<path d="M14933.8 32144.7 A196.85 196.85 0.0 0 0 15130.6 32341.5 " />
<path d="M15130.6 26436 A196.85 196.85 0.0 0 0 14933.8 26632.9 " />
<path d="M17591.2 26632.9 A196.85 196.85 0.0 0 0 17394.4 26436 " />
<path d="M14318.4 26239.2 A196.85 196.85 0.0 0 0 14121.6 26042.3 " />
<path d="M14121.6 31554.1 A196.85 196.85 0.0 0 0 14318.4 31357.3 " />
<path d="M8806.59 31357.3 A196.85 196.85 0.0 0 0 9003.44 31554.1 " />
<path d="M9003.44 26042.3 A196.85 196.85 0.0 0 0 8806.59 26239.2 " />
<path d="M7994.39 32341.5 A196.85 196.85 0.0 0 0 8191.24 32144.7 " />
<path d="M5533.76 32144.7 A196.85 196.85 0.0 0 0 5730.61 32341.5 " />
<path d="M5730.61 26436 A196.85 196.85 0.0 0 0 5533.76 26632.9 " />
<path d="M8191.24 26632.9 A196.85 196.85 0.0 0 0 7994.39 26436 " />
<path d="M9003 26042
L14121 26042
" />
<path d="M14318 26239
L14318 31357
" />
<path d="M14121 31554
L9003 31554
" />
<path d="M8806 31357
L8806 26239
" />
<path d="M8191 26632
L8191 32144
" />
<path d="M7994 32341
L5730 32341
" />
<path d="M5533 32144
L5533 26632
" />
<path d="M5730 26436
L7994 26436
" />
<path d="M17591 26632
L17591 32144
" />
<path d="M17394 32341
L15130 32341
" />
<path d="M14933 32144
L14933 26632
" />
<path d="M15130 26436
L17394 26436
" />
<path d="M116769 24841.5 A196.85 196.85 0.0 0 0 116966 24644.7 " />
<path d="M114309 24644.7 A196.85 196.85 0.0 0 0 114506 24841.5 " />
<path d="M114506 18936 A196.85 196.85 0.0 0 0 114309 19132.9 " />
<path d="M116966 19132.9 A196.85 196.85 0.0 0 0 116769 18936 " />
<path d="M113693 18739.2 A196.85 196.85 0.0 0 0 113497 18542.3 " />
<path d="M113497 24054.1 A196.85 196.85 0.0 0 0 113693 23857.3 " />
<path d="M108182 23857.3 A196.85 196.85 0.0 0 0 108378 24054.1 " />
<path d="M108378 18542.3 A196.85 196.85 0.0 0 0 108182 18739.2 " />
<path d="M107369 24841.5 A196.85 196.85 0.0 0 0 107566 24644.7 " />
<path d="M104909 24644.7 A196.85 196.85 0.0 0 0 105106 24841.5 " />
<path d="M105106 18936 A196.85 196.85 0.0 0 0 104909 19132.9 " />
<path d="M107566 19132.9 A196.85 196.85 0.0 0 0 107369 18936 " />
<path d="M108378 18542
L113496 18542
" />
<path d="M113693 18739
L113693 23857
" />
<path d="M113496 24054
L108378 24054
" />
<path d="M108181 23857
L108181 18739
" />
<path d="M107566 19132
L107566 24644
" />
<path d="M107369 24841
L105105 24841
" />
<path d="M104908 24644
L104908 19132
" />
<path d="M105105 18936
L107369 18936
" />
<path d="M116966 19132
L116966 24644
" />
<path d="M116769 24841
L114505 24841
" />
<path d="M114308 24644
L114308 19132
" />
<path d="M114505 18936
L116769 18936
" />
</g>
<g style="fill:#000000; fill-opacity:0.0; 
stroke:#000000; stroke-width:47.2441; stroke-opacity:1; 
stroke-linecap:round; stroke-linejoin:round;">
<path d="M120389 16554.1 A196.85 196.85 0.0 0 0 120586 16357.3 " />
<path d="M119798 16357.3 A196.85 196.85 0.0 0 0 119995 16554.1 " />
<path d="M120586 11239.2 A196.85 196.85 0.0 0 0 120389 11042.3 " />
<path d="M119995 11042.3 A196.85 196.85 0.0 0 0 119798 11239.2 " />
<path d="M111255 16554.1 A196.85 196.85 0.0 0 0 111452 16357.3 " />
<path d="M110664 16357.3 A196.85 196.85 0.0 0 0 110861 16554.1 " />
<path d="M111452 11239.2 A196.85 196.85 0.0 0 0 111255 11042.3 " />
<path d="M110861 11042.3 A196.85 196.85 0.0 0 0 110664 11239.2 " />
<path d="M110861 16554
L111254 16554
" />
<path d="M120585 11239
L120585 16357
" />
<path d="M119995 11042
L120388 11042
" />
<path d="M119798 11239
L119798 16357
" />
<path d="M111254 11042
L110861 11042
" />
<path d="M111451 16357
L111451 11239
" />
<path d="M120388 16554
L119995 16554
" />
<path d="M110664 11239
L110664 16357
" />
<path d="M118184 16554.1 A196.85 196.85 0.0 0 0 118381 16357.3 " />
<path d="M113066 11042.3 A196.85 196.85 0.0 0 0 112869 11239.2 " />
<path d="M112869 16357.3 A196.85 196.85 0.0 0 0 113066 16554.1 " />
<path d="M118381 11239.2 A196.85 196.85 0.0 0 0 118184 11042.3 " />
<path d="M112869 11239
L112869 16357
" />
<path d="M118380 16357
L118380 11239
" />
<path d="M113065 16554
L118184 16554
" />
<path d="M113065 11042
L118184 11042
" />
<path d="M19138.8 16554.1 A196.85 196.85 0.0 0 0 19335.6 16357.3 " />
<path d="M18548.2 16357.3 A196.85 196.85 0.0 0 0 18745.1 16554.1 " />
<path d="M19335.6 11239.2 A196.85 196.85 0.0 0 0 19138.8 11042.3 " />
<path d="M18745.1 11042.3 A196.85 196.85 0.0 0 0 18548.2 11239.2 " />
<path d="M10004.9 16554.1 A196.85 196.85 0.0 0 0 10201.8 16357.3 " />
<path d="M9414.37 16357.3 A196.85 196.85 0.0 0 0 9611.22 16554.1 " />
<path d="M10201.8 11239.2 A196.85 196.85 0.0 0 0 10004.9 11042.3 " />
<path d="M9611.22 11042.3 A196.85 196.85 0.0 0 0 9414.37 11239.2 " />
<path d="M9611 16554
L10004 16554
" />
<path d="M19335 11239
L19335 16357
" />
<path d="M18745 11042
L19138 11042
" />
<path d="M18548 11239
L18548 16357
" />
<path d="M10004 11042
L9611 11042
" />
<path d="M10201 16357
L10201 11239
" />
<path d="M19138 16554
L18745 16554
" />
<path d="M9414 11239
L9414 16357
" />
<path d="M16934.1 16554.1 A196.85 196.85 0.0 0 0 17130.9 16357.3 " />
<path d="M11815.9 11042.3 A196.85 196.85 0.0 0 0 11619.1 11239.2 " />
<path d="M11619.1 16357.3 A196.85 196.85 0.0 0 0 11815.9 16554.1 " />
<path d="M17130.9 11239.2 A196.85 196.85 0.0 0 0 16934.1 11042.3 " />
<path d="M11619 11239
L11619 16357
" />
<path d="M17130 16357
L17130 11239
" />
<path d="M11815 16554
L16934 16554
" />
<path d="M11815 11042
L16934 11042
" />
</g>
<g style="fill:#000000; fill-opacity:0.0; 
stroke:#000000; stroke-width:19.685; stroke-opacity:1; 
stroke-linecap:round; stroke-linejoin:round;">
<path d="M10964.6 8936.02 A196.85 196.85 0.0 0 0 11161.4 8739.17 " />
<path d="M4921.26 8739.17 A196.85 196.85 0.0 0 0 5118.11 8936.02 " />
<path d="M5118.11 3660.43 A196.85 196.85 0.0 0 0 4921.26 3857.28 " />
<path d="M11161.4 3857.28 A196.85 196.85 0.0 0 0 10964.6 3660.43 " />
<path d="M11161 8739
L11161 3857
" />
<path d="M5118 8936
L10964 8936
" />
<path d="M4921 3857
L4921 8739
" />
<path d="M10964 3660
L5118 3660
" />
<path d="M8693 38857
L8693 33739
" />
<path d="M3378 39054
L8496 39054
" />
<path d="M3181 33739
L3181 38857
" />
<path d="M8496 33542
L3378 33542
" />
<path d="M8693.41 33739.2 A196.85 196.85 0.0 0 0 8496.56 33542.3 " />
<path d="M3378.44 33542.3 A196.85 196.85 0.0 0 0 3181.59 33739.2 " />
<path d="M3181.59 38857.3 A196.85 196.85 0.0 0 0 3378.44 39054.1 " />
<path d="M8496.56 39054.1 A196.85 196.85 0.0 0 0 8693.41 38857.3 " />
<path d="M18068 38857
L18068 33739
" />
<path d="M12753 39054
L17871 39054
" />
<path d="M12556 33739
L12556 38857
" />
<path d="M17871 33542
L12753 33542
" />
<path d="M18068.4 33739.2 A196.85 196.85 0.0 0 0 17871.6 33542.3 " />
<path d="M12753.4 33542.3 A196.85 196.85 0.0 0 0 12556.6 33739.2 " />
<path d="M12556.6 38857.3 A196.85 196.85 0.0 0 0 12753.4 39054.1 " />
<path d="M17871.6 39054.1 A196.85 196.85 0.0 0 0 18068.4 38857.3 " />
<path d="M33968 38857
L33968 33739
" />
<path d="M28653 39054
L33771 39054
" />
<path d="M28456 33739
L28456 38857
" />
<path d="M33771 33542
L28653 33542
" />
<path d="M33968.4 33739.2 A196.85 196.85 0.0 0 0 33771.6 33542.3 " />
<path d="M28653.4 33542.3 A196.85 196.85 0.0 0 0 28456.6 33739.2 " />
<path d="M28456.6 38857.3 A196.85 196.85 0.0 0 0 28653.4 39054.1 " />
<path d="M33771.6 39054.1 A196.85 196.85 0.0 0 0 33968.4 38857.3 " />
<path d="M99593 38857
L99593 33739
" />
<path d="M94278 39054
L99396 39054
" />
<path d="M94081 33739
L94081 38857
" />
<path d="M99396 33542
L94278 33542
" />
<path d="M99593.4 33739.2 A196.85 196.85 0.0 0 0 99396.6 33542.3 " />
<path d="M94278.4 33542.3 A196.85 196.85 0.0 0 0 94081.6 33739.2 " />
<path d="M94081.6 38857.3 A196.85 196.85 0.0 0 0 94278.4 39054.1 " />
<path d="M99396.6 39054.1 A196.85 196.85 0.0 0 0 99593.4 38857.3 " />
<path d="M90218 38857
L90218 33739
" />
<path d="M84903 39054
L90021 39054
" />
<path d="M84706 33739
L84706 38857
" />
<path d="M90021 33542
L84903 33542
" />
<path d="M90218.4 33739.2 A196.85 196.85 0.0 0 0 90021.6 33542.3 " />
<path d="M84903.4 33542.3 A196.85 196.85 0.0 0 0 84706.6 33739.2 " />
<path d="M84706.6 38857.3 A196.85 196.85 0.0 0 0 84903.4 39054.1 " />
<path d="M90021.6 39054.1 A196.85 196.85 0.0 0 0 90218.4 38857.3 " />
<path d="M121934 39054.1 A196.85 196.85 0.0 0 0 122131 38857.3 " />
<path d="M116619 38857.3 A196.85 196.85 0.0 0 0 116816 39054.1 " />
<path d="M116816 33542.3 A196.85 196.85 0.0 0 0 116619 33739.2 " />
<path d="M122131 33739.2 A196.85 196.85 0.0 0 0 121934 33542.3 " />
<path d="M122130 38857
L122130 33739
" />
<path d="M116815 39054
L121934 39054
" />
<path d="M116619 33739
L116619 38857
" />
<path d="M121934 33542
L116815 33542
" />
<path d="M71309.1 31554.1 A196.85 196.85 0.0 0 0 71505.9 31357.3 " />
<path d="M65994.1 31357.3 A196.85 196.85 0.0 0 0 66190.9 31554.1 " />
<path d="M66190.9 26042.3 A196.85 196.85 0.0 0 0 65994.1 26239.2 " />
<path d="M71505.9 26239.2 A196.85 196.85 0.0 0 0 71309.1 26042.3 " />
<path d="M71505 31357
L71505 26239
" />
<path d="M66190 31554
L71309 31554
" />
<path d="M65994 26239
L65994 31357
" />
<path d="M71309 26042
L66190 26042
" />
<path d="M63809.1 24054.1 A196.85 196.85 0.0 0 0 64005.9 23857.3 " />
<path d="M58494.1 23857.3 A196.85 196.85 0.0 0 0 58690.9 24054.1 " />
<path d="M58690.9 18542.3 A196.85 196.85 0.0 0 0 58494.1 18739.2 " />
<path d="M64005.9 18739.2 A196.85 196.85 0.0 0 0 63809.1 18542.3 " />
<path d="M64005 23857
L64005 18739
" />
<path d="M58690 24054
L63809 24054
" />
<path d="M58494 18739
L58494 23857
" />
<path d="M63809 18542
L58690 18542
" />
<path d="M56309 18542
L51190 18542
" />
<path d="M50994 18739
L50994 23857
" />
<path d="M51190 24054
L56309 24054
" />
<path d="M56505 23857
L56505 18739
" />
<path d="M56505.9 18739.2 A196.85 196.85 0.0 0 0 56309.1 18542.3 " />
<path d="M51190.9 18542.3 A196.85 196.85 0.0 0 0 50994.1 18739.2 " />
<path d="M50994.1 23857.3 A196.85 196.85 0.0 0 0 51190.9 24054.1 " />
<path d="M56309.1 24054.1 A196.85 196.85 0.0 0 0 56505.9 23857.3 " />
<path d="M41309 18542
L36190 18542
" />
<path d="M35994 18739
L35994 23857
" />
<path d="M36190 24054
L41309 24054
" />
<path d="M41505 23857
L41505 18739
" />
<path d="M41505.9 18739.2 A196.85 196.85 0.0 0 0 41309.1 18542.3 " />
<path d="M36190.9 18542.3 A196.85 196.85 0.0 0 0 35994.1 18739.2 " />
<path d="M35994.1 23857.3 A196.85 196.85 0.0 0 0 36190.9 24054.1 " />
<path d="M41309.1 24054.1 A196.85 196.85 0.0 0 0 41505.9 23857.3 " />
<path d="M71309.1 24054.1 A196.85 196.85 0.0 0 0 71505.9 23857.3 " />
<path d="M65994.1 23857.3 A196.85 196.85 0.0 0 0 66190.9 24054.1 " />
<path d="M66190.9 18542.3 A196.85 196.85 0.0 0 0 65994.1 18739.2 " />
<path d="M71505.9 18739.2 A196.85 196.85 0.0 0 0 71309.1 18542.3 " />
<path d="M71505 23857
L71505 18739
" />
<path d="M66190 24054
L71309 24054
" />
<path d="M65994 18739
L65994 23857
" />
<path d="M71309 18542
L66190 18542
" />
<path d="M48809 18542
L43690 18542
" />
<path d="M43494 18739
L43494 23857
" />
<path d="M43690 24054
L48809 24054
" />
<path d="M49005 23857
L49005 18739
" />
<path d="M49005.9 18739.2 A196.85 196.85 0.0 0 0 48809.1 18542.3 " />
<path d="M43690.9 18542.3 A196.85 196.85 0.0 0 0 43494.1 18739.2 " />
<path d="M43494.1 23857.3 A196.85 196.85 0.0 0 0 43690.9 24054.1 " />
<path d="M48809.1 24054.1 A196.85 196.85 0.0 0 0 49005.9 23857.3 " />
<path d="M78809 26042
L73690 26042
" />
<path d="M73494 26239
L73494 31357
" />
<path d="M73690 31554
L78809 31554
" />
<path d="M79005 31357
L79005 26239
" />
<path d="M79005.9 26239.2 A196.85 196.85 0.0 0 0 78809.1 26042.3 " />
<path d="M73690.9 26042.3 A196.85 196.85 0.0 0 0 73494.1 26239.2 " />
<path d="M73494.1 31357.3 A196.85 196.85 0.0 0 0 73690.9 31554.1 " />
<path d="M78809.1 31554.1 A196.85 196.85 0.0 0 0 79005.9 31357.3 " />
<path d="M93809 26042
L88690 26042
" />
<path d="M88494 26239
L88494 31357
" />
<path d="M88690 31554
L93809 31554
" />
<path d="M94005 31357
L94005 26239
" />
<path d="M94005.9 26239.2 A196.85 196.85 0.0 0 0 93809.1 26042.3 " />
<path d="M88690.9 26042.3 A196.85 196.85 0.0 0 0 88494.1 26239.2 " />
<path d="M88494.1 31357.3 A196.85 196.85 0.0 0 0 88690.9 31554.1 " />
<path d="M93809.1 31554.1 A196.85 196.85 0.0 0 0 94005.9 31357.3 " />
<path d="M129434 39054.1 A196.85 196.85 0.0 0 0 129631 38857.3 " />
<path d="M124119 38857.3 A196.85 196.85 0.0 0 0 124316 39054.1 " />
<path d="M124316 33542.3 A196.85 196.85 0.0 0 0 124119 33739.2 " />
<path d="M129631 33739.2 A196.85 196.85 0.0 0 0 129434 33542.3 " />
<path d="M129630 38857
L129630 33739
" />
<path d="M124315 39054
L129434 39054
" />
<path d="M124119 33739
L124119 38857
" />
<path d="M129434 33542
L124315 33542
" />
<path d="M101309 18542
L96190 18542
" />
<path d="M95994 18739
L95994 23857
" />
<path d="M96190 24054
L101309 24054
" />
<path d="M101505 23857
L101505 18739
" />
<path d="M101506 18739.2 A196.85 196.85 0.0 0 0 101309 18542.3 " />
<path d="M96190.9 18542.3 A196.85 196.85 0.0 0 0 95994.1 18739.2 " />
<path d="M95994.1 23857.3 A196.85 196.85 0.0 0 0 96190.9 24054.1 " />
<path d="M101309 24054.1 A196.85 196.85 0.0 0 0 101506 23857.3 " />
<path d="M41309.1 31554.1 A196.85 196.85 0.0 0 0 41505.9 31357.3 " />
<path d="M35994.1 31357.3 A196.85 196.85 0.0 0 0 36190.9 31554.1 " />
<path d="M36190.9 26042.3 A196.85 196.85 0.0 0 0 35994.1 26239.2 " />
<path d="M41505.9 26239.2 A196.85 196.85 0.0 0 0 41309.1 26042.3 " />
<path d="M41505 31357
L41505 26239
" />
<path d="M36190 31554
L41309 31554
" />
<path d="M35994 26239
L35994 31357
" />
<path d="M41309 26042
L36190 26042
" />
<path d="M114434 39054.1 A196.85 196.85 0.0 0 0 114631 38857.3 " />
<path d="M109119 38857.3 A196.85 196.85 0.0 0 0 109316 39054.1 " />
<path d="M109316 33542.3 A196.85 196.85 0.0 0 0 109119 33739.2 " />
<path d="M114631 33739.2 A196.85 196.85 0.0 0 0 114434 33542.3 " />
<path d="M114630 38857
L114630 33739
" />
<path d="M109315 39054
L114434 39054
" />
<path d="M109119 33739
L109119 38857
" />
<path d="M114434 33542
L109315 33542
" />
<path d="M121934 31554.1 A196.85 196.85 0.0 0 0 122131 31357.3 " />
<path d="M116619 31357.3 A196.85 196.85 0.0 0 0 116816 31554.1 " />
<path d="M116816 26042.3 A196.85 196.85 0.0 0 0 116619 26239.2 " />
<path d="M122131 26239.2 A196.85 196.85 0.0 0 0 121934 26042.3 " />
<path d="M122130 31357
L122130 26239
" />
<path d="M116815 31554
L121934 31554
" />
<path d="M116619 26239
L116619 31357
" />
<path d="M121934 26042
L116815 26042
" />
<path d="M93809 18542
L88690 18542
" />
<path d="M88494 18739
L88494 23857
" />
<path d="M88690 24054
L93809 24054
" />
<path d="M94005 23857
L94005 18739
" />
<path d="M94005.9 18739.2 A196.85 196.85 0.0 0 0 93809.1 18542.3 " />
<path d="M88690.9 18542.3 A196.85 196.85 0.0 0 0 88494.1 18739.2 " />
<path d="M88494.1 23857.3 A196.85 196.85 0.0 0 0 88690.9 24054.1 " />
<path d="M93809.1 24054.1 A196.85 196.85 0.0 0 0 94005.9 23857.3 " />
<path d="M48809.1 31554.1 A196.85 196.85 0.0 0 0 49005.9 31357.3 " />
<path d="M43494.1 31357.3 A196.85 196.85 0.0 0 0 43690.9 31554.1 " />
<path d="M43690.9 26042.3 A196.85 196.85 0.0 0 0 43494.1 26239.2 " />
<path d="M49005.9 26239.2 A196.85 196.85 0.0 0 0 48809.1 26042.3 " />
<path d="M49005 31357
L49005 26239
" />
<path d="M43690 31554
L48809 31554
" />
<path d="M43494 26239
L43494 31357
" />
<path d="M48809 26042
L43690 26042
" />
<path d="M56309.1 31554.1 A196.85 196.85 0.0 0 0 56505.9 31357.3 " />
<path d="M50994.1 31357.3 A196.85 196.85 0.0 0 0 51190.9 31554.1 " />
<path d="M51190.9 26042.3 A196.85 196.85 0.0 0 0 50994.1 26239.2 " />
<path d="M56505.9 26239.2 A196.85 196.85 0.0 0 0 56309.1 26042.3 " />
<path d="M56505 31357
L56505 26239
" />
<path d="M51190 31554
L56309 31554
" />
<path d="M50994 26239
L50994 31357
" />
<path d="M56309 26042
L51190 26042
" />
<path d="M86309 26042
L81190 26042
" />
<path d="M80994 26239
L80994 31357
" />
<path d="M81190 31554
L86309 31554
" />
<path d="M86505 31357
L86505 26239
" />
<path d="M86505.9 26239.2 A196.85 196.85 0.0 0 0 86309.1 26042.3 " />
<path d="M81190.9 26042.3 A196.85 196.85 0.0 0 0 80994.1 26239.2 " />
<path d="M80994.1 31357.3 A196.85 196.85 0.0 0 0 81190.9 31554.1 " />
<path d="M86309.1 31554.1 A196.85 196.85 0.0 0 0 86505.9 31357.3 " />
<path d="M63809 26042
L58690 26042
" />
<path d="M58494 26239
L58494 31357
" />
<path d="M58690 31554
L63809 31554
" />
<path d="M64005 31357
L64005 26239
" />
<path d="M64005.9 26239.2 A196.85 196.85 0.0 0 0 63809.1 26042.3 " />
<path d="M58690.9 26042.3 A196.85 196.85 0.0 0 0 58494.1 26239.2 " />
<path d="M58494.1 31357.3 A196.85 196.85 0.0 0 0 58690.9 31554.1 " />
<path d="M63809.1 31554.1 A196.85 196.85 0.0 0 0 64005.9 31357.3 " />
<path d="M78809 18542
L73690 18542
" />
<path d="M73494 18739
L73494 23857
" />
<path d="M73690 24054
L78809 24054
" />
<path d="M79005 23857
L79005 18739
" />
<path d="M79005.9 18739.2 A196.85 196.85 0.0 0 0 78809.1 18542.3 " />
<path d="M73690.9 18542.3 A196.85 196.85 0.0 0 0 73494.1 18739.2 " />
<path d="M73494.1 23857.3 A196.85 196.85 0.0 0 0 73690.9 24054.1 " />
<path d="M78809.1 24054.1 A196.85 196.85 0.0 0 0 79005.9 23857.3 " />
<path d="M86309 18542
L81190 18542
" />
<path d="M80994 18739
L80994 23857
" />
<path d="M81190 24054
L86309 24054
" />
<path d="M86505 23857
L86505 18739
" />
<path d="M86505.9 18739.2 A196.85 196.85 0.0 0 0 86309.1 18542.3 " />
<path d="M81190.9 18542.3 A196.85 196.85 0.0 0 0 80994.1 18739.2 " />
<path d="M80994.1 23857.3 A196.85 196.85 0.0 0 0 81190.9 24054.1 " />
<path d="M86309.1 24054.1 A196.85 196.85 0.0 0 0 86505.9 23857.3 " />
<path d="M33809 18542
L28690 18542
" />
<path d="M28494 18739
L28494 23857
" />
<path d="M28690 24054
L33809 24054
" />
<path d="M34005 23857
L34005 18739
" />
<path d="M34005.9 18739.2 A196.85 196.85 0.0 0 0 33809.1 18542.3 " />
<path d="M28690.9 18542.3 A196.85 196.85 0.0 0 0 28494.1 18739.2 " />
<path d="M28494.1 23857.3 A196.85 196.85 0.0 0 0 28690.9 24054.1 " />
<path d="M33809.1 24054.1 A196.85 196.85 0.0 0 0 34005.9 23857.3 " />
<path d="M33809.1 31554.1 A196.85 196.85 0.0 0 0 34005.9 31357.3 " />
<path d="M28494.1 31357.3 A196.85 196.85 0.0 0 0 28690.9 31554.1 " />
<path d="M28690.9 26042.3 A196.85 196.85 0.0 0 0 28494.1 26239.2 " />
<path d="M34005.9 26239.2 A196.85 196.85 0.0 0 0 33809.1 26042.3 " />
<path d="M34005 31357
L34005 26239
" />
<path d="M28690 31554
L33809 31554
" />
<path d="M28494 26239
L28494 31357
" />
<path d="M33809 26042
L28690 26042
" />
<path d="M26309.1 31554.1 A196.85 196.85 0.0 0 0 26505.9 31357.3 " />
<path d="M20994.1 31357.3 A196.85 196.85 0.0 0 0 21190.9 31554.1 " />
<path d="M21190.9 26042.3 A196.85 196.85 0.0 0 0 20994.1 26239.2 " />
<path d="M26505.9 26239.2 A196.85 196.85 0.0 0 0 26309.1 26042.3 " />
<path d="M26505 31357
L26505 26239
" />
<path d="M21190 31554
L26309 31554
" />
<path d="M20994 26239
L20994 31357
" />
<path d="M26309 26042
L21190 26042
" />
<path d="M26309.1 24054.1 A196.85 196.85 0.0 0 0 26505.9 23857.3 " />
<path d="M20994.1 23857.3 A196.85 196.85 0.0 0 0 21190.9 24054.1 " />
<path d="M21190.9 18542.3 A196.85 196.85 0.0 0 0 20994.1 18739.2 " />
<path d="M26505.9 18739.2 A196.85 196.85 0.0 0 0 26309.1 18542.3 " />
<path d="M26505 23857
L26505 18739
" />
<path d="M21190 24054
L26309 24054
" />
<path d="M20994 18739
L20994 23857
" />
<path d="M26309 18542
L21190 18542
" />
<path d="M78809 11042
L73690 11042
" />
<path d="M73494 11239
L73494 16357
" />
<path d="M73690 16554
L78809 16554
" />
<path d="M79005 16357
L79005 11239
" />
<path d="M79005.9 11239.2 A196.85 196.85 0.0 0 0 78809.1 11042.3 " />
<path d="M73690.9 11042.3 A196.85 196.85 0.0 0 0 73494.1 11239.2 " />
<path d="M73494.1 16357.3 A196.85 196.85 0.0 0 0 73690.9 16554.1 " />
<path d="M78809.1 16554.1 A196.85 196.85 0.0 0 0 79005.9 16357.3 " />
<path d="M56309 11042
L51190 11042
" />
<path d="M50994 11239
L50994 16357
" />
<path d="M51190 16554
L56309 16554
" />
<path d="M56505 16357
L56505 11239
" />
<path d="M56505.9 11239.2 A196.85 196.85 0.0 0 0 56309.1 11042.3 " />
<path d="M51190.9 11042.3 A196.85 196.85 0.0 0 0 50994.1 11239.2 " />
<path d="M50994.1 16357.3 A196.85 196.85 0.0 0 0 51190.9 16554.1 " />
<path d="M56309.1 16554.1 A196.85 196.85 0.0 0 0 56505.9 16357.3 " />
<path d="M48809 11042
L43690 11042
" />
<path d="M43494 11239
L43494 16357
" />
<path d="M43690 16554
L48809 16554
" />
<path d="M49005 16357
L49005 11239
" />
<path d="M49005.9 11239.2 A196.85 196.85 0.0 0 0 48809.1 11042.3 " />
<path d="M43690.9 11042.3 A196.85 196.85 0.0 0 0 43494.1 11239.2 " />
<path d="M43494.1 16357.3 A196.85 196.85 0.0 0 0 43690.9 16554.1 " />
<path d="M48809.1 16554.1 A196.85 196.85 0.0 0 0 49005.9 16357.3 " />
<path d="M86309.1 16554.1 A196.85 196.85 0.0 0 0 86505.9 16357.3 " />
<path d="M80994.1 16357.3 A196.85 196.85 0.0 0 0 81190.9 16554.1 " />
<path d="M81190.9 11042.3 A196.85 196.85 0.0 0 0 80994.1 11239.2 " />
<path d="M86505.9 11239.2 A196.85 196.85 0.0 0 0 86309.1 11042.3 " />
<path d="M86505 16357
L86505 11239
" />
<path d="M81190 16554
L86309 16554
" />
<path d="M80994 11239
L80994 16357
" />
<path d="M86309 11042
L81190 11042
" />
<path d="M93809.1 16554.1 A196.85 196.85 0.0 0 0 94005.9 16357.3 " />
<path d="M88494.1 16357.3 A196.85 196.85 0.0 0 0 88690.9 16554.1 " />
<path d="M88690.9 11042.3 A196.85 196.85 0.0 0 0 88494.1 11239.2 " />
<path d="M94005.9 11239.2 A196.85 196.85 0.0 0 0 93809.1 11042.3 " />
<path d="M94005 16357
L94005 11239
" />
<path d="M88690 16554
L93809 16554
" />
<path d="M88494 11239
L88494 16357
" />
<path d="M93809 11042
L88690 11042
" />
<path d="M101309 16554.1 A196.85 196.85 0.0 0 0 101506 16357.3 " />
<path d="M95994.1 16357.3 A196.85 196.85 0.0 0 0 96190.9 16554.1 " />
<path d="M96190.9 11042.3 A196.85 196.85 0.0 0 0 95994.1 11239.2 " />
<path d="M101506 11239.2 A196.85 196.85 0.0 0 0 101309 11042.3 " />
<path d="M101505 16357
L101505 11239
" />
<path d="M96190 16554
L101309 16554
" />
<path d="M95994 11239
L95994 16357
" />
<path d="M101309 11042
L96190 11042
" />
<path d="M63809 3542
L58690 3542
" />
<path d="M58494 3739
L58494 8857
" />
<path d="M58690 9054
L63809 9054
" />
<path d="M64005 8857
L64005 3739
" />
<path d="M64005.9 3739.17 A196.85 196.85 0.0 0 0 63809.1 3542.32 " />
<path d="M58690.9 3542.32 A196.85 196.85 0.0 0 0 58494.1 3739.17 " />
<path d="M58494.1 8857.28 A196.85 196.85 0.0 0 0 58690.9 9054.13 " />
<path d="M63809.1 9054.13 A196.85 196.85 0.0 0 0 64005.9 8857.28 " />
<path d="M56309 3542
L51190 3542
" />
<path d="M50994 3739
L50994 8857
" />
<path d="M51190 9054
L56309 9054
" />
<path d="M56505 8857
L56505 3739
" />
<path d="M56505.9 3739.17 A196.85 196.85 0.0 0 0 56309.1 3542.32 " />
<path d="M51190.9 3542.32 A196.85 196.85 0.0 0 0 50994.1 3739.17 " />
<path d="M50994.1 8857.28 A196.85 196.85 0.0 0 0 51190.9 9054.13 " />
<path d="M56309.1 9054.13 A196.85 196.85 0.0 0 0 56505.9 8857.28 " />
<path d="M48809 3542
L43690 3542
" />
<path d="M43494 3739
L43494 8857
" />
<path d="M43690 9054
L48809 9054
" />
<path d="M49005 8857
L49005 3739
" />
<path d="M49005.9 3739.17 A196.85 196.85 0.0 0 0 48809.1 3542.32 " />
<path d="M43690.9 3542.32 A196.85 196.85 0.0 0 0 43494.1 3739.17 " />
<path d="M43494.1 8857.28 A196.85 196.85 0.0 0 0 43690.9 9054.13 " />
<path d="M48809.1 9054.13 A196.85 196.85 0.0 0 0 49005.9 8857.28 " />
<path d="M108809 9054.13 A196.85 196.85 0.0 0 0 109006 8857.28 " />
<path d="M103494 8857.28 A196.85 196.85 0.0 0 0 103691 9054.13 " />
<path d="M103691 3542.32 A196.85 196.85 0.0 0 0 103494 3739.17 " />
<path d="M109006 3739.17 A196.85 196.85 0.0 0 0 108809 3542.32 " />
<path d="M109005 8857
L109005 3739
" />
<path d="M103690 9054
L108809 9054
" />
<path d="M103494 3739
L103494 8857
" />
<path d="M108809 3542
L103690 3542
" />
<path d="M101309 9054.13 A196.85 196.85 0.0 0 0 101506 8857.28 " />
<path d="M95994.1 8857.28 A196.85 196.85 0.0 0 0 96190.9 9054.13 " />
<path d="M96190.9 3542.32 A196.85 196.85 0.0 0 0 95994.1 3739.17 " />
<path d="M101506 3739.17 A196.85 196.85 0.0 0 0 101309 3542.32 " />
<path d="M101505 8857
L101505 3739
" />
<path d="M96190 9054
L101309 9054
" />
<path d="M95994 3739
L95994 8857
" />
<path d="M101309 3542
L96190 3542
" />
<path d="M93809.1 9054.13 A196.85 196.85 0.0 0 0 94005.9 8857.28 " />
<path d="M88494.1 8857.28 A196.85 196.85 0.0 0 0 88690.9 9054.13 " />
<path d="M88690.9 3542.32 A196.85 196.85 0.0 0 0 88494.1 3739.17 " />
<path d="M94005.9 3739.17 A196.85 196.85 0.0 0 0 93809.1 3542.32 " />
<path d="M94005 8857
L94005 3739
" />
<path d="M88690 9054
L93809 9054
" />
<path d="M88494 3739
L88494 8857
" />
<path d="M93809 3542
L88690 3542
" />
<path d="M41309 3542
L36190 3542
" />
<path d="M35994 3739
L35994 8857
" />
<path d="M36190 9054
L41309 9054
" />
<path d="M41505 8857
L41505 3739
" />
<path d="M41505.9 3739.17 A196.85 196.85 0.0 0 0 41309.1 3542.32 " />
<path d="M36190.9 3542.32 A196.85 196.85 0.0 0 0 35994.1 3739.17 " />
<path d="M35994.1 8857.28 A196.85 196.85 0.0 0 0 36190.9 9054.13 " />
<path d="M41309.1 9054.13 A196.85 196.85 0.0 0 0 41505.9 8857.28 " />
<path d="M33809 3542
L28690 3542
" />
<path d="M28494 3739
L28494 8857
" />
<path d="M28690 9054
L33809 9054
" />
<path d="M34005 8857
L34005 3739
" />
<path d="M34005.9 3739.17 A196.85 196.85 0.0 0 0 33809.1 3542.32 " />
<path d="M28690.9 3542.32 A196.85 196.85 0.0 0 0 28494.1 3739.17 " />
<path d="M28494.1 8857.28 A196.85 196.85 0.0 0 0 28690.9 9054.13 " />
<path d="M33809.1 9054.13 A196.85 196.85 0.0 0 0 34005.9 8857.28 " />
<path d="M26309 3542
L21190 3542
" />
<path d="M20994 3739
L20994 8857
" />
<path d="M21190 9054
L26309 9054
" />
<path d="M26505 8857
L26505 3739
" />
<path d="M26505.9 3739.17 A196.85 196.85 0.0 0 0 26309.1 3542.32 " />
<path d="M21190.9 3542.32 A196.85 196.85 0.0 0 0 20994.1 3739.17 " />
<path d="M20994.1 8857.28 A196.85 196.85 0.0 0 0 21190.9 9054.13 " />
<path d="M26309.1 9054.13 A196.85 196.85 0.0 0 0 26505.9 8857.28 " />
<path d="M86309.1 9054.13 A196.85 196.85 0.0 0 0 86505.9 8857.28 " />
<path d="M80994.1 8857.28 A196.85 196.85 0.0 0 0 81190.9 9054.13 " />
<path d="M81190.9 3542.32 A196.85 196.85 0.0 0 0 80994.1 3739.17 " />
<path d="M86505.9 3739.17 A196.85 196.85 0.0 0 0 86309.1 3542.32 " />
<path d="M86505 8857
L86505 3739
" />
<path d="M81190 9054
L86309 9054
" />
<path d="M80994 3739
L80994 8857
" />
<path d="M86309 3542
L81190 3542
" />
<path d="M78809.1 9054.13 A196.85 196.85 0.0 0 0 79005.9 8857.28 " />
<path d="M73494.1 8857.28 A196.85 196.85 0.0 0 0 73690.9 9054.13 " />
<path d="M73690.9 3542.32 A196.85 196.85 0.0 0 0 73494.1 3739.17 " />
<path d="M79005.9 3739.17 A196.85 196.85 0.0 0 0 78809.1 3542.32 " />
<path d="M79005 8857
L79005 3739
" />
<path d="M73690 9054
L78809 9054
" />
<path d="M73494 3739
L73494 8857
" />
<path d="M78809 3542
L73690 3542
" />
<path d="M71309.1 9054.13 A196.85 196.85 0.0 0 0 71505.9 8857.28 " />
<path d="M65994.1 8857.28 A196.85 196.85 0.0 0 0 66190.9 9054.13 " />
<path d="M66190.9 3542.32 A196.85 196.85 0.0 0 0 65994.1 3739.17 " />
<path d="M71505.9 3739.17 A196.85 196.85 0.0 0 0 71309.1 3542.32 " />
<path d="M71505 8857
L71505 3739
" />
<path d="M66190 9054
L71309 9054
" />
<path d="M65994 3739
L65994 8857
" />
<path d="M71309 3542
L66190 3542
" />
<path d="M41309.1 16554.1 A196.85 196.85 0.0 0 0 41505.9 16357.3 " />
<path d="M35994.1 16357.3 A196.85 196.85 0.0 0 0 36190.9 16554.1 " />
<path d="M36190.9 11042.3 A196.85 196.85 0.0 0 0 35994.1 11239.2 " />
<path d="M41505.9 11239.2 A196.85 196.85 0.0 0 0 41309.1 11042.3 " />
<path d="M41505 16357
L41505 11239
" />
<path d="M36190 16554
L41309 16554
" />
<path d="M35994 11239
L35994 16357
" />
<path d="M41309 11042
L36190 11042
" />
<path d="M33809.1 16554.1 A196.85 196.85 0.0 0 0 34005.9 16357.3 " />
<path d="M28494.1 16357.3 A196.85 196.85 0.0 0 0 28690.9 16554.1 " />
<path d="M28690.9 11042.3 A196.85 196.85 0.0 0 0 28494.1 11239.2 " />
<path d="M34005.9 11239.2 A196.85 196.85 0.0 0 0 33809.1 11042.3 " />
<path d="M34005 16357
L34005 11239
" />
<path d="M28690 16554
L33809 16554
" />
<path d="M28494 11239
L28494 16357
" />
<path d="M33809 11042
L28690 11042
" />
<path d="M26309.1 16554.1 A196.85 196.85 0.0 0 0 26505.9 16357.3 " />
<path d="M20994.1 16357.3 A196.85 196.85 0.0 0 0 21190.9 16554.1 " />
<path d="M21190.9 11042.3 A196.85 196.85 0.0 0 0 20994.1 11239.2 " />
<path d="M26505.9 11239.2 A196.85 196.85 0.0 0 0 26309.1 11042.3 " />
<path d="M26505 16357
L26505 11239
" />
<path d="M21190 16554
L26309 16554
" />
<path d="M20994 11239
L20994 16357
" />
<path d="M26309 11042
L21190 11042
" />
<path d="M108809 11042
L103690 11042
" />
<path d="M103494 11239
L103494 16357
" />
<path d="M103690 16554
L108809 16554
" />
<path d="M109005 16357
L109005 11239
" />
<path d="M109006 11239.2 A196.85 196.85 0.0 0 0 108809 11042.3 " />
<path d="M103691 11042.3 A196.85 196.85 0.0 0 0 103494 11239.2 " />
<path d="M103494 16357.3 A196.85 196.85 0.0 0 0 103691 16554.1 " />
<path d="M108809 16554.1 A196.85 196.85 0.0 0 0 109006 16357.3 " />
<path d="M71309 11042
L66190 11042
" />
<path d="M65994 11239
L65994 16357
" />
<path d="M66190 16554
L71309 16554
" />
<path d="M71505 16357
L71505 11239
" />
<path d="M71505.9 11239.2 A196.85 196.85 0.0 0 0 71309.1 11042.3 " />
<path d="M66190.9 11042.3 A196.85 196.85 0.0 0 0 65994.1 11239.2 " />
<path d="M65994.1 16357.3 A196.85 196.85 0.0 0 0 66190.9 16554.1 " />
<path d="M71309.1 16554.1 A196.85 196.85 0.0 0 0 71505.9 16357.3 " />
<path d="M63809 11042
L58690 11042
" />
<path d="M58494 11239
L58494 16357
" />
<path d="M58690 16554
L63809 16554
" />
<path d="M64005 16357
L64005 11239
" />
<path d="M64005.9 11239.2 A196.85 196.85 0.0 0 0 63809.1 11042.3 " />
<path d="M58690.9 11042.3 A196.85 196.85 0.0 0 0 58494.1 11239.2 " />
<path d="M58494.1 16357.3 A196.85 196.85 0.0 0 0 58690.9 16554.1 " />
<path d="M63809.1 16554.1 A196.85 196.85 0.0 0 0 64005.9 16357.3 " />
<path d="M18809.1 9054.13 A196.85 196.85 0.0 0 0 19005.9 8857.28 " />
<path d="M13494.1 8857.28 A196.85 196.85 0.0 0 0 13690.9 9054.13 " />
<path d="M13690.9 3542.32 A196.85 196.85 0.0 0 0 13494.1 3739.17 " />
<path d="M19005.9 3739.17 A196.85 196.85 0.0 0 0 18809.1 3542.32 " />
<path d="M19005 8857
L19005 3739
" />
<path d="M13690 9054
L18809 9054
" />
<path d="M13494 3739
L13494 8857
" />
<path d="M18809 3542
L13690 3542
" />
<g >
</g>
<g >
</g>
<g >
</g>
<g >
</g>
<g >
</g>
<g >
</g>
<g >
</g>
<g >
</g>
<g >
</g>
<g >
</g>
<g >
</g>
<g >
</g>
<g >
</g>
<g >
</g>
<g >
</g>
<g >
</g>
<g >
</g>
<g >
</g>
<g >
</g>
<g >
</g>
<g >
</g>
<g >
</g>
<g >
</g>
<g >
</g>
<g >
</g>
<g >
</g>
<g >
</g>
<g >
</g>
<g >
</g>
<g >
</g>
<g >
</g>
<g >
</g>
<g >
</g>
<g >
</g>
<g >
</g>
<g >
</g>
<g >
</g>
<g >
</g>
<g >
</g>
<g >
</g>
<g >
</g>
<g >
</g>
<g >
</g>
<g >
</g>
<g >
</g>
<g >
</g>
<g >
</g>
<g >
</g>
<g >
</g>
<g >
</g>
<g >
</g>
<g >
</g>
<g >
</g>
<g >
</g>
<g >
</g>
<g >
</g>
<g >
</g>
<g >
</g>
<g >
</g>
<g >
</g>
<g >
</g>
<g >
</g>
<g >
</g>
<g >
</g>
<g >
</g>
<g >
</g>
<g >
</g>
<g >
</g>
<g >
</g>
<g >
</g>
<g >
</g>
<g >
</g>
<g >
</g>
<g >
</g>
<g >
</g>
<g >
</g>
<g >
</g>
<g >
</g>
<g >
</g>
<g >
</g>
<g >
</g>
<g >
</g>
<g >
</g>
<g >
</g>
</g> 
</svg>
