G04 #@! TF.GenerationSoftware,KiCad,Pcbnew,(5.1.2)-1*
G04 #@! TF.CreationDate,2021-08-14T16:28:18-07:00*
G04 #@! TF.ProjectId,blvdtopsmd,626c7664-746f-4707-936d-642e6b696361,rev?*
G04 #@! TF.SameCoordinates,Original*
G04 #@! TF.FileFunction,Copper,L1,Top*
G04 #@! TF.FilePolarity,Positive*
%FSLAX46Y46*%
G04 Gerber Fmt 4.6, Leading zero omitted, Abs format (unit mm)*
G04 Created by KiCad (PCBNEW (5.1.2)-1) date 2021-08-14 16:28:18*
%MOMM*%
%LPD*%
G04 APERTURE LIST*
%ADD10R,1.500000X1.000000*%
%ADD11C,7.000000*%
%ADD12O,1.350000X1.350000*%
%ADD13R,1.350000X1.350000*%
%ADD14R,2.000000X2.000000*%
%ADD15C,2.000000*%
%ADD16R,2.000000X3.200000*%
%ADD17C,2.200000*%
%ADD18C,0.800000*%
%ADD19C,0.250000*%
%ADD20C,0.254000*%
G04 APERTURE END LIST*
D10*
X89407500Y-20975000D03*
X89407500Y-24175000D03*
X94307500Y-20975000D03*
X94307500Y-24175000D03*
X78907500Y-20975000D03*
X78907500Y-24175000D03*
X83807500Y-20975000D03*
X83807500Y-24175000D03*
D11*
X118375000Y-22500000D03*
X213625000Y-22500000D03*
D12*
X171825000Y-22000000D03*
X171825000Y-24000000D03*
X173825000Y-22000000D03*
X173825000Y-24000000D03*
X175825000Y-22000000D03*
X175825000Y-24000000D03*
X177825000Y-22000000D03*
X177825000Y-24000000D03*
X179825000Y-22000000D03*
X179825000Y-24000000D03*
D13*
X181825000Y-22000000D03*
D12*
X181825000Y-24000000D03*
D14*
X30000000Y-30000000D03*
D15*
X32500000Y-30000000D03*
X35000000Y-30000000D03*
D16*
X26900000Y-22500000D03*
X38100000Y-22500000D03*
D15*
X30000000Y-15500000D03*
X35000000Y-15500000D03*
D17*
X266815000Y-19960000D03*
X273165000Y-17420000D03*
X247765000Y-19960000D03*
X254115000Y-17420000D03*
X228715000Y-19960000D03*
X235065000Y-17420000D03*
X57265000Y-19960000D03*
X63615000Y-17420000D03*
D18*
X177900000Y-29600000D03*
X190850000Y-20650000D03*
X172000000Y-26250000D03*
X85500000Y-20750000D03*
X161000000Y-21000000D03*
X86250000Y-27000000D03*
X85500000Y-16750000D03*
D19*
X181825000Y-26175000D02*
X181825000Y-24000000D01*
X180250000Y-27750000D02*
X181825000Y-26175000D01*
X178075000Y-27750000D02*
X180250000Y-27750000D01*
X176675010Y-29149990D02*
X178075000Y-27750000D01*
X35000000Y-30000000D02*
X35850010Y-29149990D01*
X35850010Y-29149990D02*
X176675010Y-29149990D01*
X30000000Y-30000000D02*
X30000000Y-31250000D01*
X30000000Y-31250000D02*
X30850000Y-32100000D01*
X30850000Y-32100000D02*
X35050000Y-32100000D01*
X35050000Y-32100000D02*
X37550000Y-29600000D01*
X37550000Y-29600000D02*
X177900000Y-29600000D01*
X181175000Y-20650000D02*
X189150000Y-20650000D01*
X179825000Y-22000000D02*
X181175000Y-20650000D01*
X190850000Y-20650000D02*
X189150000Y-20650000D01*
X189150000Y-20650000D02*
X188950002Y-20650000D01*
X175575000Y-26250000D02*
X177825000Y-24000000D01*
X172000000Y-26250000D02*
X175575000Y-26250000D01*
X85275000Y-20975000D02*
X85500000Y-20750000D01*
X83807500Y-20975000D02*
X85275000Y-20975000D01*
X88750000Y-18575000D02*
X152125000Y-18575000D01*
X87365000Y-19960000D02*
X88750000Y-18575000D01*
X57265000Y-19960000D02*
X87365000Y-19960000D01*
X152125000Y-18575000D02*
X158575000Y-18575000D01*
X158575000Y-18575000D02*
X161000000Y-21000000D01*
X97050020Y-28699980D02*
X91539980Y-28699980D01*
X97050020Y-28699980D02*
X81774980Y-28699980D01*
X171825000Y-22000000D02*
X170870406Y-22000000D01*
X164935203Y-27935203D02*
X167810203Y-25060203D01*
X164170426Y-28699980D02*
X164935203Y-27935203D01*
X170870406Y-22000000D02*
X167810203Y-25060203D01*
X167810203Y-25060203D02*
X167560203Y-25310203D01*
X77525000Y-20975000D02*
X78907500Y-20975000D01*
X76250000Y-22250000D02*
X77525000Y-20975000D01*
X76250000Y-25750000D02*
X76250000Y-22250000D01*
X81774980Y-28699980D02*
X79199980Y-28699980D01*
X79199980Y-28699980D02*
X76250000Y-25750000D01*
X89407500Y-20225000D02*
X90382500Y-19250000D01*
X89407500Y-20975000D02*
X89407500Y-20225000D01*
X90382500Y-19250000D02*
X96250000Y-19250000D01*
X96250000Y-19250000D02*
X98750000Y-21750000D01*
X98750000Y-27000000D02*
X100449980Y-28699980D01*
X98750000Y-21750000D02*
X98750000Y-27000000D01*
X97050020Y-28699980D02*
X100449980Y-28699980D01*
X100449980Y-28699980D02*
X164170426Y-28699980D01*
X79907500Y-24175000D02*
X81332500Y-22750000D01*
X78907500Y-24175000D02*
X79907500Y-24175000D01*
X93307500Y-20975000D02*
X94307500Y-20975000D01*
X91532500Y-22750000D02*
X93307500Y-20975000D01*
X81332500Y-22750000D02*
X91532500Y-22750000D01*
D20*
G36*
X276798126Y-13701714D02*
G01*
X277421572Y-13889943D01*
X277996579Y-14195681D01*
X278501247Y-14607279D01*
X278916362Y-15109067D01*
X279226105Y-15681924D01*
X279418682Y-16304039D01*
X279490000Y-16982584D01*
X279490001Y-30373961D01*
X279423286Y-31054376D01*
X279235057Y-31677820D01*
X278929323Y-32252823D01*
X278517721Y-32757498D01*
X278015933Y-33172612D01*
X277443077Y-33482354D01*
X276820961Y-33674932D01*
X276142417Y-33746250D01*
X24187279Y-33746250D01*
X23506874Y-33679536D01*
X22883430Y-33491307D01*
X22308427Y-33185573D01*
X21803752Y-32773971D01*
X21388638Y-32272183D01*
X21078896Y-31699327D01*
X20886318Y-31077211D01*
X20815000Y-30398667D01*
X20815000Y-29000000D01*
X28361928Y-29000000D01*
X28361928Y-31000000D01*
X28374188Y-31124482D01*
X28410498Y-31244180D01*
X28469463Y-31354494D01*
X28548815Y-31451185D01*
X28645506Y-31530537D01*
X28755820Y-31589502D01*
X28875518Y-31625812D01*
X29000000Y-31638072D01*
X29345674Y-31638072D01*
X29365026Y-31674276D01*
X29418777Y-31739771D01*
X29460000Y-31790001D01*
X29488998Y-31813799D01*
X30286201Y-32611003D01*
X30309999Y-32640001D01*
X30338997Y-32663799D01*
X30425724Y-32734974D01*
X30557753Y-32805546D01*
X30701014Y-32849003D01*
X30850000Y-32863677D01*
X30887333Y-32860000D01*
X35012678Y-32860000D01*
X35050000Y-32863676D01*
X35087322Y-32860000D01*
X35087333Y-32860000D01*
X35198986Y-32849003D01*
X35342247Y-32805546D01*
X35474276Y-32734974D01*
X35590001Y-32640001D01*
X35613804Y-32610997D01*
X37864802Y-30360000D01*
X177196289Y-30360000D01*
X177240226Y-30403937D01*
X177409744Y-30517205D01*
X177598102Y-30595226D01*
X177798061Y-30635000D01*
X178001939Y-30635000D01*
X178201898Y-30595226D01*
X178390256Y-30517205D01*
X178559774Y-30403937D01*
X178703937Y-30259774D01*
X178817205Y-30090256D01*
X178895226Y-29901898D01*
X178935000Y-29701939D01*
X178935000Y-29498061D01*
X178895226Y-29298102D01*
X178817205Y-29109744D01*
X178703937Y-28940226D01*
X178559774Y-28796063D01*
X178390256Y-28682795D01*
X178267751Y-28632051D01*
X178389802Y-28510000D01*
X180212678Y-28510000D01*
X180250000Y-28513676D01*
X180287322Y-28510000D01*
X180287333Y-28510000D01*
X180398986Y-28499003D01*
X180542247Y-28455546D01*
X180674276Y-28384974D01*
X180790001Y-28290001D01*
X180813804Y-28260997D01*
X182336004Y-26738798D01*
X182365001Y-26715001D01*
X182459974Y-26599276D01*
X182530546Y-26467247D01*
X182574003Y-26323986D01*
X182585000Y-26212333D01*
X182585000Y-26212324D01*
X182588676Y-26175001D01*
X182585000Y-26137678D01*
X182585000Y-25070956D01*
X182755792Y-24930792D01*
X182919495Y-24731318D01*
X183041138Y-24503741D01*
X183116045Y-24256805D01*
X183141338Y-24000000D01*
X183116045Y-23743195D01*
X183041138Y-23496259D01*
X182919495Y-23268682D01*
X182862369Y-23199074D01*
X182951185Y-23126185D01*
X183030537Y-23029494D01*
X183089502Y-22919180D01*
X183125812Y-22799482D01*
X183138072Y-22675000D01*
X183138072Y-22092738D01*
X209490000Y-22092738D01*
X209490000Y-22907262D01*
X209648906Y-23706135D01*
X209960611Y-24458657D01*
X210413136Y-25135909D01*
X210989091Y-25711864D01*
X211666343Y-26164389D01*
X212418865Y-26476094D01*
X213217738Y-26635000D01*
X214032262Y-26635000D01*
X214831135Y-26476094D01*
X215583657Y-26164389D01*
X216260909Y-25711864D01*
X216836864Y-25135909D01*
X217289389Y-24458657D01*
X217601094Y-23706135D01*
X217760000Y-22907262D01*
X217760000Y-22353740D01*
X225960000Y-22353740D01*
X225960000Y-22646260D01*
X226017068Y-22933158D01*
X226129010Y-23203411D01*
X226291525Y-23446632D01*
X226498368Y-23653475D01*
X226741589Y-23815990D01*
X227011842Y-23927932D01*
X227298740Y-23985000D01*
X227591260Y-23985000D01*
X227878158Y-23927932D01*
X228148411Y-23815990D01*
X228391632Y-23653475D01*
X228598475Y-23446632D01*
X228760990Y-23203411D01*
X228872932Y-22933158D01*
X228930000Y-22646260D01*
X228930000Y-22353740D01*
X228907471Y-22240475D01*
X229890000Y-22240475D01*
X229890000Y-22759525D01*
X229991261Y-23268601D01*
X230189893Y-23748141D01*
X230478262Y-24179715D01*
X230845285Y-24546738D01*
X231276859Y-24835107D01*
X231756399Y-25033739D01*
X232265475Y-25135000D01*
X232784525Y-25135000D01*
X233293601Y-25033739D01*
X233773141Y-24835107D01*
X234204715Y-24546738D01*
X234571738Y-24179715D01*
X234860107Y-23748141D01*
X235058739Y-23268601D01*
X235160000Y-22759525D01*
X235160000Y-22353740D01*
X236120000Y-22353740D01*
X236120000Y-22646260D01*
X236177068Y-22933158D01*
X236289010Y-23203411D01*
X236451525Y-23446632D01*
X236658368Y-23653475D01*
X236901589Y-23815990D01*
X237171842Y-23927932D01*
X237458740Y-23985000D01*
X237751260Y-23985000D01*
X238038158Y-23927932D01*
X238308411Y-23815990D01*
X238551632Y-23653475D01*
X238758475Y-23446632D01*
X238920990Y-23203411D01*
X239032932Y-22933158D01*
X239090000Y-22646260D01*
X239090000Y-22353740D01*
X245010000Y-22353740D01*
X245010000Y-22646260D01*
X245067068Y-22933158D01*
X245179010Y-23203411D01*
X245341525Y-23446632D01*
X245548368Y-23653475D01*
X245791589Y-23815990D01*
X246061842Y-23927932D01*
X246348740Y-23985000D01*
X246641260Y-23985000D01*
X246928158Y-23927932D01*
X247198411Y-23815990D01*
X247441632Y-23653475D01*
X247648475Y-23446632D01*
X247810990Y-23203411D01*
X247922932Y-22933158D01*
X247980000Y-22646260D01*
X247980000Y-22353740D01*
X247957471Y-22240475D01*
X248940000Y-22240475D01*
X248940000Y-22759525D01*
X249041261Y-23268601D01*
X249239893Y-23748141D01*
X249528262Y-24179715D01*
X249895285Y-24546738D01*
X250326859Y-24835107D01*
X250806399Y-25033739D01*
X251315475Y-25135000D01*
X251834525Y-25135000D01*
X252343601Y-25033739D01*
X252823141Y-24835107D01*
X253254715Y-24546738D01*
X253621738Y-24179715D01*
X253910107Y-23748141D01*
X254108739Y-23268601D01*
X254210000Y-22759525D01*
X254210000Y-22353740D01*
X255170000Y-22353740D01*
X255170000Y-22646260D01*
X255227068Y-22933158D01*
X255339010Y-23203411D01*
X255501525Y-23446632D01*
X255708368Y-23653475D01*
X255951589Y-23815990D01*
X256221842Y-23927932D01*
X256508740Y-23985000D01*
X256801260Y-23985000D01*
X257088158Y-23927932D01*
X257358411Y-23815990D01*
X257601632Y-23653475D01*
X257808475Y-23446632D01*
X257970990Y-23203411D01*
X258082932Y-22933158D01*
X258140000Y-22646260D01*
X258140000Y-22353740D01*
X264060000Y-22353740D01*
X264060000Y-22646260D01*
X264117068Y-22933158D01*
X264229010Y-23203411D01*
X264391525Y-23446632D01*
X264598368Y-23653475D01*
X264841589Y-23815990D01*
X265111842Y-23927932D01*
X265398740Y-23985000D01*
X265691260Y-23985000D01*
X265978158Y-23927932D01*
X266248411Y-23815990D01*
X266491632Y-23653475D01*
X266698475Y-23446632D01*
X266860990Y-23203411D01*
X266972932Y-22933158D01*
X267030000Y-22646260D01*
X267030000Y-22353740D01*
X267007471Y-22240475D01*
X267990000Y-22240475D01*
X267990000Y-22759525D01*
X268091261Y-23268601D01*
X268289893Y-23748141D01*
X268578262Y-24179715D01*
X268945285Y-24546738D01*
X269376859Y-24835107D01*
X269856399Y-25033739D01*
X270365475Y-25135000D01*
X270884525Y-25135000D01*
X271393601Y-25033739D01*
X271873141Y-24835107D01*
X272304715Y-24546738D01*
X272671738Y-24179715D01*
X272960107Y-23748141D01*
X273158739Y-23268601D01*
X273260000Y-22759525D01*
X273260000Y-22353740D01*
X274220000Y-22353740D01*
X274220000Y-22646260D01*
X274277068Y-22933158D01*
X274389010Y-23203411D01*
X274551525Y-23446632D01*
X274758368Y-23653475D01*
X275001589Y-23815990D01*
X275271842Y-23927932D01*
X275558740Y-23985000D01*
X275851260Y-23985000D01*
X276138158Y-23927932D01*
X276408411Y-23815990D01*
X276651632Y-23653475D01*
X276858475Y-23446632D01*
X277020990Y-23203411D01*
X277132932Y-22933158D01*
X277190000Y-22646260D01*
X277190000Y-22353740D01*
X277132932Y-22066842D01*
X277020990Y-21796589D01*
X276858475Y-21553368D01*
X276651632Y-21346525D01*
X276408411Y-21184010D01*
X276138158Y-21072068D01*
X275851260Y-21015000D01*
X275558740Y-21015000D01*
X275271842Y-21072068D01*
X275001589Y-21184010D01*
X274758368Y-21346525D01*
X274551525Y-21553368D01*
X274389010Y-21796589D01*
X274277068Y-22066842D01*
X274220000Y-22353740D01*
X273260000Y-22353740D01*
X273260000Y-22240475D01*
X273158739Y-21731399D01*
X272960107Y-21251859D01*
X272671738Y-20820285D01*
X272304715Y-20453262D01*
X271873141Y-20164893D01*
X271393601Y-19966261D01*
X270884525Y-19865000D01*
X270365475Y-19865000D01*
X269856399Y-19966261D01*
X269376859Y-20164893D01*
X268945285Y-20453262D01*
X268578262Y-20820285D01*
X268289893Y-21251859D01*
X268091261Y-21731399D01*
X267990000Y-22240475D01*
X267007471Y-22240475D01*
X266972932Y-22066842D01*
X266860990Y-21796589D01*
X266793110Y-21695000D01*
X266985883Y-21695000D01*
X267321081Y-21628325D01*
X267636831Y-21497537D01*
X267920998Y-21307663D01*
X268162663Y-21065998D01*
X268352537Y-20781831D01*
X268483325Y-20466081D01*
X268550000Y-20130883D01*
X268550000Y-19789117D01*
X268483325Y-19453919D01*
X268352537Y-19138169D01*
X268162663Y-18854002D01*
X267920998Y-18612337D01*
X267636831Y-18422463D01*
X267321081Y-18291675D01*
X266985883Y-18225000D01*
X266644117Y-18225000D01*
X266308919Y-18291675D01*
X265993169Y-18422463D01*
X265709002Y-18612337D01*
X265467337Y-18854002D01*
X265277463Y-19138169D01*
X265146675Y-19453919D01*
X265080000Y-19789117D01*
X265080000Y-20130883D01*
X265146675Y-20466081D01*
X265277463Y-20781831D01*
X265433261Y-21015000D01*
X265398740Y-21015000D01*
X265111842Y-21072068D01*
X264841589Y-21184010D01*
X264598368Y-21346525D01*
X264391525Y-21553368D01*
X264229010Y-21796589D01*
X264117068Y-22066842D01*
X264060000Y-22353740D01*
X258140000Y-22353740D01*
X258082932Y-22066842D01*
X257970990Y-21796589D01*
X257808475Y-21553368D01*
X257601632Y-21346525D01*
X257358411Y-21184010D01*
X257088158Y-21072068D01*
X256801260Y-21015000D01*
X256508740Y-21015000D01*
X256221842Y-21072068D01*
X255951589Y-21184010D01*
X255708368Y-21346525D01*
X255501525Y-21553368D01*
X255339010Y-21796589D01*
X255227068Y-22066842D01*
X255170000Y-22353740D01*
X254210000Y-22353740D01*
X254210000Y-22240475D01*
X254108739Y-21731399D01*
X253910107Y-21251859D01*
X253621738Y-20820285D01*
X253254715Y-20453262D01*
X252823141Y-20164893D01*
X252343601Y-19966261D01*
X251834525Y-19865000D01*
X251315475Y-19865000D01*
X250806399Y-19966261D01*
X250326859Y-20164893D01*
X249895285Y-20453262D01*
X249528262Y-20820285D01*
X249239893Y-21251859D01*
X249041261Y-21731399D01*
X248940000Y-22240475D01*
X247957471Y-22240475D01*
X247922932Y-22066842D01*
X247810990Y-21796589D01*
X247743110Y-21695000D01*
X247935883Y-21695000D01*
X248271081Y-21628325D01*
X248586831Y-21497537D01*
X248870998Y-21307663D01*
X249112663Y-21065998D01*
X249302537Y-20781831D01*
X249433325Y-20466081D01*
X249500000Y-20130883D01*
X249500000Y-19789117D01*
X249433325Y-19453919D01*
X249302537Y-19138169D01*
X249112663Y-18854002D01*
X248870998Y-18612337D01*
X248586831Y-18422463D01*
X248271081Y-18291675D01*
X247935883Y-18225000D01*
X247594117Y-18225000D01*
X247258919Y-18291675D01*
X246943169Y-18422463D01*
X246659002Y-18612337D01*
X246417337Y-18854002D01*
X246227463Y-19138169D01*
X246096675Y-19453919D01*
X246030000Y-19789117D01*
X246030000Y-20130883D01*
X246096675Y-20466081D01*
X246227463Y-20781831D01*
X246383261Y-21015000D01*
X246348740Y-21015000D01*
X246061842Y-21072068D01*
X245791589Y-21184010D01*
X245548368Y-21346525D01*
X245341525Y-21553368D01*
X245179010Y-21796589D01*
X245067068Y-22066842D01*
X245010000Y-22353740D01*
X239090000Y-22353740D01*
X239032932Y-22066842D01*
X238920990Y-21796589D01*
X238758475Y-21553368D01*
X238551632Y-21346525D01*
X238308411Y-21184010D01*
X238038158Y-21072068D01*
X237751260Y-21015000D01*
X237458740Y-21015000D01*
X237171842Y-21072068D01*
X236901589Y-21184010D01*
X236658368Y-21346525D01*
X236451525Y-21553368D01*
X236289010Y-21796589D01*
X236177068Y-22066842D01*
X236120000Y-22353740D01*
X235160000Y-22353740D01*
X235160000Y-22240475D01*
X235058739Y-21731399D01*
X234860107Y-21251859D01*
X234571738Y-20820285D01*
X234204715Y-20453262D01*
X233773141Y-20164893D01*
X233293601Y-19966261D01*
X232784525Y-19865000D01*
X232265475Y-19865000D01*
X231756399Y-19966261D01*
X231276859Y-20164893D01*
X230845285Y-20453262D01*
X230478262Y-20820285D01*
X230189893Y-21251859D01*
X229991261Y-21731399D01*
X229890000Y-22240475D01*
X228907471Y-22240475D01*
X228872932Y-22066842D01*
X228760990Y-21796589D01*
X228693110Y-21695000D01*
X228885883Y-21695000D01*
X229221081Y-21628325D01*
X229536831Y-21497537D01*
X229820998Y-21307663D01*
X230062663Y-21065998D01*
X230252537Y-20781831D01*
X230383325Y-20466081D01*
X230450000Y-20130883D01*
X230450000Y-19789117D01*
X230383325Y-19453919D01*
X230252537Y-19138169D01*
X230062663Y-18854002D01*
X229820998Y-18612337D01*
X229536831Y-18422463D01*
X229221081Y-18291675D01*
X228885883Y-18225000D01*
X228544117Y-18225000D01*
X228208919Y-18291675D01*
X227893169Y-18422463D01*
X227609002Y-18612337D01*
X227367337Y-18854002D01*
X227177463Y-19138169D01*
X227046675Y-19453919D01*
X226980000Y-19789117D01*
X226980000Y-20130883D01*
X227046675Y-20466081D01*
X227177463Y-20781831D01*
X227333261Y-21015000D01*
X227298740Y-21015000D01*
X227011842Y-21072068D01*
X226741589Y-21184010D01*
X226498368Y-21346525D01*
X226291525Y-21553368D01*
X226129010Y-21796589D01*
X226017068Y-22066842D01*
X225960000Y-22353740D01*
X217760000Y-22353740D01*
X217760000Y-22092738D01*
X217601094Y-21293865D01*
X217289389Y-20541343D01*
X216836864Y-19864091D01*
X216260909Y-19288136D01*
X215583657Y-18835611D01*
X214831135Y-18523906D01*
X214032262Y-18365000D01*
X213217738Y-18365000D01*
X212418865Y-18523906D01*
X211666343Y-18835611D01*
X210989091Y-19288136D01*
X210413136Y-19864091D01*
X209960611Y-20541343D01*
X209648906Y-21293865D01*
X209490000Y-22092738D01*
X183138072Y-22092738D01*
X183138072Y-21410000D01*
X190146289Y-21410000D01*
X190190226Y-21453937D01*
X190359744Y-21567205D01*
X190548102Y-21645226D01*
X190748061Y-21685000D01*
X190951939Y-21685000D01*
X191151898Y-21645226D01*
X191340256Y-21567205D01*
X191509774Y-21453937D01*
X191653937Y-21309774D01*
X191767205Y-21140256D01*
X191845226Y-20951898D01*
X191885000Y-20751939D01*
X191885000Y-20548061D01*
X191845226Y-20348102D01*
X191767205Y-20159744D01*
X191653937Y-19990226D01*
X191509774Y-19846063D01*
X191340256Y-19732795D01*
X191151898Y-19654774D01*
X190951939Y-19615000D01*
X190748061Y-19615000D01*
X190548102Y-19654774D01*
X190359744Y-19732795D01*
X190190226Y-19846063D01*
X190146289Y-19890000D01*
X181212322Y-19890000D01*
X181174999Y-19886324D01*
X181137676Y-19890000D01*
X181137667Y-19890000D01*
X181026014Y-19900997D01*
X180882753Y-19944454D01*
X180750724Y-20015026D01*
X180634999Y-20109999D01*
X180611201Y-20138997D01*
X180044880Y-20705318D01*
X179889351Y-20690000D01*
X179760649Y-20690000D01*
X179568195Y-20708955D01*
X179321259Y-20783862D01*
X179093682Y-20905505D01*
X178894208Y-21069208D01*
X178825000Y-21153539D01*
X178755792Y-21069208D01*
X178556318Y-20905505D01*
X178328741Y-20783862D01*
X178081805Y-20708955D01*
X177889351Y-20690000D01*
X177760649Y-20690000D01*
X177568195Y-20708955D01*
X177321259Y-20783862D01*
X177093682Y-20905505D01*
X176894208Y-21069208D01*
X176825000Y-21153539D01*
X176755792Y-21069208D01*
X176556318Y-20905505D01*
X176328741Y-20783862D01*
X176081805Y-20708955D01*
X175889351Y-20690000D01*
X175760649Y-20690000D01*
X175568195Y-20708955D01*
X175321259Y-20783862D01*
X175093682Y-20905505D01*
X174894208Y-21069208D01*
X174821628Y-21157648D01*
X174696227Y-21021697D01*
X174488629Y-20870527D01*
X174255528Y-20762762D01*
X174154400Y-20732090D01*
X173952000Y-20855776D01*
X173952000Y-21873000D01*
X173972000Y-21873000D01*
X173972000Y-22127000D01*
X173952000Y-22127000D01*
X173952000Y-22147000D01*
X173698000Y-22147000D01*
X173698000Y-22127000D01*
X173678000Y-22127000D01*
X173678000Y-21873000D01*
X173698000Y-21873000D01*
X173698000Y-20855776D01*
X173495600Y-20732090D01*
X173394472Y-20762762D01*
X173161371Y-20870527D01*
X172953773Y-21021697D01*
X172828372Y-21157648D01*
X172755792Y-21069208D01*
X172556318Y-20905505D01*
X172328741Y-20783862D01*
X172081805Y-20708955D01*
X171889351Y-20690000D01*
X171760649Y-20690000D01*
X171568195Y-20708955D01*
X171321259Y-20783862D01*
X171093682Y-20905505D01*
X170894208Y-21069208D01*
X170747094Y-21248468D01*
X170721420Y-21250997D01*
X170578159Y-21294454D01*
X170446130Y-21365026D01*
X170330405Y-21459999D01*
X170306607Y-21488997D01*
X167299205Y-24496400D01*
X167299200Y-24496404D01*
X164424205Y-27371400D01*
X164424200Y-27371404D01*
X163855625Y-27939980D01*
X100764782Y-27939980D01*
X99510000Y-26685199D01*
X99510000Y-21787323D01*
X99513676Y-21750000D01*
X99510000Y-21712677D01*
X99510000Y-21712667D01*
X99499003Y-21601014D01*
X99455546Y-21457753D01*
X99434808Y-21418956D01*
X99384974Y-21325723D01*
X99313799Y-21238997D01*
X99290001Y-21209999D01*
X99261004Y-21186202D01*
X97409801Y-19335000D01*
X115692227Y-19335000D01*
X115163136Y-19864091D01*
X114710611Y-20541343D01*
X114398906Y-21293865D01*
X114240000Y-22092738D01*
X114240000Y-22907262D01*
X114398906Y-23706135D01*
X114710611Y-24458657D01*
X115163136Y-25135909D01*
X115739091Y-25711864D01*
X116416343Y-26164389D01*
X117168865Y-26476094D01*
X117967738Y-26635000D01*
X118782262Y-26635000D01*
X119581135Y-26476094D01*
X120333657Y-26164389D01*
X121010909Y-25711864D01*
X121586864Y-25135909D01*
X122039389Y-24458657D01*
X122351094Y-23706135D01*
X122510000Y-22907262D01*
X122510000Y-22092738D01*
X122351094Y-21293865D01*
X122039389Y-20541343D01*
X121586864Y-19864091D01*
X121057773Y-19335000D01*
X158260199Y-19335000D01*
X159965000Y-21039802D01*
X159965000Y-21101939D01*
X160004774Y-21301898D01*
X160082795Y-21490256D01*
X160196063Y-21659774D01*
X160340226Y-21803937D01*
X160509744Y-21917205D01*
X160698102Y-21995226D01*
X160898061Y-22035000D01*
X161101939Y-22035000D01*
X161301898Y-21995226D01*
X161490256Y-21917205D01*
X161659774Y-21803937D01*
X161803937Y-21659774D01*
X161917205Y-21490256D01*
X161995226Y-21301898D01*
X162035000Y-21101939D01*
X162035000Y-20898061D01*
X161995226Y-20698102D01*
X161917205Y-20509744D01*
X161803937Y-20340226D01*
X161659774Y-20196063D01*
X161490256Y-20082795D01*
X161301898Y-20004774D01*
X161101939Y-19965000D01*
X161039802Y-19965000D01*
X159138804Y-18064003D01*
X159115001Y-18034999D01*
X158999276Y-17940026D01*
X158867247Y-17869454D01*
X158723986Y-17825997D01*
X158612333Y-17815000D01*
X158612322Y-17815000D01*
X158575000Y-17811324D01*
X158537678Y-17815000D01*
X88787325Y-17815000D01*
X88750000Y-17811324D01*
X88712675Y-17815000D01*
X88712667Y-17815000D01*
X88601014Y-17825997D01*
X88457753Y-17869454D01*
X88325724Y-17940026D01*
X88209999Y-18034999D01*
X88186201Y-18063997D01*
X87050199Y-19200000D01*
X58828148Y-19200000D01*
X58802537Y-19138169D01*
X58612663Y-18854002D01*
X58370998Y-18612337D01*
X58086831Y-18422463D01*
X57771081Y-18291675D01*
X57435883Y-18225000D01*
X57094117Y-18225000D01*
X56758919Y-18291675D01*
X56443169Y-18422463D01*
X56159002Y-18612337D01*
X55917337Y-18854002D01*
X55727463Y-19138169D01*
X55596675Y-19453919D01*
X55530000Y-19789117D01*
X55530000Y-20130883D01*
X55596675Y-20466081D01*
X55727463Y-20781831D01*
X55883261Y-21015000D01*
X55848740Y-21015000D01*
X55561842Y-21072068D01*
X55291589Y-21184010D01*
X55048368Y-21346525D01*
X54841525Y-21553368D01*
X54679010Y-21796589D01*
X54567068Y-22066842D01*
X54510000Y-22353740D01*
X54510000Y-22646260D01*
X54567068Y-22933158D01*
X54679010Y-23203411D01*
X54841525Y-23446632D01*
X55048368Y-23653475D01*
X55291589Y-23815990D01*
X55561842Y-23927932D01*
X55848740Y-23985000D01*
X56141260Y-23985000D01*
X56428158Y-23927932D01*
X56698411Y-23815990D01*
X56941632Y-23653475D01*
X57148475Y-23446632D01*
X57310990Y-23203411D01*
X57422932Y-22933158D01*
X57480000Y-22646260D01*
X57480000Y-22353740D01*
X57422932Y-22066842D01*
X57310990Y-21796589D01*
X57243110Y-21695000D01*
X57435883Y-21695000D01*
X57771081Y-21628325D01*
X58086831Y-21497537D01*
X58370998Y-21307663D01*
X58612663Y-21065998D01*
X58802537Y-20781831D01*
X58828148Y-20720000D01*
X59128547Y-20720000D01*
X59028262Y-20820285D01*
X58739893Y-21251859D01*
X58541261Y-21731399D01*
X58440000Y-22240475D01*
X58440000Y-22759525D01*
X58541261Y-23268601D01*
X58739893Y-23748141D01*
X59028262Y-24179715D01*
X59395285Y-24546738D01*
X59826859Y-24835107D01*
X60306399Y-25033739D01*
X60815475Y-25135000D01*
X61334525Y-25135000D01*
X61843601Y-25033739D01*
X62323141Y-24835107D01*
X62754715Y-24546738D01*
X63121738Y-24179715D01*
X63410107Y-23748141D01*
X63608739Y-23268601D01*
X63710000Y-22759525D01*
X63710000Y-22353740D01*
X64670000Y-22353740D01*
X64670000Y-22646260D01*
X64727068Y-22933158D01*
X64839010Y-23203411D01*
X65001525Y-23446632D01*
X65208368Y-23653475D01*
X65451589Y-23815990D01*
X65721842Y-23927932D01*
X66008740Y-23985000D01*
X66301260Y-23985000D01*
X66588158Y-23927932D01*
X66858411Y-23815990D01*
X67101632Y-23653475D01*
X67308475Y-23446632D01*
X67470990Y-23203411D01*
X67582932Y-22933158D01*
X67640000Y-22646260D01*
X67640000Y-22353740D01*
X67582932Y-22066842D01*
X67470990Y-21796589D01*
X67308475Y-21553368D01*
X67101632Y-21346525D01*
X66858411Y-21184010D01*
X66588158Y-21072068D01*
X66301260Y-21015000D01*
X66008740Y-21015000D01*
X65721842Y-21072068D01*
X65451589Y-21184010D01*
X65208368Y-21346525D01*
X65001525Y-21553368D01*
X64839010Y-21796589D01*
X64727068Y-22066842D01*
X64670000Y-22353740D01*
X63710000Y-22353740D01*
X63710000Y-22240475D01*
X63608739Y-21731399D01*
X63410107Y-21251859D01*
X63121738Y-20820285D01*
X63021453Y-20720000D01*
X76705198Y-20720000D01*
X75738998Y-21686201D01*
X75710000Y-21709999D01*
X75686202Y-21738997D01*
X75686201Y-21738998D01*
X75615026Y-21825724D01*
X75544454Y-21957754D01*
X75526061Y-22018390D01*
X75500998Y-22101014D01*
X75490264Y-22209999D01*
X75486324Y-22250000D01*
X75490001Y-22287332D01*
X75490000Y-25712677D01*
X75486324Y-25750000D01*
X75490000Y-25787322D01*
X75490000Y-25787332D01*
X75500997Y-25898985D01*
X75544454Y-26042246D01*
X75615026Y-26174276D01*
X75646258Y-26212332D01*
X75709999Y-26290001D01*
X75739003Y-26313804D01*
X77815188Y-28389990D01*
X35887335Y-28389990D01*
X35850010Y-28386314D01*
X35812685Y-28389990D01*
X35812677Y-28389990D01*
X35701024Y-28400987D01*
X35557763Y-28444444D01*
X35539973Y-28453953D01*
X35476912Y-28427832D01*
X35161033Y-28365000D01*
X34838967Y-28365000D01*
X34523088Y-28427832D01*
X34225537Y-28551082D01*
X33957748Y-28730013D01*
X33730013Y-28957748D01*
X33665075Y-29054935D01*
X33635413Y-29044192D01*
X32679605Y-30000000D01*
X33635413Y-30955808D01*
X33665075Y-30945065D01*
X33730013Y-31042252D01*
X33957748Y-31269987D01*
X34062530Y-31340000D01*
X33381708Y-31340000D01*
X33455808Y-31135413D01*
X32500000Y-30179605D01*
X32485858Y-30193748D01*
X32306253Y-30014143D01*
X32320395Y-30000000D01*
X32306253Y-29985858D01*
X32485858Y-29806253D01*
X32500000Y-29820395D01*
X33455808Y-28864587D01*
X33360044Y-28600186D01*
X33070429Y-28459296D01*
X32758892Y-28377616D01*
X32437405Y-28358282D01*
X32118325Y-28402039D01*
X31813912Y-28507205D01*
X31639956Y-28600186D01*
X31585976Y-28749223D01*
X31530537Y-28645506D01*
X31451185Y-28548815D01*
X31354494Y-28469463D01*
X31244180Y-28410498D01*
X31124482Y-28374188D01*
X31000000Y-28361928D01*
X29000000Y-28361928D01*
X28875518Y-28374188D01*
X28755820Y-28410498D01*
X28645506Y-28469463D01*
X28548815Y-28548815D01*
X28469463Y-28645506D01*
X28410498Y-28755820D01*
X28374188Y-28875518D01*
X28361928Y-29000000D01*
X20815000Y-29000000D01*
X20815000Y-24549198D01*
X20945476Y-24507809D01*
X21000412Y-24484263D01*
X21055764Y-24461449D01*
X21063870Y-24457065D01*
X21320408Y-24316032D01*
X21369753Y-24282245D01*
X21419591Y-24249133D01*
X21426691Y-24243259D01*
X21650949Y-24055084D01*
X21692793Y-24012354D01*
X21735248Y-23970195D01*
X21741072Y-23963053D01*
X21924509Y-23734903D01*
X21957251Y-23684869D01*
X21990714Y-23635258D01*
X21995040Y-23627122D01*
X22130670Y-23367687D01*
X22153082Y-23312215D01*
X22176260Y-23257077D01*
X22178923Y-23248255D01*
X22261578Y-22967417D01*
X22272785Y-22908669D01*
X22284816Y-22850059D01*
X22285715Y-22840888D01*
X22312247Y-22549344D01*
X22311829Y-22489528D01*
X22312247Y-22429712D01*
X22311348Y-22420541D01*
X22280748Y-22129395D01*
X22268710Y-22070753D01*
X22257510Y-22012037D01*
X22254847Y-22003216D01*
X22168279Y-21723560D01*
X22145101Y-21668422D01*
X22122689Y-21612950D01*
X22118362Y-21604814D01*
X21979123Y-21347298D01*
X21945701Y-21297749D01*
X21912920Y-21247653D01*
X21907095Y-21240512D01*
X21720490Y-21014945D01*
X21678054Y-20972804D01*
X21636191Y-20930055D01*
X21629091Y-20924181D01*
X21599443Y-20900000D01*
X25261928Y-20900000D01*
X25261928Y-24100000D01*
X25274188Y-24224482D01*
X25310498Y-24344180D01*
X25369463Y-24454494D01*
X25448815Y-24551185D01*
X25545506Y-24630537D01*
X25655820Y-24689502D01*
X25775518Y-24725812D01*
X25900000Y-24738072D01*
X27900000Y-24738072D01*
X28024482Y-24725812D01*
X28144180Y-24689502D01*
X28254494Y-24630537D01*
X28351185Y-24551185D01*
X28430537Y-24454494D01*
X28489502Y-24344180D01*
X28525812Y-24224482D01*
X28538072Y-24100000D01*
X28538072Y-20900000D01*
X36461928Y-20900000D01*
X36461928Y-24100000D01*
X36474188Y-24224482D01*
X36510498Y-24344180D01*
X36569463Y-24454494D01*
X36648815Y-24551185D01*
X36745506Y-24630537D01*
X36855820Y-24689502D01*
X36975518Y-24725812D01*
X37100000Y-24738072D01*
X39100000Y-24738072D01*
X39224482Y-24725812D01*
X39344180Y-24689502D01*
X39454494Y-24630537D01*
X39551185Y-24551185D01*
X39630537Y-24454494D01*
X39689502Y-24344180D01*
X39725812Y-24224482D01*
X39738072Y-24100000D01*
X39738072Y-20900000D01*
X39725812Y-20775518D01*
X39689502Y-20655820D01*
X39630537Y-20545506D01*
X39551185Y-20448815D01*
X39454494Y-20369463D01*
X39344180Y-20310498D01*
X39224482Y-20274188D01*
X39100000Y-20261928D01*
X37100000Y-20261928D01*
X36975518Y-20274188D01*
X36855820Y-20310498D01*
X36745506Y-20369463D01*
X36648815Y-20448815D01*
X36569463Y-20545506D01*
X36510498Y-20655820D01*
X36474188Y-20775518D01*
X36461928Y-20900000D01*
X28538072Y-20900000D01*
X28525812Y-20775518D01*
X28489502Y-20655820D01*
X28430537Y-20545506D01*
X28351185Y-20448815D01*
X28254494Y-20369463D01*
X28144180Y-20310498D01*
X28024482Y-20274188D01*
X27900000Y-20261928D01*
X25900000Y-20261928D01*
X25775518Y-20274188D01*
X25655820Y-20310498D01*
X25545506Y-20369463D01*
X25448815Y-20448815D01*
X25369463Y-20545506D01*
X25310498Y-20655820D01*
X25274188Y-20775518D01*
X25261928Y-20900000D01*
X21599443Y-20900000D01*
X21402227Y-20739155D01*
X21352408Y-20706055D01*
X21303045Y-20672256D01*
X21294939Y-20667873D01*
X21036458Y-20530436D01*
X20981164Y-20507645D01*
X20926171Y-20484075D01*
X20917368Y-20481350D01*
X20815000Y-20450443D01*
X20815000Y-17249117D01*
X61880000Y-17249117D01*
X61880000Y-17590883D01*
X61946675Y-17926081D01*
X62077463Y-18241831D01*
X62267337Y-18525998D01*
X62509002Y-18767663D01*
X62793169Y-18957537D01*
X63108919Y-19088325D01*
X63444117Y-19155000D01*
X63785883Y-19155000D01*
X64121081Y-19088325D01*
X64436831Y-18957537D01*
X64720998Y-18767663D01*
X64962663Y-18525998D01*
X65152537Y-18241831D01*
X65283325Y-17926081D01*
X65350000Y-17590883D01*
X65350000Y-17249117D01*
X233330000Y-17249117D01*
X233330000Y-17590883D01*
X233396675Y-17926081D01*
X233527463Y-18241831D01*
X233717337Y-18525998D01*
X233959002Y-18767663D01*
X234243169Y-18957537D01*
X234558919Y-19088325D01*
X234894117Y-19155000D01*
X235235883Y-19155000D01*
X235571081Y-19088325D01*
X235886831Y-18957537D01*
X236170998Y-18767663D01*
X236412663Y-18525998D01*
X236602537Y-18241831D01*
X236733325Y-17926081D01*
X236800000Y-17590883D01*
X236800000Y-17249117D01*
X252380000Y-17249117D01*
X252380000Y-17590883D01*
X252446675Y-17926081D01*
X252577463Y-18241831D01*
X252767337Y-18525998D01*
X253009002Y-18767663D01*
X253293169Y-18957537D01*
X253608919Y-19088325D01*
X253944117Y-19155000D01*
X254285883Y-19155000D01*
X254621081Y-19088325D01*
X254936831Y-18957537D01*
X255220998Y-18767663D01*
X255462663Y-18525998D01*
X255652537Y-18241831D01*
X255783325Y-17926081D01*
X255850000Y-17590883D01*
X255850000Y-17249117D01*
X271430000Y-17249117D01*
X271430000Y-17590883D01*
X271496675Y-17926081D01*
X271627463Y-18241831D01*
X271817337Y-18525998D01*
X272059002Y-18767663D01*
X272343169Y-18957537D01*
X272658919Y-19088325D01*
X272994117Y-19155000D01*
X273335883Y-19155000D01*
X273671081Y-19088325D01*
X273986831Y-18957537D01*
X274270998Y-18767663D01*
X274512663Y-18525998D01*
X274702537Y-18241831D01*
X274833325Y-17926081D01*
X274900000Y-17590883D01*
X274900000Y-17249117D01*
X274833325Y-16913919D01*
X274702537Y-16598169D01*
X274512663Y-16314002D01*
X274270998Y-16072337D01*
X273986831Y-15882463D01*
X273671081Y-15751675D01*
X273335883Y-15685000D01*
X272994117Y-15685000D01*
X272658919Y-15751675D01*
X272343169Y-15882463D01*
X272059002Y-16072337D01*
X271817337Y-16314002D01*
X271627463Y-16598169D01*
X271496675Y-16913919D01*
X271430000Y-17249117D01*
X255850000Y-17249117D01*
X255783325Y-16913919D01*
X255652537Y-16598169D01*
X255462663Y-16314002D01*
X255220998Y-16072337D01*
X254936831Y-15882463D01*
X254621081Y-15751675D01*
X254285883Y-15685000D01*
X253944117Y-15685000D01*
X253608919Y-15751675D01*
X253293169Y-15882463D01*
X253009002Y-16072337D01*
X252767337Y-16314002D01*
X252577463Y-16598169D01*
X252446675Y-16913919D01*
X252380000Y-17249117D01*
X236800000Y-17249117D01*
X236733325Y-16913919D01*
X236602537Y-16598169D01*
X236412663Y-16314002D01*
X236170998Y-16072337D01*
X235886831Y-15882463D01*
X235571081Y-15751675D01*
X235235883Y-15685000D01*
X234894117Y-15685000D01*
X234558919Y-15751675D01*
X234243169Y-15882463D01*
X233959002Y-16072337D01*
X233717337Y-16314002D01*
X233527463Y-16598169D01*
X233396675Y-16913919D01*
X233330000Y-17249117D01*
X65350000Y-17249117D01*
X65283325Y-16913919D01*
X65152537Y-16598169D01*
X64962663Y-16314002D01*
X64720998Y-16072337D01*
X64436831Y-15882463D01*
X64121081Y-15751675D01*
X63785883Y-15685000D01*
X63444117Y-15685000D01*
X63108919Y-15751675D01*
X62793169Y-15882463D01*
X62509002Y-16072337D01*
X62267337Y-16314002D01*
X62077463Y-16598169D01*
X61946675Y-16913919D01*
X61880000Y-17249117D01*
X20815000Y-17249117D01*
X20815000Y-17007278D01*
X20881714Y-16326874D01*
X21069943Y-15703428D01*
X21263731Y-15338967D01*
X28365000Y-15338967D01*
X28365000Y-15661033D01*
X28427832Y-15976912D01*
X28551082Y-16274463D01*
X28730013Y-16542252D01*
X28957748Y-16769987D01*
X29225537Y-16948918D01*
X29523088Y-17072168D01*
X29838967Y-17135000D01*
X30161033Y-17135000D01*
X30476912Y-17072168D01*
X30774463Y-16948918D01*
X31042252Y-16769987D01*
X31269987Y-16542252D01*
X31448918Y-16274463D01*
X31572168Y-15976912D01*
X31635000Y-15661033D01*
X31635000Y-15338967D01*
X33365000Y-15338967D01*
X33365000Y-15661033D01*
X33427832Y-15976912D01*
X33551082Y-16274463D01*
X33730013Y-16542252D01*
X33957748Y-16769987D01*
X34225537Y-16948918D01*
X34523088Y-17072168D01*
X34838967Y-17135000D01*
X35161033Y-17135000D01*
X35476912Y-17072168D01*
X35774463Y-16948918D01*
X36042252Y-16769987D01*
X36269987Y-16542252D01*
X36448918Y-16274463D01*
X36572168Y-15976912D01*
X36635000Y-15661033D01*
X36635000Y-15338967D01*
X36572168Y-15023088D01*
X36448918Y-14725537D01*
X36269987Y-14457748D01*
X36042252Y-14230013D01*
X35774463Y-14051082D01*
X35476912Y-13927832D01*
X35161033Y-13865000D01*
X34838967Y-13865000D01*
X34523088Y-13927832D01*
X34225537Y-14051082D01*
X33957748Y-14230013D01*
X33730013Y-14457748D01*
X33551082Y-14725537D01*
X33427832Y-15023088D01*
X33365000Y-15338967D01*
X31635000Y-15338967D01*
X31572168Y-15023088D01*
X31448918Y-14725537D01*
X31269987Y-14457748D01*
X31042252Y-14230013D01*
X30774463Y-14051082D01*
X30476912Y-13927832D01*
X30161033Y-13865000D01*
X29838967Y-13865000D01*
X29523088Y-13927832D01*
X29225537Y-14051082D01*
X28957748Y-14230013D01*
X28730013Y-14457748D01*
X28551082Y-14725537D01*
X28427832Y-15023088D01*
X28365000Y-15338967D01*
X21263731Y-15338967D01*
X21375681Y-15128421D01*
X21787279Y-14623753D01*
X22289067Y-14208638D01*
X22861924Y-13898895D01*
X23484039Y-13706318D01*
X24162584Y-13635000D01*
X276117722Y-13635000D01*
X276798126Y-13701714D01*
X276798126Y-13701714D01*
G37*
X276798126Y-13701714D02*
X277421572Y-13889943D01*
X277996579Y-14195681D01*
X278501247Y-14607279D01*
X278916362Y-15109067D01*
X279226105Y-15681924D01*
X279418682Y-16304039D01*
X279490000Y-16982584D01*
X279490001Y-30373961D01*
X279423286Y-31054376D01*
X279235057Y-31677820D01*
X278929323Y-32252823D01*
X278517721Y-32757498D01*
X278015933Y-33172612D01*
X277443077Y-33482354D01*
X276820961Y-33674932D01*
X276142417Y-33746250D01*
X24187279Y-33746250D01*
X23506874Y-33679536D01*
X22883430Y-33491307D01*
X22308427Y-33185573D01*
X21803752Y-32773971D01*
X21388638Y-32272183D01*
X21078896Y-31699327D01*
X20886318Y-31077211D01*
X20815000Y-30398667D01*
X20815000Y-29000000D01*
X28361928Y-29000000D01*
X28361928Y-31000000D01*
X28374188Y-31124482D01*
X28410498Y-31244180D01*
X28469463Y-31354494D01*
X28548815Y-31451185D01*
X28645506Y-31530537D01*
X28755820Y-31589502D01*
X28875518Y-31625812D01*
X29000000Y-31638072D01*
X29345674Y-31638072D01*
X29365026Y-31674276D01*
X29418777Y-31739771D01*
X29460000Y-31790001D01*
X29488998Y-31813799D01*
X30286201Y-32611003D01*
X30309999Y-32640001D01*
X30338997Y-32663799D01*
X30425724Y-32734974D01*
X30557753Y-32805546D01*
X30701014Y-32849003D01*
X30850000Y-32863677D01*
X30887333Y-32860000D01*
X35012678Y-32860000D01*
X35050000Y-32863676D01*
X35087322Y-32860000D01*
X35087333Y-32860000D01*
X35198986Y-32849003D01*
X35342247Y-32805546D01*
X35474276Y-32734974D01*
X35590001Y-32640001D01*
X35613804Y-32610997D01*
X37864802Y-30360000D01*
X177196289Y-30360000D01*
X177240226Y-30403937D01*
X177409744Y-30517205D01*
X177598102Y-30595226D01*
X177798061Y-30635000D01*
X178001939Y-30635000D01*
X178201898Y-30595226D01*
X178390256Y-30517205D01*
X178559774Y-30403937D01*
X178703937Y-30259774D01*
X178817205Y-30090256D01*
X178895226Y-29901898D01*
X178935000Y-29701939D01*
X178935000Y-29498061D01*
X178895226Y-29298102D01*
X178817205Y-29109744D01*
X178703937Y-28940226D01*
X178559774Y-28796063D01*
X178390256Y-28682795D01*
X178267751Y-28632051D01*
X178389802Y-28510000D01*
X180212678Y-28510000D01*
X180250000Y-28513676D01*
X180287322Y-28510000D01*
X180287333Y-28510000D01*
X180398986Y-28499003D01*
X180542247Y-28455546D01*
X180674276Y-28384974D01*
X180790001Y-28290001D01*
X180813804Y-28260997D01*
X182336004Y-26738798D01*
X182365001Y-26715001D01*
X182459974Y-26599276D01*
X182530546Y-26467247D01*
X182574003Y-26323986D01*
X182585000Y-26212333D01*
X182585000Y-26212324D01*
X182588676Y-26175001D01*
X182585000Y-26137678D01*
X182585000Y-25070956D01*
X182755792Y-24930792D01*
X182919495Y-24731318D01*
X183041138Y-24503741D01*
X183116045Y-24256805D01*
X183141338Y-24000000D01*
X183116045Y-23743195D01*
X183041138Y-23496259D01*
X182919495Y-23268682D01*
X182862369Y-23199074D01*
X182951185Y-23126185D01*
X183030537Y-23029494D01*
X183089502Y-22919180D01*
X183125812Y-22799482D01*
X183138072Y-22675000D01*
X183138072Y-22092738D01*
X209490000Y-22092738D01*
X209490000Y-22907262D01*
X209648906Y-23706135D01*
X209960611Y-24458657D01*
X210413136Y-25135909D01*
X210989091Y-25711864D01*
X211666343Y-26164389D01*
X212418865Y-26476094D01*
X213217738Y-26635000D01*
X214032262Y-26635000D01*
X214831135Y-26476094D01*
X215583657Y-26164389D01*
X216260909Y-25711864D01*
X216836864Y-25135909D01*
X217289389Y-24458657D01*
X217601094Y-23706135D01*
X217760000Y-22907262D01*
X217760000Y-22353740D01*
X225960000Y-22353740D01*
X225960000Y-22646260D01*
X226017068Y-22933158D01*
X226129010Y-23203411D01*
X226291525Y-23446632D01*
X226498368Y-23653475D01*
X226741589Y-23815990D01*
X227011842Y-23927932D01*
X227298740Y-23985000D01*
X227591260Y-23985000D01*
X227878158Y-23927932D01*
X228148411Y-23815990D01*
X228391632Y-23653475D01*
X228598475Y-23446632D01*
X228760990Y-23203411D01*
X228872932Y-22933158D01*
X228930000Y-22646260D01*
X228930000Y-22353740D01*
X228907471Y-22240475D01*
X229890000Y-22240475D01*
X229890000Y-22759525D01*
X229991261Y-23268601D01*
X230189893Y-23748141D01*
X230478262Y-24179715D01*
X230845285Y-24546738D01*
X231276859Y-24835107D01*
X231756399Y-25033739D01*
X232265475Y-25135000D01*
X232784525Y-25135000D01*
X233293601Y-25033739D01*
X233773141Y-24835107D01*
X234204715Y-24546738D01*
X234571738Y-24179715D01*
X234860107Y-23748141D01*
X235058739Y-23268601D01*
X235160000Y-22759525D01*
X235160000Y-22353740D01*
X236120000Y-22353740D01*
X236120000Y-22646260D01*
X236177068Y-22933158D01*
X236289010Y-23203411D01*
X236451525Y-23446632D01*
X236658368Y-23653475D01*
X236901589Y-23815990D01*
X237171842Y-23927932D01*
X237458740Y-23985000D01*
X237751260Y-23985000D01*
X238038158Y-23927932D01*
X238308411Y-23815990D01*
X238551632Y-23653475D01*
X238758475Y-23446632D01*
X238920990Y-23203411D01*
X239032932Y-22933158D01*
X239090000Y-22646260D01*
X239090000Y-22353740D01*
X245010000Y-22353740D01*
X245010000Y-22646260D01*
X245067068Y-22933158D01*
X245179010Y-23203411D01*
X245341525Y-23446632D01*
X245548368Y-23653475D01*
X245791589Y-23815990D01*
X246061842Y-23927932D01*
X246348740Y-23985000D01*
X246641260Y-23985000D01*
X246928158Y-23927932D01*
X247198411Y-23815990D01*
X247441632Y-23653475D01*
X247648475Y-23446632D01*
X247810990Y-23203411D01*
X247922932Y-22933158D01*
X247980000Y-22646260D01*
X247980000Y-22353740D01*
X247957471Y-22240475D01*
X248940000Y-22240475D01*
X248940000Y-22759525D01*
X249041261Y-23268601D01*
X249239893Y-23748141D01*
X249528262Y-24179715D01*
X249895285Y-24546738D01*
X250326859Y-24835107D01*
X250806399Y-25033739D01*
X251315475Y-25135000D01*
X251834525Y-25135000D01*
X252343601Y-25033739D01*
X252823141Y-24835107D01*
X253254715Y-24546738D01*
X253621738Y-24179715D01*
X253910107Y-23748141D01*
X254108739Y-23268601D01*
X254210000Y-22759525D01*
X254210000Y-22353740D01*
X255170000Y-22353740D01*
X255170000Y-22646260D01*
X255227068Y-22933158D01*
X255339010Y-23203411D01*
X255501525Y-23446632D01*
X255708368Y-23653475D01*
X255951589Y-23815990D01*
X256221842Y-23927932D01*
X256508740Y-23985000D01*
X256801260Y-23985000D01*
X257088158Y-23927932D01*
X257358411Y-23815990D01*
X257601632Y-23653475D01*
X257808475Y-23446632D01*
X257970990Y-23203411D01*
X258082932Y-22933158D01*
X258140000Y-22646260D01*
X258140000Y-22353740D01*
X264060000Y-22353740D01*
X264060000Y-22646260D01*
X264117068Y-22933158D01*
X264229010Y-23203411D01*
X264391525Y-23446632D01*
X264598368Y-23653475D01*
X264841589Y-23815990D01*
X265111842Y-23927932D01*
X265398740Y-23985000D01*
X265691260Y-23985000D01*
X265978158Y-23927932D01*
X266248411Y-23815990D01*
X266491632Y-23653475D01*
X266698475Y-23446632D01*
X266860990Y-23203411D01*
X266972932Y-22933158D01*
X267030000Y-22646260D01*
X267030000Y-22353740D01*
X267007471Y-22240475D01*
X267990000Y-22240475D01*
X267990000Y-22759525D01*
X268091261Y-23268601D01*
X268289893Y-23748141D01*
X268578262Y-24179715D01*
X268945285Y-24546738D01*
X269376859Y-24835107D01*
X269856399Y-25033739D01*
X270365475Y-25135000D01*
X270884525Y-25135000D01*
X271393601Y-25033739D01*
X271873141Y-24835107D01*
X272304715Y-24546738D01*
X272671738Y-24179715D01*
X272960107Y-23748141D01*
X273158739Y-23268601D01*
X273260000Y-22759525D01*
X273260000Y-22353740D01*
X274220000Y-22353740D01*
X274220000Y-22646260D01*
X274277068Y-22933158D01*
X274389010Y-23203411D01*
X274551525Y-23446632D01*
X274758368Y-23653475D01*
X275001589Y-23815990D01*
X275271842Y-23927932D01*
X275558740Y-23985000D01*
X275851260Y-23985000D01*
X276138158Y-23927932D01*
X276408411Y-23815990D01*
X276651632Y-23653475D01*
X276858475Y-23446632D01*
X277020990Y-23203411D01*
X277132932Y-22933158D01*
X277190000Y-22646260D01*
X277190000Y-22353740D01*
X277132932Y-22066842D01*
X277020990Y-21796589D01*
X276858475Y-21553368D01*
X276651632Y-21346525D01*
X276408411Y-21184010D01*
X276138158Y-21072068D01*
X275851260Y-21015000D01*
X275558740Y-21015000D01*
X275271842Y-21072068D01*
X275001589Y-21184010D01*
X274758368Y-21346525D01*
X274551525Y-21553368D01*
X274389010Y-21796589D01*
X274277068Y-22066842D01*
X274220000Y-22353740D01*
X273260000Y-22353740D01*
X273260000Y-22240475D01*
X273158739Y-21731399D01*
X272960107Y-21251859D01*
X272671738Y-20820285D01*
X272304715Y-20453262D01*
X271873141Y-20164893D01*
X271393601Y-19966261D01*
X270884525Y-19865000D01*
X270365475Y-19865000D01*
X269856399Y-19966261D01*
X269376859Y-20164893D01*
X268945285Y-20453262D01*
X268578262Y-20820285D01*
X268289893Y-21251859D01*
X268091261Y-21731399D01*
X267990000Y-22240475D01*
X267007471Y-22240475D01*
X266972932Y-22066842D01*
X266860990Y-21796589D01*
X266793110Y-21695000D01*
X266985883Y-21695000D01*
X267321081Y-21628325D01*
X267636831Y-21497537D01*
X267920998Y-21307663D01*
X268162663Y-21065998D01*
X268352537Y-20781831D01*
X268483325Y-20466081D01*
X268550000Y-20130883D01*
X268550000Y-19789117D01*
X268483325Y-19453919D01*
X268352537Y-19138169D01*
X268162663Y-18854002D01*
X267920998Y-18612337D01*
X267636831Y-18422463D01*
X267321081Y-18291675D01*
X266985883Y-18225000D01*
X266644117Y-18225000D01*
X266308919Y-18291675D01*
X265993169Y-18422463D01*
X265709002Y-18612337D01*
X265467337Y-18854002D01*
X265277463Y-19138169D01*
X265146675Y-19453919D01*
X265080000Y-19789117D01*
X265080000Y-20130883D01*
X265146675Y-20466081D01*
X265277463Y-20781831D01*
X265433261Y-21015000D01*
X265398740Y-21015000D01*
X265111842Y-21072068D01*
X264841589Y-21184010D01*
X264598368Y-21346525D01*
X264391525Y-21553368D01*
X264229010Y-21796589D01*
X264117068Y-22066842D01*
X264060000Y-22353740D01*
X258140000Y-22353740D01*
X258082932Y-22066842D01*
X257970990Y-21796589D01*
X257808475Y-21553368D01*
X257601632Y-21346525D01*
X257358411Y-21184010D01*
X257088158Y-21072068D01*
X256801260Y-21015000D01*
X256508740Y-21015000D01*
X256221842Y-21072068D01*
X255951589Y-21184010D01*
X255708368Y-21346525D01*
X255501525Y-21553368D01*
X255339010Y-21796589D01*
X255227068Y-22066842D01*
X255170000Y-22353740D01*
X254210000Y-22353740D01*
X254210000Y-22240475D01*
X254108739Y-21731399D01*
X253910107Y-21251859D01*
X253621738Y-20820285D01*
X253254715Y-20453262D01*
X252823141Y-20164893D01*
X252343601Y-19966261D01*
X251834525Y-19865000D01*
X251315475Y-19865000D01*
X250806399Y-19966261D01*
X250326859Y-20164893D01*
X249895285Y-20453262D01*
X249528262Y-20820285D01*
X249239893Y-21251859D01*
X249041261Y-21731399D01*
X248940000Y-22240475D01*
X247957471Y-22240475D01*
X247922932Y-22066842D01*
X247810990Y-21796589D01*
X247743110Y-21695000D01*
X247935883Y-21695000D01*
X248271081Y-21628325D01*
X248586831Y-21497537D01*
X248870998Y-21307663D01*
X249112663Y-21065998D01*
X249302537Y-20781831D01*
X249433325Y-20466081D01*
X249500000Y-20130883D01*
X249500000Y-19789117D01*
X249433325Y-19453919D01*
X249302537Y-19138169D01*
X249112663Y-18854002D01*
X248870998Y-18612337D01*
X248586831Y-18422463D01*
X248271081Y-18291675D01*
X247935883Y-18225000D01*
X247594117Y-18225000D01*
X247258919Y-18291675D01*
X246943169Y-18422463D01*
X246659002Y-18612337D01*
X246417337Y-18854002D01*
X246227463Y-19138169D01*
X246096675Y-19453919D01*
X246030000Y-19789117D01*
X246030000Y-20130883D01*
X246096675Y-20466081D01*
X246227463Y-20781831D01*
X246383261Y-21015000D01*
X246348740Y-21015000D01*
X246061842Y-21072068D01*
X245791589Y-21184010D01*
X245548368Y-21346525D01*
X245341525Y-21553368D01*
X245179010Y-21796589D01*
X245067068Y-22066842D01*
X245010000Y-22353740D01*
X239090000Y-22353740D01*
X239032932Y-22066842D01*
X238920990Y-21796589D01*
X238758475Y-21553368D01*
X238551632Y-21346525D01*
X238308411Y-21184010D01*
X238038158Y-21072068D01*
X237751260Y-21015000D01*
X237458740Y-21015000D01*
X237171842Y-21072068D01*
X236901589Y-21184010D01*
X236658368Y-21346525D01*
X236451525Y-21553368D01*
X236289010Y-21796589D01*
X236177068Y-22066842D01*
X236120000Y-22353740D01*
X235160000Y-22353740D01*
X235160000Y-22240475D01*
X235058739Y-21731399D01*
X234860107Y-21251859D01*
X234571738Y-20820285D01*
X234204715Y-20453262D01*
X233773141Y-20164893D01*
X233293601Y-19966261D01*
X232784525Y-19865000D01*
X232265475Y-19865000D01*
X231756399Y-19966261D01*
X231276859Y-20164893D01*
X230845285Y-20453262D01*
X230478262Y-20820285D01*
X230189893Y-21251859D01*
X229991261Y-21731399D01*
X229890000Y-22240475D01*
X228907471Y-22240475D01*
X228872932Y-22066842D01*
X228760990Y-21796589D01*
X228693110Y-21695000D01*
X228885883Y-21695000D01*
X229221081Y-21628325D01*
X229536831Y-21497537D01*
X229820998Y-21307663D01*
X230062663Y-21065998D01*
X230252537Y-20781831D01*
X230383325Y-20466081D01*
X230450000Y-20130883D01*
X230450000Y-19789117D01*
X230383325Y-19453919D01*
X230252537Y-19138169D01*
X230062663Y-18854002D01*
X229820998Y-18612337D01*
X229536831Y-18422463D01*
X229221081Y-18291675D01*
X228885883Y-18225000D01*
X228544117Y-18225000D01*
X228208919Y-18291675D01*
X227893169Y-18422463D01*
X227609002Y-18612337D01*
X227367337Y-18854002D01*
X227177463Y-19138169D01*
X227046675Y-19453919D01*
X226980000Y-19789117D01*
X226980000Y-20130883D01*
X227046675Y-20466081D01*
X227177463Y-20781831D01*
X227333261Y-21015000D01*
X227298740Y-21015000D01*
X227011842Y-21072068D01*
X226741589Y-21184010D01*
X226498368Y-21346525D01*
X226291525Y-21553368D01*
X226129010Y-21796589D01*
X226017068Y-22066842D01*
X225960000Y-22353740D01*
X217760000Y-22353740D01*
X217760000Y-22092738D01*
X217601094Y-21293865D01*
X217289389Y-20541343D01*
X216836864Y-19864091D01*
X216260909Y-19288136D01*
X215583657Y-18835611D01*
X214831135Y-18523906D01*
X214032262Y-18365000D01*
X213217738Y-18365000D01*
X212418865Y-18523906D01*
X211666343Y-18835611D01*
X210989091Y-19288136D01*
X210413136Y-19864091D01*
X209960611Y-20541343D01*
X209648906Y-21293865D01*
X209490000Y-22092738D01*
X183138072Y-22092738D01*
X183138072Y-21410000D01*
X190146289Y-21410000D01*
X190190226Y-21453937D01*
X190359744Y-21567205D01*
X190548102Y-21645226D01*
X190748061Y-21685000D01*
X190951939Y-21685000D01*
X191151898Y-21645226D01*
X191340256Y-21567205D01*
X191509774Y-21453937D01*
X191653937Y-21309774D01*
X191767205Y-21140256D01*
X191845226Y-20951898D01*
X191885000Y-20751939D01*
X191885000Y-20548061D01*
X191845226Y-20348102D01*
X191767205Y-20159744D01*
X191653937Y-19990226D01*
X191509774Y-19846063D01*
X191340256Y-19732795D01*
X191151898Y-19654774D01*
X190951939Y-19615000D01*
X190748061Y-19615000D01*
X190548102Y-19654774D01*
X190359744Y-19732795D01*
X190190226Y-19846063D01*
X190146289Y-19890000D01*
X181212322Y-19890000D01*
X181174999Y-19886324D01*
X181137676Y-19890000D01*
X181137667Y-19890000D01*
X181026014Y-19900997D01*
X180882753Y-19944454D01*
X180750724Y-20015026D01*
X180634999Y-20109999D01*
X180611201Y-20138997D01*
X180044880Y-20705318D01*
X179889351Y-20690000D01*
X179760649Y-20690000D01*
X179568195Y-20708955D01*
X179321259Y-20783862D01*
X179093682Y-20905505D01*
X178894208Y-21069208D01*
X178825000Y-21153539D01*
X178755792Y-21069208D01*
X178556318Y-20905505D01*
X178328741Y-20783862D01*
X178081805Y-20708955D01*
X177889351Y-20690000D01*
X177760649Y-20690000D01*
X177568195Y-20708955D01*
X177321259Y-20783862D01*
X177093682Y-20905505D01*
X176894208Y-21069208D01*
X176825000Y-21153539D01*
X176755792Y-21069208D01*
X176556318Y-20905505D01*
X176328741Y-20783862D01*
X176081805Y-20708955D01*
X175889351Y-20690000D01*
X175760649Y-20690000D01*
X175568195Y-20708955D01*
X175321259Y-20783862D01*
X175093682Y-20905505D01*
X174894208Y-21069208D01*
X174821628Y-21157648D01*
X174696227Y-21021697D01*
X174488629Y-20870527D01*
X174255528Y-20762762D01*
X174154400Y-20732090D01*
X173952000Y-20855776D01*
X173952000Y-21873000D01*
X173972000Y-21873000D01*
X173972000Y-22127000D01*
X173952000Y-22127000D01*
X173952000Y-22147000D01*
X173698000Y-22147000D01*
X173698000Y-22127000D01*
X173678000Y-22127000D01*
X173678000Y-21873000D01*
X173698000Y-21873000D01*
X173698000Y-20855776D01*
X173495600Y-20732090D01*
X173394472Y-20762762D01*
X173161371Y-20870527D01*
X172953773Y-21021697D01*
X172828372Y-21157648D01*
X172755792Y-21069208D01*
X172556318Y-20905505D01*
X172328741Y-20783862D01*
X172081805Y-20708955D01*
X171889351Y-20690000D01*
X171760649Y-20690000D01*
X171568195Y-20708955D01*
X171321259Y-20783862D01*
X171093682Y-20905505D01*
X170894208Y-21069208D01*
X170747094Y-21248468D01*
X170721420Y-21250997D01*
X170578159Y-21294454D01*
X170446130Y-21365026D01*
X170330405Y-21459999D01*
X170306607Y-21488997D01*
X167299205Y-24496400D01*
X167299200Y-24496404D01*
X164424205Y-27371400D01*
X164424200Y-27371404D01*
X163855625Y-27939980D01*
X100764782Y-27939980D01*
X99510000Y-26685199D01*
X99510000Y-21787323D01*
X99513676Y-21750000D01*
X99510000Y-21712677D01*
X99510000Y-21712667D01*
X99499003Y-21601014D01*
X99455546Y-21457753D01*
X99434808Y-21418956D01*
X99384974Y-21325723D01*
X99313799Y-21238997D01*
X99290001Y-21209999D01*
X99261004Y-21186202D01*
X97409801Y-19335000D01*
X115692227Y-19335000D01*
X115163136Y-19864091D01*
X114710611Y-20541343D01*
X114398906Y-21293865D01*
X114240000Y-22092738D01*
X114240000Y-22907262D01*
X114398906Y-23706135D01*
X114710611Y-24458657D01*
X115163136Y-25135909D01*
X115739091Y-25711864D01*
X116416343Y-26164389D01*
X117168865Y-26476094D01*
X117967738Y-26635000D01*
X118782262Y-26635000D01*
X119581135Y-26476094D01*
X120333657Y-26164389D01*
X121010909Y-25711864D01*
X121586864Y-25135909D01*
X122039389Y-24458657D01*
X122351094Y-23706135D01*
X122510000Y-22907262D01*
X122510000Y-22092738D01*
X122351094Y-21293865D01*
X122039389Y-20541343D01*
X121586864Y-19864091D01*
X121057773Y-19335000D01*
X158260199Y-19335000D01*
X159965000Y-21039802D01*
X159965000Y-21101939D01*
X160004774Y-21301898D01*
X160082795Y-21490256D01*
X160196063Y-21659774D01*
X160340226Y-21803937D01*
X160509744Y-21917205D01*
X160698102Y-21995226D01*
X160898061Y-22035000D01*
X161101939Y-22035000D01*
X161301898Y-21995226D01*
X161490256Y-21917205D01*
X161659774Y-21803937D01*
X161803937Y-21659774D01*
X161917205Y-21490256D01*
X161995226Y-21301898D01*
X162035000Y-21101939D01*
X162035000Y-20898061D01*
X161995226Y-20698102D01*
X161917205Y-20509744D01*
X161803937Y-20340226D01*
X161659774Y-20196063D01*
X161490256Y-20082795D01*
X161301898Y-20004774D01*
X161101939Y-19965000D01*
X161039802Y-19965000D01*
X159138804Y-18064003D01*
X159115001Y-18034999D01*
X158999276Y-17940026D01*
X158867247Y-17869454D01*
X158723986Y-17825997D01*
X158612333Y-17815000D01*
X158612322Y-17815000D01*
X158575000Y-17811324D01*
X158537678Y-17815000D01*
X88787325Y-17815000D01*
X88750000Y-17811324D01*
X88712675Y-17815000D01*
X88712667Y-17815000D01*
X88601014Y-17825997D01*
X88457753Y-17869454D01*
X88325724Y-17940026D01*
X88209999Y-18034999D01*
X88186201Y-18063997D01*
X87050199Y-19200000D01*
X58828148Y-19200000D01*
X58802537Y-19138169D01*
X58612663Y-18854002D01*
X58370998Y-18612337D01*
X58086831Y-18422463D01*
X57771081Y-18291675D01*
X57435883Y-18225000D01*
X57094117Y-18225000D01*
X56758919Y-18291675D01*
X56443169Y-18422463D01*
X56159002Y-18612337D01*
X55917337Y-18854002D01*
X55727463Y-19138169D01*
X55596675Y-19453919D01*
X55530000Y-19789117D01*
X55530000Y-20130883D01*
X55596675Y-20466081D01*
X55727463Y-20781831D01*
X55883261Y-21015000D01*
X55848740Y-21015000D01*
X55561842Y-21072068D01*
X55291589Y-21184010D01*
X55048368Y-21346525D01*
X54841525Y-21553368D01*
X54679010Y-21796589D01*
X54567068Y-22066842D01*
X54510000Y-22353740D01*
X54510000Y-22646260D01*
X54567068Y-22933158D01*
X54679010Y-23203411D01*
X54841525Y-23446632D01*
X55048368Y-23653475D01*
X55291589Y-23815990D01*
X55561842Y-23927932D01*
X55848740Y-23985000D01*
X56141260Y-23985000D01*
X56428158Y-23927932D01*
X56698411Y-23815990D01*
X56941632Y-23653475D01*
X57148475Y-23446632D01*
X57310990Y-23203411D01*
X57422932Y-22933158D01*
X57480000Y-22646260D01*
X57480000Y-22353740D01*
X57422932Y-22066842D01*
X57310990Y-21796589D01*
X57243110Y-21695000D01*
X57435883Y-21695000D01*
X57771081Y-21628325D01*
X58086831Y-21497537D01*
X58370998Y-21307663D01*
X58612663Y-21065998D01*
X58802537Y-20781831D01*
X58828148Y-20720000D01*
X59128547Y-20720000D01*
X59028262Y-20820285D01*
X58739893Y-21251859D01*
X58541261Y-21731399D01*
X58440000Y-22240475D01*
X58440000Y-22759525D01*
X58541261Y-23268601D01*
X58739893Y-23748141D01*
X59028262Y-24179715D01*
X59395285Y-24546738D01*
X59826859Y-24835107D01*
X60306399Y-25033739D01*
X60815475Y-25135000D01*
X61334525Y-25135000D01*
X61843601Y-25033739D01*
X62323141Y-24835107D01*
X62754715Y-24546738D01*
X63121738Y-24179715D01*
X63410107Y-23748141D01*
X63608739Y-23268601D01*
X63710000Y-22759525D01*
X63710000Y-22353740D01*
X64670000Y-22353740D01*
X64670000Y-22646260D01*
X64727068Y-22933158D01*
X64839010Y-23203411D01*
X65001525Y-23446632D01*
X65208368Y-23653475D01*
X65451589Y-23815990D01*
X65721842Y-23927932D01*
X66008740Y-23985000D01*
X66301260Y-23985000D01*
X66588158Y-23927932D01*
X66858411Y-23815990D01*
X67101632Y-23653475D01*
X67308475Y-23446632D01*
X67470990Y-23203411D01*
X67582932Y-22933158D01*
X67640000Y-22646260D01*
X67640000Y-22353740D01*
X67582932Y-22066842D01*
X67470990Y-21796589D01*
X67308475Y-21553368D01*
X67101632Y-21346525D01*
X66858411Y-21184010D01*
X66588158Y-21072068D01*
X66301260Y-21015000D01*
X66008740Y-21015000D01*
X65721842Y-21072068D01*
X65451589Y-21184010D01*
X65208368Y-21346525D01*
X65001525Y-21553368D01*
X64839010Y-21796589D01*
X64727068Y-22066842D01*
X64670000Y-22353740D01*
X63710000Y-22353740D01*
X63710000Y-22240475D01*
X63608739Y-21731399D01*
X63410107Y-21251859D01*
X63121738Y-20820285D01*
X63021453Y-20720000D01*
X76705198Y-20720000D01*
X75738998Y-21686201D01*
X75710000Y-21709999D01*
X75686202Y-21738997D01*
X75686201Y-21738998D01*
X75615026Y-21825724D01*
X75544454Y-21957754D01*
X75526061Y-22018390D01*
X75500998Y-22101014D01*
X75490264Y-22209999D01*
X75486324Y-22250000D01*
X75490001Y-22287332D01*
X75490000Y-25712677D01*
X75486324Y-25750000D01*
X75490000Y-25787322D01*
X75490000Y-25787332D01*
X75500997Y-25898985D01*
X75544454Y-26042246D01*
X75615026Y-26174276D01*
X75646258Y-26212332D01*
X75709999Y-26290001D01*
X75739003Y-26313804D01*
X77815188Y-28389990D01*
X35887335Y-28389990D01*
X35850010Y-28386314D01*
X35812685Y-28389990D01*
X35812677Y-28389990D01*
X35701024Y-28400987D01*
X35557763Y-28444444D01*
X35539973Y-28453953D01*
X35476912Y-28427832D01*
X35161033Y-28365000D01*
X34838967Y-28365000D01*
X34523088Y-28427832D01*
X34225537Y-28551082D01*
X33957748Y-28730013D01*
X33730013Y-28957748D01*
X33665075Y-29054935D01*
X33635413Y-29044192D01*
X32679605Y-30000000D01*
X33635413Y-30955808D01*
X33665075Y-30945065D01*
X33730013Y-31042252D01*
X33957748Y-31269987D01*
X34062530Y-31340000D01*
X33381708Y-31340000D01*
X33455808Y-31135413D01*
X32500000Y-30179605D01*
X32485858Y-30193748D01*
X32306253Y-30014143D01*
X32320395Y-30000000D01*
X32306253Y-29985858D01*
X32485858Y-29806253D01*
X32500000Y-29820395D01*
X33455808Y-28864587D01*
X33360044Y-28600186D01*
X33070429Y-28459296D01*
X32758892Y-28377616D01*
X32437405Y-28358282D01*
X32118325Y-28402039D01*
X31813912Y-28507205D01*
X31639956Y-28600186D01*
X31585976Y-28749223D01*
X31530537Y-28645506D01*
X31451185Y-28548815D01*
X31354494Y-28469463D01*
X31244180Y-28410498D01*
X31124482Y-28374188D01*
X31000000Y-28361928D01*
X29000000Y-28361928D01*
X28875518Y-28374188D01*
X28755820Y-28410498D01*
X28645506Y-28469463D01*
X28548815Y-28548815D01*
X28469463Y-28645506D01*
X28410498Y-28755820D01*
X28374188Y-28875518D01*
X28361928Y-29000000D01*
X20815000Y-29000000D01*
X20815000Y-24549198D01*
X20945476Y-24507809D01*
X21000412Y-24484263D01*
X21055764Y-24461449D01*
X21063870Y-24457065D01*
X21320408Y-24316032D01*
X21369753Y-24282245D01*
X21419591Y-24249133D01*
X21426691Y-24243259D01*
X21650949Y-24055084D01*
X21692793Y-24012354D01*
X21735248Y-23970195D01*
X21741072Y-23963053D01*
X21924509Y-23734903D01*
X21957251Y-23684869D01*
X21990714Y-23635258D01*
X21995040Y-23627122D01*
X22130670Y-23367687D01*
X22153082Y-23312215D01*
X22176260Y-23257077D01*
X22178923Y-23248255D01*
X22261578Y-22967417D01*
X22272785Y-22908669D01*
X22284816Y-22850059D01*
X22285715Y-22840888D01*
X22312247Y-22549344D01*
X22311829Y-22489528D01*
X22312247Y-22429712D01*
X22311348Y-22420541D01*
X22280748Y-22129395D01*
X22268710Y-22070753D01*
X22257510Y-22012037D01*
X22254847Y-22003216D01*
X22168279Y-21723560D01*
X22145101Y-21668422D01*
X22122689Y-21612950D01*
X22118362Y-21604814D01*
X21979123Y-21347298D01*
X21945701Y-21297749D01*
X21912920Y-21247653D01*
X21907095Y-21240512D01*
X21720490Y-21014945D01*
X21678054Y-20972804D01*
X21636191Y-20930055D01*
X21629091Y-20924181D01*
X21599443Y-20900000D01*
X25261928Y-20900000D01*
X25261928Y-24100000D01*
X25274188Y-24224482D01*
X25310498Y-24344180D01*
X25369463Y-24454494D01*
X25448815Y-24551185D01*
X25545506Y-24630537D01*
X25655820Y-24689502D01*
X25775518Y-24725812D01*
X25900000Y-24738072D01*
X27900000Y-24738072D01*
X28024482Y-24725812D01*
X28144180Y-24689502D01*
X28254494Y-24630537D01*
X28351185Y-24551185D01*
X28430537Y-24454494D01*
X28489502Y-24344180D01*
X28525812Y-24224482D01*
X28538072Y-24100000D01*
X28538072Y-20900000D01*
X36461928Y-20900000D01*
X36461928Y-24100000D01*
X36474188Y-24224482D01*
X36510498Y-24344180D01*
X36569463Y-24454494D01*
X36648815Y-24551185D01*
X36745506Y-24630537D01*
X36855820Y-24689502D01*
X36975518Y-24725812D01*
X37100000Y-24738072D01*
X39100000Y-24738072D01*
X39224482Y-24725812D01*
X39344180Y-24689502D01*
X39454494Y-24630537D01*
X39551185Y-24551185D01*
X39630537Y-24454494D01*
X39689502Y-24344180D01*
X39725812Y-24224482D01*
X39738072Y-24100000D01*
X39738072Y-20900000D01*
X39725812Y-20775518D01*
X39689502Y-20655820D01*
X39630537Y-20545506D01*
X39551185Y-20448815D01*
X39454494Y-20369463D01*
X39344180Y-20310498D01*
X39224482Y-20274188D01*
X39100000Y-20261928D01*
X37100000Y-20261928D01*
X36975518Y-20274188D01*
X36855820Y-20310498D01*
X36745506Y-20369463D01*
X36648815Y-20448815D01*
X36569463Y-20545506D01*
X36510498Y-20655820D01*
X36474188Y-20775518D01*
X36461928Y-20900000D01*
X28538072Y-20900000D01*
X28525812Y-20775518D01*
X28489502Y-20655820D01*
X28430537Y-20545506D01*
X28351185Y-20448815D01*
X28254494Y-20369463D01*
X28144180Y-20310498D01*
X28024482Y-20274188D01*
X27900000Y-20261928D01*
X25900000Y-20261928D01*
X25775518Y-20274188D01*
X25655820Y-20310498D01*
X25545506Y-20369463D01*
X25448815Y-20448815D01*
X25369463Y-20545506D01*
X25310498Y-20655820D01*
X25274188Y-20775518D01*
X25261928Y-20900000D01*
X21599443Y-20900000D01*
X21402227Y-20739155D01*
X21352408Y-20706055D01*
X21303045Y-20672256D01*
X21294939Y-20667873D01*
X21036458Y-20530436D01*
X20981164Y-20507645D01*
X20926171Y-20484075D01*
X20917368Y-20481350D01*
X20815000Y-20450443D01*
X20815000Y-17249117D01*
X61880000Y-17249117D01*
X61880000Y-17590883D01*
X61946675Y-17926081D01*
X62077463Y-18241831D01*
X62267337Y-18525998D01*
X62509002Y-18767663D01*
X62793169Y-18957537D01*
X63108919Y-19088325D01*
X63444117Y-19155000D01*
X63785883Y-19155000D01*
X64121081Y-19088325D01*
X64436831Y-18957537D01*
X64720998Y-18767663D01*
X64962663Y-18525998D01*
X65152537Y-18241831D01*
X65283325Y-17926081D01*
X65350000Y-17590883D01*
X65350000Y-17249117D01*
X233330000Y-17249117D01*
X233330000Y-17590883D01*
X233396675Y-17926081D01*
X233527463Y-18241831D01*
X233717337Y-18525998D01*
X233959002Y-18767663D01*
X234243169Y-18957537D01*
X234558919Y-19088325D01*
X234894117Y-19155000D01*
X235235883Y-19155000D01*
X235571081Y-19088325D01*
X235886831Y-18957537D01*
X236170998Y-18767663D01*
X236412663Y-18525998D01*
X236602537Y-18241831D01*
X236733325Y-17926081D01*
X236800000Y-17590883D01*
X236800000Y-17249117D01*
X252380000Y-17249117D01*
X252380000Y-17590883D01*
X252446675Y-17926081D01*
X252577463Y-18241831D01*
X252767337Y-18525998D01*
X253009002Y-18767663D01*
X253293169Y-18957537D01*
X253608919Y-19088325D01*
X253944117Y-19155000D01*
X254285883Y-19155000D01*
X254621081Y-19088325D01*
X254936831Y-18957537D01*
X255220998Y-18767663D01*
X255462663Y-18525998D01*
X255652537Y-18241831D01*
X255783325Y-17926081D01*
X255850000Y-17590883D01*
X255850000Y-17249117D01*
X271430000Y-17249117D01*
X271430000Y-17590883D01*
X271496675Y-17926081D01*
X271627463Y-18241831D01*
X271817337Y-18525998D01*
X272059002Y-18767663D01*
X272343169Y-18957537D01*
X272658919Y-19088325D01*
X272994117Y-19155000D01*
X273335883Y-19155000D01*
X273671081Y-19088325D01*
X273986831Y-18957537D01*
X274270998Y-18767663D01*
X274512663Y-18525998D01*
X274702537Y-18241831D01*
X274833325Y-17926081D01*
X274900000Y-17590883D01*
X274900000Y-17249117D01*
X274833325Y-16913919D01*
X274702537Y-16598169D01*
X274512663Y-16314002D01*
X274270998Y-16072337D01*
X273986831Y-15882463D01*
X273671081Y-15751675D01*
X273335883Y-15685000D01*
X272994117Y-15685000D01*
X272658919Y-15751675D01*
X272343169Y-15882463D01*
X272059002Y-16072337D01*
X271817337Y-16314002D01*
X271627463Y-16598169D01*
X271496675Y-16913919D01*
X271430000Y-17249117D01*
X255850000Y-17249117D01*
X255783325Y-16913919D01*
X255652537Y-16598169D01*
X255462663Y-16314002D01*
X255220998Y-16072337D01*
X254936831Y-15882463D01*
X254621081Y-15751675D01*
X254285883Y-15685000D01*
X253944117Y-15685000D01*
X253608919Y-15751675D01*
X253293169Y-15882463D01*
X253009002Y-16072337D01*
X252767337Y-16314002D01*
X252577463Y-16598169D01*
X252446675Y-16913919D01*
X252380000Y-17249117D01*
X236800000Y-17249117D01*
X236733325Y-16913919D01*
X236602537Y-16598169D01*
X236412663Y-16314002D01*
X236170998Y-16072337D01*
X235886831Y-15882463D01*
X235571081Y-15751675D01*
X235235883Y-15685000D01*
X234894117Y-15685000D01*
X234558919Y-15751675D01*
X234243169Y-15882463D01*
X233959002Y-16072337D01*
X233717337Y-16314002D01*
X233527463Y-16598169D01*
X233396675Y-16913919D01*
X233330000Y-17249117D01*
X65350000Y-17249117D01*
X65283325Y-16913919D01*
X65152537Y-16598169D01*
X64962663Y-16314002D01*
X64720998Y-16072337D01*
X64436831Y-15882463D01*
X64121081Y-15751675D01*
X63785883Y-15685000D01*
X63444117Y-15685000D01*
X63108919Y-15751675D01*
X62793169Y-15882463D01*
X62509002Y-16072337D01*
X62267337Y-16314002D01*
X62077463Y-16598169D01*
X61946675Y-16913919D01*
X61880000Y-17249117D01*
X20815000Y-17249117D01*
X20815000Y-17007278D01*
X20881714Y-16326874D01*
X21069943Y-15703428D01*
X21263731Y-15338967D01*
X28365000Y-15338967D01*
X28365000Y-15661033D01*
X28427832Y-15976912D01*
X28551082Y-16274463D01*
X28730013Y-16542252D01*
X28957748Y-16769987D01*
X29225537Y-16948918D01*
X29523088Y-17072168D01*
X29838967Y-17135000D01*
X30161033Y-17135000D01*
X30476912Y-17072168D01*
X30774463Y-16948918D01*
X31042252Y-16769987D01*
X31269987Y-16542252D01*
X31448918Y-16274463D01*
X31572168Y-15976912D01*
X31635000Y-15661033D01*
X31635000Y-15338967D01*
X33365000Y-15338967D01*
X33365000Y-15661033D01*
X33427832Y-15976912D01*
X33551082Y-16274463D01*
X33730013Y-16542252D01*
X33957748Y-16769987D01*
X34225537Y-16948918D01*
X34523088Y-17072168D01*
X34838967Y-17135000D01*
X35161033Y-17135000D01*
X35476912Y-17072168D01*
X35774463Y-16948918D01*
X36042252Y-16769987D01*
X36269987Y-16542252D01*
X36448918Y-16274463D01*
X36572168Y-15976912D01*
X36635000Y-15661033D01*
X36635000Y-15338967D01*
X36572168Y-15023088D01*
X36448918Y-14725537D01*
X36269987Y-14457748D01*
X36042252Y-14230013D01*
X35774463Y-14051082D01*
X35476912Y-13927832D01*
X35161033Y-13865000D01*
X34838967Y-13865000D01*
X34523088Y-13927832D01*
X34225537Y-14051082D01*
X33957748Y-14230013D01*
X33730013Y-14457748D01*
X33551082Y-14725537D01*
X33427832Y-15023088D01*
X33365000Y-15338967D01*
X31635000Y-15338967D01*
X31572168Y-15023088D01*
X31448918Y-14725537D01*
X31269987Y-14457748D01*
X31042252Y-14230013D01*
X30774463Y-14051082D01*
X30476912Y-13927832D01*
X30161033Y-13865000D01*
X29838967Y-13865000D01*
X29523088Y-13927832D01*
X29225537Y-14051082D01*
X28957748Y-14230013D01*
X28730013Y-14457748D01*
X28551082Y-14725537D01*
X28427832Y-15023088D01*
X28365000Y-15338967D01*
X21263731Y-15338967D01*
X21375681Y-15128421D01*
X21787279Y-14623753D01*
X22289067Y-14208638D01*
X22861924Y-13898895D01*
X23484039Y-13706318D01*
X24162584Y-13635000D01*
X276117722Y-13635000D01*
X276798126Y-13701714D01*
G36*
X97990000Y-22064802D02*
G01*
X97990001Y-26962668D01*
X97986324Y-27000000D01*
X98000998Y-27148985D01*
X98044454Y-27292246D01*
X98115026Y-27424276D01*
X98186201Y-27511002D01*
X98210000Y-27540001D01*
X98238998Y-27563799D01*
X98615179Y-27939980D01*
X79514782Y-27939980D01*
X77010000Y-25435199D01*
X77010000Y-22564801D01*
X77680307Y-21894494D01*
X77706315Y-21926185D01*
X77803006Y-22005537D01*
X77913320Y-22064502D01*
X78033018Y-22100812D01*
X78157500Y-22113072D01*
X79657500Y-22113072D01*
X79781982Y-22100812D01*
X79901680Y-22064502D01*
X80011994Y-22005537D01*
X80108685Y-21926185D01*
X80188037Y-21829494D01*
X80247002Y-21719180D01*
X80283312Y-21599482D01*
X80295572Y-21475000D01*
X80295572Y-20720000D01*
X82419428Y-20720000D01*
X82419428Y-21475000D01*
X82431688Y-21599482D01*
X82467998Y-21719180D01*
X82526963Y-21829494D01*
X82606315Y-21926185D01*
X82684074Y-21990000D01*
X81369822Y-21990000D01*
X81332499Y-21986324D01*
X81295176Y-21990000D01*
X81295167Y-21990000D01*
X81183514Y-22000997D01*
X81040253Y-22044454D01*
X80908224Y-22115026D01*
X80792499Y-22209999D01*
X80768701Y-22238997D01*
X79915053Y-23092646D01*
X79901680Y-23085498D01*
X79781982Y-23049188D01*
X79657500Y-23036928D01*
X78157500Y-23036928D01*
X78033018Y-23049188D01*
X77913320Y-23085498D01*
X77803006Y-23144463D01*
X77706315Y-23223815D01*
X77626963Y-23320506D01*
X77567998Y-23430820D01*
X77531688Y-23550518D01*
X77519428Y-23675000D01*
X77519428Y-24675000D01*
X77531688Y-24799482D01*
X77567998Y-24919180D01*
X77626963Y-25029494D01*
X77706315Y-25126185D01*
X77803006Y-25205537D01*
X77913320Y-25264502D01*
X78033018Y-25300812D01*
X78157500Y-25313072D01*
X79657500Y-25313072D01*
X79781982Y-25300812D01*
X79901680Y-25264502D01*
X80011994Y-25205537D01*
X80108685Y-25126185D01*
X80188037Y-25029494D01*
X80247002Y-24919180D01*
X80270134Y-24842923D01*
X80331776Y-24809974D01*
X80447501Y-24715001D01*
X80471304Y-24685997D01*
X80482301Y-24675000D01*
X82419428Y-24675000D01*
X82431688Y-24799482D01*
X82467998Y-24919180D01*
X82526963Y-25029494D01*
X82606315Y-25126185D01*
X82703006Y-25205537D01*
X82813320Y-25264502D01*
X82933018Y-25300812D01*
X83057500Y-25313072D01*
X83521750Y-25310000D01*
X83680500Y-25151250D01*
X83680500Y-24302000D01*
X83934500Y-24302000D01*
X83934500Y-25151250D01*
X84093250Y-25310000D01*
X84557500Y-25313072D01*
X84681982Y-25300812D01*
X84801680Y-25264502D01*
X84911994Y-25205537D01*
X85008685Y-25126185D01*
X85088037Y-25029494D01*
X85147002Y-24919180D01*
X85183312Y-24799482D01*
X85195572Y-24675000D01*
X85192500Y-24460750D01*
X85033750Y-24302000D01*
X83934500Y-24302000D01*
X83680500Y-24302000D01*
X82581250Y-24302000D01*
X82422500Y-24460750D01*
X82419428Y-24675000D01*
X80482301Y-24675000D01*
X81647302Y-23510000D01*
X82443979Y-23510000D01*
X82431688Y-23550518D01*
X82419428Y-23675000D01*
X82422500Y-23889250D01*
X82581250Y-24048000D01*
X83680500Y-24048000D01*
X83680500Y-24028000D01*
X83934500Y-24028000D01*
X83934500Y-24048000D01*
X85033750Y-24048000D01*
X85192500Y-23889250D01*
X85195572Y-23675000D01*
X85183312Y-23550518D01*
X85171021Y-23510000D01*
X88043979Y-23510000D01*
X88031688Y-23550518D01*
X88019428Y-23675000D01*
X88019428Y-24675000D01*
X88031688Y-24799482D01*
X88067998Y-24919180D01*
X88126963Y-25029494D01*
X88206315Y-25126185D01*
X88303006Y-25205537D01*
X88413320Y-25264502D01*
X88533018Y-25300812D01*
X88657500Y-25313072D01*
X90157500Y-25313072D01*
X90281982Y-25300812D01*
X90401680Y-25264502D01*
X90511994Y-25205537D01*
X90608685Y-25126185D01*
X90688037Y-25029494D01*
X90747002Y-24919180D01*
X90783312Y-24799482D01*
X90795572Y-24675000D01*
X92919428Y-24675000D01*
X92931688Y-24799482D01*
X92967998Y-24919180D01*
X93026963Y-25029494D01*
X93106315Y-25126185D01*
X93203006Y-25205537D01*
X93313320Y-25264502D01*
X93433018Y-25300812D01*
X93557500Y-25313072D01*
X94021750Y-25310000D01*
X94180500Y-25151250D01*
X94180500Y-24302000D01*
X94434500Y-24302000D01*
X94434500Y-25151250D01*
X94593250Y-25310000D01*
X95057500Y-25313072D01*
X95181982Y-25300812D01*
X95301680Y-25264502D01*
X95411994Y-25205537D01*
X95508685Y-25126185D01*
X95588037Y-25029494D01*
X95647002Y-24919180D01*
X95683312Y-24799482D01*
X95695572Y-24675000D01*
X95692500Y-24460750D01*
X95533750Y-24302000D01*
X94434500Y-24302000D01*
X94180500Y-24302000D01*
X93081250Y-24302000D01*
X92922500Y-24460750D01*
X92919428Y-24675000D01*
X90795572Y-24675000D01*
X90795572Y-23675000D01*
X92919428Y-23675000D01*
X92922500Y-23889250D01*
X93081250Y-24048000D01*
X94180500Y-24048000D01*
X94180500Y-23198750D01*
X94434500Y-23198750D01*
X94434500Y-24048000D01*
X95533750Y-24048000D01*
X95692500Y-23889250D01*
X95695572Y-23675000D01*
X95683312Y-23550518D01*
X95647002Y-23430820D01*
X95588037Y-23320506D01*
X95508685Y-23223815D01*
X95411994Y-23144463D01*
X95301680Y-23085498D01*
X95181982Y-23049188D01*
X95057500Y-23036928D01*
X94593250Y-23040000D01*
X94434500Y-23198750D01*
X94180500Y-23198750D01*
X94021750Y-23040000D01*
X93557500Y-23036928D01*
X93433018Y-23049188D01*
X93313320Y-23085498D01*
X93203006Y-23144463D01*
X93106315Y-23223815D01*
X93026963Y-23320506D01*
X92967998Y-23430820D01*
X92931688Y-23550518D01*
X92919428Y-23675000D01*
X90795572Y-23675000D01*
X90783312Y-23550518D01*
X90771021Y-23510000D01*
X91495178Y-23510000D01*
X91532500Y-23513676D01*
X91569822Y-23510000D01*
X91569833Y-23510000D01*
X91681486Y-23499003D01*
X91824747Y-23455546D01*
X91956776Y-23384974D01*
X92072501Y-23290001D01*
X92096304Y-23260997D01*
X93299948Y-22057354D01*
X93313320Y-22064502D01*
X93433018Y-22100812D01*
X93557500Y-22113072D01*
X95057500Y-22113072D01*
X95181982Y-22100812D01*
X95301680Y-22064502D01*
X95411994Y-22005537D01*
X95508685Y-21926185D01*
X95588037Y-21829494D01*
X95647002Y-21719180D01*
X95683312Y-21599482D01*
X95695572Y-21475000D01*
X95695572Y-20475000D01*
X95683312Y-20350518D01*
X95647002Y-20230820D01*
X95588037Y-20120506D01*
X95508685Y-20023815D01*
X95491851Y-20010000D01*
X95935199Y-20010000D01*
X97990000Y-22064802D01*
X97990000Y-22064802D01*
G37*
X97990000Y-22064802D02*
X97990001Y-26962668D01*
X97986324Y-27000000D01*
X98000998Y-27148985D01*
X98044454Y-27292246D01*
X98115026Y-27424276D01*
X98186201Y-27511002D01*
X98210000Y-27540001D01*
X98238998Y-27563799D01*
X98615179Y-27939980D01*
X79514782Y-27939980D01*
X77010000Y-25435199D01*
X77010000Y-22564801D01*
X77680307Y-21894494D01*
X77706315Y-21926185D01*
X77803006Y-22005537D01*
X77913320Y-22064502D01*
X78033018Y-22100812D01*
X78157500Y-22113072D01*
X79657500Y-22113072D01*
X79781982Y-22100812D01*
X79901680Y-22064502D01*
X80011994Y-22005537D01*
X80108685Y-21926185D01*
X80188037Y-21829494D01*
X80247002Y-21719180D01*
X80283312Y-21599482D01*
X80295572Y-21475000D01*
X80295572Y-20720000D01*
X82419428Y-20720000D01*
X82419428Y-21475000D01*
X82431688Y-21599482D01*
X82467998Y-21719180D01*
X82526963Y-21829494D01*
X82606315Y-21926185D01*
X82684074Y-21990000D01*
X81369822Y-21990000D01*
X81332499Y-21986324D01*
X81295176Y-21990000D01*
X81295167Y-21990000D01*
X81183514Y-22000997D01*
X81040253Y-22044454D01*
X80908224Y-22115026D01*
X80792499Y-22209999D01*
X80768701Y-22238997D01*
X79915053Y-23092646D01*
X79901680Y-23085498D01*
X79781982Y-23049188D01*
X79657500Y-23036928D01*
X78157500Y-23036928D01*
X78033018Y-23049188D01*
X77913320Y-23085498D01*
X77803006Y-23144463D01*
X77706315Y-23223815D01*
X77626963Y-23320506D01*
X77567998Y-23430820D01*
X77531688Y-23550518D01*
X77519428Y-23675000D01*
X77519428Y-24675000D01*
X77531688Y-24799482D01*
X77567998Y-24919180D01*
X77626963Y-25029494D01*
X77706315Y-25126185D01*
X77803006Y-25205537D01*
X77913320Y-25264502D01*
X78033018Y-25300812D01*
X78157500Y-25313072D01*
X79657500Y-25313072D01*
X79781982Y-25300812D01*
X79901680Y-25264502D01*
X80011994Y-25205537D01*
X80108685Y-25126185D01*
X80188037Y-25029494D01*
X80247002Y-24919180D01*
X80270134Y-24842923D01*
X80331776Y-24809974D01*
X80447501Y-24715001D01*
X80471304Y-24685997D01*
X80482301Y-24675000D01*
X82419428Y-24675000D01*
X82431688Y-24799482D01*
X82467998Y-24919180D01*
X82526963Y-25029494D01*
X82606315Y-25126185D01*
X82703006Y-25205537D01*
X82813320Y-25264502D01*
X82933018Y-25300812D01*
X83057500Y-25313072D01*
X83521750Y-25310000D01*
X83680500Y-25151250D01*
X83680500Y-24302000D01*
X83934500Y-24302000D01*
X83934500Y-25151250D01*
X84093250Y-25310000D01*
X84557500Y-25313072D01*
X84681982Y-25300812D01*
X84801680Y-25264502D01*
X84911994Y-25205537D01*
X85008685Y-25126185D01*
X85088037Y-25029494D01*
X85147002Y-24919180D01*
X85183312Y-24799482D01*
X85195572Y-24675000D01*
X85192500Y-24460750D01*
X85033750Y-24302000D01*
X83934500Y-24302000D01*
X83680500Y-24302000D01*
X82581250Y-24302000D01*
X82422500Y-24460750D01*
X82419428Y-24675000D01*
X80482301Y-24675000D01*
X81647302Y-23510000D01*
X82443979Y-23510000D01*
X82431688Y-23550518D01*
X82419428Y-23675000D01*
X82422500Y-23889250D01*
X82581250Y-24048000D01*
X83680500Y-24048000D01*
X83680500Y-24028000D01*
X83934500Y-24028000D01*
X83934500Y-24048000D01*
X85033750Y-24048000D01*
X85192500Y-23889250D01*
X85195572Y-23675000D01*
X85183312Y-23550518D01*
X85171021Y-23510000D01*
X88043979Y-23510000D01*
X88031688Y-23550518D01*
X88019428Y-23675000D01*
X88019428Y-24675000D01*
X88031688Y-24799482D01*
X88067998Y-24919180D01*
X88126963Y-25029494D01*
X88206315Y-25126185D01*
X88303006Y-25205537D01*
X88413320Y-25264502D01*
X88533018Y-25300812D01*
X88657500Y-25313072D01*
X90157500Y-25313072D01*
X90281982Y-25300812D01*
X90401680Y-25264502D01*
X90511994Y-25205537D01*
X90608685Y-25126185D01*
X90688037Y-25029494D01*
X90747002Y-24919180D01*
X90783312Y-24799482D01*
X90795572Y-24675000D01*
X92919428Y-24675000D01*
X92931688Y-24799482D01*
X92967998Y-24919180D01*
X93026963Y-25029494D01*
X93106315Y-25126185D01*
X93203006Y-25205537D01*
X93313320Y-25264502D01*
X93433018Y-25300812D01*
X93557500Y-25313072D01*
X94021750Y-25310000D01*
X94180500Y-25151250D01*
X94180500Y-24302000D01*
X94434500Y-24302000D01*
X94434500Y-25151250D01*
X94593250Y-25310000D01*
X95057500Y-25313072D01*
X95181982Y-25300812D01*
X95301680Y-25264502D01*
X95411994Y-25205537D01*
X95508685Y-25126185D01*
X95588037Y-25029494D01*
X95647002Y-24919180D01*
X95683312Y-24799482D01*
X95695572Y-24675000D01*
X95692500Y-24460750D01*
X95533750Y-24302000D01*
X94434500Y-24302000D01*
X94180500Y-24302000D01*
X93081250Y-24302000D01*
X92922500Y-24460750D01*
X92919428Y-24675000D01*
X90795572Y-24675000D01*
X90795572Y-23675000D01*
X92919428Y-23675000D01*
X92922500Y-23889250D01*
X93081250Y-24048000D01*
X94180500Y-24048000D01*
X94180500Y-23198750D01*
X94434500Y-23198750D01*
X94434500Y-24048000D01*
X95533750Y-24048000D01*
X95692500Y-23889250D01*
X95695572Y-23675000D01*
X95683312Y-23550518D01*
X95647002Y-23430820D01*
X95588037Y-23320506D01*
X95508685Y-23223815D01*
X95411994Y-23144463D01*
X95301680Y-23085498D01*
X95181982Y-23049188D01*
X95057500Y-23036928D01*
X94593250Y-23040000D01*
X94434500Y-23198750D01*
X94180500Y-23198750D01*
X94021750Y-23040000D01*
X93557500Y-23036928D01*
X93433018Y-23049188D01*
X93313320Y-23085498D01*
X93203006Y-23144463D01*
X93106315Y-23223815D01*
X93026963Y-23320506D01*
X92967998Y-23430820D01*
X92931688Y-23550518D01*
X92919428Y-23675000D01*
X90795572Y-23675000D01*
X90783312Y-23550518D01*
X90771021Y-23510000D01*
X91495178Y-23510000D01*
X91532500Y-23513676D01*
X91569822Y-23510000D01*
X91569833Y-23510000D01*
X91681486Y-23499003D01*
X91824747Y-23455546D01*
X91956776Y-23384974D01*
X92072501Y-23290001D01*
X92096304Y-23260997D01*
X93299948Y-22057354D01*
X93313320Y-22064502D01*
X93433018Y-22100812D01*
X93557500Y-22113072D01*
X95057500Y-22113072D01*
X95181982Y-22100812D01*
X95301680Y-22064502D01*
X95411994Y-22005537D01*
X95508685Y-21926185D01*
X95588037Y-21829494D01*
X95647002Y-21719180D01*
X95683312Y-21599482D01*
X95695572Y-21475000D01*
X95695572Y-20475000D01*
X95683312Y-20350518D01*
X95647002Y-20230820D01*
X95588037Y-20120506D01*
X95508685Y-20023815D01*
X95491851Y-20010000D01*
X95935199Y-20010000D01*
X97990000Y-22064802D01*
M02*
