G04 #@! TF.GenerationSoftware,KiCad,Pcbnew,(5.1.2)-1*
G04 #@! TF.CreationDate,2021-08-14T16:28:18-07:00*
G04 #@! TF.ProjectId,blvdtopsmd,626c7664-746f-4707-936d-642e6b696361,rev?*
G04 #@! TF.SameCoordinates,Original*
G04 #@! TF.FileFunction,Soldermask,Top*
G04 #@! TF.FilePolarity,Negative*
%FSLAX46Y46*%
G04 Gerber Fmt 4.6, Leading zero omitted, Abs format (unit mm)*
G04 Created by KiCad (PCBNEW (5.1.2)-1) date 2021-08-14 16:28:18*
%MOMM*%
%LPD*%
G04 APERTURE LIST*
%ADD10C,0.100000*%
G04 APERTURE END LIST*
D10*
G36*
X35306564Y-28989389D02*
G01*
X35497833Y-29068615D01*
X35497835Y-29068616D01*
X35669973Y-29183635D01*
X35816365Y-29330027D01*
X35931385Y-29502167D01*
X36010611Y-29693436D01*
X36051000Y-29896484D01*
X36051000Y-30103516D01*
X36010611Y-30306564D01*
X35931385Y-30497833D01*
X35931384Y-30497835D01*
X35816365Y-30669973D01*
X35669973Y-30816365D01*
X35497835Y-30931384D01*
X35497834Y-30931385D01*
X35497833Y-30931385D01*
X35306564Y-31010611D01*
X35103516Y-31051000D01*
X34896484Y-31051000D01*
X34693436Y-31010611D01*
X34502167Y-30931385D01*
X34502166Y-30931385D01*
X34502165Y-30931384D01*
X34330027Y-30816365D01*
X34183635Y-30669973D01*
X34068616Y-30497835D01*
X34068615Y-30497833D01*
X33989389Y-30306564D01*
X33949000Y-30103516D01*
X33949000Y-29896484D01*
X33989389Y-29693436D01*
X34068615Y-29502167D01*
X34183635Y-29330027D01*
X34330027Y-29183635D01*
X34502165Y-29068616D01*
X34502167Y-29068615D01*
X34693436Y-28989389D01*
X34896484Y-28949000D01*
X35103516Y-28949000D01*
X35306564Y-28989389D01*
X35306564Y-28989389D01*
G37*
G36*
X32806564Y-28989389D02*
G01*
X32997833Y-29068615D01*
X32997835Y-29068616D01*
X33169973Y-29183635D01*
X33316365Y-29330027D01*
X33431385Y-29502167D01*
X33510611Y-29693436D01*
X33551000Y-29896484D01*
X33551000Y-30103516D01*
X33510611Y-30306564D01*
X33431385Y-30497833D01*
X33431384Y-30497835D01*
X33316365Y-30669973D01*
X33169973Y-30816365D01*
X32997835Y-30931384D01*
X32997834Y-30931385D01*
X32997833Y-30931385D01*
X32806564Y-31010611D01*
X32603516Y-31051000D01*
X32396484Y-31051000D01*
X32193436Y-31010611D01*
X32002167Y-30931385D01*
X32002166Y-30931385D01*
X32002165Y-30931384D01*
X31830027Y-30816365D01*
X31683635Y-30669973D01*
X31568616Y-30497835D01*
X31568615Y-30497833D01*
X31489389Y-30306564D01*
X31449000Y-30103516D01*
X31449000Y-29896484D01*
X31489389Y-29693436D01*
X31568615Y-29502167D01*
X31683635Y-29330027D01*
X31830027Y-29183635D01*
X32002165Y-29068616D01*
X32002167Y-29068615D01*
X32193436Y-28989389D01*
X32396484Y-28949000D01*
X32603516Y-28949000D01*
X32806564Y-28989389D01*
X32806564Y-28989389D01*
G37*
G36*
X31051000Y-31051000D02*
G01*
X28949000Y-31051000D01*
X28949000Y-28949000D01*
X31051000Y-28949000D01*
X31051000Y-31051000D01*
X31051000Y-31051000D01*
G37*
G36*
X214660787Y-19085462D02*
G01*
X214660790Y-19085463D01*
X214660789Y-19085463D01*
X215307029Y-19353144D01*
X215888631Y-19741758D01*
X216383242Y-20236369D01*
X216771856Y-20817971D01*
X216838972Y-20980004D01*
X217039538Y-21464213D01*
X217176000Y-22150256D01*
X217176000Y-22849744D01*
X217039538Y-23535787D01*
X217039537Y-23535789D01*
X216771856Y-24182029D01*
X216383242Y-24763631D01*
X215888631Y-25258242D01*
X215307029Y-25646856D01*
X214850068Y-25836135D01*
X214660787Y-25914538D01*
X213974744Y-26051000D01*
X213275256Y-26051000D01*
X212589213Y-25914538D01*
X212399932Y-25836135D01*
X211942971Y-25646856D01*
X211361369Y-25258242D01*
X210866758Y-24763631D01*
X210478144Y-24182029D01*
X210210463Y-23535789D01*
X210210462Y-23535787D01*
X210074000Y-22849744D01*
X210074000Y-22150256D01*
X210210462Y-21464213D01*
X210411028Y-20980004D01*
X210478144Y-20817971D01*
X210866758Y-20236369D01*
X211361369Y-19741758D01*
X211942971Y-19353144D01*
X212589211Y-19085463D01*
X212589210Y-19085463D01*
X212589213Y-19085462D01*
X213275256Y-18949000D01*
X213974744Y-18949000D01*
X214660787Y-19085462D01*
X214660787Y-19085462D01*
G37*
G36*
X119410787Y-19085462D02*
G01*
X119410790Y-19085463D01*
X119410789Y-19085463D01*
X120057029Y-19353144D01*
X120638631Y-19741758D01*
X121133242Y-20236369D01*
X121521856Y-20817971D01*
X121588972Y-20980004D01*
X121789538Y-21464213D01*
X121926000Y-22150256D01*
X121926000Y-22849744D01*
X121789538Y-23535787D01*
X121789537Y-23535789D01*
X121521856Y-24182029D01*
X121133242Y-24763631D01*
X120638631Y-25258242D01*
X120057029Y-25646856D01*
X119600068Y-25836135D01*
X119410787Y-25914538D01*
X118724744Y-26051000D01*
X118025256Y-26051000D01*
X117339213Y-25914538D01*
X117149932Y-25836135D01*
X116692971Y-25646856D01*
X116111369Y-25258242D01*
X115616758Y-24763631D01*
X115228144Y-24182029D01*
X114960463Y-23535789D01*
X114960462Y-23535787D01*
X114824000Y-22849744D01*
X114824000Y-22150256D01*
X114960462Y-21464213D01*
X115161028Y-20980004D01*
X115228144Y-20817971D01*
X115616758Y-20236369D01*
X116111369Y-19741758D01*
X116692971Y-19353144D01*
X117339211Y-19085463D01*
X117339210Y-19085463D01*
X117339213Y-19085462D01*
X118025256Y-18949000D01*
X118724744Y-18949000D01*
X119410787Y-19085462D01*
X119410787Y-19085462D01*
G37*
G36*
X90208500Y-24726000D02*
G01*
X88606500Y-24726000D01*
X88606500Y-23624000D01*
X90208500Y-23624000D01*
X90208500Y-24726000D01*
X90208500Y-24726000D01*
G37*
G36*
X181896213Y-23277502D02*
G01*
X181967321Y-23284505D01*
X182104172Y-23326019D01*
X182104175Y-23326020D01*
X182230294Y-23393432D01*
X182340843Y-23484157D01*
X182431568Y-23594706D01*
X182498980Y-23720825D01*
X182498981Y-23720828D01*
X182540495Y-23857679D01*
X182554512Y-24000000D01*
X182540495Y-24142321D01*
X182498981Y-24279172D01*
X182498980Y-24279175D01*
X182431568Y-24405294D01*
X182340843Y-24515843D01*
X182230294Y-24606568D01*
X182104175Y-24673980D01*
X182104172Y-24673981D01*
X181967321Y-24715495D01*
X181896213Y-24722498D01*
X181860660Y-24726000D01*
X181789340Y-24726000D01*
X181753787Y-24722498D01*
X181682679Y-24715495D01*
X181545828Y-24673981D01*
X181545825Y-24673980D01*
X181419706Y-24606568D01*
X181309157Y-24515843D01*
X181218432Y-24405294D01*
X181151020Y-24279175D01*
X181151019Y-24279172D01*
X181109505Y-24142321D01*
X181095488Y-24000000D01*
X181109505Y-23857679D01*
X181151019Y-23720828D01*
X181151020Y-23720825D01*
X181218432Y-23594706D01*
X181309157Y-23484157D01*
X181419706Y-23393432D01*
X181545825Y-23326020D01*
X181545828Y-23326019D01*
X181682679Y-23284505D01*
X181753787Y-23277502D01*
X181789340Y-23274000D01*
X181860660Y-23274000D01*
X181896213Y-23277502D01*
X181896213Y-23277502D01*
G37*
G36*
X95108500Y-24726000D02*
G01*
X93506500Y-24726000D01*
X93506500Y-23624000D01*
X95108500Y-23624000D01*
X95108500Y-24726000D01*
X95108500Y-24726000D01*
G37*
G36*
X79708500Y-24726000D02*
G01*
X78106500Y-24726000D01*
X78106500Y-23624000D01*
X79708500Y-23624000D01*
X79708500Y-24726000D01*
X79708500Y-24726000D01*
G37*
G36*
X84608500Y-24726000D02*
G01*
X83006500Y-24726000D01*
X83006500Y-23624000D01*
X84608500Y-23624000D01*
X84608500Y-24726000D01*
X84608500Y-24726000D01*
G37*
G36*
X171896213Y-23277502D02*
G01*
X171967321Y-23284505D01*
X172104172Y-23326019D01*
X172104175Y-23326020D01*
X172230294Y-23393432D01*
X172340843Y-23484157D01*
X172431568Y-23594706D01*
X172498980Y-23720825D01*
X172498981Y-23720828D01*
X172540495Y-23857679D01*
X172554512Y-24000000D01*
X172540495Y-24142321D01*
X172498981Y-24279172D01*
X172498980Y-24279175D01*
X172431568Y-24405294D01*
X172340843Y-24515843D01*
X172230294Y-24606568D01*
X172104175Y-24673980D01*
X172104172Y-24673981D01*
X171967321Y-24715495D01*
X171896213Y-24722498D01*
X171860660Y-24726000D01*
X171789340Y-24726000D01*
X171753787Y-24722498D01*
X171682679Y-24715495D01*
X171545828Y-24673981D01*
X171545825Y-24673980D01*
X171419706Y-24606568D01*
X171309157Y-24515843D01*
X171218432Y-24405294D01*
X171151020Y-24279175D01*
X171151019Y-24279172D01*
X171109505Y-24142321D01*
X171095488Y-24000000D01*
X171109505Y-23857679D01*
X171151019Y-23720828D01*
X171151020Y-23720825D01*
X171218432Y-23594706D01*
X171309157Y-23484157D01*
X171419706Y-23393432D01*
X171545825Y-23326020D01*
X171545828Y-23326019D01*
X171682679Y-23284505D01*
X171753787Y-23277502D01*
X171789340Y-23274000D01*
X171860660Y-23274000D01*
X171896213Y-23277502D01*
X171896213Y-23277502D01*
G37*
G36*
X173896213Y-23277502D02*
G01*
X173967321Y-23284505D01*
X174104172Y-23326019D01*
X174104175Y-23326020D01*
X174230294Y-23393432D01*
X174340843Y-23484157D01*
X174431568Y-23594706D01*
X174498980Y-23720825D01*
X174498981Y-23720828D01*
X174540495Y-23857679D01*
X174554512Y-24000000D01*
X174540495Y-24142321D01*
X174498981Y-24279172D01*
X174498980Y-24279175D01*
X174431568Y-24405294D01*
X174340843Y-24515843D01*
X174230294Y-24606568D01*
X174104175Y-24673980D01*
X174104172Y-24673981D01*
X173967321Y-24715495D01*
X173896213Y-24722498D01*
X173860660Y-24726000D01*
X173789340Y-24726000D01*
X173753787Y-24722498D01*
X173682679Y-24715495D01*
X173545828Y-24673981D01*
X173545825Y-24673980D01*
X173419706Y-24606568D01*
X173309157Y-24515843D01*
X173218432Y-24405294D01*
X173151020Y-24279175D01*
X173151019Y-24279172D01*
X173109505Y-24142321D01*
X173095488Y-24000000D01*
X173109505Y-23857679D01*
X173151019Y-23720828D01*
X173151020Y-23720825D01*
X173218432Y-23594706D01*
X173309157Y-23484157D01*
X173419706Y-23393432D01*
X173545825Y-23326020D01*
X173545828Y-23326019D01*
X173682679Y-23284505D01*
X173753787Y-23277502D01*
X173789340Y-23274000D01*
X173860660Y-23274000D01*
X173896213Y-23277502D01*
X173896213Y-23277502D01*
G37*
G36*
X175896213Y-23277502D02*
G01*
X175967321Y-23284505D01*
X176104172Y-23326019D01*
X176104175Y-23326020D01*
X176230294Y-23393432D01*
X176340843Y-23484157D01*
X176431568Y-23594706D01*
X176498980Y-23720825D01*
X176498981Y-23720828D01*
X176540495Y-23857679D01*
X176554512Y-24000000D01*
X176540495Y-24142321D01*
X176498981Y-24279172D01*
X176498980Y-24279175D01*
X176431568Y-24405294D01*
X176340843Y-24515843D01*
X176230294Y-24606568D01*
X176104175Y-24673980D01*
X176104172Y-24673981D01*
X175967321Y-24715495D01*
X175896213Y-24722498D01*
X175860660Y-24726000D01*
X175789340Y-24726000D01*
X175753787Y-24722498D01*
X175682679Y-24715495D01*
X175545828Y-24673981D01*
X175545825Y-24673980D01*
X175419706Y-24606568D01*
X175309157Y-24515843D01*
X175218432Y-24405294D01*
X175151020Y-24279175D01*
X175151019Y-24279172D01*
X175109505Y-24142321D01*
X175095488Y-24000000D01*
X175109505Y-23857679D01*
X175151019Y-23720828D01*
X175151020Y-23720825D01*
X175218432Y-23594706D01*
X175309157Y-23484157D01*
X175419706Y-23393432D01*
X175545825Y-23326020D01*
X175545828Y-23326019D01*
X175682679Y-23284505D01*
X175753787Y-23277502D01*
X175789340Y-23274000D01*
X175860660Y-23274000D01*
X175896213Y-23277502D01*
X175896213Y-23277502D01*
G37*
G36*
X177896213Y-23277502D02*
G01*
X177967321Y-23284505D01*
X178104172Y-23326019D01*
X178104175Y-23326020D01*
X178230294Y-23393432D01*
X178340843Y-23484157D01*
X178431568Y-23594706D01*
X178498980Y-23720825D01*
X178498981Y-23720828D01*
X178540495Y-23857679D01*
X178554512Y-24000000D01*
X178540495Y-24142321D01*
X178498981Y-24279172D01*
X178498980Y-24279175D01*
X178431568Y-24405294D01*
X178340843Y-24515843D01*
X178230294Y-24606568D01*
X178104175Y-24673980D01*
X178104172Y-24673981D01*
X177967321Y-24715495D01*
X177896213Y-24722498D01*
X177860660Y-24726000D01*
X177789340Y-24726000D01*
X177753787Y-24722498D01*
X177682679Y-24715495D01*
X177545828Y-24673981D01*
X177545825Y-24673980D01*
X177419706Y-24606568D01*
X177309157Y-24515843D01*
X177218432Y-24405294D01*
X177151020Y-24279175D01*
X177151019Y-24279172D01*
X177109505Y-24142321D01*
X177095488Y-24000000D01*
X177109505Y-23857679D01*
X177151019Y-23720828D01*
X177151020Y-23720825D01*
X177218432Y-23594706D01*
X177309157Y-23484157D01*
X177419706Y-23393432D01*
X177545825Y-23326020D01*
X177545828Y-23326019D01*
X177682679Y-23284505D01*
X177753787Y-23277502D01*
X177789340Y-23274000D01*
X177860660Y-23274000D01*
X177896213Y-23277502D01*
X177896213Y-23277502D01*
G37*
G36*
X179896213Y-23277502D02*
G01*
X179967321Y-23284505D01*
X180104172Y-23326019D01*
X180104175Y-23326020D01*
X180230294Y-23393432D01*
X180340843Y-23484157D01*
X180431568Y-23594706D01*
X180498980Y-23720825D01*
X180498981Y-23720828D01*
X180540495Y-23857679D01*
X180554512Y-24000000D01*
X180540495Y-24142321D01*
X180498981Y-24279172D01*
X180498980Y-24279175D01*
X180431568Y-24405294D01*
X180340843Y-24515843D01*
X180230294Y-24606568D01*
X180104175Y-24673980D01*
X180104172Y-24673981D01*
X179967321Y-24715495D01*
X179896213Y-24722498D01*
X179860660Y-24726000D01*
X179789340Y-24726000D01*
X179753787Y-24722498D01*
X179682679Y-24715495D01*
X179545828Y-24673981D01*
X179545825Y-24673980D01*
X179419706Y-24606568D01*
X179309157Y-24515843D01*
X179218432Y-24405294D01*
X179151020Y-24279175D01*
X179151019Y-24279172D01*
X179109505Y-24142321D01*
X179095488Y-24000000D01*
X179109505Y-23857679D01*
X179151019Y-23720828D01*
X179151020Y-23720825D01*
X179218432Y-23594706D01*
X179309157Y-23484157D01*
X179419706Y-23393432D01*
X179545825Y-23326020D01*
X179545828Y-23326019D01*
X179682679Y-23284505D01*
X179753787Y-23277502D01*
X179789340Y-23274000D01*
X179860660Y-23274000D01*
X179896213Y-23277502D01*
X179896213Y-23277502D01*
G37*
G36*
X271223254Y-20527818D02*
G01*
X271596511Y-20682426D01*
X271596513Y-20682427D01*
X271932436Y-20906884D01*
X272218116Y-21192564D01*
X272412953Y-21484157D01*
X272442574Y-21528489D01*
X272597182Y-21901746D01*
X272676000Y-22297993D01*
X272676000Y-22702007D01*
X272597182Y-23098254D01*
X272442574Y-23471511D01*
X272442573Y-23471513D01*
X272218116Y-23807436D01*
X271932436Y-24093116D01*
X271596513Y-24317573D01*
X271596512Y-24317574D01*
X271596511Y-24317574D01*
X271223254Y-24472182D01*
X270827007Y-24551000D01*
X270422993Y-24551000D01*
X270026746Y-24472182D01*
X269653489Y-24317574D01*
X269653488Y-24317574D01*
X269653487Y-24317573D01*
X269317564Y-24093116D01*
X269031884Y-23807436D01*
X268807427Y-23471513D01*
X268807426Y-23471511D01*
X268652818Y-23098254D01*
X268574000Y-22702007D01*
X268574000Y-22297993D01*
X268652818Y-21901746D01*
X268807426Y-21528489D01*
X268837048Y-21484157D01*
X269031884Y-21192564D01*
X269317564Y-20906884D01*
X269653487Y-20682427D01*
X269653489Y-20682426D01*
X270026746Y-20527818D01*
X270422993Y-20449000D01*
X270827007Y-20449000D01*
X271223254Y-20527818D01*
X271223254Y-20527818D01*
G37*
G36*
X252173254Y-20527818D02*
G01*
X252546511Y-20682426D01*
X252546513Y-20682427D01*
X252882436Y-20906884D01*
X253168116Y-21192564D01*
X253362953Y-21484157D01*
X253392574Y-21528489D01*
X253547182Y-21901746D01*
X253626000Y-22297993D01*
X253626000Y-22702007D01*
X253547182Y-23098254D01*
X253392574Y-23471511D01*
X253392573Y-23471513D01*
X253168116Y-23807436D01*
X252882436Y-24093116D01*
X252546513Y-24317573D01*
X252546512Y-24317574D01*
X252546511Y-24317574D01*
X252173254Y-24472182D01*
X251777007Y-24551000D01*
X251372993Y-24551000D01*
X250976746Y-24472182D01*
X250603489Y-24317574D01*
X250603488Y-24317574D01*
X250603487Y-24317573D01*
X250267564Y-24093116D01*
X249981884Y-23807436D01*
X249757427Y-23471513D01*
X249757426Y-23471511D01*
X249602818Y-23098254D01*
X249524000Y-22702007D01*
X249524000Y-22297993D01*
X249602818Y-21901746D01*
X249757426Y-21528489D01*
X249787048Y-21484157D01*
X249981884Y-21192564D01*
X250267564Y-20906884D01*
X250603487Y-20682427D01*
X250603489Y-20682426D01*
X250976746Y-20527818D01*
X251372993Y-20449000D01*
X251777007Y-20449000D01*
X252173254Y-20527818D01*
X252173254Y-20527818D01*
G37*
G36*
X233123254Y-20527818D02*
G01*
X233496511Y-20682426D01*
X233496513Y-20682427D01*
X233832436Y-20906884D01*
X234118116Y-21192564D01*
X234312953Y-21484157D01*
X234342574Y-21528489D01*
X234497182Y-21901746D01*
X234576000Y-22297993D01*
X234576000Y-22702007D01*
X234497182Y-23098254D01*
X234342574Y-23471511D01*
X234342573Y-23471513D01*
X234118116Y-23807436D01*
X233832436Y-24093116D01*
X233496513Y-24317573D01*
X233496512Y-24317574D01*
X233496511Y-24317574D01*
X233123254Y-24472182D01*
X232727007Y-24551000D01*
X232322993Y-24551000D01*
X231926746Y-24472182D01*
X231553489Y-24317574D01*
X231553488Y-24317574D01*
X231553487Y-24317573D01*
X231217564Y-24093116D01*
X230931884Y-23807436D01*
X230707427Y-23471513D01*
X230707426Y-23471511D01*
X230552818Y-23098254D01*
X230474000Y-22702007D01*
X230474000Y-22297993D01*
X230552818Y-21901746D01*
X230707426Y-21528489D01*
X230737048Y-21484157D01*
X230931884Y-21192564D01*
X231217564Y-20906884D01*
X231553487Y-20682427D01*
X231553489Y-20682426D01*
X231926746Y-20527818D01*
X232322993Y-20449000D01*
X232727007Y-20449000D01*
X233123254Y-20527818D01*
X233123254Y-20527818D01*
G37*
G36*
X61673254Y-20527818D02*
G01*
X62046511Y-20682426D01*
X62046513Y-20682427D01*
X62382436Y-20906884D01*
X62668116Y-21192564D01*
X62862953Y-21484157D01*
X62892574Y-21528489D01*
X63047182Y-21901746D01*
X63126000Y-22297993D01*
X63126000Y-22702007D01*
X63047182Y-23098254D01*
X62892574Y-23471511D01*
X62892573Y-23471513D01*
X62668116Y-23807436D01*
X62382436Y-24093116D01*
X62046513Y-24317573D01*
X62046512Y-24317574D01*
X62046511Y-24317574D01*
X61673254Y-24472182D01*
X61277007Y-24551000D01*
X60872993Y-24551000D01*
X60476746Y-24472182D01*
X60103489Y-24317574D01*
X60103488Y-24317574D01*
X60103487Y-24317573D01*
X59767564Y-24093116D01*
X59481884Y-23807436D01*
X59257427Y-23471513D01*
X59257426Y-23471511D01*
X59102818Y-23098254D01*
X59024000Y-22702007D01*
X59024000Y-22297993D01*
X59102818Y-21901746D01*
X59257426Y-21528489D01*
X59287048Y-21484157D01*
X59481884Y-21192564D01*
X59767564Y-20906884D01*
X60103487Y-20682427D01*
X60103489Y-20682426D01*
X60476746Y-20527818D01*
X60872993Y-20449000D01*
X61277007Y-20449000D01*
X61673254Y-20527818D01*
X61673254Y-20527818D01*
G37*
G36*
X39151000Y-24151000D02*
G01*
X37049000Y-24151000D01*
X37049000Y-20849000D01*
X39151000Y-20849000D01*
X39151000Y-24151000D01*
X39151000Y-24151000D01*
G37*
G36*
X27951000Y-24151000D02*
G01*
X25849000Y-24151000D01*
X25849000Y-20849000D01*
X27951000Y-20849000D01*
X27951000Y-24151000D01*
X27951000Y-24151000D01*
G37*
G36*
X56108512Y-21603927D02*
G01*
X56257812Y-21633624D01*
X56421784Y-21701544D01*
X56569354Y-21800147D01*
X56694853Y-21925646D01*
X56793456Y-22073216D01*
X56861376Y-22237188D01*
X56896000Y-22411259D01*
X56896000Y-22588741D01*
X56861376Y-22762812D01*
X56793456Y-22926784D01*
X56694853Y-23074354D01*
X56569354Y-23199853D01*
X56421784Y-23298456D01*
X56257812Y-23366376D01*
X56108512Y-23396073D01*
X56083742Y-23401000D01*
X55906258Y-23401000D01*
X55881488Y-23396073D01*
X55732188Y-23366376D01*
X55568216Y-23298456D01*
X55420646Y-23199853D01*
X55295147Y-23074354D01*
X55196544Y-22926784D01*
X55128624Y-22762812D01*
X55094000Y-22588741D01*
X55094000Y-22411259D01*
X55128624Y-22237188D01*
X55196544Y-22073216D01*
X55295147Y-21925646D01*
X55420646Y-21800147D01*
X55568216Y-21701544D01*
X55732188Y-21633624D01*
X55881488Y-21603927D01*
X55906258Y-21599000D01*
X56083742Y-21599000D01*
X56108512Y-21603927D01*
X56108512Y-21603927D01*
G37*
G36*
X66268512Y-21603927D02*
G01*
X66417812Y-21633624D01*
X66581784Y-21701544D01*
X66729354Y-21800147D01*
X66854853Y-21925646D01*
X66953456Y-22073216D01*
X67021376Y-22237188D01*
X67056000Y-22411259D01*
X67056000Y-22588741D01*
X67021376Y-22762812D01*
X66953456Y-22926784D01*
X66854853Y-23074354D01*
X66729354Y-23199853D01*
X66581784Y-23298456D01*
X66417812Y-23366376D01*
X66268512Y-23396073D01*
X66243742Y-23401000D01*
X66066258Y-23401000D01*
X66041488Y-23396073D01*
X65892188Y-23366376D01*
X65728216Y-23298456D01*
X65580646Y-23199853D01*
X65455147Y-23074354D01*
X65356544Y-22926784D01*
X65288624Y-22762812D01*
X65254000Y-22588741D01*
X65254000Y-22411259D01*
X65288624Y-22237188D01*
X65356544Y-22073216D01*
X65455147Y-21925646D01*
X65580646Y-21800147D01*
X65728216Y-21701544D01*
X65892188Y-21633624D01*
X66041488Y-21603927D01*
X66066258Y-21599000D01*
X66243742Y-21599000D01*
X66268512Y-21603927D01*
X66268512Y-21603927D01*
G37*
G36*
X227558512Y-21603927D02*
G01*
X227707812Y-21633624D01*
X227871784Y-21701544D01*
X228019354Y-21800147D01*
X228144853Y-21925646D01*
X228243456Y-22073216D01*
X228311376Y-22237188D01*
X228346000Y-22411259D01*
X228346000Y-22588741D01*
X228311376Y-22762812D01*
X228243456Y-22926784D01*
X228144853Y-23074354D01*
X228019354Y-23199853D01*
X227871784Y-23298456D01*
X227707812Y-23366376D01*
X227558512Y-23396073D01*
X227533742Y-23401000D01*
X227356258Y-23401000D01*
X227331488Y-23396073D01*
X227182188Y-23366376D01*
X227018216Y-23298456D01*
X226870646Y-23199853D01*
X226745147Y-23074354D01*
X226646544Y-22926784D01*
X226578624Y-22762812D01*
X226544000Y-22588741D01*
X226544000Y-22411259D01*
X226578624Y-22237188D01*
X226646544Y-22073216D01*
X226745147Y-21925646D01*
X226870646Y-21800147D01*
X227018216Y-21701544D01*
X227182188Y-21633624D01*
X227331488Y-21603927D01*
X227356258Y-21599000D01*
X227533742Y-21599000D01*
X227558512Y-21603927D01*
X227558512Y-21603927D01*
G37*
G36*
X256768512Y-21603927D02*
G01*
X256917812Y-21633624D01*
X257081784Y-21701544D01*
X257229354Y-21800147D01*
X257354853Y-21925646D01*
X257453456Y-22073216D01*
X257521376Y-22237188D01*
X257556000Y-22411259D01*
X257556000Y-22588741D01*
X257521376Y-22762812D01*
X257453456Y-22926784D01*
X257354853Y-23074354D01*
X257229354Y-23199853D01*
X257081784Y-23298456D01*
X256917812Y-23366376D01*
X256768512Y-23396073D01*
X256743742Y-23401000D01*
X256566258Y-23401000D01*
X256541488Y-23396073D01*
X256392188Y-23366376D01*
X256228216Y-23298456D01*
X256080646Y-23199853D01*
X255955147Y-23074354D01*
X255856544Y-22926784D01*
X255788624Y-22762812D01*
X255754000Y-22588741D01*
X255754000Y-22411259D01*
X255788624Y-22237188D01*
X255856544Y-22073216D01*
X255955147Y-21925646D01*
X256080646Y-21800147D01*
X256228216Y-21701544D01*
X256392188Y-21633624D01*
X256541488Y-21603927D01*
X256566258Y-21599000D01*
X256743742Y-21599000D01*
X256768512Y-21603927D01*
X256768512Y-21603927D01*
G37*
G36*
X246608512Y-21603927D02*
G01*
X246757812Y-21633624D01*
X246921784Y-21701544D01*
X247069354Y-21800147D01*
X247194853Y-21925646D01*
X247293456Y-22073216D01*
X247361376Y-22237188D01*
X247396000Y-22411259D01*
X247396000Y-22588741D01*
X247361376Y-22762812D01*
X247293456Y-22926784D01*
X247194853Y-23074354D01*
X247069354Y-23199853D01*
X246921784Y-23298456D01*
X246757812Y-23366376D01*
X246608512Y-23396073D01*
X246583742Y-23401000D01*
X246406258Y-23401000D01*
X246381488Y-23396073D01*
X246232188Y-23366376D01*
X246068216Y-23298456D01*
X245920646Y-23199853D01*
X245795147Y-23074354D01*
X245696544Y-22926784D01*
X245628624Y-22762812D01*
X245594000Y-22588741D01*
X245594000Y-22411259D01*
X245628624Y-22237188D01*
X245696544Y-22073216D01*
X245795147Y-21925646D01*
X245920646Y-21800147D01*
X246068216Y-21701544D01*
X246232188Y-21633624D01*
X246381488Y-21603927D01*
X246406258Y-21599000D01*
X246583742Y-21599000D01*
X246608512Y-21603927D01*
X246608512Y-21603927D01*
G37*
G36*
X265658512Y-21603927D02*
G01*
X265807812Y-21633624D01*
X265971784Y-21701544D01*
X266119354Y-21800147D01*
X266244853Y-21925646D01*
X266343456Y-22073216D01*
X266411376Y-22237188D01*
X266446000Y-22411259D01*
X266446000Y-22588741D01*
X266411376Y-22762812D01*
X266343456Y-22926784D01*
X266244853Y-23074354D01*
X266119354Y-23199853D01*
X265971784Y-23298456D01*
X265807812Y-23366376D01*
X265658512Y-23396073D01*
X265633742Y-23401000D01*
X265456258Y-23401000D01*
X265431488Y-23396073D01*
X265282188Y-23366376D01*
X265118216Y-23298456D01*
X264970646Y-23199853D01*
X264845147Y-23074354D01*
X264746544Y-22926784D01*
X264678624Y-22762812D01*
X264644000Y-22588741D01*
X264644000Y-22411259D01*
X264678624Y-22237188D01*
X264746544Y-22073216D01*
X264845147Y-21925646D01*
X264970646Y-21800147D01*
X265118216Y-21701544D01*
X265282188Y-21633624D01*
X265431488Y-21603927D01*
X265456258Y-21599000D01*
X265633742Y-21599000D01*
X265658512Y-21603927D01*
X265658512Y-21603927D01*
G37*
G36*
X275818512Y-21603927D02*
G01*
X275967812Y-21633624D01*
X276131784Y-21701544D01*
X276279354Y-21800147D01*
X276404853Y-21925646D01*
X276503456Y-22073216D01*
X276571376Y-22237188D01*
X276606000Y-22411259D01*
X276606000Y-22588741D01*
X276571376Y-22762812D01*
X276503456Y-22926784D01*
X276404853Y-23074354D01*
X276279354Y-23199853D01*
X276131784Y-23298456D01*
X275967812Y-23366376D01*
X275818512Y-23396073D01*
X275793742Y-23401000D01*
X275616258Y-23401000D01*
X275591488Y-23396073D01*
X275442188Y-23366376D01*
X275278216Y-23298456D01*
X275130646Y-23199853D01*
X275005147Y-23074354D01*
X274906544Y-22926784D01*
X274838624Y-22762812D01*
X274804000Y-22588741D01*
X274804000Y-22411259D01*
X274838624Y-22237188D01*
X274906544Y-22073216D01*
X275005147Y-21925646D01*
X275130646Y-21800147D01*
X275278216Y-21701544D01*
X275442188Y-21633624D01*
X275591488Y-21603927D01*
X275616258Y-21599000D01*
X275793742Y-21599000D01*
X275818512Y-21603927D01*
X275818512Y-21603927D01*
G37*
G36*
X237718512Y-21603927D02*
G01*
X237867812Y-21633624D01*
X238031784Y-21701544D01*
X238179354Y-21800147D01*
X238304853Y-21925646D01*
X238403456Y-22073216D01*
X238471376Y-22237188D01*
X238506000Y-22411259D01*
X238506000Y-22588741D01*
X238471376Y-22762812D01*
X238403456Y-22926784D01*
X238304853Y-23074354D01*
X238179354Y-23199853D01*
X238031784Y-23298456D01*
X237867812Y-23366376D01*
X237718512Y-23396073D01*
X237693742Y-23401000D01*
X237516258Y-23401000D01*
X237491488Y-23396073D01*
X237342188Y-23366376D01*
X237178216Y-23298456D01*
X237030646Y-23199853D01*
X236905147Y-23074354D01*
X236806544Y-22926784D01*
X236738624Y-22762812D01*
X236704000Y-22588741D01*
X236704000Y-22411259D01*
X236738624Y-22237188D01*
X236806544Y-22073216D01*
X236905147Y-21925646D01*
X237030646Y-21800147D01*
X237178216Y-21701544D01*
X237342188Y-21633624D01*
X237491488Y-21603927D01*
X237516258Y-21599000D01*
X237693742Y-21599000D01*
X237718512Y-21603927D01*
X237718512Y-21603927D01*
G37*
G36*
X177896213Y-21277502D02*
G01*
X177967321Y-21284505D01*
X178104172Y-21326019D01*
X178104175Y-21326020D01*
X178230294Y-21393432D01*
X178340843Y-21484157D01*
X178431568Y-21594706D01*
X178498980Y-21720825D01*
X178498981Y-21720828D01*
X178540495Y-21857679D01*
X178554512Y-22000000D01*
X178540495Y-22142321D01*
X178498981Y-22279172D01*
X178498980Y-22279175D01*
X178431568Y-22405294D01*
X178340843Y-22515843D01*
X178230294Y-22606568D01*
X178104175Y-22673980D01*
X178104172Y-22673981D01*
X177967321Y-22715495D01*
X177896213Y-22722498D01*
X177860660Y-22726000D01*
X177789340Y-22726000D01*
X177753787Y-22722498D01*
X177682679Y-22715495D01*
X177545828Y-22673981D01*
X177545825Y-22673980D01*
X177419706Y-22606568D01*
X177309157Y-22515843D01*
X177218432Y-22405294D01*
X177151020Y-22279175D01*
X177151019Y-22279172D01*
X177109505Y-22142321D01*
X177095488Y-22000000D01*
X177109505Y-21857679D01*
X177151019Y-21720828D01*
X177151020Y-21720825D01*
X177218432Y-21594706D01*
X177309157Y-21484157D01*
X177419706Y-21393432D01*
X177545825Y-21326020D01*
X177545828Y-21326019D01*
X177682679Y-21284505D01*
X177753787Y-21277502D01*
X177789340Y-21274000D01*
X177860660Y-21274000D01*
X177896213Y-21277502D01*
X177896213Y-21277502D01*
G37*
G36*
X182551000Y-22726000D02*
G01*
X181099000Y-22726000D01*
X181099000Y-21274000D01*
X182551000Y-21274000D01*
X182551000Y-22726000D01*
X182551000Y-22726000D01*
G37*
G36*
X179896213Y-21277502D02*
G01*
X179967321Y-21284505D01*
X180104172Y-21326019D01*
X180104175Y-21326020D01*
X180230294Y-21393432D01*
X180340843Y-21484157D01*
X180431568Y-21594706D01*
X180498980Y-21720825D01*
X180498981Y-21720828D01*
X180540495Y-21857679D01*
X180554512Y-22000000D01*
X180540495Y-22142321D01*
X180498981Y-22279172D01*
X180498980Y-22279175D01*
X180431568Y-22405294D01*
X180340843Y-22515843D01*
X180230294Y-22606568D01*
X180104175Y-22673980D01*
X180104172Y-22673981D01*
X179967321Y-22715495D01*
X179896213Y-22722498D01*
X179860660Y-22726000D01*
X179789340Y-22726000D01*
X179753787Y-22722498D01*
X179682679Y-22715495D01*
X179545828Y-22673981D01*
X179545825Y-22673980D01*
X179419706Y-22606568D01*
X179309157Y-22515843D01*
X179218432Y-22405294D01*
X179151020Y-22279175D01*
X179151019Y-22279172D01*
X179109505Y-22142321D01*
X179095488Y-22000000D01*
X179109505Y-21857679D01*
X179151019Y-21720828D01*
X179151020Y-21720825D01*
X179218432Y-21594706D01*
X179309157Y-21484157D01*
X179419706Y-21393432D01*
X179545825Y-21326020D01*
X179545828Y-21326019D01*
X179682679Y-21284505D01*
X179753787Y-21277502D01*
X179789340Y-21274000D01*
X179860660Y-21274000D01*
X179896213Y-21277502D01*
X179896213Y-21277502D01*
G37*
G36*
X175896213Y-21277502D02*
G01*
X175967321Y-21284505D01*
X176104172Y-21326019D01*
X176104175Y-21326020D01*
X176230294Y-21393432D01*
X176340843Y-21484157D01*
X176431568Y-21594706D01*
X176498980Y-21720825D01*
X176498981Y-21720828D01*
X176540495Y-21857679D01*
X176554512Y-22000000D01*
X176540495Y-22142321D01*
X176498981Y-22279172D01*
X176498980Y-22279175D01*
X176431568Y-22405294D01*
X176340843Y-22515843D01*
X176230294Y-22606568D01*
X176104175Y-22673980D01*
X176104172Y-22673981D01*
X175967321Y-22715495D01*
X175896213Y-22722498D01*
X175860660Y-22726000D01*
X175789340Y-22726000D01*
X175753787Y-22722498D01*
X175682679Y-22715495D01*
X175545828Y-22673981D01*
X175545825Y-22673980D01*
X175419706Y-22606568D01*
X175309157Y-22515843D01*
X175218432Y-22405294D01*
X175151020Y-22279175D01*
X175151019Y-22279172D01*
X175109505Y-22142321D01*
X175095488Y-22000000D01*
X175109505Y-21857679D01*
X175151019Y-21720828D01*
X175151020Y-21720825D01*
X175218432Y-21594706D01*
X175309157Y-21484157D01*
X175419706Y-21393432D01*
X175545825Y-21326020D01*
X175545828Y-21326019D01*
X175682679Y-21284505D01*
X175753787Y-21277502D01*
X175789340Y-21274000D01*
X175860660Y-21274000D01*
X175896213Y-21277502D01*
X175896213Y-21277502D01*
G37*
G36*
X173896213Y-21277502D02*
G01*
X173967321Y-21284505D01*
X174104172Y-21326019D01*
X174104175Y-21326020D01*
X174230294Y-21393432D01*
X174340843Y-21484157D01*
X174431568Y-21594706D01*
X174498980Y-21720825D01*
X174498981Y-21720828D01*
X174540495Y-21857679D01*
X174554512Y-22000000D01*
X174540495Y-22142321D01*
X174498981Y-22279172D01*
X174498980Y-22279175D01*
X174431568Y-22405294D01*
X174340843Y-22515843D01*
X174230294Y-22606568D01*
X174104175Y-22673980D01*
X174104172Y-22673981D01*
X173967321Y-22715495D01*
X173896213Y-22722498D01*
X173860660Y-22726000D01*
X173789340Y-22726000D01*
X173753787Y-22722498D01*
X173682679Y-22715495D01*
X173545828Y-22673981D01*
X173545825Y-22673980D01*
X173419706Y-22606568D01*
X173309157Y-22515843D01*
X173218432Y-22405294D01*
X173151020Y-22279175D01*
X173151019Y-22279172D01*
X173109505Y-22142321D01*
X173095488Y-22000000D01*
X173109505Y-21857679D01*
X173151019Y-21720828D01*
X173151020Y-21720825D01*
X173218432Y-21594706D01*
X173309157Y-21484157D01*
X173419706Y-21393432D01*
X173545825Y-21326020D01*
X173545828Y-21326019D01*
X173682679Y-21284505D01*
X173753787Y-21277502D01*
X173789340Y-21274000D01*
X173860660Y-21274000D01*
X173896213Y-21277502D01*
X173896213Y-21277502D01*
G37*
G36*
X171896213Y-21277502D02*
G01*
X171967321Y-21284505D01*
X172104172Y-21326019D01*
X172104175Y-21326020D01*
X172230294Y-21393432D01*
X172340843Y-21484157D01*
X172431568Y-21594706D01*
X172498980Y-21720825D01*
X172498981Y-21720828D01*
X172540495Y-21857679D01*
X172554512Y-22000000D01*
X172540495Y-22142321D01*
X172498981Y-22279172D01*
X172498980Y-22279175D01*
X172431568Y-22405294D01*
X172340843Y-22515843D01*
X172230294Y-22606568D01*
X172104175Y-22673980D01*
X172104172Y-22673981D01*
X171967321Y-22715495D01*
X171896213Y-22722498D01*
X171860660Y-22726000D01*
X171789340Y-22726000D01*
X171753787Y-22722498D01*
X171682679Y-22715495D01*
X171545828Y-22673981D01*
X171545825Y-22673980D01*
X171419706Y-22606568D01*
X171309157Y-22515843D01*
X171218432Y-22405294D01*
X171151020Y-22279175D01*
X171151019Y-22279172D01*
X171109505Y-22142321D01*
X171095488Y-22000000D01*
X171109505Y-21857679D01*
X171151019Y-21720828D01*
X171151020Y-21720825D01*
X171218432Y-21594706D01*
X171309157Y-21484157D01*
X171419706Y-21393432D01*
X171545825Y-21326020D01*
X171545828Y-21326019D01*
X171682679Y-21284505D01*
X171753787Y-21277502D01*
X171789340Y-21274000D01*
X171860660Y-21274000D01*
X171896213Y-21277502D01*
X171896213Y-21277502D01*
G37*
G36*
X95108500Y-21526000D02*
G01*
X93506500Y-21526000D01*
X93506500Y-20424000D01*
X95108500Y-20424000D01*
X95108500Y-21526000D01*
X95108500Y-21526000D01*
G37*
G36*
X84608500Y-21526000D02*
G01*
X83006500Y-21526000D01*
X83006500Y-20424000D01*
X84608500Y-20424000D01*
X84608500Y-21526000D01*
X84608500Y-21526000D01*
G37*
G36*
X79708500Y-21526000D02*
G01*
X78106500Y-21526000D01*
X78106500Y-20424000D01*
X79708500Y-20424000D01*
X79708500Y-21526000D01*
X79708500Y-21526000D01*
G37*
G36*
X90208500Y-21526000D02*
G01*
X88606500Y-21526000D01*
X88606500Y-20424000D01*
X90208500Y-20424000D01*
X90208500Y-21526000D01*
X90208500Y-21526000D01*
G37*
G36*
X57489549Y-18831116D02*
G01*
X57600734Y-18853232D01*
X57810203Y-18939997D01*
X57998720Y-19065960D01*
X58159040Y-19226280D01*
X58285003Y-19414797D01*
X58371768Y-19624266D01*
X58416000Y-19846636D01*
X58416000Y-20073364D01*
X58371768Y-20295734D01*
X58285003Y-20505203D01*
X58159040Y-20693720D01*
X57998720Y-20854040D01*
X57810203Y-20980003D01*
X57600734Y-21066768D01*
X57489549Y-21088884D01*
X57378365Y-21111000D01*
X57151635Y-21111000D01*
X57040451Y-21088884D01*
X56929266Y-21066768D01*
X56719797Y-20980003D01*
X56531280Y-20854040D01*
X56370960Y-20693720D01*
X56244997Y-20505203D01*
X56158232Y-20295734D01*
X56114000Y-20073364D01*
X56114000Y-19846636D01*
X56158232Y-19624266D01*
X56244997Y-19414797D01*
X56370960Y-19226280D01*
X56531280Y-19065960D01*
X56719797Y-18939997D01*
X56929266Y-18853232D01*
X57040451Y-18831116D01*
X57151635Y-18809000D01*
X57378365Y-18809000D01*
X57489549Y-18831116D01*
X57489549Y-18831116D01*
G37*
G36*
X228939549Y-18831116D02*
G01*
X229050734Y-18853232D01*
X229260203Y-18939997D01*
X229448720Y-19065960D01*
X229609040Y-19226280D01*
X229735003Y-19414797D01*
X229821768Y-19624266D01*
X229866000Y-19846636D01*
X229866000Y-20073364D01*
X229821768Y-20295734D01*
X229735003Y-20505203D01*
X229609040Y-20693720D01*
X229448720Y-20854040D01*
X229260203Y-20980003D01*
X229050734Y-21066768D01*
X228939549Y-21088884D01*
X228828365Y-21111000D01*
X228601635Y-21111000D01*
X228490451Y-21088884D01*
X228379266Y-21066768D01*
X228169797Y-20980003D01*
X227981280Y-20854040D01*
X227820960Y-20693720D01*
X227694997Y-20505203D01*
X227608232Y-20295734D01*
X227564000Y-20073364D01*
X227564000Y-19846636D01*
X227608232Y-19624266D01*
X227694997Y-19414797D01*
X227820960Y-19226280D01*
X227981280Y-19065960D01*
X228169797Y-18939997D01*
X228379266Y-18853232D01*
X228490451Y-18831116D01*
X228601635Y-18809000D01*
X228828365Y-18809000D01*
X228939549Y-18831116D01*
X228939549Y-18831116D01*
G37*
G36*
X267039549Y-18831116D02*
G01*
X267150734Y-18853232D01*
X267360203Y-18939997D01*
X267548720Y-19065960D01*
X267709040Y-19226280D01*
X267835003Y-19414797D01*
X267921768Y-19624266D01*
X267966000Y-19846636D01*
X267966000Y-20073364D01*
X267921768Y-20295734D01*
X267835003Y-20505203D01*
X267709040Y-20693720D01*
X267548720Y-20854040D01*
X267360203Y-20980003D01*
X267150734Y-21066768D01*
X267039549Y-21088884D01*
X266928365Y-21111000D01*
X266701635Y-21111000D01*
X266590451Y-21088884D01*
X266479266Y-21066768D01*
X266269797Y-20980003D01*
X266081280Y-20854040D01*
X265920960Y-20693720D01*
X265794997Y-20505203D01*
X265708232Y-20295734D01*
X265664000Y-20073364D01*
X265664000Y-19846636D01*
X265708232Y-19624266D01*
X265794997Y-19414797D01*
X265920960Y-19226280D01*
X266081280Y-19065960D01*
X266269797Y-18939997D01*
X266479266Y-18853232D01*
X266590451Y-18831116D01*
X266701635Y-18809000D01*
X266928365Y-18809000D01*
X267039549Y-18831116D01*
X267039549Y-18831116D01*
G37*
G36*
X247989549Y-18831116D02*
G01*
X248100734Y-18853232D01*
X248310203Y-18939997D01*
X248498720Y-19065960D01*
X248659040Y-19226280D01*
X248785003Y-19414797D01*
X248871768Y-19624266D01*
X248916000Y-19846636D01*
X248916000Y-20073364D01*
X248871768Y-20295734D01*
X248785003Y-20505203D01*
X248659040Y-20693720D01*
X248498720Y-20854040D01*
X248310203Y-20980003D01*
X248100734Y-21066768D01*
X247989549Y-21088884D01*
X247878365Y-21111000D01*
X247651635Y-21111000D01*
X247540451Y-21088884D01*
X247429266Y-21066768D01*
X247219797Y-20980003D01*
X247031280Y-20854040D01*
X246870960Y-20693720D01*
X246744997Y-20505203D01*
X246658232Y-20295734D01*
X246614000Y-20073364D01*
X246614000Y-19846636D01*
X246658232Y-19624266D01*
X246744997Y-19414797D01*
X246870960Y-19226280D01*
X247031280Y-19065960D01*
X247219797Y-18939997D01*
X247429266Y-18853232D01*
X247540451Y-18831116D01*
X247651635Y-18809000D01*
X247878365Y-18809000D01*
X247989549Y-18831116D01*
X247989549Y-18831116D01*
G37*
G36*
X273389549Y-16291116D02*
G01*
X273500734Y-16313232D01*
X273710203Y-16399997D01*
X273898720Y-16525960D01*
X274059040Y-16686280D01*
X274185003Y-16874797D01*
X274271768Y-17084266D01*
X274316000Y-17306636D01*
X274316000Y-17533364D01*
X274271768Y-17755734D01*
X274185003Y-17965203D01*
X274059040Y-18153720D01*
X273898720Y-18314040D01*
X273710203Y-18440003D01*
X273500734Y-18526768D01*
X273389549Y-18548884D01*
X273278365Y-18571000D01*
X273051635Y-18571000D01*
X272940451Y-18548884D01*
X272829266Y-18526768D01*
X272619797Y-18440003D01*
X272431280Y-18314040D01*
X272270960Y-18153720D01*
X272144997Y-17965203D01*
X272058232Y-17755734D01*
X272014000Y-17533364D01*
X272014000Y-17306636D01*
X272058232Y-17084266D01*
X272144997Y-16874797D01*
X272270960Y-16686280D01*
X272431280Y-16525960D01*
X272619797Y-16399997D01*
X272829266Y-16313232D01*
X272940451Y-16291116D01*
X273051635Y-16269000D01*
X273278365Y-16269000D01*
X273389549Y-16291116D01*
X273389549Y-16291116D01*
G37*
G36*
X254339549Y-16291116D02*
G01*
X254450734Y-16313232D01*
X254660203Y-16399997D01*
X254848720Y-16525960D01*
X255009040Y-16686280D01*
X255135003Y-16874797D01*
X255221768Y-17084266D01*
X255266000Y-17306636D01*
X255266000Y-17533364D01*
X255221768Y-17755734D01*
X255135003Y-17965203D01*
X255009040Y-18153720D01*
X254848720Y-18314040D01*
X254660203Y-18440003D01*
X254450734Y-18526768D01*
X254339549Y-18548884D01*
X254228365Y-18571000D01*
X254001635Y-18571000D01*
X253890451Y-18548884D01*
X253779266Y-18526768D01*
X253569797Y-18440003D01*
X253381280Y-18314040D01*
X253220960Y-18153720D01*
X253094997Y-17965203D01*
X253008232Y-17755734D01*
X252964000Y-17533364D01*
X252964000Y-17306636D01*
X253008232Y-17084266D01*
X253094997Y-16874797D01*
X253220960Y-16686280D01*
X253381280Y-16525960D01*
X253569797Y-16399997D01*
X253779266Y-16313232D01*
X253890451Y-16291116D01*
X254001635Y-16269000D01*
X254228365Y-16269000D01*
X254339549Y-16291116D01*
X254339549Y-16291116D01*
G37*
G36*
X235289549Y-16291116D02*
G01*
X235400734Y-16313232D01*
X235610203Y-16399997D01*
X235798720Y-16525960D01*
X235959040Y-16686280D01*
X236085003Y-16874797D01*
X236171768Y-17084266D01*
X236216000Y-17306636D01*
X236216000Y-17533364D01*
X236171768Y-17755734D01*
X236085003Y-17965203D01*
X235959040Y-18153720D01*
X235798720Y-18314040D01*
X235610203Y-18440003D01*
X235400734Y-18526768D01*
X235289549Y-18548884D01*
X235178365Y-18571000D01*
X234951635Y-18571000D01*
X234840451Y-18548884D01*
X234729266Y-18526768D01*
X234519797Y-18440003D01*
X234331280Y-18314040D01*
X234170960Y-18153720D01*
X234044997Y-17965203D01*
X233958232Y-17755734D01*
X233914000Y-17533364D01*
X233914000Y-17306636D01*
X233958232Y-17084266D01*
X234044997Y-16874797D01*
X234170960Y-16686280D01*
X234331280Y-16525960D01*
X234519797Y-16399997D01*
X234729266Y-16313232D01*
X234840451Y-16291116D01*
X234951635Y-16269000D01*
X235178365Y-16269000D01*
X235289549Y-16291116D01*
X235289549Y-16291116D01*
G37*
G36*
X63839549Y-16291116D02*
G01*
X63950734Y-16313232D01*
X64160203Y-16399997D01*
X64348720Y-16525960D01*
X64509040Y-16686280D01*
X64635003Y-16874797D01*
X64721768Y-17084266D01*
X64766000Y-17306636D01*
X64766000Y-17533364D01*
X64721768Y-17755734D01*
X64635003Y-17965203D01*
X64509040Y-18153720D01*
X64348720Y-18314040D01*
X64160203Y-18440003D01*
X63950734Y-18526768D01*
X63839549Y-18548884D01*
X63728365Y-18571000D01*
X63501635Y-18571000D01*
X63390451Y-18548884D01*
X63279266Y-18526768D01*
X63069797Y-18440003D01*
X62881280Y-18314040D01*
X62720960Y-18153720D01*
X62594997Y-17965203D01*
X62508232Y-17755734D01*
X62464000Y-17533364D01*
X62464000Y-17306636D01*
X62508232Y-17084266D01*
X62594997Y-16874797D01*
X62720960Y-16686280D01*
X62881280Y-16525960D01*
X63069797Y-16399997D01*
X63279266Y-16313232D01*
X63390451Y-16291116D01*
X63501635Y-16269000D01*
X63728365Y-16269000D01*
X63839549Y-16291116D01*
X63839549Y-16291116D01*
G37*
G36*
X35306564Y-14489389D02*
G01*
X35497833Y-14568615D01*
X35497835Y-14568616D01*
X35669973Y-14683635D01*
X35816365Y-14830027D01*
X35931385Y-15002167D01*
X36010611Y-15193436D01*
X36051000Y-15396484D01*
X36051000Y-15603516D01*
X36010611Y-15806564D01*
X35931385Y-15997833D01*
X35931384Y-15997835D01*
X35816365Y-16169973D01*
X35669973Y-16316365D01*
X35497835Y-16431384D01*
X35497834Y-16431385D01*
X35497833Y-16431385D01*
X35306564Y-16510611D01*
X35103516Y-16551000D01*
X34896484Y-16551000D01*
X34693436Y-16510611D01*
X34502167Y-16431385D01*
X34502166Y-16431385D01*
X34502165Y-16431384D01*
X34330027Y-16316365D01*
X34183635Y-16169973D01*
X34068616Y-15997835D01*
X34068615Y-15997833D01*
X33989389Y-15806564D01*
X33949000Y-15603516D01*
X33949000Y-15396484D01*
X33989389Y-15193436D01*
X34068615Y-15002167D01*
X34183635Y-14830027D01*
X34330027Y-14683635D01*
X34502165Y-14568616D01*
X34502167Y-14568615D01*
X34693436Y-14489389D01*
X34896484Y-14449000D01*
X35103516Y-14449000D01*
X35306564Y-14489389D01*
X35306564Y-14489389D01*
G37*
G36*
X30306564Y-14489389D02*
G01*
X30497833Y-14568615D01*
X30497835Y-14568616D01*
X30669973Y-14683635D01*
X30816365Y-14830027D01*
X30931385Y-15002167D01*
X31010611Y-15193436D01*
X31051000Y-15396484D01*
X31051000Y-15603516D01*
X31010611Y-15806564D01*
X30931385Y-15997833D01*
X30931384Y-15997835D01*
X30816365Y-16169973D01*
X30669973Y-16316365D01*
X30497835Y-16431384D01*
X30497834Y-16431385D01*
X30497833Y-16431385D01*
X30306564Y-16510611D01*
X30103516Y-16551000D01*
X29896484Y-16551000D01*
X29693436Y-16510611D01*
X29502167Y-16431385D01*
X29502166Y-16431385D01*
X29502165Y-16431384D01*
X29330027Y-16316365D01*
X29183635Y-16169973D01*
X29068616Y-15997835D01*
X29068615Y-15997833D01*
X28989389Y-15806564D01*
X28949000Y-15603516D01*
X28949000Y-15396484D01*
X28989389Y-15193436D01*
X29068615Y-15002167D01*
X29183635Y-14830027D01*
X29330027Y-14683635D01*
X29502165Y-14568616D01*
X29502167Y-14568615D01*
X29693436Y-14489389D01*
X29896484Y-14449000D01*
X30103516Y-14449000D01*
X30306564Y-14489389D01*
X30306564Y-14489389D01*
G37*
M02*
