M48
; DRILL file {KiCad (5.1.2)-1} date 8/14/2021 4:28:31 PM
; FORMAT={-:-/ absolute / inch / decimal}
; #@! TF.CreationDate,2021-08-14T16:28:31-07:00
; #@! TF.GenerationSoftware,Kicad,Pcbnew,(5.1.2)-1
; #@! TF.FileFunction,Plated,1,2,PTH
FMAT,2
INCH
T1C0.0157
T2C0.0315
T3C0.0394
T4C0.0591
T5C0.1969
%
G90
G05
T1
X3.3661Y-0.6594
X3.3661Y-0.8169
X3.3957Y-1.063
X6.3386Y-0.8268
X6.7717Y-1.0335
X7.0039Y-1.1654
X7.5138Y-0.813
T2
X6.7648Y-0.8661
X6.7648Y-0.9449
X6.8435Y-0.8661
X6.8435Y-0.9449
X6.9222Y-0.8661
X6.9222Y-0.9449
X7.001Y-0.8661
X7.001Y-0.9449
X7.0797Y-0.8661
X7.0797Y-0.9449
X7.1585Y-0.8661
X7.1585Y-0.9449
T3
X1.1811Y-0.6102
X1.1811Y-1.1811
X1.2795Y-1.1811
X1.378Y-0.6102
X1.378Y-1.1811
T4
X9.0045Y-0.7858
X9.2545Y-0.6858
X10.5045Y-0.7858
X10.7545Y-0.6858
X2.2545Y-0.7858
X2.5045Y-0.6858
X9.7545Y-0.7858
X10.0045Y-0.6858
T5
X4.6604Y-0.8858
X8.4104Y-0.8858
T4
G00X1.0591Y-0.9114
M15
G01X1.0591Y-0.8602
M16
G05
G00X1.5Y-0.9114
M15
G01X1.5Y-0.8602
M16
G05
T0
M30
