G04 #@! TF.GenerationSoftware,KiCad,Pcbnew,(5.1.2)-1*
G04 #@! TF.CreationDate,2021-08-14T16:28:18-07:00*
G04 #@! TF.ProjectId,blvdtopsmd,626c7664-746f-4707-936d-642e6b696361,rev?*
G04 #@! TF.SameCoordinates,Original*
G04 #@! TF.FileFunction,Legend,Bot*
G04 #@! TF.FilePolarity,Positive*
%FSLAX46Y46*%
G04 Gerber Fmt 4.6, Leading zero omitted, Abs format (unit mm)*
G04 Created by KiCad (PCBNEW (5.1.2)-1) date 2021-08-14 16:28:18*
%MOMM*%
%LPD*%
G04 APERTURE LIST*
%ADD10C,0.300000*%
%ADD11C,0.150000*%
%ADD12C,0.200000*%
G04 APERTURE END LIST*
D10*
X216107142Y-29642857D02*
X215892857Y-29714285D01*
X215821428Y-29785714D01*
X215750000Y-29928571D01*
X215750000Y-30142857D01*
X215821428Y-30285714D01*
X215892857Y-30357142D01*
X216035714Y-30428571D01*
X216607142Y-30428571D01*
X216607142Y-28928571D01*
X216107142Y-28928571D01*
X215964285Y-29000000D01*
X215892857Y-29071428D01*
X215821428Y-29214285D01*
X215821428Y-29357142D01*
X215892857Y-29500000D01*
X215964285Y-29571428D01*
X216107142Y-29642857D01*
X216607142Y-29642857D01*
X214892857Y-30428571D02*
X215035714Y-30357142D01*
X215107142Y-30214285D01*
X215107142Y-28928571D01*
X214464285Y-29428571D02*
X214107142Y-30428571D01*
X213750000Y-29428571D01*
X212535714Y-30428571D02*
X212535714Y-28928571D01*
X212535714Y-30357142D02*
X212678571Y-30428571D01*
X212964285Y-30428571D01*
X213107142Y-30357142D01*
X213178571Y-30285714D01*
X213250000Y-30142857D01*
X213250000Y-29714285D01*
X213178571Y-29571428D01*
X213107142Y-29500000D01*
X212964285Y-29428571D01*
X212678571Y-29428571D01*
X212535714Y-29500000D01*
X210892857Y-28928571D02*
X210035714Y-28928571D01*
X210464285Y-30428571D02*
X210464285Y-28928571D01*
X209321428Y-30428571D02*
X209464285Y-30357142D01*
X209535714Y-30285714D01*
X209607142Y-30142857D01*
X209607142Y-29714285D01*
X209535714Y-29571428D01*
X209464285Y-29500000D01*
X209321428Y-29428571D01*
X209107142Y-29428571D01*
X208964285Y-29500000D01*
X208892857Y-29571428D01*
X208821428Y-29714285D01*
X208821428Y-30142857D01*
X208892857Y-30285714D01*
X208964285Y-30357142D01*
X209107142Y-30428571D01*
X209321428Y-30428571D01*
X208178571Y-29428571D02*
X208178571Y-30928571D01*
X208178571Y-29500000D02*
X208035714Y-29428571D01*
X207750000Y-29428571D01*
X207607142Y-29500000D01*
X207535714Y-29571428D01*
X207464285Y-29714285D01*
X207464285Y-30142857D01*
X207535714Y-30285714D01*
X207607142Y-30357142D01*
X207750000Y-30428571D01*
X208035714Y-30428571D01*
X208178571Y-30357142D01*
X205750000Y-30357142D02*
X205535714Y-30428571D01*
X205178571Y-30428571D01*
X205035714Y-30357142D01*
X204964285Y-30285714D01*
X204892857Y-30142857D01*
X204892857Y-30000000D01*
X204964285Y-29857142D01*
X205035714Y-29785714D01*
X205178571Y-29714285D01*
X205464285Y-29642857D01*
X205607142Y-29571428D01*
X205678571Y-29500000D01*
X205750000Y-29357142D01*
X205750000Y-29214285D01*
X205678571Y-29071428D01*
X205607142Y-29000000D01*
X205464285Y-28928571D01*
X205107142Y-28928571D01*
X204892857Y-29000000D01*
X204250000Y-30428571D02*
X204250000Y-28928571D01*
X203750000Y-30000000D01*
X203250000Y-28928571D01*
X203250000Y-30428571D01*
X202535714Y-30428571D02*
X202535714Y-28928571D01*
X202178571Y-28928571D01*
X201964285Y-29000000D01*
X201821428Y-29142857D01*
X201750000Y-29285714D01*
X201678571Y-29571428D01*
X201678571Y-29785714D01*
X201750000Y-30071428D01*
X201821428Y-30214285D01*
X201964285Y-30357142D01*
X202178571Y-30428571D01*
X202535714Y-30428571D01*
X200107142Y-28928571D02*
X199607142Y-30428571D01*
X199107142Y-28928571D01*
X198035714Y-30357142D02*
X198178571Y-30428571D01*
X198464285Y-30428571D01*
X198607142Y-30357142D01*
X198678571Y-30214285D01*
X198678571Y-29642857D01*
X198607142Y-29500000D01*
X198464285Y-29428571D01*
X198178571Y-29428571D01*
X198035714Y-29500000D01*
X197964285Y-29642857D01*
X197964285Y-29785714D01*
X198678571Y-29928571D01*
X197321428Y-30428571D02*
X197321428Y-29428571D01*
X197321428Y-29714285D02*
X197250000Y-29571428D01*
X197178571Y-29500000D01*
X197035714Y-29428571D01*
X196892857Y-29428571D01*
X195250000Y-30428571D02*
X195250000Y-28928571D01*
X194678571Y-28928571D01*
X194535714Y-29000000D01*
X194464285Y-29071428D01*
X194392857Y-29214285D01*
X194392857Y-29428571D01*
X194464285Y-29571428D01*
X194535714Y-29642857D01*
X194678571Y-29714285D01*
X195250000Y-29714285D01*
X193892857Y-28928571D02*
X192964285Y-28928571D01*
X193464285Y-29500000D01*
X193250000Y-29500000D01*
X193107142Y-29571428D01*
X193035714Y-29642857D01*
X192964285Y-29785714D01*
X192964285Y-30142857D01*
X193035714Y-30285714D01*
X193107142Y-30357142D01*
X193250000Y-30428571D01*
X193678571Y-30428571D01*
X193821428Y-30357142D01*
X193892857Y-30285714D01*
X192321428Y-30285714D02*
X192250000Y-30357142D01*
X192321428Y-30428571D01*
X192392857Y-30357142D01*
X192321428Y-30285714D01*
X192321428Y-30428571D01*
X190821428Y-30428571D02*
X191678571Y-30428571D01*
X191250000Y-30428571D02*
X191250000Y-28928571D01*
X191392857Y-29142857D01*
X191535714Y-29285714D01*
X191678571Y-29357142D01*
D11*
X189250000Y-22627380D02*
X189583333Y-22151190D01*
X189821428Y-22627380D02*
X189821428Y-21627380D01*
X189440476Y-21627380D01*
X189345238Y-21675000D01*
X189297619Y-21722619D01*
X189250000Y-21817857D01*
X189250000Y-21960714D01*
X189297619Y-22055952D01*
X189345238Y-22103571D01*
X189440476Y-22151190D01*
X189821428Y-22151190D01*
X188440476Y-22579761D02*
X188535714Y-22627380D01*
X188726190Y-22627380D01*
X188821428Y-22579761D01*
X188869047Y-22484523D01*
X188869047Y-22103571D01*
X188821428Y-22008333D01*
X188726190Y-21960714D01*
X188535714Y-21960714D01*
X188440476Y-22008333D01*
X188392857Y-22103571D01*
X188392857Y-22198809D01*
X188869047Y-22294047D01*
X187535714Y-22627380D02*
X187535714Y-21627380D01*
X187535714Y-22579761D02*
X187630952Y-22627380D01*
X187821428Y-22627380D01*
X187916666Y-22579761D01*
X187964285Y-22532142D01*
X188011904Y-22436904D01*
X188011904Y-22151190D01*
X187964285Y-22055952D01*
X187916666Y-22008333D01*
X187821428Y-21960714D01*
X187630952Y-21960714D01*
X187535714Y-22008333D01*
X186392857Y-21627380D02*
X186154761Y-22627380D01*
X185964285Y-21913095D01*
X185773809Y-22627380D01*
X185535714Y-21627380D01*
X185154761Y-22627380D02*
X185154761Y-21960714D01*
X185154761Y-21627380D02*
X185202380Y-21675000D01*
X185154761Y-21722619D01*
X185107142Y-21675000D01*
X185154761Y-21627380D01*
X185154761Y-21722619D01*
X184678571Y-22627380D02*
X184678571Y-21960714D01*
X184678571Y-22151190D02*
X184630952Y-22055952D01*
X184583333Y-22008333D01*
X184488095Y-21960714D01*
X184392857Y-21960714D01*
X183678571Y-22579761D02*
X183773809Y-22627380D01*
X183964285Y-22627380D01*
X184059523Y-22579761D01*
X184107142Y-22484523D01*
X184107142Y-22103571D01*
X184059523Y-22008333D01*
X183964285Y-21960714D01*
X183773809Y-21960714D01*
X183678571Y-22008333D01*
X183630952Y-22103571D01*
X183630952Y-22198809D01*
X184107142Y-22294047D01*
X190107142Y-23277380D02*
X189535714Y-23277380D01*
X189821428Y-24277380D02*
X189821428Y-23277380D01*
X189202380Y-24277380D02*
X189202380Y-23277380D01*
X188773809Y-24277380D02*
X188773809Y-23753571D01*
X188821428Y-23658333D01*
X188916666Y-23610714D01*
X189059523Y-23610714D01*
X189154761Y-23658333D01*
X189202380Y-23705952D01*
X188297619Y-24277380D02*
X188297619Y-23610714D01*
X188297619Y-23277380D02*
X188345238Y-23325000D01*
X188297619Y-23372619D01*
X188250000Y-23325000D01*
X188297619Y-23277380D01*
X188297619Y-23372619D01*
X187869047Y-24229761D02*
X187773809Y-24277380D01*
X187583333Y-24277380D01*
X187488095Y-24229761D01*
X187440476Y-24134523D01*
X187440476Y-24086904D01*
X187488095Y-23991666D01*
X187583333Y-23944047D01*
X187726190Y-23944047D01*
X187821428Y-23896428D01*
X187869047Y-23801190D01*
X187869047Y-23753571D01*
X187821428Y-23658333D01*
X187726190Y-23610714D01*
X187583333Y-23610714D01*
X187488095Y-23658333D01*
X186297619Y-24229761D02*
X186154761Y-24277380D01*
X185916666Y-24277380D01*
X185821428Y-24229761D01*
X185773809Y-24182142D01*
X185726190Y-24086904D01*
X185726190Y-23991666D01*
X185773809Y-23896428D01*
X185821428Y-23848809D01*
X185916666Y-23801190D01*
X186107142Y-23753571D01*
X186202380Y-23705952D01*
X186250000Y-23658333D01*
X186297619Y-23563095D01*
X186297619Y-23467857D01*
X186250000Y-23372619D01*
X186202380Y-23325000D01*
X186107142Y-23277380D01*
X185869047Y-23277380D01*
X185726190Y-23325000D01*
X185297619Y-24277380D02*
X185297619Y-23610714D01*
X185297619Y-23277380D02*
X185345238Y-23325000D01*
X185297619Y-23372619D01*
X185250000Y-23325000D01*
X185297619Y-23277380D01*
X185297619Y-23372619D01*
X184392857Y-24277380D02*
X184392857Y-23277380D01*
X184392857Y-24229761D02*
X184488095Y-24277380D01*
X184678571Y-24277380D01*
X184773809Y-24229761D01*
X184821428Y-24182142D01*
X184869047Y-24086904D01*
X184869047Y-23801190D01*
X184821428Y-23705952D01*
X184773809Y-23658333D01*
X184678571Y-23610714D01*
X184488095Y-23610714D01*
X184392857Y-23658333D01*
X183535714Y-24229761D02*
X183630952Y-24277380D01*
X183821428Y-24277380D01*
X183916666Y-24229761D01*
X183964285Y-24134523D01*
X183964285Y-23753571D01*
X183916666Y-23658333D01*
X183821428Y-23610714D01*
X183630952Y-23610714D01*
X183535714Y-23658333D01*
X183488095Y-23753571D01*
X183488095Y-23848809D01*
X183964285Y-23944047D01*
D12*
X45225000Y-28770000D02*
X45225000Y-26370000D01*
X39225000Y-28770000D02*
X45225000Y-28770000D01*
X39225000Y-26370000D02*
X39225000Y-28770000D01*
X45225000Y-26370000D02*
X39225000Y-26370000D01*
X44950000Y-26370000D02*
X44950000Y-28770000D01*
X44825000Y-26370000D02*
X44825000Y-28770000D01*
X45100000Y-28770000D02*
X45100000Y-26370000D01*
X267425000Y-26370000D02*
X267425000Y-28770000D01*
X273425000Y-26370000D02*
X267425000Y-26370000D01*
X273425000Y-28770000D02*
X273425000Y-26370000D01*
X267425000Y-28770000D02*
X273425000Y-28770000D01*
X267700000Y-28770000D02*
X267700000Y-26370000D01*
X267825000Y-28770000D02*
X267825000Y-26370000D01*
X267550000Y-26370000D02*
X267550000Y-28770000D01*
X248375000Y-26370000D02*
X248375000Y-28770000D01*
X254375000Y-26370000D02*
X248375000Y-26370000D01*
X254375000Y-28770000D02*
X254375000Y-26370000D01*
X248375000Y-28770000D02*
X254375000Y-28770000D01*
X248650000Y-28770000D02*
X248650000Y-26370000D01*
X248775000Y-28770000D02*
X248775000Y-26370000D01*
X248500000Y-26370000D02*
X248500000Y-28770000D01*
X229325000Y-26370000D02*
X229325000Y-28770000D01*
X235325000Y-26370000D02*
X229325000Y-26370000D01*
X235325000Y-28770000D02*
X235325000Y-26370000D01*
X229325000Y-28770000D02*
X235325000Y-28770000D01*
X229600000Y-28770000D02*
X229600000Y-26370000D01*
X229725000Y-28770000D02*
X229725000Y-26370000D01*
X229450000Y-26370000D02*
X229450000Y-28770000D01*
X57875000Y-26370000D02*
X57875000Y-28770000D01*
X63875000Y-26370000D02*
X57875000Y-26370000D01*
X63875000Y-28770000D02*
X63875000Y-26370000D01*
X57875000Y-28770000D02*
X63875000Y-28770000D01*
X58150000Y-28770000D02*
X58150000Y-26370000D01*
X58275000Y-28770000D02*
X58275000Y-26370000D01*
X58000000Y-26370000D02*
X58000000Y-28770000D01*
D11*
X142083333Y-18643005D02*
X142416666Y-18166815D01*
X142654761Y-18643005D02*
X142654761Y-17643005D01*
X142273809Y-17643005D01*
X142178571Y-17690625D01*
X142130952Y-17738244D01*
X142083333Y-17833482D01*
X142083333Y-17976339D01*
X142130952Y-18071577D01*
X142178571Y-18119196D01*
X142273809Y-18166815D01*
X142654761Y-18166815D01*
X141654761Y-18119196D02*
X141321428Y-18119196D01*
X141178571Y-18643005D02*
X141654761Y-18643005D01*
X141654761Y-17643005D01*
X141178571Y-17643005D01*
X140416666Y-18119196D02*
X140750000Y-18119196D01*
X140750000Y-18643005D02*
X140750000Y-17643005D01*
X140273809Y-17643005D01*
X139750000Y-17643005D02*
X139750000Y-17881101D01*
X139988095Y-17785863D02*
X139750000Y-17881101D01*
X139511904Y-17785863D01*
X139892857Y-18071577D02*
X139750000Y-17881101D01*
X139607142Y-18071577D01*
X138988095Y-17643005D02*
X138988095Y-17881101D01*
X139226190Y-17785863D02*
X138988095Y-17881101D01*
X138750000Y-17785863D01*
X139130952Y-18071577D02*
X138988095Y-17881101D01*
X138845238Y-18071577D01*
X42996428Y-29856904D02*
X42996428Y-29056904D01*
X42805952Y-29056904D01*
X42691666Y-29095000D01*
X42615476Y-29171190D01*
X42577380Y-29247380D01*
X42539285Y-29399761D01*
X42539285Y-29514047D01*
X42577380Y-29666428D01*
X42615476Y-29742619D01*
X42691666Y-29818809D01*
X42805952Y-29856904D01*
X42996428Y-29856904D01*
X41815476Y-29056904D02*
X42196428Y-29056904D01*
X42234523Y-29437857D01*
X42196428Y-29399761D01*
X42120238Y-29361666D01*
X41929761Y-29361666D01*
X41853571Y-29399761D01*
X41815476Y-29437857D01*
X41777380Y-29514047D01*
X41777380Y-29704523D01*
X41815476Y-29780714D01*
X41853571Y-29818809D01*
X41929761Y-29856904D01*
X42120238Y-29856904D01*
X42196428Y-29818809D01*
X42234523Y-29780714D01*
X41510714Y-29056904D02*
X40977380Y-29056904D01*
X41320238Y-29856904D01*
X271596428Y-26006904D02*
X271596428Y-25206904D01*
X271405952Y-25206904D01*
X271291666Y-25245000D01*
X271215476Y-25321190D01*
X271177380Y-25397380D01*
X271139285Y-25549761D01*
X271139285Y-25664047D01*
X271177380Y-25816428D01*
X271215476Y-25892619D01*
X271291666Y-25968809D01*
X271405952Y-26006904D01*
X271596428Y-26006904D01*
X270415476Y-25206904D02*
X270796428Y-25206904D01*
X270834523Y-25587857D01*
X270796428Y-25549761D01*
X270720238Y-25511666D01*
X270529761Y-25511666D01*
X270453571Y-25549761D01*
X270415476Y-25587857D01*
X270377380Y-25664047D01*
X270377380Y-25854523D01*
X270415476Y-25930714D01*
X270453571Y-25968809D01*
X270529761Y-26006904D01*
X270720238Y-26006904D01*
X270796428Y-25968809D01*
X270834523Y-25930714D01*
X269691666Y-25206904D02*
X269844047Y-25206904D01*
X269920238Y-25245000D01*
X269958333Y-25283095D01*
X270034523Y-25397380D01*
X270072619Y-25549761D01*
X270072619Y-25854523D01*
X270034523Y-25930714D01*
X269996428Y-25968809D01*
X269920238Y-26006904D01*
X269767857Y-26006904D01*
X269691666Y-25968809D01*
X269653571Y-25930714D01*
X269615476Y-25854523D01*
X269615476Y-25664047D01*
X269653571Y-25587857D01*
X269691666Y-25549761D01*
X269767857Y-25511666D01*
X269920238Y-25511666D01*
X269996428Y-25549761D01*
X270034523Y-25587857D01*
X270072619Y-25664047D01*
X252546428Y-26006904D02*
X252546428Y-25206904D01*
X252355952Y-25206904D01*
X252241666Y-25245000D01*
X252165476Y-25321190D01*
X252127380Y-25397380D01*
X252089285Y-25549761D01*
X252089285Y-25664047D01*
X252127380Y-25816428D01*
X252165476Y-25892619D01*
X252241666Y-25968809D01*
X252355952Y-26006904D01*
X252546428Y-26006904D01*
X251365476Y-25206904D02*
X251746428Y-25206904D01*
X251784523Y-25587857D01*
X251746428Y-25549761D01*
X251670238Y-25511666D01*
X251479761Y-25511666D01*
X251403571Y-25549761D01*
X251365476Y-25587857D01*
X251327380Y-25664047D01*
X251327380Y-25854523D01*
X251365476Y-25930714D01*
X251403571Y-25968809D01*
X251479761Y-26006904D01*
X251670238Y-26006904D01*
X251746428Y-25968809D01*
X251784523Y-25930714D01*
X250603571Y-25206904D02*
X250984523Y-25206904D01*
X251022619Y-25587857D01*
X250984523Y-25549761D01*
X250908333Y-25511666D01*
X250717857Y-25511666D01*
X250641666Y-25549761D01*
X250603571Y-25587857D01*
X250565476Y-25664047D01*
X250565476Y-25854523D01*
X250603571Y-25930714D01*
X250641666Y-25968809D01*
X250717857Y-26006904D01*
X250908333Y-26006904D01*
X250984523Y-25968809D01*
X251022619Y-25930714D01*
X233496428Y-26006904D02*
X233496428Y-25206904D01*
X233305952Y-25206904D01*
X233191666Y-25245000D01*
X233115476Y-25321190D01*
X233077380Y-25397380D01*
X233039285Y-25549761D01*
X233039285Y-25664047D01*
X233077380Y-25816428D01*
X233115476Y-25892619D01*
X233191666Y-25968809D01*
X233305952Y-26006904D01*
X233496428Y-26006904D01*
X232315476Y-25206904D02*
X232696428Y-25206904D01*
X232734523Y-25587857D01*
X232696428Y-25549761D01*
X232620238Y-25511666D01*
X232429761Y-25511666D01*
X232353571Y-25549761D01*
X232315476Y-25587857D01*
X232277380Y-25664047D01*
X232277380Y-25854523D01*
X232315476Y-25930714D01*
X232353571Y-25968809D01*
X232429761Y-26006904D01*
X232620238Y-26006904D01*
X232696428Y-25968809D01*
X232734523Y-25930714D01*
X231591666Y-25473571D02*
X231591666Y-26006904D01*
X231782142Y-25168809D02*
X231972619Y-25740238D01*
X231477380Y-25740238D01*
X62046428Y-26006904D02*
X62046428Y-25206904D01*
X61855952Y-25206904D01*
X61741666Y-25245000D01*
X61665476Y-25321190D01*
X61627380Y-25397380D01*
X61589285Y-25549761D01*
X61589285Y-25664047D01*
X61627380Y-25816428D01*
X61665476Y-25892619D01*
X61741666Y-25968809D01*
X61855952Y-26006904D01*
X62046428Y-26006904D01*
X60865476Y-25206904D02*
X61246428Y-25206904D01*
X61284523Y-25587857D01*
X61246428Y-25549761D01*
X61170238Y-25511666D01*
X60979761Y-25511666D01*
X60903571Y-25549761D01*
X60865476Y-25587857D01*
X60827380Y-25664047D01*
X60827380Y-25854523D01*
X60865476Y-25930714D01*
X60903571Y-25968809D01*
X60979761Y-26006904D01*
X61170238Y-26006904D01*
X61246428Y-25968809D01*
X61284523Y-25930714D01*
X60560714Y-25206904D02*
X60065476Y-25206904D01*
X60332142Y-25511666D01*
X60217857Y-25511666D01*
X60141666Y-25549761D01*
X60103571Y-25587857D01*
X60065476Y-25664047D01*
X60065476Y-25854523D01*
X60103571Y-25930714D01*
X60141666Y-25968809D01*
X60217857Y-26006904D01*
X60446428Y-26006904D01*
X60522619Y-25968809D01*
X60560714Y-25930714D01*
M02*
