  0
SECTION
  2
HEADER
  9
$ACADVER
  1
AC1014
  9
$HANDSEED
  5
FFFF
  9
$MEASUREMENT
 70
     1
  0
ENDSEC
  0
SECTION
  2
TABLES
  0
TABLE
  2
VPORT
  5
8
330
0
100
AcDbSymbolTable
 70
     4
  0
VPORT
  5
2E
330
8
100
AcDbSymbolTableRecord
100
AcDbViewportTableRecord
  2
*ACTIVE
 70
     0
 10
0.0
 20
0.0
 11
1.0
 21
1.0
 12
210.0
 22
148.5
 13
0.0
 23
0.0
 14
10.0
 24
10.0
 15
10.0
 25
10.0
 16
0.0
 26
0.0
 36
1.0
 17
0.0
 27
0.0
 37
0.0
 40
341.0
 41
1.24
 42
50.0
 43
0.0
 44
0.0
 50
0.0
 51
0.0
 71
     0
 72
   100
 73
     1
 74
     3
 75
     0
 76
     0
 77
     0
 78
     0
  0
ENDTAB
  0
TABLE
  2
LTYPE
  5
5
330
0
100
AcDbSymbolTable
 70
     1
  0
LTYPE
  5
14
330
5
100
AcDbSymbolTableRecord
100
AcDbLinetypeTableRecord
  2
BYBLOCK
 70
     0
  3

 72
    65
 73
     0
 40
0.0
  0
LTYPE
  5
15
330
5
100
AcDbSymbolTableRecord
100
AcDbLinetypeTableRecord
  2
BYLAYER
 70
     0
  3

 72
    65
 73
     0
 40
0.0
  0
LTYPE
  5
16
330
5
100
AcDbSymbolTableRecord
100
AcDbLinetypeTableRecord
  2
CONTINUOUS
 70
     0
  3
Solid line
 72
    65
 73
     0
 40
0.0
  0
ENDTAB
  0
TABLE
  2
LAYER
  5
2
100
AcDbSymbolTable
 70
1
  0
LAYER
  5
50
100
AcDbSymbolTableRecord
100
AcDbLayerTableRecord
  2
0
 70
0
  6
CONTINUOUS
  0
ENDTAB
  0
TABLE
  2
STYLE
  5
3
330
0
100
AcDbSymbolTable
 70
     1
  0
STYLE
  5
11
330
3
100
AcDbSymbolTableRecord
100
AcDbTextStyleTableRecord
  2
STANDARD
 70
     0
 40
0.0
 41
1.0
 50
0.0
 71
     0
 42
2.5
  3
txt
  4

  0
ENDTAB
  0
TABLE
  2
VIEW
  5
6
330
0
100
AcDbSymbolTable
 70
     0
  0
ENDTAB
  0
TABLE
  2
UCS
  5
7
330
0
100
AcDbSymbolTable
 70
     0
  0
ENDTAB
  0
TABLE
  2
APPID
  5
9
330
0
100
AcDbSymbolTable
 70
     2
  0
APPID
  5
12
330
9
100
AcDbSymbolTableRecord
100
AcDbRegAppTableRecord
  2
ACAD
 70
     0
  0
ENDTAB
  0
TABLE
  2
DIMSTYLE
  5
A
330
0
100
AcDbSymbolTable
 70
     1
  0
DIMSTYLE
105
27
330
A
100
AcDbSymbolTableRecord
100
AcDbDimStyleTableRecord
  2
ISO-25
 70
     0
  3

  4

  5

  6

  7

 40
1.0
 41
2.5
 42
0.625
 43
3.75
 44
1.25
 45
0.0
 46
0.0
 47
0.0
 48
0.0
140
2.5
141
2.5
142
0.0
143
0.03937007874016
144
1.0
145
0.0
146
1.0
147
0.625
 71
     0
 72
     0
 73
     0
 74
     0
 75
     0
 76
     0
 77
     1
 78
     8
170
     0
171
     3
172
     1
173
     0
174
     0
175
     0
176
     0
177
     0
178
     0
270
     2
271
     2
272
     2
273
     2
274
     3
340
11
275
     0
280
     0
281
     0
282
     0
283
     0
284
     8
285
     0
286
     0
287
     3
288
     0
  0
ENDTAB
  0
TABLE
  2
BLOCK_RECORD
  5
1
330
0
100
AcDbSymbolTable
 70
     1
  0
BLOCK_RECORD
  5
1F
330
1
100
AcDbSymbolTableRecord
100
AcDbBlockTableRecord
  2
*MODEL_SPACE
  0
BLOCK_RECORD
  5
1B
330
1
100
AcDbSymbolTableRecord
100
AcDbBlockTableRecord
  2
*PAPER_SPACE
  0
ENDTAB
  0
ENDSEC
  0
SECTION
  2
BLOCKS
  0
BLOCK
  5
20
330
1F
100
AcDbEntity
  8
0
100
AcDbBlockBegin
  2
*MODEL_SPACE
 70
     0
 10
0.0
 20
0.0
 30
0.0
  3
*MODEL_SPACE
  1

  0
ENDBLK
  5
21
330
1F
100
AcDbEntity
  8
0
100
AcDbBlockEnd
  0
BLOCK
  5
1C
330
1B
100
AcDbEntity
 67
     1
  8
0
100
AcDbBlockBegin
  2
*PAPER_SPACE
  1

  0
ENDBLK
  5
1D
330
1B
100
AcDbEntity
 67
     1
  8
0
100
AcDbBlockEnd
  0
ENDSEC
  0
SECTION
  2
ENTITIES
  0
SPLINE
  5
100
100
AcDbEntity
  8
0
 62
7
100
AcDbSpline
 70
8
 71
3
 72
8
 73
4
 74
0
 40
0
 40
0
 40
0
 40
0
 40
1
 40
1
 40
1
 40
1
 10
592.720560
 20
-195.427094
 30
0.0
 10
592.720465
 20
-195.802991
 30
0.0
 10
592.869697
 20
-196.163530
 30
0.0
 10
593.135429
 20
-196.429396
 30
0.0
  0
SPLINE
  5
101
100
AcDbEntity
  8
0
 62
7
100
AcDbSpline
 70
8
 71
3
 72
8
 73
4
 74
0
 40
0
 40
0
 40
0
 40
0
 40
1
 40
1
 40
1
 40
1
 10
593.135429
 20
-196.429396
 30
0.0
 10
593.401160
 20
-196.695263
 30
0.0
 10
593.761623
 20
-196.844679
 30
0.0
 10
594.137520
 20
-196.844774
 30
0.0
  0
SPLINE
  5
102
100
AcDbEntity
  8
0
 62
7
100
AcDbSpline
 70
8
 71
3
 72
8
 73
4
 74
0
 40
0
 40
0
 40
0
 40
0
 40
1
 40
1
 40
1
 40
1
 10
571.459680
 20
-196.845494
 30
0.0
 10
571.835577
 20
-196.845590
 30
0.0
 10
572.196115
 20
-196.696357
 30
0.0
 10
572.461982
 20
-196.430626
 30
0.0
  0
SPLINE
  5
103
100
AcDbEntity
  8
0
 62
7
100
AcDbSpline
 70
8
 71
3
 72
8
 73
4
 74
0
 40
0
 40
0
 40
0
 40
0
 40
1
 40
1
 40
1
 40
1
 10
572.461982
 20
-196.430626
 30
0.0
 10
572.727849
 20
-196.164894
 30
0.0
 10
572.877265
 20
-195.804431
 30
0.0
 10
572.877360
 20
-195.428534
 30
0.0
  0
SPLINE
  5
104
100
AcDbEntity
  8
0
 62
7
100
AcDbSpline
 70
8
 71
3
 72
8
 73
4
 74
0
 40
0
 40
0
 40
0
 40
0
 40
1
 40
1
 40
1
 40
1
 10
538.813440
 20
-195.427094
 30
0.0
 10
538.813344
 20
-195.803116
 30
0.0
 10
538.962676
 20
-196.163764
 30
0.0
 10
539.228563
 20
-196.429651
 30
0.0
  0
SPLINE
  5
105
100
AcDbEntity
  8
0
 62
7
100
AcDbSpline
 70
8
 71
3
 72
8
 73
4
 74
0
 40
0
 40
0
 40
0
 40
0
 40
1
 40
1
 40
1
 40
1
 10
539.228563
 20
-196.429651
 30
0.0
 10
539.494451
 20
-196.695538
 30
0.0
 10
539.855099
 20
-196.844870
 30
0.0
 10
540.231120
 20
-196.844774
 30
0.0
  0
SPLINE
  5
106
100
AcDbEntity
  8
0
 62
7
100
AcDbSpline
 70
8
 71
3
 72
8
 73
4
 74
0
 40
0
 40
0
 40
0
 40
0
 40
1
 40
1
 40
1
 40
1
 10
497.299680
 20
-196.845494
 30
0.0
 10
498.082163
 20
-196.845296
 30
0.0
 10
498.716441
 20
-196.211017
 30
0.0
 10
498.716640
 20
-195.428534
 30
0.0
  0
SPLINE
  5
107
100
AcDbEntity
  8
0
 62
7
100
AcDbSpline
 70
8
 71
3
 72
8
 73
4
 74
0
 40
0
 40
0
 40
0
 40
0
 40
1
 40
1
 40
1
 40
1
 10
471.133440
 20
-195.427094
 30
0.0
 10
471.133344
 20
-195.803116
 30
0.0
 10
471.282676
 20
-196.163764
 30
0.0
 10
471.548563
 20
-196.429651
 30
0.0
  0
SPLINE
  5
108
100
AcDbEntity
  8
0
 62
7
100
AcDbSpline
 70
8
 71
3
 72
8
 73
4
 74
0
 40
0
 40
0
 40
0
 40
0
 40
1
 40
1
 40
1
 40
1
 10
471.548563
 20
-196.429651
 30
0.0
 10
471.814451
 20
-196.695538
 30
0.0
 10
472.175099
 20
-196.844870
 30
0.0
 10
472.551120
 20
-196.844774
 30
0.0
  0
SPLINE
  5
109
100
AcDbEntity
  8
0
 62
7
100
AcDbSpline
 70
8
 71
3
 72
8
 73
4
 74
0
 40
0
 40
0
 40
0
 40
0
 40
1
 40
1
 40
1
 40
1
 10
429.619680
 20
-196.845494
 30
0.0
 10
430.402163
 20
-196.845296
 30
0.0
 10
431.036441
 20
-196.211017
 30
0.0
 10
431.036640
 20
-195.428534
 30
0.0
  0
SPLINE
  5
10a
100
AcDbEntity
  8
0
 62
7
100
AcDbSpline
 70
8
 71
3
 72
8
 73
4
 74
0
 40
0
 40
0
 40
0
 40
0
 40
1
 40
1
 40
1
 40
1
 10
410.559840
 20
-195.427094
 30
0.0
 10
410.559744
 20
-195.803116
 30
0.0
 10
410.709076
 20
-196.163764
 30
0.0
 10
410.974963
 20
-196.429651
 30
0.0
  0
SPLINE
  5
10b
100
AcDbEntity
  8
0
 62
7
100
AcDbSpline
 70
8
 71
3
 72
8
 73
4
 74
0
 40
0
 40
0
 40
0
 40
0
 40
1
 40
1
 40
1
 40
1
 10
410.974963
 20
-196.429651
 30
0.0
 10
411.240851
 20
-196.695538
 30
0.0
 10
411.601499
 20
-196.844870
 30
0.0
 10
411.977520
 20
-196.844774
 30
0.0
  0
SPLINE
  5
10c
100
AcDbEntity
  8
0
 62
7
100
AcDbSpline
 70
8
 71
3
 72
8
 73
4
 74
0
 40
0
 40
0
 40
0
 40
0
 40
1
 40
1
 40
1
 40
1
 10
375.619680
 20
-196.845494
 30
0.0
 10
376.402163
 20
-196.845296
 30
0.0
 10
377.036441
 20
-196.211017
 30
0.0
 10
377.036640
 20
-195.428534
 30
0.0
  0
SPLINE
  5
10d
100
AcDbEntity
  8
0
 62
7
100
AcDbSpline
 70
8
 71
3
 72
8
 73
4
 74
0
 40
0
 40
0
 40
0
 40
0
 40
1
 40
1
 40
1
 40
1
 10
342.879840
 20
-195.427094
 30
0.0
 10
342.879744
 20
-195.803116
 30
0.0
 10
343.029076
 20
-196.163764
 30
0.0
 10
343.294963
 20
-196.429651
 30
0.0
  0
SPLINE
  5
10e
100
AcDbEntity
  8
0
 62
7
100
AcDbSpline
 70
8
 71
3
 72
8
 73
4
 74
0
 40
0
 40
0
 40
0
 40
0
 40
1
 40
1
 40
1
 40
1
 10
343.294963
 20
-196.429651
 30
0.0
 10
343.560851
 20
-196.695538
 30
0.0
 10
343.921499
 20
-196.844870
 30
0.0
 10
344.297520
 20
-196.844774
 30
0.0
  0
SPLINE
  5
10f
100
AcDbEntity
  8
0
 62
7
100
AcDbSpline
 70
8
 71
3
 72
8
 73
4
 74
0
 40
0
 40
0
 40
0
 40
0
 40
1
 40
1
 40
1
 40
1
 10
268.719840
 20
-195.427094
 30
0.0
 10
268.719744
 20
-195.803116
 30
0.0
 10
268.869076
 20
-196.163764
 30
0.0
 10
269.134963
 20
-196.429651
 30
0.0
  0
SPLINE
  5
110
100
AcDbEntity
  8
0
 62
7
100
AcDbSpline
 70
8
 71
3
 72
8
 73
4
 74
0
 40
0
 40
0
 40
0
 40
0
 40
1
 40
1
 40
1
 40
1
 10
269.134963
 20
-196.429651
 30
0.0
 10
269.400851
 20
-196.695538
 30
0.0
 10
269.761499
 20
-196.844870
 30
0.0
 10
270.137520
 20
-196.844774
 30
0.0
  0
SPLINE
  5
111
100
AcDbEntity
  8
0
 62
7
100
AcDbSpline
 70
8
 71
3
 72
8
 73
4
 74
0
 40
0
 40
0
 40
0
 40
0
 40
1
 40
1
 40
1
 40
1
 10
233.981280
 20
-196.845494
 30
0.0
 10
234.763763
 20
-196.845296
 30
0.0
 10
235.398041
 20
-196.211017
 30
0.0
 10
235.398240
 20
-195.428534
 30
0.0
  0
SPLINE
  5
112
100
AcDbEntity
  8
0
 62
7
100
AcDbSpline
 70
8
 71
3
 72
8
 73
4
 74
0
 40
0
 40
0
 40
0
 40
0
 40
1
 40
1
 40
1
 40
1
 10
0.283468
 20
-250.704374
 30
0.0
 10
0.283468
 20
-255.400958
 30
0.0
 10
4.090800
 20
-259.208292
 30
0.0
 10
8.787384
 20
-259.208294
 30
0.0
  0
LWPOLYLINE
  5
113
100
AcDbEntity
  8
0
 62
7
100
AcDbPolyline
 90
2
 70
0
 10
0.280800
 20
-250.702214
 30
0.0
 10
0.280800
 20
-6.269414
 30
0.0
  0
SPLINE
  5
114
100
AcDbEntity
  8
0
 62
7
100
AcDbSpline
 70
8
 71
3
 72
8
 73
4
 74
0
 40
0
 40
0
 40
0
 40
0
 40
1
 40
1
 40
1
 40
1
 10
751.816800
 20
-259.208294
 30
0.0
 10
756.513104
 20
-259.207897
 30
0.0
 10
760.320000
 20
-255.400679
 30
0.0
 10
760.320000
 20
-250.704374
 30
0.0
  0
LWPOLYLINE
  5
115
100
AcDbEntity
  8
0
 62
7
100
AcDbPolyline
 90
2
 70
0
 10
751.816800
 20
-259.205414
 30
0.0
 10
8.784000
 20
-259.205414
 30
0.0
  0
SPLINE
  5
116
100
AcDbEntity
  8
0
 62
7
100
AcDbSpline
 70
8
 71
3
 72
8
 73
4
 74
0
 40
0
 40
0
 40
0
 40
0
 40
1
 40
1
 40
1
 40
1
 10
760.320000
 20
-6.272798
 30
0.0
 10
760.319998
 20
-1.576496
 30
0.0
 10
756.513103
 20
2.230720
 30
0.0
 10
751.816800
 20
2.231118
 30
0.0
  0
LWPOLYLINE
  5
117
100
AcDbEntity
  8
0
 62
7
100
AcDbPolyline
 90
2
 70
0
 10
760.320000
 20
-6.269414
 30
0.0
 10
760.320000
 20
-250.702214
 30
0.0
  0
SPLINE
  5
118
100
AcDbEntity
  8
0
 62
7
100
AcDbSpline
 70
8
 71
3
 72
8
 73
4
 74
0
 40
0
 40
0
 40
0
 40
0
 40
1
 40
1
 40
1
 40
1
 10
8.787384
 20
2.231118
 30
0.0
 10
4.090801
 20
2.231116
 30
0.0
 10
0.283470
 20
-1.576216
 30
0.0
 10
0.283468
 20
-6.272798
 30
0.0
  0
SPLINE
  5
119
100
AcDbEntity
  8
0
 62
7
100
AcDbSpline
 70
8
 71
3
 72
8
 73
4
 74
0
 40
0
 40
0
 40
0
 40
0
 40
1
 40
1
 40
1
 40
1
 10
8.787384
 20
-247.586263
 30
0.0
 10
7.526226
 20
-247.586263
 30
0.0
 10
6.389249
 20
-248.345967
 30
0.0
 10
5.906625
 20
-249.511125
 30
0.0
  0
SPLINE
  5
11a
100
AcDbEntity
  8
0
 62
7
100
AcDbSpline
 70
8
 71
3
 72
8
 73
4
 74
0
 40
0
 40
0
 40
0
 40
0
 40
1
 40
1
 40
1
 40
1
 10
5.906625
 20
-249.511125
 30
0.0
 10
5.424001
 20
-250.676283
 30
0.0
 10
5.690773
 20
-252.017438
 30
0.0
 10
6.582546
 20
-252.909212
 30
0.0
  0
SPLINE
  5
11b
100
AcDbEntity
  8
0
 62
7
100
AcDbSpline
 70
8
 71
3
 72
8
 73
4
 74
0
 40
0
 40
0
 40
0
 40
0
 40
1
 40
1
 40
1
 40
1
 10
6.582546
 20
-252.909212
 30
0.0
 10
7.474320
 20
-253.800986
 30
0.0
 10
8.815475
 20
-254.067758
 30
0.0
 10
9.980633
 20
-253.585134
 30
0.0
  0
SPLINE
  5
11c
100
AcDbEntity
  8
0
 62
7
100
AcDbSpline
 70
8
 71
3
 72
8
 73
4
 74
0
 40
0
 40
0
 40
0
 40
0
 40
1
 40
1
 40
1
 40
1
 10
9.980633
 20
-253.585134
 30
0.0
 10
11.145792
 20
-253.102509
 30
0.0
 10
11.905495
 20
-251.965533
 30
0.0
 10
11.905495
 20
-250.704374
 30
0.0
  0
SPLINE
  5
11d
100
AcDbEntity
  8
0
 62
7
100
AcDbSpline
 70
8
 71
3
 72
8
 73
4
 74
0
 40
0
 40
0
 40
0
 40
0
 40
1
 40
1
 40
1
 40
1
 10
11.905495
 20
-250.704374
 30
0.0
 10
11.905495
 20
-249.877400
 30
0.0
 10
11.576981
 20
-249.084296
 30
0.0
 10
10.992222
 20
-248.499537
 30
0.0
  0
SPLINE
  5
11e
100
AcDbEntity
  8
0
 62
7
100
AcDbSpline
 70
8
 71
3
 72
8
 73
4
 74
0
 40
0
 40
0
 40
0
 40
0
 40
1
 40
1
 40
1
 40
1
 10
10.992222
 20
-248.499537
 30
0.0
 10
10.407462
 20
-247.914778
 30
0.0
 10
9.614359
 20
-247.586263
 30
0.0
 10
8.787384
 20
-247.586263
 30
0.0
  0
LWPOLYLINE
  5
11f
100
AcDbEntity
  8
0
 62
7
100
AcDbPolyline
 90
2
 70
0
 10
8.784000
 20
2.233786
 30
0.0
 10
751.816800
 20
2.233786
 30
0.0
  0
SPLINE
  5
120
100
AcDbEntity
  8
0
 62
7
100
AcDbSpline
 70
8
 71
3
 72
8
 73
4
 74
0
 40
0
 40
0
 40
0
 40
0
 40
1
 40
1
 40
1
 40
1
 10
83.303280
 20
-132.570583
 30
0.0
 10
82.042122
 20
-132.570583
 30
0.0
 10
80.905145
 20
-133.330287
 30
0.0
 10
80.422521
 20
-134.495445
 30
0.0
  0
SPLINE
  5
121
100
AcDbEntity
  8
0
 62
7
100
AcDbSpline
 70
8
 71
3
 72
8
 73
4
 74
0
 40
0
 40
0
 40
0
 40
0
 40
1
 40
1
 40
1
 40
1
 10
80.422521
 20
-134.495445
 30
0.0
 10
79.939897
 20
-135.660603
 30
0.0
 10
80.206669
 20
-137.001758
 30
0.0
 10
81.098442
 20
-137.893532
 30
0.0
  0
SPLINE
  5
122
100
AcDbEntity
  8
0
 62
7
100
AcDbSpline
 70
8
 71
3
 72
8
 73
4
 74
0
 40
0
 40
0
 40
0
 40
0
 40
1
 40
1
 40
1
 40
1
 10
81.098442
 20
-137.893532
 30
0.0
 10
81.990216
 20
-138.785306
 30
0.0
 10
83.331371
 20
-139.052078
 30
0.0
 10
84.496529
 20
-138.569454
 30
0.0
  0
SPLINE
  5
123
100
AcDbEntity
  8
0
 62
7
100
AcDbSpline
 70
8
 71
3
 72
8
 73
4
 74
0
 40
0
 40
0
 40
0
 40
0
 40
1
 40
1
 40
1
 40
1
 10
84.496529
 20
-138.569454
 30
0.0
 10
85.661688
 20
-138.086829
 30
0.0
 10
86.421391
 20
-136.949853
 30
0.0
 10
86.421391
 20
-135.688694
 30
0.0
  0
SPLINE
  5
124
100
AcDbEntity
  8
0
 62
7
100
AcDbSpline
 70
8
 71
3
 72
8
 73
4
 74
0
 40
0
 40
0
 40
0
 40
0
 40
1
 40
1
 40
1
 40
1
 10
86.421391
 20
-135.688694
 30
0.0
 10
86.421391
 20
-134.861720
 30
0.0
 10
86.092877
 20
-134.068616
 30
0.0
 10
85.508118
 20
-133.483857
 30
0.0
  0
SPLINE
  5
125
100
AcDbEntity
  8
0
 62
7
100
AcDbSpline
 70
8
 71
3
 72
8
 73
4
 74
0
 40
0
 40
0
 40
0
 40
0
 40
1
 40
1
 40
1
 40
1
 10
85.508118
 20
-133.483857
 30
0.0
 10
84.923358
 20
-132.899098
 30
0.0
 10
84.130255
 20
-132.570583
 30
0.0
 10
83.303280
 20
-132.570583
 30
0.0
  0
LWPOLYLINE
  5
126
100
AcDbEntity
  8
0
 62
7
100
AcDbPolyline
 90
1
 70
1
 10
8.787384
 20
-247.586263
 30
0.0
  0
SPLINE
  5
127
100
AcDbEntity
  8
0
 62
7
100
AcDbSpline
 70
8
 71
3
 72
8
 73
4
 74
0
 40
0
 40
0
 40
0
 40
0
 40
1
 40
1
 40
1
 40
1
 10
504.141840
 20
-3.154687
 30
0.0
 10
502.880682
 20
-3.154687
 30
0.0
 10
501.743705
 20
-3.914391
 30
0.0
 10
501.261081
 20
-5.079549
 30
0.0
  0
SPLINE
  5
128
100
AcDbEntity
  8
0
 62
7
100
AcDbSpline
 70
8
 71
3
 72
8
 73
4
 74
0
 40
0
 40
0
 40
0
 40
0
 40
1
 40
1
 40
1
 40
1
 10
501.261081
 20
-5.079549
 30
0.0
 10
500.778457
 20
-6.244707
 30
0.0
 10
501.045229
 20
-7.585862
 30
0.0
 10
501.937002
 20
-8.477636
 30
0.0
  0
SPLINE
  5
129
100
AcDbEntity
  8
0
 62
7
100
AcDbSpline
 70
8
 71
3
 72
8
 73
4
 74
0
 40
0
 40
0
 40
0
 40
0
 40
1
 40
1
 40
1
 40
1
 10
501.937002
 20
-8.477636
 30
0.0
 10
502.828776
 20
-9.369410
 30
0.0
 10
504.169931
 20
-9.636182
 30
0.0
 10
505.335089
 20
-9.153558
 30
0.0
  0
SPLINE
  5
12a
100
AcDbEntity
  8
0
 62
7
100
AcDbSpline
 70
8
 71
3
 72
8
 73
4
 74
0
 40
0
 40
0
 40
0
 40
0
 40
1
 40
1
 40
1
 40
1
 10
505.335089
 20
-9.153558
 30
0.0
 10
506.500248
 20
-8.670933
 30
0.0
 10
507.259951
 20
-7.533957
 30
0.0
 10
507.259951
 20
-6.272798
 30
0.0
  0
SPLINE
  5
12b
100
AcDbEntity
  8
0
 62
7
100
AcDbSpline
 70
8
 71
3
 72
8
 73
4
 74
0
 40
0
 40
0
 40
0
 40
0
 40
1
 40
1
 40
1
 40
1
 10
507.259951
 20
-6.272798
 30
0.0
 10
507.259951
 20
-5.445824
 30
0.0
 10
506.931437
 20
-4.652720
 30
0.0
 10
506.346678
 20
-4.067961
 30
0.0
  0
SPLINE
  5
12c
100
AcDbEntity
  8
0
 62
7
100
AcDbSpline
 70
8
 71
3
 72
8
 73
4
 74
0
 40
0
 40
0
 40
0
 40
0
 40
1
 40
1
 40
1
 40
1
 10
506.346678
 20
-4.067961
 30
0.0
 10
505.761918
 20
-3.483202
 30
0.0
 10
504.968815
 20
-3.154687
 30
0.0
 10
504.141840
 20
-3.154687
 30
0.0
  0
LWPOLYLINE
  5
12d
100
AcDbEntity
  8
0
 62
7
100
AcDbPolyline
 90
1
 70
1
 10
83.303280
 20
-132.570583
 30
0.0
  0
SPLINE
  5
12e
100
AcDbEntity
  8
0
 62
7
100
AcDbSpline
 70
8
 71
3
 72
8
 73
4
 74
0
 40
0
 40
0
 40
0
 40
0
 40
1
 40
1
 40
1
 40
1
 10
256.464720
 20
-3.154687
 30
0.0
 10
255.203562
 20
-3.154687
 30
0.0
 10
254.066585
 20
-3.914391
 30
0.0
 10
253.583961
 20
-5.079549
 30
0.0
  0
SPLINE
  5
12f
100
AcDbEntity
  8
0
 62
7
100
AcDbSpline
 70
8
 71
3
 72
8
 73
4
 74
0
 40
0
 40
0
 40
0
 40
0
 40
1
 40
1
 40
1
 40
1
 10
253.583961
 20
-5.079549
 30
0.0
 10
253.101337
 20
-6.244707
 30
0.0
 10
253.368109
 20
-7.585862
 30
0.0
 10
254.259882
 20
-8.477636
 30
0.0
  0
SPLINE
  5
130
100
AcDbEntity
  8
0
 62
7
100
AcDbSpline
 70
8
 71
3
 72
8
 73
4
 74
0
 40
0
 40
0
 40
0
 40
0
 40
1
 40
1
 40
1
 40
1
 10
254.259882
 20
-8.477636
 30
0.0
 10
255.151656
 20
-9.369410
 30
0.0
 10
256.492811
 20
-9.636182
 30
0.0
 10
257.657969
 20
-9.153558
 30
0.0
  0
SPLINE
  5
131
100
AcDbEntity
  8
0
 62
7
100
AcDbSpline
 70
8
 71
3
 72
8
 73
4
 74
0
 40
0
 40
0
 40
0
 40
0
 40
1
 40
1
 40
1
 40
1
 10
257.657969
 20
-9.153558
 30
0.0
 10
258.823128
 20
-8.670933
 30
0.0
 10
259.582831
 20
-7.533957
 30
0.0
 10
259.582831
 20
-6.272798
 30
0.0
  0
SPLINE
  5
132
100
AcDbEntity
  8
0
 62
7
100
AcDbSpline
 70
8
 71
3
 72
8
 73
4
 74
0
 40
0
 40
0
 40
0
 40
0
 40
1
 40
1
 40
1
 40
1
 10
259.582831
 20
-6.272798
 30
0.0
 10
259.582831
 20
-5.445824
 30
0.0
 10
259.254317
 20
-4.652720
 30
0.0
 10
258.669558
 20
-4.067961
 30
0.0
  0
SPLINE
  5
133
100
AcDbEntity
  8
0
 62
7
100
AcDbSpline
 70
8
 71
3
 72
8
 73
4
 74
0
 40
0
 40
0
 40
0
 40
0
 40
1
 40
1
 40
1
 40
1
 10
258.669558
 20
-4.067961
 30
0.0
 10
258.084798
 20
-3.483202
 30
0.0
 10
257.291695
 20
-3.154687
 30
0.0
 10
256.464720
 20
-3.154687
 30
0.0
  0
LWPOLYLINE
  5
134
100
AcDbEntity
  8
0
 62
7
100
AcDbPolyline
 90
1
 70
1
 10
504.141840
 20
-3.154687
 30
0.0
  0
SPLINE
  5
135
100
AcDbEntity
  8
0
 62
7
100
AcDbSpline
 70
8
 71
3
 72
8
 73
4
 74
0
 40
0
 40
0
 40
0
 40
0
 40
1
 40
1
 40
1
 40
1
 10
504.141840
 20
-247.586263
 30
0.0
 10
502.880682
 20
-247.586263
 30
0.0
 10
501.743705
 20
-248.345967
 30
0.0
 10
501.261081
 20
-249.511125
 30
0.0
  0
SPLINE
  5
136
100
AcDbEntity
  8
0
 62
7
100
AcDbSpline
 70
8
 71
3
 72
8
 73
4
 74
0
 40
0
 40
0
 40
0
 40
0
 40
1
 40
1
 40
1
 40
1
 10
501.261081
 20
-249.511125
 30
0.0
 10
500.778457
 20
-250.676283
 30
0.0
 10
501.045229
 20
-252.017438
 30
0.0
 10
501.937002
 20
-252.909212
 30
0.0
  0
SPLINE
  5
137
100
AcDbEntity
  8
0
 62
7
100
AcDbSpline
 70
8
 71
3
 72
8
 73
4
 74
0
 40
0
 40
0
 40
0
 40
0
 40
1
 40
1
 40
1
 40
1
 10
501.937002
 20
-252.909212
 30
0.0
 10
502.828776
 20
-253.800986
 30
0.0
 10
504.169931
 20
-254.067758
 30
0.0
 10
505.335089
 20
-253.585134
 30
0.0
  0
SPLINE
  5
138
100
AcDbEntity
  8
0
 62
7
100
AcDbSpline
 70
8
 71
3
 72
8
 73
4
 74
0
 40
0
 40
0
 40
0
 40
0
 40
1
 40
1
 40
1
 40
1
 10
505.335089
 20
-253.585134
 30
0.0
 10
506.500248
 20
-253.102509
 30
0.0
 10
507.259951
 20
-251.965533
 30
0.0
 10
507.259951
 20
-250.704374
 30
0.0
  0
SPLINE
  5
139
100
AcDbEntity
  8
0
 62
7
100
AcDbSpline
 70
8
 71
3
 72
8
 73
4
 74
0
 40
0
 40
0
 40
0
 40
0
 40
1
 40
1
 40
1
 40
1
 10
507.259951
 20
-250.704374
 30
0.0
 10
507.259951
 20
-249.877400
 30
0.0
 10
506.931437
 20
-249.084296
 30
0.0
 10
506.346678
 20
-248.499537
 30
0.0
  0
SPLINE
  5
13a
100
AcDbEntity
  8
0
 62
7
100
AcDbSpline
 70
8
 71
3
 72
8
 73
4
 74
0
 40
0
 40
0
 40
0
 40
0
 40
1
 40
1
 40
1
 40
1
 10
506.346678
 20
-248.499537
 30
0.0
 10
505.761918
 20
-247.914778
 30
0.0
 10
504.968815
 20
-247.586263
 30
0.0
 10
504.141840
 20
-247.586263
 30
0.0
  0
LWPOLYLINE
  5
13b
100
AcDbEntity
  8
0
 62
7
100
AcDbPolyline
 90
1
 70
1
 10
256.464720
 20
-3.154687
 30
0.0
  0
SPLINE
  5
13c
100
AcDbEntity
  8
0
 62
7
100
AcDbSpline
 70
8
 71
3
 72
8
 73
4
 74
0
 40
0
 40
0
 40
0
 40
0
 40
1
 40
1
 40
1
 40
1
 10
256.464720
 20
-247.586263
 30
0.0
 10
255.203562
 20
-247.586263
 30
0.0
 10
254.066585
 20
-248.345967
 30
0.0
 10
253.583961
 20
-249.511125
 30
0.0
  0
SPLINE
  5
13d
100
AcDbEntity
  8
0
 62
7
100
AcDbSpline
 70
8
 71
3
 72
8
 73
4
 74
0
 40
0
 40
0
 40
0
 40
0
 40
1
 40
1
 40
1
 40
1
 10
253.583961
 20
-249.511125
 30
0.0
 10
253.101337
 20
-250.676283
 30
0.0
 10
253.368109
 20
-252.017438
 30
0.0
 10
254.259882
 20
-252.909212
 30
0.0
  0
SPLINE
  5
13e
100
AcDbEntity
  8
0
 62
7
100
AcDbSpline
 70
8
 71
3
 72
8
 73
4
 74
0
 40
0
 40
0
 40
0
 40
0
 40
1
 40
1
 40
1
 40
1
 10
254.259882
 20
-252.909212
 30
0.0
 10
255.151656
 20
-253.800986
 30
0.0
 10
256.492811
 20
-254.067758
 30
0.0
 10
257.657969
 20
-253.585134
 30
0.0
  0
SPLINE
  5
13f
100
AcDbEntity
  8
0
 62
7
100
AcDbSpline
 70
8
 71
3
 72
8
 73
4
 74
0
 40
0
 40
0
 40
0
 40
0
 40
1
 40
1
 40
1
 40
1
 10
257.657969
 20
-253.585134
 30
0.0
 10
258.823128
 20
-253.102509
 30
0.0
 10
259.582831
 20
-251.965533
 30
0.0
 10
259.582831
 20
-250.704374
 30
0.0
  0
SPLINE
  5
140
100
AcDbEntity
  8
0
 62
7
100
AcDbSpline
 70
8
 71
3
 72
8
 73
4
 74
0
 40
0
 40
0
 40
0
 40
0
 40
1
 40
1
 40
1
 40
1
 10
259.582831
 20
-250.704374
 30
0.0
 10
259.582831
 20
-249.877400
 30
0.0
 10
259.254317
 20
-249.084296
 30
0.0
 10
258.669558
 20
-248.499537
 30
0.0
  0
SPLINE
  5
141
100
AcDbEntity
  8
0
 62
7
100
AcDbSpline
 70
8
 71
3
 72
8
 73
4
 74
0
 40
0
 40
0
 40
0
 40
0
 40
1
 40
1
 40
1
 40
1
 10
258.669558
 20
-248.499537
 30
0.0
 10
258.084798
 20
-247.914778
 30
0.0
 10
257.291695
 20
-247.586263
 30
0.0
 10
256.464720
 20
-247.586263
 30
0.0
  0
LWPOLYLINE
  5
142
100
AcDbEntity
  8
0
 62
7
100
AcDbPolyline
 90
1
 70
1
 10
504.141840
 20
-247.586263
 30
0.0
  0
SPLINE
  5
143
100
AcDbEntity
  8
0
 62
7
100
AcDbSpline
 70
8
 71
3
 72
8
 73
4
 74
0
 40
0
 40
0
 40
0
 40
0
 40
1
 40
1
 40
1
 40
1
 10
751.816800
 20
-247.586263
 30
0.0
 10
750.555642
 20
-247.586263
 30
0.0
 10
749.418665
 20
-248.345967
 30
0.0
 10
748.936041
 20
-249.511125
 30
0.0
  0
SPLINE
  5
144
100
AcDbEntity
  8
0
 62
7
100
AcDbSpline
 70
8
 71
3
 72
8
 73
4
 74
0
 40
0
 40
0
 40
0
 40
0
 40
1
 40
1
 40
1
 40
1
 10
748.936041
 20
-249.511125
 30
0.0
 10
748.453417
 20
-250.676283
 30
0.0
 10
748.720189
 20
-252.017438
 30
0.0
 10
749.611962
 20
-252.909212
 30
0.0
  0
SPLINE
  5
145
100
AcDbEntity
  8
0
 62
7
100
AcDbSpline
 70
8
 71
3
 72
8
 73
4
 74
0
 40
0
 40
0
 40
0
 40
0
 40
1
 40
1
 40
1
 40
1
 10
749.611962
 20
-252.909212
 30
0.0
 10
750.503736
 20
-253.800986
 30
0.0
 10
751.844891
 20
-254.067758
 30
0.0
 10
753.010049
 20
-253.585134
 30
0.0
  0
SPLINE
  5
146
100
AcDbEntity
  8
0
 62
7
100
AcDbSpline
 70
8
 71
3
 72
8
 73
4
 74
0
 40
0
 40
0
 40
0
 40
0
 40
1
 40
1
 40
1
 40
1
 10
753.010049
 20
-253.585134
 30
0.0
 10
754.175208
 20
-253.102509
 30
0.0
 10
754.934911
 20
-251.965533
 30
0.0
 10
754.934911
 20
-250.704374
 30
0.0
  0
SPLINE
  5
147
100
AcDbEntity
  8
0
 62
7
100
AcDbSpline
 70
8
 71
3
 72
8
 73
4
 74
0
 40
0
 40
0
 40
0
 40
0
 40
1
 40
1
 40
1
 40
1
 10
754.934911
 20
-250.704374
 30
0.0
 10
754.934911
 20
-249.877400
 30
0.0
 10
754.606397
 20
-249.084296
 30
0.0
 10
754.021638
 20
-248.499537
 30
0.0
  0
SPLINE
  5
148
100
AcDbEntity
  8
0
 62
7
100
AcDbSpline
 70
8
 71
3
 72
8
 73
4
 74
0
 40
0
 40
0
 40
0
 40
0
 40
1
 40
1
 40
1
 40
1
 10
754.021638
 20
-248.499537
 30
0.0
 10
753.436878
 20
-247.914778
 30
0.0
 10
752.643775
 20
-247.586263
 30
0.0
 10
751.816800
 20
-247.586263
 30
0.0
  0
LWPOLYLINE
  5
149
100
AcDbEntity
  8
0
 62
7
100
AcDbPolyline
 90
1
 70
1
 10
256.464720
 20
-247.586263
 30
0.0
  0
SPLINE
  5
14a
100
AcDbEntity
  8
0
 62
7
100
AcDbSpline
 70
8
 71
3
 72
8
 73
4
 74
0
 40
0
 40
0
 40
0
 40
0
 40
1
 40
1
 40
1
 40
1
 10
751.816800
 20
-3.154687
 30
0.0
 10
750.555642
 20
-3.154687
 30
0.0
 10
749.418665
 20
-3.914391
 30
0.0
 10
748.936041
 20
-5.079549
 30
0.0
  0
SPLINE
  5
14b
100
AcDbEntity
  8
0
 62
7
100
AcDbSpline
 70
8
 71
3
 72
8
 73
4
 74
0
 40
0
 40
0
 40
0
 40
0
 40
1
 40
1
 40
1
 40
1
 10
748.936041
 20
-5.079549
 30
0.0
 10
748.453417
 20
-6.244707
 30
0.0
 10
748.720189
 20
-7.585862
 30
0.0
 10
749.611962
 20
-8.477636
 30
0.0
  0
SPLINE
  5
14c
100
AcDbEntity
  8
0
 62
7
100
AcDbSpline
 70
8
 71
3
 72
8
 73
4
 74
0
 40
0
 40
0
 40
0
 40
0
 40
1
 40
1
 40
1
 40
1
 10
749.611962
 20
-8.477636
 30
0.0
 10
750.503736
 20
-9.369410
 30
0.0
 10
751.844891
 20
-9.636182
 30
0.0
 10
753.010049
 20
-9.153558
 30
0.0
  0
SPLINE
  5
14d
100
AcDbEntity
  8
0
 62
7
100
AcDbSpline
 70
8
 71
3
 72
8
 73
4
 74
0
 40
0
 40
0
 40
0
 40
0
 40
1
 40
1
 40
1
 40
1
 10
753.010049
 20
-9.153558
 30
0.0
 10
754.175208
 20
-8.670933
 30
0.0
 10
754.934911
 20
-7.533957
 30
0.0
 10
754.934911
 20
-6.272798
 30
0.0
  0
SPLINE
  5
14e
100
AcDbEntity
  8
0
 62
7
100
AcDbSpline
 70
8
 71
3
 72
8
 73
4
 74
0
 40
0
 40
0
 40
0
 40
0
 40
1
 40
1
 40
1
 40
1
 10
754.934911
 20
-6.272798
 30
0.0
 10
754.934911
 20
-5.445824
 30
0.0
 10
754.606397
 20
-4.652720
 30
0.0
 10
754.021638
 20
-4.067961
 30
0.0
  0
SPLINE
  5
14f
100
AcDbEntity
  8
0
 62
7
100
AcDbSpline
 70
8
 71
3
 72
8
 73
4
 74
0
 40
0
 40
0
 40
0
 40
0
 40
1
 40
1
 40
1
 40
1
 10
754.021638
 20
-4.067961
 30
0.0
 10
753.436878
 20
-3.483202
 30
0.0
 10
752.643775
 20
-3.154687
 30
0.0
 10
751.816800
 20
-3.154687
 30
0.0
  0
LWPOLYLINE
  5
150
100
AcDbEntity
  8
0
 62
7
100
AcDbPolyline
 90
1
 70
1
 10
751.816800
 20
-247.586263
 30
0.0
  0
SPLINE
  5
151
100
AcDbEntity
  8
0
 62
7
100
AcDbSpline
 70
8
 71
3
 72
8
 73
4
 74
0
 40
0
 40
0
 40
0
 40
0
 40
1
 40
1
 40
1
 40
1
 10
8.787384
 20
-3.154687
 30
0.0
 10
7.526226
 20
-3.154687
 30
0.0
 10
6.389249
 20
-3.914391
 30
0.0
 10
5.906625
 20
-5.079549
 30
0.0
  0
SPLINE
  5
152
100
AcDbEntity
  8
0
 62
7
100
AcDbSpline
 70
8
 71
3
 72
8
 73
4
 74
0
 40
0
 40
0
 40
0
 40
0
 40
1
 40
1
 40
1
 40
1
 10
5.906625
 20
-5.079549
 30
0.0
 10
5.424001
 20
-6.244707
 30
0.0
 10
5.690773
 20
-7.585862
 30
0.0
 10
6.582546
 20
-8.477636
 30
0.0
  0
SPLINE
  5
153
100
AcDbEntity
  8
0
 62
7
100
AcDbSpline
 70
8
 71
3
 72
8
 73
4
 74
0
 40
0
 40
0
 40
0
 40
0
 40
1
 40
1
 40
1
 40
1
 10
6.582546
 20
-8.477636
 30
0.0
 10
7.474320
 20
-9.369410
 30
0.0
 10
8.815475
 20
-9.636182
 30
0.0
 10
9.980633
 20
-9.153558
 30
0.0
  0
SPLINE
  5
154
100
AcDbEntity
  8
0
 62
7
100
AcDbSpline
 70
8
 71
3
 72
8
 73
4
 74
0
 40
0
 40
0
 40
0
 40
0
 40
1
 40
1
 40
1
 40
1
 10
9.980633
 20
-9.153558
 30
0.0
 10
11.145792
 20
-8.670933
 30
0.0
 10
11.905495
 20
-7.533957
 30
0.0
 10
11.905495
 20
-6.272798
 30
0.0
  0
SPLINE
  5
155
100
AcDbEntity
  8
0
 62
7
100
AcDbSpline
 70
8
 71
3
 72
8
 73
4
 74
0
 40
0
 40
0
 40
0
 40
0
 40
1
 40
1
 40
1
 40
1
 10
11.905495
 20
-6.272798
 30
0.0
 10
11.905495
 20
-5.445824
 30
0.0
 10
11.576981
 20
-4.652720
 30
0.0
 10
10.992222
 20
-4.067961
 30
0.0
  0
SPLINE
  5
156
100
AcDbEntity
  8
0
 62
7
100
AcDbSpline
 70
8
 71
3
 72
8
 73
4
 74
0
 40
0
 40
0
 40
0
 40
0
 40
1
 40
1
 40
1
 40
1
 10
10.992222
 20
-4.067961
 30
0.0
 10
10.407462
 20
-3.483202
 30
0.0
 10
9.614359
 20
-3.154687
 30
0.0
 10
8.787384
 20
-3.154687
 30
0.0
  0
LWPOLYLINE
  5
157
100
AcDbEntity
  8
0
 62
7
100
AcDbPolyline
 90
1
 70
1
 10
751.816800
 20
-3.154687
 30
0.0
  0
LWPOLYLINE
  5
158
100
AcDbEntity
  8
0
 62
7
100
AcDbPolyline
 90
1
 70
1
 10
8.787384
 20
-3.154687
 30
0.0
  0
LWPOLYLINE
  5
159
100
AcDbEntity
  8
0
 62
7
100
AcDbPolyline
 90
2
 70
0
 10
682.704000
 20
-236.439014
 30
0.0
 10
683.078400
 20
-236.237414
 30
0.0
  0
LWPOLYLINE
  5
15a
100
AcDbEntity
  8
0
 62
7
100
AcDbPolyline
 90
2
 70
0
 10
682.221600
 20
-236.518214
 30
0.0
 10
682.704000
 20
-236.439014
 30
0.0
  0
LWPOLYLINE
  5
15b
100
AcDbEntity
  8
0
 62
7
100
AcDbPolyline
 90
2
 70
0
 10
317.707200
 20
-236.518214
 30
0.0
 10
682.221600
 20
-236.518214
 30
0.0
  0
LWPOLYLINE
  5
15c
100
AcDbEntity
  8
0
 62
7
100
AcDbPolyline
 90
2
 70
0
 10
317.448000
 20
-236.496614
 30
0.0
 10
317.707200
 20
-236.518214
 30
0.0
  0
LWPOLYLINE
  5
15d
100
AcDbEntity
  8
0
 62
7
100
AcDbPolyline
 90
2
 70
0
 10
317.030400
 20
-236.352614
 30
0.0
 10
317.448000
 20
-236.496614
 30
0.0
  0
LWPOLYLINE
  5
15e
100
AcDbEntity
  8
0
 62
7
100
AcDbPolyline
 90
2
 70
0
 10
316.699200
 20
-236.107814
 30
0.0
 10
317.030400
 20
-236.352614
 30
0.0
  0
LWPOLYLINE
  5
15f
100
AcDbEntity
  8
0
 62
7
100
AcDbPolyline
 90
2
 70
0
 10
316.576800
 20
-235.963814
 30
0.0
 10
316.699200
 20
-236.107814
 30
0.0
  0
LWPOLYLINE
  5
160
100
AcDbEntity
  8
0
 62
7
100
AcDbPolyline
 90
2
 70
0
 10
316.375200
 20
-235.596614
 30
0.0
 10
316.576800
 20
-235.963814
 30
0.0
  0
LWPOLYLINE
  5
161
100
AcDbEntity
  8
0
 62
7
100
AcDbPolyline
 90
2
 70
0
 10
316.288800
 20
-235.107014
 30
0.0
 10
316.375200
 20
-235.596614
 30
0.0
  0
LWPOLYLINE
  5
162
100
AcDbEntity
  8
0
 62
7
100
AcDbPolyline
 90
2
 70
0
 10
316.288800
 20
-195.420614
 30
0.0
 10
316.288800
 20
-235.107014
 30
0.0
  0
LWPOLYLINE
  5
163
100
AcDbEntity
  8
0
 62
7
100
AcDbPolyline
 90
2
 70
0
 10
316.310400
 20
-195.161414
 30
0.0
 10
316.288800
 20
-195.420614
 30
0.0
  0
LWPOLYLINE
  5
164
100
AcDbEntity
  8
0
 62
7
100
AcDbPolyline
 90
2
 70
0
 10
316.454400
 20
-194.743814
 30
0.0
 10
316.310400
 20
-195.161414
 30
0.0
  0
LWPOLYLINE
  5
165
100
AcDbEntity
  8
0
 62
7
100
AcDbPolyline
 90
2
 70
0
 10
316.699200
 20
-194.419814
 30
0.0
 10
316.454400
 20
-194.743814
 30
0.0
  0
LWPOLYLINE
  5
166
100
AcDbEntity
  8
0
 62
7
100
AcDbPolyline
 90
2
 70
0
 10
316.850400
 20
-194.283014
 30
0.0
 10
316.699200
 20
-194.419814
 30
0.0
  0
LWPOLYLINE
  5
167
100
AcDbEntity
  8
0
 62
7
100
AcDbPolyline
 90
2
 70
0
 10
317.217600
 20
-194.088614
 30
0.0
 10
316.850400
 20
-194.283014
 30
0.0
  0
LWPOLYLINE
  5
168
100
AcDbEntity
  8
0
 62
7
100
AcDbPolyline
 90
2
 70
0
 10
317.707200
 20
-194.002214
 30
0.0
 10
317.217600
 20
-194.088614
 30
0.0
  0
LWPOLYLINE
  5
169
100
AcDbEntity
  8
0
 62
7
100
AcDbPolyline
 90
2
 70
0
 10
341.460000
 20
-194.002214
 30
0.0
 10
317.707200
 20
-194.002214
 30
0.0
  0
LWPOLYLINE
  5
16a
100
AcDbEntity
  8
0
 62
7
100
AcDbPolyline
 90
2
 70
0
 10
341.712000
 20
-194.023814
 30
0.0
 10
341.460000
 20
-194.002214
 30
0.0
  0
LWPOLYLINE
  5
16b
100
AcDbEntity
  8
0
 62
7
100
AcDbPolyline
 90
2
 70
0
 10
342.136800
 20
-194.167814
 30
0.0
 10
341.712000
 20
-194.023814
 30
0.0
  0
LWPOLYLINE
  5
16c
100
AcDbEntity
  8
0
 62
7
100
AcDbPolyline
 90
2
 70
0
 10
342.460800
 20
-194.419814
 30
0.0
 10
342.136800
 20
-194.167814
 30
0.0
  0
LWPOLYLINE
  5
16d
100
AcDbEntity
  8
0
 62
7
100
AcDbPolyline
 90
2
 70
0
 10
342.590400
 20
-194.563814
 30
0.0
 10
342.460800
 20
-194.419814
 30
0.0
  0
LWPOLYLINE
  5
16e
100
AcDbEntity
  8
0
 62
7
100
AcDbPolyline
 90
2
 70
0
 10
342.792000
 20
-194.931014
 30
0.0
 10
342.590400
 20
-194.563814
 30
0.0
  0
LWPOLYLINE
  5
16f
100
AcDbEntity
  8
0
 62
7
100
AcDbPolyline
 90
2
 70
0
 10
342.878400
 20
-195.420614
 30
0.0
 10
342.792000
 20
-194.931014
 30
0.0
  0
LWPOLYLINE
  5
170
100
AcDbEntity
  8
0
 62
7
100
AcDbPolyline
 90
2
 70
0
 10
375.616800
 20
-196.839014
 30
0.0
 10
344.296800
 20
-196.839014
 30
0.0
  0
LWPOLYLINE
  5
171
100
AcDbEntity
  8
0
 62
7
100
AcDbPolyline
 90
2
 70
0
 10
377.056800
 20
-195.161414
 30
0.0
 10
377.035200
 20
-195.420614
 30
0.0
  0
LWPOLYLINE
  5
172
100
AcDbEntity
  8
0
 62
7
100
AcDbPolyline
 90
2
 70
0
 10
377.208000
 20
-194.743814
 30
0.0
 10
377.056800
 20
-195.161414
 30
0.0
  0
LWPOLYLINE
  5
173
100
AcDbEntity
  8
0
 62
7
100
AcDbPolyline
 90
2
 70
0
 10
377.452800
 20
-194.419814
 30
0.0
 10
377.208000
 20
-194.743814
 30
0.0
  0
LWPOLYLINE
  5
174
100
AcDbEntity
  8
0
 62
7
100
AcDbPolyline
 90
2
 70
0
 10
377.604000
 20
-194.283014
 30
0.0
 10
377.452800
 20
-194.419814
 30
0.0
  0
LWPOLYLINE
  5
175
100
AcDbEntity
  8
0
 62
7
100
AcDbPolyline
 90
2
 70
0
 10
377.971200
 20
-194.088614
 30
0.0
 10
377.604000
 20
-194.283014
 30
0.0
  0
LWPOLYLINE
  5
176
100
AcDbEntity
  8
0
 62
7
100
AcDbPolyline
 90
2
 70
0
 10
378.453600
 20
-194.002214
 30
0.0
 10
377.971200
 20
-194.088614
 30
0.0
  0
LWPOLYLINE
  5
177
100
AcDbEntity
  8
0
 62
7
100
AcDbPolyline
 90
2
 70
0
 10
409.140000
 20
-194.002214
 30
0.0
 10
378.453600
 20
-194.002214
 30
0.0
  0
LWPOLYLINE
  5
178
100
AcDbEntity
  8
0
 62
7
100
AcDbPolyline
 90
2
 70
0
 10
409.392000
 20
-194.023814
 30
0.0
 10
409.140000
 20
-194.002214
 30
0.0
  0
LWPOLYLINE
  5
179
100
AcDbEntity
  8
0
 62
7
100
AcDbPolyline
 90
2
 70
0
 10
409.816800
 20
-194.167814
 30
0.0
 10
409.392000
 20
-194.023814
 30
0.0
  0
LWPOLYLINE
  5
17a
100
AcDbEntity
  8
0
 62
7
100
AcDbPolyline
 90
2
 70
0
 10
410.140800
 20
-194.419814
 30
0.0
 10
409.816800
 20
-194.167814
 30
0.0
  0
LWPOLYLINE
  5
17b
100
AcDbEntity
  8
0
 62
7
100
AcDbPolyline
 90
2
 70
0
 10
410.270400
 20
-194.563814
 30
0.0
 10
410.140800
 20
-194.419814
 30
0.0
  0
LWPOLYLINE
  5
17c
100
AcDbEntity
  8
0
 62
7
100
AcDbPolyline
 90
2
 70
0
 10
410.472000
 20
-194.931014
 30
0.0
 10
410.270400
 20
-194.563814
 30
0.0
  0
LWPOLYLINE
  5
17d
100
AcDbEntity
  8
0
 62
7
100
AcDbPolyline
 90
2
 70
0
 10
410.558400
 20
-195.420614
 30
0.0
 10
410.472000
 20
-194.931014
 30
0.0
  0
LWPOLYLINE
  5
17e
100
AcDbEntity
  8
0
 62
7
100
AcDbPolyline
 90
2
 70
0
 10
429.616800
 20
-196.839014
 30
0.0
 10
411.976800
 20
-196.839014
 30
0.0
  0
LWPOLYLINE
  5
17f
100
AcDbEntity
  8
0
 62
7
100
AcDbPolyline
 90
2
 70
0
 10
431.056800
 20
-195.161414
 30
0.0
 10
431.035200
 20
-195.420614
 30
0.0
  0
LWPOLYLINE
  5
180
100
AcDbEntity
  8
0
 62
7
100
AcDbPolyline
 90
2
 70
0
 10
431.208000
 20
-194.743814
 30
0.0
 10
431.056800
 20
-195.161414
 30
0.0
  0
LWPOLYLINE
  5
181
100
AcDbEntity
  8
0
 62
7
100
AcDbPolyline
 90
2
 70
0
 10
431.452800
 20
-194.419814
 30
0.0
 10
431.208000
 20
-194.743814
 30
0.0
  0
LWPOLYLINE
  5
182
100
AcDbEntity
  8
0
 62
7
100
AcDbPolyline
 90
2
 70
0
 10
431.604000
 20
-194.283014
 30
0.0
 10
431.452800
 20
-194.419814
 30
0.0
  0
LWPOLYLINE
  5
183
100
AcDbEntity
  8
0
 62
7
100
AcDbPolyline
 90
2
 70
0
 10
431.971200
 20
-194.088614
 30
0.0
 10
431.604000
 20
-194.283014
 30
0.0
  0
LWPOLYLINE
  5
184
100
AcDbEntity
  8
0
 62
7
100
AcDbPolyline
 90
2
 70
0
 10
432.453600
 20
-194.002214
 30
0.0
 10
431.971200
 20
-194.088614
 30
0.0
  0
LWPOLYLINE
  5
185
100
AcDbEntity
  8
0
 62
7
100
AcDbPolyline
 90
2
 70
0
 10
469.713600
 20
-194.002214
 30
0.0
 10
432.453600
 20
-194.002214
 30
0.0
  0
LWPOLYLINE
  5
186
100
AcDbEntity
  8
0
 62
7
100
AcDbPolyline
 90
2
 70
0
 10
469.965600
 20
-194.023814
 30
0.0
 10
469.713600
 20
-194.002214
 30
0.0
  0
LWPOLYLINE
  5
187
100
AcDbEntity
  8
0
 62
7
100
AcDbPolyline
 90
2
 70
0
 10
470.383200
 20
-194.167814
 30
0.0
 10
469.965600
 20
-194.023814
 30
0.0
  0
LWPOLYLINE
  5
188
100
AcDbEntity
  8
0
 62
7
100
AcDbPolyline
 90
2
 70
0
 10
470.714400
 20
-194.419814
 30
0.0
 10
470.383200
 20
-194.167814
 30
0.0
  0
LWPOLYLINE
  5
189
100
AcDbEntity
  8
0
 62
7
100
AcDbPolyline
 90
2
 70
0
 10
470.844000
 20
-194.563814
 30
0.0
 10
470.714400
 20
-194.419814
 30
0.0
  0
LWPOLYLINE
  5
18a
100
AcDbEntity
  8
0
 62
7
100
AcDbPolyline
 90
2
 70
0
 10
471.045600
 20
-194.931014
 30
0.0
 10
470.844000
 20
-194.563814
 30
0.0
  0
LWPOLYLINE
  5
18b
100
AcDbEntity
  8
0
 62
7
100
AcDbPolyline
 90
2
 70
0
 10
471.132000
 20
-195.420614
 30
0.0
 10
471.045600
 20
-194.931014
 30
0.0
  0
LWPOLYLINE
  5
18c
100
AcDbEntity
  8
0
 62
7
100
AcDbPolyline
 90
2
 70
0
 10
497.296800
 20
-196.839014
 30
0.0
 10
472.550400
 20
-196.839014
 30
0.0
  0
LWPOLYLINE
  5
18d
100
AcDbEntity
  8
0
 62
7
100
AcDbPolyline
 90
2
 70
0
 10
498.736800
 20
-195.161414
 30
0.0
 10
498.715200
 20
-195.420614
 30
0.0
  0
LWPOLYLINE
  5
18e
100
AcDbEntity
  8
0
 62
7
100
AcDbPolyline
 90
2
 70
0
 10
498.888000
 20
-194.743814
 30
0.0
 10
498.736800
 20
-195.161414
 30
0.0
  0
LWPOLYLINE
  5
18f
100
AcDbEntity
  8
0
 62
7
100
AcDbPolyline
 90
2
 70
0
 10
499.132800
 20
-194.419814
 30
0.0
 10
498.888000
 20
-194.743814
 30
0.0
  0
LWPOLYLINE
  5
190
100
AcDbEntity
  8
0
 62
7
100
AcDbPolyline
 90
2
 70
0
 10
499.284000
 20
-194.283014
 30
0.0
 10
499.132800
 20
-194.419814
 30
0.0
  0
LWPOLYLINE
  5
191
100
AcDbEntity
  8
0
 62
7
100
AcDbPolyline
 90
2
 70
0
 10
499.651200
 20
-194.088614
 30
0.0
 10
499.284000
 20
-194.283014
 30
0.0
  0
LWPOLYLINE
  5
192
100
AcDbEntity
  8
0
 62
7
100
AcDbPolyline
 90
2
 70
0
 10
500.133600
 20
-194.002214
 30
0.0
 10
499.651200
 20
-194.088614
 30
0.0
  0
LWPOLYLINE
  5
193
100
AcDbEntity
  8
0
 62
7
100
AcDbPolyline
 90
2
 70
0
 10
537.393600
 20
-194.002214
 30
0.0
 10
500.133600
 20
-194.002214
 30
0.0
  0
LWPOLYLINE
  5
194
100
AcDbEntity
  8
0
 62
7
100
AcDbPolyline
 90
2
 70
0
 10
537.645600
 20
-194.023814
 30
0.0
 10
537.393600
 20
-194.002214
 30
0.0
  0
LWPOLYLINE
  5
195
100
AcDbEntity
  8
0
 62
7
100
AcDbPolyline
 90
2
 70
0
 10
538.063200
 20
-194.167814
 30
0.0
 10
537.645600
 20
-194.023814
 30
0.0
  0
LWPOLYLINE
  5
196
100
AcDbEntity
  8
0
 62
7
100
AcDbPolyline
 90
2
 70
0
 10
538.394400
 20
-194.419814
 30
0.0
 10
538.063200
 20
-194.167814
 30
0.0
  0
LWPOLYLINE
  5
197
100
AcDbEntity
  8
0
 62
7
100
AcDbPolyline
 90
2
 70
0
 10
538.524000
 20
-194.563814
 30
0.0
 10
538.394400
 20
-194.419814
 30
0.0
  0
LWPOLYLINE
  5
198
100
AcDbEntity
  8
0
 62
7
100
AcDbPolyline
 90
2
 70
0
 10
538.725600
 20
-194.931014
 30
0.0
 10
538.524000
 20
-194.563814
 30
0.0
  0
LWPOLYLINE
  5
199
100
AcDbEntity
  8
0
 62
7
100
AcDbPolyline
 90
2
 70
0
 10
538.812000
 20
-195.420614
 30
0.0
 10
538.725600
 20
-194.931014
 30
0.0
  0
LWPOLYLINE
  5
19a
100
AcDbEntity
  8
0
 62
7
100
AcDbPolyline
 90
2
 70
0
 10
571.456800
 20
-196.839014
 30
0.0
 10
540.230400
 20
-196.839014
 30
0.0
  0
LWPOLYLINE
  5
19b
100
AcDbEntity
  8
0
 62
7
100
AcDbPolyline
 90
2
 70
0
 10
572.896800
 20
-195.161414
 30
0.0
 10
572.875200
 20
-195.420614
 30
0.0
  0
LWPOLYLINE
  5
19c
100
AcDbEntity
  8
0
 62
7
100
AcDbPolyline
 90
2
 70
0
 10
573.048000
 20
-194.743814
 30
0.0
 10
572.896800
 20
-195.161414
 30
0.0
  0
LWPOLYLINE
  5
19d
100
AcDbEntity
  8
0
 62
7
100
AcDbPolyline
 90
2
 70
0
 10
573.292800
 20
-194.419814
 30
0.0
 10
573.048000
 20
-194.743814
 30
0.0
  0
LWPOLYLINE
  5
19e
100
AcDbEntity
  8
0
 62
7
100
AcDbPolyline
 90
2
 70
0
 10
573.444000
 20
-194.283014
 30
0.0
 10
573.292800
 20
-194.419814
 30
0.0
  0
LWPOLYLINE
  5
19f
100
AcDbEntity
  8
0
 62
7
100
AcDbPolyline
 90
2
 70
0
 10
573.811200
 20
-194.088614
 30
0.0
 10
573.444000
 20
-194.283014
 30
0.0
  0
LWPOLYLINE
  5
1a0
100
AcDbEntity
  8
0
 62
7
100
AcDbPolyline
 90
2
 70
0
 10
574.293600
 20
-194.002214
 30
0.0
 10
573.811200
 20
-194.088614
 30
0.0
  0
LWPOLYLINE
  5
1a1
100
AcDbEntity
  8
0
 62
7
100
AcDbPolyline
 90
2
 70
0
 10
591.300000
 20
-194.002214
 30
0.0
 10
574.293600
 20
-194.002214
 30
0.0
  0
LWPOLYLINE
  5
1a2
100
AcDbEntity
  8
0
 62
7
100
AcDbPolyline
 90
2
 70
0
 10
591.552000
 20
-194.023814
 30
0.0
 10
591.300000
 20
-194.002214
 30
0.0
  0
LWPOLYLINE
  5
1a3
100
AcDbEntity
  8
0
 62
7
100
AcDbPolyline
 90
2
 70
0
 10
591.976800
 20
-194.167814
 30
0.0
 10
591.552000
 20
-194.023814
 30
0.0
  0
LWPOLYLINE
  5
1a4
100
AcDbEntity
  8
0
 62
7
100
AcDbPolyline
 90
2
 70
0
 10
592.300800
 20
-194.419814
 30
0.0
 10
591.976800
 20
-194.167814
 30
0.0
  0
LWPOLYLINE
  5
1a5
100
AcDbEntity
  8
0
 62
7
100
AcDbPolyline
 90
2
 70
0
 10
592.430400
 20
-194.563814
 30
0.0
 10
592.300800
 20
-194.419814
 30
0.0
  0
LWPOLYLINE
  5
1a6
100
AcDbEntity
  8
0
 62
7
100
AcDbPolyline
 90
2
 70
0
 10
592.632000
 20
-194.931014
 30
0.0
 10
592.430400
 20
-194.563814
 30
0.0
  0
LWPOLYLINE
  5
1a7
100
AcDbEntity
  8
0
 62
7
100
AcDbPolyline
 90
2
 70
0
 10
592.718400
 20
-195.420614
 30
0.0
 10
592.632000
 20
-194.931014
 30
0.0
  0
LWPOLYLINE
  5
1a8
100
AcDbEntity
  8
0
 62
7
100
AcDbPolyline
 90
2
 70
0
 10
682.221600
 20
-196.839014
 30
0.0
 10
594.136800
 20
-196.839014
 30
0.0
  0
LWPOLYLINE
  5
1a9
100
AcDbEntity
  8
0
 62
7
100
AcDbPolyline
 90
2
 70
0
 10
682.473600
 20
-196.860614
 30
0.0
 10
682.221600
 20
-196.839014
 30
0.0
  0
LWPOLYLINE
  5
1aa
100
AcDbEntity
  8
0
 62
7
100
AcDbPolyline
 90
2
 70
0
 10
682.898400
 20
-197.004614
 30
0.0
 10
682.473600
 20
-196.860614
 30
0.0
  0
LWPOLYLINE
  5
1ab
100
AcDbEntity
  8
0
 62
7
100
AcDbPolyline
 90
2
 70
0
 10
683.222400
 20
-197.249414
 30
0.0
 10
682.898400
 20
-197.004614
 30
0.0
  0
LWPOLYLINE
  5
1ac
100
AcDbEntity
  8
0
 62
7
100
AcDbPolyline
 90
2
 70
0
 10
683.352000
 20
-197.400614
 30
0.0
 10
683.222400
 20
-197.249414
 30
0.0
  0
LWPOLYLINE
  5
1ad
100
AcDbEntity
  8
0
 62
7
100
AcDbPolyline
 90
2
 70
0
 10
683.553600
 20
-197.767814
 30
0.0
 10
683.352000
 20
-197.400614
 30
0.0
  0
LWPOLYLINE
  5
1ae
100
AcDbEntity
  8
0
 62
7
100
AcDbPolyline
 90
2
 70
0
 10
683.640000
 20
-198.250214
 30
0.0
 10
683.553600
 20
-197.767814
 30
0.0
  0
LWPOLYLINE
  5
1af
100
AcDbEntity
  8
0
 62
7
100
AcDbPolyline
 90
2
 70
0
 10
683.640000
 20
-235.107014
 30
0.0
 10
683.640000
 20
-198.250214
 30
0.0
  0
LWPOLYLINE
  5
1b0
100
AcDbEntity
  8
0
 62
7
100
AcDbPolyline
 90
2
 70
0
 10
683.618400
 20
-235.359014
 30
0.0
 10
683.640000
 20
-235.107014
 30
0.0
  0
LWPOLYLINE
  5
1b1
100
AcDbEntity
  8
0
 62
7
100
AcDbPolyline
 90
2
 70
0
 10
683.467200
 20
-235.783814
 30
0.0
 10
683.618400
 20
-235.359014
 30
0.0
  0
LWPOLYLINE
  5
1b2
100
AcDbEntity
  8
0
 62
7
100
AcDbPolyline
 90
2
 70
0
 10
683.222400
 20
-236.107814
 30
0.0
 10
683.467200
 20
-235.783814
 30
0.0
  0
LWPOLYLINE
  5
1b3
100
AcDbEntity
  8
0
 62
7
100
AcDbPolyline
 90
2
 70
0
 10
683.078400
 20
-236.237414
 30
0.0
 10
683.222400
 20
-236.107814
 30
0.0
  0
LWPOLYLINE
  5
1b4
100
AcDbEntity
  8
0
 62
7
100
AcDbPolyline
 90
2
 70
0
 10
304.704000
 20
-236.439014
 30
0.0
 10
305.078400
 20
-236.237414
 30
0.0
  0
LWPOLYLINE
  5
1b5
100
AcDbEntity
  8
0
 62
7
100
AcDbPolyline
 90
2
 70
0
 10
304.221600
 20
-236.518214
 30
0.0
 10
304.704000
 20
-236.439014
 30
0.0
  0
LWPOLYLINE
  5
1b6
100
AcDbEntity
  8
0
 62
7
100
AcDbPolyline
 90
2
 70
0
 10
159.372000
 20
-236.518214
 30
0.0
 10
304.221600
 20
-236.518214
 30
0.0
  0
LWPOLYLINE
  5
1b7
100
AcDbEntity
  8
0
 62
7
100
AcDbPolyline
 90
2
 70
0
 10
159.120000
 20
-236.496614
 30
0.0
 10
159.372000
 20
-236.518214
 30
0.0
  0
LWPOLYLINE
  5
1b8
100
AcDbEntity
  8
0
 62
7
100
AcDbPolyline
 90
2
 70
0
 10
158.695200
 20
-236.352614
 30
0.0
 10
159.120000
 20
-236.496614
 30
0.0
  0
LWPOLYLINE
  5
1b9
100
AcDbEntity
  8
0
 62
7
100
AcDbPolyline
 90
2
 70
0
 10
158.371200
 20
-236.107814
 30
0.0
 10
158.695200
 20
-236.352614
 30
0.0
  0
LWPOLYLINE
  5
1ba
100
AcDbEntity
  8
0
 62
7
100
AcDbPolyline
 90
2
 70
0
 10
158.248800
 20
-235.963814
 30
0.0
 10
158.371200
 20
-236.107814
 30
0.0
  0
LWPOLYLINE
  5
1bb
100
AcDbEntity
  8
0
 62
7
100
AcDbPolyline
 90
2
 70
0
 10
158.047200
 20
-235.596614
 30
0.0
 10
158.248800
 20
-235.963814
 30
0.0
  0
LWPOLYLINE
  5
1bc
100
AcDbEntity
  8
0
 62
7
100
AcDbPolyline
 90
2
 70
0
 10
157.953600
 20
-235.107014
 30
0.0
 10
158.047200
 20
-235.596614
 30
0.0
  0
LWPOLYLINE
  5
1bd
100
AcDbEntity
  8
0
 62
7
100
AcDbPolyline
 90
2
 70
0
 10
157.953600
 20
-198.250214
 30
0.0
 10
157.953600
 20
-235.107014
 30
0.0
  0
LWPOLYLINE
  5
1be
100
AcDbEntity
  8
0
 62
7
100
AcDbPolyline
 90
2
 70
0
 10
157.975200
 20
-197.998214
 30
0.0
 10
157.953600
 20
-198.250214
 30
0.0
  0
LWPOLYLINE
  5
1bf
100
AcDbEntity
  8
0
 62
7
100
AcDbPolyline
 90
2
 70
0
 10
158.126400
 20
-197.580614
 30
0.0
 10
157.975200
 20
-197.998214
 30
0.0
  0
LWPOLYLINE
  5
1c0
100
AcDbEntity
  8
0
 62
7
100
AcDbPolyline
 90
2
 70
0
 10
158.371200
 20
-197.249414
 30
0.0
 10
158.126400
 20
-197.580614
 30
0.0
  0
LWPOLYLINE
  5
1c1
100
AcDbEntity
  8
0
 62
7
100
AcDbPolyline
 90
2
 70
0
 10
158.522400
 20
-197.119814
 30
0.0
 10
158.371200
 20
-197.249414
 30
0.0
  0
LWPOLYLINE
  5
1c2
100
AcDbEntity
  8
0
 62
7
100
AcDbPolyline
 90
2
 70
0
 10
158.889600
 20
-196.918214
 30
0.0
 10
158.522400
 20
-197.119814
 30
0.0
  0
LWPOLYLINE
  5
1c3
100
AcDbEntity
  8
0
 62
7
100
AcDbPolyline
 90
2
 70
0
 10
159.372000
 20
-196.839014
 30
0.0
 10
158.889600
 20
-196.918214
 30
0.0
  0
LWPOLYLINE
  5
1c4
100
AcDbEntity
  8
0
 62
7
100
AcDbPolyline
 90
2
 70
0
 10
233.978400
 20
-196.839014
 30
0.0
 10
159.372000
 20
-196.839014
 30
0.0
  0
LWPOLYLINE
  5
1c5
100
AcDbEntity
  8
0
 62
7
100
AcDbPolyline
 90
2
 70
0
 10
235.418400
 20
-195.161414
 30
0.0
 10
235.396800
 20
-195.420614
 30
0.0
  0
LWPOLYLINE
  5
1c6
100
AcDbEntity
  8
0
 62
7
100
AcDbPolyline
 90
2
 70
0
 10
235.562400
 20
-194.743814
 30
0.0
 10
235.418400
 20
-195.161414
 30
0.0
  0
LWPOLYLINE
  5
1c7
100
AcDbEntity
  8
0
 62
7
100
AcDbPolyline
 90
2
 70
0
 10
235.807200
 20
-194.419814
 30
0.0
 10
235.562400
 20
-194.743814
 30
0.0
  0
LWPOLYLINE
  5
1c8
100
AcDbEntity
  8
0
 62
7
100
AcDbPolyline
 90
2
 70
0
 10
235.958400
 20
-194.283014
 30
0.0
 10
235.807200
 20
-194.419814
 30
0.0
  0
LWPOLYLINE
  5
1c9
100
AcDbEntity
  8
0
 62
7
100
AcDbPolyline
 90
2
 70
0
 10
236.325600
 20
-194.088614
 30
0.0
 10
235.958400
 20
-194.283014
 30
0.0
  0
LWPOLYLINE
  5
1ca
100
AcDbEntity
  8
0
 62
7
100
AcDbPolyline
 90
2
 70
0
 10
236.815200
 20
-194.002214
 30
0.0
 10
236.325600
 20
-194.088614
 30
0.0
  0
LWPOLYLINE
  5
1cb
100
AcDbEntity
  8
0
 62
7
100
AcDbPolyline
 90
2
 70
0
 10
267.300000
 20
-194.002214
 30
0.0
 10
236.815200
 20
-194.002214
 30
0.0
  0
LWPOLYLINE
  5
1cc
100
AcDbEntity
  8
0
 62
7
100
AcDbPolyline
 90
2
 70
0
 10
267.552000
 20
-194.023814
 30
0.0
 10
267.300000
 20
-194.002214
 30
0.0
  0
LWPOLYLINE
  5
1cd
100
AcDbEntity
  8
0
 62
7
100
AcDbPolyline
 90
2
 70
0
 10
267.976800
 20
-194.167814
 30
0.0
 10
267.552000
 20
-194.023814
 30
0.0
  0
LWPOLYLINE
  5
1ce
100
AcDbEntity
  8
0
 62
7
100
AcDbPolyline
 90
2
 70
0
 10
268.300800
 20
-194.419814
 30
0.0
 10
267.976800
 20
-194.167814
 30
0.0
  0
LWPOLYLINE
  5
1cf
100
AcDbEntity
  8
0
 62
7
100
AcDbPolyline
 90
2
 70
0
 10
268.430400
 20
-194.563814
 30
0.0
 10
268.300800
 20
-194.419814
 30
0.0
  0
LWPOLYLINE
  5
1d0
100
AcDbEntity
  8
0
 62
7
100
AcDbPolyline
 90
2
 70
0
 10
268.632000
 20
-194.931014
 30
0.0
 10
268.430400
 20
-194.563814
 30
0.0
  0
LWPOLYLINE
  5
1d1
100
AcDbEntity
  8
0
 62
7
100
AcDbPolyline
 90
2
 70
0
 10
268.718400
 20
-195.420614
 30
0.0
 10
268.632000
 20
-194.931014
 30
0.0
  0
LWPOLYLINE
  5
1d2
100
AcDbEntity
  8
0
 62
7
100
AcDbPolyline
 90
2
 70
0
 10
304.221600
 20
-196.839014
 30
0.0
 10
270.136800
 20
-196.839014
 30
0.0
  0
LWPOLYLINE
  5
1d3
100
AcDbEntity
  8
0
 62
7
100
AcDbPolyline
 90
2
 70
0
 10
304.473600
 20
-196.860614
 30
0.0
 10
304.221600
 20
-196.839014
 30
0.0
  0
LWPOLYLINE
  5
1d4
100
AcDbEntity
  8
0
 62
7
100
AcDbPolyline
 90
2
 70
0
 10
304.898400
 20
-197.004614
 30
0.0
 10
304.473600
 20
-196.860614
 30
0.0
  0
LWPOLYLINE
  5
1d5
100
AcDbEntity
  8
0
 62
7
100
AcDbPolyline
 90
2
 70
0
 10
305.222400
 20
-197.249414
 30
0.0
 10
304.898400
 20
-197.004614
 30
0.0
  0
LWPOLYLINE
  5
1d6
100
AcDbEntity
  8
0
 62
7
100
AcDbPolyline
 90
2
 70
0
 10
305.352000
 20
-197.400614
 30
0.0
 10
305.222400
 20
-197.249414
 30
0.0
  0
LWPOLYLINE
  5
1d7
100
AcDbEntity
  8
0
 62
7
100
AcDbPolyline
 90
2
 70
0
 10
305.553600
 20
-197.767814
 30
0.0
 10
305.352000
 20
-197.400614
 30
0.0
  0
LWPOLYLINE
  5
1d8
100
AcDbEntity
  8
0
 62
7
100
AcDbPolyline
 90
2
 70
0
 10
305.640000
 20
-198.250214
 30
0.0
 10
305.553600
 20
-197.767814
 30
0.0
  0
LWPOLYLINE
  5
1d9
100
AcDbEntity
  8
0
 62
7
100
AcDbPolyline
 90
2
 70
0
 10
305.640000
 20
-235.107014
 30
0.0
 10
305.640000
 20
-198.250214
 30
0.0
  0
LWPOLYLINE
  5
1da
100
AcDbEntity
  8
0
 62
7
100
AcDbPolyline
 90
2
 70
0
 10
305.618400
 20
-235.359014
 30
0.0
 10
305.640000
 20
-235.107014
 30
0.0
  0
LWPOLYLINE
  5
1db
100
AcDbEntity
  8
0
 62
7
100
AcDbPolyline
 90
2
 70
0
 10
305.467200
 20
-235.783814
 30
0.0
 10
305.618400
 20
-235.359014
 30
0.0
  0
LWPOLYLINE
  5
1dc
100
AcDbEntity
  8
0
 62
7
100
AcDbPolyline
 90
2
 70
0
 10
305.222400
 20
-236.107814
 30
0.0
 10
305.467200
 20
-235.783814
 30
0.0
  0
LWPOLYLINE
  5
1dd
100
AcDbEntity
  8
0
 62
7
100
AcDbPolyline
 90
2
 70
0
 10
305.078400
 20
-236.237414
 30
0.0
 10
305.222400
 20
-236.107814
 30
0.0
  0
LWPOLYLINE
  5
1de
100
AcDbEntity
  8
0
 62
7
100
AcDbPolyline
 90
2
 70
0
 10
691.228800
 20
-197.998214
 30
0.0
 10
691.207200
 20
-198.250214
 30
0.0
  0
LWPOLYLINE
  5
1df
100
AcDbEntity
  8
0
 62
7
100
AcDbPolyline
 90
2
 70
0
 10
691.372800
 20
-197.580614
 30
0.0
 10
691.228800
 20
-197.998214
 30
0.0
  0
LWPOLYLINE
  5
1e0
100
AcDbEntity
  8
0
 62
7
100
AcDbPolyline
 90
2
 70
0
 10
691.617600
 20
-197.249414
 30
0.0
 10
691.372800
 20
-197.580614
 30
0.0
  0
LWPOLYLINE
  5
1e1
100
AcDbEntity
  8
0
 62
7
100
AcDbPolyline
 90
2
 70
0
 10
691.768800
 20
-197.119814
 30
0.0
 10
691.617600
 20
-197.249414
 30
0.0
  0
LWPOLYLINE
  5
1e2
100
AcDbEntity
  8
0
 62
7
100
AcDbPolyline
 90
2
 70
0
 10
692.143200
 20
-196.918214
 30
0.0
 10
691.768800
 20
-197.119814
 30
0.0
  0
LWPOLYLINE
  5
1e3
100
AcDbEntity
  8
0
 62
7
100
AcDbPolyline
 90
2
 70
0
 10
692.625600
 20
-196.839014
 30
0.0
 10
692.143200
 20
-196.918214
 30
0.0
  0
LWPOLYLINE
  5
1e4
100
AcDbEntity
  8
0
 62
7
100
AcDbPolyline
 90
2
 70
0
 10
736.221600
 20
-196.839014
 30
0.0
 10
692.625600
 20
-196.839014
 30
0.0
  0
LWPOLYLINE
  5
1e5
100
AcDbEntity
  8
0
 62
7
100
AcDbPolyline
 90
2
 70
0
 10
736.473600
 20
-196.860614
 30
0.0
 10
736.221600
 20
-196.839014
 30
0.0
  0
LWPOLYLINE
  5
1e6
100
AcDbEntity
  8
0
 62
7
100
AcDbPolyline
 90
2
 70
0
 10
736.898400
 20
-197.004614
 30
0.0
 10
736.473600
 20
-196.860614
 30
0.0
  0
LWPOLYLINE
  5
1e7
100
AcDbEntity
  8
0
 62
7
100
AcDbPolyline
 90
2
 70
0
 10
737.222400
 20
-197.249414
 30
0.0
 10
736.898400
 20
-197.004614
 30
0.0
  0
LWPOLYLINE
  5
1e8
100
AcDbEntity
  8
0
 62
7
100
AcDbPolyline
 90
2
 70
0
 10
737.352000
 20
-197.400614
 30
0.0
 10
737.222400
 20
-197.249414
 30
0.0
  0
LWPOLYLINE
  5
1e9
100
AcDbEntity
  8
0
 62
7
100
AcDbPolyline
 90
2
 70
0
 10
737.553600
 20
-197.767814
 30
0.0
 10
737.352000
 20
-197.400614
 30
0.0
  0
LWPOLYLINE
  5
1ea
100
AcDbEntity
  8
0
 62
7
100
AcDbPolyline
 90
2
 70
0
 10
737.640000
 20
-198.250214
 30
0.0
 10
737.553600
 20
-197.767814
 30
0.0
  0
LWPOLYLINE
  5
1eb
100
AcDbEntity
  8
0
 62
7
100
AcDbPolyline
 90
2
 70
0
 10
737.640000
 20
-235.107014
 30
0.0
 10
737.640000
 20
-198.250214
 30
0.0
  0
LWPOLYLINE
  5
1ec
100
AcDbEntity
  8
0
 62
7
100
AcDbPolyline
 90
2
 70
0
 10
737.618400
 20
-235.359014
 30
0.0
 10
737.640000
 20
-235.107014
 30
0.0
  0
LWPOLYLINE
  5
1ed
100
AcDbEntity
  8
0
 62
7
100
AcDbPolyline
 90
2
 70
0
 10
737.467200
 20
-235.783814
 30
0.0
 10
737.618400
 20
-235.359014
 30
0.0
  0
LWPOLYLINE
  5
1ee
100
AcDbEntity
  8
0
 62
7
100
AcDbPolyline
 90
2
 70
0
 10
737.222400
 20
-236.107814
 30
0.0
 10
737.467200
 20
-235.783814
 30
0.0
  0
LWPOLYLINE
  5
1ef
100
AcDbEntity
  8
0
 62
7
100
AcDbPolyline
 90
2
 70
0
 10
737.078400
 20
-236.237414
 30
0.0
 10
737.222400
 20
-236.107814
 30
0.0
  0
LWPOLYLINE
  5
1f0
100
AcDbEntity
  8
0
 62
7
100
AcDbPolyline
 90
2
 70
0
 10
736.704000
 20
-236.439014
 30
0.0
 10
737.078400
 20
-236.237414
 30
0.0
  0
LWPOLYLINE
  5
1f1
100
AcDbEntity
  8
0
 62
7
100
AcDbPolyline
 90
2
 70
0
 10
736.221600
 20
-236.518214
 30
0.0
 10
736.704000
 20
-236.439014
 30
0.0
  0
LWPOLYLINE
  5
1f2
100
AcDbEntity
  8
0
 62
7
100
AcDbPolyline
 90
2
 70
0
 10
692.625600
 20
-236.518214
 30
0.0
 10
736.221600
 20
-236.518214
 30
0.0
  0
LWPOLYLINE
  5
1f3
100
AcDbEntity
  8
0
 62
7
100
AcDbPolyline
 90
2
 70
0
 10
692.366400
 20
-236.496614
 30
0.0
 10
692.625600
 20
-236.518214
 30
0.0
  0
LWPOLYLINE
  5
1f4
100
AcDbEntity
  8
0
 62
7
100
AcDbPolyline
 90
2
 70
0
 10
691.948800
 20
-236.352614
 30
0.0
 10
692.366400
 20
-236.496614
 30
0.0
  0
LWPOLYLINE
  5
1f5
100
AcDbEntity
  8
0
 62
7
100
AcDbPolyline
 90
2
 70
0
 10
691.617600
 20
-236.107814
 30
0.0
 10
691.948800
 20
-236.352614
 30
0.0
  0
LWPOLYLINE
  5
1f6
100
AcDbEntity
  8
0
 62
7
100
AcDbPolyline
 90
2
 70
0
 10
691.495200
 20
-235.963814
 30
0.0
 10
691.617600
 20
-236.107814
 30
0.0
  0
LWPOLYLINE
  5
1f7
100
AcDbEntity
  8
0
 62
7
100
AcDbPolyline
 90
2
 70
0
 10
691.293600
 20
-235.596614
 30
0.0
 10
691.495200
 20
-235.963814
 30
0.0
  0
LWPOLYLINE
  5
1f8
100
AcDbEntity
  8
0
 62
7
100
AcDbPolyline
 90
2
 70
0
 10
691.207200
 20
-235.107014
 30
0.0
 10
691.293600
 20
-235.596614
 30
0.0
  0
LWPOLYLINE
  5
1f9
100
AcDbEntity
  8
0
 62
7
100
AcDbPolyline
 90
2
 70
0
 10
691.207200
 20
-198.250214
 30
0.0
 10
691.207200
 20
-235.107014
 30
0.0
  0
LWPOLYLINE
  5
1fa
100
AcDbEntity
  8
0
 62
7
100
AcDbPolyline
 90
2
 70
0
 10
104.248800
 20
-235.963814
 30
0.0
 10
104.371200
 20
-236.107814
 30
0.0
  0
LWPOLYLINE
  5
1fb
100
AcDbEntity
  8
0
 62
7
100
AcDbPolyline
 90
2
 70
0
 10
104.047200
 20
-235.596614
 30
0.0
 10
104.248800
 20
-235.963814
 30
0.0
  0
LWPOLYLINE
  5
1fc
100
AcDbEntity
  8
0
 62
7
100
AcDbPolyline
 90
2
 70
0
 10
103.953600
 20
-235.107014
 30
0.0
 10
104.047200
 20
-235.596614
 30
0.0
  0
LWPOLYLINE
  5
1fd
100
AcDbEntity
  8
0
 62
7
100
AcDbPolyline
 90
2
 70
0
 10
103.953600
 20
-198.250214
 30
0.0
 10
103.953600
 20
-235.107014
 30
0.0
  0
LWPOLYLINE
  5
1fe
100
AcDbEntity
  8
0
 62
7
100
AcDbPolyline
 90
2
 70
0
 10
103.975200
 20
-197.998214
 30
0.0
 10
103.953600
 20
-198.250214
 30
0.0
  0
LWPOLYLINE
  5
1ff
100
AcDbEntity
  8
0
 62
7
100
AcDbPolyline
 90
2
 70
0
 10
104.126400
 20
-197.580614
 30
0.0
 10
103.975200
 20
-197.998214
 30
0.0
  0
LWPOLYLINE
  5
200
100
AcDbEntity
  8
0
 62
7
100
AcDbPolyline
 90
2
 70
0
 10
104.371200
 20
-197.249414
 30
0.0
 10
104.126400
 20
-197.580614
 30
0.0
  0
LWPOLYLINE
  5
201
100
AcDbEntity
  8
0
 62
7
100
AcDbPolyline
 90
2
 70
0
 10
104.522400
 20
-197.119814
 30
0.0
 10
104.371200
 20
-197.249414
 30
0.0
  0
LWPOLYLINE
  5
202
100
AcDbEntity
  8
0
 62
7
100
AcDbPolyline
 90
2
 70
0
 10
104.889600
 20
-196.918214
 30
0.0
 10
104.522400
 20
-197.119814
 30
0.0
  0
LWPOLYLINE
  5
203
100
AcDbEntity
  8
0
 62
7
100
AcDbPolyline
 90
2
 70
0
 10
105.372000
 20
-196.839014
 30
0.0
 10
104.889600
 20
-196.918214
 30
0.0
  0
LWPOLYLINE
  5
204
100
AcDbEntity
  8
0
 62
7
100
AcDbPolyline
 90
2
 70
0
 10
148.975200
 20
-196.839014
 30
0.0
 10
105.372000
 20
-196.839014
 30
0.0
  0
LWPOLYLINE
  5
205
100
AcDbEntity
  8
0
 62
7
100
AcDbPolyline
 90
2
 70
0
 10
149.220000
 20
-196.860614
 30
0.0
 10
148.975200
 20
-196.839014
 30
0.0
  0
LWPOLYLINE
  5
206
100
AcDbEntity
  8
0
 62
7
100
AcDbPolyline
 90
2
 70
0
 10
149.644800
 20
-197.004614
 30
0.0
 10
149.220000
 20
-196.860614
 30
0.0
  0
LWPOLYLINE
  5
207
100
AcDbEntity
  8
0
 62
7
100
AcDbPolyline
 90
2
 70
0
 10
149.976000
 20
-197.249414
 30
0.0
 10
149.644800
 20
-197.004614
 30
0.0
  0
LWPOLYLINE
  5
208
100
AcDbEntity
  8
0
 62
7
100
AcDbPolyline
 90
2
 70
0
 10
150.105600
 20
-197.400614
 30
0.0
 10
149.976000
 20
-197.249414
 30
0.0
  0
LWPOLYLINE
  5
209
100
AcDbEntity
  8
0
 62
7
100
AcDbPolyline
 90
2
 70
0
 10
150.307200
 20
-197.767814
 30
0.0
 10
150.105600
 20
-197.400614
 30
0.0
  0
LWPOLYLINE
  5
20a
100
AcDbEntity
  8
0
 62
7
100
AcDbPolyline
 90
2
 70
0
 10
150.393600
 20
-198.250214
 30
0.0
 10
150.307200
 20
-197.767814
 30
0.0
  0
LWPOLYLINE
  5
20b
100
AcDbEntity
  8
0
 62
7
100
AcDbPolyline
 90
2
 70
0
 10
150.393600
 20
-235.107014
 30
0.0
 10
150.393600
 20
-198.250214
 30
0.0
  0
LWPOLYLINE
  5
20c
100
AcDbEntity
  8
0
 62
7
100
AcDbPolyline
 90
2
 70
0
 10
150.364800
 20
-235.359014
 30
0.0
 10
150.393600
 20
-235.107014
 30
0.0
  0
LWPOLYLINE
  5
20d
100
AcDbEntity
  8
0
 62
7
100
AcDbPolyline
 90
2
 70
0
 10
150.220800
 20
-235.783814
 30
0.0
 10
150.364800
 20
-235.359014
 30
0.0
  0
LWPOLYLINE
  5
20e
100
AcDbEntity
  8
0
 62
7
100
AcDbPolyline
 90
2
 70
0
 10
149.976000
 20
-236.107814
 30
0.0
 10
150.220800
 20
-235.783814
 30
0.0
  0
LWPOLYLINE
  5
20f
100
AcDbEntity
  8
0
 62
7
100
AcDbPolyline
 90
2
 70
0
 10
149.824800
 20
-236.237414
 30
0.0
 10
149.976000
 20
-236.107814
 30
0.0
  0
LWPOLYLINE
  5
210
100
AcDbEntity
  8
0
 62
7
100
AcDbPolyline
 90
2
 70
0
 10
149.457600
 20
-236.439014
 30
0.0
 10
149.824800
 20
-236.237414
 30
0.0
  0
LWPOLYLINE
  5
211
100
AcDbEntity
  8
0
 62
7
100
AcDbPolyline
 90
2
 70
0
 10
148.975200
 20
-236.518214
 30
0.0
 10
149.457600
 20
-236.439014
 30
0.0
  0
LWPOLYLINE
  5
212
100
AcDbEntity
  8
0
 62
7
100
AcDbPolyline
 90
2
 70
0
 10
105.372000
 20
-236.518214
 30
0.0
 10
148.975200
 20
-236.518214
 30
0.0
  0
LWPOLYLINE
  5
213
100
AcDbEntity
  8
0
 62
7
100
AcDbPolyline
 90
2
 70
0
 10
105.120000
 20
-236.496614
 30
0.0
 10
105.372000
 20
-236.518214
 30
0.0
  0
LWPOLYLINE
  5
214
100
AcDbEntity
  8
0
 62
7
100
AcDbPolyline
 90
2
 70
0
 10
104.695200
 20
-236.352614
 30
0.0
 10
105.120000
 20
-236.496614
 30
0.0
  0
LWPOLYLINE
  5
215
100
AcDbEntity
  8
0
 62
7
100
AcDbPolyline
 90
2
 70
0
 10
104.371200
 20
-236.107814
 30
0.0
 10
104.695200
 20
-236.352614
 30
0.0
  0
LWPOLYLINE
  5
216
100
AcDbEntity
  8
0
 62
7
100
AcDbPolyline
 90
2
 70
0
 10
736.221600
 20
-34.839014
 30
0.0
 10
699.372000
 20
-34.839014
 30
0.0
  0
LWPOLYLINE
  5
217
100
AcDbEntity
  8
0
 62
7
100
AcDbPolyline
 90
2
 70
0
 10
697.953600
 20
-36.257414
 30
0.0
 10
697.953600
 20
-73.107014
 30
0.0
  0
LWPOLYLINE
  5
218
100
AcDbEntity
  8
0
 62
7
100
AcDbPolyline
 90
2
 70
0
 10
699.372000
 20
-74.525414
 30
0.0
 10
736.221600
 20
-74.525414
 30
0.0
  0
SPLINE
  5
219
100
AcDbEntity
  8
0
 62
7
100
AcDbSpline
 70
8
 71
3
 72
8
 73
4
 74
0
 40
0
 40
0
 40
0
 40
0
 40
1
 40
1
 40
1
 40
1
 10
737.647200
 20
-36.263390
 30
0.0
 10
737.647200
 20
-35.887307
 30
0.0
 10
737.497728
 20
-35.526642
 30
0.0
 10
737.231695
 20
-35.260812
 30
0.0
  0
SPLINE
  5
21a
100
AcDbEntity
  8
0
 62
7
100
AcDbSpline
 70
8
 71
3
 72
8
 73
4
 74
0
 40
0
 40
0
 40
0
 40
0
 40
1
 40
1
 40
1
 40
1
 10
737.231695
 20
-35.260812
 30
0.0
 10
736.965662
 20
-34.994982
 30
0.0
 10
736.604884
 20
-34.845784
 30
0.0
 10
736.228800
 20
-34.846070
 30
0.0
  0
SPLINE
  5
21b
100
AcDbEntity
  8
0
 62
7
100
AcDbSpline
 70
8
 71
3
 72
8
 73
4
 74
0
 40
0
 40
0
 40
0
 40
0
 40
1
 40
1
 40
1
 40
1
 10
699.377760
 20
-34.846070
 30
0.0
 10
698.595136
 20
-34.846269
 30
0.0
 10
697.960800
 20
-35.480767
 30
0.0
 10
697.960800
 20
-36.263390
 30
0.0
  0
SPLINE
  5
21c
100
AcDbEntity
  8
0
 62
7
100
AcDbSpline
 70
8
 71
3
 72
8
 73
4
 74
0
 40
0
 40
0
 40
0
 40
0
 40
1
 40
1
 40
1
 40
1
 10
697.960800
 20
-73.113494
 30
0.0
 10
697.960705
 20
-73.489391
 30
0.0
 10
698.109937
 20
-73.849930
 30
0.0
 10
698.375669
 20
-74.115796
 30
0.0
  0
SPLINE
  5
21d
100
AcDbEntity
  8
0
 62
7
100
AcDbSpline
 70
8
 71
3
 72
8
 73
4
 74
0
 40
0
 40
0
 40
0
 40
0
 40
1
 40
1
 40
1
 40
1
 10
698.375669
 20
-74.115796
 30
0.0
 10
698.641400
 20
-74.381663
 30
0.0
 10
699.001863
 20
-74.531079
 30
0.0
 10
699.377760
 20
-74.531174
 30
0.0
  0
SPLINE
  5
21e
100
AcDbEntity
  8
0
 62
7
100
AcDbSpline
 70
8
 71
3
 72
8
 73
4
 74
0
 40
0
 40
0
 40
0
 40
0
 40
1
 40
1
 40
1
 40
1
 10
736.228800
 20
-74.531174
 30
0.0
 10
736.604946
 20
-74.531461
 30
0.0
 10
736.965779
 20
-74.382214
 30
0.0
 10
737.231822
 20
-74.116306
 30
0.0
  0
SPLINE
  5
21f
100
AcDbEntity
  8
0
 62
7
100
AcDbSpline
 70
8
 71
3
 72
8
 73
4
 74
0
 40
0
 40
0
 40
0
 40
0
 40
1
 40
1
 40
1
 40
1
 10
737.231822
 20
-74.116306
 30
0.0
 10
737.497865
 20
-73.850398
 30
0.0
 10
737.647296
 20
-73.489641
 30
0.0
 10
737.647200
 20
-73.113494
 30
0.0
  0
LWPOLYLINE
  5
220
100
AcDbEntity
  8
0
 62
7
100
AcDbPolyline
 90
2
 70
0
 10
737.640000
 20
-73.107014
 30
0.0
 10
737.640000
 20
-36.257414
 30
0.0
  0
LWPOLYLINE
  5
221
100
AcDbEntity
  8
0
 62
7
100
AcDbPolyline
 90
2
 70
0
 10
682.221600
 20
-34.839014
 30
0.0
 10
645.372000
 20
-34.839014
 30
0.0
  0
LWPOLYLINE
  5
222
100
AcDbEntity
  8
0
 62
7
100
AcDbPolyline
 90
2
 70
0
 10
643.953600
 20
-36.257414
 30
0.0
 10
643.953600
 20
-73.107014
 30
0.0
  0
LWPOLYLINE
  5
223
100
AcDbEntity
  8
0
 62
7
100
AcDbPolyline
 90
2
 70
0
 10
645.372000
 20
-74.525414
 30
0.0
 10
682.221600
 20
-74.525414
 30
0.0
  0
SPLINE
  5
224
100
AcDbEntity
  8
0
 62
7
100
AcDbSpline
 70
8
 71
3
 72
8
 73
4
 74
0
 40
0
 40
0
 40
0
 40
0
 40
1
 40
1
 40
1
 40
1
 10
683.645760
 20
-36.263390
 30
0.0
 10
683.645760
 20
-35.887431
 30
0.0
 10
683.496386
 20
-35.526876
 30
0.0
 10
683.230509
 20
-35.261067
 30
0.0
  0
SPLINE
  5
225
100
AcDbEntity
  8
0
 62
7
100
AcDbSpline
 70
8
 71
3
 72
8
 73
4
 74
0
 40
0
 40
0
 40
0
 40
0
 40
1
 40
1
 40
1
 40
1
 10
683.230509
 20
-35.261067
 30
0.0
 10
682.964632
 20
-34.995257
 30
0.0
 10
682.604039
 20
-34.845975
 30
0.0
 10
682.228080
 20
-34.846070
 30
0.0
  0
SPLINE
  5
226
100
AcDbEntity
  8
0
 62
7
100
AcDbSpline
 70
8
 71
3
 72
8
 73
4
 74
0
 40
0
 40
0
 40
0
 40
0
 40
1
 40
1
 40
1
 40
1
 10
645.377760
 20
-34.846070
 30
0.0
 10
644.595136
 20
-34.846269
 30
0.0
 10
643.960800
 20
-35.480767
 30
0.0
 10
643.960800
 20
-36.263390
 30
0.0
  0
SPLINE
  5
227
100
AcDbEntity
  8
0
 62
7
100
AcDbSpline
 70
8
 71
3
 72
8
 73
4
 74
0
 40
0
 40
0
 40
0
 40
0
 40
1
 40
1
 40
1
 40
1
 10
643.960800
 20
-73.113494
 30
0.0
 10
643.960705
 20
-73.489391
 30
0.0
 10
644.109937
 20
-73.849930
 30
0.0
 10
644.375669
 20
-74.115796
 30
0.0
  0
SPLINE
  5
228
100
AcDbEntity
  8
0
 62
7
100
AcDbSpline
 70
8
 71
3
 72
8
 73
4
 74
0
 40
0
 40
0
 40
0
 40
0
 40
1
 40
1
 40
1
 40
1
 10
644.375669
 20
-74.115796
 30
0.0
 10
644.641400
 20
-74.381663
 30
0.0
 10
645.001863
 20
-74.531079
 30
0.0
 10
645.377760
 20
-74.531174
 30
0.0
  0
SPLINE
  5
229
100
AcDbEntity
  8
0
 62
7
100
AcDbSpline
 70
8
 71
3
 72
8
 73
4
 74
0
 40
0
 40
0
 40
0
 40
0
 40
1
 40
1
 40
1
 40
1
 10
682.228080
 20
-74.531174
 30
0.0
 10
682.604101
 20
-74.531270
 30
0.0
 10
682.964749
 20
-74.381938
 30
0.0
 10
683.230637
 20
-74.116051
 30
0.0
  0
SPLINE
  5
22a
100
AcDbEntity
  8
0
 62
7
100
AcDbSpline
 70
8
 71
3
 72
8
 73
4
 74
0
 40
0
 40
0
 40
0
 40
0
 40
1
 40
1
 40
1
 40
1
 10
683.230637
 20
-74.116051
 30
0.0
 10
683.496524
 20
-73.850164
 30
0.0
 10
683.645856
 20
-73.489516
 30
0.0
 10
683.645760
 20
-73.113494
 30
0.0
  0
LWPOLYLINE
  5
22b
100
AcDbEntity
  8
0
 62
7
100
AcDbPolyline
 90
2
 70
0
 10
683.640000
 20
-73.107014
 30
0.0
 10
683.640000
 20
-36.257414
 30
0.0
  0
LWPOLYLINE
  5
22c
100
AcDbEntity
  8
0
 62
7
100
AcDbPolyline
 90
2
 70
0
 10
412.221600
 20
-88.839014
 30
0.0
 10
375.372000
 20
-88.839014
 30
0.0
  0
LWPOLYLINE
  5
22d
100
AcDbEntity
  8
0
 62
7
100
AcDbPolyline
 90
2
 70
0
 10
373.953600
 20
-90.257414
 30
0.0
 10
373.953600
 20
-127.107014
 30
0.0
  0
LWPOLYLINE
  5
22e
100
AcDbEntity
  8
0
 62
7
100
AcDbPolyline
 90
2
 70
0
 10
375.372000
 20
-128.525414
 30
0.0
 10
412.221600
 20
-128.525414
 30
0.0
  0
SPLINE
  5
22f
100
AcDbEntity
  8
0
 62
7
100
AcDbSpline
 70
8
 71
3
 72
8
 73
4
 74
0
 40
0
 40
0
 40
0
 40
0
 40
1
 40
1
 40
1
 40
1
 10
413.645760
 20
-90.263174
 30
0.0
 10
413.645665
 20
-89.887278
 30
0.0
 10
413.496249
 20
-89.526815
 30
0.0
 10
413.230382
 20
-89.261083
 30
0.0
  0
SPLINE
  5
230
100
AcDbEntity
  8
0
 62
7
100
AcDbSpline
 70
8
 71
3
 72
8
 73
4
 74
0
 40
0
 40
0
 40
0
 40
0
 40
1
 40
1
 40
1
 40
1
 10
413.230382
 20
-89.261083
 30
0.0
 10
412.964515
 20
-88.995352
 30
0.0
 10
412.603977
 20
-88.846119
 30
0.0
 10
412.228080
 20
-88.846214
 30
0.0
  0
SPLINE
  5
231
100
AcDbEntity
  8
0
 62
7
100
AcDbSpline
 70
8
 71
3
 72
8
 73
4
 74
0
 40
0
 40
0
 40
0
 40
0
 40
1
 40
1
 40
1
 40
1
 10
375.377760
 20
-88.846214
 30
0.0
 10
374.595277
 20
-88.846413
 30
0.0
 10
373.960999
 20
-89.480691
 30
0.0
 10
373.960800
 20
-90.263174
 30
0.0
  0
SPLINE
  5
232
100
AcDbEntity
  8
0
 62
7
100
AcDbSpline
 70
8
 71
3
 72
8
 73
4
 74
0
 40
0
 40
0
 40
0
 40
0
 40
1
 40
1
 40
1
 40
1
 10
373.960800
 20
-127.113494
 30
0.0
 10
373.960705
 20
-127.489391
 30
0.0
 10
374.109937
 20
-127.849930
 30
0.0
 10
374.375669
 20
-128.115796
 30
0.0
  0
SPLINE
  5
233
100
AcDbEntity
  8
0
 62
7
100
AcDbSpline
 70
8
 71
3
 72
8
 73
4
 74
0
 40
0
 40
0
 40
0
 40
0
 40
1
 40
1
 40
1
 40
1
 10
374.375669
 20
-128.115796
 30
0.0
 10
374.641400
 20
-128.381663
 30
0.0
 10
375.001863
 20
-128.531079
 30
0.0
 10
375.377760
 20
-128.531174
 30
0.0
  0
SPLINE
  5
234
100
AcDbEntity
  8
0
 62
7
100
AcDbSpline
 70
8
 71
3
 72
8
 73
4
 74
0
 40
0
 40
0
 40
0
 40
0
 40
1
 40
1
 40
1
 40
1
 10
412.228080
 20
-128.531174
 30
0.0
 10
412.604101
 20
-128.531270
 30
0.0
 10
412.964749
 20
-128.381938
 30
0.0
 10
413.230637
 20
-128.116051
 30
0.0
  0
SPLINE
  5
235
100
AcDbEntity
  8
0
 62
7
100
AcDbSpline
 70
8
 71
3
 72
8
 73
4
 74
0
 40
0
 40
0
 40
0
 40
0
 40
1
 40
1
 40
1
 40
1
 10
413.230637
 20
-128.116051
 30
0.0
 10
413.496524
 20
-127.850164
 30
0.0
 10
413.645856
 20
-127.489516
 30
0.0
 10
413.645760
 20
-127.113494
 30
0.0
  0
LWPOLYLINE
  5
236
100
AcDbEntity
  8
0
 62
7
100
AcDbPolyline
 90
2
 70
0
 10
413.640000
 20
-127.107014
 30
0.0
 10
413.640000
 20
-90.257414
 30
0.0
  0
LWPOLYLINE
  5
237
100
AcDbEntity
  8
0
 62
7
100
AcDbPolyline
 90
2
 70
0
 10
574.221600
 20
-142.839014
 30
0.0
 10
537.372000
 20
-142.839014
 30
0.0
  0
LWPOLYLINE
  5
238
100
AcDbEntity
  8
0
 62
7
100
AcDbPolyline
 90
2
 70
0
 10
535.953600
 20
-144.257414
 30
0.0
 10
535.953600
 20
-181.107014
 30
0.0
  0
LWPOLYLINE
  5
239
100
AcDbEntity
  8
0
 62
7
100
AcDbPolyline
 90
2
 70
0
 10
537.372000
 20
-182.525414
 30
0.0
 10
574.221600
 20
-182.525414
 30
0.0
  0
SPLINE
  5
23a
100
AcDbEntity
  8
0
 62
7
100
AcDbSpline
 70
8
 71
3
 72
8
 73
4
 74
0
 40
0
 40
0
 40
0
 40
0
 40
1
 40
1
 40
1
 40
1
 10
575.645760
 20
-144.263174
 30
0.0
 10
575.645665
 20
-143.887278
 30
0.0
 10
575.496249
 20
-143.526815
 30
0.0
 10
575.230382
 20
-143.261083
 30
0.0
  0
SPLINE
  5
23b
100
AcDbEntity
  8
0
 62
7
100
AcDbSpline
 70
8
 71
3
 72
8
 73
4
 74
0
 40
0
 40
0
 40
0
 40
0
 40
1
 40
1
 40
1
 40
1
 10
575.230382
 20
-143.261083
 30
0.0
 10
574.964515
 20
-142.995352
 30
0.0
 10
574.603977
 20
-142.846119
 30
0.0
 10
574.228080
 20
-142.846214
 30
0.0
  0
SPLINE
  5
23c
100
AcDbEntity
  8
0
 62
7
100
AcDbSpline
 70
8
 71
3
 72
8
 73
4
 74
0
 40
0
 40
0
 40
0
 40
0
 40
1
 40
1
 40
1
 40
1
 10
537.377760
 20
-142.846214
 30
0.0
 10
536.595277
 20
-142.846413
 30
0.0
 10
535.960999
 20
-143.480691
 30
0.0
 10
535.960800
 20
-144.263174
 30
0.0
  0
SPLINE
  5
23d
100
AcDbEntity
  8
0
 62
7
100
AcDbSpline
 70
8
 71
3
 72
8
 73
4
 74
0
 40
0
 40
0
 40
0
 40
0
 40
1
 40
1
 40
1
 40
1
 10
535.960800
 20
-181.113494
 30
0.0
 10
535.960705
 20
-181.489391
 30
0.0
 10
536.109937
 20
-181.849930
 30
0.0
 10
536.375669
 20
-182.115796
 30
0.0
  0
SPLINE
  5
23e
100
AcDbEntity
  8
0
 62
7
100
AcDbSpline
 70
8
 71
3
 72
8
 73
4
 74
0
 40
0
 40
0
 40
0
 40
0
 40
1
 40
1
 40
1
 40
1
 10
536.375669
 20
-182.115796
 30
0.0
 10
536.641400
 20
-182.381663
 30
0.0
 10
537.001863
 20
-182.531079
 30
0.0
 10
537.377760
 20
-182.531174
 30
0.0
  0
SPLINE
  5
23f
100
AcDbEntity
  8
0
 62
7
100
AcDbSpline
 70
8
 71
3
 72
8
 73
4
 74
0
 40
0
 40
0
 40
0
 40
0
 40
1
 40
1
 40
1
 40
1
 10
574.228080
 20
-182.531174
 30
0.0
 10
574.604101
 20
-182.531270
 30
0.0
 10
574.964749
 20
-182.381938
 30
0.0
 10
575.230637
 20
-182.116051
 30
0.0
  0
SPLINE
  5
240
100
AcDbEntity
  8
0
 62
7
100
AcDbSpline
 70
8
 71
3
 72
8
 73
4
 74
0
 40
0
 40
0
 40
0
 40
0
 40
1
 40
1
 40
1
 40
1
 10
575.230637
 20
-182.116051
 30
0.0
 10
575.496524
 20
-181.850164
 30
0.0
 10
575.645856
 20
-181.489516
 30
0.0
 10
575.645760
 20
-181.113494
 30
0.0
  0
LWPOLYLINE
  5
241
100
AcDbEntity
  8
0
 62
7
100
AcDbPolyline
 90
2
 70
0
 10
575.640000
 20
-181.107014
 30
0.0
 10
575.640000
 20
-144.257414
 30
0.0
  0
LWPOLYLINE
  5
242
100
AcDbEntity
  8
0
 62
7
100
AcDbPolyline
 90
2
 70
0
 10
736.221600
 20
-142.839014
 30
0.0
 10
699.372000
 20
-142.839014
 30
0.0
  0
LWPOLYLINE
  5
243
100
AcDbEntity
  8
0
 62
7
100
AcDbPolyline
 90
2
 70
0
 10
697.953600
 20
-144.257414
 30
0.0
 10
697.953600
 20
-181.107014
 30
0.0
  0
LWPOLYLINE
  5
244
100
AcDbEntity
  8
0
 62
7
100
AcDbPolyline
 90
2
 70
0
 10
699.372000
 20
-182.525414
 30
0.0
 10
736.221600
 20
-182.525414
 30
0.0
  0
SPLINE
  5
245
100
AcDbEntity
  8
0
 62
7
100
AcDbSpline
 70
8
 71
3
 72
8
 73
4
 74
0
 40
0
 40
0
 40
0
 40
0
 40
1
 40
1
 40
1
 40
1
 10
737.647200
 20
-144.263174
 30
0.0
 10
737.647105
 20
-143.887153
 30
0.0
 10
737.497590
 20
-143.526581
 30
0.0
 10
737.231568
 20
-143.260829
 30
0.0
  0
SPLINE
  5
246
100
AcDbEntity
  8
0
 62
7
100
AcDbSpline
 70
8
 71
3
 72
8
 73
4
 74
0
 40
0
 40
0
 40
0
 40
0
 40
1
 40
1
 40
1
 40
1
 10
737.231568
 20
-143.260829
 30
0.0
 10
736.965545
 20
-142.995076
 30
0.0
 10
736.604821
 20
-142.845928
 30
0.0
 10
736.228800
 20
-142.846214
 30
0.0
  0
SPLINE
  5
247
100
AcDbEntity
  8
0
 62
7
100
AcDbSpline
 70
8
 71
3
 72
8
 73
4
 74
0
 40
0
 40
0
 40
0
 40
0
 40
1
 40
1
 40
1
 40
1
 10
699.377760
 20
-142.846214
 30
0.0
 10
698.595277
 20
-142.846413
 30
0.0
 10
697.960999
 20
-143.480691
 30
0.0
 10
697.960800
 20
-144.263174
 30
0.0
  0
SPLINE
  5
248
100
AcDbEntity
  8
0
 62
7
100
AcDbSpline
 70
8
 71
3
 72
8
 73
4
 74
0
 40
0
 40
0
 40
0
 40
0
 40
1
 40
1
 40
1
 40
1
 10
697.960800
 20
-181.113494
 30
0.0
 10
697.960705
 20
-181.489391
 30
0.0
 10
698.109937
 20
-181.849930
 30
0.0
 10
698.375669
 20
-182.115796
 30
0.0
  0
SPLINE
  5
249
100
AcDbEntity
  8
0
 62
7
100
AcDbSpline
 70
8
 71
3
 72
8
 73
4
 74
0
 40
0
 40
0
 40
0
 40
0
 40
1
 40
1
 40
1
 40
1
 10
698.375669
 20
-182.115796
 30
0.0
 10
698.641400
 20
-182.381663
 30
0.0
 10
699.001863
 20
-182.531079
 30
0.0
 10
699.377760
 20
-182.531174
 30
0.0
  0
SPLINE
  5
24a
100
AcDbEntity
  8
0
 62
7
100
AcDbSpline
 70
8
 71
3
 72
8
 73
4
 74
0
 40
0
 40
0
 40
0
 40
0
 40
1
 40
1
 40
1
 40
1
 10
736.228800
 20
-182.531174
 30
0.0
 10
736.604946
 20
-182.531461
 30
0.0
 10
736.965779
 20
-182.382214
 30
0.0
 10
737.231822
 20
-182.116306
 30
0.0
  0
SPLINE
  5
24b
100
AcDbEntity
  8
0
 62
7
100
AcDbSpline
 70
8
 71
3
 72
8
 73
4
 74
0
 40
0
 40
0
 40
0
 40
0
 40
1
 40
1
 40
1
 40
1
 10
737.231822
 20
-182.116306
 30
0.0
 10
737.497865
 20
-181.850398
 30
0.0
 10
737.647296
 20
-181.489641
 30
0.0
 10
737.647200
 20
-181.113494
 30
0.0
  0
LWPOLYLINE
  5
24c
100
AcDbEntity
  8
0
 62
7
100
AcDbPolyline
 90
2
 70
0
 10
737.640000
 20
-181.107014
 30
0.0
 10
737.640000
 20
-144.257414
 30
0.0
  0
LWPOLYLINE
  5
24d
100
AcDbEntity
  8
0
 62
7
100
AcDbPolyline
 90
2
 70
0
 10
628.221600
 20
-34.839014
 30
0.0
 10
591.372000
 20
-34.839014
 30
0.0
  0
LWPOLYLINE
  5
24e
100
AcDbEntity
  8
0
 62
7
100
AcDbPolyline
 90
2
 70
0
 10
589.953600
 20
-36.257414
 30
0.0
 10
589.953600
 20
-73.107014
 30
0.0
  0
LWPOLYLINE
  5
24f
100
AcDbEntity
  8
0
 62
7
100
AcDbPolyline
 90
2
 70
0
 10
591.372000
 20
-74.525414
 30
0.0
 10
628.221600
 20
-74.525414
 30
0.0
  0
SPLINE
  5
250
100
AcDbEntity
  8
0
 62
7
100
AcDbSpline
 70
8
 71
3
 72
8
 73
4
 74
0
 40
0
 40
0
 40
0
 40
0
 40
1
 40
1
 40
1
 40
1
 10
629.645760
 20
-36.263390
 30
0.0
 10
629.645760
 20
-35.887431
 30
0.0
 10
629.496386
 20
-35.526876
 30
0.0
 10
629.230509
 20
-35.261067
 30
0.0
  0
SPLINE
  5
251
100
AcDbEntity
  8
0
 62
7
100
AcDbSpline
 70
8
 71
3
 72
8
 73
4
 74
0
 40
0
 40
0
 40
0
 40
0
 40
1
 40
1
 40
1
 40
1
 10
629.230509
 20
-35.261067
 30
0.0
 10
628.964632
 20
-34.995257
 30
0.0
 10
628.604039
 20
-34.845975
 30
0.0
 10
628.228080
 20
-34.846070
 30
0.0
  0
SPLINE
  5
252
100
AcDbEntity
  8
0
 62
7
100
AcDbSpline
 70
8
 71
3
 72
8
 73
4
 74
0
 40
0
 40
0
 40
0
 40
0
 40
1
 40
1
 40
1
 40
1
 10
591.377760
 20
-34.846070
 30
0.0
 10
590.595136
 20
-34.846269
 30
0.0
 10
589.960800
 20
-35.480767
 30
0.0
 10
589.960800
 20
-36.263390
 30
0.0
  0
SPLINE
  5
253
100
AcDbEntity
  8
0
 62
7
100
AcDbSpline
 70
8
 71
3
 72
8
 73
4
 74
0
 40
0
 40
0
 40
0
 40
0
 40
1
 40
1
 40
1
 40
1
 10
589.960800
 20
-73.113494
 30
0.0
 10
589.960705
 20
-73.489391
 30
0.0
 10
590.109937
 20
-73.849930
 30
0.0
 10
590.375669
 20
-74.115796
 30
0.0
  0
SPLINE
  5
254
100
AcDbEntity
  8
0
 62
7
100
AcDbSpline
 70
8
 71
3
 72
8
 73
4
 74
0
 40
0
 40
0
 40
0
 40
0
 40
1
 40
1
 40
1
 40
1
 10
590.375669
 20
-74.115796
 30
0.0
 10
590.641400
 20
-74.381663
 30
0.0
 10
591.001863
 20
-74.531079
 30
0.0
 10
591.377760
 20
-74.531174
 30
0.0
  0
SPLINE
  5
255
100
AcDbEntity
  8
0
 62
7
100
AcDbSpline
 70
8
 71
3
 72
8
 73
4
 74
0
 40
0
 40
0
 40
0
 40
0
 40
1
 40
1
 40
1
 40
1
 10
628.228080
 20
-74.531174
 30
0.0
 10
628.604101
 20
-74.531270
 30
0.0
 10
628.964749
 20
-74.381938
 30
0.0
 10
629.230637
 20
-74.116051
 30
0.0
  0
SPLINE
  5
256
100
AcDbEntity
  8
0
 62
7
100
AcDbSpline
 70
8
 71
3
 72
8
 73
4
 74
0
 40
0
 40
0
 40
0
 40
0
 40
1
 40
1
 40
1
 40
1
 10
629.230637
 20
-74.116051
 30
0.0
 10
629.496524
 20
-73.850164
 30
0.0
 10
629.645856
 20
-73.489516
 30
0.0
 10
629.645760
 20
-73.113494
 30
0.0
  0
LWPOLYLINE
  5
257
100
AcDbEntity
  8
0
 62
7
100
AcDbPolyline
 90
2
 70
0
 10
629.640000
 20
-73.107014
 30
0.0
 10
629.640000
 20
-36.257414
 30
0.0
  0
LWPOLYLINE
  5
258
100
AcDbEntity
  8
0
 62
7
100
AcDbPolyline
 90
2
 70
0
 10
574.221600
 20
-34.839014
 30
0.0
 10
537.372000
 20
-34.839014
 30
0.0
  0
LWPOLYLINE
  5
259
100
AcDbEntity
  8
0
 62
7
100
AcDbPolyline
 90
2
 70
0
 10
535.953600
 20
-36.257414
 30
0.0
 10
535.953600
 20
-73.107014
 30
0.0
  0
LWPOLYLINE
  5
25a
100
AcDbEntity
  8
0
 62
7
100
AcDbPolyline
 90
2
 70
0
 10
537.372000
 20
-74.525414
 30
0.0
 10
574.221600
 20
-74.525414
 30
0.0
  0
SPLINE
  5
25b
100
AcDbEntity
  8
0
 62
7
100
AcDbSpline
 70
8
 71
3
 72
8
 73
4
 74
0
 40
0
 40
0
 40
0
 40
0
 40
1
 40
1
 40
1
 40
1
 10
575.645760
 20
-36.263390
 30
0.0
 10
575.645760
 20
-35.887431
 30
0.0
 10
575.496386
 20
-35.526876
 30
0.0
 10
575.230509
 20
-35.261067
 30
0.0
  0
SPLINE
  5
25c
100
AcDbEntity
  8
0
 62
7
100
AcDbSpline
 70
8
 71
3
 72
8
 73
4
 74
0
 40
0
 40
0
 40
0
 40
0
 40
1
 40
1
 40
1
 40
1
 10
575.230509
 20
-35.261067
 30
0.0
 10
574.964632
 20
-34.995257
 30
0.0
 10
574.604039
 20
-34.845975
 30
0.0
 10
574.228080
 20
-34.846070
 30
0.0
  0
SPLINE
  5
25d
100
AcDbEntity
  8
0
 62
7
100
AcDbSpline
 70
8
 71
3
 72
8
 73
4
 74
0
 40
0
 40
0
 40
0
 40
0
 40
1
 40
1
 40
1
 40
1
 10
537.377760
 20
-34.846070
 30
0.0
 10
536.595136
 20
-34.846269
 30
0.0
 10
535.960800
 20
-35.480767
 30
0.0
 10
535.960800
 20
-36.263390
 30
0.0
  0
SPLINE
  5
25e
100
AcDbEntity
  8
0
 62
7
100
AcDbSpline
 70
8
 71
3
 72
8
 73
4
 74
0
 40
0
 40
0
 40
0
 40
0
 40
1
 40
1
 40
1
 40
1
 10
535.960800
 20
-73.113494
 30
0.0
 10
535.960705
 20
-73.489391
 30
0.0
 10
536.109937
 20
-73.849930
 30
0.0
 10
536.375669
 20
-74.115796
 30
0.0
  0
SPLINE
  5
25f
100
AcDbEntity
  8
0
 62
7
100
AcDbSpline
 70
8
 71
3
 72
8
 73
4
 74
0
 40
0
 40
0
 40
0
 40
0
 40
1
 40
1
 40
1
 40
1
 10
536.375669
 20
-74.115796
 30
0.0
 10
536.641400
 20
-74.381663
 30
0.0
 10
537.001863
 20
-74.531079
 30
0.0
 10
537.377760
 20
-74.531174
 30
0.0
  0
SPLINE
  5
260
100
AcDbEntity
  8
0
 62
7
100
AcDbSpline
 70
8
 71
3
 72
8
 73
4
 74
0
 40
0
 40
0
 40
0
 40
0
 40
1
 40
1
 40
1
 40
1
 10
574.228080
 20
-74.531174
 30
0.0
 10
574.604101
 20
-74.531270
 30
0.0
 10
574.964749
 20
-74.381938
 30
0.0
 10
575.230637
 20
-74.116051
 30
0.0
  0
SPLINE
  5
261
100
AcDbEntity
  8
0
 62
7
100
AcDbSpline
 70
8
 71
3
 72
8
 73
4
 74
0
 40
0
 40
0
 40
0
 40
0
 40
1
 40
1
 40
1
 40
1
 10
575.230637
 20
-74.116051
 30
0.0
 10
575.496524
 20
-73.850164
 30
0.0
 10
575.645856
 20
-73.489516
 30
0.0
 10
575.645760
 20
-73.113494
 30
0.0
  0
LWPOLYLINE
  5
262
100
AcDbEntity
  8
0
 62
7
100
AcDbPolyline
 90
2
 70
0
 10
575.640000
 20
-73.107014
 30
0.0
 10
575.640000
 20
-36.257414
 30
0.0
  0
LWPOLYLINE
  5
263
100
AcDbEntity
  8
0
 62
7
100
AcDbPolyline
 90
2
 70
0
 10
196.221600
 20
-142.839014
 30
0.0
 10
159.372000
 20
-142.839014
 30
0.0
  0
LWPOLYLINE
  5
264
100
AcDbEntity
  8
0
 62
7
100
AcDbPolyline
 90
2
 70
0
 10
157.953600
 20
-144.257414
 30
0.0
 10
157.953600
 20
-181.107014
 30
0.0
  0
LWPOLYLINE
  5
265
100
AcDbEntity
  8
0
 62
7
100
AcDbPolyline
 90
2
 70
0
 10
159.372000
 20
-182.525414
 30
0.0
 10
196.221600
 20
-182.525414
 30
0.0
  0
SPLINE
  5
266
100
AcDbEntity
  8
0
 62
7
100
AcDbSpline
 70
8
 71
3
 72
8
 73
4
 74
0
 40
0
 40
0
 40
0
 40
0
 40
1
 40
1
 40
1
 40
1
 10
197.645760
 20
-144.263174
 30
0.0
 10
197.645665
 20
-143.887278
 30
0.0
 10
197.496249
 20
-143.526815
 30
0.0
 10
197.230382
 20
-143.261083
 30
0.0
  0
SPLINE
  5
267
100
AcDbEntity
  8
0
 62
7
100
AcDbSpline
 70
8
 71
3
 72
8
 73
4
 74
0
 40
0
 40
0
 40
0
 40
0
 40
1
 40
1
 40
1
 40
1
 10
197.230382
 20
-143.261083
 30
0.0
 10
196.964515
 20
-142.995352
 30
0.0
 10
196.603977
 20
-142.846119
 30
0.0
 10
196.228080
 20
-142.846214
 30
0.0
  0
SPLINE
  5
268
100
AcDbEntity
  8
0
 62
7
100
AcDbSpline
 70
8
 71
3
 72
8
 73
4
 74
0
 40
0
 40
0
 40
0
 40
0
 40
1
 40
1
 40
1
 40
1
 10
159.377760
 20
-142.846214
 30
0.0
 10
158.595277
 20
-142.846413
 30
0.0
 10
157.960999
 20
-143.480691
 30
0.0
 10
157.960800
 20
-144.263174
 30
0.0
  0
SPLINE
  5
269
100
AcDbEntity
  8
0
 62
7
100
AcDbSpline
 70
8
 71
3
 72
8
 73
4
 74
0
 40
0
 40
0
 40
0
 40
0
 40
1
 40
1
 40
1
 40
1
 10
157.960800
 20
-181.113494
 30
0.0
 10
157.960705
 20
-181.489391
 30
0.0
 10
158.109937
 20
-181.849930
 30
0.0
 10
158.375669
 20
-182.115796
 30
0.0
  0
SPLINE
  5
26a
100
AcDbEntity
  8
0
 62
7
100
AcDbSpline
 70
8
 71
3
 72
8
 73
4
 74
0
 40
0
 40
0
 40
0
 40
0
 40
1
 40
1
 40
1
 40
1
 10
158.375669
 20
-182.115796
 30
0.0
 10
158.641400
 20
-182.381663
 30
0.0
 10
159.001863
 20
-182.531079
 30
0.0
 10
159.377760
 20
-182.531174
 30
0.0
  0
SPLINE
  5
26b
100
AcDbEntity
  8
0
 62
7
100
AcDbSpline
 70
8
 71
3
 72
8
 73
4
 74
0
 40
0
 40
0
 40
0
 40
0
 40
1
 40
1
 40
1
 40
1
 10
196.228080
 20
-182.531174
 30
0.0
 10
196.604101
 20
-182.531270
 30
0.0
 10
196.964749
 20
-182.381938
 30
0.0
 10
197.230637
 20
-182.116051
 30
0.0
  0
SPLINE
  5
26c
100
AcDbEntity
  8
0
 62
7
100
AcDbSpline
 70
8
 71
3
 72
8
 73
4
 74
0
 40
0
 40
0
 40
0
 40
0
 40
1
 40
1
 40
1
 40
1
 10
197.230637
 20
-182.116051
 30
0.0
 10
197.496524
 20
-181.850164
 30
0.0
 10
197.645856
 20
-181.489516
 30
0.0
 10
197.645760
 20
-181.113494
 30
0.0
  0
LWPOLYLINE
  5
26d
100
AcDbEntity
  8
0
 62
7
100
AcDbPolyline
 90
2
 70
0
 10
197.640000
 20
-181.107014
 30
0.0
 10
197.640000
 20
-144.257414
 30
0.0
  0
LWPOLYLINE
  5
26e
100
AcDbEntity
  8
0
 62
7
100
AcDbPolyline
 90
2
 70
0
 10
682.221600
 20
-142.839014
 30
0.0
 10
645.372000
 20
-142.839014
 30
0.0
  0
LWPOLYLINE
  5
26f
100
AcDbEntity
  8
0
 62
7
100
AcDbPolyline
 90
2
 70
0
 10
643.953600
 20
-144.257414
 30
0.0
 10
643.953600
 20
-181.107014
 30
0.0
  0
LWPOLYLINE
  5
270
100
AcDbEntity
  8
0
 62
7
100
AcDbPolyline
 90
2
 70
0
 10
645.372000
 20
-182.525414
 30
0.0
 10
682.221600
 20
-182.525414
 30
0.0
  0
SPLINE
  5
271
100
AcDbEntity
  8
0
 62
7
100
AcDbSpline
 70
8
 71
3
 72
8
 73
4
 74
0
 40
0
 40
0
 40
0
 40
0
 40
1
 40
1
 40
1
 40
1
 10
683.645760
 20
-144.263174
 30
0.0
 10
683.645665
 20
-143.887278
 30
0.0
 10
683.496249
 20
-143.526815
 30
0.0
 10
683.230382
 20
-143.261083
 30
0.0
  0
SPLINE
  5
272
100
AcDbEntity
  8
0
 62
7
100
AcDbSpline
 70
8
 71
3
 72
8
 73
4
 74
0
 40
0
 40
0
 40
0
 40
0
 40
1
 40
1
 40
1
 40
1
 10
683.230382
 20
-143.261083
 30
0.0
 10
682.964515
 20
-142.995352
 30
0.0
 10
682.603977
 20
-142.846119
 30
0.0
 10
682.228080
 20
-142.846214
 30
0.0
  0
SPLINE
  5
273
100
AcDbEntity
  8
0
 62
7
100
AcDbSpline
 70
8
 71
3
 72
8
 73
4
 74
0
 40
0
 40
0
 40
0
 40
0
 40
1
 40
1
 40
1
 40
1
 10
645.377760
 20
-142.846214
 30
0.0
 10
644.595277
 20
-142.846413
 30
0.0
 10
643.960999
 20
-143.480691
 30
0.0
 10
643.960800
 20
-144.263174
 30
0.0
  0
SPLINE
  5
274
100
AcDbEntity
  8
0
 62
7
100
AcDbSpline
 70
8
 71
3
 72
8
 73
4
 74
0
 40
0
 40
0
 40
0
 40
0
 40
1
 40
1
 40
1
 40
1
 10
643.960800
 20
-181.113494
 30
0.0
 10
643.960705
 20
-181.489391
 30
0.0
 10
644.109937
 20
-181.849930
 30
0.0
 10
644.375669
 20
-182.115796
 30
0.0
  0
SPLINE
  5
275
100
AcDbEntity
  8
0
 62
7
100
AcDbSpline
 70
8
 71
3
 72
8
 73
4
 74
0
 40
0
 40
0
 40
0
 40
0
 40
1
 40
1
 40
1
 40
1
 10
644.375669
 20
-182.115796
 30
0.0
 10
644.641400
 20
-182.381663
 30
0.0
 10
645.001863
 20
-182.531079
 30
0.0
 10
645.377760
 20
-182.531174
 30
0.0
  0
SPLINE
  5
276
100
AcDbEntity
  8
0
 62
7
100
AcDbSpline
 70
8
 71
3
 72
8
 73
4
 74
0
 40
0
 40
0
 40
0
 40
0
 40
1
 40
1
 40
1
 40
1
 10
682.228080
 20
-182.531174
 30
0.0
 10
682.604101
 20
-182.531270
 30
0.0
 10
682.964749
 20
-182.381938
 30
0.0
 10
683.230637
 20
-182.116051
 30
0.0
  0
SPLINE
  5
277
100
AcDbEntity
  8
0
 62
7
100
AcDbSpline
 70
8
 71
3
 72
8
 73
4
 74
0
 40
0
 40
0
 40
0
 40
0
 40
1
 40
1
 40
1
 40
1
 10
683.230637
 20
-182.116051
 30
0.0
 10
683.496524
 20
-181.850164
 30
0.0
 10
683.645856
 20
-181.489516
 30
0.0
 10
683.645760
 20
-181.113494
 30
0.0
  0
LWPOLYLINE
  5
278
100
AcDbEntity
  8
0
 62
7
100
AcDbPolyline
 90
2
 70
0
 10
683.640000
 20
-181.107014
 30
0.0
 10
683.640000
 20
-144.257414
 30
0.0
  0
LWPOLYLINE
  5
279
100
AcDbEntity
  8
0
 62
7
100
AcDbPolyline
 90
2
 70
0
 10
628.221600
 20
-142.839014
 30
0.0
 10
591.372000
 20
-142.839014
 30
0.0
  0
LWPOLYLINE
  5
27a
100
AcDbEntity
  8
0
 62
7
100
AcDbPolyline
 90
2
 70
0
 10
589.953600
 20
-144.257414
 30
0.0
 10
589.953600
 20
-181.107014
 30
0.0
  0
LWPOLYLINE
  5
27b
100
AcDbEntity
  8
0
 62
7
100
AcDbPolyline
 90
2
 70
0
 10
591.372000
 20
-182.525414
 30
0.0
 10
628.221600
 20
-182.525414
 30
0.0
  0
SPLINE
  5
27c
100
AcDbEntity
  8
0
 62
7
100
AcDbSpline
 70
8
 71
3
 72
8
 73
4
 74
0
 40
0
 40
0
 40
0
 40
0
 40
1
 40
1
 40
1
 40
1
 10
629.645760
 20
-144.263174
 30
0.0
 10
629.645665
 20
-143.887278
 30
0.0
 10
629.496249
 20
-143.526815
 30
0.0
 10
629.230382
 20
-143.261083
 30
0.0
  0
SPLINE
  5
27d
100
AcDbEntity
  8
0
 62
7
100
AcDbSpline
 70
8
 71
3
 72
8
 73
4
 74
0
 40
0
 40
0
 40
0
 40
0
 40
1
 40
1
 40
1
 40
1
 10
629.230382
 20
-143.261083
 30
0.0
 10
628.964515
 20
-142.995352
 30
0.0
 10
628.603977
 20
-142.846119
 30
0.0
 10
628.228080
 20
-142.846214
 30
0.0
  0
SPLINE
  5
27e
100
AcDbEntity
  8
0
 62
7
100
AcDbSpline
 70
8
 71
3
 72
8
 73
4
 74
0
 40
0
 40
0
 40
0
 40
0
 40
1
 40
1
 40
1
 40
1
 10
591.377760
 20
-142.846214
 30
0.0
 10
590.595277
 20
-142.846413
 30
0.0
 10
589.960999
 20
-143.480691
 30
0.0
 10
589.960800
 20
-144.263174
 30
0.0
  0
SPLINE
  5
27f
100
AcDbEntity
  8
0
 62
7
100
AcDbSpline
 70
8
 71
3
 72
8
 73
4
 74
0
 40
0
 40
0
 40
0
 40
0
 40
1
 40
1
 40
1
 40
1
 10
589.960800
 20
-181.113494
 30
0.0
 10
589.960705
 20
-181.489391
 30
0.0
 10
590.109937
 20
-181.849930
 30
0.0
 10
590.375669
 20
-182.115796
 30
0.0
  0
SPLINE
  5
280
100
AcDbEntity
  8
0
 62
7
100
AcDbSpline
 70
8
 71
3
 72
8
 73
4
 74
0
 40
0
 40
0
 40
0
 40
0
 40
1
 40
1
 40
1
 40
1
 10
590.375669
 20
-182.115796
 30
0.0
 10
590.641400
 20
-182.381663
 30
0.0
 10
591.001863
 20
-182.531079
 30
0.0
 10
591.377760
 20
-182.531174
 30
0.0
  0
SPLINE
  5
281
100
AcDbEntity
  8
0
 62
7
100
AcDbSpline
 70
8
 71
3
 72
8
 73
4
 74
0
 40
0
 40
0
 40
0
 40
0
 40
1
 40
1
 40
1
 40
1
 10
628.228080
 20
-182.531174
 30
0.0
 10
628.604101
 20
-182.531270
 30
0.0
 10
628.964749
 20
-182.381938
 30
0.0
 10
629.230637
 20
-182.116051
 30
0.0
  0
SPLINE
  5
282
100
AcDbEntity
  8
0
 62
7
100
AcDbSpline
 70
8
 71
3
 72
8
 73
4
 74
0
 40
0
 40
0
 40
0
 40
0
 40
1
 40
1
 40
1
 40
1
 10
629.230637
 20
-182.116051
 30
0.0
 10
629.496524
 20
-181.850164
 30
0.0
 10
629.645856
 20
-181.489516
 30
0.0
 10
629.645760
 20
-181.113494
 30
0.0
  0
LWPOLYLINE
  5
283
100
AcDbEntity
  8
0
 62
7
100
AcDbPolyline
 90
2
 70
0
 10
629.640000
 20
-181.107014
 30
0.0
 10
629.640000
 20
-144.257414
 30
0.0
  0
LWPOLYLINE
  5
284
100
AcDbEntity
  8
0
 62
7
100
AcDbPolyline
 90
2
 70
0
 10
358.221600
 20
-142.839014
 30
0.0
 10
321.372000
 20
-142.839014
 30
0.0
  0
LWPOLYLINE
  5
285
100
AcDbEntity
  8
0
 62
7
100
AcDbPolyline
 90
2
 70
0
 10
319.953600
 20
-144.257414
 30
0.0
 10
319.953600
 20
-181.107014
 30
0.0
  0
LWPOLYLINE
  5
286
100
AcDbEntity
  8
0
 62
7
100
AcDbPolyline
 90
2
 70
0
 10
321.372000
 20
-182.525414
 30
0.0
 10
358.221600
 20
-182.525414
 30
0.0
  0
SPLINE
  5
287
100
AcDbEntity
  8
0
 62
7
100
AcDbSpline
 70
8
 71
3
 72
8
 73
4
 74
0
 40
0
 40
0
 40
0
 40
0
 40
1
 40
1
 40
1
 40
1
 10
359.645760
 20
-144.263174
 30
0.0
 10
359.645665
 20
-143.887278
 30
0.0
 10
359.496249
 20
-143.526815
 30
0.0
 10
359.230382
 20
-143.261083
 30
0.0
  0
SPLINE
  5
288
100
AcDbEntity
  8
0
 62
7
100
AcDbSpline
 70
8
 71
3
 72
8
 73
4
 74
0
 40
0
 40
0
 40
0
 40
0
 40
1
 40
1
 40
1
 40
1
 10
359.230382
 20
-143.261083
 30
0.0
 10
358.964515
 20
-142.995352
 30
0.0
 10
358.603977
 20
-142.846119
 30
0.0
 10
358.228080
 20
-142.846214
 30
0.0
  0
SPLINE
  5
289
100
AcDbEntity
  8
0
 62
7
100
AcDbSpline
 70
8
 71
3
 72
8
 73
4
 74
0
 40
0
 40
0
 40
0
 40
0
 40
1
 40
1
 40
1
 40
1
 10
321.377760
 20
-142.846214
 30
0.0
 10
320.595277
 20
-142.846413
 30
0.0
 10
319.960999
 20
-143.480691
 30
0.0
 10
319.960800
 20
-144.263174
 30
0.0
  0
SPLINE
  5
28a
100
AcDbEntity
  8
0
 62
7
100
AcDbSpline
 70
8
 71
3
 72
8
 73
4
 74
0
 40
0
 40
0
 40
0
 40
0
 40
1
 40
1
 40
1
 40
1
 10
319.960800
 20
-181.113494
 30
0.0
 10
319.960705
 20
-181.489391
 30
0.0
 10
320.109937
 20
-181.849930
 30
0.0
 10
320.375669
 20
-182.115796
 30
0.0
  0
SPLINE
  5
28b
100
AcDbEntity
  8
0
 62
7
100
AcDbSpline
 70
8
 71
3
 72
8
 73
4
 74
0
 40
0
 40
0
 40
0
 40
0
 40
1
 40
1
 40
1
 40
1
 10
320.375669
 20
-182.115796
 30
0.0
 10
320.641400
 20
-182.381663
 30
0.0
 10
321.001863
 20
-182.531079
 30
0.0
 10
321.377760
 20
-182.531174
 30
0.0
  0
SPLINE
  5
28c
100
AcDbEntity
  8
0
 62
7
100
AcDbSpline
 70
8
 71
3
 72
8
 73
4
 74
0
 40
0
 40
0
 40
0
 40
0
 40
1
 40
1
 40
1
 40
1
 10
358.228080
 20
-182.531174
 30
0.0
 10
358.604101
 20
-182.531270
 30
0.0
 10
358.964749
 20
-182.381938
 30
0.0
 10
359.230637
 20
-182.116051
 30
0.0
  0
SPLINE
  5
28d
100
AcDbEntity
  8
0
 62
7
100
AcDbSpline
 70
8
 71
3
 72
8
 73
4
 74
0
 40
0
 40
0
 40
0
 40
0
 40
1
 40
1
 40
1
 40
1
 10
359.230637
 20
-182.116051
 30
0.0
 10
359.496524
 20
-181.850164
 30
0.0
 10
359.645856
 20
-181.489516
 30
0.0
 10
359.645760
 20
-181.113494
 30
0.0
  0
LWPOLYLINE
  5
28e
100
AcDbEntity
  8
0
 62
7
100
AcDbPolyline
 90
2
 70
0
 10
359.640000
 20
-181.107014
 30
0.0
 10
359.640000
 20
-144.257414
 30
0.0
  0
LWPOLYLINE
  5
28f
100
AcDbEntity
  8
0
 62
7
100
AcDbPolyline
 90
2
 70
0
 10
304.221600
 20
-142.839014
 30
0.0
 10
267.372000
 20
-142.839014
 30
0.0
  0
LWPOLYLINE
  5
290
100
AcDbEntity
  8
0
 62
7
100
AcDbPolyline
 90
2
 70
0
 10
265.953600
 20
-144.257414
 30
0.0
 10
265.953600
 20
-181.107014
 30
0.0
  0
LWPOLYLINE
  5
291
100
AcDbEntity
  8
0
 62
7
100
AcDbPolyline
 90
2
 70
0
 10
267.372000
 20
-182.525414
 30
0.0
 10
304.221600
 20
-182.525414
 30
0.0
  0
SPLINE
  5
292
100
AcDbEntity
  8
0
 62
7
100
AcDbSpline
 70
8
 71
3
 72
8
 73
4
 74
0
 40
0
 40
0
 40
0
 40
0
 40
1
 40
1
 40
1
 40
1
 10
305.645760
 20
-144.263174
 30
0.0
 10
305.645665
 20
-143.887278
 30
0.0
 10
305.496249
 20
-143.526815
 30
0.0
 10
305.230382
 20
-143.261083
 30
0.0
  0
SPLINE
  5
293
100
AcDbEntity
  8
0
 62
7
100
AcDbSpline
 70
8
 71
3
 72
8
 73
4
 74
0
 40
0
 40
0
 40
0
 40
0
 40
1
 40
1
 40
1
 40
1
 10
305.230382
 20
-143.261083
 30
0.0
 10
304.964515
 20
-142.995352
 30
0.0
 10
304.603977
 20
-142.846119
 30
0.0
 10
304.228080
 20
-142.846214
 30
0.0
  0
SPLINE
  5
294
100
AcDbEntity
  8
0
 62
7
100
AcDbSpline
 70
8
 71
3
 72
8
 73
4
 74
0
 40
0
 40
0
 40
0
 40
0
 40
1
 40
1
 40
1
 40
1
 10
267.377760
 20
-142.846214
 30
0.0
 10
266.595277
 20
-142.846413
 30
0.0
 10
265.960999
 20
-143.480691
 30
0.0
 10
265.960800
 20
-144.263174
 30
0.0
  0
SPLINE
  5
295
100
AcDbEntity
  8
0
 62
7
100
AcDbSpline
 70
8
 71
3
 72
8
 73
4
 74
0
 40
0
 40
0
 40
0
 40
0
 40
1
 40
1
 40
1
 40
1
 10
265.960800
 20
-181.113494
 30
0.0
 10
265.960705
 20
-181.489391
 30
0.0
 10
266.109937
 20
-181.849930
 30
0.0
 10
266.375669
 20
-182.115796
 30
0.0
  0
SPLINE
  5
296
100
AcDbEntity
  8
0
 62
7
100
AcDbSpline
 70
8
 71
3
 72
8
 73
4
 74
0
 40
0
 40
0
 40
0
 40
0
 40
1
 40
1
 40
1
 40
1
 10
266.375669
 20
-182.115796
 30
0.0
 10
266.641400
 20
-182.381663
 30
0.0
 10
267.001863
 20
-182.531079
 30
0.0
 10
267.377760
 20
-182.531174
 30
0.0
  0
SPLINE
  5
297
100
AcDbEntity
  8
0
 62
7
100
AcDbSpline
 70
8
 71
3
 72
8
 73
4
 74
0
 40
0
 40
0
 40
0
 40
0
 40
1
 40
1
 40
1
 40
1
 10
304.228080
 20
-182.531174
 30
0.0
 10
304.604101
 20
-182.531270
 30
0.0
 10
304.964749
 20
-182.381938
 30
0.0
 10
305.230637
 20
-182.116051
 30
0.0
  0
SPLINE
  5
298
100
AcDbEntity
  8
0
 62
7
100
AcDbSpline
 70
8
 71
3
 72
8
 73
4
 74
0
 40
0
 40
0
 40
0
 40
0
 40
1
 40
1
 40
1
 40
1
 10
305.230637
 20
-182.116051
 30
0.0
 10
305.496524
 20
-181.850164
 30
0.0
 10
305.645856
 20
-181.489516
 30
0.0
 10
305.645760
 20
-181.113494
 30
0.0
  0
LWPOLYLINE
  5
299
100
AcDbEntity
  8
0
 62
7
100
AcDbPolyline
 90
2
 70
0
 10
305.640000
 20
-181.107014
 30
0.0
 10
305.640000
 20
-144.257414
 30
0.0
  0
LWPOLYLINE
  5
29a
100
AcDbEntity
  8
0
 62
7
100
AcDbPolyline
 90
2
 70
0
 10
196.221600
 20
-34.839014
 30
0.0
 10
159.372000
 20
-34.839014
 30
0.0
  0
LWPOLYLINE
  5
29b
100
AcDbEntity
  8
0
 62
7
100
AcDbPolyline
 90
2
 70
0
 10
157.953600
 20
-36.257414
 30
0.0
 10
157.953600
 20
-73.107014
 30
0.0
  0
LWPOLYLINE
  5
29c
100
AcDbEntity
  8
0
 62
7
100
AcDbPolyline
 90
2
 70
0
 10
159.372000
 20
-74.525414
 30
0.0
 10
196.221600
 20
-74.525414
 30
0.0
  0
SPLINE
  5
29d
100
AcDbEntity
  8
0
 62
7
100
AcDbSpline
 70
8
 71
3
 72
8
 73
4
 74
0
 40
0
 40
0
 40
0
 40
0
 40
1
 40
1
 40
1
 40
1
 10
197.645760
 20
-36.263390
 30
0.0
 10
197.645760
 20
-35.887431
 30
0.0
 10
197.496386
 20
-35.526876
 30
0.0
 10
197.230509
 20
-35.261067
 30
0.0
  0
SPLINE
  5
29e
100
AcDbEntity
  8
0
 62
7
100
AcDbSpline
 70
8
 71
3
 72
8
 73
4
 74
0
 40
0
 40
0
 40
0
 40
0
 40
1
 40
1
 40
1
 40
1
 10
197.230509
 20
-35.261067
 30
0.0
 10
196.964632
 20
-34.995257
 30
0.0
 10
196.604039
 20
-34.845975
 30
0.0
 10
196.228080
 20
-34.846070
 30
0.0
  0
SPLINE
  5
29f
100
AcDbEntity
  8
0
 62
7
100
AcDbSpline
 70
8
 71
3
 72
8
 73
4
 74
0
 40
0
 40
0
 40
0
 40
0
 40
1
 40
1
 40
1
 40
1
 10
159.377760
 20
-34.846070
 30
0.0
 10
158.595136
 20
-34.846269
 30
0.0
 10
157.960800
 20
-35.480767
 30
0.0
 10
157.960800
 20
-36.263390
 30
0.0
  0
SPLINE
  5
2a0
100
AcDbEntity
  8
0
 62
7
100
AcDbSpline
 70
8
 71
3
 72
8
 73
4
 74
0
 40
0
 40
0
 40
0
 40
0
 40
1
 40
1
 40
1
 40
1
 10
157.960800
 20
-73.113494
 30
0.0
 10
157.960705
 20
-73.489391
 30
0.0
 10
158.109937
 20
-73.849930
 30
0.0
 10
158.375669
 20
-74.115796
 30
0.0
  0
SPLINE
  5
2a1
100
AcDbEntity
  8
0
 62
7
100
AcDbSpline
 70
8
 71
3
 72
8
 73
4
 74
0
 40
0
 40
0
 40
0
 40
0
 40
1
 40
1
 40
1
 40
1
 10
158.375669
 20
-74.115796
 30
0.0
 10
158.641400
 20
-74.381663
 30
0.0
 10
159.001863
 20
-74.531079
 30
0.0
 10
159.377760
 20
-74.531174
 30
0.0
  0
SPLINE
  5
2a2
100
AcDbEntity
  8
0
 62
7
100
AcDbSpline
 70
8
 71
3
 72
8
 73
4
 74
0
 40
0
 40
0
 40
0
 40
0
 40
1
 40
1
 40
1
 40
1
 10
196.228080
 20
-74.531174
 30
0.0
 10
196.604101
 20
-74.531270
 30
0.0
 10
196.964749
 20
-74.381938
 30
0.0
 10
197.230637
 20
-74.116051
 30
0.0
  0
SPLINE
  5
2a3
100
AcDbEntity
  8
0
 62
7
100
AcDbSpline
 70
8
 71
3
 72
8
 73
4
 74
0
 40
0
 40
0
 40
0
 40
0
 40
1
 40
1
 40
1
 40
1
 10
197.230637
 20
-74.116051
 30
0.0
 10
197.496524
 20
-73.850164
 30
0.0
 10
197.645856
 20
-73.489516
 30
0.0
 10
197.645760
 20
-73.113494
 30
0.0
  0
LWPOLYLINE
  5
2a4
100
AcDbEntity
  8
0
 62
7
100
AcDbPolyline
 90
2
 70
0
 10
197.640000
 20
-73.107014
 30
0.0
 10
197.640000
 20
-36.257414
 30
0.0
  0
LWPOLYLINE
  5
2a5
100
AcDbEntity
  8
0
 62
7
100
AcDbPolyline
 90
2
 70
0
 10
628.221600
 20
-88.839014
 30
0.0
 10
591.372000
 20
-88.839014
 30
0.0
  0
LWPOLYLINE
  5
2a6
100
AcDbEntity
  8
0
 62
7
100
AcDbPolyline
 90
2
 70
0
 10
589.953600
 20
-90.257414
 30
0.0
 10
589.953600
 20
-127.107014
 30
0.0
  0
LWPOLYLINE
  5
2a7
100
AcDbEntity
  8
0
 62
7
100
AcDbPolyline
 90
2
 70
0
 10
591.372000
 20
-128.525414
 30
0.0
 10
628.221600
 20
-128.525414
 30
0.0
  0
SPLINE
  5
2a8
100
AcDbEntity
  8
0
 62
7
100
AcDbSpline
 70
8
 71
3
 72
8
 73
4
 74
0
 40
0
 40
0
 40
0
 40
0
 40
1
 40
1
 40
1
 40
1
 10
629.645760
 20
-90.263174
 30
0.0
 10
629.645665
 20
-89.887278
 30
0.0
 10
629.496249
 20
-89.526815
 30
0.0
 10
629.230382
 20
-89.261083
 30
0.0
  0
SPLINE
  5
2a9
100
AcDbEntity
  8
0
 62
7
100
AcDbSpline
 70
8
 71
3
 72
8
 73
4
 74
0
 40
0
 40
0
 40
0
 40
0
 40
1
 40
1
 40
1
 40
1
 10
629.230382
 20
-89.261083
 30
0.0
 10
628.964515
 20
-88.995352
 30
0.0
 10
628.603977
 20
-88.846119
 30
0.0
 10
628.228080
 20
-88.846214
 30
0.0
  0
SPLINE
  5
2aa
100
AcDbEntity
  8
0
 62
7
100
AcDbSpline
 70
8
 71
3
 72
8
 73
4
 74
0
 40
0
 40
0
 40
0
 40
0
 40
1
 40
1
 40
1
 40
1
 10
591.377760
 20
-88.846214
 30
0.0
 10
590.595277
 20
-88.846413
 30
0.0
 10
589.960999
 20
-89.480691
 30
0.0
 10
589.960800
 20
-90.263174
 30
0.0
  0
SPLINE
  5
2ab
100
AcDbEntity
  8
0
 62
7
100
AcDbSpline
 70
8
 71
3
 72
8
 73
4
 74
0
 40
0
 40
0
 40
0
 40
0
 40
1
 40
1
 40
1
 40
1
 10
589.960800
 20
-127.113494
 30
0.0
 10
589.960705
 20
-127.489391
 30
0.0
 10
590.109937
 20
-127.849930
 30
0.0
 10
590.375669
 20
-128.115796
 30
0.0
  0
SPLINE
  5
2ac
100
AcDbEntity
  8
0
 62
7
100
AcDbSpline
 70
8
 71
3
 72
8
 73
4
 74
0
 40
0
 40
0
 40
0
 40
0
 40
1
 40
1
 40
1
 40
1
 10
590.375669
 20
-128.115796
 30
0.0
 10
590.641400
 20
-128.381663
 30
0.0
 10
591.001863
 20
-128.531079
 30
0.0
 10
591.377760
 20
-128.531174
 30
0.0
  0
SPLINE
  5
2ad
100
AcDbEntity
  8
0
 62
7
100
AcDbSpline
 70
8
 71
3
 72
8
 73
4
 74
0
 40
0
 40
0
 40
0
 40
0
 40
1
 40
1
 40
1
 40
1
 10
628.228080
 20
-128.531174
 30
0.0
 10
628.604101
 20
-128.531270
 30
0.0
 10
628.964749
 20
-128.381938
 30
0.0
 10
629.230637
 20
-128.116051
 30
0.0
  0
SPLINE
  5
2ae
100
AcDbEntity
  8
0
 62
7
100
AcDbSpline
 70
8
 71
3
 72
8
 73
4
 74
0
 40
0
 40
0
 40
0
 40
0
 40
1
 40
1
 40
1
 40
1
 10
629.230637
 20
-128.116051
 30
0.0
 10
629.496524
 20
-127.850164
 30
0.0
 10
629.645856
 20
-127.489516
 30
0.0
 10
629.645760
 20
-127.113494
 30
0.0
  0
SPLINE
  5
2af
100
AcDbEntity
  8
0
 62
7
100
AcDbSpline
 70
8
 71
3
 72
8
 73
4
 74
0
 40
0
 40
0
 40
0
 40
0
 40
1
 40
1
 40
1
 40
1
 10
466.228080
 20
-128.531174
 30
0.0
 10
466.604101
 20
-128.531270
 30
0.0
 10
466.964749
 20
-128.381938
 30
0.0
 10
467.230637
 20
-128.116051
 30
0.0
  0
SPLINE
  5
2b0
100
AcDbEntity
  8
0
 62
7
100
AcDbSpline
 70
8
 71
3
 72
8
 73
4
 74
0
 40
0
 40
0
 40
0
 40
0
 40
1
 40
1
 40
1
 40
1
 10
467.230637
 20
-128.116051
 30
0.0
 10
467.496524
 20
-127.850164
 30
0.0
 10
467.645856
 20
-127.489516
 30
0.0
 10
467.645760
 20
-127.113494
 30
0.0
  0
SPLINE
  5
2b1
100
AcDbEntity
  8
0
 62
7
100
AcDbSpline
 70
8
 71
3
 72
8
 73
4
 74
0
 40
0
 40
0
 40
0
 40
0
 40
1
 40
1
 40
1
 40
1
 10
427.960800
 20
-127.113494
 30
0.0
 10
427.960705
 20
-127.489391
 30
0.0
 10
428.109937
 20
-127.849930
 30
0.0
 10
428.375669
 20
-128.115796
 30
0.0
  0
SPLINE
  5
2b2
100
AcDbEntity
  8
0
 62
7
100
AcDbSpline
 70
8
 71
3
 72
8
 73
4
 74
0
 40
0
 40
0
 40
0
 40
0
 40
1
 40
1
 40
1
 40
1
 10
428.375669
 20
-128.115796
 30
0.0
 10
428.641400
 20
-128.381663
 30
0.0
 10
429.001863
 20
-128.531079
 30
0.0
 10
429.377760
 20
-128.531174
 30
0.0
  0
SPLINE
  5
2b3
100
AcDbEntity
  8
0
 62
7
100
AcDbSpline
 70
8
 71
3
 72
8
 73
4
 74
0
 40
0
 40
0
 40
0
 40
0
 40
1
 40
1
 40
1
 40
1
 10
429.377760
 20
-88.846214
 30
0.0
 10
428.595277
 20
-88.846413
 30
0.0
 10
427.960999
 20
-89.480691
 30
0.0
 10
427.960800
 20
-90.263174
 30
0.0
  0
SPLINE
  5
2b4
100
AcDbEntity
  8
0
 62
7
100
AcDbSpline
 70
8
 71
3
 72
8
 73
4
 74
0
 40
0
 40
0
 40
0
 40
0
 40
1
 40
1
 40
1
 40
1
 10
467.645760
 20
-90.263174
 30
0.0
 10
467.645665
 20
-89.887278
 30
0.0
 10
467.496249
 20
-89.526815
 30
0.0
 10
467.230382
 20
-89.261083
 30
0.0
  0
SPLINE
  5
2b5
100
AcDbEntity
  8
0
 62
7
100
AcDbSpline
 70
8
 71
3
 72
8
 73
4
 74
0
 40
0
 40
0
 40
0
 40
0
 40
1
 40
1
 40
1
 40
1
 10
467.230382
 20
-89.261083
 30
0.0
 10
466.964515
 20
-88.995352
 30
0.0
 10
466.603977
 20
-88.846119
 30
0.0
 10
466.228080
 20
-88.846214
 30
0.0
  0
LWPOLYLINE
  5
2b6
100
AcDbEntity
  8
0
 62
7
100
AcDbPolyline
 90
2
 70
0
 10
629.640000
 20
-127.107014
 30
0.0
 10
629.640000
 20
-90.257414
 30
0.0
  0
LWPOLYLINE
  5
2b7
100
AcDbEntity
  8
0
 62
7
100
AcDbPolyline
 90
2
 70
0
 10
467.640000
 20
-127.107014
 30
0.0
 10
467.640000
 20
-90.257414
 30
0.0
  0
LWPOLYLINE
  5
2b8
100
AcDbEntity
  8
0
 62
7
100
AcDbPolyline
 90
2
 70
0
 10
429.372000
 20
-128.525414
 30
0.0
 10
466.221600
 20
-128.525414
 30
0.0
  0
LWPOLYLINE
  5
2b9
100
AcDbEntity
  8
0
 62
7
100
AcDbPolyline
 90
2
 70
0
 10
427.953600
 20
-90.257414
 30
0.0
 10
427.953600
 20
-127.107014
 30
0.0
  0
SPLINE
  5
2ba
100
AcDbEntity
  8
0
 62
7
100
AcDbSpline
 70
8
 71
3
 72
8
 73
4
 74
0
 40
0
 40
0
 40
0
 40
0
 40
1
 40
1
 40
1
 40
1
 10
358.228080
 20
-74.531174
 30
0.0
 10
358.604101
 20
-74.531270
 30
0.0
 10
358.964749
 20
-74.381938
 30
0.0
 10
359.230637
 20
-74.116051
 30
0.0
  0
SPLINE
  5
2bb
100
AcDbEntity
  8
0
 62
7
100
AcDbSpline
 70
8
 71
3
 72
8
 73
4
 74
0
 40
0
 40
0
 40
0
 40
0
 40
1
 40
1
 40
1
 40
1
 10
359.230637
 20
-74.116051
 30
0.0
 10
359.496524
 20
-73.850164
 30
0.0
 10
359.645856
 20
-73.489516
 30
0.0
 10
359.645760
 20
-73.113494
 30
0.0
  0
SPLINE
  5
2bc
100
AcDbEntity
  8
0
 62
7
100
AcDbSpline
 70
8
 71
3
 72
8
 73
4
 74
0
 40
0
 40
0
 40
0
 40
0
 40
1
 40
1
 40
1
 40
1
 10
319.960800
 20
-73.113494
 30
0.0
 10
319.960705
 20
-73.489391
 30
0.0
 10
320.109937
 20
-73.849930
 30
0.0
 10
320.375669
 20
-74.115796
 30
0.0
  0
SPLINE
  5
2bd
100
AcDbEntity
  8
0
 62
7
100
AcDbSpline
 70
8
 71
3
 72
8
 73
4
 74
0
 40
0
 40
0
 40
0
 40
0
 40
1
 40
1
 40
1
 40
1
 10
320.375669
 20
-74.115796
 30
0.0
 10
320.641400
 20
-74.381663
 30
0.0
 10
321.001863
 20
-74.531079
 30
0.0
 10
321.377760
 20
-74.531174
 30
0.0
  0
SPLINE
  5
2be
100
AcDbEntity
  8
0
 62
7
100
AcDbSpline
 70
8
 71
3
 72
8
 73
4
 74
0
 40
0
 40
0
 40
0
 40
0
 40
1
 40
1
 40
1
 40
1
 10
321.377760
 20
-34.846070
 30
0.0
 10
320.595136
 20
-34.846269
 30
0.0
 10
319.960800
 20
-35.480767
 30
0.0
 10
319.960800
 20
-36.263390
 30
0.0
  0
SPLINE
  5
2bf
100
AcDbEntity
  8
0
 62
7
100
AcDbSpline
 70
8
 71
3
 72
8
 73
4
 74
0
 40
0
 40
0
 40
0
 40
0
 40
1
 40
1
 40
1
 40
1
 10
359.645760
 20
-36.263390
 30
0.0
 10
359.645760
 20
-35.887431
 30
0.0
 10
359.496386
 20
-35.526876
 30
0.0
 10
359.230509
 20
-35.261067
 30
0.0
  0
SPLINE
  5
2c0
100
AcDbEntity
  8
0
 62
7
100
AcDbSpline
 70
8
 71
3
 72
8
 73
4
 74
0
 40
0
 40
0
 40
0
 40
0
 40
1
 40
1
 40
1
 40
1
 10
359.230509
 20
-35.261067
 30
0.0
 10
358.964632
 20
-34.995257
 30
0.0
 10
358.604039
 20
-34.845975
 30
0.0
 10
358.228080
 20
-34.846070
 30
0.0
  0
LWPOLYLINE
  5
2c1
100
AcDbEntity
  8
0
 62
7
100
AcDbPolyline
 90
2
 70
0
 10
466.221600
 20
-88.839014
 30
0.0
 10
429.372000
 20
-88.839014
 30
0.0
  0
LWPOLYLINE
  5
2c2
100
AcDbEntity
  8
0
 62
7
100
AcDbPolyline
 90
2
 70
0
 10
359.640000
 20
-73.107014
 30
0.0
 10
359.640000
 20
-36.257414
 30
0.0
  0
LWPOLYLINE
  5
2c3
100
AcDbEntity
  8
0
 62
7
100
AcDbPolyline
 90
2
 70
0
 10
321.372000
 20
-74.525414
 30
0.0
 10
358.221600
 20
-74.525414
 30
0.0
  0
LWPOLYLINE
  5
2c4
100
AcDbEntity
  8
0
 62
7
100
AcDbPolyline
 90
2
 70
0
 10
319.953600
 20
-36.257414
 30
0.0
 10
319.953600
 20
-73.107014
 30
0.0
  0
SPLINE
  5
2c5
100
AcDbEntity
  8
0
 62
7
100
AcDbSpline
 70
8
 71
3
 72
8
 73
4
 74
0
 40
0
 40
0
 40
0
 40
0
 40
1
 40
1
 40
1
 40
1
 10
520.228080
 20
-74.531174
 30
0.0
 10
520.604101
 20
-74.531270
 30
0.0
 10
520.964749
 20
-74.381938
 30
0.0
 10
521.230637
 20
-74.116051
 30
0.0
  0
SPLINE
  5
2c6
100
AcDbEntity
  8
0
 62
7
100
AcDbSpline
 70
8
 71
3
 72
8
 73
4
 74
0
 40
0
 40
0
 40
0
 40
0
 40
1
 40
1
 40
1
 40
1
 10
521.230637
 20
-74.116051
 30
0.0
 10
521.496524
 20
-73.850164
 30
0.0
 10
521.645856
 20
-73.489516
 30
0.0
 10
521.645760
 20
-73.113494
 30
0.0
  0
SPLINE
  5
2c7
100
AcDbEntity
  8
0
 62
7
100
AcDbSpline
 70
8
 71
3
 72
8
 73
4
 74
0
 40
0
 40
0
 40
0
 40
0
 40
1
 40
1
 40
1
 40
1
 10
481.960800
 20
-73.113494
 30
0.0
 10
481.960705
 20
-73.489391
 30
0.0
 10
482.109937
 20
-73.849930
 30
0.0
 10
482.375669
 20
-74.115796
 30
0.0
  0
SPLINE
  5
2c8
100
AcDbEntity
  8
0
 62
7
100
AcDbSpline
 70
8
 71
3
 72
8
 73
4
 74
0
 40
0
 40
0
 40
0
 40
0
 40
1
 40
1
 40
1
 40
1
 10
482.375669
 20
-74.115796
 30
0.0
 10
482.641400
 20
-74.381663
 30
0.0
 10
483.001863
 20
-74.531079
 30
0.0
 10
483.377760
 20
-74.531174
 30
0.0
  0
SPLINE
  5
2c9
100
AcDbEntity
  8
0
 62
7
100
AcDbSpline
 70
8
 71
3
 72
8
 73
4
 74
0
 40
0
 40
0
 40
0
 40
0
 40
1
 40
1
 40
1
 40
1
 10
483.377760
 20
-34.846070
 30
0.0
 10
482.595136
 20
-34.846269
 30
0.0
 10
481.960800
 20
-35.480767
 30
0.0
 10
481.960800
 20
-36.263390
 30
0.0
  0
SPLINE
  5
2ca
100
AcDbEntity
  8
0
 62
7
100
AcDbSpline
 70
8
 71
3
 72
8
 73
4
 74
0
 40
0
 40
0
 40
0
 40
0
 40
1
 40
1
 40
1
 40
1
 10
521.645760
 20
-36.263390
 30
0.0
 10
521.645760
 20
-35.887431
 30
0.0
 10
521.496386
 20
-35.526876
 30
0.0
 10
521.230509
 20
-35.261067
 30
0.0
  0
SPLINE
  5
2cb
100
AcDbEntity
  8
0
 62
7
100
AcDbSpline
 70
8
 71
3
 72
8
 73
4
 74
0
 40
0
 40
0
 40
0
 40
0
 40
1
 40
1
 40
1
 40
1
 10
521.230509
 20
-35.261067
 30
0.0
 10
520.964632
 20
-34.995257
 30
0.0
 10
520.604039
 20
-34.845975
 30
0.0
 10
520.228080
 20
-34.846070
 30
0.0
  0
LWPOLYLINE
  5
2cc
100
AcDbEntity
  8
0
 62
7
100
AcDbPolyline
 90
2
 70
0
 10
358.221600
 20
-34.839014
 30
0.0
 10
321.372000
 20
-34.839014
 30
0.0
  0
LWPOLYLINE
  5
2cd
100
AcDbEntity
  8
0
 62
7
100
AcDbPolyline
 90
2
 70
0
 10
521.640000
 20
-73.107014
 30
0.0
 10
521.640000
 20
-36.257414
 30
0.0
  0
LWPOLYLINE
  5
2ce
100
AcDbEntity
  8
0
 62
7
100
AcDbPolyline
 90
2
 70
0
 10
483.372000
 20
-74.525414
 30
0.0
 10
520.221600
 20
-74.525414
 30
0.0
  0
LWPOLYLINE
  5
2cf
100
AcDbEntity
  8
0
 62
7
100
AcDbPolyline
 90
2
 70
0
 10
481.953600
 20
-36.257414
 30
0.0
 10
481.953600
 20
-73.107014
 30
0.0
  0
SPLINE
  5
2d0
100
AcDbEntity
  8
0
 62
7
100
AcDbSpline
 70
8
 71
3
 72
8
 73
4
 74
0
 40
0
 40
0
 40
0
 40
0
 40
1
 40
1
 40
1
 40
1
 10
520.228080
 20
-128.531174
 30
0.0
 10
520.604101
 20
-128.531270
 30
0.0
 10
520.964749
 20
-128.381938
 30
0.0
 10
521.230637
 20
-128.116051
 30
0.0
  0
SPLINE
  5
2d1
100
AcDbEntity
  8
0
 62
7
100
AcDbSpline
 70
8
 71
3
 72
8
 73
4
 74
0
 40
0
 40
0
 40
0
 40
0
 40
1
 40
1
 40
1
 40
1
 10
521.230637
 20
-128.116051
 30
0.0
 10
521.496524
 20
-127.850164
 30
0.0
 10
521.645856
 20
-127.489516
 30
0.0
 10
521.645760
 20
-127.113494
 30
0.0
  0
SPLINE
  5
2d2
100
AcDbEntity
  8
0
 62
7
100
AcDbSpline
 70
8
 71
3
 72
8
 73
4
 74
0
 40
0
 40
0
 40
0
 40
0
 40
1
 40
1
 40
1
 40
1
 10
481.960800
 20
-127.113494
 30
0.0
 10
481.960705
 20
-127.489391
 30
0.0
 10
482.109937
 20
-127.849930
 30
0.0
 10
482.375669
 20
-128.115796
 30
0.0
  0
SPLINE
  5
2d3
100
AcDbEntity
  8
0
 62
7
100
AcDbSpline
 70
8
 71
3
 72
8
 73
4
 74
0
 40
0
 40
0
 40
0
 40
0
 40
1
 40
1
 40
1
 40
1
 10
482.375669
 20
-128.115796
 30
0.0
 10
482.641400
 20
-128.381663
 30
0.0
 10
483.001863
 20
-128.531079
 30
0.0
 10
483.377760
 20
-128.531174
 30
0.0
  0
SPLINE
  5
2d4
100
AcDbEntity
  8
0
 62
7
100
AcDbSpline
 70
8
 71
3
 72
8
 73
4
 74
0
 40
0
 40
0
 40
0
 40
0
 40
1
 40
1
 40
1
 40
1
 10
483.377760
 20
-88.846214
 30
0.0
 10
482.595277
 20
-88.846413
 30
0.0
 10
481.960999
 20
-89.480691
 30
0.0
 10
481.960800
 20
-90.263174
 30
0.0
  0
SPLINE
  5
2d5
100
AcDbEntity
  8
0
 62
7
100
AcDbSpline
 70
8
 71
3
 72
8
 73
4
 74
0
 40
0
 40
0
 40
0
 40
0
 40
1
 40
1
 40
1
 40
1
 10
521.645760
 20
-90.263174
 30
0.0
 10
521.645665
 20
-89.887278
 30
0.0
 10
521.496249
 20
-89.526815
 30
0.0
 10
521.230382
 20
-89.261083
 30
0.0
  0
SPLINE
  5
2d6
100
AcDbEntity
  8
0
 62
7
100
AcDbSpline
 70
8
 71
3
 72
8
 73
4
 74
0
 40
0
 40
0
 40
0
 40
0
 40
1
 40
1
 40
1
 40
1
 10
521.230382
 20
-89.261083
 30
0.0
 10
520.964515
 20
-88.995352
 30
0.0
 10
520.603977
 20
-88.846119
 30
0.0
 10
520.228080
 20
-88.846214
 30
0.0
  0
LWPOLYLINE
  5
2d7
100
AcDbEntity
  8
0
 62
7
100
AcDbPolyline
 90
2
 70
0
 10
520.221600
 20
-34.839014
 30
0.0
 10
483.372000
 20
-34.839014
 30
0.0
  0
LWPOLYLINE
  5
2d8
100
AcDbEntity
  8
0
 62
7
100
AcDbPolyline
 90
2
 70
0
 10
521.640000
 20
-127.107014
 30
0.0
 10
521.640000
 20
-90.257414
 30
0.0
  0
LWPOLYLINE
  5
2d9
100
AcDbEntity
  8
0
 62
7
100
AcDbPolyline
 90
2
 70
0
 10
483.372000
 20
-128.525414
 30
0.0
 10
520.221600
 20
-128.525414
 30
0.0
  0
LWPOLYLINE
  5
2da
100
AcDbEntity
  8
0
 62
7
100
AcDbPolyline
 90
2
 70
0
 10
481.953600
 20
-90.257414
 30
0.0
 10
481.953600
 20
-127.107014
 30
0.0
  0
SPLINE
  5
2db
100
AcDbEntity
  8
0
 62
7
100
AcDbSpline
 70
8
 71
3
 72
8
 73
4
 74
0
 40
0
 40
0
 40
0
 40
0
 40
1
 40
1
 40
1
 40
1
 10
412.228080
 20
-74.531174
 30
0.0
 10
412.604101
 20
-74.531270
 30
0.0
 10
412.964749
 20
-74.381938
 30
0.0
 10
413.230637
 20
-74.116051
 30
0.0
  0
SPLINE
  5
2dc
100
AcDbEntity
  8
0
 62
7
100
AcDbSpline
 70
8
 71
3
 72
8
 73
4
 74
0
 40
0
 40
0
 40
0
 40
0
 40
1
 40
1
 40
1
 40
1
 10
413.230637
 20
-74.116051
 30
0.0
 10
413.496524
 20
-73.850164
 30
0.0
 10
413.645856
 20
-73.489516
 30
0.0
 10
413.645760
 20
-73.113494
 30
0.0
  0
SPLINE
  5
2dd
100
AcDbEntity
  8
0
 62
7
100
AcDbSpline
 70
8
 71
3
 72
8
 73
4
 74
0
 40
0
 40
0
 40
0
 40
0
 40
1
 40
1
 40
1
 40
1
 10
373.960800
 20
-73.113494
 30
0.0
 10
373.960705
 20
-73.489391
 30
0.0
 10
374.109937
 20
-73.849930
 30
0.0
 10
374.375669
 20
-74.115796
 30
0.0
  0
SPLINE
  5
2de
100
AcDbEntity
  8
0
 62
7
100
AcDbSpline
 70
8
 71
3
 72
8
 73
4
 74
0
 40
0
 40
0
 40
0
 40
0
 40
1
 40
1
 40
1
 40
1
 10
374.375669
 20
-74.115796
 30
0.0
 10
374.641400
 20
-74.381663
 30
0.0
 10
375.001863
 20
-74.531079
 30
0.0
 10
375.377760
 20
-74.531174
 30
0.0
  0
SPLINE
  5
2df
100
AcDbEntity
  8
0
 62
7
100
AcDbSpline
 70
8
 71
3
 72
8
 73
4
 74
0
 40
0
 40
0
 40
0
 40
0
 40
1
 40
1
 40
1
 40
1
 10
375.377760
 20
-34.846070
 30
0.0
 10
374.595136
 20
-34.846269
 30
0.0
 10
373.960800
 20
-35.480767
 30
0.0
 10
373.960800
 20
-36.263390
 30
0.0
  0
SPLINE
  5
2e0
100
AcDbEntity
  8
0
 62
7
100
AcDbSpline
 70
8
 71
3
 72
8
 73
4
 74
0
 40
0
 40
0
 40
0
 40
0
 40
1
 40
1
 40
1
 40
1
 10
413.645760
 20
-36.263390
 30
0.0
 10
413.645760
 20
-35.887431
 30
0.0
 10
413.496386
 20
-35.526876
 30
0.0
 10
413.230509
 20
-35.261067
 30
0.0
  0
SPLINE
  5
2e1
100
AcDbEntity
  8
0
 62
7
100
AcDbSpline
 70
8
 71
3
 72
8
 73
4
 74
0
 40
0
 40
0
 40
0
 40
0
 40
1
 40
1
 40
1
 40
1
 10
413.230509
 20
-35.261067
 30
0.0
 10
412.964632
 20
-34.995257
 30
0.0
 10
412.604039
 20
-34.845975
 30
0.0
 10
412.228080
 20
-34.846070
 30
0.0
  0
LWPOLYLINE
  5
2e2
100
AcDbEntity
  8
0
 62
7
100
AcDbPolyline
 90
2
 70
0
 10
520.221600
 20
-88.839014
 30
0.0
 10
483.372000
 20
-88.839014
 30
0.0
  0
LWPOLYLINE
  5
2e3
100
AcDbEntity
  8
0
 62
7
100
AcDbPolyline
 90
2
 70
0
 10
413.640000
 20
-73.107014
 30
0.0
 10
413.640000
 20
-36.257414
 30
0.0
  0
LWPOLYLINE
  5
2e4
100
AcDbEntity
  8
0
 62
7
100
AcDbPolyline
 90
2
 70
0
 10
375.372000
 20
-74.525414
 30
0.0
 10
412.221600
 20
-74.525414
 30
0.0
  0
LWPOLYLINE
  5
2e5
100
AcDbEntity
  8
0
 62
7
100
AcDbPolyline
 90
2
 70
0
 10
373.953600
 20
-36.257414
 30
0.0
 10
373.953600
 20
-73.107014
 30
0.0
  0
SPLINE
  5
2e6
100
AcDbEntity
  8
0
 62
7
100
AcDbSpline
 70
8
 71
3
 72
8
 73
4
 74
0
 40
0
 40
0
 40
0
 40
0
 40
1
 40
1
 40
1
 40
1
 10
466.228080
 20
-182.531174
 30
0.0
 10
466.604101
 20
-182.531270
 30
0.0
 10
466.964749
 20
-182.381938
 30
0.0
 10
467.230637
 20
-182.116051
 30
0.0
  0
SPLINE
  5
2e7
100
AcDbEntity
  8
0
 62
7
100
AcDbSpline
 70
8
 71
3
 72
8
 73
4
 74
0
 40
0
 40
0
 40
0
 40
0
 40
1
 40
1
 40
1
 40
1
 10
467.230637
 20
-182.116051
 30
0.0
 10
467.496524
 20
-181.850164
 30
0.0
 10
467.645856
 20
-181.489516
 30
0.0
 10
467.645760
 20
-181.113494
 30
0.0
  0
SPLINE
  5
2e8
100
AcDbEntity
  8
0
 62
7
100
AcDbSpline
 70
8
 71
3
 72
8
 73
4
 74
0
 40
0
 40
0
 40
0
 40
0
 40
1
 40
1
 40
1
 40
1
 10
427.960800
 20
-181.113494
 30
0.0
 10
427.960705
 20
-181.489391
 30
0.0
 10
428.109937
 20
-181.849930
 30
0.0
 10
428.375669
 20
-182.115796
 30
0.0
  0
SPLINE
  5
2e9
100
AcDbEntity
  8
0
 62
7
100
AcDbSpline
 70
8
 71
3
 72
8
 73
4
 74
0
 40
0
 40
0
 40
0
 40
0
 40
1
 40
1
 40
1
 40
1
 10
428.375669
 20
-182.115796
 30
0.0
 10
428.641400
 20
-182.381663
 30
0.0
 10
429.001863
 20
-182.531079
 30
0.0
 10
429.377760
 20
-182.531174
 30
0.0
  0
SPLINE
  5
2ea
100
AcDbEntity
  8
0
 62
7
100
AcDbSpline
 70
8
 71
3
 72
8
 73
4
 74
0
 40
0
 40
0
 40
0
 40
0
 40
1
 40
1
 40
1
 40
1
 10
429.377760
 20
-142.846214
 30
0.0
 10
428.595277
 20
-142.846413
 30
0.0
 10
427.960999
 20
-143.480691
 30
0.0
 10
427.960800
 20
-144.263174
 30
0.0
  0
SPLINE
  5
2eb
100
AcDbEntity
  8
0
 62
7
100
AcDbSpline
 70
8
 71
3
 72
8
 73
4
 74
0
 40
0
 40
0
 40
0
 40
0
 40
1
 40
1
 40
1
 40
1
 10
467.645760
 20
-144.263174
 30
0.0
 10
467.645665
 20
-143.887278
 30
0.0
 10
467.496249
 20
-143.526815
 30
0.0
 10
467.230382
 20
-143.261083
 30
0.0
  0
SPLINE
  5
2ec
100
AcDbEntity
  8
0
 62
7
100
AcDbSpline
 70
8
 71
3
 72
8
 73
4
 74
0
 40
0
 40
0
 40
0
 40
0
 40
1
 40
1
 40
1
 40
1
 10
467.230382
 20
-143.261083
 30
0.0
 10
466.964515
 20
-142.995352
 30
0.0
 10
466.603977
 20
-142.846119
 30
0.0
 10
466.228080
 20
-142.846214
 30
0.0
  0
LWPOLYLINE
  5
2ed
100
AcDbEntity
  8
0
 62
7
100
AcDbPolyline
 90
2
 70
0
 10
412.221600
 20
-34.839014
 30
0.0
 10
375.372000
 20
-34.839014
 30
0.0
  0
LWPOLYLINE
  5
2ee
100
AcDbEntity
  8
0
 62
7
100
AcDbPolyline
 90
2
 70
0
 10
467.640000
 20
-181.107014
 30
0.0
 10
467.640000
 20
-144.257414
 30
0.0
  0
LWPOLYLINE
  5
2ef
100
AcDbEntity
  8
0
 62
7
100
AcDbPolyline
 90
2
 70
0
 10
429.372000
 20
-182.525414
 30
0.0
 10
466.221600
 20
-182.525414
 30
0.0
  0
LWPOLYLINE
  5
2f0
100
AcDbEntity
  8
0
 62
7
100
AcDbPolyline
 90
2
 70
0
 10
427.953600
 20
-144.257414
 30
0.0
 10
427.953600
 20
-181.107014
 30
0.0
  0
SPLINE
  5
2f1
100
AcDbEntity
  8
0
 62
7
100
AcDbSpline
 70
8
 71
3
 72
8
 73
4
 74
0
 40
0
 40
0
 40
0
 40
0
 40
1
 40
1
 40
1
 40
1
 10
574.228080
 20
-128.531174
 30
0.0
 10
574.604101
 20
-128.531270
 30
0.0
 10
574.964749
 20
-128.381938
 30
0.0
 10
575.230637
 20
-128.116051
 30
0.0
  0
SPLINE
  5
2f2
100
AcDbEntity
  8
0
 62
7
100
AcDbSpline
 70
8
 71
3
 72
8
 73
4
 74
0
 40
0
 40
0
 40
0
 40
0
 40
1
 40
1
 40
1
 40
1
 10
575.230637
 20
-128.116051
 30
0.0
 10
575.496524
 20
-127.850164
 30
0.0
 10
575.645856
 20
-127.489516
 30
0.0
 10
575.645760
 20
-127.113494
 30
0.0
  0
SPLINE
  5
2f3
100
AcDbEntity
  8
0
 62
7
100
AcDbSpline
 70
8
 71
3
 72
8
 73
4
 74
0
 40
0
 40
0
 40
0
 40
0
 40
1
 40
1
 40
1
 40
1
 10
535.960800
 20
-127.113494
 30
0.0
 10
535.960705
 20
-127.489391
 30
0.0
 10
536.109937
 20
-127.849930
 30
0.0
 10
536.375669
 20
-128.115796
 30
0.0
  0
SPLINE
  5
2f4
100
AcDbEntity
  8
0
 62
7
100
AcDbSpline
 70
8
 71
3
 72
8
 73
4
 74
0
 40
0
 40
0
 40
0
 40
0
 40
1
 40
1
 40
1
 40
1
 10
536.375669
 20
-128.115796
 30
0.0
 10
536.641400
 20
-128.381663
 30
0.0
 10
537.001863
 20
-128.531079
 30
0.0
 10
537.377760
 20
-128.531174
 30
0.0
  0
SPLINE
  5
2f5
100
AcDbEntity
  8
0
 62
7
100
AcDbSpline
 70
8
 71
3
 72
8
 73
4
 74
0
 40
0
 40
0
 40
0
 40
0
 40
1
 40
1
 40
1
 40
1
 10
537.377760
 20
-88.846214
 30
0.0
 10
536.595277
 20
-88.846413
 30
0.0
 10
535.960999
 20
-89.480691
 30
0.0
 10
535.960800
 20
-90.263174
 30
0.0
  0
SPLINE
  5
2f6
100
AcDbEntity
  8
0
 62
7
100
AcDbSpline
 70
8
 71
3
 72
8
 73
4
 74
0
 40
0
 40
0
 40
0
 40
0
 40
1
 40
1
 40
1
 40
1
 10
575.645760
 20
-90.263174
 30
0.0
 10
575.645665
 20
-89.887278
 30
0.0
 10
575.496249
 20
-89.526815
 30
0.0
 10
575.230382
 20
-89.261083
 30
0.0
  0
SPLINE
  5
2f7
100
AcDbEntity
  8
0
 62
7
100
AcDbSpline
 70
8
 71
3
 72
8
 73
4
 74
0
 40
0
 40
0
 40
0
 40
0
 40
1
 40
1
 40
1
 40
1
 10
575.230382
 20
-89.261083
 30
0.0
 10
574.964515
 20
-88.995352
 30
0.0
 10
574.603977
 20
-88.846119
 30
0.0
 10
574.228080
 20
-88.846214
 30
0.0
  0
LWPOLYLINE
  5
2f8
100
AcDbEntity
  8
0
 62
7
100
AcDbPolyline
 90
2
 70
0
 10
466.221600
 20
-142.839014
 30
0.0
 10
429.372000
 20
-142.839014
 30
0.0
  0
LWPOLYLINE
  5
2f9
100
AcDbEntity
  8
0
 62
7
100
AcDbPolyline
 90
2
 70
0
 10
575.640000
 20
-127.107014
 30
0.0
 10
575.640000
 20
-90.257414
 30
0.0
  0
LWPOLYLINE
  5
2fa
100
AcDbEntity
  8
0
 62
7
100
AcDbPolyline
 90
2
 70
0
 10
537.372000
 20
-128.525414
 30
0.0
 10
574.221600
 20
-128.525414
 30
0.0
  0
LWPOLYLINE
  5
2fb
100
AcDbEntity
  8
0
 62
7
100
AcDbPolyline
 90
2
 70
0
 10
535.953600
 20
-90.257414
 30
0.0
 10
535.953600
 20
-127.107014
 30
0.0
  0
SPLINE
  5
2fc
100
AcDbEntity
  8
0
 62
7
100
AcDbSpline
 70
8
 71
3
 72
8
 73
4
 74
0
 40
0
 40
0
 40
0
 40
0
 40
1
 40
1
 40
1
 40
1
 10
736.228800
 20
-128.531174
 30
0.0
 10
736.604946
 20
-128.531461
 30
0.0
 10
736.965779
 20
-128.382214
 30
0.0
 10
737.231822
 20
-128.116306
 30
0.0
  0
SPLINE
  5
2fd
100
AcDbEntity
  8
0
 62
7
100
AcDbSpline
 70
8
 71
3
 72
8
 73
4
 74
0
 40
0
 40
0
 40
0
 40
0
 40
1
 40
1
 40
1
 40
1
 10
737.231822
 20
-128.116306
 30
0.0
 10
737.497865
 20
-127.850398
 30
0.0
 10
737.647296
 20
-127.489641
 30
0.0
 10
737.647200
 20
-127.113494
 30
0.0
  0
SPLINE
  5
2fe
100
AcDbEntity
  8
0
 62
7
100
AcDbSpline
 70
8
 71
3
 72
8
 73
4
 74
0
 40
0
 40
0
 40
0
 40
0
 40
1
 40
1
 40
1
 40
1
 10
697.960800
 20
-127.113494
 30
0.0
 10
697.960705
 20
-127.489391
 30
0.0
 10
698.109937
 20
-127.849930
 30
0.0
 10
698.375669
 20
-128.115796
 30
0.0
  0
SPLINE
  5
2ff
100
AcDbEntity
  8
0
 62
7
100
AcDbSpline
 70
8
 71
3
 72
8
 73
4
 74
0
 40
0
 40
0
 40
0
 40
0
 40
1
 40
1
 40
1
 40
1
 10
698.375669
 20
-128.115796
 30
0.0
 10
698.641400
 20
-128.381663
 30
0.0
 10
699.001863
 20
-128.531079
 30
0.0
 10
699.377760
 20
-128.531174
 30
0.0
  0
SPLINE
  5
300
100
AcDbEntity
  8
0
 62
7
100
AcDbSpline
 70
8
 71
3
 72
8
 73
4
 74
0
 40
0
 40
0
 40
0
 40
0
 40
1
 40
1
 40
1
 40
1
 10
699.377760
 20
-88.846214
 30
0.0
 10
698.595277
 20
-88.846413
 30
0.0
 10
697.960999
 20
-89.480691
 30
0.0
 10
697.960800
 20
-90.263174
 30
0.0
  0
SPLINE
  5
301
100
AcDbEntity
  8
0
 62
7
100
AcDbSpline
 70
8
 71
3
 72
8
 73
4
 74
0
 40
0
 40
0
 40
0
 40
0
 40
1
 40
1
 40
1
 40
1
 10
737.647200
 20
-90.263174
 30
0.0
 10
737.647105
 20
-89.887153
 30
0.0
 10
737.497590
 20
-89.526581
 30
0.0
 10
737.231568
 20
-89.260829
 30
0.0
  0
SPLINE
  5
302
100
AcDbEntity
  8
0
 62
7
100
AcDbSpline
 70
8
 71
3
 72
8
 73
4
 74
0
 40
0
 40
0
 40
0
 40
0
 40
1
 40
1
 40
1
 40
1
 10
737.231568
 20
-89.260829
 30
0.0
 10
736.965545
 20
-88.995076
 30
0.0
 10
736.604821
 20
-88.845928
 30
0.0
 10
736.228800
 20
-88.846214
 30
0.0
  0
LWPOLYLINE
  5
303
100
AcDbEntity
  8
0
 62
7
100
AcDbPolyline
 90
2
 70
0
 10
574.221600
 20
-88.839014
 30
0.0
 10
537.372000
 20
-88.839014
 30
0.0
  0
LWPOLYLINE
  5
304
100
AcDbEntity
  8
0
 62
7
100
AcDbPolyline
 90
2
 70
0
 10
737.640000
 20
-127.107014
 30
0.0
 10
737.640000
 20
-90.257414
 30
0.0
  0
LWPOLYLINE
  5
305
100
AcDbEntity
  8
0
 62
7
100
AcDbPolyline
 90
2
 70
0
 10
699.372000
 20
-128.525414
 30
0.0
 10
736.221600
 20
-128.525414
 30
0.0
  0
LWPOLYLINE
  5
306
100
AcDbEntity
  8
0
 62
7
100
AcDbPolyline
 90
2
 70
0
 10
697.953600
 20
-90.257414
 30
0.0
 10
697.953600
 20
-127.107014
 30
0.0
  0
SPLINE
  5
307
100
AcDbEntity
  8
0
 62
7
100
AcDbSpline
 70
8
 71
3
 72
8
 73
4
 74
0
 40
0
 40
0
 40
0
 40
0
 40
1
 40
1
 40
1
 40
1
 10
520.228080
 20
-182.531174
 30
0.0
 10
520.604101
 20
-182.531270
 30
0.0
 10
520.964749
 20
-182.381938
 30
0.0
 10
521.230637
 20
-182.116051
 30
0.0
  0
SPLINE
  5
308
100
AcDbEntity
  8
0
 62
7
100
AcDbSpline
 70
8
 71
3
 72
8
 73
4
 74
0
 40
0
 40
0
 40
0
 40
0
 40
1
 40
1
 40
1
 40
1
 10
521.230637
 20
-182.116051
 30
0.0
 10
521.496524
 20
-181.850164
 30
0.0
 10
521.645856
 20
-181.489516
 30
0.0
 10
521.645760
 20
-181.113494
 30
0.0
  0
SPLINE
  5
309
100
AcDbEntity
  8
0
 62
7
100
AcDbSpline
 70
8
 71
3
 72
8
 73
4
 74
0
 40
0
 40
0
 40
0
 40
0
 40
1
 40
1
 40
1
 40
1
 10
481.960800
 20
-181.113494
 30
0.0
 10
481.960705
 20
-181.489391
 30
0.0
 10
482.109937
 20
-181.849930
 30
0.0
 10
482.375669
 20
-182.115796
 30
0.0
  0
SPLINE
  5
30a
100
AcDbEntity
  8
0
 62
7
100
AcDbSpline
 70
8
 71
3
 72
8
 73
4
 74
0
 40
0
 40
0
 40
0
 40
0
 40
1
 40
1
 40
1
 40
1
 10
482.375669
 20
-182.115796
 30
0.0
 10
482.641400
 20
-182.381663
 30
0.0
 10
483.001863
 20
-182.531079
 30
0.0
 10
483.377760
 20
-182.531174
 30
0.0
  0
SPLINE
  5
30b
100
AcDbEntity
  8
0
 62
7
100
AcDbSpline
 70
8
 71
3
 72
8
 73
4
 74
0
 40
0
 40
0
 40
0
 40
0
 40
1
 40
1
 40
1
 40
1
 10
483.377760
 20
-142.846214
 30
0.0
 10
482.595277
 20
-142.846413
 30
0.0
 10
481.960999
 20
-143.480691
 30
0.0
 10
481.960800
 20
-144.263174
 30
0.0
  0
SPLINE
  5
30c
100
AcDbEntity
  8
0
 62
7
100
AcDbSpline
 70
8
 71
3
 72
8
 73
4
 74
0
 40
0
 40
0
 40
0
 40
0
 40
1
 40
1
 40
1
 40
1
 10
521.645760
 20
-144.263174
 30
0.0
 10
521.645665
 20
-143.887278
 30
0.0
 10
521.496249
 20
-143.526815
 30
0.0
 10
521.230382
 20
-143.261083
 30
0.0
  0
SPLINE
  5
30d
100
AcDbEntity
  8
0
 62
7
100
AcDbSpline
 70
8
 71
3
 72
8
 73
4
 74
0
 40
0
 40
0
 40
0
 40
0
 40
1
 40
1
 40
1
 40
1
 10
521.230382
 20
-143.261083
 30
0.0
 10
520.964515
 20
-142.995352
 30
0.0
 10
520.603977
 20
-142.846119
 30
0.0
 10
520.228080
 20
-142.846214
 30
0.0
  0
LWPOLYLINE
  5
30e
100
AcDbEntity
  8
0
 62
7
100
AcDbPolyline
 90
2
 70
0
 10
736.221600
 20
-88.839014
 30
0.0
 10
699.372000
 20
-88.839014
 30
0.0
  0
LWPOLYLINE
  5
30f
100
AcDbEntity
  8
0
 62
7
100
AcDbPolyline
 90
2
 70
0
 10
521.640000
 20
-181.107014
 30
0.0
 10
521.640000
 20
-144.257414
 30
0.0
  0
LWPOLYLINE
  5
310
100
AcDbEntity
  8
0
 62
7
100
AcDbPolyline
 90
2
 70
0
 10
483.372000
 20
-182.525414
 30
0.0
 10
520.221600
 20
-182.525414
 30
0.0
  0
LWPOLYLINE
  5
311
100
AcDbEntity
  8
0
 62
7
100
AcDbPolyline
 90
2
 70
0
 10
481.953600
 20
-144.257414
 30
0.0
 10
481.953600
 20
-181.107014
 30
0.0
  0
SPLINE
  5
312
100
AcDbEntity
  8
0
 62
7
100
AcDbSpline
 70
8
 71
3
 72
8
 73
4
 74
0
 40
0
 40
0
 40
0
 40
0
 40
1
 40
1
 40
1
 40
1
 10
358.228080
 20
-128.531174
 30
0.0
 10
358.604101
 20
-128.531270
 30
0.0
 10
358.964749
 20
-128.381938
 30
0.0
 10
359.230637
 20
-128.116051
 30
0.0
  0
SPLINE
  5
313
100
AcDbEntity
  8
0
 62
7
100
AcDbSpline
 70
8
 71
3
 72
8
 73
4
 74
0
 40
0
 40
0
 40
0
 40
0
 40
1
 40
1
 40
1
 40
1
 10
359.230637
 20
-128.116051
 30
0.0
 10
359.496524
 20
-127.850164
 30
0.0
 10
359.645856
 20
-127.489516
 30
0.0
 10
359.645760
 20
-127.113494
 30
0.0
  0
SPLINE
  5
314
100
AcDbEntity
  8
0
 62
7
100
AcDbSpline
 70
8
 71
3
 72
8
 73
4
 74
0
 40
0
 40
0
 40
0
 40
0
 40
1
 40
1
 40
1
 40
1
 10
319.960800
 20
-127.113494
 30
0.0
 10
319.960705
 20
-127.489391
 30
0.0
 10
320.109937
 20
-127.849930
 30
0.0
 10
320.375669
 20
-128.115796
 30
0.0
  0
SPLINE
  5
315
100
AcDbEntity
  8
0
 62
7
100
AcDbSpline
 70
8
 71
3
 72
8
 73
4
 74
0
 40
0
 40
0
 40
0
 40
0
 40
1
 40
1
 40
1
 40
1
 10
320.375669
 20
-128.115796
 30
0.0
 10
320.641400
 20
-128.381663
 30
0.0
 10
321.001863
 20
-128.531079
 30
0.0
 10
321.377760
 20
-128.531174
 30
0.0
  0
SPLINE
  5
316
100
AcDbEntity
  8
0
 62
7
100
AcDbSpline
 70
8
 71
3
 72
8
 73
4
 74
0
 40
0
 40
0
 40
0
 40
0
 40
1
 40
1
 40
1
 40
1
 10
321.377760
 20
-88.846214
 30
0.0
 10
320.595277
 20
-88.846413
 30
0.0
 10
319.960999
 20
-89.480691
 30
0.0
 10
319.960800
 20
-90.263174
 30
0.0
  0
SPLINE
  5
317
100
AcDbEntity
  8
0
 62
7
100
AcDbSpline
 70
8
 71
3
 72
8
 73
4
 74
0
 40
0
 40
0
 40
0
 40
0
 40
1
 40
1
 40
1
 40
1
 10
359.645760
 20
-90.263174
 30
0.0
 10
359.645665
 20
-89.887278
 30
0.0
 10
359.496249
 20
-89.526815
 30
0.0
 10
359.230382
 20
-89.261083
 30
0.0
  0
SPLINE
  5
318
100
AcDbEntity
  8
0
 62
7
100
AcDbSpline
 70
8
 71
3
 72
8
 73
4
 74
0
 40
0
 40
0
 40
0
 40
0
 40
1
 40
1
 40
1
 40
1
 10
359.230382
 20
-89.261083
 30
0.0
 10
358.964515
 20
-88.995352
 30
0.0
 10
358.603977
 20
-88.846119
 30
0.0
 10
358.228080
 20
-88.846214
 30
0.0
  0
LWPOLYLINE
  5
319
100
AcDbEntity
  8
0
 62
7
100
AcDbPolyline
 90
2
 70
0
 10
520.221600
 20
-142.839014
 30
0.0
 10
483.372000
 20
-142.839014
 30
0.0
  0
LWPOLYLINE
  5
31a
100
AcDbEntity
  8
0
 62
7
100
AcDbPolyline
 90
2
 70
0
 10
359.640000
 20
-127.107014
 30
0.0
 10
359.640000
 20
-90.257414
 30
0.0
  0
LWPOLYLINE
  5
31b
100
AcDbEntity
  8
0
 62
7
100
AcDbPolyline
 90
2
 70
0
 10
321.372000
 20
-128.525414
 30
0.0
 10
358.221600
 20
-128.525414
 30
0.0
  0
LWPOLYLINE
  5
31c
100
AcDbEntity
  8
0
 62
7
100
AcDbPolyline
 90
2
 70
0
 10
319.953600
 20
-90.257414
 30
0.0
 10
319.953600
 20
-127.107014
 30
0.0
  0
SPLINE
  5
31d
100
AcDbEntity
  8
0
 62
7
100
AcDbSpline
 70
8
 71
3
 72
8
 73
4
 74
0
 40
0
 40
0
 40
0
 40
0
 40
1
 40
1
 40
1
 40
1
 10
250.228080
 20
-74.531174
 30
0.0
 10
250.604101
 20
-74.531270
 30
0.0
 10
250.964749
 20
-74.381938
 30
0.0
 10
251.230637
 20
-74.116051
 30
0.0
  0
SPLINE
  5
31e
100
AcDbEntity
  8
0
 62
7
100
AcDbSpline
 70
8
 71
3
 72
8
 73
4
 74
0
 40
0
 40
0
 40
0
 40
0
 40
1
 40
1
 40
1
 40
1
 10
251.230637
 20
-74.116051
 30
0.0
 10
251.496524
 20
-73.850164
 30
0.0
 10
251.645856
 20
-73.489516
 30
0.0
 10
251.645760
 20
-73.113494
 30
0.0
  0
SPLINE
  5
31f
100
AcDbEntity
  8
0
 62
7
100
AcDbSpline
 70
8
 71
3
 72
8
 73
4
 74
0
 40
0
 40
0
 40
0
 40
0
 40
1
 40
1
 40
1
 40
1
 10
211.960800
 20
-73.113494
 30
0.0
 10
211.960705
 20
-73.489391
 30
0.0
 10
212.109937
 20
-73.849930
 30
0.0
 10
212.375669
 20
-74.115796
 30
0.0
  0
SPLINE
  5
320
100
AcDbEntity
  8
0
 62
7
100
AcDbSpline
 70
8
 71
3
 72
8
 73
4
 74
0
 40
0
 40
0
 40
0
 40
0
 40
1
 40
1
 40
1
 40
1
 10
212.375669
 20
-74.115796
 30
0.0
 10
212.641400
 20
-74.381663
 30
0.0
 10
213.001863
 20
-74.531079
 30
0.0
 10
213.377760
 20
-74.531174
 30
0.0
  0
SPLINE
  5
321
100
AcDbEntity
  8
0
 62
7
100
AcDbSpline
 70
8
 71
3
 72
8
 73
4
 74
0
 40
0
 40
0
 40
0
 40
0
 40
1
 40
1
 40
1
 40
1
 10
213.377760
 20
-34.846070
 30
0.0
 10
212.595136
 20
-34.846269
 30
0.0
 10
211.960800
 20
-35.480767
 30
0.0
 10
211.960800
 20
-36.263390
 30
0.0
  0
SPLINE
  5
322
100
AcDbEntity
  8
0
 62
7
100
AcDbSpline
 70
8
 71
3
 72
8
 73
4
 74
0
 40
0
 40
0
 40
0
 40
0
 40
1
 40
1
 40
1
 40
1
 10
251.645760
 20
-36.263390
 30
0.0
 10
251.645760
 20
-35.887431
 30
0.0
 10
251.496386
 20
-35.526876
 30
0.0
 10
251.230509
 20
-35.261067
 30
0.0
  0
SPLINE
  5
323
100
AcDbEntity
  8
0
 62
7
100
AcDbSpline
 70
8
 71
3
 72
8
 73
4
 74
0
 40
0
 40
0
 40
0
 40
0
 40
1
 40
1
 40
1
 40
1
 10
251.230509
 20
-35.261067
 30
0.0
 10
250.964632
 20
-34.995257
 30
0.0
 10
250.604039
 20
-34.845975
 30
0.0
 10
250.228080
 20
-34.846070
 30
0.0
  0
LWPOLYLINE
  5
324
100
AcDbEntity
  8
0
 62
7
100
AcDbPolyline
 90
2
 70
0
 10
358.221600
 20
-88.839014
 30
0.0
 10
321.372000
 20
-88.839014
 30
0.0
  0
LWPOLYLINE
  5
325
100
AcDbEntity
  8
0
 62
7
100
AcDbPolyline
 90
2
 70
0
 10
251.640000
 20
-73.107014
 30
0.0
 10
251.640000
 20
-36.257414
 30
0.0
  0
LWPOLYLINE
  5
326
100
AcDbEntity
  8
0
 62
7
100
AcDbPolyline
 90
2
 70
0
 10
213.372000
 20
-74.525414
 30
0.0
 10
250.221600
 20
-74.525414
 30
0.0
  0
LWPOLYLINE
  5
327
100
AcDbEntity
  8
0
 62
7
100
AcDbPolyline
 90
2
 70
0
 10
211.953600
 20
-36.257414
 30
0.0
 10
211.953600
 20
-73.107014
 30
0.0
  0
SPLINE
  5
328
100
AcDbEntity
  8
0
 62
7
100
AcDbSpline
 70
8
 71
3
 72
8
 73
4
 74
0
 40
0
 40
0
 40
0
 40
0
 40
1
 40
1
 40
1
 40
1
 10
250.228080
 20
-128.531174
 30
0.0
 10
250.604101
 20
-128.531270
 30
0.0
 10
250.964749
 20
-128.381938
 30
0.0
 10
251.230637
 20
-128.116051
 30
0.0
  0
SPLINE
  5
329
100
AcDbEntity
  8
0
 62
7
100
AcDbSpline
 70
8
 71
3
 72
8
 73
4
 74
0
 40
0
 40
0
 40
0
 40
0
 40
1
 40
1
 40
1
 40
1
 10
251.230637
 20
-128.116051
 30
0.0
 10
251.496524
 20
-127.850164
 30
0.0
 10
251.645856
 20
-127.489516
 30
0.0
 10
251.645760
 20
-127.113494
 30
0.0
  0
SPLINE
  5
32a
100
AcDbEntity
  8
0
 62
7
100
AcDbSpline
 70
8
 71
3
 72
8
 73
4
 74
0
 40
0
 40
0
 40
0
 40
0
 40
1
 40
1
 40
1
 40
1
 10
211.960800
 20
-127.113494
 30
0.0
 10
211.960705
 20
-127.489391
 30
0.0
 10
212.109937
 20
-127.849930
 30
0.0
 10
212.375669
 20
-128.115796
 30
0.0
  0
SPLINE
  5
32b
100
AcDbEntity
  8
0
 62
7
100
AcDbSpline
 70
8
 71
3
 72
8
 73
4
 74
0
 40
0
 40
0
 40
0
 40
0
 40
1
 40
1
 40
1
 40
1
 10
212.375669
 20
-128.115796
 30
0.0
 10
212.641400
 20
-128.381663
 30
0.0
 10
213.001863
 20
-128.531079
 30
0.0
 10
213.377760
 20
-128.531174
 30
0.0
  0
SPLINE
  5
32c
100
AcDbEntity
  8
0
 62
7
100
AcDbSpline
 70
8
 71
3
 72
8
 73
4
 74
0
 40
0
 40
0
 40
0
 40
0
 40
1
 40
1
 40
1
 40
1
 10
213.377760
 20
-88.846214
 30
0.0
 10
212.595277
 20
-88.846413
 30
0.0
 10
211.960999
 20
-89.480691
 30
0.0
 10
211.960800
 20
-90.263174
 30
0.0
  0
SPLINE
  5
32d
100
AcDbEntity
  8
0
 62
7
100
AcDbSpline
 70
8
 71
3
 72
8
 73
4
 74
0
 40
0
 40
0
 40
0
 40
0
 40
1
 40
1
 40
1
 40
1
 10
251.645760
 20
-90.263174
 30
0.0
 10
251.645665
 20
-89.887278
 30
0.0
 10
251.496249
 20
-89.526815
 30
0.0
 10
251.230382
 20
-89.261083
 30
0.0
  0
SPLINE
  5
32e
100
AcDbEntity
  8
0
 62
7
100
AcDbSpline
 70
8
 71
3
 72
8
 73
4
 74
0
 40
0
 40
0
 40
0
 40
0
 40
1
 40
1
 40
1
 40
1
 10
251.230382
 20
-89.261083
 30
0.0
 10
250.964515
 20
-88.995352
 30
0.0
 10
250.603977
 20
-88.846119
 30
0.0
 10
250.228080
 20
-88.846214
 30
0.0
  0
LWPOLYLINE
  5
32f
100
AcDbEntity
  8
0
 62
7
100
AcDbPolyline
 90
2
 70
0
 10
250.221600
 20
-34.839014
 30
0.0
 10
213.372000
 20
-34.839014
 30
0.0
  0
LWPOLYLINE
  5
330
100
AcDbEntity
  8
0
 62
7
100
AcDbPolyline
 90
2
 70
0
 10
251.640000
 20
-127.107014
 30
0.0
 10
251.640000
 20
-90.257414
 30
0.0
  0
LWPOLYLINE
  5
331
100
AcDbEntity
  8
0
 62
7
100
AcDbPolyline
 90
2
 70
0
 10
213.372000
 20
-128.525414
 30
0.0
 10
250.221600
 20
-128.525414
 30
0.0
  0
LWPOLYLINE
  5
332
100
AcDbEntity
  8
0
 62
7
100
AcDbPolyline
 90
2
 70
0
 10
211.953600
 20
-90.257414
 30
0.0
 10
211.953600
 20
-127.107014
 30
0.0
  0
SPLINE
  5
333
100
AcDbEntity
  8
0
 62
7
100
AcDbSpline
 70
8
 71
3
 72
8
 73
4
 74
0
 40
0
 40
0
 40
0
 40
0
 40
1
 40
1
 40
1
 40
1
 10
466.228080
 20
-74.531174
 30
0.0
 10
466.604101
 20
-74.531270
 30
0.0
 10
466.964749
 20
-74.381938
 30
0.0
 10
467.230637
 20
-74.116051
 30
0.0
  0
SPLINE
  5
334
100
AcDbEntity
  8
0
 62
7
100
AcDbSpline
 70
8
 71
3
 72
8
 73
4
 74
0
 40
0
 40
0
 40
0
 40
0
 40
1
 40
1
 40
1
 40
1
 10
467.230637
 20
-74.116051
 30
0.0
 10
467.496524
 20
-73.850164
 30
0.0
 10
467.645856
 20
-73.489516
 30
0.0
 10
467.645760
 20
-73.113494
 30
0.0
  0
SPLINE
  5
335
100
AcDbEntity
  8
0
 62
7
100
AcDbSpline
 70
8
 71
3
 72
8
 73
4
 74
0
 40
0
 40
0
 40
0
 40
0
 40
1
 40
1
 40
1
 40
1
 10
427.960800
 20
-73.113494
 30
0.0
 10
427.960705
 20
-73.489391
 30
0.0
 10
428.109937
 20
-73.849930
 30
0.0
 10
428.375669
 20
-74.115796
 30
0.0
  0
SPLINE
  5
336
100
AcDbEntity
  8
0
 62
7
100
AcDbSpline
 70
8
 71
3
 72
8
 73
4
 74
0
 40
0
 40
0
 40
0
 40
0
 40
1
 40
1
 40
1
 40
1
 10
428.375669
 20
-74.115796
 30
0.0
 10
428.641400
 20
-74.381663
 30
0.0
 10
429.001863
 20
-74.531079
 30
0.0
 10
429.377760
 20
-74.531174
 30
0.0
  0
SPLINE
  5
337
100
AcDbEntity
  8
0
 62
7
100
AcDbSpline
 70
8
 71
3
 72
8
 73
4
 74
0
 40
0
 40
0
 40
0
 40
0
 40
1
 40
1
 40
1
 40
1
 10
429.377760
 20
-34.846070
 30
0.0
 10
428.595136
 20
-34.846269
 30
0.0
 10
427.960800
 20
-35.480767
 30
0.0
 10
427.960800
 20
-36.263390
 30
0.0
  0
SPLINE
  5
338
100
AcDbEntity
  8
0
 62
7
100
AcDbSpline
 70
8
 71
3
 72
8
 73
4
 74
0
 40
0
 40
0
 40
0
 40
0
 40
1
 40
1
 40
1
 40
1
 10
467.645760
 20
-36.263390
 30
0.0
 10
467.645760
 20
-35.887431
 30
0.0
 10
467.496386
 20
-35.526876
 30
0.0
 10
467.230509
 20
-35.261067
 30
0.0
  0
SPLINE
  5
339
100
AcDbEntity
  8
0
 62
7
100
AcDbSpline
 70
8
 71
3
 72
8
 73
4
 74
0
 40
0
 40
0
 40
0
 40
0
 40
1
 40
1
 40
1
 40
1
 10
467.230509
 20
-35.261067
 30
0.0
 10
466.964632
 20
-34.995257
 30
0.0
 10
466.604039
 20
-34.845975
 30
0.0
 10
466.228080
 20
-34.846070
 30
0.0
  0
LWPOLYLINE
  5
33a
100
AcDbEntity
  8
0
 62
7
100
AcDbPolyline
 90
2
 70
0
 10
250.221600
 20
-88.839014
 30
0.0
 10
213.372000
 20
-88.839014
 30
0.0
  0
LWPOLYLINE
  5
33b
100
AcDbEntity
  8
0
 62
7
100
AcDbPolyline
 90
2
 70
0
 10
467.640000
 20
-73.107014
 30
0.0
 10
467.640000
 20
-36.257414
 30
0.0
  0
LWPOLYLINE
  5
33c
100
AcDbEntity
  8
0
 62
7
100
AcDbPolyline
 90
2
 70
0
 10
429.372000
 20
-74.525414
 30
0.0
 10
466.221600
 20
-74.525414
 30
0.0
  0
LWPOLYLINE
  5
33d
100
AcDbEntity
  8
0
 62
7
100
AcDbPolyline
 90
2
 70
0
 10
427.953600
 20
-36.257414
 30
0.0
 10
427.953600
 20
-73.107014
 30
0.0
  0
SPLINE
  5
33e
100
AcDbEntity
  8
0
 62
7
100
AcDbSpline
 70
8
 71
3
 72
8
 73
4
 74
0
 40
0
 40
0
 40
0
 40
0
 40
1
 40
1
 40
1
 40
1
 10
304.228080
 20
-128.531174
 30
0.0
 10
304.604101
 20
-128.531270
 30
0.0
 10
304.964749
 20
-128.381938
 30
0.0
 10
305.230637
 20
-128.116051
 30
0.0
  0
SPLINE
  5
33f
100
AcDbEntity
  8
0
 62
7
100
AcDbSpline
 70
8
 71
3
 72
8
 73
4
 74
0
 40
0
 40
0
 40
0
 40
0
 40
1
 40
1
 40
1
 40
1
 10
305.230637
 20
-128.116051
 30
0.0
 10
305.496524
 20
-127.850164
 30
0.0
 10
305.645856
 20
-127.489516
 30
0.0
 10
305.645760
 20
-127.113494
 30
0.0
  0
SPLINE
  5
340
100
AcDbEntity
  8
0
 62
7
100
AcDbSpline
 70
8
 71
3
 72
8
 73
4
 74
0
 40
0
 40
0
 40
0
 40
0
 40
1
 40
1
 40
1
 40
1
 10
265.960800
 20
-127.113494
 30
0.0
 10
265.960705
 20
-127.489391
 30
0.0
 10
266.109937
 20
-127.849930
 30
0.0
 10
266.375669
 20
-128.115796
 30
0.0
  0
SPLINE
  5
341
100
AcDbEntity
  8
0
 62
7
100
AcDbSpline
 70
8
 71
3
 72
8
 73
4
 74
0
 40
0
 40
0
 40
0
 40
0
 40
1
 40
1
 40
1
 40
1
 10
266.375669
 20
-128.115796
 30
0.0
 10
266.641400
 20
-128.381663
 30
0.0
 10
267.001863
 20
-128.531079
 30
0.0
 10
267.377760
 20
-128.531174
 30
0.0
  0
SPLINE
  5
342
100
AcDbEntity
  8
0
 62
7
100
AcDbSpline
 70
8
 71
3
 72
8
 73
4
 74
0
 40
0
 40
0
 40
0
 40
0
 40
1
 40
1
 40
1
 40
1
 10
267.377760
 20
-88.846214
 30
0.0
 10
266.595277
 20
-88.846413
 30
0.0
 10
265.960999
 20
-89.480691
 30
0.0
 10
265.960800
 20
-90.263174
 30
0.0
  0
SPLINE
  5
343
100
AcDbEntity
  8
0
 62
7
100
AcDbSpline
 70
8
 71
3
 72
8
 73
4
 74
0
 40
0
 40
0
 40
0
 40
0
 40
1
 40
1
 40
1
 40
1
 10
305.645760
 20
-90.263174
 30
0.0
 10
305.645665
 20
-89.887278
 30
0.0
 10
305.496249
 20
-89.526815
 30
0.0
 10
305.230382
 20
-89.261083
 30
0.0
  0
SPLINE
  5
344
100
AcDbEntity
  8
0
 62
7
100
AcDbSpline
 70
8
 71
3
 72
8
 73
4
 74
0
 40
0
 40
0
 40
0
 40
0
 40
1
 40
1
 40
1
 40
1
 10
305.230382
 20
-89.261083
 30
0.0
 10
304.964515
 20
-88.995352
 30
0.0
 10
304.603977
 20
-88.846119
 30
0.0
 10
304.228080
 20
-88.846214
 30
0.0
  0
LWPOLYLINE
  5
345
100
AcDbEntity
  8
0
 62
7
100
AcDbPolyline
 90
2
 70
0
 10
466.221600
 20
-34.839014
 30
0.0
 10
429.372000
 20
-34.839014
 30
0.0
  0
LWPOLYLINE
  5
346
100
AcDbEntity
  8
0
 62
7
100
AcDbPolyline
 90
2
 70
0
 10
305.640000
 20
-127.107014
 30
0.0
 10
305.640000
 20
-90.257414
 30
0.0
  0
LWPOLYLINE
  5
347
100
AcDbEntity
  8
0
 62
7
100
AcDbPolyline
 90
2
 70
0
 10
267.372000
 20
-128.525414
 30
0.0
 10
304.221600
 20
-128.525414
 30
0.0
  0
LWPOLYLINE
  5
348
100
AcDbEntity
  8
0
 62
7
100
AcDbPolyline
 90
2
 70
0
 10
265.953600
 20
-90.257414
 30
0.0
 10
265.953600
 20
-127.107014
 30
0.0
  0
SPLINE
  5
349
100
AcDbEntity
  8
0
 62
7
100
AcDbSpline
 70
8
 71
3
 72
8
 73
4
 74
0
 40
0
 40
0
 40
0
 40
0
 40
1
 40
1
 40
1
 40
1
 10
304.228080
 20
-74.531174
 30
0.0
 10
304.604101
 20
-74.531270
 30
0.0
 10
304.964749
 20
-74.381938
 30
0.0
 10
305.230637
 20
-74.116051
 30
0.0
  0
SPLINE
  5
34a
100
AcDbEntity
  8
0
 62
7
100
AcDbSpline
 70
8
 71
3
 72
8
 73
4
 74
0
 40
0
 40
0
 40
0
 40
0
 40
1
 40
1
 40
1
 40
1
 10
305.230637
 20
-74.116051
 30
0.0
 10
305.496524
 20
-73.850164
 30
0.0
 10
305.645856
 20
-73.489516
 30
0.0
 10
305.645760
 20
-73.113494
 30
0.0
  0
SPLINE
  5
34b
100
AcDbEntity
  8
0
 62
7
100
AcDbSpline
 70
8
 71
3
 72
8
 73
4
 74
0
 40
0
 40
0
 40
0
 40
0
 40
1
 40
1
 40
1
 40
1
 10
265.960800
 20
-73.113494
 30
0.0
 10
265.960705
 20
-73.489391
 30
0.0
 10
266.109937
 20
-73.849930
 30
0.0
 10
266.375669
 20
-74.115796
 30
0.0
  0
SPLINE
  5
34c
100
AcDbEntity
  8
0
 62
7
100
AcDbSpline
 70
8
 71
3
 72
8
 73
4
 74
0
 40
0
 40
0
 40
0
 40
0
 40
1
 40
1
 40
1
 40
1
 10
266.375669
 20
-74.115796
 30
0.0
 10
266.641400
 20
-74.381663
 30
0.0
 10
267.001863
 20
-74.531079
 30
0.0
 10
267.377760
 20
-74.531174
 30
0.0
  0
SPLINE
  5
34d
100
AcDbEntity
  8
0
 62
7
100
AcDbSpline
 70
8
 71
3
 72
8
 73
4
 74
0
 40
0
 40
0
 40
0
 40
0
 40
1
 40
1
 40
1
 40
1
 10
267.377760
 20
-34.846070
 30
0.0
 10
266.595136
 20
-34.846269
 30
0.0
 10
265.960800
 20
-35.480767
 30
0.0
 10
265.960800
 20
-36.263390
 30
0.0
  0
SPLINE
  5
34e
100
AcDbEntity
  8
0
 62
7
100
AcDbSpline
 70
8
 71
3
 72
8
 73
4
 74
0
 40
0
 40
0
 40
0
 40
0
 40
1
 40
1
 40
1
 40
1
 10
305.645760
 20
-36.263390
 30
0.0
 10
305.645760
 20
-35.887431
 30
0.0
 10
305.496386
 20
-35.526876
 30
0.0
 10
305.230509
 20
-35.261067
 30
0.0
  0
SPLINE
  5
34f
100
AcDbEntity
  8
0
 62
7
100
AcDbSpline
 70
8
 71
3
 72
8
 73
4
 74
0
 40
0
 40
0
 40
0
 40
0
 40
1
 40
1
 40
1
 40
1
 10
305.230509
 20
-35.261067
 30
0.0
 10
304.964632
 20
-34.995257
 30
0.0
 10
304.604039
 20
-34.845975
 30
0.0
 10
304.228080
 20
-34.846070
 30
0.0
  0
LWPOLYLINE
  5
350
100
AcDbEntity
  8
0
 62
7
100
AcDbPolyline
 90
2
 70
0
 10
304.221600
 20
-88.839014
 30
0.0
 10
267.372000
 20
-88.839014
 30
0.0
  0
LWPOLYLINE
  5
351
100
AcDbEntity
  8
0
 62
7
100
AcDbPolyline
 90
2
 70
0
 10
305.640000
 20
-73.107014
 30
0.0
 10
305.640000
 20
-36.257414
 30
0.0
  0
LWPOLYLINE
  5
352
100
AcDbEntity
  8
0
 62
7
100
AcDbPolyline
 90
2
 70
0
 10
267.372000
 20
-74.525414
 30
0.0
 10
304.221600
 20
-74.525414
 30
0.0
  0
LWPOLYLINE
  5
353
100
AcDbEntity
  8
0
 62
7
100
AcDbPolyline
 90
2
 70
0
 10
265.953600
 20
-36.257414
 30
0.0
 10
265.953600
 20
-73.107014
 30
0.0
  0
SPLINE
  5
354
100
AcDbEntity
  8
0
 62
7
100
AcDbSpline
 70
8
 71
3
 72
8
 73
4
 74
0
 40
0
 40
0
 40
0
 40
0
 40
1
 40
1
 40
1
 40
1
 10
196.228080
 20
-128.531174
 30
0.0
 10
196.604101
 20
-128.531270
 30
0.0
 10
196.964749
 20
-128.381938
 30
0.0
 10
197.230637
 20
-128.116051
 30
0.0
  0
SPLINE
  5
355
100
AcDbEntity
  8
0
 62
7
100
AcDbSpline
 70
8
 71
3
 72
8
 73
4
 74
0
 40
0
 40
0
 40
0
 40
0
 40
1
 40
1
 40
1
 40
1
 10
197.230637
 20
-128.116051
 30
0.0
 10
197.496524
 20
-127.850164
 30
0.0
 10
197.645856
 20
-127.489516
 30
0.0
 10
197.645760
 20
-127.113494
 30
0.0
  0
SPLINE
  5
356
100
AcDbEntity
  8
0
 62
7
100
AcDbSpline
 70
8
 71
3
 72
8
 73
4
 74
0
 40
0
 40
0
 40
0
 40
0
 40
1
 40
1
 40
1
 40
1
 10
157.960800
 20
-127.113494
 30
0.0
 10
157.960705
 20
-127.489391
 30
0.0
 10
158.109937
 20
-127.849930
 30
0.0
 10
158.375669
 20
-128.115796
 30
0.0
  0
SPLINE
  5
357
100
AcDbEntity
  8
0
 62
7
100
AcDbSpline
 70
8
 71
3
 72
8
 73
4
 74
0
 40
0
 40
0
 40
0
 40
0
 40
1
 40
1
 40
1
 40
1
 10
158.375669
 20
-128.115796
 30
0.0
 10
158.641400
 20
-128.381663
 30
0.0
 10
159.001863
 20
-128.531079
 30
0.0
 10
159.377760
 20
-128.531174
 30
0.0
  0
SPLINE
  5
358
100
AcDbEntity
  8
0
 62
7
100
AcDbSpline
 70
8
 71
3
 72
8
 73
4
 74
0
 40
0
 40
0
 40
0
 40
0
 40
1
 40
1
 40
1
 40
1
 10
159.377760
 20
-88.846214
 30
0.0
 10
158.595277
 20
-88.846413
 30
0.0
 10
157.960999
 20
-89.480691
 30
0.0
 10
157.960800
 20
-90.263174
 30
0.0
  0
SPLINE
  5
359
100
AcDbEntity
  8
0
 62
7
100
AcDbSpline
 70
8
 71
3
 72
8
 73
4
 74
0
 40
0
 40
0
 40
0
 40
0
 40
1
 40
1
 40
1
 40
1
 10
197.645760
 20
-90.263174
 30
0.0
 10
197.645665
 20
-89.887278
 30
0.0
 10
197.496249
 20
-89.526815
 30
0.0
 10
197.230382
 20
-89.261083
 30
0.0
  0
SPLINE
  5
35a
100
AcDbEntity
  8
0
 62
7
100
AcDbSpline
 70
8
 71
3
 72
8
 73
4
 74
0
 40
0
 40
0
 40
0
 40
0
 40
1
 40
1
 40
1
 40
1
 10
197.230382
 20
-89.261083
 30
0.0
 10
196.964515
 20
-88.995352
 30
0.0
 10
196.603977
 20
-88.846119
 30
0.0
 10
196.228080
 20
-88.846214
 30
0.0
  0
LWPOLYLINE
  5
35b
100
AcDbEntity
  8
0
 62
7
100
AcDbPolyline
 90
2
 70
0
 10
304.221600
 20
-34.839014
 30
0.0
 10
267.372000
 20
-34.839014
 30
0.0
  0
LWPOLYLINE
  5
35c
100
AcDbEntity
  8
0
 62
7
100
AcDbPolyline
 90
2
 70
0
 10
197.640000
 20
-127.107014
 30
0.0
 10
197.640000
 20
-90.257414
 30
0.0
  0
LWPOLYLINE
  5
35d
100
AcDbEntity
  8
0
 62
7
100
AcDbPolyline
 90
2
 70
0
 10
159.372000
 20
-128.525414
 30
0.0
 10
196.221600
 20
-128.525414
 30
0.0
  0
LWPOLYLINE
  5
35e
100
AcDbEntity
  8
0
 62
7
100
AcDbPolyline
 90
2
 70
0
 10
157.953600
 20
-90.257414
 30
0.0
 10
157.953600
 20
-127.107014
 30
0.0
  0
SPLINE
  5
35f
100
AcDbEntity
  8
0
 62
7
100
AcDbSpline
 70
8
 71
3
 72
8
 73
4
 74
0
 40
0
 40
0
 40
0
 40
0
 40
1
 40
1
 40
1
 40
1
 10
142.228080
 20
-74.531174
 30
0.0
 10
142.604101
 20
-74.531270
 30
0.0
 10
142.964749
 20
-74.381938
 30
0.0
 10
143.230637
 20
-74.116051
 30
0.0
  0
SPLINE
  5
360
100
AcDbEntity
  8
0
 62
7
100
AcDbSpline
 70
8
 71
3
 72
8
 73
4
 74
0
 40
0
 40
0
 40
0
 40
0
 40
1
 40
1
 40
1
 40
1
 10
143.230637
 20
-74.116051
 30
0.0
 10
143.496524
 20
-73.850164
 30
0.0
 10
143.645856
 20
-73.489516
 30
0.0
 10
143.645760
 20
-73.113494
 30
0.0
  0
SPLINE
  5
361
100
AcDbEntity
  8
0
 62
7
100
AcDbSpline
 70
8
 71
3
 72
8
 73
4
 74
0
 40
0
 40
0
 40
0
 40
0
 40
1
 40
1
 40
1
 40
1
 10
103.960800
 20
-73.113494
 30
0.0
 10
103.960705
 20
-73.489391
 30
0.0
 10
104.109937
 20
-73.849930
 30
0.0
 10
104.375669
 20
-74.115796
 30
0.0
  0
SPLINE
  5
362
100
AcDbEntity
  8
0
 62
7
100
AcDbSpline
 70
8
 71
3
 72
8
 73
4
 74
0
 40
0
 40
0
 40
0
 40
0
 40
1
 40
1
 40
1
 40
1
 10
104.375669
 20
-74.115796
 30
0.0
 10
104.641400
 20
-74.381663
 30
0.0
 10
105.001863
 20
-74.531079
 30
0.0
 10
105.377760
 20
-74.531174
 30
0.0
  0
SPLINE
  5
363
100
AcDbEntity
  8
0
 62
7
100
AcDbSpline
 70
8
 71
3
 72
8
 73
4
 74
0
 40
0
 40
0
 40
0
 40
0
 40
1
 40
1
 40
1
 40
1
 10
105.377760
 20
-34.846070
 30
0.0
 10
104.595136
 20
-34.846269
 30
0.0
 10
103.960800
 20
-35.480767
 30
0.0
 10
103.960800
 20
-36.263390
 30
0.0
  0
SPLINE
  5
364
100
AcDbEntity
  8
0
 62
7
100
AcDbSpline
 70
8
 71
3
 72
8
 73
4
 74
0
 40
0
 40
0
 40
0
 40
0
 40
1
 40
1
 40
1
 40
1
 10
143.645760
 20
-36.263390
 30
0.0
 10
143.645760
 20
-35.887431
 30
0.0
 10
143.496386
 20
-35.526876
 30
0.0
 10
143.230509
 20
-35.261067
 30
0.0
  0
SPLINE
  5
365
100
AcDbEntity
  8
0
 62
7
100
AcDbSpline
 70
8
 71
3
 72
8
 73
4
 74
0
 40
0
 40
0
 40
0
 40
0
 40
1
 40
1
 40
1
 40
1
 10
143.230509
 20
-35.261067
 30
0.0
 10
142.964632
 20
-34.995257
 30
0.0
 10
142.604039
 20
-34.845975
 30
0.0
 10
142.228080
 20
-34.846070
 30
0.0
  0
LWPOLYLINE
  5
366
100
AcDbEntity
  8
0
 62
7
100
AcDbPolyline
 90
2
 70
0
 10
196.221600
 20
-88.839014
 30
0.0
 10
159.372000
 20
-88.839014
 30
0.0
  0
LWPOLYLINE
  5
367
100
AcDbEntity
  8
0
 62
7
100
AcDbPolyline
 90
2
 70
0
 10
143.640000
 20
-73.107014
 30
0.0
 10
143.640000
 20
-36.257414
 30
0.0
  0
LWPOLYLINE
  5
368
100
AcDbEntity
  8
0
 62
7
100
AcDbPolyline
 90
2
 70
0
 10
105.372000
 20
-74.525414
 30
0.0
 10
142.221600
 20
-74.525414
 30
0.0
  0
LWPOLYLINE
  5
369
100
AcDbEntity
  8
0
 62
7
100
AcDbPolyline
 90
2
 70
0
 10
103.953600
 20
-36.257414
 30
0.0
 10
103.953600
 20
-73.107014
 30
0.0
  0
SPLINE
  5
36a
100
AcDbEntity
  8
0
 62
7
100
AcDbSpline
 70
8
 71
3
 72
8
 73
4
 74
0
 40
0
 40
0
 40
0
 40
0
 40
1
 40
1
 40
1
 40
1
 10
142.228080
 20
-182.531174
 30
0.0
 10
142.604101
 20
-182.531270
 30
0.0
 10
142.964749
 20
-182.381938
 30
0.0
 10
143.230637
 20
-182.116051
 30
0.0
  0
SPLINE
  5
36b
100
AcDbEntity
  8
0
 62
7
100
AcDbSpline
 70
8
 71
3
 72
8
 73
4
 74
0
 40
0
 40
0
 40
0
 40
0
 40
1
 40
1
 40
1
 40
1
 10
143.230637
 20
-182.116051
 30
0.0
 10
143.496524
 20
-181.850164
 30
0.0
 10
143.645856
 20
-181.489516
 30
0.0
 10
143.645760
 20
-181.113494
 30
0.0
  0
SPLINE
  5
36c
100
AcDbEntity
  8
0
 62
7
100
AcDbSpline
 70
8
 71
3
 72
8
 73
4
 74
0
 40
0
 40
0
 40
0
 40
0
 40
1
 40
1
 40
1
 40
1
 10
103.960800
 20
-181.113494
 30
0.0
 10
103.960705
 20
-181.489391
 30
0.0
 10
104.109937
 20
-181.849930
 30
0.0
 10
104.375669
 20
-182.115796
 30
0.0
  0
SPLINE
  5
36d
100
AcDbEntity
  8
0
 62
7
100
AcDbSpline
 70
8
 71
3
 72
8
 73
4
 74
0
 40
0
 40
0
 40
0
 40
0
 40
1
 40
1
 40
1
 40
1
 10
104.375669
 20
-182.115796
 30
0.0
 10
104.641400
 20
-182.381663
 30
0.0
 10
105.001863
 20
-182.531079
 30
0.0
 10
105.377760
 20
-182.531174
 30
0.0
  0
SPLINE
  5
36e
100
AcDbEntity
  8
0
 62
7
100
AcDbSpline
 70
8
 71
3
 72
8
 73
4
 74
0
 40
0
 40
0
 40
0
 40
0
 40
1
 40
1
 40
1
 40
1
 10
105.377760
 20
-142.846214
 30
0.0
 10
104.595277
 20
-142.846413
 30
0.0
 10
103.960999
 20
-143.480691
 30
0.0
 10
103.960800
 20
-144.263174
 30
0.0
  0
SPLINE
  5
36f
100
AcDbEntity
  8
0
 62
7
100
AcDbSpline
 70
8
 71
3
 72
8
 73
4
 74
0
 40
0
 40
0
 40
0
 40
0
 40
1
 40
1
 40
1
 40
1
 10
143.645760
 20
-144.263174
 30
0.0
 10
143.645665
 20
-143.887278
 30
0.0
 10
143.496249
 20
-143.526815
 30
0.0
 10
143.230382
 20
-143.261083
 30
0.0
  0
SPLINE
  5
370
100
AcDbEntity
  8
0
 62
7
100
AcDbSpline
 70
8
 71
3
 72
8
 73
4
 74
0
 40
0
 40
0
 40
0
 40
0
 40
1
 40
1
 40
1
 40
1
 10
143.230382
 20
-143.261083
 30
0.0
 10
142.964515
 20
-142.995352
 30
0.0
 10
142.603977
 20
-142.846119
 30
0.0
 10
142.228080
 20
-142.846214
 30
0.0
  0
LWPOLYLINE
  5
371
100
AcDbEntity
  8
0
 62
7
100
AcDbPolyline
 90
2
 70
0
 10
142.221600
 20
-34.839014
 30
0.0
 10
105.372000
 20
-34.839014
 30
0.0
  0
LWPOLYLINE
  5
372
100
AcDbEntity
  8
0
 62
7
100
AcDbPolyline
 90
2
 70
0
 10
143.640000
 20
-181.107014
 30
0.0
 10
143.640000
 20
-144.257414
 30
0.0
  0
LWPOLYLINE
  5
373
100
AcDbEntity
  8
0
 62
7
100
AcDbPolyline
 90
2
 70
0
 10
105.372000
 20
-182.525414
 30
0.0
 10
142.221600
 20
-182.525414
 30
0.0
  0
LWPOLYLINE
  5
374
100
AcDbEntity
  8
0
 62
7
100
AcDbPolyline
 90
2
 70
0
 10
103.953600
 20
-144.257414
 30
0.0
 10
103.953600
 20
-181.107014
 30
0.0
  0
SPLINE
  5
375
100
AcDbEntity
  8
0
 62
7
100
AcDbSpline
 70
8
 71
3
 72
8
 73
4
 74
0
 40
0
 40
0
 40
0
 40
0
 40
1
 40
1
 40
1
 40
1
 10
250.228080
 20
-182.531174
 30
0.0
 10
250.604101
 20
-182.531270
 30
0.0
 10
250.964749
 20
-182.381938
 30
0.0
 10
251.230637
 20
-182.116051
 30
0.0
  0
SPLINE
  5
376
100
AcDbEntity
  8
0
 62
7
100
AcDbSpline
 70
8
 71
3
 72
8
 73
4
 74
0
 40
0
 40
0
 40
0
 40
0
 40
1
 40
1
 40
1
 40
1
 10
251.230637
 20
-182.116051
 30
0.0
 10
251.496524
 20
-181.850164
 30
0.0
 10
251.645856
 20
-181.489516
 30
0.0
 10
251.645760
 20
-181.113494
 30
0.0
  0
SPLINE
  5
377
100
AcDbEntity
  8
0
 62
7
100
AcDbSpline
 70
8
 71
3
 72
8
 73
4
 74
0
 40
0
 40
0
 40
0
 40
0
 40
1
 40
1
 40
1
 40
1
 10
211.960800
 20
-181.113494
 30
0.0
 10
211.960705
 20
-181.489391
 30
0.0
 10
212.109937
 20
-181.849930
 30
0.0
 10
212.375669
 20
-182.115796
 30
0.0
  0
SPLINE
  5
378
100
AcDbEntity
  8
0
 62
7
100
AcDbSpline
 70
8
 71
3
 72
8
 73
4
 74
0
 40
0
 40
0
 40
0
 40
0
 40
1
 40
1
 40
1
 40
1
 10
212.375669
 20
-182.115796
 30
0.0
 10
212.641400
 20
-182.381663
 30
0.0
 10
213.001863
 20
-182.531079
 30
0.0
 10
213.377760
 20
-182.531174
 30
0.0
  0
SPLINE
  5
379
100
AcDbEntity
  8
0
 62
7
100
AcDbSpline
 70
8
 71
3
 72
8
 73
4
 74
0
 40
0
 40
0
 40
0
 40
0
 40
1
 40
1
 40
1
 40
1
 10
213.377760
 20
-142.846214
 30
0.0
 10
212.595277
 20
-142.846413
 30
0.0
 10
211.960999
 20
-143.480691
 30
0.0
 10
211.960800
 20
-144.263174
 30
0.0
  0
SPLINE
  5
37a
100
AcDbEntity
  8
0
 62
7
100
AcDbSpline
 70
8
 71
3
 72
8
 73
4
 74
0
 40
0
 40
0
 40
0
 40
0
 40
1
 40
1
 40
1
 40
1
 10
251.645760
 20
-144.263174
 30
0.0
 10
251.645665
 20
-143.887278
 30
0.0
 10
251.496249
 20
-143.526815
 30
0.0
 10
251.230382
 20
-143.261083
 30
0.0
  0
SPLINE
  5
37b
100
AcDbEntity
  8
0
 62
7
100
AcDbSpline
 70
8
 71
3
 72
8
 73
4
 74
0
 40
0
 40
0
 40
0
 40
0
 40
1
 40
1
 40
1
 40
1
 10
251.230382
 20
-143.261083
 30
0.0
 10
250.964515
 20
-142.995352
 30
0.0
 10
250.603977
 20
-142.846119
 30
0.0
 10
250.228080
 20
-142.846214
 30
0.0
  0
LWPOLYLINE
  5
37c
100
AcDbEntity
  8
0
 62
7
100
AcDbPolyline
 90
2
 70
0
 10
142.221600
 20
-142.839014
 30
0.0
 10
105.372000
 20
-142.839014
 30
0.0
  0
LWPOLYLINE
  5
37d
100
AcDbEntity
  8
0
 62
7
100
AcDbPolyline
 90
2
 70
0
 10
251.640000
 20
-181.107014
 30
0.0
 10
251.640000
 20
-144.257414
 30
0.0
  0
LWPOLYLINE
  5
37e
100
AcDbEntity
  8
0
 62
7
100
AcDbPolyline
 90
2
 70
0
 10
213.372000
 20
-182.525414
 30
0.0
 10
250.221600
 20
-182.525414
 30
0.0
  0
LWPOLYLINE
  5
37f
100
AcDbEntity
  8
0
 62
7
100
AcDbPolyline
 90
2
 70
0
 10
211.953600
 20
-144.257414
 30
0.0
 10
211.953600
 20
-181.107014
 30
0.0
  0
SPLINE
  5
380
100
AcDbEntity
  8
0
 62
7
100
AcDbSpline
 70
8
 71
3
 72
8
 73
4
 74
0
 40
0
 40
0
 40
0
 40
0
 40
1
 40
1
 40
1
 40
1
 10
142.228080
 20
-128.531174
 30
0.0
 10
142.604101
 20
-128.531270
 30
0.0
 10
142.964749
 20
-128.381938
 30
0.0
 10
143.230637
 20
-128.116051
 30
0.0
  0
SPLINE
  5
381
100
AcDbEntity
  8
0
 62
7
100
AcDbSpline
 70
8
 71
3
 72
8
 73
4
 74
0
 40
0
 40
0
 40
0
 40
0
 40
1
 40
1
 40
1
 40
1
 10
143.230637
 20
-128.116051
 30
0.0
 10
143.496524
 20
-127.850164
 30
0.0
 10
143.645856
 20
-127.489516
 30
0.0
 10
143.645760
 20
-127.113494
 30
0.0
  0
SPLINE
  5
382
100
AcDbEntity
  8
0
 62
7
100
AcDbSpline
 70
8
 71
3
 72
8
 73
4
 74
0
 40
0
 40
0
 40
0
 40
0
 40
1
 40
1
 40
1
 40
1
 10
103.960800
 20
-127.113494
 30
0.0
 10
103.960705
 20
-127.489391
 30
0.0
 10
104.109937
 20
-127.849930
 30
0.0
 10
104.375669
 20
-128.115796
 30
0.0
  0
SPLINE
  5
383
100
AcDbEntity
  8
0
 62
7
100
AcDbSpline
 70
8
 71
3
 72
8
 73
4
 74
0
 40
0
 40
0
 40
0
 40
0
 40
1
 40
1
 40
1
 40
1
 10
104.375669
 20
-128.115796
 30
0.0
 10
104.641400
 20
-128.381663
 30
0.0
 10
105.001863
 20
-128.531079
 30
0.0
 10
105.377760
 20
-128.531174
 30
0.0
  0
SPLINE
  5
384
100
AcDbEntity
  8
0
 62
7
100
AcDbSpline
 70
8
 71
3
 72
8
 73
4
 74
0
 40
0
 40
0
 40
0
 40
0
 40
1
 40
1
 40
1
 40
1
 10
105.377760
 20
-88.846214
 30
0.0
 10
104.595277
 20
-88.846413
 30
0.0
 10
103.960999
 20
-89.480691
 30
0.0
 10
103.960800
 20
-90.263174
 30
0.0
  0
SPLINE
  5
385
100
AcDbEntity
  8
0
 62
7
100
AcDbSpline
 70
8
 71
3
 72
8
 73
4
 74
0
 40
0
 40
0
 40
0
 40
0
 40
1
 40
1
 40
1
 40
1
 10
143.645760
 20
-90.263174
 30
0.0
 10
143.645665
 20
-89.887278
 30
0.0
 10
143.496249
 20
-89.526815
 30
0.0
 10
143.230382
 20
-89.261083
 30
0.0
  0
SPLINE
  5
386
100
AcDbEntity
  8
0
 62
7
100
AcDbSpline
 70
8
 71
3
 72
8
 73
4
 74
0
 40
0
 40
0
 40
0
 40
0
 40
1
 40
1
 40
1
 40
1
 10
143.230382
 20
-89.261083
 30
0.0
 10
142.964515
 20
-88.995352
 30
0.0
 10
142.603977
 20
-88.846119
 30
0.0
 10
142.228080
 20
-88.846214
 30
0.0
  0
LWPOLYLINE
  5
387
100
AcDbEntity
  8
0
 62
7
100
AcDbPolyline
 90
2
 70
0
 10
250.221600
 20
-142.839014
 30
0.0
 10
213.372000
 20
-142.839014
 30
0.0
  0
LWPOLYLINE
  5
388
100
AcDbEntity
  8
0
 62
7
100
AcDbPolyline
 90
2
 70
0
 10
143.640000
 20
-127.107014
 30
0.0
 10
143.640000
 20
-90.257414
 30
0.0
  0
LWPOLYLINE
  5
389
100
AcDbEntity
  8
0
 62
7
100
AcDbPolyline
 90
2
 70
0
 10
105.372000
 20
-128.525414
 30
0.0
 10
142.221600
 20
-128.525414
 30
0.0
  0
LWPOLYLINE
  5
38a
100
AcDbEntity
  8
0
 62
7
100
AcDbPolyline
 90
2
 70
0
 10
103.953600
 20
-90.257414
 30
0.0
 10
103.953600
 20
-127.107014
 30
0.0
  0
SPLINE
  5
38b
100
AcDbEntity
  8
0
 62
7
100
AcDbSpline
 70
8
 71
3
 72
8
 73
4
 74
0
 40
0
 40
0
 40
0
 40
0
 40
1
 40
1
 40
1
 40
1
 10
412.228080
 20
-182.531174
 30
0.0
 10
412.604101
 20
-182.531270
 30
0.0
 10
412.964749
 20
-182.381938
 30
0.0
 10
413.230637
 20
-182.116051
 30
0.0
  0
SPLINE
  5
38c
100
AcDbEntity
  8
0
 62
7
100
AcDbSpline
 70
8
 71
3
 72
8
 73
4
 74
0
 40
0
 40
0
 40
0
 40
0
 40
1
 40
1
 40
1
 40
1
 10
413.230637
 20
-182.116051
 30
0.0
 10
413.496524
 20
-181.850164
 30
0.0
 10
413.645856
 20
-181.489516
 30
0.0
 10
413.645760
 20
-181.113494
 30
0.0
  0
SPLINE
  5
38d
100
AcDbEntity
  8
0
 62
7
100
AcDbSpline
 70
8
 71
3
 72
8
 73
4
 74
0
 40
0
 40
0
 40
0
 40
0
 40
1
 40
1
 40
1
 40
1
 10
373.960800
 20
-181.113494
 30
0.0
 10
373.960705
 20
-181.489391
 30
0.0
 10
374.109937
 20
-181.849930
 30
0.0
 10
374.375669
 20
-182.115796
 30
0.0
  0
SPLINE
  5
38e
100
AcDbEntity
  8
0
 62
7
100
AcDbSpline
 70
8
 71
3
 72
8
 73
4
 74
0
 40
0
 40
0
 40
0
 40
0
 40
1
 40
1
 40
1
 40
1
 10
374.375669
 20
-182.115796
 30
0.0
 10
374.641400
 20
-182.381663
 30
0.0
 10
375.001863
 20
-182.531079
 30
0.0
 10
375.377760
 20
-182.531174
 30
0.0
  0
SPLINE
  5
38f
100
AcDbEntity
  8
0
 62
7
100
AcDbSpline
 70
8
 71
3
 72
8
 73
4
 74
0
 40
0
 40
0
 40
0
 40
0
 40
1
 40
1
 40
1
 40
1
 10
375.377760
 20
-142.846214
 30
0.0
 10
374.595277
 20
-142.846413
 30
0.0
 10
373.960999
 20
-143.480691
 30
0.0
 10
373.960800
 20
-144.263174
 30
0.0
  0
SPLINE
  5
390
100
AcDbEntity
  8
0
 62
7
100
AcDbSpline
 70
8
 71
3
 72
8
 73
4
 74
0
 40
0
 40
0
 40
0
 40
0
 40
1
 40
1
 40
1
 40
1
 10
413.645760
 20
-144.263174
 30
0.0
 10
413.645665
 20
-143.887278
 30
0.0
 10
413.496249
 20
-143.526815
 30
0.0
 10
413.230382
 20
-143.261083
 30
0.0
  0
SPLINE
  5
391
100
AcDbEntity
  8
0
 62
7
100
AcDbSpline
 70
8
 71
3
 72
8
 73
4
 74
0
 40
0
 40
0
 40
0
 40
0
 40
1
 40
1
 40
1
 40
1
 10
413.230382
 20
-143.261083
 30
0.0
 10
412.964515
 20
-142.995352
 30
0.0
 10
412.603977
 20
-142.846119
 30
0.0
 10
412.228080
 20
-142.846214
 30
0.0
  0
LWPOLYLINE
  5
392
100
AcDbEntity
  8
0
 62
7
100
AcDbPolyline
 90
2
 70
0
 10
142.221600
 20
-88.839014
 30
0.0
 10
105.372000
 20
-88.839014
 30
0.0
  0
LWPOLYLINE
  5
393
100
AcDbEntity
  8
0
 62
7
100
AcDbPolyline
 90
2
 70
0
 10
413.640000
 20
-181.107014
 30
0.0
 10
413.640000
 20
-144.257414
 30
0.0
  0
LWPOLYLINE
  5
394
100
AcDbEntity
  8
0
 62
7
100
AcDbPolyline
 90
2
 70
0
 10
375.372000
 20
-182.525414
 30
0.0
 10
412.221600
 20
-182.525414
 30
0.0
  0
LWPOLYLINE
  5
395
100
AcDbEntity
  8
0
 62
7
100
AcDbPolyline
 90
2
 70
0
 10
373.953600
 20
-144.257414
 30
0.0
 10
373.953600
 20
-181.107014
 30
0.0
  0
LWPOLYLINE
  5
396
100
AcDbEntity
  8
0
 62
7
100
AcDbPolyline
 90
2
 70
0
 10
412.221600
 20
-142.839014
 30
0.0
 10
375.372000
 20
-142.839014
 30
0.0
  0
LWPOLYLINE
  5
397
100
AcDbEntity
  8
0
 62
7
100
AcDbPolyline
 90
2
 70
0
 10
61.221600
 20
-196.839014
 30
0.0
 10
24.372000
 20
-196.839014
 30
0.0
  0
LWPOLYLINE
  5
398
100
AcDbEntity
  8
0
 62
7
100
AcDbPolyline
 90
2
 70
0
 10
22.953600
 20
-198.257414
 30
0.0
 10
22.953600
 20
-235.107014
 30
0.0
  0
LWPOLYLINE
  5
399
100
AcDbEntity
  8
0
 62
7
100
AcDbPolyline
 90
2
 70
0
 10
24.372000
 20
-236.525414
 30
0.0
 10
61.221600
 20
-236.525414
 30
0.0
  0
SPLINE
  5
39a
100
AcDbEntity
  8
0
 62
7
100
AcDbSpline
 70
8
 71
3
 72
8
 73
4
 74
0
 40
0
 40
0
 40
0
 40
0
 40
1
 40
1
 40
1
 40
1
 10
62.645688
 20
-198.263174
 30
0.0
 10
62.645489
 20
-197.480551
 30
0.0
 10
62.010992
 20
-196.846214
 30
0.0
 10
61.228368
 20
-196.846214
 30
0.0
  0
SPLINE
  5
39b
100
AcDbEntity
  8
0
 62
7
100
AcDbSpline
 70
8
 71
3
 72
8
 73
4
 74
0
 40
0
 40
0
 40
0
 40
0
 40
1
 40
1
 40
1
 40
1
 10
24.377976
 20
-196.846214
 30
0.0
 10
23.595352
 20
-196.846214
 30
0.0
 10
22.960855
 20
-197.480551
 30
0.0
 10
22.960656
 20
-198.263174
 30
0.0
  0
SPLINE
  5
39c
100
AcDbEntity
  8
0
 62
7
100
AcDbSpline
 70
8
 71
3
 72
8
 73
4
 74
0
 40
0
 40
0
 40
0
 40
0
 40
1
 40
1
 40
1
 40
1
 10
22.960656
 20
-235.113494
 30
0.0
 10
22.960561
 20
-235.489453
 30
0.0
 10
23.109843
 20
-235.850047
 30
0.0
 10
23.375652
 20
-236.115924
 30
0.0
  0
SPLINE
  5
39d
100
AcDbEntity
  8
0
 62
7
100
AcDbSpline
 70
8
 71
3
 72
8
 73
4
 74
0
 40
0
 40
0
 40
0
 40
0
 40
1
 40
1
 40
1
 40
1
 10
23.375652
 20
-236.115924
 30
0.0
 10
23.641462
 20
-236.381801
 30
0.0
 10
24.002017
 20
-236.531174
 30
0.0
 10
24.377976
 20
-236.531174
 30
0.0
  0
SPLINE
  5
39e
100
AcDbEntity
  8
0
 62
7
100
AcDbSpline
 70
8
 71
3
 72
8
 73
4
 74
0
 40
0
 40
0
 40
0
 40
0
 40
1
 40
1
 40
1
 40
1
 10
61.228368
 20
-236.531174
 30
0.0
 10
61.604327
 20
-236.531174
 30
0.0
 10
61.964882
 20
-236.381801
 30
0.0
 10
62.230692
 20
-236.115924
 30
0.0
  0
SPLINE
  5
39f
100
AcDbEntity
  8
0
 62
7
100
AcDbSpline
 70
8
 71
3
 72
8
 73
4
 74
0
 40
0
 40
0
 40
0
 40
0
 40
1
 40
1
 40
1
 40
1
 10
62.230692
 20
-236.115924
 30
0.0
 10
62.496501
 20
-235.850047
 30
0.0
 10
62.645783
 20
-235.489453
 30
0.0
 10
62.645688
 20
-235.113494
 30
0.0
  0
LWPOLYLINE
  5
3a0
100
AcDbEntity
  8
0
 62
7
100
AcDbPolyline
 90
2
 70
0
 10
62.640000
 20
-235.107014
 30
0.0
 10
62.640000
 20
-198.257414
 30
0.0
  0
LWPOLYLINE
  5
3a1
100
AcDbEntity
  8
0
 62
7
100
AcDbPolyline
 90
2
 70
0
 10
61.221600
 20
-142.839014
 30
0.0
 10
24.372000
 20
-142.839014
 30
0.0
  0
LWPOLYLINE
  5
3a2
100
AcDbEntity
  8
0
 62
7
100
AcDbPolyline
 90
2
 70
0
 10
22.953600
 20
-144.257414
 30
0.0
 10
22.953600
 20
-181.107014
 30
0.0
  0
LWPOLYLINE
  5
3a3
100
AcDbEntity
  8
0
 62
7
100
AcDbPolyline
 90
2
 70
0
 10
24.372000
 20
-182.525414
 30
0.0
 10
61.221600
 20
-182.525414
 30
0.0
  0
SPLINE
  5
3a4
100
AcDbEntity
  8
0
 62
7
100
AcDbSpline
 70
8
 71
3
 72
8
 73
4
 74
0
 40
0
 40
0
 40
0
 40
0
 40
1
 40
1
 40
1
 40
1
 10
62.645688
 20
-144.263174
 30
0.0
 10
62.645489
 20
-143.480551
 30
0.0
 10
62.010992
 20
-142.846214
 30
0.0
 10
61.228368
 20
-142.846214
 30
0.0
  0
SPLINE
  5
3a5
100
AcDbEntity
  8
0
 62
7
100
AcDbSpline
 70
8
 71
3
 72
8
 73
4
 74
0
 40
0
 40
0
 40
0
 40
0
 40
1
 40
1
 40
1
 40
1
 10
24.377976
 20
-142.846214
 30
0.0
 10
23.595352
 20
-142.846214
 30
0.0
 10
22.960855
 20
-143.480551
 30
0.0
 10
22.960656
 20
-144.263174
 30
0.0
  0
SPLINE
  5
3a6
100
AcDbEntity
  8
0
 62
7
100
AcDbSpline
 70
8
 71
3
 72
8
 73
4
 74
0
 40
0
 40
0
 40
0
 40
0
 40
1
 40
1
 40
1
 40
1
 10
22.960656
 20
-181.113494
 30
0.0
 10
22.960561
 20
-181.489453
 30
0.0
 10
23.109843
 20
-181.850047
 30
0.0
 10
23.375652
 20
-182.115924
 30
0.0
  0
SPLINE
  5
3a7
100
AcDbEntity
  8
0
 62
7
100
AcDbSpline
 70
8
 71
3
 72
8
 73
4
 74
0
 40
0
 40
0
 40
0
 40
0
 40
1
 40
1
 40
1
 40
1
 10
23.375652
 20
-182.115924
 30
0.0
 10
23.641462
 20
-182.381801
 30
0.0
 10
24.002017
 20
-182.531174
 30
0.0
 10
24.377976
 20
-182.531174
 30
0.0
  0
SPLINE
  5
3a8
100
AcDbEntity
  8
0
 62
7
100
AcDbSpline
 70
8
 71
3
 72
8
 73
4
 74
0
 40
0
 40
0
 40
0
 40
0
 40
1
 40
1
 40
1
 40
1
 10
61.228368
 20
-182.531174
 30
0.0
 10
61.604327
 20
-182.531174
 30
0.0
 10
61.964882
 20
-182.381801
 30
0.0
 10
62.230692
 20
-182.115924
 30
0.0
  0
SPLINE
  5
3a9
100
AcDbEntity
  8
0
 62
7
100
AcDbSpline
 70
8
 71
3
 72
8
 73
4
 74
0
 40
0
 40
0
 40
0
 40
0
 40
1
 40
1
 40
1
 40
1
 10
62.230692
 20
-182.115924
 30
0.0
 10
62.496501
 20
-181.850047
 30
0.0
 10
62.645783
 20
-181.489453
 30
0.0
 10
62.645688
 20
-181.113494
 30
0.0
  0
LWPOLYLINE
  5
3aa
100
AcDbEntity
  8
0
 62
7
100
AcDbPolyline
 90
2
 70
0
 10
62.640000
 20
-181.107014
 30
0.0
 10
62.640000
 20
-144.257414
 30
0.0
  0
LWPOLYLINE
  5
3ab
100
AcDbEntity
  8
0
 62
7
100
AcDbPolyline
 90
2
 70
0
 10
61.221600
 20
-88.839014
 30
0.0
 10
24.372000
 20
-88.839014
 30
0.0
  0
LWPOLYLINE
  5
3ac
100
AcDbEntity
  8
0
 62
7
100
AcDbPolyline
 90
2
 70
0
 10
22.953600
 20
-90.257414
 30
0.0
 10
22.953600
 20
-127.107014
 30
0.0
  0
LWPOLYLINE
  5
3ad
100
AcDbEntity
  8
0
 62
7
100
AcDbPolyline
 90
2
 70
0
 10
24.372000
 20
-128.525414
 30
0.0
 10
61.221600
 20
-128.525414
 30
0.0
  0
SPLINE
  5
3ae
100
AcDbEntity
  8
0
 62
7
100
AcDbSpline
 70
8
 71
3
 72
8
 73
4
 74
0
 40
0
 40
0
 40
0
 40
0
 40
1
 40
1
 40
1
 40
1
 10
62.645688
 20
-90.263174
 30
0.0
 10
62.645489
 20
-89.480551
 30
0.0
 10
62.010992
 20
-88.846214
 30
0.0
 10
61.228368
 20
-88.846214
 30
0.0
  0
SPLINE
  5
3af
100
AcDbEntity
  8
0
 62
7
100
AcDbSpline
 70
8
 71
3
 72
8
 73
4
 74
0
 40
0
 40
0
 40
0
 40
0
 40
1
 40
1
 40
1
 40
1
 10
24.377976
 20
-88.846214
 30
0.0
 10
23.595352
 20
-88.846214
 30
0.0
 10
22.960855
 20
-89.480551
 30
0.0
 10
22.960656
 20
-90.263174
 30
0.0
  0
SPLINE
  5
3b0
100
AcDbEntity
  8
0
 62
7
100
AcDbSpline
 70
8
 71
3
 72
8
 73
4
 74
0
 40
0
 40
0
 40
0
 40
0
 40
1
 40
1
 40
1
 40
1
 10
22.960656
 20
-127.113494
 30
0.0
 10
22.960561
 20
-127.489453
 30
0.0
 10
23.109843
 20
-127.850047
 30
0.0
 10
23.375652
 20
-128.115924
 30
0.0
  0
SPLINE
  5
3b1
100
AcDbEntity
  8
0
 62
7
100
AcDbSpline
 70
8
 71
3
 72
8
 73
4
 74
0
 40
0
 40
0
 40
0
 40
0
 40
1
 40
1
 40
1
 40
1
 10
23.375652
 20
-128.115924
 30
0.0
 10
23.641462
 20
-128.381801
 30
0.0
 10
24.002017
 20
-128.531174
 30
0.0
 10
24.377976
 20
-128.531174
 30
0.0
  0
SPLINE
  5
3b2
100
AcDbEntity
  8
0
 62
7
100
AcDbSpline
 70
8
 71
3
 72
8
 73
4
 74
0
 40
0
 40
0
 40
0
 40
0
 40
1
 40
1
 40
1
 40
1
 10
61.228368
 20
-128.531174
 30
0.0
 10
61.604327
 20
-128.531174
 30
0.0
 10
61.964882
 20
-128.381801
 30
0.0
 10
62.230692
 20
-128.115924
 30
0.0
  0
SPLINE
  5
3b3
100
AcDbEntity
  8
0
 62
7
100
AcDbSpline
 70
8
 71
3
 72
8
 73
4
 74
0
 40
0
 40
0
 40
0
 40
0
 40
1
 40
1
 40
1
 40
1
 10
62.230692
 20
-128.115924
 30
0.0
 10
62.496501
 20
-127.850047
 30
0.0
 10
62.645783
 20
-127.489453
 30
0.0
 10
62.645688
 20
-127.113494
 30
0.0
  0
LWPOLYLINE
  5
3b4
100
AcDbEntity
  8
0
 62
7
100
AcDbPolyline
 90
2
 70
0
 10
62.640000
 20
-127.107014
 30
0.0
 10
62.640000
 20
-90.257414
 30
0.0
  0
LWPOLYLINE
  5
3b5
100
AcDbEntity
  8
0
 62
7
100
AcDbPolyline
 90
2
 70
0
 10
61.221600
 20
-34.839014
 30
0.0
 10
24.372000
 20
-34.839014
 30
0.0
  0
LWPOLYLINE
  5
3b6
100
AcDbEntity
  8
0
 62
7
100
AcDbPolyline
 90
2
 70
0
 10
22.953600
 20
-36.257414
 30
0.0
 10
22.953600
 20
-73.107014
 30
0.0
  0
LWPOLYLINE
  5
3b7
100
AcDbEntity
  8
0
 62
7
100
AcDbPolyline
 90
2
 70
0
 10
24.372000
 20
-74.525414
 30
0.0
 10
61.221600
 20
-74.525414
 30
0.0
  0
SPLINE
  5
3b8
100
AcDbEntity
  8
0
 62
7
100
AcDbSpline
 70
8
 71
3
 72
8
 73
4
 74
0
 40
0
 40
0
 40
0
 40
0
 40
1
 40
1
 40
1
 40
1
 10
62.645688
 20
-36.263390
 30
0.0
 10
62.645688
 20
-35.887494
 30
0.0
 10
62.496364
 20
-35.526993
 30
0.0
 10
62.230565
 20
-35.261194
 30
0.0
  0
SPLINE
  5
3b9
100
AcDbEntity
  8
0
 62
7
100
AcDbSpline
 70
8
 71
3
 72
8
 73
4
 74
0
 40
0
 40
0
 40
0
 40
0
 40
1
 40
1
 40
1
 40
1
 10
62.230565
 20
-35.261194
 30
0.0
 10
61.964766
 20
-34.995395
 30
0.0
 10
61.604265
 20
-34.846070
 30
0.0
 10
61.228368
 20
-34.846070
 30
0.0
  0
SPLINE
  5
3ba
100
AcDbEntity
  8
0
 62
7
100
AcDbSpline
 70
8
 71
3
 72
8
 73
4
 74
0
 40
0
 40
0
 40
0
 40
0
 40
1
 40
1
 40
1
 40
1
 10
24.377976
 20
-34.846070
 30
0.0
 10
24.002079
 20
-34.846070
 30
0.0
 10
23.641578
 20
-34.995395
 30
0.0
 10
23.375779
 20
-35.261194
 30
0.0
  0
SPLINE
  5
3bb
100
AcDbEntity
  8
0
 62
7
100
AcDbSpline
 70
8
 71
3
 72
8
 73
4
 74
0
 40
0
 40
0
 40
0
 40
0
 40
1
 40
1
 40
1
 40
1
 10
23.375779
 20
-35.261194
 30
0.0
 10
23.109980
 20
-35.526993
 30
0.0
 10
22.960656
 20
-35.887494
 30
0.0
 10
22.960656
 20
-36.263390
 30
0.0
  0
SPLINE
  5
3bc
100
AcDbEntity
  8
0
 62
7
100
AcDbSpline
 70
8
 71
3
 72
8
 73
4
 74
0
 40
0
 40
0
 40
0
 40
0
 40
1
 40
1
 40
1
 40
1
 10
22.960656
 20
-73.113494
 30
0.0
 10
22.960561
 20
-73.489453
 30
0.0
 10
23.109843
 20
-73.850047
 30
0.0
 10
23.375652
 20
-74.115924
 30
0.0
  0
SPLINE
  5
3bd
100
AcDbEntity
  8
0
 62
7
100
AcDbSpline
 70
8
 71
3
 72
8
 73
4
 74
0
 40
0
 40
0
 40
0
 40
0
 40
1
 40
1
 40
1
 40
1
 10
23.375652
 20
-74.115924
 30
0.0
 10
23.641462
 20
-74.381801
 30
0.0
 10
24.002017
 20
-74.531174
 30
0.0
 10
24.377976
 20
-74.531174
 30
0.0
  0
SPLINE
  5
3be
100
AcDbEntity
  8
0
 62
7
100
AcDbSpline
 70
8
 71
3
 72
8
 73
4
 74
0
 40
0
 40
0
 40
0
 40
0
 40
1
 40
1
 40
1
 40
1
 10
61.228368
 20
-74.531174
 30
0.0
 10
61.604327
 20
-74.531174
 30
0.0
 10
61.964882
 20
-74.381801
 30
0.0
 10
62.230692
 20
-74.115924
 30
0.0
  0
SPLINE
  5
3bf
100
AcDbEntity
  8
0
 62
7
100
AcDbSpline
 70
8
 71
3
 72
8
 73
4
 74
0
 40
0
 40
0
 40
0
 40
0
 40
1
 40
1
 40
1
 40
1
 10
62.230692
 20
-74.115924
 30
0.0
 10
62.496501
 20
-73.850047
 30
0.0
 10
62.645783
 20
-73.489453
 30
0.0
 10
62.645688
 20
-73.113494
 30
0.0
  0
SPLINE
  5
3c0
100
AcDbEntity
  8
0
 62
7
100
AcDbSpline
 70
8
 71
3
 72
8
 73
4
 74
0
 40
0
 40
0
 40
0
 40
0
 40
1
 40
1
 40
1
 40
1
 10
682.228080
 20
-128.531174
 30
0.0
 10
682.604101
 20
-128.531270
 30
0.0
 10
682.964749
 20
-128.381938
 30
0.0
 10
683.230637
 20
-128.116051
 30
0.0
  0
SPLINE
  5
3c1
100
AcDbEntity
  8
0
 62
7
100
AcDbSpline
 70
8
 71
3
 72
8
 73
4
 74
0
 40
0
 40
0
 40
0
 40
0
 40
1
 40
1
 40
1
 40
1
 10
683.230637
 20
-128.116051
 30
0.0
 10
683.496524
 20
-127.850164
 30
0.0
 10
683.645856
 20
-127.489516
 30
0.0
 10
683.645760
 20
-127.113494
 30
0.0
  0
SPLINE
  5
3c2
100
AcDbEntity
  8
0
 62
7
100
AcDbSpline
 70
8
 71
3
 72
8
 73
4
 74
0
 40
0
 40
0
 40
0
 40
0
 40
1
 40
1
 40
1
 40
1
 10
643.960800
 20
-127.113494
 30
0.0
 10
643.960705
 20
-127.489391
 30
0.0
 10
644.109937
 20
-127.849930
 30
0.0
 10
644.375669
 20
-128.115796
 30
0.0
  0
SPLINE
  5
3c3
100
AcDbEntity
  8
0
 62
7
100
AcDbSpline
 70
8
 71
3
 72
8
 73
4
 74
0
 40
0
 40
0
 40
0
 40
0
 40
1
 40
1
 40
1
 40
1
 10
644.375669
 20
-128.115796
 30
0.0
 10
644.641400
 20
-128.381663
 30
0.0
 10
645.001863
 20
-128.531079
 30
0.0
 10
645.377760
 20
-128.531174
 30
0.0
  0
SPLINE
  5
3c4
100
AcDbEntity
  8
0
 62
7
100
AcDbSpline
 70
8
 71
3
 72
8
 73
4
 74
0
 40
0
 40
0
 40
0
 40
0
 40
1
 40
1
 40
1
 40
1
 10
645.377760
 20
-88.846214
 30
0.0
 10
644.595277
 20
-88.846413
 30
0.0
 10
643.960999
 20
-89.480691
 30
0.0
 10
643.960800
 20
-90.263174
 30
0.0
  0
SPLINE
  5
3c5
100
AcDbEntity
  8
0
 62
7
100
AcDbSpline
 70
8
 71
3
 72
8
 73
4
 74
0
 40
0
 40
0
 40
0
 40
0
 40
1
 40
1
 40
1
 40
1
 10
683.645760
 20
-90.263174
 30
0.0
 10
683.645665
 20
-89.887278
 30
0.0
 10
683.496249
 20
-89.526815
 30
0.0
 10
683.230382
 20
-89.261083
 30
0.0
  0
SPLINE
  5
3c6
100
AcDbEntity
  8
0
 62
7
100
AcDbSpline
 70
8
 71
3
 72
8
 73
4
 74
0
 40
0
 40
0
 40
0
 40
0
 40
1
 40
1
 40
1
 40
1
 10
683.230382
 20
-89.261083
 30
0.0
 10
682.964515
 20
-88.995352
 30
0.0
 10
682.603977
 20
-88.846119
 30
0.0
 10
682.228080
 20
-88.846214
 30
0.0
  0
LWPOLYLINE
  5
3c7
100
AcDbEntity
  8
0
 62
7
100
AcDbPolyline
 90
2
 70
0
 10
62.640000
 20
-73.107014
 30
0.0
 10
62.640000
 20
-36.257414
 30
0.0
  0
LWPOLYLINE
  5
3c8
100
AcDbEntity
  8
0
 62
7
100
AcDbPolyline
 90
2
 70
0
 10
683.640000
 20
-127.107014
 30
0.0
 10
683.640000
 20
-90.257414
 30
0.0
  0
LWPOLYLINE
  5
3c9
100
AcDbEntity
  8
0
 62
7
100
AcDbPolyline
 90
2
 70
0
 10
645.372000
 20
-128.525414
 30
0.0
 10
682.221600
 20
-128.525414
 30
0.0
  0
LWPOLYLINE
  5
3ca
100
AcDbEntity
  8
0
 62
7
100
AcDbPolyline
 90
2
 70
0
 10
643.953600
 20
-90.257414
 30
0.0
 10
643.953600
 20
-127.107014
 30
0.0
  0
LWPOLYLINE
  5
3cb
100
AcDbEntity
  8
0
 62
7
100
AcDbPolyline
 90
2
 70
0
 10
682.221600
 20
-88.839014
 30
0.0
 10
645.372000
 20
-88.839014
 30
0.0
  0
ENDSEC
  0
SECTION
  2
OBJECTS
  0
DICTIONARY
  5
C
330
0
100
AcDbDictionary
  3
ACAD_GROUP
350
D
  3
ACAD_MLINESTYLE
350
17
  0
DICTIONARY
  5
D
330
C
100
AcDbDictionary
  0
DICTIONARY
  5
1A
330
C
100
AcDbDictionary
  0
DICTIONARY
  5
17
330
C
100
AcDbDictionary
  3
STANDARD
350
18
  0
DICTIONARY
  5
19
330
C
100
AcDbDictionary
  0
ENDSEC
  0
EOF
