0
SECTION
2
HEADER
9
$INSUNITS
70
4
9
$ACADVER
1
AC1014
9
$HANDSEED
5
FFFF
0
ENDSEC
0
SECTION
2
TABLES
0
TABLE
2
VPORT
5
8
100
AcDbSymbolTable
0
ENDTAB
0
TABLE
2
LTYPE
5
5
100
AcDbSymbolTable
0
LTYPE
5
14
100
AcDbSymbolTableRecord
100
AcDbLinetypeTableRecord
2
BYBLOCK
70
0
0
LTYPE
5
15
100
AcDbSymbolTableRecord
100
AcDbLinetypeTableRecord
2
BYLAYER
70
0
0
ENDTAB
0
TABLE
2
LAYER
5
2
100
AcDbSymbolTable
70
2
0
LAYER
5
50
100
AcDbSymbolTableRecord
100
AcDbLayerTableRecord
2
0
70
0
6
CONTINUOUS
0
ENDTAB
0
TABLE
2
STYLE
5
3
100
AcDbSymbolTable
70
1
0
STYLE
5
11
100
AcDbSymbolTableRecord
100
AcDbTextStyleTableRecord
2
STANDARD
70
0
0
ENDTAB
0
TABLE
2
VIEW
5
6
100
AcDbSymbolTable
70
0
0
ENDTAB
0
TABLE
2
UCS
5
7
100
AcDbSymbolTable
70
0
0
ENDTAB
0
TABLE
2
APPID
5
9
100
AcDbSymbolTable
70
2
0
APPID
5
12
100
AcDbSymbolTableRecord
100
AcDbRegAppTableRecord
2
ACAD
70
0
0
ENDTAB
0
TABLE
2
DIMSTYLE
5
A
100
AcDbSymbolTable
70
1
0
ENDTAB
0
TABLE
2
BLOCK_RECORD
5
1
100
AcDbSymbolTable
70
1
0
BLOCK_RECORD
5
1F
100
AcDbSymbolTableRecord
100
AcDbBlockTableRecord
2
*MODEL_SPACE
0
BLOCK_RECORD
5
1B
100
AcDbSymbolTableRecord
100
AcDbBlockTableRecord
2
*PAPER_SPACE
0
ENDTAB
0
ENDSEC
0
SECTION
2
BLOCKS
0
BLOCK
5
20
100
AcDbEntity
100
AcDbBlockBegin
2
*MODEL_SPACE
0
ENDBLK
5
21
100
AcDbEntity
100
AcDbBlockEnd
0
BLOCK
5
1C
100
AcDbEntity
100
AcDbBlockBegin
2
*PAPER_SPACE
0
ENDBLK
5
1D
100
AcDbEntity
100
AcDbBlockEnd
0
ENDSEC
0
SECTION
2
ENTITIES
0
LWPOLYLINE
5
100
100
AcDbEntity
8
0
100
AcDbPolyline
90
8
70
1
43
0.0
10
-150.50886854127003
20
113.53381786208757
42
-0.41421356237309503
10
-151.00886854127003
20
113.03381786208757
10
-164.00886854127006
20
113.03381786208757
42
-0.41421356237313667
10
-164.50886854127006
20
113.53381786208757
10
-164.50886854127006
20
126.53381786208757
42
-0.4142135623730846
10
-164.00886854127006
20
127.03381786208757
10
-151.00886854127003
20
127.03381786208753
42
-0.41421356237309503
10
-150.50886854127009
20
126.53381786208756
0
LWPOLYLINE
5
101
100
AcDbEntity
8
0
100
AcDbPolyline
90
8
70
1
43
0.0
10
-145.74636854127004
20
151.63381786208757
42
-0.41421356237309503
10
-146.24636854127004
20
151.13381786208754
10
-159.24636854127004
20
151.13381786208754
42
-0.41421356237309503
10
-159.74636854127004
20
151.63381786208757
10
-159.74636854127007
20
164.63381786208757
42
-0.41421356237310542
10
-159.24636854127004
20
165.13381786208757
10
-146.24636854127004
20
165.13381786208754
42
-0.41421356237310542
10
-145.74636854127004
20
164.63381786208757
0
LWPOLYLINE
5
102
100
AcDbEntity
8
0
100
AcDbPolyline
90
8
70
1
43
0.0
10
-144.95886854127005
20
113.03381786208757
42
-0.41421356237309503
10
-145.45886854127005
20
113.53381786208757
10
-145.45886854127005
20
126.53381786208757
42
-0.41421356237312623
10
-144.95886854127005
20
127.03381786208757
10
-131.95886854127005
20
127.03381786208759
42
-0.41421356237307422
10
-131.45886854127005
20
126.53381786208757
10
-131.45886854127005
20
113.53381786208757
42
-0.41421356237307422
10
-131.95886854127005
20
113.03381786208757
0
LWPOLYLINE
5
103
100
AcDbEntity
8
0
100
AcDbPolyline
90
8
70
1
43
0.0
10
-202.10886854127008
20
113.03381786208757
42
-0.41421356237313667
10
-202.60886854127008
20
113.53381786208757
10
-202.60886854127008
20
126.53381786208757
42
-0.4142135623730846
10
-202.10886854127008
20
127.03381786208757
10
-189.10886854127006
20
127.03381786208755
42
-0.4142135623730846
10
-188.60886854127006
20
126.53381786208756
10
-188.60886854127011
20
113.53381786208757
42
-0.41421356237310542
10
-189.10886854127006
20
113.03381786208757
0
LWPOLYLINE
5
104
100
AcDbEntity
8
0
100
AcDbPolyline
90
8
70
1
43
0.0
10
-207.37136854127004
20
145.58381786208759
42
-0.41421356237304302
10
-206.87136854127004
20
146.08381786208756
10
-193.87136854127004
20
146.08381786208756
42
-0.41421356237313667
10
-193.37136854127004
20
145.58381786208756
10
-193.37136854127004
20
132.58381786208756
42
-0.41421356237307422
10
-193.87136854127004
20
132.08381786208759
10
-206.87136854127004
20
132.08381786208756
42
-0.41421356237310542
10
-207.37136854127004
20
132.58381786208759
0
LWPOLYLINE
5
105
100
AcDbEntity
8
0
100
AcDbPolyline
90
8
70
1
43
0.0
10
-49.708868541270029
20
113.03381786208757
42
-0.41421356237309503
10
-50.208868541270036
20
113.53381786208757
10
-50.208868541270057
20
126.53381786208757
42
-0.41421356237310025
10
-49.708868541270036
20
127.03381786208759
10
-36.708868541270036
20
127.03381786208759
42
-0.41421356237310542
10
-36.208868541270036
20
126.53381786208757
10
-36.208868541270029
20
113.53381786208757
42
-0.41421356237309243
10
-36.708868541270036
20
113.03381786208757
0
LWPOLYLINE
5
106
100
AcDbEntity
8
0
100
AcDbPolyline
90
8
70
1
43
0.0
10
-183.05886854127007
20
113.03381786208757
42
-0.41421356237313667
10
-183.55886854127007
20
113.53381786208757
10
-183.55886854127007
20
126.53381786208757
42
-0.4142135623730846
10
-183.05886854127007
20
127.03381786208757
10
-170.05886854127004
20
127.03381786208755
42
-0.4142135623730846
10
-169.55886854127004
20
126.53381786208756
10
-169.5588685412701
20
113.53381786208757
42
-0.41421356237310542
10
-170.05886854127004
20
113.03381786208757
0
LWPOLYLINE
5
107
100
AcDbEntity
8
0
100
AcDbPolyline
90
8
70
1
43
0.0
10
-184.34636854127007
20
165.13381786208757
42
-0.41421356237313667
10
-183.84636854127007
20
164.63381786208757
10
-183.8463685412701
20
151.63381786208757
42
-0.41421356237310542
10
-184.34636854127007
20
151.13381786208754
10
-197.34636854127007
20
151.13381786208754
42
-0.41421356237313667
10
-197.84636854127007
20
151.63381786208757
10
-197.84636854127007
20
164.63381786208757
42
-0.41421356237313667
10
-197.34636854127007
20
165.13381786208757
0
LWPOLYLINE
5
108
100
AcDbEntity
8
0
100
AcDbPolyline
90
8
70
1
43
0.0
10
-174.32136854127006
20
132.58381786208756
42
-0.41421356237304302
10
-174.82136854127006
20
132.08381786208759
10
-187.82136854127006
20
132.08381786208759
42
-0.41421356237313667
10
-188.32136854127009
20
132.58381786208759
10
-188.32136854127009
20
145.58381786208759
42
-0.41421356237307422
10
-187.82136854127006
20
146.08381786208756
10
-174.82136854127006
20
146.08381786208759
42
-0.41421356237310542
10
-174.32136854127006
20
145.58381786208756
0
LWPOLYLINE
5
109
100
AcDbEntity
8
0
100
AcDbPolyline
90
8
70
1
43
0.0
10
-8.1338685412700293
20
184.18381786208755
42
-0.41421356237302542
10
-7.6338685412700258
20
183.68381786208758
10
-7.633868541270008
20
170.68381786208761
42
-0.41421356237310153
10
-8.1338685412700258
20
170.18381786208761
10
-21.13386854127004
20
170.18381786208761
42
-0.41421356237304041
10
-21.633868541270029
20
170.68381786208761
10
-21.633868541270047
20
183.68381786208758
42
-0.41421356237310025
10
-21.133868541270033
20
184.18381786208758
0
LWPOLYLINE
5
110
100
AcDbEntity
8
0
100
AcDbPolyline
90
8
70
1
43
0.0
10
-38.59011854127003
20
132.58381786208759
42
-0.41421356237309243
10
-39.09011854127003
20
132.08381786208759
10
-52.090118541270044
20
132.08381786208759
42
-0.41421356237310025
10
-52.590118541270044
20
132.58381786208759
10
-52.590118541270058
20
145.58381786208759
42
-0.41421356237307422
10
-52.090118541270051
20
146.08381786208759
10
-39.090118541270051
20
146.08381786208759
42
-0.41421356237311063
10
-38.59011854127003
20
145.58381786208756
0
LWPOLYLINE
5
111
100
AcDbEntity
8
0
100
AcDbPolyline
90
8
70
1
43
0.0
10
-21.133868541270022
20
151.13381786208754
42
-0.41421356237309764
10
-21.633868541270029
20
151.63381786208757
10
-21.633868541270047
20
164.63381786208757
42
-0.41421356237310025
10
-21.133868541270033
20
165.13381786208757
10
-8.1338685412700329
20
165.13381786208754
42
-0.41421356237302803
10
-7.6338685412700258
20
164.63381786208757
10
-7.6338685412700338
20
151.63381786208757
42
-0.41421356237311519
10
-8.1338685412700222
20
151.13381786208757
0
LWPOLYLINE
5
112
100
AcDbEntity
8
0
100
AcDbPolyline
90
8
70
1
43
0.0
10
-126.69636854127006
20
151.63381786208757
42
-0.41421356237309503
10
-127.19636854127006
20
151.13381786208754
10
-140.19636854127006
20
151.13381786208754
42
-0.41421356237307422
10
-140.69636854127006
20
151.63381786208757
10
-140.69636854127003
20
164.63381786208757
42
-0.4142135623730846
10
-140.19636854127006
20
165.13381786208757
10
-127.19636854127006
20
165.13381786208754
42
-0.41421356237310542
10
-126.69636854127006
20
164.63381786208757
0
LWPOLYLINE
5
113
100
AcDbEntity
8
0
100
AcDbPolyline
90
28
70
1
43
0.0
10
-52.089598541270036
20
170.18363186208759
10
-36.707353541270038
20
170.18363186208759
10
-36.537173541270036
20
170.21157186208762
10
-36.40763354127003
20
170.28269186208757
10
-36.354293541270039
20
170.32841186208759
10
-36.267933541270025
20
170.44525186208759
10
-36.214593541270034
20
170.59257286208754
10
-36.206973541270031
20
170.68147286208756
10
-36.206973541270031
20
183.68373686208756
10
-36.239993541270024
20
183.85645686208758
10
-36.311113541270039
20
183.98599686208757
10
-36.354293541270039
20
184.03679686208758
10
-36.468593541270025
20
184.12315686208757
10
-36.618453541270028
20
184.17395686208761
10
-36.707353541270038
20
184.18157686208758
10
-52.089598541270036
20
184.18157686208758
10
-52.259778541270038
20
184.15363686208758
10
-52.389318541270043
20
184.08251686208757
10
-52.442658541270042
20
184.03679686208758
10
-52.529018541270034
20
183.92249686208757
10
-52.579818541270043
20
183.77263686208755
10
-52.589978541270042
20
183.68373686208756
10
-52.589978541270042
20
170.68147286208756
10
-52.559498541270045
20
170.51129286208754
10
-52.488378541270038
20
170.38175186208753
10
-52.442658541270042
20
170.32841186208759
10
-52.325818541270053
20
170.24205186208761
10
-52.175958541270049
20
170.19125186208757
0
LWPOLYLINE
5
114
100
AcDbEntity
8
0
100
AcDbPolyline
90
8
70
1
43
0.0
10
-7.6338685412700169
20
132.58381786208759
42
-0.4142135623730937
10
-8.1338685412700222
20
132.08381786208759
10
-21.133868541270022
20
132.08381786208759
42
-0.41421356237309764
10
-21.633868541270029
20
132.58381786208759
10
-21.633868541270033
20
145.58381786208759
42
-0.41421356237307161
10
-21.133868541270033
20
146.08381786208759
10
-8.1338685412700329
20
146.08381786208759
42
-0.41421356237307877
10
-7.6338685412700213
20
145.58381786208759
0
LWPOLYLINE
5
115
100
AcDbEntity
8
0
100
AcDbPolyline
90
8
70
1
43
0.0
10
-57.352618541270033
20
164.63381786208757
42
-0.41421356237312101
10
-56.852618541270054
20
165.13381786208757
10
-43.852618541270054
20
165.13381786208754
42
-0.41421356237303258
10
-43.35261854127004
20
164.63381786208757
10
-43.352618541270019
20
151.63381786208757
42
-0.41421356237310025
10
-43.852618541270033
20
151.13381786208754
10
-56.852618541270047
20
151.13381786208754
42
-0.41421356237310025
10
-57.352618541270047
20
151.63381786208757
0
LWPOLYLINE
5
116
100
AcDbEntity
8
0
100
AcDbPolyline
90
8
70
1
43
0.0
10
-7.6338685412700169
20
113.53381786208757
42
-0.4142135623730937
10
-8.1338685412700222
20
113.03381786208757
10
-21.133868541270022
20
113.03381786208757
42
-0.41421356237309764
10
-21.633868541270029
20
113.53381786208757
10
-21.633868541270033
20
126.53381786208757
42
-0.41421356237309243
10
-21.133868541270033
20
127.03381786208759
10
-8.1338685412700329
20
127.03381786208759
42
-0.41421356237309959
10
-7.6338685412700213
20
126.53381786208757
0
LWPOLYLINE
5
117
100
AcDbEntity
8
0
100
AcDbPolyline
90
8
70
1
43
0.0
10
-130.67136854127006
20
132.08381786208759
42
-0.41421356237307422
10
-131.17136854127006
20
132.58381786208759
10
-131.17136854127006
20
145.58381786208759
42
-0.4142135623730534
10
-130.67136854127006
20
146.08381786208759
10
-117.67136854127006
20
146.08381786208759
42
-0.41421356237307422
10
-117.17136854127006
20
145.58381786208759
10
-117.17136854127006
20
132.58381786208759
42
-0.41421356237309503
10
-117.67136854127006
20
132.08381786208759
0
LWPOLYLINE
5
118
100
AcDbEntity
8
0
100
AcDbPolyline
90
8
70
1
43
0.0
10
-125.90886854127007
20
113.03381786208757
42
-0.41421356237309503
10
-126.40886854127007
20
113.53381786208757
10
-126.40886854127007
20
126.53381786208757
42
-0.41421356237309503
10
-125.90886854127007
20
127.03381786208759
10
-112.90886854127007
20
127.03381786208759
42
-0.41421356237309503
10
-112.40886854127005
20
126.53381786208757
10
-112.40886854127005
20
113.53381786208757
42
-0.41421356237309503
10
-112.90886854127007
20
113.03381786208757
0
LWPOLYLINE
5
119
100
AcDbEntity
8
0
100
AcDbPolyline
90
8
70
1
43
0.0
10
-165.29636854127006
20
165.13381786208757
42
-0.41421356237313667
10
-164.79636854127006
20
164.63381786208757
10
-164.79636854127008
20
151.63381786208757
42
-0.41421356237310542
10
-165.29636854127006
20
151.13381786208754
10
-178.29636854127006
20
151.13381786208754
42
-0.41421356237313667
10
-178.79636854127006
20
151.63381786208757
10
-178.79636854127006
20
164.63381786208757
42
-0.41421356237313667
10
-178.29636854127006
20
165.13381786208757
0
LWPOLYLINE
5
120
100
AcDbEntity
8
0
100
AcDbPolyline
90
8
70
1
43
0.0
10
-108.14636854127005
20
165.13381786208754
42
-0.41421356237310542
10
-107.64636854127005
20
164.63381786208757
10
-107.64636854127005
20
151.63381786208757
42
-0.41421356237309503
10
-108.14636854127005
20
151.13381786208754
10
-121.14636854127005
20
151.13381786208754
42
-0.41421356237307422
10
-121.64636854127005
20
151.63381786208757
10
-121.64636854127004
20
164.63381786208757
42
-0.4142135623730846
10
-121.14636854127005
20
165.13381786208757
0
LWPOLYLINE
5
121
100
AcDbEntity
8
0
100
AcDbPolyline
90
8
70
1
43
0.0
10
-136.22136854127007
20
132.58381786208759
42
-0.41421356237309503
10
-136.72136854127007
20
132.08381786208759
10
-149.72136854127007
20
132.08381786208759
42
-0.41421356237309503
10
-150.2213685412701
20
132.58381786208759
10
-150.2213685412701
20
145.58381786208756
42
-0.41421356237309503
10
-149.72136854127007
20
146.08381786208756
10
-136.72136854127007
20
146.08381786208759
42
-0.41421356237307422
10
-136.22136854127007
20
145.58381786208759
0
LWPOLYLINE
5
122
100
AcDbEntity
8
0
100
AcDbPolyline
90
8
70
1
43
0.0
10
-155.27136854127005
20
132.58381786208756
42
-0.41421356237310542
10
-155.77136854127005
20
132.08381786208759
10
-168.77136854127005
20
132.08381786208759
42
-0.41421356237313667
10
-169.27136854127008
20
132.58381786208759
10
-169.27136854127008
20
145.58381786208756
42
-0.41421356237313667
10
-168.77136854127005
20
146.08381786208756
10
-155.77136854127005
20
146.08381786208756
42
-0.41421356237309503
10
-155.27136854127005
20
145.58381786208756
0
LWPOLYLINE
5
123
100
AcDbEntity
8
0
100
AcDbPolyline
90
8
70
1
43
0.0
10
-88.596368541270024
20
151.63381786208757
42
-0.41421356237307422
10
-89.096368541270024
20
151.13381786208754
10
-102.09636854127004
20
151.13381786208754
42
-0.41421356237307422
10
-102.59636854127004
20
151.63381786208757
10
-102.59636854127002
20
164.63381786208757
42
-0.4142135623730846
10
-102.09636854127004
20
165.13381786208757
10
-89.096368541270024
20
165.1338178620876
42
-0.4142135623730846
10
-88.596368541270024
20
164.63381786208757
0
LWPOLYLINE
5
124
100
AcDbEntity
8
0
100
AcDbPolyline
90
8
70
1
43
0.0
10
-70.046368541270027
20
165.13381786208757
42
-0.41421356237304818
10
-69.546368541270041
20
164.63381786208757
10
-69.546368541270041
20
151.63381786208757
42
-0.41421356237309503
10
-70.046368541270041
20
151.13381786208754
10
-83.046368541270041
20
151.13381786208754
42
-0.41421356237309503
10
-83.546368541270056
20
151.63381786208757
10
-83.54636854127007
20
164.63381786208757
42
-0.41421356237310542
10
-83.046368541270041
20
165.13381786208757
0
LWPOLYLINE
5
125
100
AcDbEntity
8
0
100
AcDbPolyline
90
8
70
1
43
0.0
10
-98.621368541270044
20
146.08381786208756
42
-0.41421356237311585
10
-98.12136854127003
20
145.58381786208759
10
-98.12136854127003
20
132.58381786208759
42
-0.41421356237307422
10
-98.62136854127003
20
132.08381786208759
10
-111.62136854127004
20
132.08381786208759
42
-0.41421356237312623
10
-112.12136854127007
20
132.58381786208759
10
-112.12136854127007
20
145.58381786208759
42
-0.41421356237312623
10
-111.62136854127006
20
146.08381786208756
0
LWPOLYLINE
5
126
100
AcDbEntity
8
0
100
AcDbPolyline
90
8
70
1
43
0.0
10
-73.52136854127005
20
132.08381786208759
42
-0.41421356237308982
10
-74.02136854127005
20
132.58381786208759
10
-74.02136854127005
20
145.58381786208759
42
-0.41421356237307422
10
-73.52136854127005
20
146.08381786208759
10
-60.521368541270029
20
146.08381786208756
42
-0.41421356237309503
10
-60.021368541270036
20
145.58381786208759
10
-60.021368541270029
20
132.58381786208759
42
-0.41421356237309503
10
-60.521368541270036
20
132.08381786208759
0
LWPOLYLINE
5
127
100
AcDbEntity
8
0
100
AcDbPolyline
90
8
70
1
43
0.0
10
-79.571368541270033
20
146.08381786208756
42
-0.41421356237313145
10
-79.071368541270047
20
145.58381786208756
10
-79.071368541270047
20
132.58381786208759
42
-0.41421356237309503
10
-79.571368541270047
20
132.08381786208759
10
-92.571368541270061
20
132.08381786208759
42
-0.41421356237310542
10
-93.071368541270061
20
132.58381786208759
10
-93.071368541270061
20
145.58381786208759
42
-0.41421356237312623
10
-92.571368541270047
20
146.08381786208756
0
LWPOLYLINE
5
128
100
AcDbEntity
8
0
100
AcDbPolyline
90
8
70
1
43
0.0
10
-55.758868541270054
20
127.03381786208759
42
-0.41421356237308982
10
-55.258868541270054
20
126.53381786208757
10
-55.258868541270047
20
113.53381786208757
42
-0.41421356237309503
10
-55.758868541270054
20
113.03381786208757
10
-68.758868541270033
20
113.03381786208757
42
-0.41421356237309503
10
-69.258868541270033
20
113.53381786208757
10
-69.258868541270047
20
126.53381786208757
42
-0.41421356237309503
10
-68.758868541270047
20
127.03381786208759
0
LWPOLYLINE
5
129
100
AcDbEntity
8
0
100
AcDbPolyline
90
8
70
1
43
0.0
10
-87.808868541270058
20
113.03381786208757
42
-0.41421356237310542
10
-88.308868541270044
20
113.53381786208757
10
-88.308868541270044
20
126.53381786208757
42
-0.41421356237309503
10
-87.808868541270044
20
127.03381786208759
10
-74.808868541270044
20
127.03381786208759
42
-0.41421356237305862
10
-74.308868541270044
20
126.53381786208756
10
-74.308868541270044
20
113.53381786208757
42
-0.41421356237309503
10
-74.808868541270044
20
113.03381786208757
0
LWPOLYLINE
5
130
100
AcDbEntity
8
0
100
AcDbPolyline
90
8
70
1
43
0.0
10
-107.35886854127006
20
126.53381786208757
42
-0.41421356237309503
10
-106.85886854127006
20
127.03381786208759
10
-93.858868541270056
20
127.03381786208757
42
-0.41421356237311585
10
-93.358868541270027
20
126.53381786208757
10
-93.358868541270027
20
113.53381786208757
42
-0.41421356237307422
10
-93.858868541270027
20
113.03381786208757
10
-106.85886854127004
20
113.03381786208757
42
-0.41421356237312623
10
-107.35886854127006
20
113.53381786208757
0
LWPOLYLINE
5
131
100
AcDbEntity
8
0
100
AcDbPolyline
90
8
70
1
43
0.0
10
-55.757359541270041
20
184.18157686208758
42
-0.41272379914184476
10
-55.256979541270042
20
183.68373686208756
10
-55.256979541270013
20
169.68287186208755
42
-0.41421356237314705
10
-55.756979541270042
20
169.1828718620875
10
-106.85747554127005
20
169.18287186208772
42
-0.41421356237307422
10
-107.35747554127008
20
169.68287186208769
10
-107.35747554127001
20
183.68373686208756
42
-0.41570489660818988
10
-106.85709554127004
20
184.18157686208758
0
LWPOLYLINE
5
132
100
AcDbEntity
8
0
100
AcDbPolyline
90
8
70
1
43
0.0
10
-111.11413654127006
20
169.68325186208759
42
-0.41421356237312623
10
-111.61451654127005
20
169.18287186208758
10
-240.20751654127002
20
169.18287186208784
42
-0.41421356237328233
10
-240.70751654127008
20
169.68287186208784
10
-240.70751654127008
20
183.68373686208756
42
-0.41272379914187596
10
-240.20713654127007
20
184.18157686208758
10
-111.61451654127005
20
184.18157686208758
42
-0.41272379914178253
10
-111.11413654127006
20
183.68373686208758
0
LWPOLYLINE
5
133
100
AcDbEntity
8
0
100
AcDbPolyline
90
28
70
1
43
0.0
10
-259.65592254127006
20
170.38175186208753
10
-259.6102025412701
20
170.32841186208759
10
-259.49590254127008
20
170.24205186208761
10
-259.3460415412701
20
170.19125186208757
10
-259.25714154127007
20
170.18363186208759
10
-243.87743754127007
20
170.18363186208759
10
-243.70725754127011
20
170.21157186208762
10
-243.57517754127008
20
170.28269186208757
10
-243.52183754127012
20
170.32841186208759
10
-243.43547754127007
20
170.44525186208759
10
-243.38467754127009
20
170.59257286208754
10
-243.37705754127006
20
170.68147286208756
10
-243.37705754127006
20
183.68373686208756
10
-243.40753754127007
20
183.85645686208758
10
-243.47865754127011
20
183.98599686208757
10
-243.52183754127012
20
184.03679686208758
10
-243.63867754127006
20
184.12315686208757
10
-243.78599754127009
20
184.17395686208761
10
-243.87743754127007
20
184.18157686208758
10
-259.25714154127007
20
184.18157686208758
10
-259.42732254127009
20
184.15363686208758
10
-259.55940254127006
20
184.08251686208757
10
-259.6102025412701
20
184.03679686208758
10
-259.69656254127005
20
183.92249686208757
10
-259.7499025412701
20
183.77263686208755
10
-259.75752254127008
20
183.68373686208756
10
-259.75752254127008
20
170.68147286208756
10
-259.72704254127007
20
170.51129286208754
0
LWPOLYLINE
5
134
100
AcDbEntity
8
0
100
AcDbPolyline
90
8
70
1
43
0.0
10
-221.6588685412701
20
126.53381786208757
42
-0.4142135623730846
10
-221.1588685412701
20
127.03381786208757
10
-208.15886854127007
20
127.03381786208755
42
-0.4142135623730846
10
-207.65886854127007
20
126.53381786208756
10
-207.65886854127012
20
113.53381786208757
42
-0.41421356237310542
10
-208.15886854127007
20
113.03381786208757
10
-221.1588685412701
20
113.03381786208757
42
-0.41421356237313667
10
-221.6588685412701
20
113.53381786208757
0
LWPOLYLINE
5
135
100
AcDbEntity
8
0
100
AcDbPolyline
90
8
70
1
43
0.0
10
-226.42136854127011
20
145.58381786208759
42
-0.41421356237307422
10
-225.92136854127008
20
146.08381786208756
10
-212.92136854127008
20
146.08381786208759
42
-0.4142135623730846
10
-212.42136854127006
20
145.58381786208756
10
-212.42136854127006
20
132.58381786208756
42
-0.41421356237307422
10
-212.92136854127006
20
132.08381786208759
10
-225.92136854127006
20
132.08381786208756
42
-0.4142135623730846
10
-226.42136854127011
20
132.58381786208759
0
LWPOLYLINE
5
136
100
AcDbEntity
8
0
100
AcDbPolyline
90
8
70
1
43
0.0
10
-252.11511854127011
20
132.08381786208756
42
-0.41421356237310542
10
-252.61511854127011
20
132.58381786208759
10
-252.61511854127011
20
145.58381786208759
42
-0.41421356237304302
10
-252.11511854127011
20
146.08381786208756
10
-239.11511854127011
20
146.08381786208756
42
-0.41421356237313667
10
-238.61511854127008
20
145.58381786208756
10
-238.61511854127008
20
132.58381786208756
42
-0.41421356237307422
10
-239.11511854127011
20
132.08381786208759
0
LWPOLYLINE
5
137
100
AcDbEntity
8
0
100
AcDbPolyline
90
8
70
1
43
0.0
10
-246.25886854127009
20
127.03381786208755
42
-0.4142135623730846
10
-245.75886854127009
20
126.53381786208756
10
-245.75886854127015
20
113.53381786208757
42
-0.41421356237310542
10
-246.25886854127009
20
113.03381786208757
10
-259.25886854127009
20
113.03381786208757
42
-0.41421356237313667
10
-259.75886854127009
20
113.53381786208757
10
-259.75886854127009
20
126.53381786208757
42
-0.4142135623730846
10
-259.25886854127009
20
127.03381786208757
0
LWPOLYLINE
5
138
100
AcDbEntity
8
0
100
AcDbPolyline
90
8
70
1
43
0.0
10
-240.70886854127011
20
126.53381786208757
42
-0.4142135623730846
10
-240.20886854127011
20
127.03381786208757
10
-227.20886854127008
20
127.03381786208755
42
-0.4142135623730846
10
-226.70886854127008
20
126.53381786208756
10
-226.70886854127014
20
113.53381786208757
42
-0.41421356237310542
10
-227.20886854127008
20
113.03381786208757
10
-240.20886854127011
20
113.03381786208757
42
-0.41421356237313667
10
-240.70886854127011
20
113.53381786208757
0
LWPOLYLINE
5
139
100
AcDbEntity
8
0
100
AcDbPolyline
90
8
70
1
43
0.0
10
-202.89636854127002
20
151.63381786208757
42
-0.41421356237313667
10
-203.39636854127005
20
151.13381786208754
10
-216.39636854127005
20
151.13381786208754
42
-0.41421356237310542
10
-216.89636854127005
20
151.63381786208757
10
-216.89636854127005
20
164.63381786208757
42
-0.41421356237313667
10
-216.39636854127005
20
165.13381786208757
10
-203.39636854127005
20
165.13381786208751
42
-0.41421356237311585
10
-202.89636854127008
20
164.63381786208757
0
LWPOLYLINE
5
140
100
AcDbEntity
8
0
100
AcDbPolyline
90
8
70
1
43
0.0
10
-243.3776185412701
20
151.63381786208757
42
-0.41421356237310542
10
-243.87761854127007
20
151.13381786208754
10
-256.87761854127007
20
151.13381786208754
42
-0.41421356237313667
10
-257.37761854127007
20
151.63381786208757
10
-257.37761854127007
20
164.63381786208757
42
-0.41421356237313667
10
-256.87761854127007
20
165.13381786208757
10
-243.87761854127007
20
165.13381786208754
42
-0.41421356237309503
10
-243.3776185412701
20
164.63381786208757
0
LWPOLYLINE
5
141
100
AcDbEntity
8
0
100
AcDbPolyline
90
8
70
1
43
0.0
10
-222.44636854127009
20
165.13381786208757
42
-0.41421356237307422
10
-221.94636854127003
20
164.63381786208757
10
-221.94636854127003
20
151.63381786208757
42
-0.41421356237313667
10
-222.44636854127006
20
151.13381786208754
10
-235.44636854127006
20
151.13381786208754
42
-0.4142135623730846
10
-235.94636854127009
20
151.63381786208757
10
-235.94636854127009
20
164.63381786208757
42
-0.41421356237313667
10
-235.44636854127009
20
165.13381786208757
0
LWPOLYLINE
5
142
100
AcDbEntity
8
0
100
AcDbPolyline
90
8
70
1
43
0.0
10
-262.75886854127015
20
184.18157686208758
42
-0.41421356237308116
10
-259.75886854127009
20
187.18157686208758
10
-7.6338685412700631
20
187.18157686208758
42
-0.41421356237308476
10
-4.6338685412700187
20
184.18157686208758
10
-4.6338685412700276
20
113.0338178620876
42
-0.41421356237309243
10
-7.6338685412700258
20
110.03381786208756
10
-259.75886854127009
20
110.03381786208756
42
-0.41421356237308815
10
-262.75886854127015
20
113.03381786208757
0
ENDSEC
0
SECTION
2
OBJECTS
0
DICTIONARY
5
C
100
AcDbDictionary
3
ACAD_GROUP
350
D
3
ACAD_MLINESTYLE
350
17
0
DICTIONARY
5
D
100
AcDbDictionary
0
DICTIONARY
5
1A
330
C
100
AcDbDictionary
0
DICTIONARY
5
17
100
AcDbDictionary
0
ENDSEC
0
EOF
