  0
SECTION
  2
HEADER
  9
$ACADVER
  1
AC1014
  9
$HANDSEED
  5
FFFF
  9
$MEASUREMENT
 70
     1
  0
ENDSEC
  0
SECTION
  2
TABLES
  0
TABLE
  2
VPORT
  5
8
330
0
100
AcDbSymbolTable
 70
     4
  0
VPORT
  5
2E
330
8
100
AcDbSymbolTableRecord
100
AcDbViewportTableRecord
  2
*ACTIVE
 70
     0
 10
0.0
 20
0.0
 11
1.0
 21
1.0
 12
210.0
 22
148.5
 13
0.0
 23
0.0
 14
10.0
 24
10.0
 15
10.0
 25
10.0
 16
0.0
 26
0.0
 36
1.0
 17
0.0
 27
0.0
 37
0.0
 40
341.0
 41
1.24
 42
50.0
 43
0.0
 44
0.0
 50
0.0
 51
0.0
 71
     0
 72
   100
 73
     1
 74
     3
 75
     0
 76
     0
 77
     0
 78
     0
  0
ENDTAB
  0
TABLE
  2
LTYPE
  5
5
330
0
100
AcDbSymbolTable
 70
     1
  0
LTYPE
  5
14
330
5
100
AcDbSymbolTableRecord
100
AcDbLinetypeTableRecord
  2
BYBLOCK
 70
     0
  3

 72
    65
 73
     0
 40
0.0
  0
LTYPE
  5
15
330
5
100
AcDbSymbolTableRecord
100
AcDbLinetypeTableRecord
  2
BYLAYER
 70
     0
  3

 72
    65
 73
     0
 40
0.0
  0
LTYPE
  5
16
330
5
100
AcDbSymbolTableRecord
100
AcDbLinetypeTableRecord
  2
CONTINUOUS
 70
     0
  3
Solid line
 72
    65
 73
     0
 40
0.0
  0
ENDTAB
  0
TABLE
  2
LAYER
  5
2
100
AcDbSymbolTable
 70
1
  0
LAYER
  5
50
100
AcDbSymbolTableRecord
100
AcDbLayerTableRecord
  2
0
 70
0
  6
CONTINUOUS
  0
ENDTAB
  0
TABLE
  2
STYLE
  5
3
330
0
100
AcDbSymbolTable
 70
     1
  0
STYLE
  5
11
330
3
100
AcDbSymbolTableRecord
100
AcDbTextStyleTableRecord
  2
STANDARD
 70
     0
 40
0.0
 41
1.0
 50
0.0
 71
     0
 42
2.5
  3
txt
  4

  0
ENDTAB
  0
TABLE
  2
VIEW
  5
6
330
0
100
AcDbSymbolTable
 70
     0
  0
ENDTAB
  0
TABLE
  2
UCS
  5
7
330
0
100
AcDbSymbolTable
 70
     0
  0
ENDTAB
  0
TABLE
  2
APPID
  5
9
330
0
100
AcDbSymbolTable
 70
     2
  0
APPID
  5
12
330
9
100
AcDbSymbolTableRecord
100
AcDbRegAppTableRecord
  2
ACAD
 70
     0
  0
ENDTAB
  0
TABLE
  2
DIMSTYLE
  5
A
330
0
100
AcDbSymbolTable
 70
     1
  0
DIMSTYLE
105
27
330
A
100
AcDbSymbolTableRecord
100
AcDbDimStyleTableRecord
  2
ISO-25
 70
     0
  3

  4

  5

  6

  7

 40
1.0
 41
2.5
 42
0.625
 43
3.75
 44
1.25
 45
0.0
 46
0.0
 47
0.0
 48
0.0
140
2.5
141
2.5
142
0.0
143
0.03937007874016
144
1.0
145
0.0
146
1.0
147
0.625
 71
     0
 72
     0
 73
     0
 74
     0
 75
     0
 76
     0
 77
     1
 78
     8
170
     0
171
     3
172
     1
173
     0
174
     0
175
     0
176
     0
177
     0
178
     0
270
     2
271
     2
272
     2
273
     2
274
     3
340
11
275
     0
280
     0
281
     0
282
     0
283
     0
284
     8
285
     0
286
     0
287
     3
288
     0
  0
ENDTAB
  0
TABLE
  2
BLOCK_RECORD
  5
1
330
0
100
AcDbSymbolTable
 70
     1
  0
BLOCK_RECORD
  5
1F
330
1
100
AcDbSymbolTableRecord
100
AcDbBlockTableRecord
  2
*MODEL_SPACE
  0
BLOCK_RECORD
  5
1B
330
1
100
AcDbSymbolTableRecord
100
AcDbBlockTableRecord
  2
*PAPER_SPACE
  0
ENDTAB
  0
ENDSEC
  0
SECTION
  2
BLOCKS
  0
BLOCK
  5
20
330
1F
100
AcDbEntity
  8
0
100
AcDbBlockBegin
  2
*MODEL_SPACE
 70
     0
 10
0.0
 20
0.0
 30
0.0
  3
*MODEL_SPACE
  1

  0
ENDBLK
  5
21
330
1F
100
AcDbEntity
  8
0
100
AcDbBlockEnd
  0
BLOCK
  5
1C
330
1B
100
AcDbEntity
 67
     1
  8
0
100
AcDbBlockBegin
  2
*PAPER_SPACE
  1

  0
ENDBLK
  5
1D
330
1B
100
AcDbEntity
 67
     1
  8
0
100
AcDbBlockEnd
  0
ENDSEC
  0
SECTION
  2
ENTITIES
  0
SPLINE
  5
100
100
AcDbEntity
  8
0
 62
7
100
AcDbSpline
 70
8
 71
3
 72
8
 73
4
 74
0
 40
0
 40
0
 40
0
 40
0
 40
1
 40
1
 40
1
 40
1
 10
592.720209
 20
-197.940713
 30
0.0
 10
592.720209
 20
-198.316610
 30
0.0
 10
592.869533
 20
-198.677112
 30
0.0
 10
593.135333
 20
-198.942911
 30
0.0
  0
SPLINE
  5
101
100
AcDbEntity
  8
0
 62
7
100
AcDbSpline
 70
8
 71
3
 72
8
 73
4
 74
0
 40
0
 40
0
 40
0
 40
0
 40
1
 40
1
 40
1
 40
1
 10
593.135333
 20
-198.942911
 30
0.0
 10
593.401132
 20
-199.208711
 30
0.0
 10
593.761634
 20
-199.358036
 30
0.0
 10
594.137531
 20
-199.358036
 30
0.0
  0
SPLINE
  5
102
100
AcDbEntity
  8
0
 62
7
100
AcDbSpline
 70
8
 71
3
 72
8
 73
4
 74
0
 40
0
 40
0
 40
0
 40
0
 40
1
 40
1
 40
1
 40
1
 10
571.459680
 20
-199.359113
 30
0.0
 10
571.835577
 20
-199.359113
 30
0.0
 10
572.196079
 20
-199.209788
 30
0.0
 10
572.461879
 20
-198.943988
 30
0.0
  0
SPLINE
  5
103
100
AcDbEntity
  8
0
 62
7
100
AcDbSpline
 70
8
 71
3
 72
8
 73
4
 74
0
 40
0
 40
0
 40
0
 40
0
 40
1
 40
1
 40
1
 40
1
 10
572.461879
 20
-198.943988
 30
0.0
 10
572.727678
 20
-198.678189
 30
0.0
 10
572.877003
 20
-198.317687
 30
0.0
 10
572.877003
 20
-197.941790
 30
0.0
  0
SPLINE
  5
104
100
AcDbEntity
  8
0
 62
7
100
AcDbSpline
 70
8
 71
3
 72
8
 73
4
 74
0
 40
0
 40
0
 40
0
 40
0
 40
1
 40
1
 40
1
 40
1
 10
538.813791
 20
-197.940713
 30
0.0
 10
538.813791
 20
-198.316610
 30
0.0
 10
538.963116
 20
-198.677112
 30
0.0
 10
539.228916
 20
-198.942911
 30
0.0
  0
SPLINE
  5
105
100
AcDbEntity
  8
0
 62
7
100
AcDbSpline
 70
8
 71
3
 72
8
 73
4
 74
0
 40
0
 40
0
 40
0
 40
0
 40
1
 40
1
 40
1
 40
1
 10
539.228916
 20
-198.942911
 30
0.0
 10
539.494715
 20
-199.208711
 30
0.0
 10
539.855217
 20
-199.358036
 30
0.0
 10
540.231114
 20
-199.358036
 30
0.0
  0
SPLINE
  5
106
100
AcDbEntity
  8
0
 62
7
100
AcDbSpline
 70
8
 71
3
 72
8
 73
4
 74
0
 40
0
 40
0
 40
0
 40
0
 40
1
 40
1
 40
1
 40
1
 10
497.299657
 20
-199.359113
 30
0.0
 10
497.675555
 20
-199.359113
 30
0.0
 10
498.036056
 20
-199.209788
 30
0.0
 10
498.301856
 20
-198.943988
 30
0.0
  0
SPLINE
  5
107
100
AcDbEntity
  8
0
 62
7
100
AcDbSpline
 70
8
 71
3
 72
8
 73
4
 74
0
 40
0
 40
0
 40
0
 40
0
 40
1
 40
1
 40
1
 40
1
 10
498.301856
 20
-198.943988
 30
0.0
 10
498.567656
 20
-198.678189
 30
0.0
 10
498.716980
 20
-198.317687
 30
0.0
 10
498.716980
 20
-197.941790
 30
0.0
  0
SPLINE
  5
108
100
AcDbEntity
  8
0
 62
7
100
AcDbSpline
 70
8
 71
3
 72
8
 73
4
 74
0
 40
0
 40
0
 40
0
 40
0
 40
1
 40
1
 40
1
 40
1
 10
471.133772
 20
-197.940713
 30
0.0
 10
471.133772
 20
-198.316610
 30
0.0
 10
471.283096
 20
-198.677112
 30
0.0
 10
471.548896
 20
-198.942911
 30
0.0
  0
SPLINE
  5
109
100
AcDbEntity
  8
0
 62
7
100
AcDbSpline
 70
8
 71
3
 72
8
 73
4
 74
0
 40
0
 40
0
 40
0
 40
0
 40
1
 40
1
 40
1
 40
1
 10
471.548896
 20
-198.942911
 30
0.0
 10
471.814695
 20
-199.208711
 30
0.0
 10
472.175197
 20
-199.358036
 30
0.0
 10
472.551094
 20
-199.358036
 30
0.0
  0
SPLINE
  5
10a
100
AcDbEntity
  8
0
 62
7
100
AcDbSpline
 70
8
 71
3
 72
8
 73
4
 74
0
 40
0
 40
0
 40
0
 40
0
 40
1
 40
1
 40
1
 40
1
 10
429.619635
 20
-199.359113
 30
0.0
 10
429.995532
 20
-199.359113
 30
0.0
 10
430.356034
 20
-199.209788
 30
0.0
 10
430.621833
 20
-198.943988
 30
0.0
  0
SPLINE
  5
10b
100
AcDbEntity
  8
0
 62
7
100
AcDbSpline
 70
8
 71
3
 72
8
 73
4
 74
0
 40
0
 40
0
 40
0
 40
0
 40
1
 40
1
 40
1
 40
1
 10
430.621833
 20
-198.943988
 30
0.0
 10
430.887633
 20
-198.678189
 30
0.0
 10
431.036957
 20
-198.317687
 30
0.0
 10
431.036957
 20
-197.941790
 30
0.0
  0
SPLINE
  5
10c
100
AcDbEntity
  8
0
 62
7
100
AcDbSpline
 70
8
 71
3
 72
8
 73
4
 74
0
 40
0
 40
0
 40
0
 40
0
 40
1
 40
1
 40
1
 40
1
 10
410.560152
 20
-197.940713
 30
0.0
 10
410.560152
 20
-198.316610
 30
0.0
 10
410.709476
 20
-198.677112
 30
0.0
 10
410.975276
 20
-198.942911
 30
0.0
  0
SPLINE
  5
10d
100
AcDbEntity
  8
0
 62
7
100
AcDbSpline
 70
8
 71
3
 72
8
 73
4
 74
0
 40
0
 40
0
 40
0
 40
0
 40
1
 40
1
 40
1
 40
1
 10
410.975276
 20
-198.942911
 30
0.0
 10
411.241076
 20
-199.208711
 30
0.0
 10
411.601577
 20
-199.358036
 30
0.0
 10
411.977475
 20
-199.358036
 30
0.0
  0
SPLINE
  5
10e
100
AcDbEntity
  8
0
 62
7
100
AcDbSpline
 70
8
 71
3
 72
8
 73
4
 74
0
 40
0
 40
0
 40
0
 40
0
 40
1
 40
1
 40
1
 40
1
 10
375.619620
 20
-199.359113
 30
0.0
 10
375.995518
 20
-199.359113
 30
0.0
 10
376.356019
 20
-199.209788
 30
0.0
 10
376.621819
 20
-198.943988
 30
0.0
  0
SPLINE
  5
10f
100
AcDbEntity
  8
0
 62
7
100
AcDbSpline
 70
8
 71
3
 72
8
 73
4
 74
0
 40
0
 40
0
 40
0
 40
0
 40
1
 40
1
 40
1
 40
1
 10
376.621819
 20
-198.943988
 30
0.0
 10
376.887619
 20
-198.678189
 30
0.0
 10
377.036943
 20
-198.317687
 30
0.0
 10
377.036943
 20
-197.941790
 30
0.0
  0
SPLINE
  5
110
100
AcDbEntity
  8
0
 62
7
100
AcDbSpline
 70
8
 71
3
 72
8
 73
4
 74
0
 40
0
 40
0
 40
0
 40
0
 40
1
 40
1
 40
1
 40
1
 10
342.880132
 20
-197.940713
 30
0.0
 10
342.880132
 20
-198.316610
 30
0.0
 10
343.029457
 20
-198.677112
 30
0.0
 10
343.295256
 20
-198.942911
 30
0.0
  0
SPLINE
  5
111
100
AcDbEntity
  8
0
 62
7
100
AcDbSpline
 70
8
 71
3
 72
8
 73
4
 74
0
 40
0
 40
0
 40
0
 40
0
 40
1
 40
1
 40
1
 40
1
 10
343.295256
 20
-198.942911
 30
0.0
 10
343.561056
 20
-199.208711
 30
0.0
 10
343.921557
 20
-199.358036
 30
0.0
 10
344.297455
 20
-199.358036
 30
0.0
  0
SPLINE
  5
112
100
AcDbEntity
  8
0
 62
7
100
AcDbSpline
 70
8
 71
3
 72
8
 73
4
 74
0
 40
0
 40
0
 40
0
 40
0
 40
1
 40
1
 40
1
 40
1
 10
268.720109
 20
-197.940713
 30
0.0
 10
268.720109
 20
-198.316610
 30
0.0
 10
268.869434
 20
-198.677112
 30
0.0
 10
269.135234
 20
-198.942911
 30
0.0
  0
SPLINE
  5
113
100
AcDbEntity
  8
0
 62
7
100
AcDbSpline
 70
8
 71
3
 72
8
 73
4
 74
0
 40
0
 40
0
 40
0
 40
0
 40
1
 40
1
 40
1
 40
1
 10
269.135234
 20
-198.942911
 30
0.0
 10
269.401033
 20
-199.208711
 30
0.0
 10
269.761535
 20
-199.358036
 30
0.0
 10
270.137432
 20
-199.358036
 30
0.0
  0
SPLINE
  5
114
100
AcDbEntity
  8
0
 62
7
100
AcDbSpline
 70
8
 71
3
 72
8
 73
4
 74
0
 40
0
 40
0
 40
0
 40
0
 40
1
 40
1
 40
1
 40
1
 10
233.981175
 20
-199.359113
 30
0.0
 10
234.357073
 20
-199.359113
 30
0.0
 10
234.717574
 20
-199.209788
 30
0.0
 10
234.983374
 20
-198.943988
 30
0.0
  0
SPLINE
  5
115
100
AcDbEntity
  8
0
 62
7
100
AcDbSpline
 70
8
 71
3
 72
8
 73
4
 74
0
 40
0
 40
0
 40
0
 40
0
 40
1
 40
1
 40
1
 40
1
 10
234.983374
 20
-198.943988
 30
0.0
 10
235.249173
 20
-198.678189
 30
0.0
 10
235.398498
 20
-198.317687
 30
0.0
 10
235.398498
 20
-197.941790
 30
0.0
  0
SPLINE
  5
116
100
AcDbEntity
  8
0
 62
7
100
AcDbSpline
 70
8
 71
3
 72
8
 73
4
 74
0
 40
0
 40
0
 40
0
 40
0
 40
1
 40
1
 40
1
 40
1
 10
0.283465
 20
-253.217908
 30
0.0
 10
0.283465
 20
-255.473292
 30
0.0
 10
1.179413
 20
-257.636302
 30
0.0
 10
2.774210
 20
-259.231099
 30
0.0
  0
SPLINE
  5
117
100
AcDbEntity
  8
0
 62
7
100
AcDbSpline
 70
8
 71
3
 72
8
 73
4
 74
0
 40
0
 40
0
 40
0
 40
0
 40
1
 40
1
 40
1
 40
1
 10
2.774210
 20
-259.231099
 30
0.0
 10
4.369008
 20
-260.825897
 30
0.0
 10
6.532017
 20
-261.721845
 30
0.0
 10
8.787402
 20
-261.721845
 30
0.0
  0
LWPOLYLINE
  5
118
100
AcDbEntity
  8
0
 62
7
100
AcDbPolyline
 90
2
 70
0
 10
0.283465
 20
-253.217908
 30
0.0
 10
0.283465
 20
-8.786412
 30
0.0
  0
SPLINE
  5
119
100
AcDbEntity
  8
0
 62
7
100
AcDbSpline
 70
8
 71
3
 72
8
 73
4
 74
0
 40
0
 40
0
 40
0
 40
0
 40
1
 40
1
 40
1
 40
1
 10
751.818898
 20
-261.721845
 30
0.0
 10
754.074282
 20
-261.721845
 30
0.0
 10
756.237292
 20
-260.825897
 30
0.0
 10
757.832089
 20
-259.231099
 30
0.0
  0
SPLINE
  5
11a
100
AcDbEntity
  8
0
 62
7
100
AcDbSpline
 70
8
 71
3
 72
8
 73
4
 74
0
 40
0
 40
0
 40
0
 40
0
 40
1
 40
1
 40
1
 40
1
 10
757.832089
 20
-259.231099
 30
0.0
 10
759.426887
 20
-257.636302
 30
0.0
 10
760.322835
 20
-255.473292
 30
0.0
 10
760.322835
 20
-253.217908
 30
0.0
  0
LWPOLYLINE
  5
11b
100
AcDbEntity
  8
0
 62
7
100
AcDbPolyline
 90
2
 70
0
 10
751.818898
 20
-261.721845
 30
0.0
 10
8.787402
 20
-261.721845
 30
0.0
  0
SPLINE
  5
11c
100
AcDbEntity
  8
0
 62
7
100
AcDbSpline
 70
8
 71
3
 72
8
 73
4
 74
0
 40
0
 40
0
 40
0
 40
0
 40
1
 40
1
 40
1
 40
1
 10
760.322835
 20
-8.786412
 30
0.0
 10
760.322835
 20
-6.531027
 30
0.0
 10
759.426887
 20
-4.368018
 30
0.0
 10
757.832089
 20
-2.773220
 30
0.0
  0
SPLINE
  5
11d
100
AcDbEntity
  8
0
 62
7
100
AcDbSpline
 70
8
 71
3
 72
8
 73
4
 74
0
 40
0
 40
0
 40
0
 40
0
 40
1
 40
1
 40
1
 40
1
 10
757.832089
 20
-2.773220
 30
0.0
 10
756.237292
 20
-1.178423
 30
0.0
 10
754.074282
 20
-0.282475
 30
0.0
 10
751.818898
 20
-0.282475
 30
0.0
  0
LWPOLYLINE
  5
11e
100
AcDbEntity
  8
0
 62
7
100
AcDbPolyline
 90
2
 70
0
 10
760.322835
 20
-8.786412
 30
0.0
 10
760.322835
 20
-253.217908
 30
0.0
  0
SPLINE
  5
11f
100
AcDbEntity
  8
0
 62
7
100
AcDbSpline
 70
8
 71
3
 72
8
 73
4
 74
0
 40
0
 40
0
 40
0
 40
0
 40
1
 40
1
 40
1
 40
1
 10
8.787402
 20
-0.282475
 30
0.0
 10
6.532017
 20
-0.282475
 30
0.0
 10
4.369008
 20
-1.178423
 30
0.0
 10
2.774210
 20
-2.773220
 30
0.0
  0
SPLINE
  5
120
100
AcDbEntity
  8
0
 62
7
100
AcDbSpline
 70
8
 71
3
 72
8
 73
4
 74
0
 40
0
 40
0
 40
0
 40
0
 40
1
 40
1
 40
1
 40
1
 10
2.774210
 20
-2.773220
 30
0.0
 10
1.179413
 20
-4.368018
 30
0.0
 10
0.283465
 20
-6.531027
 30
0.0
 10
0.283465
 20
-8.786412
 30
0.0
  0
SPLINE
  5
121
100
AcDbEntity
  8
0
 62
7
100
AcDbSpline
 70
8
 71
3
 72
8
 73
4
 74
0
 40
0
 40
0
 40
0
 40
0
 40
1
 40
1
 40
1
 40
1
 10
8.787402
 20
-250.099797
 30
0.0
 10
7.526244
 20
-250.099797
 30
0.0
 10
6.389268
 20
-250.859501
 30
0.0
 10
5.906643
 20
-252.024659
 30
0.0
  0
SPLINE
  5
122
100
AcDbEntity
  8
0
 62
7
100
AcDbSpline
 70
8
 71
3
 72
8
 73
4
 74
0
 40
0
 40
0
 40
0
 40
0
 40
1
 40
1
 40
1
 40
1
 10
5.906643
 20
-252.024659
 30
0.0
 10
5.424019
 20
-253.189816
 30
0.0
 10
5.690791
 20
-254.530971
 30
0.0
 10
6.582565
 20
-255.422745
 30
0.0
  0
SPLINE
  5
123
100
AcDbEntity
  8
0
 62
7
100
AcDbSpline
 70
8
 71
3
 72
8
 73
4
 74
0
 40
0
 40
0
 40
0
 40
0
 40
1
 40
1
 40
1
 40
1
 10
6.582565
 20
-255.422745
 30
0.0
 10
7.474338
 20
-256.314518
 30
0.0
 10
8.815493
 20
-256.581290
 30
0.0
 10
9.980651
 20
-256.098666
 30
0.0
  0
SPLINE
  5
124
100
AcDbEntity
  8
0
 62
7
100
AcDbSpline
 70
8
 71
3
 72
8
 73
4
 74
0
 40
0
 40
0
 40
0
 40
0
 40
1
 40
1
 40
1
 40
1
 10
9.980651
 20
-256.098666
 30
0.0
 10
11.145809
 20
-255.616042
 30
0.0
 10
11.905512
 20
-254.479066
 30
0.0
 10
11.905512
 20
-253.217908
 30
0.0
  0
SPLINE
  5
125
100
AcDbEntity
  8
0
 62
7
100
AcDbSpline
 70
8
 71
3
 72
8
 73
4
 74
0
 40
0
 40
0
 40
0
 40
0
 40
1
 40
1
 40
1
 40
1
 10
11.905512
 20
-253.217908
 30
0.0
 10
11.905512
 20
-252.390933
 30
0.0
 10
11.576998
 20
-251.597830
 30
0.0
 10
10.992238
 20
-251.013071
 30
0.0
  0
SPLINE
  5
126
100
AcDbEntity
  8
0
 62
7
100
AcDbSpline
 70
8
 71
3
 72
8
 73
4
 74
0
 40
0
 40
0
 40
0
 40
0
 40
1
 40
1
 40
1
 40
1
 10
10.992238
 20
-251.013071
 30
0.0
 10
10.407479
 20
-250.428312
 30
0.0
 10
9.614376
 20
-250.099797
 30
0.0
 10
8.787402
 20
-250.099797
 30
0.0
  0
LWPOLYLINE
  5
127
100
AcDbEntity
  8
0
 62
7
100
AcDbPolyline
 90
2
 70
0
 10
8.787402
 20
-0.282475
 30
0.0
 10
751.818898
 20
-0.282475
 30
0.0
  0
SPLINE
  5
128
100
AcDbEntity
  8
0
 62
7
100
AcDbSpline
 70
8
 71
3
 72
8
 73
4
 74
0
 40
0
 40
0
 40
0
 40
0
 40
1
 40
1
 40
1
 40
1
 10
504.141732
 20
-5.668301
 30
0.0
 10
502.880574
 20
-5.668301
 30
0.0
 10
501.743598
 20
-6.428005
 30
0.0
 10
501.260974
 20
-7.593162
 30
0.0
  0
SPLINE
  5
129
100
AcDbEntity
  8
0
 62
7
100
AcDbSpline
 70
8
 71
3
 72
8
 73
4
 74
0
 40
0
 40
0
 40
0
 40
0
 40
1
 40
1
 40
1
 40
1
 10
501.260974
 20
-7.593162
 30
0.0
 10
500.778350
 20
-8.758320
 30
0.0
 10
501.045122
 20
-10.099475
 30
0.0
 10
501.936895
 20
-10.991248
 30
0.0
  0
SPLINE
  5
12a
100
AcDbEntity
  8
0
 62
7
100
AcDbSpline
 70
8
 71
3
 72
8
 73
4
 74
0
 40
0
 40
0
 40
0
 40
0
 40
1
 40
1
 40
1
 40
1
 10
501.936895
 20
-10.991248
 30
0.0
 10
502.828669
 20
-11.883022
 30
0.0
 10
504.169823
 20
-12.149794
 30
0.0
 10
505.334981
 20
-11.667170
 30
0.0
  0
SPLINE
  5
12b
100
AcDbEntity
  8
0
 62
7
100
AcDbSpline
 70
8
 71
3
 72
8
 73
4
 74
0
 40
0
 40
0
 40
0
 40
0
 40
1
 40
1
 40
1
 40
1
 10
505.334981
 20
-11.667170
 30
0.0
 10
506.500139
 20
-11.184546
 30
0.0
 10
507.259843
 20
-10.047569
 30
0.0
 10
507.259843
 20
-8.786412
 30
0.0
  0
SPLINE
  5
12c
100
AcDbEntity
  8
0
 62
7
100
AcDbSpline
 70
8
 71
3
 72
8
 73
4
 74
0
 40
0
 40
0
 40
0
 40
0
 40
1
 40
1
 40
1
 40
1
 10
507.259843
 20
-8.786412
 30
0.0
 10
507.259843
 20
-7.064327
 30
0.0
 10
505.863817
 20
-5.668301
 30
0.0
 10
504.141732
 20
-5.668301
 30
0.0
  0
LWPOLYLINE
  5
12d
100
AcDbEntity
  8
0
 62
7
100
AcDbPolyline
 90
1
 70
1
 10
8.787402
 20
-250.099797
 30
0.0
  0
SPLINE
  5
12e
100
AcDbEntity
  8
0
 62
7
100
AcDbSpline
 70
8
 71
3
 72
8
 73
4
 74
0
 40
0
 40
0
 40
0
 40
0
 40
1
 40
1
 40
1
 40
1
 10
256.464567
 20
-5.668301
 30
0.0
 10
255.203409
 20
-5.668301
 30
0.0
 10
254.066433
 20
-6.428005
 30
0.0
 10
253.583809
 20
-7.593162
 30
0.0
  0
SPLINE
  5
12f
100
AcDbEntity
  8
0
 62
7
100
AcDbSpline
 70
8
 71
3
 72
8
 73
4
 74
0
 40
0
 40
0
 40
0
 40
0
 40
1
 40
1
 40
1
 40
1
 10
253.583809
 20
-7.593162
 30
0.0
 10
253.101184
 20
-8.758320
 30
0.0
 10
253.367957
 20
-10.099475
 30
0.0
 10
254.259730
 20
-10.991248
 30
0.0
  0
SPLINE
  5
130
100
AcDbEntity
  8
0
 62
7
100
AcDbSpline
 70
8
 71
3
 72
8
 73
4
 74
0
 40
0
 40
0
 40
0
 40
0
 40
1
 40
1
 40
1
 40
1
 10
254.259730
 20
-10.991248
 30
0.0
 10
255.151503
 20
-11.883022
 30
0.0
 10
256.492658
 20
-12.149794
 30
0.0
 10
257.657816
 20
-11.667170
 30
0.0
  0
SPLINE
  5
131
100
AcDbEntity
  8
0
 62
7
100
AcDbSpline
 70
8
 71
3
 72
8
 73
4
 74
0
 40
0
 40
0
 40
0
 40
0
 40
1
 40
1
 40
1
 40
1
 10
257.657816
 20
-11.667170
 30
0.0
 10
258.822974
 20
-11.184546
 30
0.0
 10
259.582677
 20
-10.047569
 30
0.0
 10
259.582677
 20
-8.786412
 30
0.0
  0
SPLINE
  5
132
100
AcDbEntity
  8
0
 62
7
100
AcDbSpline
 70
8
 71
3
 72
8
 73
4
 74
0
 40
0
 40
0
 40
0
 40
0
 40
1
 40
1
 40
1
 40
1
 10
259.582677
 20
-8.786412
 30
0.0
 10
259.582677
 20
-7.959437
 30
0.0
 10
259.254163
 20
-7.166334
 30
0.0
 10
258.669404
 20
-6.581575
 30
0.0
  0
SPLINE
  5
133
100
AcDbEntity
  8
0
 62
7
100
AcDbSpline
 70
8
 71
3
 72
8
 73
4
 74
0
 40
0
 40
0
 40
0
 40
0
 40
1
 40
1
 40
1
 40
1
 10
258.669404
 20
-6.581575
 30
0.0
 10
258.084645
 20
-5.996816
 30
0.0
 10
257.291541
 20
-5.668301
 30
0.0
 10
256.464567
 20
-5.668301
 30
0.0
  0
LWPOLYLINE
  5
134
100
AcDbEntity
  8
0
 62
7
100
AcDbPolyline
 90
1
 70
1
 10
504.141732
 20
-5.668301
 30
0.0
  0
SPLINE
  5
135
100
AcDbEntity
  8
0
 62
7
100
AcDbSpline
 70
8
 71
3
 72
8
 73
4
 74
0
 40
0
 40
0
 40
0
 40
0
 40
1
 40
1
 40
1
 40
1
 10
504.141732
 20
-250.099797
 30
0.0
 10
502.880574
 20
-250.099797
 30
0.0
 10
501.743598
 20
-250.859501
 30
0.0
 10
501.260974
 20
-252.024659
 30
0.0
  0
SPLINE
  5
136
100
AcDbEntity
  8
0
 62
7
100
AcDbSpline
 70
8
 71
3
 72
8
 73
4
 74
0
 40
0
 40
0
 40
0
 40
0
 40
1
 40
1
 40
1
 40
1
 10
501.260974
 20
-252.024659
 30
0.0
 10
500.778350
 20
-253.189816
 30
0.0
 10
501.045122
 20
-254.530971
 30
0.0
 10
501.936895
 20
-255.422745
 30
0.0
  0
SPLINE
  5
137
100
AcDbEntity
  8
0
 62
7
100
AcDbSpline
 70
8
 71
3
 72
8
 73
4
 74
0
 40
0
 40
0
 40
0
 40
0
 40
1
 40
1
 40
1
 40
1
 10
501.936895
 20
-255.422745
 30
0.0
 10
502.828669
 20
-256.314518
 30
0.0
 10
504.169823
 20
-256.581290
 30
0.0
 10
505.334981
 20
-256.098666
 30
0.0
  0
SPLINE
  5
138
100
AcDbEntity
  8
0
 62
7
100
AcDbSpline
 70
8
 71
3
 72
8
 73
4
 74
0
 40
0
 40
0
 40
0
 40
0
 40
1
 40
1
 40
1
 40
1
 10
505.334981
 20
-256.098666
 30
0.0
 10
506.500139
 20
-255.616042
 30
0.0
 10
507.259843
 20
-254.479066
 30
0.0
 10
507.259843
 20
-253.217908
 30
0.0
  0
SPLINE
  5
139
100
AcDbEntity
  8
0
 62
7
100
AcDbSpline
 70
8
 71
3
 72
8
 73
4
 74
0
 40
0
 40
0
 40
0
 40
0
 40
1
 40
1
 40
1
 40
1
 10
507.259843
 20
-253.217908
 30
0.0
 10
507.259843
 20
-252.390933
 30
0.0
 10
506.931328
 20
-251.597830
 30
0.0
 10
506.346569
 20
-251.013071
 30
0.0
  0
SPLINE
  5
13a
100
AcDbEntity
  8
0
 62
7
100
AcDbSpline
 70
8
 71
3
 72
8
 73
4
 74
0
 40
0
 40
0
 40
0
 40
0
 40
1
 40
1
 40
1
 40
1
 10
506.346569
 20
-251.013071
 30
0.0
 10
505.761810
 20
-250.428312
 30
0.0
 10
504.968707
 20
-250.099797
 30
0.0
 10
504.141732
 20
-250.099797
 30
0.0
  0
LWPOLYLINE
  5
13b
100
AcDbEntity
  8
0
 62
7
100
AcDbPolyline
 90
1
 70
1
 10
256.464567
 20
-5.668301
 30
0.0
  0
SPLINE
  5
13c
100
AcDbEntity
  8
0
 62
7
100
AcDbSpline
 70
8
 71
3
 72
8
 73
4
 74
0
 40
0
 40
0
 40
0
 40
0
 40
1
 40
1
 40
1
 40
1
 10
256.464567
 20
-250.099797
 30
0.0
 10
255.203409
 20
-250.099797
 30
0.0
 10
254.066433
 20
-250.859501
 30
0.0
 10
253.583809
 20
-252.024659
 30
0.0
  0
SPLINE
  5
13d
100
AcDbEntity
  8
0
 62
7
100
AcDbSpline
 70
8
 71
3
 72
8
 73
4
 74
0
 40
0
 40
0
 40
0
 40
0
 40
1
 40
1
 40
1
 40
1
 10
253.583809
 20
-252.024659
 30
0.0
 10
253.101184
 20
-253.189816
 30
0.0
 10
253.367957
 20
-254.530971
 30
0.0
 10
254.259730
 20
-255.422745
 30
0.0
  0
SPLINE
  5
13e
100
AcDbEntity
  8
0
 62
7
100
AcDbSpline
 70
8
 71
3
 72
8
 73
4
 74
0
 40
0
 40
0
 40
0
 40
0
 40
1
 40
1
 40
1
 40
1
 10
254.259730
 20
-255.422745
 30
0.0
 10
255.151503
 20
-256.314518
 30
0.0
 10
256.492658
 20
-256.581290
 30
0.0
 10
257.657816
 20
-256.098666
 30
0.0
  0
SPLINE
  5
13f
100
AcDbEntity
  8
0
 62
7
100
AcDbSpline
 70
8
 71
3
 72
8
 73
4
 74
0
 40
0
 40
0
 40
0
 40
0
 40
1
 40
1
 40
1
 40
1
 10
257.657816
 20
-256.098666
 30
0.0
 10
258.822974
 20
-255.616042
 30
0.0
 10
259.582677
 20
-254.479066
 30
0.0
 10
259.582677
 20
-253.217908
 30
0.0
  0
SPLINE
  5
140
100
AcDbEntity
  8
0
 62
7
100
AcDbSpline
 70
8
 71
3
 72
8
 73
4
 74
0
 40
0
 40
0
 40
0
 40
0
 40
1
 40
1
 40
1
 40
1
 10
259.582677
 20
-253.217908
 30
0.0
 10
259.582677
 20
-252.390933
 30
0.0
 10
259.254163
 20
-251.597830
 30
0.0
 10
258.669404
 20
-251.013071
 30
0.0
  0
SPLINE
  5
141
100
AcDbEntity
  8
0
 62
7
100
AcDbSpline
 70
8
 71
3
 72
8
 73
4
 74
0
 40
0
 40
0
 40
0
 40
0
 40
1
 40
1
 40
1
 40
1
 10
258.669404
 20
-251.013071
 30
0.0
 10
258.084645
 20
-250.428312
 30
0.0
 10
257.291541
 20
-250.099797
 30
0.0
 10
256.464567
 20
-250.099797
 30
0.0
  0
LWPOLYLINE
  5
142
100
AcDbEntity
  8
0
 62
7
100
AcDbPolyline
 90
1
 70
1
 10
504.141732
 20
-250.099797
 30
0.0
  0
SPLINE
  5
143
100
AcDbEntity
  8
0
 62
7
100
AcDbSpline
 70
8
 71
3
 72
8
 73
4
 74
0
 40
0
 40
0
 40
0
 40
0
 40
1
 40
1
 40
1
 40
1
 10
751.818898
 20
-250.099797
 30
0.0
 10
750.557740
 20
-250.099797
 30
0.0
 10
749.420764
 20
-250.859501
 30
0.0
 10
748.938139
 20
-252.024659
 30
0.0
  0
SPLINE
  5
144
100
AcDbEntity
  8
0
 62
7
100
AcDbSpline
 70
8
 71
3
 72
8
 73
4
 74
0
 40
0
 40
0
 40
0
 40
0
 40
1
 40
1
 40
1
 40
1
 10
748.938139
 20
-252.024659
 30
0.0
 10
748.455515
 20
-253.189816
 30
0.0
 10
748.722287
 20
-254.530971
 30
0.0
 10
749.614061
 20
-255.422745
 30
0.0
  0
SPLINE
  5
145
100
AcDbEntity
  8
0
 62
7
100
AcDbSpline
 70
8
 71
3
 72
8
 73
4
 74
0
 40
0
 40
0
 40
0
 40
0
 40
1
 40
1
 40
1
 40
1
 10
749.614061
 20
-255.422745
 30
0.0
 10
750.505834
 20
-256.314518
 30
0.0
 10
751.846989
 20
-256.581290
 30
0.0
 10
753.012147
 20
-256.098666
 30
0.0
  0
SPLINE
  5
146
100
AcDbEntity
  8
0
 62
7
100
AcDbSpline
 70
8
 71
3
 72
8
 73
4
 74
0
 40
0
 40
0
 40
0
 40
0
 40
1
 40
1
 40
1
 40
1
 10
753.012147
 20
-256.098666
 30
0.0
 10
754.177305
 20
-255.616042
 30
0.0
 10
754.937008
 20
-254.479066
 30
0.0
 10
754.937008
 20
-253.217908
 30
0.0
  0
SPLINE
  5
147
100
AcDbEntity
  8
0
 62
7
100
AcDbSpline
 70
8
 71
3
 72
8
 73
4
 74
0
 40
0
 40
0
 40
0
 40
0
 40
1
 40
1
 40
1
 40
1
 10
754.937008
 20
-253.217908
 30
0.0
 10
754.937008
 20
-251.495823
 30
0.0
 10
753.540982
 20
-250.099797
 30
0.0
 10
751.818898
 20
-250.099797
 30
0.0
  0
LWPOLYLINE
  5
148
100
AcDbEntity
  8
0
 62
7
100
AcDbPolyline
 90
1
 70
1
 10
256.464567
 20
-250.099797
 30
0.0
  0
SPLINE
  5
149
100
AcDbEntity
  8
0
 62
7
100
AcDbSpline
 70
8
 71
3
 72
8
 73
4
 74
0
 40
0
 40
0
 40
0
 40
0
 40
1
 40
1
 40
1
 40
1
 10
751.818898
 20
-5.668301
 30
0.0
 10
750.557740
 20
-5.668301
 30
0.0
 10
749.420764
 20
-6.428005
 30
0.0
 10
748.938139
 20
-7.593162
 30
0.0
  0
SPLINE
  5
14a
100
AcDbEntity
  8
0
 62
7
100
AcDbSpline
 70
8
 71
3
 72
8
 73
4
 74
0
 40
0
 40
0
 40
0
 40
0
 40
1
 40
1
 40
1
 40
1
 10
748.938139
 20
-7.593162
 30
0.0
 10
748.455515
 20
-8.758320
 30
0.0
 10
748.722287
 20
-10.099475
 30
0.0
 10
749.614061
 20
-10.991248
 30
0.0
  0
SPLINE
  5
14b
100
AcDbEntity
  8
0
 62
7
100
AcDbSpline
 70
8
 71
3
 72
8
 73
4
 74
0
 40
0
 40
0
 40
0
 40
0
 40
1
 40
1
 40
1
 40
1
 10
749.614061
 20
-10.991248
 30
0.0
 10
750.505834
 20
-11.883022
 30
0.0
 10
751.846989
 20
-12.149794
 30
0.0
 10
753.012147
 20
-11.667170
 30
0.0
  0
SPLINE
  5
14c
100
AcDbEntity
  8
0
 62
7
100
AcDbSpline
 70
8
 71
3
 72
8
 73
4
 74
0
 40
0
 40
0
 40
0
 40
0
 40
1
 40
1
 40
1
 40
1
 10
753.012147
 20
-11.667170
 30
0.0
 10
754.177305
 20
-11.184546
 30
0.0
 10
754.937008
 20
-10.047569
 30
0.0
 10
754.937008
 20
-8.786412
 30
0.0
  0
SPLINE
  5
14d
100
AcDbEntity
  8
0
 62
7
100
AcDbSpline
 70
8
 71
3
 72
8
 73
4
 74
0
 40
0
 40
0
 40
0
 40
0
 40
1
 40
1
 40
1
 40
1
 10
754.937008
 20
-8.786412
 30
0.0
 10
754.937008
 20
-7.064327
 30
0.0
 10
753.540982
 20
-5.668301
 30
0.0
 10
751.818898
 20
-5.668301
 30
0.0
  0
LWPOLYLINE
  5
14e
100
AcDbEntity
  8
0
 62
7
100
AcDbPolyline
 90
1
 70
1
 10
751.818898
 20
-250.099797
 30
0.0
  0
SPLINE
  5
14f
100
AcDbEntity
  8
0
 62
7
100
AcDbSpline
 70
8
 71
3
 72
8
 73
4
 74
0
 40
0
 40
0
 40
0
 40
0
 40
1
 40
1
 40
1
 40
1
 10
8.787402
 20
-5.668301
 30
0.0
 10
7.526244
 20
-5.668301
 30
0.0
 10
6.389268
 20
-6.428005
 30
0.0
 10
5.906643
 20
-7.593162
 30
0.0
  0
SPLINE
  5
150
100
AcDbEntity
  8
0
 62
7
100
AcDbSpline
 70
8
 71
3
 72
8
 73
4
 74
0
 40
0
 40
0
 40
0
 40
0
 40
1
 40
1
 40
1
 40
1
 10
5.906643
 20
-7.593162
 30
0.0
 10
5.424019
 20
-8.758320
 30
0.0
 10
5.690791
 20
-10.099475
 30
0.0
 10
6.582565
 20
-10.991248
 30
0.0
  0
SPLINE
  5
151
100
AcDbEntity
  8
0
 62
7
100
AcDbSpline
 70
8
 71
3
 72
8
 73
4
 74
0
 40
0
 40
0
 40
0
 40
0
 40
1
 40
1
 40
1
 40
1
 10
6.582565
 20
-10.991248
 30
0.0
 10
7.474338
 20
-11.883022
 30
0.0
 10
8.815493
 20
-12.149794
 30
0.0
 10
9.980651
 20
-11.667170
 30
0.0
  0
SPLINE
  5
152
100
AcDbEntity
  8
0
 62
7
100
AcDbSpline
 70
8
 71
3
 72
8
 73
4
 74
0
 40
0
 40
0
 40
0
 40
0
 40
1
 40
1
 40
1
 40
1
 10
9.980651
 20
-11.667170
 30
0.0
 10
11.145809
 20
-11.184546
 30
0.0
 10
11.905512
 20
-10.047569
 30
0.0
 10
11.905512
 20
-8.786412
 30
0.0
  0
SPLINE
  5
153
100
AcDbEntity
  8
0
 62
7
100
AcDbSpline
 70
8
 71
3
 72
8
 73
4
 74
0
 40
0
 40
0
 40
0
 40
0
 40
1
 40
1
 40
1
 40
1
 10
11.905512
 20
-8.786412
 30
0.0
 10
11.905512
 20
-7.959437
 30
0.0
 10
11.576998
 20
-7.166334
 30
0.0
 10
10.992238
 20
-6.581575
 30
0.0
  0
SPLINE
  5
154
100
AcDbEntity
  8
0
 62
7
100
AcDbSpline
 70
8
 71
3
 72
8
 73
4
 74
0
 40
0
 40
0
 40
0
 40
0
 40
1
 40
1
 40
1
 40
1
 10
10.992238
 20
-6.581575
 30
0.0
 10
10.407479
 20
-5.996816
 30
0.0
 10
9.614376
 20
-5.668301
 30
0.0
 10
8.787402
 20
-5.668301
 30
0.0
  0
LWPOLYLINE
  5
155
100
AcDbEntity
  8
0
 62
7
100
AcDbPolyline
 90
1
 70
1
 10
751.818898
 20
-5.668301
 30
0.0
  0
LWPOLYLINE
  5
156
100
AcDbEntity
  8
0
 62
7
100
AcDbPolyline
 90
1
 70
1
 10
8.787402
 20
-5.668301
 30
0.0
  0
LWPOLYLINE
  5
157
100
AcDbEntity
  8
0
 62
7
100
AcDbPolyline
 90
2
 70
0
 10
682.705837
 20
-238.959127
 30
0.0
 10
683.080237
 20
-238.757527
 30
0.0
  0
LWPOLYLINE
  5
158
100
AcDbEntity
  8
0
 62
7
100
AcDbPolyline
 90
2
 70
0
 10
682.223437
 20
-239.038327
 30
0.0
 10
682.705837
 20
-238.959127
 30
0.0
  0
LWPOLYLINE
  5
159
100
AcDbEntity
  8
0
 62
7
100
AcDbPolyline
 90
2
 70
0
 10
317.708923
 20
-239.038327
 30
0.0
 10
682.223437
 20
-239.038327
 30
0.0
  0
LWPOLYLINE
  5
15a
100
AcDbEntity
  8
0
 62
7
100
AcDbPolyline
 90
2
 70
0
 10
317.449723
 20
-239.016727
 30
0.0
 10
317.708923
 20
-239.038327
 30
0.0
  0
LWPOLYLINE
  5
15b
100
AcDbEntity
  8
0
 62
7
100
AcDbPolyline
 90
2
 70
0
 10
317.032123
 20
-238.872727
 30
0.0
 10
317.449723
 20
-239.016727
 30
0.0
  0
LWPOLYLINE
  5
15c
100
AcDbEntity
  8
0
 62
7
100
AcDbPolyline
 90
2
 70
0
 10
316.700923
 20
-238.627927
 30
0.0
 10
317.032123
 20
-238.872727
 30
0.0
  0
LWPOLYLINE
  5
15d
100
AcDbEntity
  8
0
 62
7
100
AcDbPolyline
 90
2
 70
0
 10
316.578523
 20
-238.483927
 30
0.0
 10
316.700923
 20
-238.627927
 30
0.0
  0
LWPOLYLINE
  5
15e
100
AcDbEntity
  8
0
 62
7
100
AcDbPolyline
 90
2
 70
0
 10
316.376923
 20
-238.116727
 30
0.0
 10
316.578523
 20
-238.483927
 30
0.0
  0
LWPOLYLINE
  5
15f
100
AcDbEntity
  8
0
 62
7
100
AcDbPolyline
 90
2
 70
0
 10
316.290523
 20
-237.627127
 30
0.0
 10
316.376923
 20
-238.116727
 30
0.0
  0
LWPOLYLINE
  5
160
100
AcDbEntity
  8
0
 62
7
100
AcDbPolyline
 90
2
 70
0
 10
316.290523
 20
-197.940713
 30
0.0
 10
316.290523
 20
-237.627127
 30
0.0
  0
LWPOLYLINE
  5
161
100
AcDbEntity
  8
0
 62
7
100
AcDbPolyline
 90
2
 70
0
 10
316.312123
 20
-197.681513
 30
0.0
 10
316.290523
 20
-197.940713
 30
0.0
  0
LWPOLYLINE
  5
162
100
AcDbEntity
  8
0
 62
7
100
AcDbPolyline
 90
2
 70
0
 10
316.456123
 20
-197.263913
 30
0.0
 10
316.312123
 20
-197.681513
 30
0.0
  0
LWPOLYLINE
  5
163
100
AcDbEntity
  8
0
 62
7
100
AcDbPolyline
 90
2
 70
0
 10
316.700923
 20
-196.939913
 30
0.0
 10
316.456123
 20
-197.263913
 30
0.0
  0
LWPOLYLINE
  5
164
100
AcDbEntity
  8
0
 62
7
100
AcDbPolyline
 90
2
 70
0
 10
316.852123
 20
-196.803113
 30
0.0
 10
316.700923
 20
-196.939913
 30
0.0
  0
LWPOLYLINE
  5
165
100
AcDbEntity
  8
0
 62
7
100
AcDbPolyline
 90
2
 70
0
 10
317.219323
 20
-196.608713
 30
0.0
 10
316.852123
 20
-196.803113
 30
0.0
  0
LWPOLYLINE
  5
166
100
AcDbEntity
  8
0
 62
7
100
AcDbPolyline
 90
2
 70
0
 10
317.708923
 20
-196.522313
 30
0.0
 10
317.219323
 20
-196.608713
 30
0.0
  0
LWPOLYLINE
  5
167
100
AcDbEntity
  8
0
 62
7
100
AcDbPolyline
 90
2
 70
0
 10
341.461732
 20
-196.522313
 30
0.0
 10
317.708923
 20
-196.522313
 30
0.0
  0
LWPOLYLINE
  5
168
100
AcDbEntity
  8
0
 62
7
100
AcDbPolyline
 90
2
 70
0
 10
341.713732
 20
-196.543913
 30
0.0
 10
341.461732
 20
-196.522313
 30
0.0
  0
LWPOLYLINE
  5
169
100
AcDbEntity
  8
0
 62
7
100
AcDbPolyline
 90
2
 70
0
 10
342.138532
 20
-196.687913
 30
0.0
 10
341.713732
 20
-196.543913
 30
0.0
  0
LWPOLYLINE
  5
16a
100
AcDbEntity
  8
0
 62
7
100
AcDbPolyline
 90
2
 70
0
 10
342.462532
 20
-196.939913
 30
0.0
 10
342.138532
 20
-196.687913
 30
0.0
  0
LWPOLYLINE
  5
16b
100
AcDbEntity
  8
0
 62
7
100
AcDbPolyline
 90
2
 70
0
 10
342.592132
 20
-197.083913
 30
0.0
 10
342.462532
 20
-196.939913
 30
0.0
  0
LWPOLYLINE
  5
16c
100
AcDbEntity
  8
0
 62
7
100
AcDbPolyline
 90
2
 70
0
 10
342.793732
 20
-197.451113
 30
0.0
 10
342.592132
 20
-197.083913
 30
0.0
  0
LWPOLYLINE
  5
16d
100
AcDbEntity
  8
0
 62
7
100
AcDbPolyline
 90
2
 70
0
 10
342.880132
 20
-197.940713
 30
0.0
 10
342.793732
 20
-197.451113
 30
0.0
  0
LWPOLYLINE
  5
16e
100
AcDbEntity
  8
0
 62
7
100
AcDbPolyline
 90
2
 70
0
 10
375.619620
 20
-199.359113
 30
0.0
 10
344.297455
 20
-199.359113
 30
0.0
  0
LWPOLYLINE
  5
16f
100
AcDbEntity
  8
0
 62
7
100
AcDbPolyline
 90
2
 70
0
 10
377.058543
 20
-197.681513
 30
0.0
 10
377.036943
 20
-197.940713
 30
0.0
  0
LWPOLYLINE
  5
170
100
AcDbEntity
  8
0
 62
7
100
AcDbPolyline
 90
2
 70
0
 10
377.209743
 20
-197.263913
 30
0.0
 10
377.058543
 20
-197.681513
 30
0.0
  0
LWPOLYLINE
  5
171
100
AcDbEntity
  8
0
 62
7
100
AcDbPolyline
 90
2
 70
0
 10
377.454543
 20
-196.939913
 30
0.0
 10
377.209743
 20
-197.263913
 30
0.0
  0
LWPOLYLINE
  5
172
100
AcDbEntity
  8
0
 62
7
100
AcDbPolyline
 90
2
 70
0
 10
377.605743
 20
-196.803113
 30
0.0
 10
377.454543
 20
-196.939913
 30
0.0
  0
LWPOLYLINE
  5
173
100
AcDbEntity
  8
0
 62
7
100
AcDbPolyline
 90
2
 70
0
 10
377.972943
 20
-196.608713
 30
0.0
 10
377.605743
 20
-196.803113
 30
0.0
  0
LWPOLYLINE
  5
174
100
AcDbEntity
  8
0
 62
7
100
AcDbPolyline
 90
2
 70
0
 10
378.455343
 20
-196.522313
 30
0.0
 10
377.972943
 20
-196.608713
 30
0.0
  0
LWPOLYLINE
  5
175
100
AcDbEntity
  8
0
 62
7
100
AcDbPolyline
 90
2
 70
0
 10
409.141752
 20
-196.522313
 30
0.0
 10
378.455343
 20
-196.522313
 30
0.0
  0
LWPOLYLINE
  5
176
100
AcDbEntity
  8
0
 62
7
100
AcDbPolyline
 90
2
 70
0
 10
409.393752
 20
-196.543913
 30
0.0
 10
409.141752
 20
-196.522313
 30
0.0
  0
LWPOLYLINE
  5
177
100
AcDbEntity
  8
0
 62
7
100
AcDbPolyline
 90
2
 70
0
 10
409.818552
 20
-196.687913
 30
0.0
 10
409.393752
 20
-196.543913
 30
0.0
  0
LWPOLYLINE
  5
178
100
AcDbEntity
  8
0
 62
7
100
AcDbPolyline
 90
2
 70
0
 10
410.142552
 20
-196.939913
 30
0.0
 10
409.818552
 20
-196.687913
 30
0.0
  0
LWPOLYLINE
  5
179
100
AcDbEntity
  8
0
 62
7
100
AcDbPolyline
 90
2
 70
0
 10
410.272152
 20
-197.083913
 30
0.0
 10
410.142552
 20
-196.939913
 30
0.0
  0
LWPOLYLINE
  5
17a
100
AcDbEntity
  8
0
 62
7
100
AcDbPolyline
 90
2
 70
0
 10
410.473752
 20
-197.451113
 30
0.0
 10
410.272152
 20
-197.083913
 30
0.0
  0
LWPOLYLINE
  5
17b
100
AcDbEntity
  8
0
 62
7
100
AcDbPolyline
 90
2
 70
0
 10
410.560152
 20
-197.940713
 30
0.0
 10
410.473752
 20
-197.451113
 30
0.0
  0
LWPOLYLINE
  5
17c
100
AcDbEntity
  8
0
 62
7
100
AcDbPolyline
 90
2
 70
0
 10
429.619635
 20
-199.359113
 30
0.0
 10
411.977475
 20
-199.359113
 30
0.0
  0
LWPOLYLINE
  5
17d
100
AcDbEntity
  8
0
 62
7
100
AcDbPolyline
 90
2
 70
0
 10
431.058557
 20
-197.681513
 30
0.0
 10
431.036957
 20
-197.940713
 30
0.0
  0
LWPOLYLINE
  5
17e
100
AcDbEntity
  8
0
 62
7
100
AcDbPolyline
 90
2
 70
0
 10
431.209757
 20
-197.263913
 30
0.0
 10
431.058557
 20
-197.681513
 30
0.0
  0
LWPOLYLINE
  5
17f
100
AcDbEntity
  8
0
 62
7
100
AcDbPolyline
 90
2
 70
0
 10
431.454557
 20
-196.939913
 30
0.0
 10
431.209757
 20
-197.263913
 30
0.0
  0
LWPOLYLINE
  5
180
100
AcDbEntity
  8
0
 62
7
100
AcDbPolyline
 90
2
 70
0
 10
431.605757
 20
-196.803113
 30
0.0
 10
431.454557
 20
-196.939913
 30
0.0
  0
LWPOLYLINE
  5
181
100
AcDbEntity
  8
0
 62
7
100
AcDbPolyline
 90
2
 70
0
 10
431.972960
 20
-196.608713
 30
0.0
 10
431.605757
 20
-196.803113
 30
0.0
  0
LWPOLYLINE
  5
182
100
AcDbEntity
  8
0
 62
7
100
AcDbPolyline
 90
2
 70
0
 10
432.455360
 20
-196.522313
 30
0.0
 10
431.972960
 20
-196.608713
 30
0.0
  0
LWPOLYLINE
  5
183
100
AcDbEntity
  8
0
 62
7
100
AcDbPolyline
 90
2
 70
0
 10
469.715372
 20
-196.522313
 30
0.0
 10
432.455360
 20
-196.522313
 30
0.0
  0
LWPOLYLINE
  5
184
100
AcDbEntity
  8
0
 62
7
100
AcDbPolyline
 90
2
 70
0
 10
469.967372
 20
-196.543913
 30
0.0
 10
469.715372
 20
-196.522313
 30
0.0
  0
LWPOLYLINE
  5
185
100
AcDbEntity
  8
0
 62
7
100
AcDbPolyline
 90
2
 70
0
 10
470.384972
 20
-196.687913
 30
0.0
 10
469.967372
 20
-196.543913
 30
0.0
  0
LWPOLYLINE
  5
186
100
AcDbEntity
  8
0
 62
7
100
AcDbPolyline
 90
2
 70
0
 10
470.716172
 20
-196.939913
 30
0.0
 10
470.384972
 20
-196.687913
 30
0.0
  0
LWPOLYLINE
  5
187
100
AcDbEntity
  8
0
 62
7
100
AcDbPolyline
 90
2
 70
0
 10
470.845772
 20
-197.083913
 30
0.0
 10
470.716172
 20
-196.939913
 30
0.0
  0
LWPOLYLINE
  5
188
100
AcDbEntity
  8
0
 62
7
100
AcDbPolyline
 90
2
 70
0
 10
471.047372
 20
-197.451113
 30
0.0
 10
470.845772
 20
-197.083913
 30
0.0
  0
LWPOLYLINE
  5
189
100
AcDbEntity
  8
0
 62
7
100
AcDbPolyline
 90
2
 70
0
 10
471.133772
 20
-197.940713
 30
0.0
 10
471.047372
 20
-197.451113
 30
0.0
  0
LWPOLYLINE
  5
18a
100
AcDbEntity
  8
0
 62
7
100
AcDbPolyline
 90
2
 70
0
 10
497.299657
 20
-199.359113
 30
0.0
 10
472.551094
 20
-199.359113
 30
0.0
  0
LWPOLYLINE
  5
18b
100
AcDbEntity
  8
0
 62
7
100
AcDbPolyline
 90
2
 70
0
 10
498.738580
 20
-197.681513
 30
0.0
 10
498.716980
 20
-197.940713
 30
0.0
  0
LWPOLYLINE
  5
18c
100
AcDbEntity
  8
0
 62
7
100
AcDbPolyline
 90
2
 70
0
 10
498.889780
 20
-197.263913
 30
0.0
 10
498.738580
 20
-197.681513
 30
0.0
  0
LWPOLYLINE
  5
18d
100
AcDbEntity
  8
0
 62
7
100
AcDbPolyline
 90
2
 70
0
 10
499.134580
 20
-196.939913
 30
0.0
 10
498.889780
 20
-197.263913
 30
0.0
  0
LWPOLYLINE
  5
18e
100
AcDbEntity
  8
0
 62
7
100
AcDbPolyline
 90
2
 70
0
 10
499.285780
 20
-196.803113
 30
0.0
 10
499.134580
 20
-196.939913
 30
0.0
  0
LWPOLYLINE
  5
18f
100
AcDbEntity
  8
0
 62
7
100
AcDbPolyline
 90
2
 70
0
 10
499.652980
 20
-196.608713
 30
0.0
 10
499.285780
 20
-196.803113
 30
0.0
  0
LWPOLYLINE
  5
190
100
AcDbEntity
  8
0
 62
7
100
AcDbPolyline
 90
2
 70
0
 10
500.135380
 20
-196.522313
 30
0.0
 10
499.652980
 20
-196.608713
 30
0.0
  0
LWPOLYLINE
  5
191
100
AcDbEntity
  8
0
 62
7
100
AcDbPolyline
 90
2
 70
0
 10
537.395391
 20
-196.522313
 30
0.0
 10
500.135380
 20
-196.522313
 30
0.0
  0
LWPOLYLINE
  5
192
100
AcDbEntity
  8
0
 62
7
100
AcDbPolyline
 90
2
 70
0
 10
537.647391
 20
-196.543913
 30
0.0
 10
537.395391
 20
-196.522313
 30
0.0
  0
LWPOLYLINE
  5
193
100
AcDbEntity
  8
0
 62
7
100
AcDbPolyline
 90
2
 70
0
 10
538.064991
 20
-196.687913
 30
0.0
 10
537.647391
 20
-196.543913
 30
0.0
  0
LWPOLYLINE
  5
194
100
AcDbEntity
  8
0
 62
7
100
AcDbPolyline
 90
2
 70
0
 10
538.396191
 20
-196.939913
 30
0.0
 10
538.064991
 20
-196.687913
 30
0.0
  0
LWPOLYLINE
  5
195
100
AcDbEntity
  8
0
 62
7
100
AcDbPolyline
 90
2
 70
0
 10
538.525791
 20
-197.083913
 30
0.0
 10
538.396191
 20
-196.939913
 30
0.0
  0
LWPOLYLINE
  5
196
100
AcDbEntity
  8
0
 62
7
100
AcDbPolyline
 90
2
 70
0
 10
538.727391
 20
-197.451113
 30
0.0
 10
538.525791
 20
-197.083913
 30
0.0
  0
LWPOLYLINE
  5
197
100
AcDbEntity
  8
0
 62
7
100
AcDbPolyline
 90
2
 70
0
 10
538.813791
 20
-197.940713
 30
0.0
 10
538.727391
 20
-197.451113
 30
0.0
  0
LWPOLYLINE
  5
198
100
AcDbEntity
  8
0
 62
7
100
AcDbPolyline
 90
2
 70
0
 10
571.459680
 20
-199.359113
 30
0.0
 10
540.231114
 20
-199.359113
 30
0.0
  0
LWPOLYLINE
  5
199
100
AcDbEntity
  8
0
 62
7
100
AcDbPolyline
 90
2
 70
0
 10
572.898603
 20
-197.681513
 30
0.0
 10
572.877003
 20
-197.940713
 30
0.0
  0
LWPOLYLINE
  5
19a
100
AcDbEntity
  8
0
 62
7
100
AcDbPolyline
 90
2
 70
0
 10
573.049803
 20
-197.263913
 30
0.0
 10
572.898603
 20
-197.681513
 30
0.0
  0
LWPOLYLINE
  5
19b
100
AcDbEntity
  8
0
 62
7
100
AcDbPolyline
 90
2
 70
0
 10
573.294603
 20
-196.939913
 30
0.0
 10
573.049803
 20
-197.263913
 30
0.0
  0
LWPOLYLINE
  5
19c
100
AcDbEntity
  8
0
 62
7
100
AcDbPolyline
 90
2
 70
0
 10
573.445803
 20
-196.803113
 30
0.0
 10
573.294603
 20
-196.939913
 30
0.0
  0
LWPOLYLINE
  5
19d
100
AcDbEntity
  8
0
 62
7
100
AcDbPolyline
 90
2
 70
0
 10
573.813003
 20
-196.608713
 30
0.0
 10
573.445803
 20
-196.803113
 30
0.0
  0
LWPOLYLINE
  5
19e
100
AcDbEntity
  8
0
 62
7
100
AcDbPolyline
 90
2
 70
0
 10
574.295403
 20
-196.522313
 30
0.0
 10
573.813003
 20
-196.608713
 30
0.0
  0
LWPOLYLINE
  5
19f
100
AcDbEntity
  8
0
 62
7
100
AcDbPolyline
 90
2
 70
0
 10
591.301809
 20
-196.522313
 30
0.0
 10
574.295403
 20
-196.522313
 30
0.0
  0
LWPOLYLINE
  5
1a0
100
AcDbEntity
  8
0
 62
7
100
AcDbPolyline
 90
2
 70
0
 10
591.553809
 20
-196.543913
 30
0.0
 10
591.301809
 20
-196.522313
 30
0.0
  0
LWPOLYLINE
  5
1a1
100
AcDbEntity
  8
0
 62
7
100
AcDbPolyline
 90
2
 70
0
 10
591.978609
 20
-196.687913
 30
0.0
 10
591.553809
 20
-196.543913
 30
0.0
  0
LWPOLYLINE
  5
1a2
100
AcDbEntity
  8
0
 62
7
100
AcDbPolyline
 90
2
 70
0
 10
592.302609
 20
-196.939913
 30
0.0
 10
591.978609
 20
-196.687913
 30
0.0
  0
LWPOLYLINE
  5
1a3
100
AcDbEntity
  8
0
 62
7
100
AcDbPolyline
 90
2
 70
0
 10
592.432209
 20
-197.083913
 30
0.0
 10
592.302609
 20
-196.939913
 30
0.0
  0
LWPOLYLINE
  5
1a4
100
AcDbEntity
  8
0
 62
7
100
AcDbPolyline
 90
2
 70
0
 10
592.633809
 20
-197.451113
 30
0.0
 10
592.432209
 20
-197.083913
 30
0.0
  0
LWPOLYLINE
  5
1a5
100
AcDbEntity
  8
0
 62
7
100
AcDbPolyline
 90
2
 70
0
 10
592.720209
 20
-197.940713
 30
0.0
 10
592.633809
 20
-197.451113
 30
0.0
  0
LWPOLYLINE
  5
1a6
100
AcDbEntity
  8
0
 62
7
100
AcDbPolyline
 90
2
 70
0
 10
682.223437
 20
-199.359113
 30
0.0
 10
594.137531
 20
-199.359113
 30
0.0
  0
LWPOLYLINE
  5
1a7
100
AcDbEntity
  8
0
 62
7
100
AcDbPolyline
 90
2
 70
0
 10
682.475437
 20
-199.380713
 30
0.0
 10
682.223437
 20
-199.359113
 30
0.0
  0
LWPOLYLINE
  5
1a8
100
AcDbEntity
  8
0
 62
7
100
AcDbPolyline
 90
2
 70
0
 10
682.900237
 20
-199.524713
 30
0.0
 10
682.475437
 20
-199.380713
 30
0.0
  0
LWPOLYLINE
  5
1a9
100
AcDbEntity
  8
0
 62
7
100
AcDbPolyline
 90
2
 70
0
 10
683.224237
 20
-199.769513
 30
0.0
 10
682.900237
 20
-199.524713
 30
0.0
  0
LWPOLYLINE
  5
1aa
100
AcDbEntity
  8
0
 62
7
100
AcDbPolyline
 90
2
 70
0
 10
683.353837
 20
-199.920713
 30
0.0
 10
683.224237
 20
-199.769513
 30
0.0
  0
LWPOLYLINE
  5
1ab
100
AcDbEntity
  8
0
 62
7
100
AcDbPolyline
 90
2
 70
0
 10
683.555437
 20
-200.287916
 30
0.0
 10
683.353837
 20
-199.920713
 30
0.0
  0
LWPOLYLINE
  5
1ac
100
AcDbEntity
  8
0
 62
7
100
AcDbPolyline
 90
2
 70
0
 10
683.641837
 20
-200.770316
 30
0.0
 10
683.555437
 20
-200.287916
 30
0.0
  0
LWPOLYLINE
  5
1ad
100
AcDbEntity
  8
0
 62
7
100
AcDbPolyline
 90
2
 70
0
 10
683.641837
 20
-237.627127
 30
0.0
 10
683.641837
 20
-200.770316
 30
0.0
  0
LWPOLYLINE
  5
1ae
100
AcDbEntity
  8
0
 62
7
100
AcDbPolyline
 90
2
 70
0
 10
683.620237
 20
-237.879127
 30
0.0
 10
683.641837
 20
-237.627127
 30
0.0
  0
LWPOLYLINE
  5
1af
100
AcDbEntity
  8
0
 62
7
100
AcDbPolyline
 90
2
 70
0
 10
683.469037
 20
-238.303927
 30
0.0
 10
683.620237
 20
-237.879127
 30
0.0
  0
LWPOLYLINE
  5
1b0
100
AcDbEntity
  8
0
 62
7
100
AcDbPolyline
 90
2
 70
0
 10
683.224237
 20
-238.627927
 30
0.0
 10
683.469037
 20
-238.303927
 30
0.0
  0
LWPOLYLINE
  5
1b1
100
AcDbEntity
  8
0
 62
7
100
AcDbPolyline
 90
2
 70
0
 10
683.080237
 20
-238.757527
 30
0.0
 10
683.224237
 20
-238.627927
 30
0.0
  0
LWPOLYLINE
  5
1b2
100
AcDbEntity
  8
0
 62
7
100
AcDbPolyline
 90
2
 70
0
 10
304.705721
 20
-238.959127
 30
0.0
 10
305.080121
 20
-238.757527
 30
0.0
  0
LWPOLYLINE
  5
1b3
100
AcDbEntity
  8
0
 62
7
100
AcDbPolyline
 90
2
 70
0
 10
304.223321
 20
-239.038327
 30
0.0
 10
304.705721
 20
-238.959127
 30
0.0
  0
LWPOLYLINE
  5
1b4
100
AcDbEntity
  8
0
 62
7
100
AcDbPolyline
 90
2
 70
0
 10
159.373675
 20
-239.038327
 30
0.0
 10
304.223321
 20
-239.038327
 30
0.0
  0
LWPOLYLINE
  5
1b5
100
AcDbEntity
  8
0
 62
7
100
AcDbPolyline
 90
2
 70
0
 10
159.121675
 20
-239.016727
 30
0.0
 10
159.373675
 20
-239.038327
 30
0.0
  0
LWPOLYLINE
  5
1b6
100
AcDbEntity
  8
0
 62
7
100
AcDbPolyline
 90
2
 70
0
 10
158.696875
 20
-238.872727
 30
0.0
 10
159.121675
 20
-239.016727
 30
0.0
  0
LWPOLYLINE
  5
1b7
100
AcDbEntity
  8
0
 62
7
100
AcDbPolyline
 90
2
 70
0
 10
158.372875
 20
-238.627927
 30
0.0
 10
158.696875
 20
-238.872727
 30
0.0
  0
LWPOLYLINE
  5
1b8
100
AcDbEntity
  8
0
 62
7
100
AcDbPolyline
 90
2
 70
0
 10
158.250475
 20
-238.483927
 30
0.0
 10
158.372875
 20
-238.627927
 30
0.0
  0
LWPOLYLINE
  5
1b9
100
AcDbEntity
  8
0
 62
7
100
AcDbPolyline
 90
2
 70
0
 10
158.048875
 20
-238.116727
 30
0.0
 10
158.250475
 20
-238.483927
 30
0.0
  0
LWPOLYLINE
  5
1ba
100
AcDbEntity
  8
0
 62
7
100
AcDbPolyline
 90
2
 70
0
 10
157.955275
 20
-237.627127
 30
0.0
 10
158.048875
 20
-238.116727
 30
0.0
  0
LWPOLYLINE
  5
1bb
100
AcDbEntity
  8
0
 62
7
100
AcDbPolyline
 90
2
 70
0
 10
157.955275
 20
-200.770316
 30
0.0
 10
157.955275
 20
-237.627127
 30
0.0
  0
LWPOLYLINE
  5
1bc
100
AcDbEntity
  8
0
 62
7
100
AcDbPolyline
 90
2
 70
0
 10
157.976875
 20
-200.518316
 30
0.0
 10
157.955275
 20
-200.770316
 30
0.0
  0
LWPOLYLINE
  5
1bd
100
AcDbEntity
  8
0
 62
7
100
AcDbPolyline
 90
2
 70
0
 10
158.128075
 20
-200.100713
 30
0.0
 10
157.976875
 20
-200.518316
 30
0.0
  0
LWPOLYLINE
  5
1be
100
AcDbEntity
  8
0
 62
7
100
AcDbPolyline
 90
2
 70
0
 10
158.372875
 20
-199.769513
 30
0.0
 10
158.128075
 20
-200.100713
 30
0.0
  0
LWPOLYLINE
  5
1bf
100
AcDbEntity
  8
0
 62
7
100
AcDbPolyline
 90
2
 70
0
 10
158.524075
 20
-199.639913
 30
0.0
 10
158.372875
 20
-199.769513
 30
0.0
  0
LWPOLYLINE
  5
1c0
100
AcDbEntity
  8
0
 62
7
100
AcDbPolyline
 90
2
 70
0
 10
158.891275
 20
-199.438313
 30
0.0
 10
158.524075
 20
-199.639913
 30
0.0
  0
LWPOLYLINE
  5
1c1
100
AcDbEntity
  8
0
 62
7
100
AcDbPolyline
 90
2
 70
0
 10
159.373675
 20
-199.359113
 30
0.0
 10
158.891275
 20
-199.438313
 30
0.0
  0
LWPOLYLINE
  5
1c2
100
AcDbEntity
  8
0
 62
7
100
AcDbPolyline
 90
2
 70
0
 10
233.981175
 20
-199.359113
 30
0.0
 10
159.373675
 20
-199.359113
 30
0.0
  0
LWPOLYLINE
  5
1c3
100
AcDbEntity
  8
0
 62
7
100
AcDbPolyline
 90
2
 70
0
 10
235.420098
 20
-197.681513
 30
0.0
 10
235.398498
 20
-197.940713
 30
0.0
  0
LWPOLYLINE
  5
1c4
100
AcDbEntity
  8
0
 62
7
100
AcDbPolyline
 90
2
 70
0
 10
235.564098
 20
-197.263913
 30
0.0
 10
235.420098
 20
-197.681513
 30
0.0
  0
LWPOLYLINE
  5
1c5
100
AcDbEntity
  8
0
 62
7
100
AcDbPolyline
 90
2
 70
0
 10
235.808898
 20
-196.939913
 30
0.0
 10
235.564098
 20
-197.263913
 30
0.0
  0
LWPOLYLINE
  5
1c6
100
AcDbEntity
  8
0
 62
7
100
AcDbPolyline
 90
2
 70
0
 10
235.960098
 20
-196.803113
 30
0.0
 10
235.808898
 20
-196.939913
 30
0.0
  0
LWPOLYLINE
  5
1c7
100
AcDbEntity
  8
0
 62
7
100
AcDbPolyline
 90
2
 70
0
 10
236.327298
 20
-196.608713
 30
0.0
 10
235.960098
 20
-196.803113
 30
0.0
  0
LWPOLYLINE
  5
1c8
100
AcDbEntity
  8
0
 62
7
100
AcDbPolyline
 90
2
 70
0
 10
236.816898
 20
-196.522313
 30
0.0
 10
236.327298
 20
-196.608713
 30
0.0
  0
LWPOLYLINE
  5
1c9
100
AcDbEntity
  8
0
 62
7
100
AcDbPolyline
 90
2
 70
0
 10
267.301709
 20
-196.522313
 30
0.0
 10
236.816898
 20
-196.522313
 30
0.0
  0
LWPOLYLINE
  5
1ca
100
AcDbEntity
  8
0
 62
7
100
AcDbPolyline
 90
2
 70
0
 10
267.553709
 20
-196.543913
 30
0.0
 10
267.301709
 20
-196.522313
 30
0.0
  0
LWPOLYLINE
  5
1cb
100
AcDbEntity
  8
0
 62
7
100
AcDbPolyline
 90
2
 70
0
 10
267.978509
 20
-196.687913
 30
0.0
 10
267.553709
 20
-196.543913
 30
0.0
  0
LWPOLYLINE
  5
1cc
100
AcDbEntity
  8
0
 62
7
100
AcDbPolyline
 90
2
 70
0
 10
268.302509
 20
-196.939913
 30
0.0
 10
267.978509
 20
-196.687913
 30
0.0
  0
LWPOLYLINE
  5
1cd
100
AcDbEntity
  8
0
 62
7
100
AcDbPolyline
 90
2
 70
0
 10
268.432109
 20
-197.083913
 30
0.0
 10
268.302509
 20
-196.939913
 30
0.0
  0
LWPOLYLINE
  5
1ce
100
AcDbEntity
  8
0
 62
7
100
AcDbPolyline
 90
2
 70
0
 10
268.633709
 20
-197.451113
 30
0.0
 10
268.432109
 20
-197.083913
 30
0.0
  0
LWPOLYLINE
  5
1cf
100
AcDbEntity
  8
0
 62
7
100
AcDbPolyline
 90
2
 70
0
 10
268.720109
 20
-197.940713
 30
0.0
 10
268.633709
 20
-197.451113
 30
0.0
  0
LWPOLYLINE
  5
1d0
100
AcDbEntity
  8
0
 62
7
100
AcDbPolyline
 90
2
 70
0
 10
304.223321
 20
-199.359113
 30
0.0
 10
270.137432
 20
-199.359113
 30
0.0
  0
LWPOLYLINE
  5
1d1
100
AcDbEntity
  8
0
 62
7
100
AcDbPolyline
 90
2
 70
0
 10
304.475321
 20
-199.380713
 30
0.0
 10
304.223321
 20
-199.359113
 30
0.0
  0
LWPOLYLINE
  5
1d2
100
AcDbEntity
  8
0
 62
7
100
AcDbPolyline
 90
2
 70
0
 10
304.900121
 20
-199.524713
 30
0.0
 10
304.475321
 20
-199.380713
 30
0.0
  0
LWPOLYLINE
  5
1d3
100
AcDbEntity
  8
0
 62
7
100
AcDbPolyline
 90
2
 70
0
 10
305.224121
 20
-199.769513
 30
0.0
 10
304.900121
 20
-199.524713
 30
0.0
  0
LWPOLYLINE
  5
1d4
100
AcDbEntity
  8
0
 62
7
100
AcDbPolyline
 90
2
 70
0
 10
305.353721
 20
-199.920713
 30
0.0
 10
305.224121
 20
-199.769513
 30
0.0
  0
LWPOLYLINE
  5
1d5
100
AcDbEntity
  8
0
 62
7
100
AcDbPolyline
 90
2
 70
0
 10
305.555321
 20
-200.287916
 30
0.0
 10
305.353721
 20
-199.920713
 30
0.0
  0
LWPOLYLINE
  5
1d6
100
AcDbEntity
  8
0
 62
7
100
AcDbPolyline
 90
2
 70
0
 10
305.641721
 20
-200.770316
 30
0.0
 10
305.555321
 20
-200.287916
 30
0.0
  0
LWPOLYLINE
  5
1d7
100
AcDbEntity
  8
0
 62
7
100
AcDbPolyline
 90
2
 70
0
 10
305.641721
 20
-237.627127
 30
0.0
 10
305.641721
 20
-200.770316
 30
0.0
  0
LWPOLYLINE
  5
1d8
100
AcDbEntity
  8
0
 62
7
100
AcDbPolyline
 90
2
 70
0
 10
305.620121
 20
-237.879127
 30
0.0
 10
305.641721
 20
-237.627127
 30
0.0
  0
LWPOLYLINE
  5
1d9
100
AcDbEntity
  8
0
 62
7
100
AcDbPolyline
 90
2
 70
0
 10
305.468921
 20
-238.303927
 30
0.0
 10
305.620121
 20
-237.879127
 30
0.0
  0
LWPOLYLINE
  5
1da
100
AcDbEntity
  8
0
 62
7
100
AcDbPolyline
 90
2
 70
0
 10
305.224121
 20
-238.627927
 30
0.0
 10
305.468921
 20
-238.303927
 30
0.0
  0
LWPOLYLINE
  5
1db
100
AcDbEntity
  8
0
 62
7
100
AcDbPolyline
 90
2
 70
0
 10
305.080121
 20
-238.757527
 30
0.0
 10
305.224121
 20
-238.627927
 30
0.0
  0
LWPOLYLINE
  5
1dc
100
AcDbEntity
  8
0
 62
7
100
AcDbPolyline
 90
2
 70
0
 10
691.230640
 20
-200.518316
 30
0.0
 10
691.209040
 20
-200.770316
 30
0.0
  0
LWPOLYLINE
  5
1dd
100
AcDbEntity
  8
0
 62
7
100
AcDbPolyline
 90
2
 70
0
 10
691.374640
 20
-200.100713
 30
0.0
 10
691.230640
 20
-200.518316
 30
0.0
  0
LWPOLYLINE
  5
1de
100
AcDbEntity
  8
0
 62
7
100
AcDbPolyline
 90
2
 70
0
 10
691.619440
 20
-199.769513
 30
0.0
 10
691.374640
 20
-200.100713
 30
0.0
  0
LWPOLYLINE
  5
1df
100
AcDbEntity
  8
0
 62
7
100
AcDbPolyline
 90
2
 70
0
 10
691.770640
 20
-199.639913
 30
0.0
 10
691.619440
 20
-199.769513
 30
0.0
  0
LWPOLYLINE
  5
1e0
100
AcDbEntity
  8
0
 62
7
100
AcDbPolyline
 90
2
 70
0
 10
692.145040
 20
-199.438313
 30
0.0
 10
691.770640
 20
-199.639913
 30
0.0
  0
LWPOLYLINE
  5
1e1
100
AcDbEntity
  8
0
 62
7
100
AcDbPolyline
 90
2
 70
0
 10
692.627440
 20
-199.359113
 30
0.0
 10
692.145040
 20
-199.438313
 30
0.0
  0
LWPOLYLINE
  5
1e2
100
AcDbEntity
  8
0
 62
7
100
AcDbPolyline
 90
2
 70
0
 10
736.223451
 20
-199.359113
 30
0.0
 10
692.627440
 20
-199.359113
 30
0.0
  0
LWPOLYLINE
  5
1e3
100
AcDbEntity
  8
0
 62
7
100
AcDbPolyline
 90
2
 70
0
 10
736.475451
 20
-199.380713
 30
0.0
 10
736.223451
 20
-199.359113
 30
0.0
  0
LWPOLYLINE
  5
1e4
100
AcDbEntity
  8
0
 62
7
100
AcDbPolyline
 90
2
 70
0
 10
736.900254
 20
-199.524713
 30
0.0
 10
736.475451
 20
-199.380713
 30
0.0
  0
LWPOLYLINE
  5
1e5
100
AcDbEntity
  8
0
 62
7
100
AcDbPolyline
 90
2
 70
0
 10
737.224254
 20
-199.769513
 30
0.0
 10
736.900254
 20
-199.524713
 30
0.0
  0
LWPOLYLINE
  5
1e6
100
AcDbEntity
  8
0
 62
7
100
AcDbPolyline
 90
2
 70
0
 10
737.353854
 20
-199.920713
 30
0.0
 10
737.224254
 20
-199.769513
 30
0.0
  0
LWPOLYLINE
  5
1e7
100
AcDbEntity
  8
0
 62
7
100
AcDbPolyline
 90
2
 70
0
 10
737.555454
 20
-200.287916
 30
0.0
 10
737.353854
 20
-199.920713
 30
0.0
  0
LWPOLYLINE
  5
1e8
100
AcDbEntity
  8
0
 62
7
100
AcDbPolyline
 90
2
 70
0
 10
737.641854
 20
-200.770316
 30
0.0
 10
737.555454
 20
-200.287916
 30
0.0
  0
LWPOLYLINE
  5
1e9
100
AcDbEntity
  8
0
 62
7
100
AcDbPolyline
 90
2
 70
0
 10
737.641854
 20
-237.627127
 30
0.0
 10
737.641854
 20
-200.770316
 30
0.0
  0
LWPOLYLINE
  5
1ea
100
AcDbEntity
  8
0
 62
7
100
AcDbPolyline
 90
2
 70
0
 10
737.620254
 20
-237.879127
 30
0.0
 10
737.641854
 20
-237.627127
 30
0.0
  0
LWPOLYLINE
  5
1eb
100
AcDbEntity
  8
0
 62
7
100
AcDbPolyline
 90
2
 70
0
 10
737.469054
 20
-238.303927
 30
0.0
 10
737.620254
 20
-237.879127
 30
0.0
  0
LWPOLYLINE
  5
1ec
100
AcDbEntity
  8
0
 62
7
100
AcDbPolyline
 90
2
 70
0
 10
737.224254
 20
-238.627927
 30
0.0
 10
737.469054
 20
-238.303927
 30
0.0
  0
LWPOLYLINE
  5
1ed
100
AcDbEntity
  8
0
 62
7
100
AcDbPolyline
 90
2
 70
0
 10
737.080254
 20
-238.757527
 30
0.0
 10
737.224254
 20
-238.627927
 30
0.0
  0
LWPOLYLINE
  5
1ee
100
AcDbEntity
  8
0
 62
7
100
AcDbPolyline
 90
2
 70
0
 10
736.705854
 20
-238.959127
 30
0.0
 10
737.080254
 20
-238.757527
 30
0.0
  0
LWPOLYLINE
  5
1ef
100
AcDbEntity
  8
0
 62
7
100
AcDbPolyline
 90
2
 70
0
 10
736.223451
 20
-239.038327
 30
0.0
 10
736.705854
 20
-238.959127
 30
0.0
  0
LWPOLYLINE
  5
1f0
100
AcDbEntity
  8
0
 62
7
100
AcDbPolyline
 90
2
 70
0
 10
692.627440
 20
-239.038327
 30
0.0
 10
736.223451
 20
-239.038327
 30
0.0
  0
LWPOLYLINE
  5
1f1
100
AcDbEntity
  8
0
 62
7
100
AcDbPolyline
 90
2
 70
0
 10
692.368240
 20
-239.016727
 30
0.0
 10
692.627440
 20
-239.038327
 30
0.0
  0
LWPOLYLINE
  5
1f2
100
AcDbEntity
  8
0
 62
7
100
AcDbPolyline
 90
2
 70
0
 10
691.950640
 20
-238.872727
 30
0.0
 10
692.368240
 20
-239.016727
 30
0.0
  0
LWPOLYLINE
  5
1f3
100
AcDbEntity
  8
0
 62
7
100
AcDbPolyline
 90
2
 70
0
 10
691.619440
 20
-238.627927
 30
0.0
 10
691.950640
 20
-238.872727
 30
0.0
  0
LWPOLYLINE
  5
1f4
100
AcDbEntity
  8
0
 62
7
100
AcDbPolyline
 90
2
 70
0
 10
691.497040
 20
-238.483927
 30
0.0
 10
691.619440
 20
-238.627927
 30
0.0
  0
LWPOLYLINE
  5
1f5
100
AcDbEntity
  8
0
 62
7
100
AcDbPolyline
 90
2
 70
0
 10
691.295440
 20
-238.116727
 30
0.0
 10
691.497040
 20
-238.483927
 30
0.0
  0
LWPOLYLINE
  5
1f6
100
AcDbEntity
  8
0
 62
7
100
AcDbPolyline
 90
2
 70
0
 10
691.209040
 20
-237.627127
 30
0.0
 10
691.295440
 20
-238.116727
 30
0.0
  0
LWPOLYLINE
  5
1f7
100
AcDbEntity
  8
0
 62
7
100
AcDbPolyline
 90
2
 70
0
 10
691.209040
 20
-200.770316
 30
0.0
 10
691.209040
 20
-237.627127
 30
0.0
  0
LWPOLYLINE
  5
1f8
100
AcDbEntity
  8
0
 62
7
100
AcDbPolyline
 90
2
 70
0
 10
104.250458
 20
-238.483927
 30
0.0
 10
104.372858
 20
-238.627927
 30
0.0
  0
LWPOLYLINE
  5
1f9
100
AcDbEntity
  8
0
 62
7
100
AcDbPolyline
 90
2
 70
0
 10
104.048858
 20
-238.116727
 30
0.0
 10
104.250458
 20
-238.483927
 30
0.0
  0
LWPOLYLINE
  5
1fa
100
AcDbEntity
  8
0
 62
7
100
AcDbPolyline
 90
2
 70
0
 10
103.955258
 20
-237.627127
 30
0.0
 10
104.048858
 20
-238.116727
 30
0.0
  0
LWPOLYLINE
  5
1fb
100
AcDbEntity
  8
0
 62
7
100
AcDbPolyline
 90
2
 70
0
 10
103.955258
 20
-200.770316
 30
0.0
 10
103.955258
 20
-237.627127
 30
0.0
  0
LWPOLYLINE
  5
1fc
100
AcDbEntity
  8
0
 62
7
100
AcDbPolyline
 90
2
 70
0
 10
103.976858
 20
-200.518316
 30
0.0
 10
103.955258
 20
-200.770316
 30
0.0
  0
LWPOLYLINE
  5
1fd
100
AcDbEntity
  8
0
 62
7
100
AcDbPolyline
 90
2
 70
0
 10
104.128058
 20
-200.100713
 30
0.0
 10
103.976858
 20
-200.518316
 30
0.0
  0
LWPOLYLINE
  5
1fe
100
AcDbEntity
  8
0
 62
7
100
AcDbPolyline
 90
2
 70
0
 10
104.372858
 20
-199.769513
 30
0.0
 10
104.128058
 20
-200.100713
 30
0.0
  0
LWPOLYLINE
  5
1ff
100
AcDbEntity
  8
0
 62
7
100
AcDbPolyline
 90
2
 70
0
 10
104.524058
 20
-199.639913
 30
0.0
 10
104.372858
 20
-199.769513
 30
0.0
  0
LWPOLYLINE
  5
200
100
AcDbEntity
  8
0
 62
7
100
AcDbPolyline
 90
2
 70
0
 10
104.891258
 20
-199.438313
 30
0.0
 10
104.524058
 20
-199.639913
 30
0.0
  0
LWPOLYLINE
  5
201
100
AcDbEntity
  8
0
 62
7
100
AcDbPolyline
 90
2
 70
0
 10
105.373658
 20
-199.359113
 30
0.0
 10
104.891258
 20
-199.438313
 30
0.0
  0
LWPOLYLINE
  5
202
100
AcDbEntity
  8
0
 62
7
100
AcDbPolyline
 90
2
 70
0
 10
148.976872
 20
-199.359113
 30
0.0
 10
105.373658
 20
-199.359113
 30
0.0
  0
LWPOLYLINE
  5
203
100
AcDbEntity
  8
0
 62
7
100
AcDbPolyline
 90
2
 70
0
 10
149.221672
 20
-199.380713
 30
0.0
 10
148.976872
 20
-199.359113
 30
0.0
  0
LWPOLYLINE
  5
204
100
AcDbEntity
  8
0
 62
7
100
AcDbPolyline
 90
2
 70
0
 10
149.646472
 20
-199.524713
 30
0.0
 10
149.221672
 20
-199.380713
 30
0.0
  0
LWPOLYLINE
  5
205
100
AcDbEntity
  8
0
 62
7
100
AcDbPolyline
 90
2
 70
0
 10
149.977672
 20
-199.769513
 30
0.0
 10
149.646472
 20
-199.524713
 30
0.0
  0
LWPOLYLINE
  5
206
100
AcDbEntity
  8
0
 62
7
100
AcDbPolyline
 90
2
 70
0
 10
150.107272
 20
-199.920713
 30
0.0
 10
149.977672
 20
-199.769513
 30
0.0
  0
LWPOLYLINE
  5
207
100
AcDbEntity
  8
0
 62
7
100
AcDbPolyline
 90
2
 70
0
 10
150.308872
 20
-200.287916
 30
0.0
 10
150.107272
 20
-199.920713
 30
0.0
  0
LWPOLYLINE
  5
208
100
AcDbEntity
  8
0
 62
7
100
AcDbPolyline
 90
2
 70
0
 10
150.395272
 20
-200.770316
 30
0.0
 10
150.308872
 20
-200.287916
 30
0.0
  0
LWPOLYLINE
  5
209
100
AcDbEntity
  8
0
 62
7
100
AcDbPolyline
 90
2
 70
0
 10
150.395272
 20
-237.627127
 30
0.0
 10
150.395272
 20
-200.770316
 30
0.0
  0
LWPOLYLINE
  5
20a
100
AcDbEntity
  8
0
 62
7
100
AcDbPolyline
 90
2
 70
0
 10
150.366472
 20
-237.879127
 30
0.0
 10
150.395272
 20
-237.627127
 30
0.0
  0
LWPOLYLINE
  5
20b
100
AcDbEntity
  8
0
 62
7
100
AcDbPolyline
 90
2
 70
0
 10
150.222472
 20
-238.303927
 30
0.0
 10
150.366472
 20
-237.879127
 30
0.0
  0
LWPOLYLINE
  5
20c
100
AcDbEntity
  8
0
 62
7
100
AcDbPolyline
 90
2
 70
0
 10
149.977672
 20
-238.627927
 30
0.0
 10
150.222472
 20
-238.303927
 30
0.0
  0
LWPOLYLINE
  5
20d
100
AcDbEntity
  8
0
 62
7
100
AcDbPolyline
 90
2
 70
0
 10
149.826472
 20
-238.757527
 30
0.0
 10
149.977672
 20
-238.627927
 30
0.0
  0
LWPOLYLINE
  5
20e
100
AcDbEntity
  8
0
 62
7
100
AcDbPolyline
 90
2
 70
0
 10
149.459272
 20
-238.959127
 30
0.0
 10
149.826472
 20
-238.757527
 30
0.0
  0
LWPOLYLINE
  5
20f
100
AcDbEntity
  8
0
 62
7
100
AcDbPolyline
 90
2
 70
0
 10
148.976872
 20
-239.038327
 30
0.0
 10
149.459272
 20
-238.959127
 30
0.0
  0
LWPOLYLINE
  5
210
100
AcDbEntity
  8
0
 62
7
100
AcDbPolyline
 90
2
 70
0
 10
105.373658
 20
-239.038327
 30
0.0
 10
148.976872
 20
-239.038327
 30
0.0
  0
LWPOLYLINE
  5
211
100
AcDbEntity
  8
0
 62
7
100
AcDbPolyline
 90
2
 70
0
 10
105.121658
 20
-239.016727
 30
0.0
 10
105.373658
 20
-239.038327
 30
0.0
  0
LWPOLYLINE
  5
212
100
AcDbEntity
  8
0
 62
7
100
AcDbPolyline
 90
2
 70
0
 10
104.696858
 20
-238.872727
 30
0.0
 10
105.121658
 20
-239.016727
 30
0.0
  0
SPLINE
  5
213
100
AcDbEntity
  8
0
 62
7
100
AcDbSpline
 70
8
 71
3
 72
8
 73
4
 74
0
 40
0
 40
0
 40
0
 40
0
 40
1
 40
1
 40
1
 40
1
 10
614.728346
 20
-185.044679
 30
0.0
 10
615.104244
 20
-185.044679
 30
0.0
 10
615.464745
 20
-184.895355
 30
0.0
 10
615.730545
 20
-184.629555
 30
0.0
  0
SPLINE
  5
214
100
AcDbEntity
  8
0
 62
7
100
AcDbSpline
 70
8
 71
3
 72
8
 73
4
 74
0
 40
0
 40
0
 40
0
 40
0
 40
1
 40
1
 40
1
 40
1
 10
615.730545
 20
-184.629555
 30
0.0
 10
615.996345
 20
-184.363755
 30
0.0
 10
616.145669
 20
-184.003254
 30
0.0
 10
616.145669
 20
-183.627356
 30
0.0
  0
SPLINE
  5
215
100
AcDbEntity
  8
0
 62
7
100
AcDbSpline
 70
8
 71
3
 72
8
 73
4
 74
0
 40
0
 40
0
 40
0
 40
0
 40
1
 40
1
 40
1
 40
1
 10
576.460630
 20
-183.627356
 30
0.0
 10
576.460630
 20
-184.003254
 30
0.0
 10
576.609955
 20
-184.363755
 30
0.0
 10
576.875754
 20
-184.629555
 30
0.0
  0
SPLINE
  5
216
100
AcDbEntity
  8
0
 62
7
100
AcDbSpline
 70
8
 71
3
 72
8
 73
4
 74
0
 40
0
 40
0
 40
0
 40
0
 40
1
 40
1
 40
1
 40
1
 10
576.875754
 20
-184.629555
 30
0.0
 10
577.141554
 20
-184.895355
 30
0.0
 10
577.502055
 20
-185.044679
 30
0.0
 10
577.877953
 20
-185.044679
 30
0.0
  0
SPLINE
  5
217
100
AcDbEntity
  8
0
 62
7
100
AcDbSpline
 70
8
 71
3
 72
8
 73
4
 74
0
 40
0
 40
0
 40
0
 40
0
 40
1
 40
1
 40
1
 40
1
 10
577.877953
 20
-145.359640
 30
0.0
 10
577.502055
 20
-145.359640
 30
0.0
 10
577.141554
 20
-145.508965
 30
0.0
 10
576.875754
 20
-145.774764
 30
0.0
  0
SPLINE
  5
218
100
AcDbEntity
  8
0
 62
7
100
AcDbSpline
 70
8
 71
3
 72
8
 73
4
 74
0
 40
0
 40
0
 40
0
 40
0
 40
1
 40
1
 40
1
 40
1
 10
576.875754
 20
-145.774764
 30
0.0
 10
576.609955
 20
-146.040564
 30
0.0
 10
576.460630
 20
-146.401065
 30
0.0
 10
576.460630
 20
-146.776963
 30
0.0
  0
SPLINE
  5
219
100
AcDbEntity
  8
0
 62
7
100
AcDbSpline
 70
8
 71
3
 72
8
 73
4
 74
0
 40
0
 40
0
 40
0
 40
0
 40
1
 40
1
 40
1
 40
1
 10
616.145669
 20
-146.776963
 30
0.0
 10
616.145669
 20
-146.401065
 30
0.0
 10
615.996345
 20
-146.040564
 30
0.0
 10
615.730545
 20
-145.774764
 30
0.0
  0
SPLINE
  5
21a
100
AcDbEntity
  8
0
 62
7
100
AcDbSpline
 70
8
 71
3
 72
8
 73
4
 74
0
 40
0
 40
0
 40
0
 40
0
 40
1
 40
1
 40
1
 40
1
 10
615.730545
 20
-145.774764
 30
0.0
 10
615.464745
 20
-145.508965
 30
0.0
 10
615.104244
 20
-145.359640
 30
0.0
 10
614.728346
 20
-145.359640
 30
0.0
  0
LWPOLYLINE
  5
21b
100
AcDbEntity
  8
0
 62
7
100
AcDbPolyline
 90
2
 70
0
 10
104.372858
 20
-238.627927
 30
0.0
 10
104.696858
 20
-238.872727
 30
0.0
  0
LWPOLYLINE
  5
21c
100
AcDbEntity
  8
0
 62
7
100
AcDbPolyline
 90
2
 70
0
 10
616.145669
 20
-183.627356
 30
0.0
 10
616.145669
 20
-146.776963
 30
0.0
  0
LWPOLYLINE
  5
21d
100
AcDbEntity
  8
0
 62
7
100
AcDbPolyline
 90
2
 70
0
 10
577.877953
 20
-185.044679
 30
0.0
 10
614.728346
 20
-185.044679
 30
0.0
  0
LWPOLYLINE
  5
21e
100
AcDbEntity
  8
0
 62
7
100
AcDbPolyline
 90
2
 70
0
 10
576.460630
 20
-146.776963
 30
0.0
 10
576.460630
 20
-183.627356
 30
0.0
  0
SPLINE
  5
21f
100
AcDbEntity
  8
0
 62
7
100
AcDbSpline
 70
8
 71
3
 72
8
 73
4
 74
0
 40
0
 40
0
 40
0
 40
0
 40
1
 40
1
 40
1
 40
1
 10
641.728346
 20
-131.044679
 30
0.0
 10
642.104244
 20
-131.044679
 30
0.0
 10
642.464745
 20
-130.895355
 30
0.0
 10
642.730545
 20
-130.629555
 30
0.0
  0
SPLINE
  5
220
100
AcDbEntity
  8
0
 62
7
100
AcDbSpline
 70
8
 71
3
 72
8
 73
4
 74
0
 40
0
 40
0
 40
0
 40
0
 40
1
 40
1
 40
1
 40
1
 10
642.730545
 20
-130.629555
 30
0.0
 10
642.996345
 20
-130.363755
 30
0.0
 10
643.145669
 20
-130.003254
 30
0.0
 10
643.145669
 20
-129.627356
 30
0.0
  0
SPLINE
  5
221
100
AcDbEntity
  8
0
 62
7
100
AcDbSpline
 70
8
 71
3
 72
8
 73
4
 74
0
 40
0
 40
0
 40
0
 40
0
 40
1
 40
1
 40
1
 40
1
 10
603.460630
 20
-129.627356
 30
0.0
 10
603.460630
 20
-130.003254
 30
0.0
 10
603.609955
 20
-130.363755
 30
0.0
 10
603.875754
 20
-130.629555
 30
0.0
  0
SPLINE
  5
222
100
AcDbEntity
  8
0
 62
7
100
AcDbSpline
 70
8
 71
3
 72
8
 73
4
 74
0
 40
0
 40
0
 40
0
 40
0
 40
1
 40
1
 40
1
 40
1
 10
603.875754
 20
-130.629555
 30
0.0
 10
604.141554
 20
-130.895355
 30
0.0
 10
604.502055
 20
-131.044679
 30
0.0
 10
604.877953
 20
-131.044679
 30
0.0
  0
SPLINE
  5
223
100
AcDbEntity
  8
0
 62
7
100
AcDbSpline
 70
8
 71
3
 72
8
 73
4
 74
0
 40
0
 40
0
 40
0
 40
0
 40
1
 40
1
 40
1
 40
1
 10
604.877953
 20
-91.359640
 30
0.0
 10
604.502055
 20
-91.359640
 30
0.0
 10
604.141554
 20
-91.508965
 30
0.0
 10
603.875754
 20
-91.774764
 30
0.0
  0
SPLINE
  5
224
100
AcDbEntity
  8
0
 62
7
100
AcDbSpline
 70
8
 71
3
 72
8
 73
4
 74
0
 40
0
 40
0
 40
0
 40
0
 40
1
 40
1
 40
1
 40
1
 10
603.875754
 20
-91.774764
 30
0.0
 10
603.609955
 20
-92.040564
 30
0.0
 10
603.460630
 20
-92.401065
 30
0.0
 10
603.460630
 20
-92.776963
 30
0.0
  0
SPLINE
  5
225
100
AcDbEntity
  8
0
 62
7
100
AcDbSpline
 70
8
 71
3
 72
8
 73
4
 74
0
 40
0
 40
0
 40
0
 40
0
 40
1
 40
1
 40
1
 40
1
 10
643.145669
 20
-92.776963
 30
0.0
 10
643.145669
 20
-92.401065
 30
0.0
 10
642.996345
 20
-92.040564
 30
0.0
 10
642.730545
 20
-91.774764
 30
0.0
  0
SPLINE
  5
226
100
AcDbEntity
  8
0
 62
7
100
AcDbSpline
 70
8
 71
3
 72
8
 73
4
 74
0
 40
0
 40
0
 40
0
 40
0
 40
1
 40
1
 40
1
 40
1
 10
642.730545
 20
-91.774764
 30
0.0
 10
642.464745
 20
-91.508965
 30
0.0
 10
642.104244
 20
-91.359640
 30
0.0
 10
641.728346
 20
-91.359640
 30
0.0
  0
LWPOLYLINE
  5
227
100
AcDbEntity
  8
0
 62
7
100
AcDbPolyline
 90
2
 70
0
 10
614.728346
 20
-145.359640
 30
0.0
 10
577.877953
 20
-145.359640
 30
0.0
  0
LWPOLYLINE
  5
228
100
AcDbEntity
  8
0
 62
7
100
AcDbPolyline
 90
2
 70
0
 10
643.145669
 20
-129.627356
 30
0.0
 10
643.145669
 20
-92.776963
 30
0.0
  0
LWPOLYLINE
  5
229
100
AcDbEntity
  8
0
 62
7
100
AcDbPolyline
 90
2
 70
0
 10
604.877953
 20
-131.044679
 30
0.0
 10
641.728346
 20
-131.044679
 30
0.0
  0
LWPOLYLINE
  5
22a
100
AcDbEntity
  8
0
 62
7
100
AcDbPolyline
 90
2
 70
0
 10
603.460630
 20
-92.776963
 30
0.0
 10
603.460630
 20
-129.627356
 30
0.0
  0
SPLINE
  5
22b
100
AcDbEntity
  8
0
 62
7
100
AcDbSpline
 70
8
 71
3
 72
8
 73
4
 74
0
 40
0
 40
0
 40
0
 40
0
 40
1
 40
1
 40
1
 40
1
 10
560.728346
 20
-185.044679
 30
0.0
 10
561.104244
 20
-185.044679
 30
0.0
 10
561.464745
 20
-184.895355
 30
0.0
 10
561.730545
 20
-184.629555
 30
0.0
  0
SPLINE
  5
22c
100
AcDbEntity
  8
0
 62
7
100
AcDbSpline
 70
8
 71
3
 72
8
 73
4
 74
0
 40
0
 40
0
 40
0
 40
0
 40
1
 40
1
 40
1
 40
1
 10
561.730545
 20
-184.629555
 30
0.0
 10
561.996345
 20
-184.363755
 30
0.0
 10
562.145669
 20
-184.003254
 30
0.0
 10
562.145669
 20
-183.627356
 30
0.0
  0
SPLINE
  5
22d
100
AcDbEntity
  8
0
 62
7
100
AcDbSpline
 70
8
 71
3
 72
8
 73
4
 74
0
 40
0
 40
0
 40
0
 40
0
 40
1
 40
1
 40
1
 40
1
 10
522.460630
 20
-183.627356
 30
0.0
 10
522.460630
 20
-184.003254
 30
0.0
 10
522.609955
 20
-184.363755
 30
0.0
 10
522.875754
 20
-184.629555
 30
0.0
  0
SPLINE
  5
22e
100
AcDbEntity
  8
0
 62
7
100
AcDbSpline
 70
8
 71
3
 72
8
 73
4
 74
0
 40
0
 40
0
 40
0
 40
0
 40
1
 40
1
 40
1
 40
1
 10
522.875754
 20
-184.629555
 30
0.0
 10
523.141554
 20
-184.895355
 30
0.0
 10
523.502055
 20
-185.044679
 30
0.0
 10
523.877953
 20
-185.044679
 30
0.0
  0
SPLINE
  5
22f
100
AcDbEntity
  8
0
 62
7
100
AcDbSpline
 70
8
 71
3
 72
8
 73
4
 74
0
 40
0
 40
0
 40
0
 40
0
 40
1
 40
1
 40
1
 40
1
 10
523.877953
 20
-145.359640
 30
0.0
 10
523.502055
 20
-145.359640
 30
0.0
 10
523.141554
 20
-145.508965
 30
0.0
 10
522.875754
 20
-145.774764
 30
0.0
  0
SPLINE
  5
230
100
AcDbEntity
  8
0
 62
7
100
AcDbSpline
 70
8
 71
3
 72
8
 73
4
 74
0
 40
0
 40
0
 40
0
 40
0
 40
1
 40
1
 40
1
 40
1
 10
522.875754
 20
-145.774764
 30
0.0
 10
522.609955
 20
-146.040564
 30
0.0
 10
522.460630
 20
-146.401065
 30
0.0
 10
522.460630
 20
-146.776963
 30
0.0
  0
SPLINE
  5
231
100
AcDbEntity
  8
0
 62
7
100
AcDbSpline
 70
8
 71
3
 72
8
 73
4
 74
0
 40
0
 40
0
 40
0
 40
0
 40
1
 40
1
 40
1
 40
1
 10
562.145669
 20
-146.776963
 30
0.0
 10
562.145669
 20
-146.401065
 30
0.0
 10
561.996345
 20
-146.040564
 30
0.0
 10
561.730545
 20
-145.774764
 30
0.0
  0
SPLINE
  5
232
100
AcDbEntity
  8
0
 62
7
100
AcDbSpline
 70
8
 71
3
 72
8
 73
4
 74
0
 40
0
 40
0
 40
0
 40
0
 40
1
 40
1
 40
1
 40
1
 10
561.730545
 20
-145.774764
 30
0.0
 10
561.464745
 20
-145.508965
 30
0.0
 10
561.104244
 20
-145.359640
 30
0.0
 10
560.728346
 20
-145.359640
 30
0.0
  0
LWPOLYLINE
  5
233
100
AcDbEntity
  8
0
 62
7
100
AcDbPolyline
 90
2
 70
0
 10
641.728346
 20
-91.359640
 30
0.0
 10
604.877953
 20
-91.359640
 30
0.0
  0
LWPOLYLINE
  5
234
100
AcDbEntity
  8
0
 62
7
100
AcDbPolyline
 90
2
 70
0
 10
562.145669
 20
-183.627356
 30
0.0
 10
562.145669
 20
-146.776963
 30
0.0
  0
LWPOLYLINE
  5
235
100
AcDbEntity
  8
0
 62
7
100
AcDbPolyline
 90
2
 70
0
 10
523.877953
 20
-185.044679
 30
0.0
 10
560.728346
 20
-185.044679
 30
0.0
  0
LWPOLYLINE
  5
236
100
AcDbEntity
  8
0
 62
7
100
AcDbPolyline
 90
2
 70
0
 10
522.460630
 20
-146.776963
 30
0.0
 10
522.460630
 20
-183.627356
 30
0.0
  0
SPLINE
  5
237
100
AcDbEntity
  8
0
 62
7
100
AcDbSpline
 70
8
 71
3
 72
8
 73
4
 74
0
 40
0
 40
0
 40
0
 40
0
 40
1
 40
1
 40
1
 40
1
 10
506.728346
 20
-185.044679
 30
0.0
 10
507.104244
 20
-185.044679
 30
0.0
 10
507.464745
 20
-184.895355
 30
0.0
 10
507.730545
 20
-184.629555
 30
0.0
  0
SPLINE
  5
238
100
AcDbEntity
  8
0
 62
7
100
AcDbSpline
 70
8
 71
3
 72
8
 73
4
 74
0
 40
0
 40
0
 40
0
 40
0
 40
1
 40
1
 40
1
 40
1
 10
507.730545
 20
-184.629555
 30
0.0
 10
507.996345
 20
-184.363755
 30
0.0
 10
508.145669
 20
-184.003254
 30
0.0
 10
508.145669
 20
-183.627356
 30
0.0
  0
SPLINE
  5
239
100
AcDbEntity
  8
0
 62
7
100
AcDbSpline
 70
8
 71
3
 72
8
 73
4
 74
0
 40
0
 40
0
 40
0
 40
0
 40
1
 40
1
 40
1
 40
1
 10
468.460630
 20
-183.627356
 30
0.0
 10
468.460630
 20
-184.003254
 30
0.0
 10
468.609955
 20
-184.363755
 30
0.0
 10
468.875754
 20
-184.629555
 30
0.0
  0
SPLINE
  5
23a
100
AcDbEntity
  8
0
 62
7
100
AcDbSpline
 70
8
 71
3
 72
8
 73
4
 74
0
 40
0
 40
0
 40
0
 40
0
 40
1
 40
1
 40
1
 40
1
 10
468.875754
 20
-184.629555
 30
0.0
 10
469.141554
 20
-184.895355
 30
0.0
 10
469.502055
 20
-185.044679
 30
0.0
 10
469.877953
 20
-185.044679
 30
0.0
  0
SPLINE
  5
23b
100
AcDbEntity
  8
0
 62
7
100
AcDbSpline
 70
8
 71
3
 72
8
 73
4
 74
0
 40
0
 40
0
 40
0
 40
0
 40
1
 40
1
 40
1
 40
1
 10
469.877953
 20
-145.359640
 30
0.0
 10
469.502055
 20
-145.359640
 30
0.0
 10
469.141554
 20
-145.508965
 30
0.0
 10
468.875754
 20
-145.774764
 30
0.0
  0
SPLINE
  5
23c
100
AcDbEntity
  8
0
 62
7
100
AcDbSpline
 70
8
 71
3
 72
8
 73
4
 74
0
 40
0
 40
0
 40
0
 40
0
 40
1
 40
1
 40
1
 40
1
 10
468.875754
 20
-145.774764
 30
0.0
 10
468.609955
 20
-146.040564
 30
0.0
 10
468.460630
 20
-146.401065
 30
0.0
 10
468.460630
 20
-146.776963
 30
0.0
  0
SPLINE
  5
23d
100
AcDbEntity
  8
0
 62
7
100
AcDbSpline
 70
8
 71
3
 72
8
 73
4
 74
0
 40
0
 40
0
 40
0
 40
0
 40
1
 40
1
 40
1
 40
1
 10
508.145669
 20
-146.776963
 30
0.0
 10
508.145669
 20
-146.401065
 30
0.0
 10
507.996345
 20
-146.040564
 30
0.0
 10
507.730545
 20
-145.774764
 30
0.0
  0
SPLINE
  5
23e
100
AcDbEntity
  8
0
 62
7
100
AcDbSpline
 70
8
 71
3
 72
8
 73
4
 74
0
 40
0
 40
0
 40
0
 40
0
 40
1
 40
1
 40
1
 40
1
 10
507.730545
 20
-145.774764
 30
0.0
 10
507.464745
 20
-145.508965
 30
0.0
 10
507.104244
 20
-145.359640
 30
0.0
 10
506.728346
 20
-145.359640
 30
0.0
  0
LWPOLYLINE
  5
23f
100
AcDbEntity
  8
0
 62
7
100
AcDbPolyline
 90
2
 70
0
 10
560.728346
 20
-145.359640
 30
0.0
 10
523.877953
 20
-145.359640
 30
0.0
  0
LWPOLYLINE
  5
240
100
AcDbEntity
  8
0
 62
7
100
AcDbPolyline
 90
2
 70
0
 10
508.145669
 20
-183.627356
 30
0.0
 10
508.145669
 20
-146.776963
 30
0.0
  0
LWPOLYLINE
  5
241
100
AcDbEntity
  8
0
 62
7
100
AcDbPolyline
 90
2
 70
0
 10
469.877953
 20
-185.044679
 30
0.0
 10
506.728346
 20
-185.044679
 30
0.0
  0
LWPOLYLINE
  5
242
100
AcDbEntity
  8
0
 62
7
100
AcDbPolyline
 90
2
 70
0
 10
468.460630
 20
-146.776963
 30
0.0
 10
468.460630
 20
-183.627356
 30
0.0
  0
SPLINE
  5
243
100
AcDbEntity
  8
0
 62
7
100
AcDbSpline
 70
8
 71
3
 72
8
 73
4
 74
0
 40
0
 40
0
 40
0
 40
0
 40
1
 40
1
 40
1
 40
1
 10
668.728346
 20
-185.044679
 30
0.0
 10
669.104244
 20
-185.044679
 30
0.0
 10
669.464745
 20
-184.895355
 30
0.0
 10
669.730545
 20
-184.629555
 30
0.0
  0
SPLINE
  5
244
100
AcDbEntity
  8
0
 62
7
100
AcDbSpline
 70
8
 71
3
 72
8
 73
4
 74
0
 40
0
 40
0
 40
0
 40
0
 40
1
 40
1
 40
1
 40
1
 10
669.730545
 20
-184.629555
 30
0.0
 10
669.996345
 20
-184.363755
 30
0.0
 10
670.145669
 20
-184.003254
 30
0.0
 10
670.145669
 20
-183.627356
 30
0.0
  0
SPLINE
  5
245
100
AcDbEntity
  8
0
 62
7
100
AcDbSpline
 70
8
 71
3
 72
8
 73
4
 74
0
 40
0
 40
0
 40
0
 40
0
 40
1
 40
1
 40
1
 40
1
 10
630.460630
 20
-183.627356
 30
0.0
 10
630.460630
 20
-184.003254
 30
0.0
 10
630.609955
 20
-184.363755
 30
0.0
 10
630.875754
 20
-184.629555
 30
0.0
  0
SPLINE
  5
246
100
AcDbEntity
  8
0
 62
7
100
AcDbSpline
 70
8
 71
3
 72
8
 73
4
 74
0
 40
0
 40
0
 40
0
 40
0
 40
1
 40
1
 40
1
 40
1
 10
630.875754
 20
-184.629555
 30
0.0
 10
631.141554
 20
-184.895355
 30
0.0
 10
631.502055
 20
-185.044679
 30
0.0
 10
631.877953
 20
-185.044679
 30
0.0
  0
SPLINE
  5
247
100
AcDbEntity
  8
0
 62
7
100
AcDbSpline
 70
8
 71
3
 72
8
 73
4
 74
0
 40
0
 40
0
 40
0
 40
0
 40
1
 40
1
 40
1
 40
1
 10
631.877953
 20
-145.359640
 30
0.0
 10
631.502055
 20
-145.359640
 30
0.0
 10
631.141554
 20
-145.508965
 30
0.0
 10
630.875754
 20
-145.774764
 30
0.0
  0
SPLINE
  5
248
100
AcDbEntity
  8
0
 62
7
100
AcDbSpline
 70
8
 71
3
 72
8
 73
4
 74
0
 40
0
 40
0
 40
0
 40
0
 40
1
 40
1
 40
1
 40
1
 10
630.875754
 20
-145.774764
 30
0.0
 10
630.609955
 20
-146.040564
 30
0.0
 10
630.460630
 20
-146.401065
 30
0.0
 10
630.460630
 20
-146.776963
 30
0.0
  0
SPLINE
  5
249
100
AcDbEntity
  8
0
 62
7
100
AcDbSpline
 70
8
 71
3
 72
8
 73
4
 74
0
 40
0
 40
0
 40
0
 40
0
 40
1
 40
1
 40
1
 40
1
 10
670.145669
 20
-146.776963
 30
0.0
 10
670.145669
 20
-146.401065
 30
0.0
 10
669.996345
 20
-146.040564
 30
0.0
 10
669.730545
 20
-145.774764
 30
0.0
  0
SPLINE
  5
24a
100
AcDbEntity
  8
0
 62
7
100
AcDbSpline
 70
8
 71
3
 72
8
 73
4
 74
0
 40
0
 40
0
 40
0
 40
0
 40
1
 40
1
 40
1
 40
1
 10
669.730545
 20
-145.774764
 30
0.0
 10
669.464745
 20
-145.508965
 30
0.0
 10
669.104244
 20
-145.359640
 30
0.0
 10
668.728346
 20
-145.359640
 30
0.0
  0
LWPOLYLINE
  5
24b
100
AcDbEntity
  8
0
 62
7
100
AcDbPolyline
 90
2
 70
0
 10
506.728346
 20
-145.359640
 30
0.0
 10
469.877953
 20
-145.359640
 30
0.0
  0
LWPOLYLINE
  5
24c
100
AcDbEntity
  8
0
 62
7
100
AcDbPolyline
 90
2
 70
0
 10
670.145669
 20
-183.627356
 30
0.0
 10
670.145669
 20
-146.776963
 30
0.0
  0
LWPOLYLINE
  5
24d
100
AcDbEntity
  8
0
 62
7
100
AcDbPolyline
 90
2
 70
0
 10
631.877953
 20
-185.044679
 30
0.0
 10
668.728346
 20
-185.044679
 30
0.0
  0
LWPOLYLINE
  5
24e
100
AcDbEntity
  8
0
 62
7
100
AcDbPolyline
 90
2
 70
0
 10
630.460630
 20
-146.776963
 30
0.0
 10
630.460630
 20
-183.627356
 30
0.0
  0
LWPOLYLINE
  5
24f
100
AcDbEntity
  8
0
 62
7
100
AcDbPolyline
 90
2
 70
0
 10
668.728346
 20
-145.359640
 30
0.0
 10
631.877953
 20
-145.359640
 30
0.0
  0
LWPOLYLINE
  5
250
100
AcDbEntity
  8
0
 62
7
100
AcDbPolyline
 90
2
 70
0
 10
715.978346
 20
-91.359640
 30
0.0
 10
679.127953
 20
-91.359640
 30
0.0
  0
LWPOLYLINE
  5
251
100
AcDbEntity
  8
0
 62
7
100
AcDbPolyline
 90
2
 70
0
 10
677.710630
 20
-92.776963
 30
0.0
 10
677.710630
 20
-129.627356
 30
0.0
  0
LWPOLYLINE
  5
252
100
AcDbEntity
  8
0
 62
7
100
AcDbPolyline
 90
2
 70
0
 10
679.127953
 20
-131.044679
 30
0.0
 10
715.978346
 20
-131.044679
 30
0.0
  0
SPLINE
  5
253
100
AcDbEntity
  8
0
 62
7
100
AcDbSpline
 70
8
 71
3
 72
8
 73
4
 74
0
 40
0
 40
0
 40
0
 40
0
 40
1
 40
1
 40
1
 40
1
 10
717.395669
 20
-92.776963
 30
0.0
 10
717.395669
 20
-92.401065
 30
0.0
 10
717.246345
 20
-92.040564
 30
0.0
 10
716.980545
 20
-91.774764
 30
0.0
  0
SPLINE
  5
254
100
AcDbEntity
  8
0
 62
7
100
AcDbSpline
 70
8
 71
3
 72
8
 73
4
 74
0
 40
0
 40
0
 40
0
 40
0
 40
1
 40
1
 40
1
 40
1
 10
716.980545
 20
-91.774764
 30
0.0
 10
716.714745
 20
-91.508965
 30
0.0
 10
716.354244
 20
-91.359640
 30
0.0
 10
715.978346
 20
-91.359640
 30
0.0
  0
SPLINE
  5
255
100
AcDbEntity
  8
0
 62
7
100
AcDbSpline
 70
8
 71
3
 72
8
 73
4
 74
0
 40
0
 40
0
 40
0
 40
0
 40
1
 40
1
 40
1
 40
1
 10
679.127953
 20
-91.359640
 30
0.0
 10
678.752055
 20
-91.359640
 30
0.0
 10
678.391554
 20
-91.508965
 30
0.0
 10
678.125754
 20
-91.774764
 30
0.0
  0
SPLINE
  5
256
100
AcDbEntity
  8
0
 62
7
100
AcDbSpline
 70
8
 71
3
 72
8
 73
4
 74
0
 40
0
 40
0
 40
0
 40
0
 40
1
 40
1
 40
1
 40
1
 10
678.125754
 20
-91.774764
 30
0.0
 10
677.859955
 20
-92.040564
 30
0.0
 10
677.710630
 20
-92.401065
 30
0.0
 10
677.710630
 20
-92.776963
 30
0.0
  0
SPLINE
  5
257
100
AcDbEntity
  8
0
 62
7
100
AcDbSpline
 70
8
 71
3
 72
8
 73
4
 74
0
 40
0
 40
0
 40
0
 40
0
 40
1
 40
1
 40
1
 40
1
 10
677.710630
 20
-129.627356
 30
0.0
 10
677.710630
 20
-130.003254
 30
0.0
 10
677.859955
 20
-130.363755
 30
0.0
 10
678.125754
 20
-130.629555
 30
0.0
  0
SPLINE
  5
258
100
AcDbEntity
  8
0
 62
7
100
AcDbSpline
 70
8
 71
3
 72
8
 73
4
 74
0
 40
0
 40
0
 40
0
 40
0
 40
1
 40
1
 40
1
 40
1
 10
678.125754
 20
-130.629555
 30
0.0
 10
678.391554
 20
-130.895355
 30
0.0
 10
678.752055
 20
-131.044679
 30
0.0
 10
679.127953
 20
-131.044679
 30
0.0
  0
SPLINE
  5
259
100
AcDbEntity
  8
0
 62
7
100
AcDbSpline
 70
8
 71
3
 72
8
 73
4
 74
0
 40
0
 40
0
 40
0
 40
0
 40
1
 40
1
 40
1
 40
1
 10
715.978346
 20
-131.044679
 30
0.0
 10
716.354244
 20
-131.044679
 30
0.0
 10
716.714745
 20
-130.895355
 30
0.0
 10
716.980545
 20
-130.629555
 30
0.0
  0
SPLINE
  5
25a
100
AcDbEntity
  8
0
 62
7
100
AcDbSpline
 70
8
 71
3
 72
8
 73
4
 74
0
 40
0
 40
0
 40
0
 40
0
 40
1
 40
1
 40
1
 40
1
 10
716.980545
 20
-130.629555
 30
0.0
 10
717.246345
 20
-130.363755
 30
0.0
 10
717.395669
 20
-130.003254
 30
0.0
 10
717.395669
 20
-129.627356
 30
0.0
  0
LWPOLYLINE
  5
25b
100
AcDbEntity
  8
0
 62
7
100
AcDbPolyline
 90
2
 70
0
 10
717.395669
 20
-129.627356
 30
0.0
 10
717.395669
 20
-92.776963
 30
0.0
  0
LWPOLYLINE
  5
25c
100
AcDbEntity
  8
0
 62
7
100
AcDbPolyline
 90
2
 70
0
 10
452.728346
 20
-145.359640
 30
0.0
 10
415.877953
 20
-145.359640
 30
0.0
  0
LWPOLYLINE
  5
25d
100
AcDbEntity
  8
0
 62
7
100
AcDbPolyline
 90
2
 70
0
 10
414.460630
 20
-146.776963
 30
0.0
 10
414.460630
 20
-183.627356
 30
0.0
  0
LWPOLYLINE
  5
25e
100
AcDbEntity
  8
0
 62
7
100
AcDbPolyline
 90
2
 70
0
 10
415.877953
 20
-185.044679
 30
0.0
 10
452.728346
 20
-185.044679
 30
0.0
  0
SPLINE
  5
25f
100
AcDbEntity
  8
0
 62
7
100
AcDbSpline
 70
8
 71
3
 72
8
 73
4
 74
0
 40
0
 40
0
 40
0
 40
0
 40
1
 40
1
 40
1
 40
1
 10
454.145669
 20
-146.776963
 30
0.0
 10
454.145669
 20
-146.401065
 30
0.0
 10
453.996345
 20
-146.040564
 30
0.0
 10
453.730545
 20
-145.774764
 30
0.0
  0
SPLINE
  5
260
100
AcDbEntity
  8
0
 62
7
100
AcDbSpline
 70
8
 71
3
 72
8
 73
4
 74
0
 40
0
 40
0
 40
0
 40
0
 40
1
 40
1
 40
1
 40
1
 10
453.730545
 20
-145.774764
 30
0.0
 10
453.464745
 20
-145.508965
 30
0.0
 10
453.104244
 20
-145.359640
 30
0.0
 10
452.728346
 20
-145.359640
 30
0.0
  0
SPLINE
  5
261
100
AcDbEntity
  8
0
 62
7
100
AcDbSpline
 70
8
 71
3
 72
8
 73
4
 74
0
 40
0
 40
0
 40
0
 40
0
 40
1
 40
1
 40
1
 40
1
 10
415.877953
 20
-145.359640
 30
0.0
 10
415.502055
 20
-145.359640
 30
0.0
 10
415.141554
 20
-145.508965
 30
0.0
 10
414.875754
 20
-145.774764
 30
0.0
  0
SPLINE
  5
262
100
AcDbEntity
  8
0
 62
7
100
AcDbSpline
 70
8
 71
3
 72
8
 73
4
 74
0
 40
0
 40
0
 40
0
 40
0
 40
1
 40
1
 40
1
 40
1
 10
414.875754
 20
-145.774764
 30
0.0
 10
414.609955
 20
-146.040564
 30
0.0
 10
414.460630
 20
-146.401065
 30
0.0
 10
414.460630
 20
-146.776963
 30
0.0
  0
SPLINE
  5
263
100
AcDbEntity
  8
0
 62
7
100
AcDbSpline
 70
8
 71
3
 72
8
 73
4
 74
0
 40
0
 40
0
 40
0
 40
0
 40
1
 40
1
 40
1
 40
1
 10
414.460630
 20
-183.627356
 30
0.0
 10
414.460630
 20
-184.003254
 30
0.0
 10
414.609955
 20
-184.363755
 30
0.0
 10
414.875754
 20
-184.629555
 30
0.0
  0
SPLINE
  5
264
100
AcDbEntity
  8
0
 62
7
100
AcDbSpline
 70
8
 71
3
 72
8
 73
4
 74
0
 40
0
 40
0
 40
0
 40
0
 40
1
 40
1
 40
1
 40
1
 10
414.875754
 20
-184.629555
 30
0.0
 10
415.141554
 20
-184.895355
 30
0.0
 10
415.502055
 20
-185.044679
 30
0.0
 10
415.877953
 20
-185.044679
 30
0.0
  0
SPLINE
  5
265
100
AcDbEntity
  8
0
 62
7
100
AcDbSpline
 70
8
 71
3
 72
8
 73
4
 74
0
 40
0
 40
0
 40
0
 40
0
 40
1
 40
1
 40
1
 40
1
 10
452.728346
 20
-185.044679
 30
0.0
 10
453.104244
 20
-185.044679
 30
0.0
 10
453.464745
 20
-184.895355
 30
0.0
 10
453.730545
 20
-184.629555
 30
0.0
  0
SPLINE
  5
266
100
AcDbEntity
  8
0
 62
7
100
AcDbSpline
 70
8
 71
3
 72
8
 73
4
 74
0
 40
0
 40
0
 40
0
 40
0
 40
1
 40
1
 40
1
 40
1
 10
453.730545
 20
-184.629555
 30
0.0
 10
453.996345
 20
-184.363755
 30
0.0
 10
454.145669
 20
-184.003254
 30
0.0
 10
454.145669
 20
-183.627356
 30
0.0
  0
LWPOLYLINE
  5
267
100
AcDbEntity
  8
0
 62
7
100
AcDbPolyline
 90
2
 70
0
 10
454.145669
 20
-183.627356
 30
0.0
 10
454.145669
 20
-146.776963
 30
0.0
  0
LWPOLYLINE
  5
268
100
AcDbEntity
  8
0
 62
7
100
AcDbPolyline
 90
2
 70
0
 10
729.478346
 20
-145.359640
 30
0.0
 10
692.627953
 20
-145.359640
 30
0.0
  0
LWPOLYLINE
  5
269
100
AcDbEntity
  8
0
 62
7
100
AcDbPolyline
 90
2
 70
0
 10
691.210630
 20
-146.776963
 30
0.0
 10
691.210630
 20
-183.627356
 30
0.0
  0
LWPOLYLINE
  5
26a
100
AcDbEntity
  8
0
 62
7
100
AcDbPolyline
 90
2
 70
0
 10
692.627953
 20
-185.044679
 30
0.0
 10
729.478346
 20
-185.044679
 30
0.0
  0
SPLINE
  5
26b
100
AcDbEntity
  8
0
 62
7
100
AcDbSpline
 70
8
 71
3
 72
8
 73
4
 74
0
 40
0
 40
0
 40
0
 40
0
 40
1
 40
1
 40
1
 40
1
 10
730.895669
 20
-146.776963
 30
0.0
 10
730.895669
 20
-146.401065
 30
0.0
 10
730.746345
 20
-146.040564
 30
0.0
 10
730.480545
 20
-145.774764
 30
0.0
  0
SPLINE
  5
26c
100
AcDbEntity
  8
0
 62
7
100
AcDbSpline
 70
8
 71
3
 72
8
 73
4
 74
0
 40
0
 40
0
 40
0
 40
0
 40
1
 40
1
 40
1
 40
1
 10
730.480545
 20
-145.774764
 30
0.0
 10
730.214745
 20
-145.508965
 30
0.0
 10
729.854244
 20
-145.359640
 30
0.0
 10
729.478346
 20
-145.359640
 30
0.0
  0
SPLINE
  5
26d
100
AcDbEntity
  8
0
 62
7
100
AcDbSpline
 70
8
 71
3
 72
8
 73
4
 74
0
 40
0
 40
0
 40
0
 40
0
 40
1
 40
1
 40
1
 40
1
 10
692.627953
 20
-145.359640
 30
0.0
 10
692.252055
 20
-145.359640
 30
0.0
 10
691.891554
 20
-145.508965
 30
0.0
 10
691.625754
 20
-145.774764
 30
0.0
  0
SPLINE
  5
26e
100
AcDbEntity
  8
0
 62
7
100
AcDbSpline
 70
8
 71
3
 72
8
 73
4
 74
0
 40
0
 40
0
 40
0
 40
0
 40
1
 40
1
 40
1
 40
1
 10
691.625754
 20
-145.774764
 30
0.0
 10
691.359955
 20
-146.040564
 30
0.0
 10
691.210630
 20
-146.401065
 30
0.0
 10
691.210630
 20
-146.776963
 30
0.0
  0
SPLINE
  5
26f
100
AcDbEntity
  8
0
 62
7
100
AcDbSpline
 70
8
 71
3
 72
8
 73
4
 74
0
 40
0
 40
0
 40
0
 40
0
 40
1
 40
1
 40
1
 40
1
 10
691.210630
 20
-183.627356
 30
0.0
 10
691.210630
 20
-184.003254
 30
0.0
 10
691.359955
 20
-184.363755
 30
0.0
 10
691.625754
 20
-184.629555
 30
0.0
  0
SPLINE
  5
270
100
AcDbEntity
  8
0
 62
7
100
AcDbSpline
 70
8
 71
3
 72
8
 73
4
 74
0
 40
0
 40
0
 40
0
 40
0
 40
1
 40
1
 40
1
 40
1
 10
691.625754
 20
-184.629555
 30
0.0
 10
691.891554
 20
-184.895355
 30
0.0
 10
692.252055
 20
-185.044679
 30
0.0
 10
692.627953
 20
-185.044679
 30
0.0
  0
SPLINE
  5
271
100
AcDbEntity
  8
0
 62
7
100
AcDbSpline
 70
8
 71
3
 72
8
 73
4
 74
0
 40
0
 40
0
 40
0
 40
0
 40
1
 40
1
 40
1
 40
1
 10
729.478346
 20
-185.044679
 30
0.0
 10
729.854244
 20
-185.044679
 30
0.0
 10
730.214745
 20
-184.895355
 30
0.0
 10
730.480545
 20
-184.629555
 30
0.0
  0
SPLINE
  5
272
100
AcDbEntity
  8
0
 62
7
100
AcDbSpline
 70
8
 71
3
 72
8
 73
4
 74
0
 40
0
 40
0
 40
0
 40
0
 40
1
 40
1
 40
1
 40
1
 10
730.480545
 20
-184.629555
 30
0.0
 10
730.746345
 20
-184.363755
 30
0.0
 10
730.895669
 20
-184.003254
 30
0.0
 10
730.895669
 20
-183.627356
 30
0.0
  0
LWPOLYLINE
  5
273
100
AcDbEntity
  8
0
 62
7
100
AcDbPolyline
 90
2
 70
0
 10
730.895669
 20
-183.627356
 30
0.0
 10
730.895669
 20
-146.776963
 30
0.0
  0
LWPOLYLINE
  5
274
100
AcDbEntity
  8
0
 62
7
100
AcDbPolyline
 90
2
 70
0
 10
371.728346
 20
-91.359640
 30
0.0
 10
334.877953
 20
-91.359640
 30
0.0
  0
LWPOLYLINE
  5
275
100
AcDbEntity
  8
0
 62
7
100
AcDbPolyline
 90
2
 70
0
 10
333.460630
 20
-92.776963
 30
0.0
 10
333.460630
 20
-129.627356
 30
0.0
  0
LWPOLYLINE
  5
276
100
AcDbEntity
  8
0
 62
7
100
AcDbPolyline
 90
2
 70
0
 10
334.877953
 20
-131.044679
 30
0.0
 10
371.728346
 20
-131.044679
 30
0.0
  0
SPLINE
  5
277
100
AcDbEntity
  8
0
 62
7
100
AcDbSpline
 70
8
 71
3
 72
8
 73
4
 74
0
 40
0
 40
0
 40
0
 40
0
 40
1
 40
1
 40
1
 40
1
 10
373.145669
 20
-92.776963
 30
0.0
 10
373.145669
 20
-92.401065
 30
0.0
 10
372.996345
 20
-92.040564
 30
0.0
 10
372.730545
 20
-91.774764
 30
0.0
  0
SPLINE
  5
278
100
AcDbEntity
  8
0
 62
7
100
AcDbSpline
 70
8
 71
3
 72
8
 73
4
 74
0
 40
0
 40
0
 40
0
 40
0
 40
1
 40
1
 40
1
 40
1
 10
372.730545
 20
-91.774764
 30
0.0
 10
372.464745
 20
-91.508965
 30
0.0
 10
372.104244
 20
-91.359640
 30
0.0
 10
371.728346
 20
-91.359640
 30
0.0
  0
SPLINE
  5
279
100
AcDbEntity
  8
0
 62
7
100
AcDbSpline
 70
8
 71
3
 72
8
 73
4
 74
0
 40
0
 40
0
 40
0
 40
0
 40
1
 40
1
 40
1
 40
1
 10
334.877953
 20
-91.359640
 30
0.0
 10
334.502055
 20
-91.359640
 30
0.0
 10
334.141554
 20
-91.508965
 30
0.0
 10
333.875754
 20
-91.774764
 30
0.0
  0
SPLINE
  5
27a
100
AcDbEntity
  8
0
 62
7
100
AcDbSpline
 70
8
 71
3
 72
8
 73
4
 74
0
 40
0
 40
0
 40
0
 40
0
 40
1
 40
1
 40
1
 40
1
 10
333.875754
 20
-91.774764
 30
0.0
 10
333.609955
 20
-92.040564
 30
0.0
 10
333.460630
 20
-92.401065
 30
0.0
 10
333.460630
 20
-92.776963
 30
0.0
  0
SPLINE
  5
27b
100
AcDbEntity
  8
0
 62
7
100
AcDbSpline
 70
8
 71
3
 72
8
 73
4
 74
0
 40
0
 40
0
 40
0
 40
0
 40
1
 40
1
 40
1
 40
1
 10
333.460630
 20
-129.627356
 30
0.0
 10
333.460630
 20
-130.003254
 30
0.0
 10
333.609955
 20
-130.363755
 30
0.0
 10
333.875754
 20
-130.629555
 30
0.0
  0
SPLINE
  5
27c
100
AcDbEntity
  8
0
 62
7
100
AcDbSpline
 70
8
 71
3
 72
8
 73
4
 74
0
 40
0
 40
0
 40
0
 40
0
 40
1
 40
1
 40
1
 40
1
 10
333.875754
 20
-130.629555
 30
0.0
 10
334.141554
 20
-130.895355
 30
0.0
 10
334.502055
 20
-131.044679
 30
0.0
 10
334.877953
 20
-131.044679
 30
0.0
  0
SPLINE
  5
27d
100
AcDbEntity
  8
0
 62
7
100
AcDbSpline
 70
8
 71
3
 72
8
 73
4
 74
0
 40
0
 40
0
 40
0
 40
0
 40
1
 40
1
 40
1
 40
1
 10
371.728346
 20
-131.044679
 30
0.0
 10
372.104244
 20
-131.044679
 30
0.0
 10
372.464745
 20
-130.895355
 30
0.0
 10
372.730545
 20
-130.629555
 30
0.0
  0
SPLINE
  5
27e
100
AcDbEntity
  8
0
 62
7
100
AcDbSpline
 70
8
 71
3
 72
8
 73
4
 74
0
 40
0
 40
0
 40
0
 40
0
 40
1
 40
1
 40
1
 40
1
 10
372.730545
 20
-130.629555
 30
0.0
 10
372.996345
 20
-130.363755
 30
0.0
 10
373.145669
 20
-130.003254
 30
0.0
 10
373.145669
 20
-129.627356
 30
0.0
  0
LWPOLYLINE
  5
27f
100
AcDbEntity
  8
0
 62
7
100
AcDbPolyline
 90
2
 70
0
 10
373.145669
 20
-129.627356
 30
0.0
 10
373.145669
 20
-92.776963
 30
0.0
  0
LWPOLYLINE
  5
280
100
AcDbEntity
  8
0
 62
7
100
AcDbPolyline
 90
2
 70
0
 10
398.728346
 20
-145.359640
 30
0.0
 10
361.877953
 20
-145.359640
 30
0.0
  0
LWPOLYLINE
  5
281
100
AcDbEntity
  8
0
 62
7
100
AcDbPolyline
 90
2
 70
0
 10
360.460630
 20
-146.776963
 30
0.0
 10
360.460630
 20
-183.627356
 30
0.0
  0
LWPOLYLINE
  5
282
100
AcDbEntity
  8
0
 62
7
100
AcDbPolyline
 90
2
 70
0
 10
361.877953
 20
-185.044679
 30
0.0
 10
398.728346
 20
-185.044679
 30
0.0
  0
SPLINE
  5
283
100
AcDbEntity
  8
0
 62
7
100
AcDbSpline
 70
8
 71
3
 72
8
 73
4
 74
0
 40
0
 40
0
 40
0
 40
0
 40
1
 40
1
 40
1
 40
1
 10
400.145669
 20
-146.776963
 30
0.0
 10
400.145669
 20
-146.401065
 30
0.0
 10
399.996345
 20
-146.040564
 30
0.0
 10
399.730545
 20
-145.774764
 30
0.0
  0
SPLINE
  5
284
100
AcDbEntity
  8
0
 62
7
100
AcDbSpline
 70
8
 71
3
 72
8
 73
4
 74
0
 40
0
 40
0
 40
0
 40
0
 40
1
 40
1
 40
1
 40
1
 10
399.730545
 20
-145.774764
 30
0.0
 10
399.464745
 20
-145.508965
 30
0.0
 10
399.104244
 20
-145.359640
 30
0.0
 10
398.728346
 20
-145.359640
 30
0.0
  0
SPLINE
  5
285
100
AcDbEntity
  8
0
 62
7
100
AcDbSpline
 70
8
 71
3
 72
8
 73
4
 74
0
 40
0
 40
0
 40
0
 40
0
 40
1
 40
1
 40
1
 40
1
 10
361.877953
 20
-145.359640
 30
0.0
 10
361.502055
 20
-145.359640
 30
0.0
 10
361.141554
 20
-145.508965
 30
0.0
 10
360.875754
 20
-145.774764
 30
0.0
  0
SPLINE
  5
286
100
AcDbEntity
  8
0
 62
7
100
AcDbSpline
 70
8
 71
3
 72
8
 73
4
 74
0
 40
0
 40
0
 40
0
 40
0
 40
1
 40
1
 40
1
 40
1
 10
360.875754
 20
-145.774764
 30
0.0
 10
360.609955
 20
-146.040564
 30
0.0
 10
360.460630
 20
-146.401065
 30
0.0
 10
360.460630
 20
-146.776963
 30
0.0
  0
SPLINE
  5
287
100
AcDbEntity
  8
0
 62
7
100
AcDbSpline
 70
8
 71
3
 72
8
 73
4
 74
0
 40
0
 40
0
 40
0
 40
0
 40
1
 40
1
 40
1
 40
1
 10
360.460630
 20
-183.627356
 30
0.0
 10
360.460630
 20
-184.003254
 30
0.0
 10
360.609955
 20
-184.363755
 30
0.0
 10
360.875754
 20
-184.629555
 30
0.0
  0
SPLINE
  5
288
100
AcDbEntity
  8
0
 62
7
100
AcDbSpline
 70
8
 71
3
 72
8
 73
4
 74
0
 40
0
 40
0
 40
0
 40
0
 40
1
 40
1
 40
1
 40
1
 10
360.875754
 20
-184.629555
 30
0.0
 10
361.141554
 20
-184.895355
 30
0.0
 10
361.502055
 20
-185.044679
 30
0.0
 10
361.877953
 20
-185.044679
 30
0.0
  0
SPLINE
  5
289
100
AcDbEntity
  8
0
 62
7
100
AcDbSpline
 70
8
 71
3
 72
8
 73
4
 74
0
 40
0
 40
0
 40
0
 40
0
 40
1
 40
1
 40
1
 40
1
 10
398.728346
 20
-185.044679
 30
0.0
 10
399.104244
 20
-185.044679
 30
0.0
 10
399.464745
 20
-184.895355
 30
0.0
 10
399.730545
 20
-184.629555
 30
0.0
  0
SPLINE
  5
28a
100
AcDbEntity
  8
0
 62
7
100
AcDbSpline
 70
8
 71
3
 72
8
 73
4
 74
0
 40
0
 40
0
 40
0
 40
0
 40
1
 40
1
 40
1
 40
1
 10
399.730545
 20
-184.629555
 30
0.0
 10
399.996345
 20
-184.363755
 30
0.0
 10
400.145669
 20
-184.003254
 30
0.0
 10
400.145669
 20
-183.627356
 30
0.0
  0
LWPOLYLINE
  5
28b
100
AcDbEntity
  8
0
 62
7
100
AcDbPolyline
 90
2
 70
0
 10
400.145669
 20
-183.627356
 30
0.0
 10
400.145669
 20
-146.776963
 30
0.0
  0
LWPOLYLINE
  5
28c
100
AcDbEntity
  8
0
 62
7
100
AcDbPolyline
 90
2
 70
0
 10
425.728346
 20
-91.359640
 30
0.0
 10
388.877953
 20
-91.359640
 30
0.0
  0
LWPOLYLINE
  5
28d
100
AcDbEntity
  8
0
 62
7
100
AcDbPolyline
 90
2
 70
0
 10
387.460630
 20
-92.776963
 30
0.0
 10
387.460630
 20
-129.627356
 30
0.0
  0
LWPOLYLINE
  5
28e
100
AcDbEntity
  8
0
 62
7
100
AcDbPolyline
 90
2
 70
0
 10
388.877953
 20
-131.044679
 30
0.0
 10
425.728346
 20
-131.044679
 30
0.0
  0
SPLINE
  5
28f
100
AcDbEntity
  8
0
 62
7
100
AcDbSpline
 70
8
 71
3
 72
8
 73
4
 74
0
 40
0
 40
0
 40
0
 40
0
 40
1
 40
1
 40
1
 40
1
 10
427.145669
 20
-92.776963
 30
0.0
 10
427.145669
 20
-92.401065
 30
0.0
 10
426.996345
 20
-92.040564
 30
0.0
 10
426.730545
 20
-91.774764
 30
0.0
  0
SPLINE
  5
290
100
AcDbEntity
  8
0
 62
7
100
AcDbSpline
 70
8
 71
3
 72
8
 73
4
 74
0
 40
0
 40
0
 40
0
 40
0
 40
1
 40
1
 40
1
 40
1
 10
426.730545
 20
-91.774764
 30
0.0
 10
426.464745
 20
-91.508965
 30
0.0
 10
426.104244
 20
-91.359640
 30
0.0
 10
425.728346
 20
-91.359640
 30
0.0
  0
SPLINE
  5
291
100
AcDbEntity
  8
0
 62
7
100
AcDbSpline
 70
8
 71
3
 72
8
 73
4
 74
0
 40
0
 40
0
 40
0
 40
0
 40
1
 40
1
 40
1
 40
1
 10
388.877953
 20
-91.359640
 30
0.0
 10
388.502055
 20
-91.359640
 30
0.0
 10
388.141554
 20
-91.508965
 30
0.0
 10
387.875754
 20
-91.774764
 30
0.0
  0
SPLINE
  5
292
100
AcDbEntity
  8
0
 62
7
100
AcDbSpline
 70
8
 71
3
 72
8
 73
4
 74
0
 40
0
 40
0
 40
0
 40
0
 40
1
 40
1
 40
1
 40
1
 10
387.875754
 20
-91.774764
 30
0.0
 10
387.609955
 20
-92.040564
 30
0.0
 10
387.460630
 20
-92.401065
 30
0.0
 10
387.460630
 20
-92.776963
 30
0.0
  0
SPLINE
  5
293
100
AcDbEntity
  8
0
 62
7
100
AcDbSpline
 70
8
 71
3
 72
8
 73
4
 74
0
 40
0
 40
0
 40
0
 40
0
 40
1
 40
1
 40
1
 40
1
 10
387.460630
 20
-129.627356
 30
0.0
 10
387.460630
 20
-130.003254
 30
0.0
 10
387.609955
 20
-130.363755
 30
0.0
 10
387.875754
 20
-130.629555
 30
0.0
  0
SPLINE
  5
294
100
AcDbEntity
  8
0
 62
7
100
AcDbSpline
 70
8
 71
3
 72
8
 73
4
 74
0
 40
0
 40
0
 40
0
 40
0
 40
1
 40
1
 40
1
 40
1
 10
387.875754
 20
-130.629555
 30
0.0
 10
388.141554
 20
-130.895355
 30
0.0
 10
388.502055
 20
-131.044679
 30
0.0
 10
388.877953
 20
-131.044679
 30
0.0
  0
SPLINE
  5
295
100
AcDbEntity
  8
0
 62
7
100
AcDbSpline
 70
8
 71
3
 72
8
 73
4
 74
0
 40
0
 40
0
 40
0
 40
0
 40
1
 40
1
 40
1
 40
1
 10
425.728346
 20
-131.044679
 30
0.0
 10
426.104244
 20
-131.044679
 30
0.0
 10
426.464745
 20
-130.895355
 30
0.0
 10
426.730545
 20
-130.629555
 30
0.0
  0
SPLINE
  5
296
100
AcDbEntity
  8
0
 62
7
100
AcDbSpline
 70
8
 71
3
 72
8
 73
4
 74
0
 40
0
 40
0
 40
0
 40
0
 40
1
 40
1
 40
1
 40
1
 10
426.730545
 20
-130.629555
 30
0.0
 10
426.996345
 20
-130.363755
 30
0.0
 10
427.145669
 20
-130.003254
 30
0.0
 10
427.145669
 20
-129.627356
 30
0.0
  0
LWPOLYLINE
  5
297
100
AcDbEntity
  8
0
 62
7
100
AcDbPolyline
 90
2
 70
0
 10
427.145669
 20
-129.627356
 30
0.0
 10
427.145669
 20
-92.776963
 30
0.0
  0
LWPOLYLINE
  5
298
100
AcDbEntity
  8
0
 62
7
100
AcDbPolyline
 90
2
 70
0
 10
236.728346
 20
-145.359640
 30
0.0
 10
199.877953
 20
-145.359640
 30
0.0
  0
LWPOLYLINE
  5
299
100
AcDbEntity
  8
0
 62
7
100
AcDbPolyline
 90
2
 70
0
 10
198.460630
 20
-146.776963
 30
0.0
 10
198.460630
 20
-183.627356
 30
0.0
  0
LWPOLYLINE
  5
29a
100
AcDbEntity
  8
0
 62
7
100
AcDbPolyline
 90
2
 70
0
 10
199.877953
 20
-185.044679
 30
0.0
 10
236.728346
 20
-185.044679
 30
0.0
  0
SPLINE
  5
29b
100
AcDbEntity
  8
0
 62
7
100
AcDbSpline
 70
8
 71
3
 72
8
 73
4
 74
0
 40
0
 40
0
 40
0
 40
0
 40
1
 40
1
 40
1
 40
1
 10
238.145669
 20
-146.776963
 30
0.0
 10
238.145669
 20
-146.401065
 30
0.0
 10
237.996345
 20
-146.040564
 30
0.0
 10
237.730545
 20
-145.774764
 30
0.0
  0
SPLINE
  5
29c
100
AcDbEntity
  8
0
 62
7
100
AcDbSpline
 70
8
 71
3
 72
8
 73
4
 74
0
 40
0
 40
0
 40
0
 40
0
 40
1
 40
1
 40
1
 40
1
 10
237.730545
 20
-145.774764
 30
0.0
 10
237.464745
 20
-145.508965
 30
0.0
 10
237.104244
 20
-145.359640
 30
0.0
 10
236.728346
 20
-145.359640
 30
0.0
  0
SPLINE
  5
29d
100
AcDbEntity
  8
0
 62
7
100
AcDbSpline
 70
8
 71
3
 72
8
 73
4
 74
0
 40
0
 40
0
 40
0
 40
0
 40
1
 40
1
 40
1
 40
1
 10
199.877953
 20
-145.359640
 30
0.0
 10
199.502055
 20
-145.359640
 30
0.0
 10
199.141554
 20
-145.508965
 30
0.0
 10
198.875754
 20
-145.774764
 30
0.0
  0
SPLINE
  5
29e
100
AcDbEntity
  8
0
 62
7
100
AcDbSpline
 70
8
 71
3
 72
8
 73
4
 74
0
 40
0
 40
0
 40
0
 40
0
 40
1
 40
1
 40
1
 40
1
 10
198.875754
 20
-145.774764
 30
0.0
 10
198.609955
 20
-146.040564
 30
0.0
 10
198.460630
 20
-146.401065
 30
0.0
 10
198.460630
 20
-146.776963
 30
0.0
  0
SPLINE
  5
29f
100
AcDbEntity
  8
0
 62
7
100
AcDbSpline
 70
8
 71
3
 72
8
 73
4
 74
0
 40
0
 40
0
 40
0
 40
0
 40
1
 40
1
 40
1
 40
1
 10
198.460630
 20
-183.627356
 30
0.0
 10
198.460630
 20
-184.003254
 30
0.0
 10
198.609955
 20
-184.363755
 30
0.0
 10
198.875754
 20
-184.629555
 30
0.0
  0
SPLINE
  5
2a0
100
AcDbEntity
  8
0
 62
7
100
AcDbSpline
 70
8
 71
3
 72
8
 73
4
 74
0
 40
0
 40
0
 40
0
 40
0
 40
1
 40
1
 40
1
 40
1
 10
198.875754
 20
-184.629555
 30
0.0
 10
199.141554
 20
-184.895355
 30
0.0
 10
199.502055
 20
-185.044679
 30
0.0
 10
199.877953
 20
-185.044679
 30
0.0
  0
SPLINE
  5
2a1
100
AcDbEntity
  8
0
 62
7
100
AcDbSpline
 70
8
 71
3
 72
8
 73
4
 74
0
 40
0
 40
0
 40
0
 40
0
 40
1
 40
1
 40
1
 40
1
 10
236.728346
 20
-185.044679
 30
0.0
 10
237.104244
 20
-185.044679
 30
0.0
 10
237.464745
 20
-184.895355
 30
0.0
 10
237.730545
 20
-184.629555
 30
0.0
  0
SPLINE
  5
2a2
100
AcDbEntity
  8
0
 62
7
100
AcDbSpline
 70
8
 71
3
 72
8
 73
4
 74
0
 40
0
 40
0
 40
0
 40
0
 40
1
 40
1
 40
1
 40
1
 10
237.730545
 20
-184.629555
 30
0.0
 10
237.996345
 20
-184.363755
 30
0.0
 10
238.145669
 20
-184.003254
 30
0.0
 10
238.145669
 20
-183.627356
 30
0.0
  0
LWPOLYLINE
  5
2a3
100
AcDbEntity
  8
0
 62
7
100
AcDbPolyline
 90
2
 70
0
 10
238.145669
 20
-183.627356
 30
0.0
 10
238.145669
 20
-146.776963
 30
0.0
  0
LWPOLYLINE
  5
2a4
100
AcDbEntity
  8
0
 62
7
100
AcDbPolyline
 90
2
 70
0
 10
317.728346
 20
-91.359640
 30
0.0
 10
280.877953
 20
-91.359640
 30
0.0
  0
LWPOLYLINE
  5
2a5
100
AcDbEntity
  8
0
 62
7
100
AcDbPolyline
 90
2
 70
0
 10
279.460630
 20
-92.776963
 30
0.0
 10
279.460630
 20
-129.627356
 30
0.0
  0
LWPOLYLINE
  5
2a6
100
AcDbEntity
  8
0
 62
7
100
AcDbPolyline
 90
2
 70
0
 10
280.877953
 20
-131.044679
 30
0.0
 10
317.728346
 20
-131.044679
 30
0.0
  0
SPLINE
  5
2a7
100
AcDbEntity
  8
0
 62
7
100
AcDbSpline
 70
8
 71
3
 72
8
 73
4
 74
0
 40
0
 40
0
 40
0
 40
0
 40
1
 40
1
 40
1
 40
1
 10
319.145669
 20
-92.776963
 30
0.0
 10
319.145669
 20
-92.401065
 30
0.0
 10
318.996345
 20
-92.040564
 30
0.0
 10
318.730545
 20
-91.774764
 30
0.0
  0
SPLINE
  5
2a8
100
AcDbEntity
  8
0
 62
7
100
AcDbSpline
 70
8
 71
3
 72
8
 73
4
 74
0
 40
0
 40
0
 40
0
 40
0
 40
1
 40
1
 40
1
 40
1
 10
318.730545
 20
-91.774764
 30
0.0
 10
318.464745
 20
-91.508965
 30
0.0
 10
318.104244
 20
-91.359640
 30
0.0
 10
317.728346
 20
-91.359640
 30
0.0
  0
SPLINE
  5
2a9
100
AcDbEntity
  8
0
 62
7
100
AcDbSpline
 70
8
 71
3
 72
8
 73
4
 74
0
 40
0
 40
0
 40
0
 40
0
 40
1
 40
1
 40
1
 40
1
 10
280.877953
 20
-91.359640
 30
0.0
 10
280.502055
 20
-91.359640
 30
0.0
 10
280.141554
 20
-91.508965
 30
0.0
 10
279.875754
 20
-91.774764
 30
0.0
  0
SPLINE
  5
2aa
100
AcDbEntity
  8
0
 62
7
100
AcDbSpline
 70
8
 71
3
 72
8
 73
4
 74
0
 40
0
 40
0
 40
0
 40
0
 40
1
 40
1
 40
1
 40
1
 10
279.875754
 20
-91.774764
 30
0.0
 10
279.609955
 20
-92.040564
 30
0.0
 10
279.460630
 20
-92.401065
 30
0.0
 10
279.460630
 20
-92.776963
 30
0.0
  0
SPLINE
  5
2ab
100
AcDbEntity
  8
0
 62
7
100
AcDbSpline
 70
8
 71
3
 72
8
 73
4
 74
0
 40
0
 40
0
 40
0
 40
0
 40
1
 40
1
 40
1
 40
1
 10
279.460630
 20
-129.627356
 30
0.0
 10
279.460630
 20
-130.003254
 30
0.0
 10
279.609955
 20
-130.363755
 30
0.0
 10
279.875754
 20
-130.629555
 30
0.0
  0
SPLINE
  5
2ac
100
AcDbEntity
  8
0
 62
7
100
AcDbSpline
 70
8
 71
3
 72
8
 73
4
 74
0
 40
0
 40
0
 40
0
 40
0
 40
1
 40
1
 40
1
 40
1
 10
279.875754
 20
-130.629555
 30
0.0
 10
280.141554
 20
-130.895355
 30
0.0
 10
280.502055
 20
-131.044679
 30
0.0
 10
280.877953
 20
-131.044679
 30
0.0
  0
SPLINE
  5
2ad
100
AcDbEntity
  8
0
 62
7
100
AcDbSpline
 70
8
 71
3
 72
8
 73
4
 74
0
 40
0
 40
0
 40
0
 40
0
 40
1
 40
1
 40
1
 40
1
 10
317.728346
 20
-131.044679
 30
0.0
 10
318.104244
 20
-131.044679
 30
0.0
 10
318.464745
 20
-130.895355
 30
0.0
 10
318.730545
 20
-130.629555
 30
0.0
  0
SPLINE
  5
2ae
100
AcDbEntity
  8
0
 62
7
100
AcDbSpline
 70
8
 71
3
 72
8
 73
4
 74
0
 40
0
 40
0
 40
0
 40
0
 40
1
 40
1
 40
1
 40
1
 10
318.730545
 20
-130.629555
 30
0.0
 10
318.996345
 20
-130.363755
 30
0.0
 10
319.145669
 20
-130.003254
 30
0.0
 10
319.145669
 20
-129.627356
 30
0.0
  0
LWPOLYLINE
  5
2af
100
AcDbEntity
  8
0
 62
7
100
AcDbPolyline
 90
2
 70
0
 10
319.145669
 20
-129.627356
 30
0.0
 10
319.145669
 20
-92.776963
 30
0.0
  0
LWPOLYLINE
  5
2b0
100
AcDbEntity
  8
0
 62
7
100
AcDbPolyline
 90
2
 70
0
 10
533.728346
 20
-91.359640
 30
0.0
 10
496.877953
 20
-91.359640
 30
0.0
  0
LWPOLYLINE
  5
2b1
100
AcDbEntity
  8
0
 62
7
100
AcDbPolyline
 90
2
 70
0
 10
495.460630
 20
-92.776963
 30
0.0
 10
495.460630
 20
-129.627356
 30
0.0
  0
LWPOLYLINE
  5
2b2
100
AcDbEntity
  8
0
 62
7
100
AcDbPolyline
 90
2
 70
0
 10
496.877953
 20
-131.044679
 30
0.0
 10
533.728346
 20
-131.044679
 30
0.0
  0
SPLINE
  5
2b3
100
AcDbEntity
  8
0
 62
7
100
AcDbSpline
 70
8
 71
3
 72
8
 73
4
 74
0
 40
0
 40
0
 40
0
 40
0
 40
1
 40
1
 40
1
 40
1
 10
535.145669
 20
-92.776963
 30
0.0
 10
535.145669
 20
-92.401065
 30
0.0
 10
534.996345
 20
-92.040564
 30
0.0
 10
534.730545
 20
-91.774764
 30
0.0
  0
SPLINE
  5
2b4
100
AcDbEntity
  8
0
 62
7
100
AcDbSpline
 70
8
 71
3
 72
8
 73
4
 74
0
 40
0
 40
0
 40
0
 40
0
 40
1
 40
1
 40
1
 40
1
 10
534.730545
 20
-91.774764
 30
0.0
 10
534.464745
 20
-91.508965
 30
0.0
 10
534.104244
 20
-91.359640
 30
0.0
 10
533.728346
 20
-91.359640
 30
0.0
  0
SPLINE
  5
2b5
100
AcDbEntity
  8
0
 62
7
100
AcDbSpline
 70
8
 71
3
 72
8
 73
4
 74
0
 40
0
 40
0
 40
0
 40
0
 40
1
 40
1
 40
1
 40
1
 10
496.877953
 20
-91.359640
 30
0.0
 10
496.502055
 20
-91.359640
 30
0.0
 10
496.141554
 20
-91.508965
 30
0.0
 10
495.875754
 20
-91.774764
 30
0.0
  0
SPLINE
  5
2b6
100
AcDbEntity
  8
0
 62
7
100
AcDbSpline
 70
8
 71
3
 72
8
 73
4
 74
0
 40
0
 40
0
 40
0
 40
0
 40
1
 40
1
 40
1
 40
1
 10
495.875754
 20
-91.774764
 30
0.0
 10
495.609955
 20
-92.040564
 30
0.0
 10
495.460630
 20
-92.401065
 30
0.0
 10
495.460630
 20
-92.776963
 30
0.0
  0
SPLINE
  5
2b7
100
AcDbEntity
  8
0
 62
7
100
AcDbSpline
 70
8
 71
3
 72
8
 73
4
 74
0
 40
0
 40
0
 40
0
 40
0
 40
1
 40
1
 40
1
 40
1
 10
495.460630
 20
-129.627356
 30
0.0
 10
495.460630
 20
-130.003254
 30
0.0
 10
495.609955
 20
-130.363755
 30
0.0
 10
495.875754
 20
-130.629555
 30
0.0
  0
SPLINE
  5
2b8
100
AcDbEntity
  8
0
 62
7
100
AcDbSpline
 70
8
 71
3
 72
8
 73
4
 74
0
 40
0
 40
0
 40
0
 40
0
 40
1
 40
1
 40
1
 40
1
 10
495.875754
 20
-130.629555
 30
0.0
 10
496.141554
 20
-130.895355
 30
0.0
 10
496.502055
 20
-131.044679
 30
0.0
 10
496.877953
 20
-131.044679
 30
0.0
  0
SPLINE
  5
2b9
100
AcDbEntity
  8
0
 62
7
100
AcDbSpline
 70
8
 71
3
 72
8
 73
4
 74
0
 40
0
 40
0
 40
0
 40
0
 40
1
 40
1
 40
1
 40
1
 10
533.728346
 20
-131.044679
 30
0.0
 10
534.104244
 20
-131.044679
 30
0.0
 10
534.464745
 20
-130.895355
 30
0.0
 10
534.730545
 20
-130.629555
 30
0.0
  0
SPLINE
  5
2ba
100
AcDbEntity
  8
0
 62
7
100
AcDbSpline
 70
8
 71
3
 72
8
 73
4
 74
0
 40
0
 40
0
 40
0
 40
0
 40
1
 40
1
 40
1
 40
1
 10
534.730545
 20
-130.629555
 30
0.0
 10
534.996345
 20
-130.363755
 30
0.0
 10
535.145669
 20
-130.003254
 30
0.0
 10
535.145669
 20
-129.627356
 30
0.0
  0
LWPOLYLINE
  5
2bb
100
AcDbEntity
  8
0
 62
7
100
AcDbPolyline
 90
2
 70
0
 10
535.145669
 20
-129.627356
 30
0.0
 10
535.145669
 20
-92.776963
 30
0.0
  0
LWPOLYLINE
  5
2bc
100
AcDbEntity
  8
0
 62
7
100
AcDbPolyline
 90
2
 70
0
 10
290.728346
 20
-145.359640
 30
0.0
 10
253.877953
 20
-145.359640
 30
0.0
  0
LWPOLYLINE
  5
2bd
100
AcDbEntity
  8
0
 62
7
100
AcDbPolyline
 90
2
 70
0
 10
252.460630
 20
-146.776963
 30
0.0
 10
252.460630
 20
-183.627356
 30
0.0
  0
LWPOLYLINE
  5
2be
100
AcDbEntity
  8
0
 62
7
100
AcDbPolyline
 90
2
 70
0
 10
253.877953
 20
-185.044679
 30
0.0
 10
290.728346
 20
-185.044679
 30
0.0
  0
SPLINE
  5
2bf
100
AcDbEntity
  8
0
 62
7
100
AcDbSpline
 70
8
 71
3
 72
8
 73
4
 74
0
 40
0
 40
0
 40
0
 40
0
 40
1
 40
1
 40
1
 40
1
 10
292.145669
 20
-146.776963
 30
0.0
 10
292.145669
 20
-146.401065
 30
0.0
 10
291.996345
 20
-146.040564
 30
0.0
 10
291.730545
 20
-145.774764
 30
0.0
  0
SPLINE
  5
2c0
100
AcDbEntity
  8
0
 62
7
100
AcDbSpline
 70
8
 71
3
 72
8
 73
4
 74
0
 40
0
 40
0
 40
0
 40
0
 40
1
 40
1
 40
1
 40
1
 10
291.730545
 20
-145.774764
 30
0.0
 10
291.464745
 20
-145.508965
 30
0.0
 10
291.104244
 20
-145.359640
 30
0.0
 10
290.728346
 20
-145.359640
 30
0.0
  0
SPLINE
  5
2c1
100
AcDbEntity
  8
0
 62
7
100
AcDbSpline
 70
8
 71
3
 72
8
 73
4
 74
0
 40
0
 40
0
 40
0
 40
0
 40
1
 40
1
 40
1
 40
1
 10
253.877953
 20
-145.359640
 30
0.0
 10
253.502055
 20
-145.359640
 30
0.0
 10
253.141554
 20
-145.508965
 30
0.0
 10
252.875754
 20
-145.774764
 30
0.0
  0
SPLINE
  5
2c2
100
AcDbEntity
  8
0
 62
7
100
AcDbSpline
 70
8
 71
3
 72
8
 73
4
 74
0
 40
0
 40
0
 40
0
 40
0
 40
1
 40
1
 40
1
 40
1
 10
252.875754
 20
-145.774764
 30
0.0
 10
252.609955
 20
-146.040564
 30
0.0
 10
252.460630
 20
-146.401065
 30
0.0
 10
252.460630
 20
-146.776963
 30
0.0
  0
SPLINE
  5
2c3
100
AcDbEntity
  8
0
 62
7
100
AcDbSpline
 70
8
 71
3
 72
8
 73
4
 74
0
 40
0
 40
0
 40
0
 40
0
 40
1
 40
1
 40
1
 40
1
 10
252.460630
 20
-183.627356
 30
0.0
 10
252.460630
 20
-184.003254
 30
0.0
 10
252.609955
 20
-184.363755
 30
0.0
 10
252.875754
 20
-184.629555
 30
0.0
  0
SPLINE
  5
2c4
100
AcDbEntity
  8
0
 62
7
100
AcDbSpline
 70
8
 71
3
 72
8
 73
4
 74
0
 40
0
 40
0
 40
0
 40
0
 40
1
 40
1
 40
1
 40
1
 10
252.875754
 20
-184.629555
 30
0.0
 10
253.141554
 20
-184.895355
 30
0.0
 10
253.502055
 20
-185.044679
 30
0.0
 10
253.877953
 20
-185.044679
 30
0.0
  0
SPLINE
  5
2c5
100
AcDbEntity
  8
0
 62
7
100
AcDbSpline
 70
8
 71
3
 72
8
 73
4
 74
0
 40
0
 40
0
 40
0
 40
0
 40
1
 40
1
 40
1
 40
1
 10
290.728346
 20
-185.044679
 30
0.0
 10
291.104244
 20
-185.044679
 30
0.0
 10
291.464745
 20
-184.895355
 30
0.0
 10
291.730545
 20
-184.629555
 30
0.0
  0
SPLINE
  5
2c6
100
AcDbEntity
  8
0
 62
7
100
AcDbSpline
 70
8
 71
3
 72
8
 73
4
 74
0
 40
0
 40
0
 40
0
 40
0
 40
1
 40
1
 40
1
 40
1
 10
291.730545
 20
-184.629555
 30
0.0
 10
291.996345
 20
-184.363755
 30
0.0
 10
292.145669
 20
-184.003254
 30
0.0
 10
292.145669
 20
-183.627356
 30
0.0
  0
LWPOLYLINE
  5
2c7
100
AcDbEntity
  8
0
 62
7
100
AcDbPolyline
 90
2
 70
0
 10
292.145669
 20
-183.627356
 30
0.0
 10
292.145669
 20
-146.776963
 30
0.0
  0
LWPOLYLINE
  5
2c8
100
AcDbEntity
  8
0
 62
7
100
AcDbPolyline
 90
2
 70
0
 10
587.728346
 20
-91.359640
 30
0.0
 10
550.877953
 20
-91.359640
 30
0.0
  0
LWPOLYLINE
  5
2c9
100
AcDbEntity
  8
0
 62
7
100
AcDbPolyline
 90
2
 70
0
 10
549.460630
 20
-92.776963
 30
0.0
 10
549.460630
 20
-129.627356
 30
0.0
  0
LWPOLYLINE
  5
2ca
100
AcDbEntity
  8
0
 62
7
100
AcDbPolyline
 90
2
 70
0
 10
550.877953
 20
-131.044679
 30
0.0
 10
587.728346
 20
-131.044679
 30
0.0
  0
SPLINE
  5
2cb
100
AcDbEntity
  8
0
 62
7
100
AcDbSpline
 70
8
 71
3
 72
8
 73
4
 74
0
 40
0
 40
0
 40
0
 40
0
 40
1
 40
1
 40
1
 40
1
 10
589.145669
 20
-92.776963
 30
0.0
 10
589.145669
 20
-92.401065
 30
0.0
 10
588.996345
 20
-92.040564
 30
0.0
 10
588.730545
 20
-91.774764
 30
0.0
  0
SPLINE
  5
2cc
100
AcDbEntity
  8
0
 62
7
100
AcDbSpline
 70
8
 71
3
 72
8
 73
4
 74
0
 40
0
 40
0
 40
0
 40
0
 40
1
 40
1
 40
1
 40
1
 10
588.730545
 20
-91.774764
 30
0.0
 10
588.464745
 20
-91.508965
 30
0.0
 10
588.104244
 20
-91.359640
 30
0.0
 10
587.728346
 20
-91.359640
 30
0.0
  0
SPLINE
  5
2cd
100
AcDbEntity
  8
0
 62
7
100
AcDbSpline
 70
8
 71
3
 72
8
 73
4
 74
0
 40
0
 40
0
 40
0
 40
0
 40
1
 40
1
 40
1
 40
1
 10
550.877953
 20
-91.359640
 30
0.0
 10
550.502055
 20
-91.359640
 30
0.0
 10
550.141554
 20
-91.508965
 30
0.0
 10
549.875754
 20
-91.774764
 30
0.0
  0
SPLINE
  5
2ce
100
AcDbEntity
  8
0
 62
7
100
AcDbSpline
 70
8
 71
3
 72
8
 73
4
 74
0
 40
0
 40
0
 40
0
 40
0
 40
1
 40
1
 40
1
 40
1
 10
549.875754
 20
-91.774764
 30
0.0
 10
549.609955
 20
-92.040564
 30
0.0
 10
549.460630
 20
-92.401065
 30
0.0
 10
549.460630
 20
-92.776963
 30
0.0
  0
SPLINE
  5
2cf
100
AcDbEntity
  8
0
 62
7
100
AcDbSpline
 70
8
 71
3
 72
8
 73
4
 74
0
 40
0
 40
0
 40
0
 40
0
 40
1
 40
1
 40
1
 40
1
 10
549.460630
 20
-129.627356
 30
0.0
 10
549.460630
 20
-130.003254
 30
0.0
 10
549.609955
 20
-130.363755
 30
0.0
 10
549.875754
 20
-130.629555
 30
0.0
  0
SPLINE
  5
2d0
100
AcDbEntity
  8
0
 62
7
100
AcDbSpline
 70
8
 71
3
 72
8
 73
4
 74
0
 40
0
 40
0
 40
0
 40
0
 40
1
 40
1
 40
1
 40
1
 10
549.875754
 20
-130.629555
 30
0.0
 10
550.141554
 20
-130.895355
 30
0.0
 10
550.502055
 20
-131.044679
 30
0.0
 10
550.877953
 20
-131.044679
 30
0.0
  0
SPLINE
  5
2d1
100
AcDbEntity
  8
0
 62
7
100
AcDbSpline
 70
8
 71
3
 72
8
 73
4
 74
0
 40
0
 40
0
 40
0
 40
0
 40
1
 40
1
 40
1
 40
1
 10
587.728346
 20
-131.044679
 30
0.0
 10
588.104244
 20
-131.044679
 30
0.0
 10
588.464745
 20
-130.895355
 30
0.0
 10
588.730545
 20
-130.629555
 30
0.0
  0
SPLINE
  5
2d2
100
AcDbEntity
  8
0
 62
7
100
AcDbSpline
 70
8
 71
3
 72
8
 73
4
 74
0
 40
0
 40
0
 40
0
 40
0
 40
1
 40
1
 40
1
 40
1
 10
588.730545
 20
-130.629555
 30
0.0
 10
588.996345
 20
-130.363755
 30
0.0
 10
589.145669
 20
-130.003254
 30
0.0
 10
589.145669
 20
-129.627356
 30
0.0
  0
LWPOLYLINE
  5
2d3
100
AcDbEntity
  8
0
 62
7
100
AcDbPolyline
 90
2
 70
0
 10
589.145669
 20
-129.627356
 30
0.0
 10
589.145669
 20
-92.776963
 30
0.0
  0
LWPOLYLINE
  5
2d4
100
AcDbEntity
  8
0
 62
7
100
AcDbPolyline
 90
2
 70
0
 10
479.728346
 20
-91.359640
 30
0.0
 10
442.877953
 20
-91.359640
 30
0.0
  0
LWPOLYLINE
  5
2d5
100
AcDbEntity
  8
0
 62
7
100
AcDbPolyline
 90
2
 70
0
 10
441.460630
 20
-92.776963
 30
0.0
 10
441.460630
 20
-129.627356
 30
0.0
  0
LWPOLYLINE
  5
2d6
100
AcDbEntity
  8
0
 62
7
100
AcDbPolyline
 90
2
 70
0
 10
442.877953
 20
-131.044679
 30
0.0
 10
479.728346
 20
-131.044679
 30
0.0
  0
SPLINE
  5
2d7
100
AcDbEntity
  8
0
 62
7
100
AcDbSpline
 70
8
 71
3
 72
8
 73
4
 74
0
 40
0
 40
0
 40
0
 40
0
 40
1
 40
1
 40
1
 40
1
 10
481.145669
 20
-92.776963
 30
0.0
 10
481.145669
 20
-92.401065
 30
0.0
 10
480.996345
 20
-92.040564
 30
0.0
 10
480.730545
 20
-91.774764
 30
0.0
  0
SPLINE
  5
2d8
100
AcDbEntity
  8
0
 62
7
100
AcDbSpline
 70
8
 71
3
 72
8
 73
4
 74
0
 40
0
 40
0
 40
0
 40
0
 40
1
 40
1
 40
1
 40
1
 10
480.730545
 20
-91.774764
 30
0.0
 10
480.464745
 20
-91.508965
 30
0.0
 10
480.104244
 20
-91.359640
 30
0.0
 10
479.728346
 20
-91.359640
 30
0.0
  0
SPLINE
  5
2d9
100
AcDbEntity
  8
0
 62
7
100
AcDbSpline
 70
8
 71
3
 72
8
 73
4
 74
0
 40
0
 40
0
 40
0
 40
0
 40
1
 40
1
 40
1
 40
1
 10
442.877953
 20
-91.359640
 30
0.0
 10
442.502055
 20
-91.359640
 30
0.0
 10
442.141554
 20
-91.508965
 30
0.0
 10
441.875754
 20
-91.774764
 30
0.0
  0
SPLINE
  5
2da
100
AcDbEntity
  8
0
 62
7
100
AcDbSpline
 70
8
 71
3
 72
8
 73
4
 74
0
 40
0
 40
0
 40
0
 40
0
 40
1
 40
1
 40
1
 40
1
 10
441.875754
 20
-91.774764
 30
0.0
 10
441.609955
 20
-92.040564
 30
0.0
 10
441.460630
 20
-92.401065
 30
0.0
 10
441.460630
 20
-92.776963
 30
0.0
  0
SPLINE
  5
2db
100
AcDbEntity
  8
0
 62
7
100
AcDbSpline
 70
8
 71
3
 72
8
 73
4
 74
0
 40
0
 40
0
 40
0
 40
0
 40
1
 40
1
 40
1
 40
1
 10
441.460630
 20
-129.627356
 30
0.0
 10
441.460630
 20
-130.003254
 30
0.0
 10
441.609955
 20
-130.363755
 30
0.0
 10
441.875754
 20
-130.629555
 30
0.0
  0
SPLINE
  5
2dc
100
AcDbEntity
  8
0
 62
7
100
AcDbSpline
 70
8
 71
3
 72
8
 73
4
 74
0
 40
0
 40
0
 40
0
 40
0
 40
1
 40
1
 40
1
 40
1
 10
441.875754
 20
-130.629555
 30
0.0
 10
442.141554
 20
-130.895355
 30
0.0
 10
442.502055
 20
-131.044679
 30
0.0
 10
442.877953
 20
-131.044679
 30
0.0
  0
SPLINE
  5
2dd
100
AcDbEntity
  8
0
 62
7
100
AcDbSpline
 70
8
 71
3
 72
8
 73
4
 74
0
 40
0
 40
0
 40
0
 40
0
 40
1
 40
1
 40
1
 40
1
 10
479.728346
 20
-131.044679
 30
0.0
 10
480.104244
 20
-131.044679
 30
0.0
 10
480.464745
 20
-130.895355
 30
0.0
 10
480.730545
 20
-130.629555
 30
0.0
  0
SPLINE
  5
2de
100
AcDbEntity
  8
0
 62
7
100
AcDbSpline
 70
8
 71
3
 72
8
 73
4
 74
0
 40
0
 40
0
 40
0
 40
0
 40
1
 40
1
 40
1
 40
1
 10
480.730545
 20
-130.629555
 30
0.0
 10
480.996345
 20
-130.363755
 30
0.0
 10
481.145669
 20
-130.003254
 30
0.0
 10
481.145669
 20
-129.627356
 30
0.0
  0
LWPOLYLINE
  5
2df
100
AcDbEntity
  8
0
 62
7
100
AcDbPolyline
 90
2
 70
0
 10
481.145669
 20
-129.627356
 30
0.0
 10
481.145669
 20
-92.776963
 30
0.0
  0
LWPOLYLINE
  5
2e0
100
AcDbEntity
  8
0
 62
7
100
AcDbPolyline
 90
2
 70
0
 10
209.728346
 20
-91.359640
 30
0.0
 10
172.877953
 20
-91.359640
 30
0.0
  0
LWPOLYLINE
  5
2e1
100
AcDbEntity
  8
0
 62
7
100
AcDbPolyline
 90
2
 70
0
 10
171.460630
 20
-92.776963
 30
0.0
 10
171.460630
 20
-129.627356
 30
0.0
  0
LWPOLYLINE
  5
2e2
100
AcDbEntity
  8
0
 62
7
100
AcDbPolyline
 90
2
 70
0
 10
172.877953
 20
-131.044679
 30
0.0
 10
209.728346
 20
-131.044679
 30
0.0
  0
SPLINE
  5
2e3
100
AcDbEntity
  8
0
 62
7
100
AcDbSpline
 70
8
 71
3
 72
8
 73
4
 74
0
 40
0
 40
0
 40
0
 40
0
 40
1
 40
1
 40
1
 40
1
 10
211.145669
 20
-92.776963
 30
0.0
 10
211.145669
 20
-92.401065
 30
0.0
 10
210.996345
 20
-92.040564
 30
0.0
 10
210.730545
 20
-91.774764
 30
0.0
  0
SPLINE
  5
2e4
100
AcDbEntity
  8
0
 62
7
100
AcDbSpline
 70
8
 71
3
 72
8
 73
4
 74
0
 40
0
 40
0
 40
0
 40
0
 40
1
 40
1
 40
1
 40
1
 10
210.730545
 20
-91.774764
 30
0.0
 10
210.464745
 20
-91.508965
 30
0.0
 10
210.104244
 20
-91.359640
 30
0.0
 10
209.728346
 20
-91.359640
 30
0.0
  0
SPLINE
  5
2e5
100
AcDbEntity
  8
0
 62
7
100
AcDbSpline
 70
8
 71
3
 72
8
 73
4
 74
0
 40
0
 40
0
 40
0
 40
0
 40
1
 40
1
 40
1
 40
1
 10
172.877953
 20
-91.359640
 30
0.0
 10
172.502055
 20
-91.359640
 30
0.0
 10
172.141554
 20
-91.508965
 30
0.0
 10
171.875754
 20
-91.774764
 30
0.0
  0
SPLINE
  5
2e6
100
AcDbEntity
  8
0
 62
7
100
AcDbSpline
 70
8
 71
3
 72
8
 73
4
 74
0
 40
0
 40
0
 40
0
 40
0
 40
1
 40
1
 40
1
 40
1
 10
171.875754
 20
-91.774764
 30
0.0
 10
171.609955
 20
-92.040564
 30
0.0
 10
171.460630
 20
-92.401065
 30
0.0
 10
171.460630
 20
-92.776963
 30
0.0
  0
SPLINE
  5
2e7
100
AcDbEntity
  8
0
 62
7
100
AcDbSpline
 70
8
 71
3
 72
8
 73
4
 74
0
 40
0
 40
0
 40
0
 40
0
 40
1
 40
1
 40
1
 40
1
 10
171.460630
 20
-129.627356
 30
0.0
 10
171.460630
 20
-130.003254
 30
0.0
 10
171.609955
 20
-130.363755
 30
0.0
 10
171.875754
 20
-130.629555
 30
0.0
  0
SPLINE
  5
2e8
100
AcDbEntity
  8
0
 62
7
100
AcDbSpline
 70
8
 71
3
 72
8
 73
4
 74
0
 40
0
 40
0
 40
0
 40
0
 40
1
 40
1
 40
1
 40
1
 10
171.875754
 20
-130.629555
 30
0.0
 10
172.141554
 20
-130.895355
 30
0.0
 10
172.502055
 20
-131.044679
 30
0.0
 10
172.877953
 20
-131.044679
 30
0.0
  0
SPLINE
  5
2e9
100
AcDbEntity
  8
0
 62
7
100
AcDbSpline
 70
8
 71
3
 72
8
 73
4
 74
0
 40
0
 40
0
 40
0
 40
0
 40
1
 40
1
 40
1
 40
1
 10
209.728346
 20
-131.044679
 30
0.0
 10
210.104244
 20
-131.044679
 30
0.0
 10
210.464745
 20
-130.895355
 30
0.0
 10
210.730545
 20
-130.629555
 30
0.0
  0
SPLINE
  5
2ea
100
AcDbEntity
  8
0
 62
7
100
AcDbSpline
 70
8
 71
3
 72
8
 73
4
 74
0
 40
0
 40
0
 40
0
 40
0
 40
1
 40
1
 40
1
 40
1
 10
210.730545
 20
-130.629555
 30
0.0
 10
210.996345
 20
-130.363755
 30
0.0
 10
211.145669
 20
-130.003254
 30
0.0
 10
211.145669
 20
-129.627356
 30
0.0
  0
LWPOLYLINE
  5
2eb
100
AcDbEntity
  8
0
 62
7
100
AcDbPolyline
 90
2
 70
0
 10
211.145669
 20
-129.627356
 30
0.0
 10
211.145669
 20
-92.776963
 30
0.0
  0
LWPOLYLINE
  5
2ec
100
AcDbEntity
  8
0
 62
7
100
AcDbPolyline
 90
2
 70
0
 10
344.728346
 20
-145.359640
 30
0.0
 10
307.877953
 20
-145.359640
 30
0.0
  0
LWPOLYLINE
  5
2ed
100
AcDbEntity
  8
0
 62
7
100
AcDbPolyline
 90
2
 70
0
 10
306.460630
 20
-146.776963
 30
0.0
 10
306.460630
 20
-183.627356
 30
0.0
  0
LWPOLYLINE
  5
2ee
100
AcDbEntity
  8
0
 62
7
100
AcDbPolyline
 90
2
 70
0
 10
307.877953
 20
-185.044679
 30
0.0
 10
344.728346
 20
-185.044679
 30
0.0
  0
SPLINE
  5
2ef
100
AcDbEntity
  8
0
 62
7
100
AcDbSpline
 70
8
 71
3
 72
8
 73
4
 74
0
 40
0
 40
0
 40
0
 40
0
 40
1
 40
1
 40
1
 40
1
 10
346.145669
 20
-146.776963
 30
0.0
 10
346.145669
 20
-146.401065
 30
0.0
 10
345.996345
 20
-146.040564
 30
0.0
 10
345.730545
 20
-145.774764
 30
0.0
  0
SPLINE
  5
2f0
100
AcDbEntity
  8
0
 62
7
100
AcDbSpline
 70
8
 71
3
 72
8
 73
4
 74
0
 40
0
 40
0
 40
0
 40
0
 40
1
 40
1
 40
1
 40
1
 10
345.730545
 20
-145.774764
 30
0.0
 10
345.464745
 20
-145.508965
 30
0.0
 10
345.104244
 20
-145.359640
 30
0.0
 10
344.728346
 20
-145.359640
 30
0.0
  0
SPLINE
  5
2f1
100
AcDbEntity
  8
0
 62
7
100
AcDbSpline
 70
8
 71
3
 72
8
 73
4
 74
0
 40
0
 40
0
 40
0
 40
0
 40
1
 40
1
 40
1
 40
1
 10
307.877953
 20
-145.359640
 30
0.0
 10
307.502055
 20
-145.359640
 30
0.0
 10
307.141554
 20
-145.508965
 30
0.0
 10
306.875754
 20
-145.774764
 30
0.0
  0
SPLINE
  5
2f2
100
AcDbEntity
  8
0
 62
7
100
AcDbSpline
 70
8
 71
3
 72
8
 73
4
 74
0
 40
0
 40
0
 40
0
 40
0
 40
1
 40
1
 40
1
 40
1
 10
306.875754
 20
-145.774764
 30
0.0
 10
306.609955
 20
-146.040564
 30
0.0
 10
306.460630
 20
-146.401065
 30
0.0
 10
306.460630
 20
-146.776963
 30
0.0
  0
SPLINE
  5
2f3
100
AcDbEntity
  8
0
 62
7
100
AcDbSpline
 70
8
 71
3
 72
8
 73
4
 74
0
 40
0
 40
0
 40
0
 40
0
 40
1
 40
1
 40
1
 40
1
 10
306.460630
 20
-183.627356
 30
0.0
 10
306.460630
 20
-184.003254
 30
0.0
 10
306.609955
 20
-184.363755
 30
0.0
 10
306.875754
 20
-184.629555
 30
0.0
  0
SPLINE
  5
2f4
100
AcDbEntity
  8
0
 62
7
100
AcDbSpline
 70
8
 71
3
 72
8
 73
4
 74
0
 40
0
 40
0
 40
0
 40
0
 40
1
 40
1
 40
1
 40
1
 10
306.875754
 20
-184.629555
 30
0.0
 10
307.141554
 20
-184.895355
 30
0.0
 10
307.502055
 20
-185.044679
 30
0.0
 10
307.877953
 20
-185.044679
 30
0.0
  0
SPLINE
  5
2f5
100
AcDbEntity
  8
0
 62
7
100
AcDbSpline
 70
8
 71
3
 72
8
 73
4
 74
0
 40
0
 40
0
 40
0
 40
0
 40
1
 40
1
 40
1
 40
1
 10
344.728346
 20
-185.044679
 30
0.0
 10
345.104244
 20
-185.044679
 30
0.0
 10
345.464745
 20
-184.895355
 30
0.0
 10
345.730545
 20
-184.629555
 30
0.0
  0
SPLINE
  5
2f6
100
AcDbEntity
  8
0
 62
7
100
AcDbSpline
 70
8
 71
3
 72
8
 73
4
 74
0
 40
0
 40
0
 40
0
 40
0
 40
1
 40
1
 40
1
 40
1
 10
345.730545
 20
-184.629555
 30
0.0
 10
345.996345
 20
-184.363755
 30
0.0
 10
346.145669
 20
-184.003254
 30
0.0
 10
346.145669
 20
-183.627356
 30
0.0
  0
LWPOLYLINE
  5
2f7
100
AcDbEntity
  8
0
 62
7
100
AcDbPolyline
 90
2
 70
0
 10
346.145669
 20
-183.627356
 30
0.0
 10
346.145669
 20
-146.776963
 30
0.0
  0
LWPOLYLINE
  5
2f8
100
AcDbEntity
  8
0
 62
7
100
AcDbPolyline
 90
2
 70
0
 10
263.728346
 20
-91.359640
 30
0.0
 10
226.877953
 20
-91.359640
 30
0.0
  0
LWPOLYLINE
  5
2f9
100
AcDbEntity
  8
0
 62
7
100
AcDbPolyline
 90
2
 70
0
 10
225.460630
 20
-92.776963
 30
0.0
 10
225.460630
 20
-129.627356
 30
0.0
  0
LWPOLYLINE
  5
2fa
100
AcDbEntity
  8
0
 62
7
100
AcDbPolyline
 90
2
 70
0
 10
226.877953
 20
-131.044679
 30
0.0
 10
263.728346
 20
-131.044679
 30
0.0
  0
SPLINE
  5
2fb
100
AcDbEntity
  8
0
 62
7
100
AcDbSpline
 70
8
 71
3
 72
8
 73
4
 74
0
 40
0
 40
0
 40
0
 40
0
 40
1
 40
1
 40
1
 40
1
 10
265.145669
 20
-92.776963
 30
0.0
 10
265.145669
 20
-92.401065
 30
0.0
 10
264.996345
 20
-92.040564
 30
0.0
 10
264.730545
 20
-91.774764
 30
0.0
  0
SPLINE
  5
2fc
100
AcDbEntity
  8
0
 62
7
100
AcDbSpline
 70
8
 71
3
 72
8
 73
4
 74
0
 40
0
 40
0
 40
0
 40
0
 40
1
 40
1
 40
1
 40
1
 10
264.730545
 20
-91.774764
 30
0.0
 10
264.464745
 20
-91.508965
 30
0.0
 10
264.104244
 20
-91.359640
 30
0.0
 10
263.728346
 20
-91.359640
 30
0.0
  0
SPLINE
  5
2fd
100
AcDbEntity
  8
0
 62
7
100
AcDbSpline
 70
8
 71
3
 72
8
 73
4
 74
0
 40
0
 40
0
 40
0
 40
0
 40
1
 40
1
 40
1
 40
1
 10
226.877953
 20
-91.359640
 30
0.0
 10
226.502055
 20
-91.359640
 30
0.0
 10
226.141554
 20
-91.508965
 30
0.0
 10
225.875754
 20
-91.774764
 30
0.0
  0
SPLINE
  5
2fe
100
AcDbEntity
  8
0
 62
7
100
AcDbSpline
 70
8
 71
3
 72
8
 73
4
 74
0
 40
0
 40
0
 40
0
 40
0
 40
1
 40
1
 40
1
 40
1
 10
225.875754
 20
-91.774764
 30
0.0
 10
225.609955
 20
-92.040564
 30
0.0
 10
225.460630
 20
-92.401065
 30
0.0
 10
225.460630
 20
-92.776963
 30
0.0
  0
SPLINE
  5
2ff
100
AcDbEntity
  8
0
 62
7
100
AcDbSpline
 70
8
 71
3
 72
8
 73
4
 74
0
 40
0
 40
0
 40
0
 40
0
 40
1
 40
1
 40
1
 40
1
 10
225.460630
 20
-129.627356
 30
0.0
 10
225.460630
 20
-130.003254
 30
0.0
 10
225.609955
 20
-130.363755
 30
0.0
 10
225.875754
 20
-130.629555
 30
0.0
  0
SPLINE
  5
300
100
AcDbEntity
  8
0
 62
7
100
AcDbSpline
 70
8
 71
3
 72
8
 73
4
 74
0
 40
0
 40
0
 40
0
 40
0
 40
1
 40
1
 40
1
 40
1
 10
225.875754
 20
-130.629555
 30
0.0
 10
226.141554
 20
-130.895355
 30
0.0
 10
226.502055
 20
-131.044679
 30
0.0
 10
226.877953
 20
-131.044679
 30
0.0
  0
SPLINE
  5
301
100
AcDbEntity
  8
0
 62
7
100
AcDbSpline
 70
8
 71
3
 72
8
 73
4
 74
0
 40
0
 40
0
 40
0
 40
0
 40
1
 40
1
 40
1
 40
1
 10
263.728346
 20
-131.044679
 30
0.0
 10
264.104244
 20
-131.044679
 30
0.0
 10
264.464745
 20
-130.895355
 30
0.0
 10
264.730545
 20
-130.629555
 30
0.0
  0
SPLINE
  5
302
100
AcDbEntity
  8
0
 62
7
100
AcDbSpline
 70
8
 71
3
 72
8
 73
4
 74
0
 40
0
 40
0
 40
0
 40
0
 40
1
 40
1
 40
1
 40
1
 10
264.730545
 20
-130.629555
 30
0.0
 10
264.996345
 20
-130.363755
 30
0.0
 10
265.145669
 20
-130.003254
 30
0.0
 10
265.145669
 20
-129.627356
 30
0.0
  0
SPLINE
  5
303
100
AcDbEntity
  8
0
 62
7
100
AcDbSpline
 70
8
 71
3
 72
8
 73
4
 74
0
 40
0
 40
0
 40
0
 40
0
 40
1
 40
1
 40
1
 40
1
 10
682.228346
 20
-77.044679
 30
0.0
 10
682.604244
 20
-77.044679
 30
0.0
 10
682.964745
 20
-76.895355
 30
0.0
 10
683.230545
 20
-76.629555
 30
0.0
  0
SPLINE
  5
304
100
AcDbEntity
  8
0
 62
7
100
AcDbSpline
 70
8
 71
3
 72
8
 73
4
 74
0
 40
0
 40
0
 40
0
 40
0
 40
1
 40
1
 40
1
 40
1
 10
683.230545
 20
-76.629555
 30
0.0
 10
683.496345
 20
-76.363755
 30
0.0
 10
683.645669
 20
-76.003254
 30
0.0
 10
683.645669
 20
-75.627356
 30
0.0
  0
SPLINE
  5
305
100
AcDbEntity
  8
0
 62
7
100
AcDbSpline
 70
8
 71
3
 72
8
 73
4
 74
0
 40
0
 40
0
 40
0
 40
0
 40
1
 40
1
 40
1
 40
1
 10
643.960630
 20
-75.627356
 30
0.0
 10
643.960630
 20
-76.003254
 30
0.0
 10
644.109955
 20
-76.363755
 30
0.0
 10
644.375754
 20
-76.629555
 30
0.0
  0
SPLINE
  5
306
100
AcDbEntity
  8
0
 62
7
100
AcDbSpline
 70
8
 71
3
 72
8
 73
4
 74
0
 40
0
 40
0
 40
0
 40
0
 40
1
 40
1
 40
1
 40
1
 10
644.375754
 20
-76.629555
 30
0.0
 10
644.641554
 20
-76.895355
 30
0.0
 10
645.002055
 20
-77.044679
 30
0.0
 10
645.377953
 20
-77.044679
 30
0.0
  0
SPLINE
  5
307
100
AcDbEntity
  8
0
 62
7
100
AcDbSpline
 70
8
 71
3
 72
8
 73
4
 74
0
 40
0
 40
0
 40
0
 40
0
 40
1
 40
1
 40
1
 40
1
 10
645.377953
 20
-37.359640
 30
0.0
 10
645.002055
 20
-37.359640
 30
0.0
 10
644.641554
 20
-37.508965
 30
0.0
 10
644.375754
 20
-37.774764
 30
0.0
  0
SPLINE
  5
308
100
AcDbEntity
  8
0
 62
7
100
AcDbSpline
 70
8
 71
3
 72
8
 73
4
 74
0
 40
0
 40
0
 40
0
 40
0
 40
1
 40
1
 40
1
 40
1
 10
644.375754
 20
-37.774764
 30
0.0
 10
644.109955
 20
-38.040564
 30
0.0
 10
643.960630
 20
-38.401065
 30
0.0
 10
643.960630
 20
-38.776963
 30
0.0
  0
SPLINE
  5
309
100
AcDbEntity
  8
0
 62
7
100
AcDbSpline
 70
8
 71
3
 72
8
 73
4
 74
0
 40
0
 40
0
 40
0
 40
0
 40
1
 40
1
 40
1
 40
1
 10
683.645669
 20
-38.776963
 30
0.0
 10
683.645669
 20
-38.401065
 30
0.0
 10
683.496345
 20
-38.040564
 30
0.0
 10
683.230545
 20
-37.774764
 30
0.0
  0
SPLINE
  5
30a
100
AcDbEntity
  8
0
 62
7
100
AcDbSpline
 70
8
 71
3
 72
8
 73
4
 74
0
 40
0
 40
0
 40
0
 40
0
 40
1
 40
1
 40
1
 40
1
 10
683.230545
 20
-37.774764
 30
0.0
 10
682.964745
 20
-37.508965
 30
0.0
 10
682.604244
 20
-37.359640
 30
0.0
 10
682.228346
 20
-37.359640
 30
0.0
  0
LWPOLYLINE
  5
30b
100
AcDbEntity
  8
0
 62
7
100
AcDbPolyline
 90
2
 70
0
 10
265.145669
 20
-129.627356
 30
0.0
 10
265.145669
 20
-92.776963
 30
0.0
  0
LWPOLYLINE
  5
30c
100
AcDbEntity
  8
0
 62
7
100
AcDbPolyline
 90
2
 70
0
 10
683.645669
 20
-75.627356
 30
0.0
 10
683.645669
 20
-38.776963
 30
0.0
  0
LWPOLYLINE
  5
30d
100
AcDbEntity
  8
0
 62
7
100
AcDbPolyline
 90
2
 70
0
 10
645.377953
 20
-77.044679
 30
0.0
 10
682.228346
 20
-77.044679
 30
0.0
  0
LWPOLYLINE
  5
30e
100
AcDbEntity
  8
0
 62
7
100
AcDbPolyline
 90
2
 70
0
 10
643.960630
 20
-38.776963
 30
0.0
 10
643.960630
 20
-75.627356
 30
0.0
  0
SPLINE
  5
30f
100
AcDbEntity
  8
0
 62
7
100
AcDbSpline
 70
8
 71
3
 72
8
 73
4
 74
0
 40
0
 40
0
 40
0
 40
0
 40
1
 40
1
 40
1
 40
1
 10
736.228346
 20
-77.044679
 30
0.0
 10
736.604244
 20
-77.044679
 30
0.0
 10
736.964745
 20
-76.895355
 30
0.0
 10
737.230545
 20
-76.629555
 30
0.0
  0
SPLINE
  5
310
100
AcDbEntity
  8
0
 62
7
100
AcDbSpline
 70
8
 71
3
 72
8
 73
4
 74
0
 40
0
 40
0
 40
0
 40
0
 40
1
 40
1
 40
1
 40
1
 10
737.230545
 20
-76.629555
 30
0.0
 10
737.496345
 20
-76.363755
 30
0.0
 10
737.645669
 20
-76.003254
 30
0.0
 10
737.645669
 20
-75.627356
 30
0.0
  0
SPLINE
  5
311
100
AcDbEntity
  8
0
 62
7
100
AcDbSpline
 70
8
 71
3
 72
8
 73
4
 74
0
 40
0
 40
0
 40
0
 40
0
 40
1
 40
1
 40
1
 40
1
 10
697.960630
 20
-75.627356
 30
0.0
 10
697.960630
 20
-76.003254
 30
0.0
 10
698.109955
 20
-76.363755
 30
0.0
 10
698.375754
 20
-76.629555
 30
0.0
  0
SPLINE
  5
312
100
AcDbEntity
  8
0
 62
7
100
AcDbSpline
 70
8
 71
3
 72
8
 73
4
 74
0
 40
0
 40
0
 40
0
 40
0
 40
1
 40
1
 40
1
 40
1
 10
698.375754
 20
-76.629555
 30
0.0
 10
698.641554
 20
-76.895355
 30
0.0
 10
699.002055
 20
-77.044679
 30
0.0
 10
699.377953
 20
-77.044679
 30
0.0
  0
SPLINE
  5
313
100
AcDbEntity
  8
0
 62
7
100
AcDbSpline
 70
8
 71
3
 72
8
 73
4
 74
0
 40
0
 40
0
 40
0
 40
0
 40
1
 40
1
 40
1
 40
1
 10
699.377953
 20
-37.359640
 30
0.0
 10
699.002055
 20
-37.359640
 30
0.0
 10
698.641554
 20
-37.508965
 30
0.0
 10
698.375754
 20
-37.774764
 30
0.0
  0
SPLINE
  5
314
100
AcDbEntity
  8
0
 62
7
100
AcDbSpline
 70
8
 71
3
 72
8
 73
4
 74
0
 40
0
 40
0
 40
0
 40
0
 40
1
 40
1
 40
1
 40
1
 10
698.375754
 20
-37.774764
 30
0.0
 10
698.109955
 20
-38.040564
 30
0.0
 10
697.960630
 20
-38.401065
 30
0.0
 10
697.960630
 20
-38.776963
 30
0.0
  0
SPLINE
  5
315
100
AcDbEntity
  8
0
 62
7
100
AcDbSpline
 70
8
 71
3
 72
8
 73
4
 74
0
 40
0
 40
0
 40
0
 40
0
 40
1
 40
1
 40
1
 40
1
 10
737.645669
 20
-38.776963
 30
0.0
 10
737.645669
 20
-38.401065
 30
0.0
 10
737.496345
 20
-38.040564
 30
0.0
 10
737.230545
 20
-37.774764
 30
0.0
  0
SPLINE
  5
316
100
AcDbEntity
  8
0
 62
7
100
AcDbSpline
 70
8
 71
3
 72
8
 73
4
 74
0
 40
0
 40
0
 40
0
 40
0
 40
1
 40
1
 40
1
 40
1
 10
737.230545
 20
-37.774764
 30
0.0
 10
736.964745
 20
-37.508965
 30
0.0
 10
736.604244
 20
-37.359640
 30
0.0
 10
736.228346
 20
-37.359640
 30
0.0
  0
LWPOLYLINE
  5
317
100
AcDbEntity
  8
0
 62
7
100
AcDbPolyline
 90
2
 70
0
 10
682.228346
 20
-37.359640
 30
0.0
 10
645.377953
 20
-37.359640
 30
0.0
  0
LWPOLYLINE
  5
318
100
AcDbEntity
  8
0
 62
7
100
AcDbPolyline
 90
2
 70
0
 10
737.645669
 20
-75.627356
 30
0.0
 10
737.645669
 20
-38.776963
 30
0.0
  0
LWPOLYLINE
  5
319
100
AcDbEntity
  8
0
 62
7
100
AcDbPolyline
 90
2
 70
0
 10
699.377953
 20
-77.044679
 30
0.0
 10
736.228346
 20
-77.044679
 30
0.0
  0
LWPOLYLINE
  5
31a
100
AcDbEntity
  8
0
 62
7
100
AcDbPolyline
 90
2
 70
0
 10
697.960630
 20
-38.776963
 30
0.0
 10
697.960630
 20
-75.627356
 30
0.0
  0
SPLINE
  5
31b
100
AcDbEntity
  8
0
 62
7
100
AcDbSpline
 70
8
 71
3
 72
8
 73
4
 74
0
 40
0
 40
0
 40
0
 40
0
 40
1
 40
1
 40
1
 40
1
 10
628.228346
 20
-77.044679
 30
0.0
 10
628.604244
 20
-77.044679
 30
0.0
 10
628.964745
 20
-76.895355
 30
0.0
 10
629.230545
 20
-76.629555
 30
0.0
  0
SPLINE
  5
31c
100
AcDbEntity
  8
0
 62
7
100
AcDbSpline
 70
8
 71
3
 72
8
 73
4
 74
0
 40
0
 40
0
 40
0
 40
0
 40
1
 40
1
 40
1
 40
1
 10
629.230545
 20
-76.629555
 30
0.0
 10
629.496345
 20
-76.363755
 30
0.0
 10
629.645669
 20
-76.003254
 30
0.0
 10
629.645669
 20
-75.627356
 30
0.0
  0
SPLINE
  5
31d
100
AcDbEntity
  8
0
 62
7
100
AcDbSpline
 70
8
 71
3
 72
8
 73
4
 74
0
 40
0
 40
0
 40
0
 40
0
 40
1
 40
1
 40
1
 40
1
 10
589.960630
 20
-75.627356
 30
0.0
 10
589.960630
 20
-76.003254
 30
0.0
 10
590.109955
 20
-76.363755
 30
0.0
 10
590.375754
 20
-76.629555
 30
0.0
  0
SPLINE
  5
31e
100
AcDbEntity
  8
0
 62
7
100
AcDbSpline
 70
8
 71
3
 72
8
 73
4
 74
0
 40
0
 40
0
 40
0
 40
0
 40
1
 40
1
 40
1
 40
1
 10
590.375754
 20
-76.629555
 30
0.0
 10
590.641554
 20
-76.895355
 30
0.0
 10
591.002055
 20
-77.044679
 30
0.0
 10
591.377953
 20
-77.044679
 30
0.0
  0
SPLINE
  5
31f
100
AcDbEntity
  8
0
 62
7
100
AcDbSpline
 70
8
 71
3
 72
8
 73
4
 74
0
 40
0
 40
0
 40
0
 40
0
 40
1
 40
1
 40
1
 40
1
 10
591.377953
 20
-37.359640
 30
0.0
 10
591.002055
 20
-37.359640
 30
0.0
 10
590.641554
 20
-37.508965
 30
0.0
 10
590.375754
 20
-37.774764
 30
0.0
  0
SPLINE
  5
320
100
AcDbEntity
  8
0
 62
7
100
AcDbSpline
 70
8
 71
3
 72
8
 73
4
 74
0
 40
0
 40
0
 40
0
 40
0
 40
1
 40
1
 40
1
 40
1
 10
590.375754
 20
-37.774764
 30
0.0
 10
590.109955
 20
-38.040564
 30
0.0
 10
589.960630
 20
-38.401065
 30
0.0
 10
589.960630
 20
-38.776963
 30
0.0
  0
SPLINE
  5
321
100
AcDbEntity
  8
0
 62
7
100
AcDbSpline
 70
8
 71
3
 72
8
 73
4
 74
0
 40
0
 40
0
 40
0
 40
0
 40
1
 40
1
 40
1
 40
1
 10
629.645669
 20
-38.776963
 30
0.0
 10
629.645669
 20
-38.401065
 30
0.0
 10
629.496345
 20
-38.040564
 30
0.0
 10
629.230545
 20
-37.774764
 30
0.0
  0
SPLINE
  5
322
100
AcDbEntity
  8
0
 62
7
100
AcDbSpline
 70
8
 71
3
 72
8
 73
4
 74
0
 40
0
 40
0
 40
0
 40
0
 40
1
 40
1
 40
1
 40
1
 10
629.230545
 20
-37.774764
 30
0.0
 10
628.964745
 20
-37.508965
 30
0.0
 10
628.604244
 20
-37.359640
 30
0.0
 10
628.228346
 20
-37.359640
 30
0.0
  0
LWPOLYLINE
  5
323
100
AcDbEntity
  8
0
 62
7
100
AcDbPolyline
 90
2
 70
0
 10
736.228346
 20
-37.359640
 30
0.0
 10
699.377953
 20
-37.359640
 30
0.0
  0
LWPOLYLINE
  5
324
100
AcDbEntity
  8
0
 62
7
100
AcDbPolyline
 90
2
 70
0
 10
629.645669
 20
-75.627356
 30
0.0
 10
629.645669
 20
-38.776963
 30
0.0
  0
LWPOLYLINE
  5
325
100
AcDbEntity
  8
0
 62
7
100
AcDbPolyline
 90
2
 70
0
 10
591.377953
 20
-77.044679
 30
0.0
 10
628.228346
 20
-77.044679
 30
0.0
  0
LWPOLYLINE
  5
326
100
AcDbEntity
  8
0
 62
7
100
AcDbPolyline
 90
2
 70
0
 10
589.960630
 20
-38.776963
 30
0.0
 10
589.960630
 20
-75.627356
 30
0.0
  0
SPLINE
  5
327
100
AcDbEntity
  8
0
 62
7
100
AcDbSpline
 70
8
 71
3
 72
8
 73
4
 74
0
 40
0
 40
0
 40
0
 40
0
 40
1
 40
1
 40
1
 40
1
 10
412.228346
 20
-77.044679
 30
0.0
 10
412.604244
 20
-77.044679
 30
0.0
 10
412.964745
 20
-76.895355
 30
0.0
 10
413.230545
 20
-76.629555
 30
0.0
  0
SPLINE
  5
328
100
AcDbEntity
  8
0
 62
7
100
AcDbSpline
 70
8
 71
3
 72
8
 73
4
 74
0
 40
0
 40
0
 40
0
 40
0
 40
1
 40
1
 40
1
 40
1
 10
413.230545
 20
-76.629555
 30
0.0
 10
413.496345
 20
-76.363755
 30
0.0
 10
413.645669
 20
-76.003254
 30
0.0
 10
413.645669
 20
-75.627356
 30
0.0
  0
SPLINE
  5
329
100
AcDbEntity
  8
0
 62
7
100
AcDbSpline
 70
8
 71
3
 72
8
 73
4
 74
0
 40
0
 40
0
 40
0
 40
0
 40
1
 40
1
 40
1
 40
1
 10
373.960630
 20
-75.627356
 30
0.0
 10
373.960630
 20
-76.003254
 30
0.0
 10
374.109955
 20
-76.363755
 30
0.0
 10
374.375754
 20
-76.629555
 30
0.0
  0
SPLINE
  5
32a
100
AcDbEntity
  8
0
 62
7
100
AcDbSpline
 70
8
 71
3
 72
8
 73
4
 74
0
 40
0
 40
0
 40
0
 40
0
 40
1
 40
1
 40
1
 40
1
 10
374.375754
 20
-76.629555
 30
0.0
 10
374.641554
 20
-76.895355
 30
0.0
 10
375.002055
 20
-77.044679
 30
0.0
 10
375.377953
 20
-77.044679
 30
0.0
  0
SPLINE
  5
32b
100
AcDbEntity
  8
0
 62
7
100
AcDbSpline
 70
8
 71
3
 72
8
 73
4
 74
0
 40
0
 40
0
 40
0
 40
0
 40
1
 40
1
 40
1
 40
1
 10
375.377953
 20
-37.359640
 30
0.0
 10
375.002055
 20
-37.359640
 30
0.0
 10
374.641554
 20
-37.508965
 30
0.0
 10
374.375754
 20
-37.774764
 30
0.0
  0
SPLINE
  5
32c
100
AcDbEntity
  8
0
 62
7
100
AcDbSpline
 70
8
 71
3
 72
8
 73
4
 74
0
 40
0
 40
0
 40
0
 40
0
 40
1
 40
1
 40
1
 40
1
 10
374.375754
 20
-37.774764
 30
0.0
 10
374.109955
 20
-38.040564
 30
0.0
 10
373.960630
 20
-38.401065
 30
0.0
 10
373.960630
 20
-38.776963
 30
0.0
  0
SPLINE
  5
32d
100
AcDbEntity
  8
0
 62
7
100
AcDbSpline
 70
8
 71
3
 72
8
 73
4
 74
0
 40
0
 40
0
 40
0
 40
0
 40
1
 40
1
 40
1
 40
1
 10
413.645669
 20
-38.776963
 30
0.0
 10
413.645669
 20
-38.401065
 30
0.0
 10
413.496345
 20
-38.040564
 30
0.0
 10
413.230545
 20
-37.774764
 30
0.0
  0
SPLINE
  5
32e
100
AcDbEntity
  8
0
 62
7
100
AcDbSpline
 70
8
 71
3
 72
8
 73
4
 74
0
 40
0
 40
0
 40
0
 40
0
 40
1
 40
1
 40
1
 40
1
 10
413.230545
 20
-37.774764
 30
0.0
 10
412.964745
 20
-37.508965
 30
0.0
 10
412.604244
 20
-37.359640
 30
0.0
 10
412.228346
 20
-37.359640
 30
0.0
  0
LWPOLYLINE
  5
32f
100
AcDbEntity
  8
0
 62
7
100
AcDbPolyline
 90
2
 70
0
 10
628.228346
 20
-37.359640
 30
0.0
 10
591.377953
 20
-37.359640
 30
0.0
  0
LWPOLYLINE
  5
330
100
AcDbEntity
  8
0
 62
7
100
AcDbPolyline
 90
2
 70
0
 10
413.645669
 20
-75.627356
 30
0.0
 10
413.645669
 20
-38.776963
 30
0.0
  0
LWPOLYLINE
  5
331
100
AcDbEntity
  8
0
 62
7
100
AcDbPolyline
 90
2
 70
0
 10
375.377953
 20
-77.044679
 30
0.0
 10
412.228346
 20
-77.044679
 30
0.0
  0
LWPOLYLINE
  5
332
100
AcDbEntity
  8
0
 62
7
100
AcDbPolyline
 90
2
 70
0
 10
373.960630
 20
-38.776963
 30
0.0
 10
373.960630
 20
-75.627356
 30
0.0
  0
SPLINE
  5
333
100
AcDbEntity
  8
0
 62
7
100
AcDbSpline
 70
8
 71
3
 72
8
 73
4
 74
0
 40
0
 40
0
 40
0
 40
0
 40
1
 40
1
 40
1
 40
1
 10
520.228346
 20
-77.044679
 30
0.0
 10
520.604244
 20
-77.044679
 30
0.0
 10
520.964745
 20
-76.895355
 30
0.0
 10
521.230545
 20
-76.629555
 30
0.0
  0
SPLINE
  5
334
100
AcDbEntity
  8
0
 62
7
100
AcDbSpline
 70
8
 71
3
 72
8
 73
4
 74
0
 40
0
 40
0
 40
0
 40
0
 40
1
 40
1
 40
1
 40
1
 10
521.230545
 20
-76.629555
 30
0.0
 10
521.496345
 20
-76.363755
 30
0.0
 10
521.645669
 20
-76.003254
 30
0.0
 10
521.645669
 20
-75.627356
 30
0.0
  0
SPLINE
  5
335
100
AcDbEntity
  8
0
 62
7
100
AcDbSpline
 70
8
 71
3
 72
8
 73
4
 74
0
 40
0
 40
0
 40
0
 40
0
 40
1
 40
1
 40
1
 40
1
 10
481.960630
 20
-75.627356
 30
0.0
 10
481.960630
 20
-76.003254
 30
0.0
 10
482.109955
 20
-76.363755
 30
0.0
 10
482.375754
 20
-76.629555
 30
0.0
  0
SPLINE
  5
336
100
AcDbEntity
  8
0
 62
7
100
AcDbSpline
 70
8
 71
3
 72
8
 73
4
 74
0
 40
0
 40
0
 40
0
 40
0
 40
1
 40
1
 40
1
 40
1
 10
482.375754
 20
-76.629555
 30
0.0
 10
482.641554
 20
-76.895355
 30
0.0
 10
483.002055
 20
-77.044679
 30
0.0
 10
483.377953
 20
-77.044679
 30
0.0
  0
SPLINE
  5
337
100
AcDbEntity
  8
0
 62
7
100
AcDbSpline
 70
8
 71
3
 72
8
 73
4
 74
0
 40
0
 40
0
 40
0
 40
0
 40
1
 40
1
 40
1
 40
1
 10
483.377953
 20
-37.359640
 30
0.0
 10
483.002055
 20
-37.359640
 30
0.0
 10
482.641554
 20
-37.508965
 30
0.0
 10
482.375754
 20
-37.774764
 30
0.0
  0
SPLINE
  5
338
100
AcDbEntity
  8
0
 62
7
100
AcDbSpline
 70
8
 71
3
 72
8
 73
4
 74
0
 40
0
 40
0
 40
0
 40
0
 40
1
 40
1
 40
1
 40
1
 10
482.375754
 20
-37.774764
 30
0.0
 10
482.109955
 20
-38.040564
 30
0.0
 10
481.960630
 20
-38.401065
 30
0.0
 10
481.960630
 20
-38.776963
 30
0.0
  0
SPLINE
  5
339
100
AcDbEntity
  8
0
 62
7
100
AcDbSpline
 70
8
 71
3
 72
8
 73
4
 74
0
 40
0
 40
0
 40
0
 40
0
 40
1
 40
1
 40
1
 40
1
 10
521.645669
 20
-38.776963
 30
0.0
 10
521.645669
 20
-38.401065
 30
0.0
 10
521.496345
 20
-38.040564
 30
0.0
 10
521.230545
 20
-37.774764
 30
0.0
  0
SPLINE
  5
33a
100
AcDbEntity
  8
0
 62
7
100
AcDbSpline
 70
8
 71
3
 72
8
 73
4
 74
0
 40
0
 40
0
 40
0
 40
0
 40
1
 40
1
 40
1
 40
1
 10
521.230545
 20
-37.774764
 30
0.0
 10
520.964745
 20
-37.508965
 30
0.0
 10
520.604244
 20
-37.359640
 30
0.0
 10
520.228346
 20
-37.359640
 30
0.0
  0
LWPOLYLINE
  5
33b
100
AcDbEntity
  8
0
 62
7
100
AcDbPolyline
 90
2
 70
0
 10
412.228346
 20
-37.359640
 30
0.0
 10
375.377953
 20
-37.359640
 30
0.0
  0
LWPOLYLINE
  5
33c
100
AcDbEntity
  8
0
 62
7
100
AcDbPolyline
 90
2
 70
0
 10
521.645669
 20
-75.627356
 30
0.0
 10
521.645669
 20
-38.776963
 30
0.0
  0
LWPOLYLINE
  5
33d
100
AcDbEntity
  8
0
 62
7
100
AcDbPolyline
 90
2
 70
0
 10
483.377953
 20
-77.044679
 30
0.0
 10
520.228346
 20
-77.044679
 30
0.0
  0
LWPOLYLINE
  5
33e
100
AcDbEntity
  8
0
 62
7
100
AcDbPolyline
 90
2
 70
0
 10
481.960630
 20
-38.776963
 30
0.0
 10
481.960630
 20
-75.627356
 30
0.0
  0
SPLINE
  5
33f
100
AcDbEntity
  8
0
 62
7
100
AcDbSpline
 70
8
 71
3
 72
8
 73
4
 74
0
 40
0
 40
0
 40
0
 40
0
 40
1
 40
1
 40
1
 40
1
 10
466.228346
 20
-77.044679
 30
0.0
 10
466.604244
 20
-77.044679
 30
0.0
 10
466.964745
 20
-76.895355
 30
0.0
 10
467.230545
 20
-76.629555
 30
0.0
  0
SPLINE
  5
340
100
AcDbEntity
  8
0
 62
7
100
AcDbSpline
 70
8
 71
3
 72
8
 73
4
 74
0
 40
0
 40
0
 40
0
 40
0
 40
1
 40
1
 40
1
 40
1
 10
467.230545
 20
-76.629555
 30
0.0
 10
467.496345
 20
-76.363755
 30
0.0
 10
467.645669
 20
-76.003254
 30
0.0
 10
467.645669
 20
-75.627356
 30
0.0
  0
SPLINE
  5
341
100
AcDbEntity
  8
0
 62
7
100
AcDbSpline
 70
8
 71
3
 72
8
 73
4
 74
0
 40
0
 40
0
 40
0
 40
0
 40
1
 40
1
 40
1
 40
1
 10
427.960630
 20
-75.627356
 30
0.0
 10
427.960630
 20
-76.003254
 30
0.0
 10
428.109955
 20
-76.363755
 30
0.0
 10
428.375754
 20
-76.629555
 30
0.0
  0
SPLINE
  5
342
100
AcDbEntity
  8
0
 62
7
100
AcDbSpline
 70
8
 71
3
 72
8
 73
4
 74
0
 40
0
 40
0
 40
0
 40
0
 40
1
 40
1
 40
1
 40
1
 10
428.375754
 20
-76.629555
 30
0.0
 10
428.641554
 20
-76.895355
 30
0.0
 10
429.002055
 20
-77.044679
 30
0.0
 10
429.377953
 20
-77.044679
 30
0.0
  0
SPLINE
  5
343
100
AcDbEntity
  8
0
 62
7
100
AcDbSpline
 70
8
 71
3
 72
8
 73
4
 74
0
 40
0
 40
0
 40
0
 40
0
 40
1
 40
1
 40
1
 40
1
 10
429.377953
 20
-37.359640
 30
0.0
 10
429.002055
 20
-37.359640
 30
0.0
 10
428.641554
 20
-37.508965
 30
0.0
 10
428.375754
 20
-37.774764
 30
0.0
  0
SPLINE
  5
344
100
AcDbEntity
  8
0
 62
7
100
AcDbSpline
 70
8
 71
3
 72
8
 73
4
 74
0
 40
0
 40
0
 40
0
 40
0
 40
1
 40
1
 40
1
 40
1
 10
428.375754
 20
-37.774764
 30
0.0
 10
428.109955
 20
-38.040564
 30
0.0
 10
427.960630
 20
-38.401065
 30
0.0
 10
427.960630
 20
-38.776963
 30
0.0
  0
SPLINE
  5
345
100
AcDbEntity
  8
0
 62
7
100
AcDbSpline
 70
8
 71
3
 72
8
 73
4
 74
0
 40
0
 40
0
 40
0
 40
0
 40
1
 40
1
 40
1
 40
1
 10
467.645669
 20
-38.776963
 30
0.0
 10
467.645669
 20
-38.401065
 30
0.0
 10
467.496345
 20
-38.040564
 30
0.0
 10
467.230545
 20
-37.774764
 30
0.0
  0
SPLINE
  5
346
100
AcDbEntity
  8
0
 62
7
100
AcDbSpline
 70
8
 71
3
 72
8
 73
4
 74
0
 40
0
 40
0
 40
0
 40
0
 40
1
 40
1
 40
1
 40
1
 10
467.230545
 20
-37.774764
 30
0.0
 10
466.964745
 20
-37.508965
 30
0.0
 10
466.604244
 20
-37.359640
 30
0.0
 10
466.228346
 20
-37.359640
 30
0.0
  0
LWPOLYLINE
  5
347
100
AcDbEntity
  8
0
 62
7
100
AcDbPolyline
 90
2
 70
0
 10
520.228346
 20
-37.359640
 30
0.0
 10
483.377953
 20
-37.359640
 30
0.0
  0
LWPOLYLINE
  5
348
100
AcDbEntity
  8
0
 62
7
100
AcDbPolyline
 90
2
 70
0
 10
467.645669
 20
-75.627356
 30
0.0
 10
467.645669
 20
-38.776963
 30
0.0
  0
LWPOLYLINE
  5
349
100
AcDbEntity
  8
0
 62
7
100
AcDbPolyline
 90
2
 70
0
 10
429.377953
 20
-77.044679
 30
0.0
 10
466.228346
 20
-77.044679
 30
0.0
  0
LWPOLYLINE
  5
34a
100
AcDbEntity
  8
0
 62
7
100
AcDbPolyline
 90
2
 70
0
 10
427.960630
 20
-38.776963
 30
0.0
 10
427.960630
 20
-75.627356
 30
0.0
  0
SPLINE
  5
34b
100
AcDbEntity
  8
0
 62
7
100
AcDbSpline
 70
8
 71
3
 72
8
 73
4
 74
0
 40
0
 40
0
 40
0
 40
0
 40
1
 40
1
 40
1
 40
1
 10
574.228346
 20
-77.044679
 30
0.0
 10
574.604244
 20
-77.044679
 30
0.0
 10
574.964745
 20
-76.895355
 30
0.0
 10
575.230545
 20
-76.629555
 30
0.0
  0
SPLINE
  5
34c
100
AcDbEntity
  8
0
 62
7
100
AcDbSpline
 70
8
 71
3
 72
8
 73
4
 74
0
 40
0
 40
0
 40
0
 40
0
 40
1
 40
1
 40
1
 40
1
 10
575.230545
 20
-76.629555
 30
0.0
 10
575.496345
 20
-76.363755
 30
0.0
 10
575.645669
 20
-76.003254
 30
0.0
 10
575.645669
 20
-75.627356
 30
0.0
  0
SPLINE
  5
34d
100
AcDbEntity
  8
0
 62
7
100
AcDbSpline
 70
8
 71
3
 72
8
 73
4
 74
0
 40
0
 40
0
 40
0
 40
0
 40
1
 40
1
 40
1
 40
1
 10
535.960630
 20
-75.627356
 30
0.0
 10
535.960630
 20
-76.003254
 30
0.0
 10
536.109955
 20
-76.363755
 30
0.0
 10
536.375754
 20
-76.629555
 30
0.0
  0
SPLINE
  5
34e
100
AcDbEntity
  8
0
 62
7
100
AcDbSpline
 70
8
 71
3
 72
8
 73
4
 74
0
 40
0
 40
0
 40
0
 40
0
 40
1
 40
1
 40
1
 40
1
 10
536.375754
 20
-76.629555
 30
0.0
 10
536.641554
 20
-76.895355
 30
0.0
 10
537.002055
 20
-77.044679
 30
0.0
 10
537.377953
 20
-77.044679
 30
0.0
  0
SPLINE
  5
34f
100
AcDbEntity
  8
0
 62
7
100
AcDbSpline
 70
8
 71
3
 72
8
 73
4
 74
0
 40
0
 40
0
 40
0
 40
0
 40
1
 40
1
 40
1
 40
1
 10
537.377953
 20
-37.359640
 30
0.0
 10
537.002055
 20
-37.359640
 30
0.0
 10
536.641554
 20
-37.508965
 30
0.0
 10
536.375754
 20
-37.774764
 30
0.0
  0
SPLINE
  5
350
100
AcDbEntity
  8
0
 62
7
100
AcDbSpline
 70
8
 71
3
 72
8
 73
4
 74
0
 40
0
 40
0
 40
0
 40
0
 40
1
 40
1
 40
1
 40
1
 10
536.375754
 20
-37.774764
 30
0.0
 10
536.109955
 20
-38.040564
 30
0.0
 10
535.960630
 20
-38.401065
 30
0.0
 10
535.960630
 20
-38.776963
 30
0.0
  0
SPLINE
  5
351
100
AcDbEntity
  8
0
 62
7
100
AcDbSpline
 70
8
 71
3
 72
8
 73
4
 74
0
 40
0
 40
0
 40
0
 40
0
 40
1
 40
1
 40
1
 40
1
 10
575.645669
 20
-38.776963
 30
0.0
 10
575.645669
 20
-38.401065
 30
0.0
 10
575.496345
 20
-38.040564
 30
0.0
 10
575.230545
 20
-37.774764
 30
0.0
  0
SPLINE
  5
352
100
AcDbEntity
  8
0
 62
7
100
AcDbSpline
 70
8
 71
3
 72
8
 73
4
 74
0
 40
0
 40
0
 40
0
 40
0
 40
1
 40
1
 40
1
 40
1
 10
575.230545
 20
-37.774764
 30
0.0
 10
574.964745
 20
-37.508965
 30
0.0
 10
574.604244
 20
-37.359640
 30
0.0
 10
574.228346
 20
-37.359640
 30
0.0
  0
LWPOLYLINE
  5
353
100
AcDbEntity
  8
0
 62
7
100
AcDbPolyline
 90
2
 70
0
 10
466.228346
 20
-37.359640
 30
0.0
 10
429.377953
 20
-37.359640
 30
0.0
  0
LWPOLYLINE
  5
354
100
AcDbEntity
  8
0
 62
7
100
AcDbPolyline
 90
2
 70
0
 10
575.645669
 20
-75.627356
 30
0.0
 10
575.645669
 20
-38.776963
 30
0.0
  0
LWPOLYLINE
  5
355
100
AcDbEntity
  8
0
 62
7
100
AcDbPolyline
 90
2
 70
0
 10
537.377953
 20
-77.044679
 30
0.0
 10
574.228346
 20
-77.044679
 30
0.0
  0
LWPOLYLINE
  5
356
100
AcDbEntity
  8
0
 62
7
100
AcDbPolyline
 90
2
 70
0
 10
535.960630
 20
-38.776963
 30
0.0
 10
535.960630
 20
-75.627356
 30
0.0
  0
SPLINE
  5
357
100
AcDbEntity
  8
0
 62
7
100
AcDbSpline
 70
8
 71
3
 72
8
 73
4
 74
0
 40
0
 40
0
 40
0
 40
0
 40
1
 40
1
 40
1
 40
1
 10
358.228346
 20
-77.044679
 30
0.0
 10
358.604244
 20
-77.044679
 30
0.0
 10
358.964745
 20
-76.895355
 30
0.0
 10
359.230545
 20
-76.629555
 30
0.0
  0
SPLINE
  5
358
100
AcDbEntity
  8
0
 62
7
100
AcDbSpline
 70
8
 71
3
 72
8
 73
4
 74
0
 40
0
 40
0
 40
0
 40
0
 40
1
 40
1
 40
1
 40
1
 10
359.230545
 20
-76.629555
 30
0.0
 10
359.496345
 20
-76.363755
 30
0.0
 10
359.645669
 20
-76.003254
 30
0.0
 10
359.645669
 20
-75.627356
 30
0.0
  0
SPLINE
  5
359
100
AcDbEntity
  8
0
 62
7
100
AcDbSpline
 70
8
 71
3
 72
8
 73
4
 74
0
 40
0
 40
0
 40
0
 40
0
 40
1
 40
1
 40
1
 40
1
 10
319.960630
 20
-75.627356
 30
0.0
 10
319.960630
 20
-76.003254
 30
0.0
 10
320.109955
 20
-76.363755
 30
0.0
 10
320.375754
 20
-76.629555
 30
0.0
  0
SPLINE
  5
35a
100
AcDbEntity
  8
0
 62
7
100
AcDbSpline
 70
8
 71
3
 72
8
 73
4
 74
0
 40
0
 40
0
 40
0
 40
0
 40
1
 40
1
 40
1
 40
1
 10
320.375754
 20
-76.629555
 30
0.0
 10
320.641554
 20
-76.895355
 30
0.0
 10
321.002055
 20
-77.044679
 30
0.0
 10
321.377953
 20
-77.044679
 30
0.0
  0
SPLINE
  5
35b
100
AcDbEntity
  8
0
 62
7
100
AcDbSpline
 70
8
 71
3
 72
8
 73
4
 74
0
 40
0
 40
0
 40
0
 40
0
 40
1
 40
1
 40
1
 40
1
 10
321.377953
 20
-37.359640
 30
0.0
 10
321.002055
 20
-37.359640
 30
0.0
 10
320.641554
 20
-37.508965
 30
0.0
 10
320.375754
 20
-37.774764
 30
0.0
  0
SPLINE
  5
35c
100
AcDbEntity
  8
0
 62
7
100
AcDbSpline
 70
8
 71
3
 72
8
 73
4
 74
0
 40
0
 40
0
 40
0
 40
0
 40
1
 40
1
 40
1
 40
1
 10
320.375754
 20
-37.774764
 30
0.0
 10
320.109955
 20
-38.040564
 30
0.0
 10
319.960630
 20
-38.401065
 30
0.0
 10
319.960630
 20
-38.776963
 30
0.0
  0
SPLINE
  5
35d
100
AcDbEntity
  8
0
 62
7
100
AcDbSpline
 70
8
 71
3
 72
8
 73
4
 74
0
 40
0
 40
0
 40
0
 40
0
 40
1
 40
1
 40
1
 40
1
 10
359.645669
 20
-38.776963
 30
0.0
 10
359.645669
 20
-38.401065
 30
0.0
 10
359.496345
 20
-38.040564
 30
0.0
 10
359.230545
 20
-37.774764
 30
0.0
  0
SPLINE
  5
35e
100
AcDbEntity
  8
0
 62
7
100
AcDbSpline
 70
8
 71
3
 72
8
 73
4
 74
0
 40
0
 40
0
 40
0
 40
0
 40
1
 40
1
 40
1
 40
1
 10
359.230545
 20
-37.774764
 30
0.0
 10
358.964745
 20
-37.508965
 30
0.0
 10
358.604244
 20
-37.359640
 30
0.0
 10
358.228346
 20
-37.359640
 30
0.0
  0
LWPOLYLINE
  5
35f
100
AcDbEntity
  8
0
 62
7
100
AcDbPolyline
 90
2
 70
0
 10
574.228346
 20
-37.359640
 30
0.0
 10
537.377953
 20
-37.359640
 30
0.0
  0
LWPOLYLINE
  5
360
100
AcDbEntity
  8
0
 62
7
100
AcDbPolyline
 90
2
 70
0
 10
359.645669
 20
-75.627356
 30
0.0
 10
359.645669
 20
-38.776963
 30
0.0
  0
LWPOLYLINE
  5
361
100
AcDbEntity
  8
0
 62
7
100
AcDbPolyline
 90
2
 70
0
 10
321.377953
 20
-77.044679
 30
0.0
 10
358.228346
 20
-77.044679
 30
0.0
  0
LWPOLYLINE
  5
362
100
AcDbEntity
  8
0
 62
7
100
AcDbPolyline
 90
2
 70
0
 10
319.960630
 20
-38.776963
 30
0.0
 10
319.960630
 20
-75.627356
 30
0.0
  0
SPLINE
  5
363
100
AcDbEntity
  8
0
 62
7
100
AcDbSpline
 70
8
 71
3
 72
8
 73
4
 74
0
 40
0
 40
0
 40
0
 40
0
 40
1
 40
1
 40
1
 40
1
 10
304.228346
 20
-77.044679
 30
0.0
 10
304.604244
 20
-77.044679
 30
0.0
 10
304.964745
 20
-76.895355
 30
0.0
 10
305.230545
 20
-76.629555
 30
0.0
  0
SPLINE
  5
364
100
AcDbEntity
  8
0
 62
7
100
AcDbSpline
 70
8
 71
3
 72
8
 73
4
 74
0
 40
0
 40
0
 40
0
 40
0
 40
1
 40
1
 40
1
 40
1
 10
305.230545
 20
-76.629555
 30
0.0
 10
305.496345
 20
-76.363755
 30
0.0
 10
305.645669
 20
-76.003254
 30
0.0
 10
305.645669
 20
-75.627356
 30
0.0
  0
SPLINE
  5
365
100
AcDbEntity
  8
0
 62
7
100
AcDbSpline
 70
8
 71
3
 72
8
 73
4
 74
0
 40
0
 40
0
 40
0
 40
0
 40
1
 40
1
 40
1
 40
1
 10
265.960630
 20
-75.627356
 30
0.0
 10
265.960630
 20
-76.003254
 30
0.0
 10
266.109955
 20
-76.363755
 30
0.0
 10
266.375754
 20
-76.629555
 30
0.0
  0
SPLINE
  5
366
100
AcDbEntity
  8
0
 62
7
100
AcDbSpline
 70
8
 71
3
 72
8
 73
4
 74
0
 40
0
 40
0
 40
0
 40
0
 40
1
 40
1
 40
1
 40
1
 10
266.375754
 20
-76.629555
 30
0.0
 10
266.641554
 20
-76.895355
 30
0.0
 10
267.002055
 20
-77.044679
 30
0.0
 10
267.377953
 20
-77.044679
 30
0.0
  0
SPLINE
  5
367
100
AcDbEntity
  8
0
 62
7
100
AcDbSpline
 70
8
 71
3
 72
8
 73
4
 74
0
 40
0
 40
0
 40
0
 40
0
 40
1
 40
1
 40
1
 40
1
 10
267.377953
 20
-37.359640
 30
0.0
 10
267.002055
 20
-37.359640
 30
0.0
 10
266.641554
 20
-37.508965
 30
0.0
 10
266.375754
 20
-37.774764
 30
0.0
  0
SPLINE
  5
368
100
AcDbEntity
  8
0
 62
7
100
AcDbSpline
 70
8
 71
3
 72
8
 73
4
 74
0
 40
0
 40
0
 40
0
 40
0
 40
1
 40
1
 40
1
 40
1
 10
266.375754
 20
-37.774764
 30
0.0
 10
266.109955
 20
-38.040564
 30
0.0
 10
265.960630
 20
-38.401065
 30
0.0
 10
265.960630
 20
-38.776963
 30
0.0
  0
SPLINE
  5
369
100
AcDbEntity
  8
0
 62
7
100
AcDbSpline
 70
8
 71
3
 72
8
 73
4
 74
0
 40
0
 40
0
 40
0
 40
0
 40
1
 40
1
 40
1
 40
1
 10
305.645669
 20
-38.776963
 30
0.0
 10
305.645669
 20
-38.401065
 30
0.0
 10
305.496345
 20
-38.040564
 30
0.0
 10
305.230545
 20
-37.774764
 30
0.0
  0
SPLINE
  5
36a
100
AcDbEntity
  8
0
 62
7
100
AcDbSpline
 70
8
 71
3
 72
8
 73
4
 74
0
 40
0
 40
0
 40
0
 40
0
 40
1
 40
1
 40
1
 40
1
 10
305.230545
 20
-37.774764
 30
0.0
 10
304.964745
 20
-37.508965
 30
0.0
 10
304.604244
 20
-37.359640
 30
0.0
 10
304.228346
 20
-37.359640
 30
0.0
  0
LWPOLYLINE
  5
36b
100
AcDbEntity
  8
0
 62
7
100
AcDbPolyline
 90
2
 70
0
 10
358.228346
 20
-37.359640
 30
0.0
 10
321.377953
 20
-37.359640
 30
0.0
  0
LWPOLYLINE
  5
36c
100
AcDbEntity
  8
0
 62
7
100
AcDbPolyline
 90
2
 70
0
 10
305.645669
 20
-75.627356
 30
0.0
 10
305.645669
 20
-38.776963
 30
0.0
  0
LWPOLYLINE
  5
36d
100
AcDbEntity
  8
0
 62
7
100
AcDbPolyline
 90
2
 70
0
 10
267.377953
 20
-77.044679
 30
0.0
 10
304.228346
 20
-77.044679
 30
0.0
  0
LWPOLYLINE
  5
36e
100
AcDbEntity
  8
0
 62
7
100
AcDbPolyline
 90
2
 70
0
 10
265.960630
 20
-38.776963
 30
0.0
 10
265.960630
 20
-75.627356
 30
0.0
  0
SPLINE
  5
36f
100
AcDbEntity
  8
0
 62
7
100
AcDbSpline
 70
8
 71
3
 72
8
 73
4
 74
0
 40
0
 40
0
 40
0
 40
0
 40
1
 40
1
 40
1
 40
1
 10
196.228346
 20
-77.044679
 30
0.0
 10
196.604244
 20
-77.044679
 30
0.0
 10
196.964745
 20
-76.895355
 30
0.0
 10
197.230545
 20
-76.629555
 30
0.0
  0
SPLINE
  5
370
100
AcDbEntity
  8
0
 62
7
100
AcDbSpline
 70
8
 71
3
 72
8
 73
4
 74
0
 40
0
 40
0
 40
0
 40
0
 40
1
 40
1
 40
1
 40
1
 10
197.230545
 20
-76.629555
 30
0.0
 10
197.496345
 20
-76.363755
 30
0.0
 10
197.645669
 20
-76.003254
 30
0.0
 10
197.645669
 20
-75.627356
 30
0.0
  0
SPLINE
  5
371
100
AcDbEntity
  8
0
 62
7
100
AcDbSpline
 70
8
 71
3
 72
8
 73
4
 74
0
 40
0
 40
0
 40
0
 40
0
 40
1
 40
1
 40
1
 40
1
 10
157.960630
 20
-75.627356
 30
0.0
 10
157.960630
 20
-76.003254
 30
0.0
 10
158.109955
 20
-76.363755
 30
0.0
 10
158.375754
 20
-76.629555
 30
0.0
  0
SPLINE
  5
372
100
AcDbEntity
  8
0
 62
7
100
AcDbSpline
 70
8
 71
3
 72
8
 73
4
 74
0
 40
0
 40
0
 40
0
 40
0
 40
1
 40
1
 40
1
 40
1
 10
158.375754
 20
-76.629555
 30
0.0
 10
158.641554
 20
-76.895355
 30
0.0
 10
159.002055
 20
-77.044679
 30
0.0
 10
159.377953
 20
-77.044679
 30
0.0
  0
SPLINE
  5
373
100
AcDbEntity
  8
0
 62
7
100
AcDbSpline
 70
8
 71
3
 72
8
 73
4
 74
0
 40
0
 40
0
 40
0
 40
0
 40
1
 40
1
 40
1
 40
1
 10
159.377953
 20
-37.359640
 30
0.0
 10
159.002055
 20
-37.359640
 30
0.0
 10
158.641554
 20
-37.508965
 30
0.0
 10
158.375754
 20
-37.774764
 30
0.0
  0
SPLINE
  5
374
100
AcDbEntity
  8
0
 62
7
100
AcDbSpline
 70
8
 71
3
 72
8
 73
4
 74
0
 40
0
 40
0
 40
0
 40
0
 40
1
 40
1
 40
1
 40
1
 10
158.375754
 20
-37.774764
 30
0.0
 10
158.109955
 20
-38.040564
 30
0.0
 10
157.960630
 20
-38.401065
 30
0.0
 10
157.960630
 20
-38.776963
 30
0.0
  0
SPLINE
  5
375
100
AcDbEntity
  8
0
 62
7
100
AcDbSpline
 70
8
 71
3
 72
8
 73
4
 74
0
 40
0
 40
0
 40
0
 40
0
 40
1
 40
1
 40
1
 40
1
 10
197.645669
 20
-38.776963
 30
0.0
 10
197.645669
 20
-38.401065
 30
0.0
 10
197.496345
 20
-38.040564
 30
0.0
 10
197.230545
 20
-37.774764
 30
0.0
  0
SPLINE
  5
376
100
AcDbEntity
  8
0
 62
7
100
AcDbSpline
 70
8
 71
3
 72
8
 73
4
 74
0
 40
0
 40
0
 40
0
 40
0
 40
1
 40
1
 40
1
 40
1
 10
197.230545
 20
-37.774764
 30
0.0
 10
196.964745
 20
-37.508965
 30
0.0
 10
196.604244
 20
-37.359640
 30
0.0
 10
196.228346
 20
-37.359640
 30
0.0
  0
LWPOLYLINE
  5
377
100
AcDbEntity
  8
0
 62
7
100
AcDbPolyline
 90
2
 70
0
 10
304.228346
 20
-37.359640
 30
0.0
 10
267.377953
 20
-37.359640
 30
0.0
  0
LWPOLYLINE
  5
378
100
AcDbEntity
  8
0
 62
7
100
AcDbPolyline
 90
2
 70
0
 10
197.645669
 20
-75.627356
 30
0.0
 10
197.645669
 20
-38.776963
 30
0.0
  0
LWPOLYLINE
  5
379
100
AcDbEntity
  8
0
 62
7
100
AcDbPolyline
 90
2
 70
0
 10
159.377953
 20
-77.044679
 30
0.0
 10
196.228346
 20
-77.044679
 30
0.0
  0
LWPOLYLINE
  5
37a
100
AcDbEntity
  8
0
 62
7
100
AcDbPolyline
 90
2
 70
0
 10
157.960630
 20
-38.776963
 30
0.0
 10
157.960630
 20
-75.627356
 30
0.0
  0
SPLINE
  5
37b
100
AcDbEntity
  8
0
 62
7
100
AcDbSpline
 70
8
 71
3
 72
8
 73
4
 74
0
 40
0
 40
0
 40
0
 40
0
 40
1
 40
1
 40
1
 40
1
 10
250.228346
 20
-77.044679
 30
0.0
 10
250.604244
 20
-77.044679
 30
0.0
 10
250.964745
 20
-76.895355
 30
0.0
 10
251.230545
 20
-76.629555
 30
0.0
  0
SPLINE
  5
37c
100
AcDbEntity
  8
0
 62
7
100
AcDbSpline
 70
8
 71
3
 72
8
 73
4
 74
0
 40
0
 40
0
 40
0
 40
0
 40
1
 40
1
 40
1
 40
1
 10
251.230545
 20
-76.629555
 30
0.0
 10
251.496345
 20
-76.363755
 30
0.0
 10
251.645669
 20
-76.003254
 30
0.0
 10
251.645669
 20
-75.627356
 30
0.0
  0
SPLINE
  5
37d
100
AcDbEntity
  8
0
 62
7
100
AcDbSpline
 70
8
 71
3
 72
8
 73
4
 74
0
 40
0
 40
0
 40
0
 40
0
 40
1
 40
1
 40
1
 40
1
 10
211.960630
 20
-75.627356
 30
0.0
 10
211.960630
 20
-76.003254
 30
0.0
 10
212.109955
 20
-76.363755
 30
0.0
 10
212.375754
 20
-76.629555
 30
0.0
  0
SPLINE
  5
37e
100
AcDbEntity
  8
0
 62
7
100
AcDbSpline
 70
8
 71
3
 72
8
 73
4
 74
0
 40
0
 40
0
 40
0
 40
0
 40
1
 40
1
 40
1
 40
1
 10
212.375754
 20
-76.629555
 30
0.0
 10
212.641554
 20
-76.895355
 30
0.0
 10
213.002055
 20
-77.044679
 30
0.0
 10
213.377953
 20
-77.044679
 30
0.0
  0
SPLINE
  5
37f
100
AcDbEntity
  8
0
 62
7
100
AcDbSpline
 70
8
 71
3
 72
8
 73
4
 74
0
 40
0
 40
0
 40
0
 40
0
 40
1
 40
1
 40
1
 40
1
 10
213.377953
 20
-37.359640
 30
0.0
 10
213.002055
 20
-37.359640
 30
0.0
 10
212.641554
 20
-37.508965
 30
0.0
 10
212.375754
 20
-37.774764
 30
0.0
  0
SPLINE
  5
380
100
AcDbEntity
  8
0
 62
7
100
AcDbSpline
 70
8
 71
3
 72
8
 73
4
 74
0
 40
0
 40
0
 40
0
 40
0
 40
1
 40
1
 40
1
 40
1
 10
212.375754
 20
-37.774764
 30
0.0
 10
212.109955
 20
-38.040564
 30
0.0
 10
211.960630
 20
-38.401065
 30
0.0
 10
211.960630
 20
-38.776963
 30
0.0
  0
SPLINE
  5
381
100
AcDbEntity
  8
0
 62
7
100
AcDbSpline
 70
8
 71
3
 72
8
 73
4
 74
0
 40
0
 40
0
 40
0
 40
0
 40
1
 40
1
 40
1
 40
1
 10
251.645669
 20
-38.776963
 30
0.0
 10
251.645669
 20
-38.401065
 30
0.0
 10
251.496345
 20
-38.040564
 30
0.0
 10
251.230545
 20
-37.774764
 30
0.0
  0
SPLINE
  5
382
100
AcDbEntity
  8
0
 62
7
100
AcDbSpline
 70
8
 71
3
 72
8
 73
4
 74
0
 40
0
 40
0
 40
0
 40
0
 40
1
 40
1
 40
1
 40
1
 10
251.230545
 20
-37.774764
 30
0.0
 10
250.964745
 20
-37.508965
 30
0.0
 10
250.604244
 20
-37.359640
 30
0.0
 10
250.228346
 20
-37.359640
 30
0.0
  0
LWPOLYLINE
  5
383
100
AcDbEntity
  8
0
 62
7
100
AcDbPolyline
 90
2
 70
0
 10
196.228346
 20
-37.359640
 30
0.0
 10
159.377953
 20
-37.359640
 30
0.0
  0
LWPOLYLINE
  5
384
100
AcDbEntity
  8
0
 62
7
100
AcDbPolyline
 90
2
 70
0
 10
251.645669
 20
-75.627356
 30
0.0
 10
251.645669
 20
-38.776963
 30
0.0
  0
LWPOLYLINE
  5
385
100
AcDbEntity
  8
0
 62
7
100
AcDbPolyline
 90
2
 70
0
 10
213.377953
 20
-77.044679
 30
0.0
 10
250.228346
 20
-77.044679
 30
0.0
  0
LWPOLYLINE
  5
386
100
AcDbEntity
  8
0
 62
7
100
AcDbPolyline
 90
2
 70
0
 10
211.960630
 20
-38.776963
 30
0.0
 10
211.960630
 20
-75.627356
 30
0.0
  0
SPLINE
  5
387
100
AcDbEntity
  8
0
 62
7
100
AcDbSpline
 70
8
 71
3
 72
8
 73
4
 74
0
 40
0
 40
0
 40
0
 40
0
 40
1
 40
1
 40
1
 40
1
 10
162.478346
 20
-185.044679
 30
0.0
 10
162.854244
 20
-185.044679
 30
0.0
 10
163.214745
 20
-184.895355
 30
0.0
 10
163.480545
 20
-184.629555
 30
0.0
  0
SPLINE
  5
388
100
AcDbEntity
  8
0
 62
7
100
AcDbSpline
 70
8
 71
3
 72
8
 73
4
 74
0
 40
0
 40
0
 40
0
 40
0
 40
1
 40
1
 40
1
 40
1
 10
163.480545
 20
-184.629555
 30
0.0
 10
163.746345
 20
-184.363755
 30
0.0
 10
163.895669
 20
-184.003254
 30
0.0
 10
163.895669
 20
-183.627356
 30
0.0
  0
SPLINE
  5
389
100
AcDbEntity
  8
0
 62
7
100
AcDbSpline
 70
8
 71
3
 72
8
 73
4
 74
0
 40
0
 40
0
 40
0
 40
0
 40
1
 40
1
 40
1
 40
1
 10
124.210630
 20
-183.627356
 30
0.0
 10
124.210630
 20
-184.003254
 30
0.0
 10
124.359955
 20
-184.363755
 30
0.0
 10
124.625754
 20
-184.629555
 30
0.0
  0
SPLINE
  5
38a
100
AcDbEntity
  8
0
 62
7
100
AcDbSpline
 70
8
 71
3
 72
8
 73
4
 74
0
 40
0
 40
0
 40
0
 40
0
 40
1
 40
1
 40
1
 40
1
 10
124.625754
 20
-184.629555
 30
0.0
 10
124.891554
 20
-184.895355
 30
0.0
 10
125.252055
 20
-185.044679
 30
0.0
 10
125.627953
 20
-185.044679
 30
0.0
  0
SPLINE
  5
38b
100
AcDbEntity
  8
0
 62
7
100
AcDbSpline
 70
8
 71
3
 72
8
 73
4
 74
0
 40
0
 40
0
 40
0
 40
0
 40
1
 40
1
 40
1
 40
1
 10
125.627953
 20
-145.359640
 30
0.0
 10
125.252055
 20
-145.359640
 30
0.0
 10
124.891554
 20
-145.508965
 30
0.0
 10
124.625754
 20
-145.774764
 30
0.0
  0
SPLINE
  5
38c
100
AcDbEntity
  8
0
 62
7
100
AcDbSpline
 70
8
 71
3
 72
8
 73
4
 74
0
 40
0
 40
0
 40
0
 40
0
 40
1
 40
1
 40
1
 40
1
 10
124.625754
 20
-145.774764
 30
0.0
 10
124.359955
 20
-146.040564
 30
0.0
 10
124.210630
 20
-146.401065
 30
0.0
 10
124.210630
 20
-146.776963
 30
0.0
  0
SPLINE
  5
38d
100
AcDbEntity
  8
0
 62
7
100
AcDbSpline
 70
8
 71
3
 72
8
 73
4
 74
0
 40
0
 40
0
 40
0
 40
0
 40
1
 40
1
 40
1
 40
1
 10
163.895669
 20
-146.776963
 30
0.0
 10
163.895669
 20
-146.401065
 30
0.0
 10
163.746345
 20
-146.040564
 30
0.0
 10
163.480545
 20
-145.774764
 30
0.0
  0
SPLINE
  5
38e
100
AcDbEntity
  8
0
 62
7
100
AcDbSpline
 70
8
 71
3
 72
8
 73
4
 74
0
 40
0
 40
0
 40
0
 40
0
 40
1
 40
1
 40
1
 40
1
 10
163.480545
 20
-145.774764
 30
0.0
 10
163.214745
 20
-145.508965
 30
0.0
 10
162.854244
 20
-145.359640
 30
0.0
 10
162.478346
 20
-145.359640
 30
0.0
  0
LWPOLYLINE
  5
38f
100
AcDbEntity
  8
0
 62
7
100
AcDbPolyline
 90
2
 70
0
 10
250.228346
 20
-37.359640
 30
0.0
 10
213.377953
 20
-37.359640
 30
0.0
  0
LWPOLYLINE
  5
390
100
AcDbEntity
  8
0
 62
7
100
AcDbPolyline
 90
2
 70
0
 10
163.895669
 20
-183.627356
 30
0.0
 10
163.895669
 20
-146.776963
 30
0.0
  0
LWPOLYLINE
  5
391
100
AcDbEntity
  8
0
 62
7
100
AcDbPolyline
 90
2
 70
0
 10
125.627953
 20
-185.044679
 30
0.0
 10
162.478346
 20
-185.044679
 30
0.0
  0
LWPOLYLINE
  5
392
100
AcDbEntity
  8
0
 62
7
100
AcDbPolyline
 90
2
 70
0
 10
124.210630
 20
-146.776963
 30
0.0
 10
124.210630
 20
-183.627356
 30
0.0
  0
SPLINE
  5
393
100
AcDbEntity
  8
0
 62
7
100
AcDbSpline
 70
8
 71
3
 72
8
 73
4
 74
0
 40
0
 40
0
 40
0
 40
0
 40
1
 40
1
 40
1
 40
1
 10
148.978346
 20
-131.044679
 30
0.0
 10
149.354244
 20
-131.044679
 30
0.0
 10
149.714745
 20
-130.895355
 30
0.0
 10
149.980545
 20
-130.629555
 30
0.0
  0
SPLINE
  5
394
100
AcDbEntity
  8
0
 62
7
100
AcDbSpline
 70
8
 71
3
 72
8
 73
4
 74
0
 40
0
 40
0
 40
0
 40
0
 40
1
 40
1
 40
1
 40
1
 10
149.980545
 20
-130.629555
 30
0.0
 10
150.246345
 20
-130.363755
 30
0.0
 10
150.395669
 20
-130.003254
 30
0.0
 10
150.395669
 20
-129.627356
 30
0.0
  0
SPLINE
  5
395
100
AcDbEntity
  8
0
 62
7
100
AcDbSpline
 70
8
 71
3
 72
8
 73
4
 74
0
 40
0
 40
0
 40
0
 40
0
 40
1
 40
1
 40
1
 40
1
 10
110.710630
 20
-129.627356
 30
0.0
 10
110.710630
 20
-130.003254
 30
0.0
 10
110.859955
 20
-130.363755
 30
0.0
 10
111.125754
 20
-130.629555
 30
0.0
  0
SPLINE
  5
396
100
AcDbEntity
  8
0
 62
7
100
AcDbSpline
 70
8
 71
3
 72
8
 73
4
 74
0
 40
0
 40
0
 40
0
 40
0
 40
1
 40
1
 40
1
 40
1
 10
111.125754
 20
-130.629555
 30
0.0
 10
111.391554
 20
-130.895355
 30
0.0
 10
111.752055
 20
-131.044679
 30
0.0
 10
112.127953
 20
-131.044679
 30
0.0
  0
SPLINE
  5
397
100
AcDbEntity
  8
0
 62
7
100
AcDbSpline
 70
8
 71
3
 72
8
 73
4
 74
0
 40
0
 40
0
 40
0
 40
0
 40
1
 40
1
 40
1
 40
1
 10
112.127953
 20
-91.359640
 30
0.0
 10
111.752055
 20
-91.359640
 30
0.0
 10
111.391554
 20
-91.508965
 30
0.0
 10
111.125754
 20
-91.774764
 30
0.0
  0
SPLINE
  5
398
100
AcDbEntity
  8
0
 62
7
100
AcDbSpline
 70
8
 71
3
 72
8
 73
4
 74
0
 40
0
 40
0
 40
0
 40
0
 40
1
 40
1
 40
1
 40
1
 10
111.125754
 20
-91.774764
 30
0.0
 10
110.859955
 20
-92.040564
 30
0.0
 10
110.710630
 20
-92.401065
 30
0.0
 10
110.710630
 20
-92.776963
 30
0.0
  0
SPLINE
  5
399
100
AcDbEntity
  8
0
 62
7
100
AcDbSpline
 70
8
 71
3
 72
8
 73
4
 74
0
 40
0
 40
0
 40
0
 40
0
 40
1
 40
1
 40
1
 40
1
 10
150.395669
 20
-92.776963
 30
0.0
 10
150.395669
 20
-92.401065
 30
0.0
 10
150.246345
 20
-92.040564
 30
0.0
 10
149.980545
 20
-91.774764
 30
0.0
  0
SPLINE
  5
39a
100
AcDbEntity
  8
0
 62
7
100
AcDbSpline
 70
8
 71
3
 72
8
 73
4
 74
0
 40
0
 40
0
 40
0
 40
0
 40
1
 40
1
 40
1
 40
1
 10
149.980545
 20
-91.774764
 30
0.0
 10
149.714745
 20
-91.508965
 30
0.0
 10
149.354244
 20
-91.359640
 30
0.0
 10
148.978346
 20
-91.359640
 30
0.0
  0
LWPOLYLINE
  5
39b
100
AcDbEntity
  8
0
 62
7
100
AcDbPolyline
 90
2
 70
0
 10
162.478346
 20
-145.359640
 30
0.0
 10
125.627953
 20
-145.359640
 30
0.0
  0
LWPOLYLINE
  5
39c
100
AcDbEntity
  8
0
 62
7
100
AcDbPolyline
 90
2
 70
0
 10
150.395669
 20
-129.627356
 30
0.0
 10
150.395669
 20
-92.776963
 30
0.0
  0
LWPOLYLINE
  5
39d
100
AcDbEntity
  8
0
 62
7
100
AcDbPolyline
 90
2
 70
0
 10
112.127953
 20
-131.044679
 30
0.0
 10
148.978346
 20
-131.044679
 30
0.0
  0
LWPOLYLINE
  5
39e
100
AcDbEntity
  8
0
 62
7
100
AcDbPolyline
 90
2
 70
0
 10
110.710630
 20
-92.776963
 30
0.0
 10
110.710630
 20
-129.627356
 30
0.0
  0
LWPOLYLINE
  5
39f
100
AcDbEntity
  8
0
 62
7
100
AcDbPolyline
 90
2
 70
0
 10
148.978346
 20
-91.359640
 30
0.0
 10
112.127953
 20
-91.359640
 30
0.0
  0
LWPOLYLINE
  5
3a0
100
AcDbEntity
  8
0
 62
7
100
AcDbPolyline
 90
2
 70
0
 10
61.228346
 20
-199.359640
 30
0.0
 10
24.377953
 20
-199.359640
 30
0.0
  0
LWPOLYLINE
  5
3a1
100
AcDbEntity
  8
0
 62
7
100
AcDbPolyline
 90
2
 70
0
 10
22.960630
 20
-200.776963
 30
0.0
 10
22.960630
 20
-237.627356
 30
0.0
  0
LWPOLYLINE
  5
3a2
100
AcDbEntity
  8
0
 62
7
100
AcDbPolyline
 90
2
 70
0
 10
24.377953
 20
-239.044679
 30
0.0
 10
61.228346
 20
-239.044679
 30
0.0
  0
SPLINE
  5
3a3
100
AcDbEntity
  8
0
 62
7
100
AcDbSpline
 70
8
 71
3
 72
8
 73
4
 74
0
 40
0
 40
0
 40
0
 40
0
 40
1
 40
1
 40
1
 40
1
 10
62.645669
 20
-200.776963
 30
0.0
 10
62.645669
 20
-200.401065
 30
0.0
 10
62.496345
 20
-200.040564
 30
0.0
 10
62.230545
 20
-199.774764
 30
0.0
  0
SPLINE
  5
3a4
100
AcDbEntity
  8
0
 62
7
100
AcDbSpline
 70
8
 71
3
 72
8
 73
4
 74
0
 40
0
 40
0
 40
0
 40
0
 40
1
 40
1
 40
1
 40
1
 10
62.230545
 20
-199.774764
 30
0.0
 10
61.964745
 20
-199.508965
 30
0.0
 10
61.604244
 20
-199.359640
 30
0.0
 10
61.228346
 20
-199.359640
 30
0.0
  0
SPLINE
  5
3a5
100
AcDbEntity
  8
0
 62
7
100
AcDbSpline
 70
8
 71
3
 72
8
 73
4
 74
0
 40
0
 40
0
 40
0
 40
0
 40
1
 40
1
 40
1
 40
1
 10
24.377953
 20
-199.359640
 30
0.0
 10
24.002055
 20
-199.359640
 30
0.0
 10
23.641554
 20
-199.508965
 30
0.0
 10
23.375754
 20
-199.774764
 30
0.0
  0
SPLINE
  5
3a6
100
AcDbEntity
  8
0
 62
7
100
AcDbSpline
 70
8
 71
3
 72
8
 73
4
 74
0
 40
0
 40
0
 40
0
 40
0
 40
1
 40
1
 40
1
 40
1
 10
23.375754
 20
-199.774764
 30
0.0
 10
23.109955
 20
-200.040564
 30
0.0
 10
22.960630
 20
-200.401065
 30
0.0
 10
22.960630
 20
-200.776963
 30
0.0
  0
SPLINE
  5
3a7
100
AcDbEntity
  8
0
 62
7
100
AcDbSpline
 70
8
 71
3
 72
8
 73
4
 74
0
 40
0
 40
0
 40
0
 40
0
 40
1
 40
1
 40
1
 40
1
 10
22.960630
 20
-237.627356
 30
0.0
 10
22.960630
 20
-238.003254
 30
0.0
 10
23.109955
 20
-238.363755
 30
0.0
 10
23.375754
 20
-238.629555
 30
0.0
  0
SPLINE
  5
3a8
100
AcDbEntity
  8
0
 62
7
100
AcDbSpline
 70
8
 71
3
 72
8
 73
4
 74
0
 40
0
 40
0
 40
0
 40
0
 40
1
 40
1
 40
1
 40
1
 10
23.375754
 20
-238.629555
 30
0.0
 10
23.641554
 20
-238.895355
 30
0.0
 10
24.002055
 20
-239.044679
 30
0.0
 10
24.377953
 20
-239.044679
 30
0.0
  0
SPLINE
  5
3a9
100
AcDbEntity
  8
0
 62
7
100
AcDbSpline
 70
8
 71
3
 72
8
 73
4
 74
0
 40
0
 40
0
 40
0
 40
0
 40
1
 40
1
 40
1
 40
1
 10
61.228346
 20
-239.044679
 30
0.0
 10
61.604244
 20
-239.044679
 30
0.0
 10
61.964745
 20
-238.895355
 30
0.0
 10
62.230545
 20
-238.629555
 30
0.0
  0
SPLINE
  5
3aa
100
AcDbEntity
  8
0
 62
7
100
AcDbSpline
 70
8
 71
3
 72
8
 73
4
 74
0
 40
0
 40
0
 40
0
 40
0
 40
1
 40
1
 40
1
 40
1
 10
62.230545
 20
-238.629555
 30
0.0
 10
62.496345
 20
-238.363755
 30
0.0
 10
62.645669
 20
-238.003254
 30
0.0
 10
62.645669
 20
-237.627356
 30
0.0
  0
LWPOLYLINE
  5
3ab
100
AcDbEntity
  8
0
 62
7
100
AcDbPolyline
 90
2
 70
0
 10
62.645669
 20
-237.627356
 30
0.0
 10
62.645669
 20
-200.776963
 30
0.0
  0
LWPOLYLINE
  5
3ac
100
AcDbEntity
  8
0
 62
7
100
AcDbPolyline
 90
2
 70
0
 10
61.228346
 20
-145.359640
 30
0.0
 10
24.377953
 20
-145.359640
 30
0.0
  0
LWPOLYLINE
  5
3ad
100
AcDbEntity
  8
0
 62
7
100
AcDbPolyline
 90
2
 70
0
 10
22.960630
 20
-146.776963
 30
0.0
 10
22.960630
 20
-183.627356
 30
0.0
  0
LWPOLYLINE
  5
3ae
100
AcDbEntity
  8
0
 62
7
100
AcDbPolyline
 90
2
 70
0
 10
24.377953
 20
-185.044679
 30
0.0
 10
61.228346
 20
-185.044679
 30
0.0
  0
SPLINE
  5
3af
100
AcDbEntity
  8
0
 62
7
100
AcDbSpline
 70
8
 71
3
 72
8
 73
4
 74
0
 40
0
 40
0
 40
0
 40
0
 40
1
 40
1
 40
1
 40
1
 10
62.645669
 20
-146.776963
 30
0.0
 10
62.645669
 20
-146.401065
 30
0.0
 10
62.496345
 20
-146.040564
 30
0.0
 10
62.230545
 20
-145.774764
 30
0.0
  0
SPLINE
  5
3b0
100
AcDbEntity
  8
0
 62
7
100
AcDbSpline
 70
8
 71
3
 72
8
 73
4
 74
0
 40
0
 40
0
 40
0
 40
0
 40
1
 40
1
 40
1
 40
1
 10
62.230545
 20
-145.774764
 30
0.0
 10
61.964745
 20
-145.508965
 30
0.0
 10
61.604244
 20
-145.359640
 30
0.0
 10
61.228346
 20
-145.359640
 30
0.0
  0
SPLINE
  5
3b1
100
AcDbEntity
  8
0
 62
7
100
AcDbSpline
 70
8
 71
3
 72
8
 73
4
 74
0
 40
0
 40
0
 40
0
 40
0
 40
1
 40
1
 40
1
 40
1
 10
24.377953
 20
-145.359640
 30
0.0
 10
24.002055
 20
-145.359640
 30
0.0
 10
23.641554
 20
-145.508965
 30
0.0
 10
23.375754
 20
-145.774764
 30
0.0
  0
SPLINE
  5
3b2
100
AcDbEntity
  8
0
 62
7
100
AcDbSpline
 70
8
 71
3
 72
8
 73
4
 74
0
 40
0
 40
0
 40
0
 40
0
 40
1
 40
1
 40
1
 40
1
 10
23.375754
 20
-145.774764
 30
0.0
 10
23.109955
 20
-146.040564
 30
0.0
 10
22.960630
 20
-146.401065
 30
0.0
 10
22.960630
 20
-146.776963
 30
0.0
  0
SPLINE
  5
3b3
100
AcDbEntity
  8
0
 62
7
100
AcDbSpline
 70
8
 71
3
 72
8
 73
4
 74
0
 40
0
 40
0
 40
0
 40
0
 40
1
 40
1
 40
1
 40
1
 10
22.960630
 20
-183.627356
 30
0.0
 10
22.960630
 20
-184.003254
 30
0.0
 10
23.109955
 20
-184.363755
 30
0.0
 10
23.375754
 20
-184.629555
 30
0.0
  0
SPLINE
  5
3b4
100
AcDbEntity
  8
0
 62
7
100
AcDbSpline
 70
8
 71
3
 72
8
 73
4
 74
0
 40
0
 40
0
 40
0
 40
0
 40
1
 40
1
 40
1
 40
1
 10
23.375754
 20
-184.629555
 30
0.0
 10
23.641554
 20
-184.895355
 30
0.0
 10
24.002055
 20
-185.044679
 30
0.0
 10
24.377953
 20
-185.044679
 30
0.0
  0
SPLINE
  5
3b5
100
AcDbEntity
  8
0
 62
7
100
AcDbSpline
 70
8
 71
3
 72
8
 73
4
 74
0
 40
0
 40
0
 40
0
 40
0
 40
1
 40
1
 40
1
 40
1
 10
61.228346
 20
-185.044679
 30
0.0
 10
61.604244
 20
-185.044679
 30
0.0
 10
61.964745
 20
-184.895355
 30
0.0
 10
62.230545
 20
-184.629555
 30
0.0
  0
SPLINE
  5
3b6
100
AcDbEntity
  8
0
 62
7
100
AcDbSpline
 70
8
 71
3
 72
8
 73
4
 74
0
 40
0
 40
0
 40
0
 40
0
 40
1
 40
1
 40
1
 40
1
 10
62.230545
 20
-184.629555
 30
0.0
 10
62.496345
 20
-184.363755
 30
0.0
 10
62.645669
 20
-184.003254
 30
0.0
 10
62.645669
 20
-183.627356
 30
0.0
  0
LWPOLYLINE
  5
3b7
100
AcDbEntity
  8
0
 62
7
100
AcDbPolyline
 90
2
 70
0
 10
62.645669
 20
-183.627356
 30
0.0
 10
62.645669
 20
-146.776963
 30
0.0
  0
LWPOLYLINE
  5
3b8
100
AcDbEntity
  8
0
 62
7
100
AcDbPolyline
 90
2
 70
0
 10
61.228346
 20
-91.359640
 30
0.0
 10
24.377953
 20
-91.359640
 30
0.0
  0
LWPOLYLINE
  5
3b9
100
AcDbEntity
  8
0
 62
7
100
AcDbPolyline
 90
2
 70
0
 10
22.960630
 20
-92.776963
 30
0.0
 10
22.960630
 20
-129.627356
 30
0.0
  0
LWPOLYLINE
  5
3ba
100
AcDbEntity
  8
0
 62
7
100
AcDbPolyline
 90
2
 70
0
 10
24.377953
 20
-131.044679
 30
0.0
 10
61.228346
 20
-131.044679
 30
0.0
  0
SPLINE
  5
3bb
100
AcDbEntity
  8
0
 62
7
100
AcDbSpline
 70
8
 71
3
 72
8
 73
4
 74
0
 40
0
 40
0
 40
0
 40
0
 40
1
 40
1
 40
1
 40
1
 10
62.645669
 20
-92.776963
 30
0.0
 10
62.645669
 20
-92.401065
 30
0.0
 10
62.496345
 20
-92.040564
 30
0.0
 10
62.230545
 20
-91.774764
 30
0.0
  0
SPLINE
  5
3bc
100
AcDbEntity
  8
0
 62
7
100
AcDbSpline
 70
8
 71
3
 72
8
 73
4
 74
0
 40
0
 40
0
 40
0
 40
0
 40
1
 40
1
 40
1
 40
1
 10
62.230545
 20
-91.774764
 30
0.0
 10
61.964745
 20
-91.508965
 30
0.0
 10
61.604244
 20
-91.359640
 30
0.0
 10
61.228346
 20
-91.359640
 30
0.0
  0
SPLINE
  5
3bd
100
AcDbEntity
  8
0
 62
7
100
AcDbSpline
 70
8
 71
3
 72
8
 73
4
 74
0
 40
0
 40
0
 40
0
 40
0
 40
1
 40
1
 40
1
 40
1
 10
24.377953
 20
-91.359640
 30
0.0
 10
24.002055
 20
-91.359640
 30
0.0
 10
23.641554
 20
-91.508965
 30
0.0
 10
23.375754
 20
-91.774764
 30
0.0
  0
SPLINE
  5
3be
100
AcDbEntity
  8
0
 62
7
100
AcDbSpline
 70
8
 71
3
 72
8
 73
4
 74
0
 40
0
 40
0
 40
0
 40
0
 40
1
 40
1
 40
1
 40
1
 10
23.375754
 20
-91.774764
 30
0.0
 10
23.109955
 20
-92.040564
 30
0.0
 10
22.960630
 20
-92.401065
 30
0.0
 10
22.960630
 20
-92.776963
 30
0.0
  0
SPLINE
  5
3bf
100
AcDbEntity
  8
0
 62
7
100
AcDbSpline
 70
8
 71
3
 72
8
 73
4
 74
0
 40
0
 40
0
 40
0
 40
0
 40
1
 40
1
 40
1
 40
1
 10
22.960630
 20
-129.627356
 30
0.0
 10
22.960630
 20
-130.003254
 30
0.0
 10
23.109955
 20
-130.363755
 30
0.0
 10
23.375754
 20
-130.629555
 30
0.0
  0
SPLINE
  5
3c0
100
AcDbEntity
  8
0
 62
7
100
AcDbSpline
 70
8
 71
3
 72
8
 73
4
 74
0
 40
0
 40
0
 40
0
 40
0
 40
1
 40
1
 40
1
 40
1
 10
23.375754
 20
-130.629555
 30
0.0
 10
23.641554
 20
-130.895355
 30
0.0
 10
24.002055
 20
-131.044679
 30
0.0
 10
24.377953
 20
-131.044679
 30
0.0
  0
SPLINE
  5
3c1
100
AcDbEntity
  8
0
 62
7
100
AcDbSpline
 70
8
 71
3
 72
8
 73
4
 74
0
 40
0
 40
0
 40
0
 40
0
 40
1
 40
1
 40
1
 40
1
 10
61.228346
 20
-131.044679
 30
0.0
 10
61.604244
 20
-131.044679
 30
0.0
 10
61.964745
 20
-130.895355
 30
0.0
 10
62.230545
 20
-130.629555
 30
0.0
  0
SPLINE
  5
3c2
100
AcDbEntity
  8
0
 62
7
100
AcDbSpline
 70
8
 71
3
 72
8
 73
4
 74
0
 40
0
 40
0
 40
0
 40
0
 40
1
 40
1
 40
1
 40
1
 10
62.230545
 20
-130.629555
 30
0.0
 10
62.496345
 20
-130.363755
 30
0.0
 10
62.645669
 20
-130.003254
 30
0.0
 10
62.645669
 20
-129.627356
 30
0.0
  0
LWPOLYLINE
  5
3c3
100
AcDbEntity
  8
0
 62
7
100
AcDbPolyline
 90
2
 70
0
 10
62.645669
 20
-129.627356
 30
0.0
 10
62.645669
 20
-92.776963
 30
0.0
  0
LWPOLYLINE
  5
3c4
100
AcDbEntity
  8
0
 62
7
100
AcDbPolyline
 90
2
 70
0
 10
61.228346
 20
-37.359640
 30
0.0
 10
24.377953
 20
-37.359640
 30
0.0
  0
LWPOLYLINE
  5
3c5
100
AcDbEntity
  8
0
 62
7
100
AcDbPolyline
 90
2
 70
0
 10
22.960630
 20
-38.776963
 30
0.0
 10
22.960630
 20
-75.627356
 30
0.0
  0
LWPOLYLINE
  5
3c6
100
AcDbEntity
  8
0
 62
7
100
AcDbPolyline
 90
2
 70
0
 10
24.377953
 20
-77.044679
 30
0.0
 10
61.228346
 20
-77.044679
 30
0.0
  0
SPLINE
  5
3c7
100
AcDbEntity
  8
0
 62
7
100
AcDbSpline
 70
8
 71
3
 72
8
 73
4
 74
0
 40
0
 40
0
 40
0
 40
0
 40
1
 40
1
 40
1
 40
1
 10
62.645669
 20
-38.776963
 30
0.0
 10
62.645669
 20
-38.401065
 30
0.0
 10
62.496345
 20
-38.040564
 30
0.0
 10
62.230545
 20
-37.774764
 30
0.0
  0
SPLINE
  5
3c8
100
AcDbEntity
  8
0
 62
7
100
AcDbSpline
 70
8
 71
3
 72
8
 73
4
 74
0
 40
0
 40
0
 40
0
 40
0
 40
1
 40
1
 40
1
 40
1
 10
62.230545
 20
-37.774764
 30
0.0
 10
61.964745
 20
-37.508965
 30
0.0
 10
61.604244
 20
-37.359640
 30
0.0
 10
61.228346
 20
-37.359640
 30
0.0
  0
SPLINE
  5
3c9
100
AcDbEntity
  8
0
 62
7
100
AcDbSpline
 70
8
 71
3
 72
8
 73
4
 74
0
 40
0
 40
0
 40
0
 40
0
 40
1
 40
1
 40
1
 40
1
 10
24.377953
 20
-37.359640
 30
0.0
 10
24.002055
 20
-37.359640
 30
0.0
 10
23.641554
 20
-37.508965
 30
0.0
 10
23.375754
 20
-37.774764
 30
0.0
  0
SPLINE
  5
3ca
100
AcDbEntity
  8
0
 62
7
100
AcDbSpline
 70
8
 71
3
 72
8
 73
4
 74
0
 40
0
 40
0
 40
0
 40
0
 40
1
 40
1
 40
1
 40
1
 10
23.375754
 20
-37.774764
 30
0.0
 10
23.109955
 20
-38.040564
 30
0.0
 10
22.960630
 20
-38.401065
 30
0.0
 10
22.960630
 20
-38.776963
 30
0.0
  0
SPLINE
  5
3cb
100
AcDbEntity
  8
0
 62
7
100
AcDbSpline
 70
8
 71
3
 72
8
 73
4
 74
0
 40
0
 40
0
 40
0
 40
0
 40
1
 40
1
 40
1
 40
1
 10
22.960630
 20
-75.627356
 30
0.0
 10
22.960630
 20
-76.003254
 30
0.0
 10
23.109955
 20
-76.363755
 30
0.0
 10
23.375754
 20
-76.629555
 30
0.0
  0
SPLINE
  5
3cc
100
AcDbEntity
  8
0
 62
7
100
AcDbSpline
 70
8
 71
3
 72
8
 73
4
 74
0
 40
0
 40
0
 40
0
 40
0
 40
1
 40
1
 40
1
 40
1
 10
23.375754
 20
-76.629555
 30
0.0
 10
23.641554
 20
-76.895355
 30
0.0
 10
24.002055
 20
-77.044679
 30
0.0
 10
24.377953
 20
-77.044679
 30
0.0
  0
SPLINE
  5
3cd
100
AcDbEntity
  8
0
 62
7
100
AcDbSpline
 70
8
 71
3
 72
8
 73
4
 74
0
 40
0
 40
0
 40
0
 40
0
 40
1
 40
1
 40
1
 40
1
 10
61.228346
 20
-77.044679
 30
0.0
 10
61.604244
 20
-77.044679
 30
0.0
 10
61.964745
 20
-76.895355
 30
0.0
 10
62.230545
 20
-76.629555
 30
0.0
  0
SPLINE
  5
3ce
100
AcDbEntity
  8
0
 62
7
100
AcDbSpline
 70
8
 71
3
 72
8
 73
4
 74
0
 40
0
 40
0
 40
0
 40
0
 40
1
 40
1
 40
1
 40
1
 10
62.230545
 20
-76.629555
 30
0.0
 10
62.496345
 20
-76.363755
 30
0.0
 10
62.645669
 20
-76.003254
 30
0.0
 10
62.645669
 20
-75.627356
 30
0.0
  0
SPLINE
  5
3cf
100
AcDbEntity
  8
0
 62
7
100
AcDbSpline
 70
8
 71
3
 72
8
 73
4
 74
0
 40
0
 40
0
 40
0
 40
0
 40
1
 40
1
 40
1
 40
1
 10
142.228346
 20
-77.044679
 30
0.0
 10
142.604244
 20
-77.044679
 30
0.0
 10
142.964745
 20
-76.895355
 30
0.0
 10
143.230545
 20
-76.629555
 30
0.0
  0
SPLINE
  5
3d0
100
AcDbEntity
  8
0
 62
7
100
AcDbSpline
 70
8
 71
3
 72
8
 73
4
 74
0
 40
0
 40
0
 40
0
 40
0
 40
1
 40
1
 40
1
 40
1
 10
143.230545
 20
-76.629555
 30
0.0
 10
143.496345
 20
-76.363755
 30
0.0
 10
143.645669
 20
-76.003254
 30
0.0
 10
143.645669
 20
-75.627356
 30
0.0
  0
SPLINE
  5
3d1
100
AcDbEntity
  8
0
 62
7
100
AcDbSpline
 70
8
 71
3
 72
8
 73
4
 74
0
 40
0
 40
0
 40
0
 40
0
 40
1
 40
1
 40
1
 40
1
 10
103.960630
 20
-75.627356
 30
0.0
 10
103.960630
 20
-76.003254
 30
0.0
 10
104.109955
 20
-76.363755
 30
0.0
 10
104.375754
 20
-76.629555
 30
0.0
  0
SPLINE
  5
3d2
100
AcDbEntity
  8
0
 62
7
100
AcDbSpline
 70
8
 71
3
 72
8
 73
4
 74
0
 40
0
 40
0
 40
0
 40
0
 40
1
 40
1
 40
1
 40
1
 10
104.375754
 20
-76.629555
 30
0.0
 10
104.641554
 20
-76.895355
 30
0.0
 10
105.002055
 20
-77.044679
 30
0.0
 10
105.377953
 20
-77.044679
 30
0.0
  0
SPLINE
  5
3d3
100
AcDbEntity
  8
0
 62
7
100
AcDbSpline
 70
8
 71
3
 72
8
 73
4
 74
0
 40
0
 40
0
 40
0
 40
0
 40
1
 40
1
 40
1
 40
1
 10
105.377953
 20
-37.359640
 30
0.0
 10
105.002055
 20
-37.359640
 30
0.0
 10
104.641554
 20
-37.508965
 30
0.0
 10
104.375754
 20
-37.774764
 30
0.0
  0
SPLINE
  5
3d4
100
AcDbEntity
  8
0
 62
7
100
AcDbSpline
 70
8
 71
3
 72
8
 73
4
 74
0
 40
0
 40
0
 40
0
 40
0
 40
1
 40
1
 40
1
 40
1
 10
104.375754
 20
-37.774764
 30
0.0
 10
104.109955
 20
-38.040564
 30
0.0
 10
103.960630
 20
-38.401065
 30
0.0
 10
103.960630
 20
-38.776963
 30
0.0
  0
SPLINE
  5
3d5
100
AcDbEntity
  8
0
 62
7
100
AcDbSpline
 70
8
 71
3
 72
8
 73
4
 74
0
 40
0
 40
0
 40
0
 40
0
 40
1
 40
1
 40
1
 40
1
 10
143.645669
 20
-38.776963
 30
0.0
 10
143.645669
 20
-38.401065
 30
0.0
 10
143.496345
 20
-38.040564
 30
0.0
 10
143.230545
 20
-37.774764
 30
0.0
  0
SPLINE
  5
3d6
100
AcDbEntity
  8
0
 62
7
100
AcDbSpline
 70
8
 71
3
 72
8
 73
4
 74
0
 40
0
 40
0
 40
0
 40
0
 40
1
 40
1
 40
1
 40
1
 10
143.230545
 20
-37.774764
 30
0.0
 10
142.964745
 20
-37.508965
 30
0.0
 10
142.604244
 20
-37.359640
 30
0.0
 10
142.228346
 20
-37.359640
 30
0.0
  0
LWPOLYLINE
  5
3d7
100
AcDbEntity
  8
0
 62
7
100
AcDbPolyline
 90
2
 70
0
 10
62.645669
 20
-75.627356
 30
0.0
 10
62.645669
 20
-38.776963
 30
0.0
  0
LWPOLYLINE
  5
3d8
100
AcDbEntity
  8
0
 62
7
100
AcDbPolyline
 90
2
 70
0
 10
143.645669
 20
-75.627356
 30
0.0
 10
143.645669
 20
-38.776963
 30
0.0
  0
LWPOLYLINE
  5
3d9
100
AcDbEntity
  8
0
 62
7
100
AcDbPolyline
 90
2
 70
0
 10
105.377953
 20
-77.044679
 30
0.0
 10
142.228346
 20
-77.044679
 30
0.0
  0
LWPOLYLINE
  5
3da
100
AcDbEntity
  8
0
 62
7
100
AcDbPolyline
 90
2
 70
0
 10
103.960630
 20
-38.776963
 30
0.0
 10
103.960630
 20
-75.627356
 30
0.0
  0
LWPOLYLINE
  5
3db
100
AcDbEntity
  8
0
 62
7
100
AcDbPolyline
 90
2
 70
0
 10
142.228346
 20
-37.359640
 30
0.0
 10
105.377953
 20
-37.359640
 30
0.0
  0
ENDSEC
  0
SECTION
  2
OBJECTS
  0
DICTIONARY
  5
C
330
0
100
AcDbDictionary
  3
ACAD_GROUP
350
D
  3
ACAD_MLINESTYLE
350
17
  0
DICTIONARY
  5
D
330
C
100
AcDbDictionary
  0
DICTIONARY
  5
1A
330
C
100
AcDbDictionary
  0
DICTIONARY
  5
17
330
C
100
AcDbDictionary
  3
STANDARD
350
18
  0
DICTIONARY
  5
19
330
C
100
AcDbDictionary
  0
ENDSEC
  0
EOF
