  0
SECTION
  2
HEADER
  9
$ACADVER
  1
AC1014
  9
$HANDSEED
  5
FFFF
  9
$MEASUREMENT
 70
     1
  0
ENDSEC
  0
SECTION
  2
TABLES
  0
TABLE
  2
VPORT
  5
8
330
0
100
AcDbSymbolTable
 70
     4
  0
VPORT
  5
2E
330
8
100
AcDbSymbolTableRecord
100
AcDbViewportTableRecord
  2
*ACTIVE
 70
     0
 10
0.0
 20
0.0
 11
1.0
 21
1.0
 12
210.0
 22
148.5
 13
0.0
 23
0.0
 14
10.0
 24
10.0
 15
10.0
 25
10.0
 16
0.0
 26
0.0
 36
1.0
 17
0.0
 27
0.0
 37
0.0
 40
341.0
 41
1.24
 42
50.0
 43
0.0
 44
0.0
 50
0.0
 51
0.0
 71
     0
 72
   100
 73
     1
 74
     3
 75
     0
 76
     0
 77
     0
 78
     0
  0
ENDTAB
  0
TABLE
  2
LTYPE
  5
5
330
0
100
AcDbSymbolTable
 70
     1
  0
LTYPE
  5
14
330
5
100
AcDbSymbolTableRecord
100
AcDbLinetypeTableRecord
  2
BYBLOCK
 70
     0
  3

 72
    65
 73
     0
 40
0.0
  0
LTYPE
  5
15
330
5
100
AcDbSymbolTableRecord
100
AcDbLinetypeTableRecord
  2
BYLAYER
 70
     0
  3

 72
    65
 73
     0
 40
0.0
  0
LTYPE
  5
16
330
5
100
AcDbSymbolTableRecord
100
AcDbLinetypeTableRecord
  2
CONTINUOUS
 70
     0
  3
Solid line
 72
    65
 73
     0
 40
0.0
  0
ENDTAB
  0
TABLE
  2
LAYER
  5
2
100
AcDbSymbolTable
 70
1
  0
LAYER
  5
50
100
AcDbSymbolTableRecord
100
AcDbLayerTableRecord
  2
0
 70
0
  6
CONTINUOUS
  0
ENDTAB
  0
TABLE
  2
STYLE
  5
3
330
0
100
AcDbSymbolTable
 70
     1
  0
STYLE
  5
11
330
3
100
AcDbSymbolTableRecord
100
AcDbTextStyleTableRecord
  2
STANDARD
 70
     0
 40
0.0
 41
1.0
 50
0.0
 71
     0
 42
2.5
  3
txt
  4

  0
ENDTAB
  0
TABLE
  2
VIEW
  5
6
330
0
100
AcDbSymbolTable
 70
     0
  0
ENDTAB
  0
TABLE
  2
UCS
  5
7
330
0
100
AcDbSymbolTable
 70
     0
  0
ENDTAB
  0
TABLE
  2
APPID
  5
9
330
0
100
AcDbSymbolTable
 70
     2
  0
APPID
  5
12
330
9
100
AcDbSymbolTableRecord
100
AcDbRegAppTableRecord
  2
ACAD
 70
     0
  0
ENDTAB
  0
TABLE
  2
DIMSTYLE
  5
A
330
0
100
AcDbSymbolTable
 70
     1
  0
DIMSTYLE
105
27
330
A
100
AcDbSymbolTableRecord
100
AcDbDimStyleTableRecord
  2
ISO-25
 70
     0
  3

  4

  5

  6

  7

 40
1.0
 41
2.5
 42
0.625
 43
3.75
 44
1.25
 45
0.0
 46
0.0
 47
0.0
 48
0.0
140
2.5
141
2.5
142
0.0
143
0.03937007874016
144
1.0
145
0.0
146
1.0
147
0.625
 71
     0
 72
     0
 73
     0
 74
     0
 75
     0
 76
     0
 77
     1
 78
     8
170
     0
171
     3
172
     1
173
     0
174
     0
175
     0
176
     0
177
     0
178
     0
270
     2
271
     2
272
     2
273
     2
274
     3
340
11
275
     0
280
     0
281
     0
282
     0
283
     0
284
     8
285
     0
286
     0
287
     3
288
     0
  0
ENDTAB
  0
TABLE
  2
BLOCK_RECORD
  5
1
330
0
100
AcDbSymbolTable
 70
     1
  0
BLOCK_RECORD
  5
1F
330
1
100
AcDbSymbolTableRecord
100
AcDbBlockTableRecord
  2
*MODEL_SPACE
  0
BLOCK_RECORD
  5
1B
330
1
100
AcDbSymbolTableRecord
100
AcDbBlockTableRecord
  2
*PAPER_SPACE
  0
ENDTAB
  0
ENDSEC
  0
SECTION
  2
BLOCKS
  0
BLOCK
  5
20
330
1F
100
AcDbEntity
  8
0
100
AcDbBlockBegin
  2
*MODEL_SPACE
 70
     0
 10
0.0
 20
0.0
 30
0.0
  3
*MODEL_SPACE
  1

  0
ENDBLK
  5
21
330
1F
100
AcDbEntity
  8
0
100
AcDbBlockEnd
  0
BLOCK
  5
1C
330
1B
100
AcDbEntity
 67
     1
  8
0
100
AcDbBlockBegin
  2
*PAPER_SPACE
  1

  0
ENDBLK
  5
1D
330
1B
100
AcDbEntity
 67
     1
  8
0
100
AcDbBlockEnd
  0
ENDSEC
  0
SECTION
  2
ENTITIES
  0
SPLINE
  5
100
100
AcDbEntity
  8
0
 62
7
100
AcDbSpline
 70
8
 71
3
 72
8
 73
4
 74
0
 40
0
 40
0
 40
0
 40
0
 40
1
 40
1
 40
1
 40
1
 10
4.535433
 20
-53.146408
 30
0.0
 10
3.407741
 20
-53.146408
 30
0.0
 10
2.326236
 20
-53.594382
 30
0.0
 10
1.528837
 20
-54.391781
 30
0.0
  0
SPLINE
  5
101
100
AcDbEntity
  8
0
 62
7
100
AcDbSpline
 70
8
 71
3
 72
8
 73
4
 74
0
 40
0
 40
0
 40
0
 40
0
 40
1
 40
1
 40
1
 40
1
 10
1.528837
 20
-54.391781
 30
0.0
 10
0.731439
 20
-55.189180
 30
0.0
 10
0.283465
 20
-56.270684
 30
0.0
 10
0.283465
 20
-57.398377
 30
0.0
  0
SPLINE
  5
102
100
AcDbEntity
  8
0
 62
7
100
AcDbSpline
 70
8
 71
3
 72
8
 73
4
 74
0
 40
0
 40
0
 40
0
 40
0
 40
1
 40
1
 40
1
 40
1
 10
0.283465
 20
-34.721211
 30
0.0
 10
0.283465
 20
-35.848903
 30
0.0
 10
0.731439
 20
-36.930408
 30
0.0
 10
1.528837
 20
-37.727807
 30
0.0
  0
SPLINE
  5
103
100
AcDbEntity
  8
0
 62
7
100
AcDbSpline
 70
8
 71
3
 72
8
 73
4
 74
0
 40
0
 40
0
 40
0
 40
0
 40
1
 40
1
 40
1
 40
1
 10
1.528837
 20
-37.727807
 30
0.0
 10
2.326236
 20
-38.525206
 30
0.0
 10
3.407741
 20
-38.973180
 30
0.0
 10
4.535433
 20
-38.973180
 30
0.0
  0
LWPOLYLINE
  5
104
100
AcDbEntity
  8
0
 62
7
100
AcDbPolyline
 90
2
 70
0
 10
0.283465
 20
-87.976312
 30
0.0
 10
0.283465
 20
-57.398377
 30
0.0
  0
LWPOLYLINE
  5
105
100
AcDbEntity
  8
0
 62
7
100
AcDbPolyline
 90
2
 70
0
 10
7.087181
 20
-53.146408
 30
0.0
 10
4.535433
 20
-53.146408
 30
0.0
  0
SPLINE
  5
106
100
AcDbEntity
  8
0
 62
7
100
AcDbSpline
 70
8
 71
3
 72
8
 73
4
 74
0
 40
0
 40
0
 40
0
 40
0
 40
1
 40
1
 40
1
 40
1
 10
7.087181
 20
-53.146408
 30
0.0
 10
9.618984
 20
-53.146408
 30
0.0
 10
11.958467
 20
-51.795707
 30
0.0
 10
13.224369
 20
-49.603101
 30
0.0
  0
SPLINE
  5
107
100
AcDbEntity
  8
0
 62
7
100
AcDbSpline
 70
8
 71
3
 72
8
 73
4
 74
0
 40
0
 40
0
 40
0
 40
0
 40
1
 40
1
 40
1
 40
1
 10
13.224369
 20
-49.603101
 30
0.0
 10
14.490271
 20
-47.410495
 30
0.0
 10
14.490271
 20
-44.709093
 30
0.0
 10
13.224369
 20
-42.516487
 30
0.0
  0
SPLINE
  5
108
100
AcDbEntity
  8
0
 62
7
100
AcDbSpline
 70
8
 71
3
 72
8
 73
4
 74
0
 40
0
 40
0
 40
0
 40
0
 40
1
 40
1
 40
1
 40
1
 10
13.224369
 20
-42.516487
 30
0.0
 10
11.958467
 20
-40.323881
 30
0.0
 10
9.618984
 20
-38.973180
 30
0.0
 10
7.087181
 20
-38.973180
 30
0.0
  0
LWPOLYLINE
  5
109
100
AcDbEntity
  8
0
 62
7
100
AcDbPolyline
 90
2
 70
0
 10
7.087181
 20
-38.973180
 30
0.0
 10
4.535433
 20
-38.973180
 30
0.0
  0
SPLINE
  5
10a
100
AcDbEntity
  8
0
 62
7
100
AcDbSpline
 70
8
 71
3
 72
8
 73
4
 74
0
 40
0
 40
0
 40
0
 40
0
 40
1
 40
1
 40
1
 40
1
 10
0.283465
 20
-87.976312
 30
0.0
 10
0.283465
 20
-89.104004
 30
0.0
 10
0.731439
 20
-90.185509
 30
0.0
 10
1.528837
 20
-90.982907
 30
0.0
  0
SPLINE
  5
10b
100
AcDbEntity
  8
0
 62
7
100
AcDbSpline
 70
8
 71
3
 72
8
 73
4
 74
0
 40
0
 40
0
 40
0
 40
0
 40
1
 40
1
 40
1
 40
1
 10
1.528837
 20
-90.982907
 30
0.0
 10
2.326236
 20
-91.780306
 30
0.0
 10
3.407741
 20
-92.228280
 30
0.0
 10
4.535433
 20
-92.228280
 30
0.0
  0
LWPOLYLINE
  5
10c
100
AcDbEntity
  8
0
 62
7
100
AcDbPolyline
 90
2
 70
0
 10
0.283465
 20
-34.721211
 30
0.0
 10
0.283465
 20
-12.225829
 30
0.0
  0
SPLINE
  5
10d
100
AcDbEntity
  8
0
 62
7
100
AcDbSpline
 70
8
 71
3
 72
8
 73
4
 74
0
 40
0
 40
0
 40
0
 40
0
 40
1
 40
1
 40
1
 40
1
 10
750.260670
 20
-92.228280
 30
0.0
 10
751.388362
 20
-92.228280
 30
0.0
 10
752.469867
 20
-91.780306
 30
0.0
 10
753.267266
 20
-90.982907
 30
0.0
  0
SPLINE
  5
10e
100
AcDbEntity
  8
0
 62
7
100
AcDbSpline
 70
8
 71
3
 72
8
 73
4
 74
0
 40
0
 40
0
 40
0
 40
0
 40
1
 40
1
 40
1
 40
1
 10
753.267266
 20
-90.982907
 30
0.0
 10
754.064665
 20
-90.185509
 30
0.0
 10
754.512639
 20
-89.104004
 30
0.0
 10
754.512639
 20
-87.976312
 30
0.0
  0
LWPOLYLINE
  5
10f
100
AcDbEntity
  8
0
 62
7
100
AcDbPolyline
 90
2
 70
0
 10
750.260670
 20
-92.228280
 30
0.0
 10
4.535433
 20
-92.228280
 30
0.0
  0
SPLINE
  5
110
100
AcDbEntity
  8
0
 62
7
100
AcDbSpline
 70
8
 71
3
 72
8
 73
4
 74
0
 40
0
 40
0
 40
0
 40
0
 40
1
 40
1
 40
1
 40
1
 10
754.512639
 20
-12.225829
 30
0.0
 10
754.512639
 20
-11.098137
 30
0.0
 10
754.064665
 20
-10.016632
 30
0.0
 10
753.267266
 20
-9.219233
 30
0.0
  0
SPLINE
  5
111
100
AcDbEntity
  8
0
 62
7
100
AcDbSpline
 70
8
 71
3
 72
8
 73
4
 74
0
 40
0
 40
0
 40
0
 40
0
 40
1
 40
1
 40
1
 40
1
 10
753.267266
 20
-9.219233
 30
0.0
 10
752.469867
 20
-8.421834
 30
0.0
 10
751.388362
 20
-7.973860
 30
0.0
 10
750.260670
 20
-7.973860
 30
0.0
  0
LWPOLYLINE
  5
112
100
AcDbEntity
  8
0
 62
7
100
AcDbPolyline
 90
2
 70
0
 10
754.512639
 20
-12.225829
 30
0.0
 10
754.512639
 20
-87.976312
 30
0.0
  0
SPLINE
  5
113
100
AcDbEntity
  8
0
 62
7
100
AcDbSpline
 70
8
 71
3
 72
8
 73
4
 74
0
 40
0
 40
0
 40
0
 40
0
 40
1
 40
1
 40
1
 40
1
 10
4.535433
 20
-7.973860
 30
0.0
 10
3.407741
 20
-7.973860
 30
0.0
 10
2.326236
 20
-8.421834
 30
0.0
 10
1.528837
 20
-9.219233
 30
0.0
  0
SPLINE
  5
114
100
AcDbEntity
  8
0
 62
7
100
AcDbSpline
 70
8
 71
3
 72
8
 73
4
 74
0
 40
0
 40
0
 40
0
 40
0
 40
1
 40
1
 40
1
 40
1
 10
1.528837
 20
-9.219233
 30
0.0
 10
0.731439
 20
-10.016632
 30
0.0
 10
0.283465
 20
-11.098137
 30
0.0
 10
0.283465
 20
-12.225829
 30
0.0
  0
SPLINE
  5
115
100
AcDbEntity
  8
0
 62
7
100
AcDbSpline
 70
8
 71
3
 72
8
 73
4
 74
0
 40
0
 40
0
 40
0
 40
0
 40
1
 40
1
 40
1
 40
1
 10
178.574505
 20
-38.618849
 30
0.0
 10
175.564924
 20
-38.618849
 30
0.0
 10
172.851685
 20
-40.431777
 30
0.0
 10
171.699968
 20
-43.212268
 30
0.0
  0
SPLINE
  5
116
100
AcDbEntity
  8
0
 62
7
100
AcDbSpline
 70
8
 71
3
 72
8
 73
4
 74
0
 40
0
 40
0
 40
0
 40
0
 40
1
 40
1
 40
1
 40
1
 10
171.699968
 20
-43.212268
 30
0.0
 10
170.548251
 20
-45.992758
 30
0.0
 10
171.184867
 20
-49.193241
 30
0.0
 10
173.312962
 20
-51.321336
 30
0.0
  0
SPLINE
  5
117
100
AcDbEntity
  8
0
 62
7
100
AcDbSpline
 70
8
 71
3
 72
8
 73
4
 74
0
 40
0
 40
0
 40
0
 40
0
 40
1
 40
1
 40
1
 40
1
 10
173.312962
 20
-51.321336
 30
0.0
 10
175.441058
 20
-53.449432
 30
0.0
 10
178.641541
 20
-54.086047
 30
0.0
 10
181.422031
 20
-52.934331
 30
0.0
  0
SPLINE
  5
118
100
AcDbEntity
  8
0
 62
7
100
AcDbSpline
 70
8
 71
3
 72
8
 73
4
 74
0
 40
0
 40
0
 40
0
 40
0
 40
1
 40
1
 40
1
 40
1
 10
181.422031
 20
-52.934331
 30
0.0
 10
184.202522
 20
-51.782614
 30
0.0
 10
186.015450
 20
-49.069375
 30
0.0
 10
186.015450
 20
-46.059794
 30
0.0
  0
SPLINE
  5
119
100
AcDbEntity
  8
0
 62
7
100
AcDbSpline
 70
8
 71
3
 72
8
 73
4
 74
0
 40
0
 40
0
 40
0
 40
0
 40
1
 40
1
 40
1
 40
1
 10
186.015450
 20
-46.059794
 30
0.0
 10
186.015450
 20
-44.086333
 30
0.0
 10
185.231495
 20
-42.193699
 30
0.0
 10
183.836047
 20
-40.798251
 30
0.0
  0
SPLINE
  5
11a
100
AcDbEntity
  8
0
 62
7
100
AcDbSpline
 70
8
 71
3
 72
8
 73
4
 74
0
 40
0
 40
0
 40
0
 40
0
 40
1
 40
1
 40
1
 40
1
 10
183.836047
 20
-40.798251
 30
0.0
 10
182.440600
 20
-39.402803
 30
0.0
 10
180.547966
 20
-38.618849
 30
0.0
 10
178.574505
 20
-38.618849
 30
0.0
  0
LWPOLYLINE
  5
11b
100
AcDbEntity
  8
0
 62
7
100
AcDbPolyline
 90
2
 70
0
 10
4.535433
 20
-7.973860
 30
0.0
 10
750.260670
 20
-7.973860
 30
0.0
  0
SPLINE
  5
11c
100
AcDbEntity
  8
0
 62
7
100
AcDbSpline
 70
8
 71
3
 72
8
 73
4
 74
0
 40
0
 40
0
 40
0
 40
0
 40
1
 40
1
 40
1
 40
1
 10
747.537140
 20
-10.332416
 30
0.0
 10
746.275982
 20
-10.332416
 30
0.0
 10
745.139006
 20
-11.092119
 30
0.0
 10
744.656382
 20
-12.257277
 30
0.0
  0
SPLINE
  5
11d
100
AcDbEntity
  8
0
 62
7
100
AcDbSpline
 70
8
 71
3
 72
8
 73
4
 74
0
 40
0
 40
0
 40
0
 40
0
 40
1
 40
1
 40
1
 40
1
 10
744.656382
 20
-12.257277
 30
0.0
 10
744.173757
 20
-13.422435
 30
0.0
 10
744.440530
 20
-14.763590
 30
0.0
 10
745.332303
 20
-15.655363
 30
0.0
  0
SPLINE
  5
11e
100
AcDbEntity
  8
0
 62
7
100
AcDbSpline
 70
8
 71
3
 72
8
 73
4
 74
0
 40
0
 40
0
 40
0
 40
0
 40
1
 40
1
 40
1
 40
1
 10
745.332303
 20
-15.655363
 30
0.0
 10
746.224076
 20
-16.547136
 30
0.0
 10
747.565231
 20
-16.813909
 30
0.0
 10
748.730389
 20
-16.331284
 30
0.0
  0
SPLINE
  5
11f
100
AcDbEntity
  8
0
 62
7
100
AcDbSpline
 70
8
 71
3
 72
8
 73
4
 74
0
 40
0
 40
0
 40
0
 40
0
 40
1
 40
1
 40
1
 40
1
 10
748.730389
 20
-16.331284
 30
0.0
 10
749.895547
 20
-15.848660
 30
0.0
 10
750.655250
 20
-14.711684
 30
0.0
 10
750.655250
 20
-13.450526
 30
0.0
  0
SPLINE
  5
120
100
AcDbEntity
  8
0
 62
7
100
AcDbSpline
 70
8
 71
3
 72
8
 73
4
 74
0
 40
0
 40
0
 40
0
 40
0
 40
1
 40
1
 40
1
 40
1
 10
750.655250
 20
-13.450526
 30
0.0
 10
750.655250
 20
-12.623552
 30
0.0
 10
750.326736
 20
-11.830448
 30
0.0
 10
749.741977
 20
-11.245689
 30
0.0
  0
SPLINE
  5
121
100
AcDbEntity
  8
0
 62
7
100
AcDbSpline
 70
8
 71
3
 72
8
 73
4
 74
0
 40
0
 40
0
 40
0
 40
0
 40
1
 40
1
 40
1
 40
1
 10
749.741977
 20
-11.245689
 30
0.0
 10
749.157218
 20
-10.660930
 30
0.0
 10
748.364114
 20
-10.332416
 30
0.0
 10
747.537140
 20
-10.332416
 30
0.0
  0
LWPOLYLINE
  5
122
100
AcDbEntity
  8
0
 62
7
100
AcDbPolyline
 90
1
 70
1
 10
178.574505
 20
-38.618849
 30
0.0
  0
SPLINE
  5
123
100
AcDbEntity
  8
0
 62
7
100
AcDbSpline
 70
8
 71
3
 72
8
 73
4
 74
0
 40
0
 40
0
 40
0
 40
0
 40
1
 40
1
 40
1
 40
1
 10
208.338284
 20
-38.618849
 30
0.0
 10
205.328703
 20
-38.618849
 30
0.0
 10
202.615465
 20
-40.431777
 30
0.0
 10
201.463748
 20
-43.212268
 30
0.0
  0
SPLINE
  5
124
100
AcDbEntity
  8
0
 62
7
100
AcDbSpline
 70
8
 71
3
 72
8
 73
4
 74
0
 40
0
 40
0
 40
0
 40
0
 40
1
 40
1
 40
1
 40
1
 10
201.463748
 20
-43.212268
 30
0.0
 10
200.312031
 20
-45.992758
 30
0.0
 10
200.948647
 20
-49.193241
 30
0.0
 10
203.076742
 20
-51.321336
 30
0.0
  0
SPLINE
  5
125
100
AcDbEntity
  8
0
 62
7
100
AcDbSpline
 70
8
 71
3
 72
8
 73
4
 74
0
 40
0
 40
0
 40
0
 40
0
 40
1
 40
1
 40
1
 40
1
 10
203.076742
 20
-51.321336
 30
0.0
 10
205.204837
 20
-53.449432
 30
0.0
 10
208.405320
 20
-54.086047
 30
0.0
 10
211.185811
 20
-52.934331
 30
0.0
  0
SPLINE
  5
126
100
AcDbEntity
  8
0
 62
7
100
AcDbSpline
 70
8
 71
3
 72
8
 73
4
 74
0
 40
0
 40
0
 40
0
 40
0
 40
1
 40
1
 40
1
 40
1
 10
211.185811
 20
-52.934331
 30
0.0
 10
213.966301
 20
-51.782614
 30
0.0
 10
215.779229
 20
-49.069375
 30
0.0
 10
215.779229
 20
-46.059794
 30
0.0
  0
SPLINE
  5
127
100
AcDbEntity
  8
0
 62
7
100
AcDbSpline
 70
8
 71
3
 72
8
 73
4
 74
0
 40
0
 40
0
 40
0
 40
0
 40
1
 40
1
 40
1
 40
1
 10
215.779229
 20
-46.059794
 30
0.0
 10
215.779229
 20
-44.086333
 30
0.0
 10
214.995275
 20
-42.193699
 30
0.0
 10
213.599827
 20
-40.798251
 30
0.0
  0
SPLINE
  5
128
100
AcDbEntity
  8
0
 62
7
100
AcDbSpline
 70
8
 71
3
 72
8
 73
4
 74
0
 40
0
 40
0
 40
0
 40
0
 40
1
 40
1
 40
1
 40
1
 10
213.599827
 20
-40.798251
 30
0.0
 10
212.204379
 20
-39.402803
 30
0.0
 10
210.311746
 20
-38.618849
 30
0.0
 10
208.338284
 20
-38.618849
 30
0.0
  0
LWPOLYLINE
  5
129
100
AcDbEntity
  8
0
 62
7
100
AcDbPolyline
 90
1
 70
1
 10
747.537140
 20
-10.332416
 30
0.0
  0
SPLINE
  5
12a
100
AcDbEntity
  8
0
 62
7
100
AcDbSpline
 70
8
 71
3
 72
8
 73
4
 74
0
 40
0
 40
0
 40
0
 40
0
 40
1
 40
1
 40
1
 40
1
 10
7.087181
 20
-10.332416
 30
0.0
 10
5.826023
 20
-10.332416
 30
0.0
 10
4.689047
 20
-11.092119
 30
0.0
 10
4.206423
 20
-12.257277
 30
0.0
  0
SPLINE
  5
12b
100
AcDbEntity
  8
0
 62
7
100
AcDbSpline
 70
8
 71
3
 72
8
 73
4
 74
0
 40
0
 40
0
 40
0
 40
0
 40
1
 40
1
 40
1
 40
1
 10
4.206423
 20
-12.257277
 30
0.0
 10
3.723799
 20
-13.422435
 30
0.0
 10
3.990571
 20
-14.763590
 30
0.0
 10
4.882344
 20
-15.655363
 30
0.0
  0
SPLINE
  5
12c
100
AcDbEntity
  8
0
 62
7
100
AcDbSpline
 70
8
 71
3
 72
8
 73
4
 74
0
 40
0
 40
0
 40
0
 40
0
 40
1
 40
1
 40
1
 40
1
 10
4.882344
 20
-15.655363
 30
0.0
 10
5.774117
 20
-16.547136
 30
0.0
 10
7.115272
 20
-16.813909
 30
0.0
 10
8.280430
 20
-16.331284
 30
0.0
  0
SPLINE
  5
12d
100
AcDbEntity
  8
0
 62
7
100
AcDbSpline
 70
8
 71
3
 72
8
 73
4
 74
0
 40
0
 40
0
 40
0
 40
0
 40
1
 40
1
 40
1
 40
1
 10
8.280430
 20
-16.331284
 30
0.0
 10
9.445588
 20
-15.848660
 30
0.0
 10
10.205291
 20
-14.711684
 30
0.0
 10
10.205291
 20
-13.450526
 30
0.0
  0
SPLINE
  5
12e
100
AcDbEntity
  8
0
 62
7
100
AcDbSpline
 70
8
 71
3
 72
8
 73
4
 74
0
 40
0
 40
0
 40
0
 40
0
 40
1
 40
1
 40
1
 40
1
 10
10.205291
 20
-13.450526
 30
0.0
 10
10.205291
 20
-12.623552
 30
0.0
 10
9.876777
 20
-11.830448
 30
0.0
 10
9.292018
 20
-11.245689
 30
0.0
  0
SPLINE
  5
12f
100
AcDbEntity
  8
0
 62
7
100
AcDbSpline
 70
8
 71
3
 72
8
 73
4
 74
0
 40
0
 40
0
 40
0
 40
0
 40
1
 40
1
 40
1
 40
1
 10
9.292018
 20
-11.245689
 30
0.0
 10
8.707259
 20
-10.660930
 30
0.0
 10
7.914155
 20
-10.332416
 30
0.0
 10
7.087181
 20
-10.332416
 30
0.0
  0
LWPOLYLINE
  5
130
100
AcDbEntity
  8
0
 62
7
100
AcDbPolyline
 90
1
 70
1
 10
208.338284
 20
-38.618849
 30
0.0
  0
LWPOLYLINE
  5
131
100
AcDbEntity
  8
0
 62
7
100
AcDbPolyline
 90
1
 70
1
 10
7.087181
 20
-10.332416
 30
0.0
  0
SPLINE
  5
132
100
AcDbEntity
  8
0
 62
7
100
AcDbSpline
 70
8
 71
3
 72
8
 73
4
 74
0
 40
0
 40
0
 40
0
 40
0
 40
1
 40
1
 40
1
 40
1
 10
60.491798
 20
-35.205950
 30
0.0
 10
60.491798
 20
-32.574668
 30
0.0
 10
59.446525
 20
-30.051157
 30
0.0
 10
57.585928
 20
-28.190560
 30
0.0
  0
SPLINE
  5
133
100
AcDbEntity
  8
0
 62
7
100
AcDbSpline
 70
8
 71
3
 72
8
 73
4
 74
0
 40
0
 40
0
 40
0
 40
0
 40
1
 40
1
 40
1
 40
1
 10
57.585928
 20
-28.190560
 30
0.0
 10
55.725331
 20
-26.329963
 30
0.0
 10
53.201820
 20
-25.284690
 30
0.0
 10
50.570538
 20
-25.284690
 30
0.0
  0
LWPOLYLINE
  5
134
100
AcDbEntity
  8
0
 62
7
100
AcDbPolyline
 90
2
 70
0
 10
60.491798
 20
-35.205950
 30
0.0
 10
60.491798
 20
-57.032721
 30
0.0
  0
SPLINE
  5
135
100
AcDbEntity
  8
0
 62
7
100
AcDbSpline
 70
8
 71
3
 72
8
 73
4
 74
0
 40
0
 40
0
 40
0
 40
0
 40
1
 40
1
 40
1
 40
1
 10
29.310695
 20
-25.284690
 30
0.0
 10
26.679414
 20
-25.284690
 30
0.0
 10
24.155902
 20
-26.329963
 30
0.0
 10
22.295305
 20
-28.190560
 30
0.0
  0
SPLINE
  5
136
100
AcDbEntity
  8
0
 62
7
100
AcDbSpline
 70
8
 71
3
 72
8
 73
4
 74
0
 40
0
 40
0
 40
0
 40
0
 40
1
 40
1
 40
1
 40
1
 10
22.295305
 20
-28.190560
 30
0.0
 10
20.434708
 20
-30.051157
 30
0.0
 10
19.389436
 20
-32.574668
 30
0.0
 10
19.389436
 20
-35.205950
 30
0.0
  0
LWPOLYLINE
  5
137
100
AcDbEntity
  8
0
 62
7
100
AcDbPolyline
 90
2
 70
0
 10
29.310695
 20
-25.284690
 30
0.0
 10
50.570538
 20
-25.284690
 30
0.0
  0
SPLINE
  5
138
100
AcDbEntity
  8
0
 62
7
100
AcDbSpline
 70
8
 71
3
 72
8
 73
4
 74
0
 40
0
 40
0
 40
0
 40
0
 40
1
 40
1
 40
1
 40
1
 10
19.389436
 20
-57.032721
 30
0.0
 10
19.389436
 20
-59.664003
 30
0.0
 10
20.434708
 20
-62.187514
 30
0.0
 10
22.295305
 20
-64.048112
 30
0.0
  0
SPLINE
  5
139
100
AcDbEntity
  8
0
 62
7
100
AcDbSpline
 70
8
 71
3
 72
8
 73
4
 74
0
 40
0
 40
0
 40
0
 40
0
 40
1
 40
1
 40
1
 40
1
 10
22.295305
 20
-64.048112
 30
0.0
 10
24.155902
 20
-65.908709
 30
0.0
 10
26.679414
 20
-66.953981
 30
0.0
 10
29.310695
 20
-66.953981
 30
0.0
  0
LWPOLYLINE
  5
13a
100
AcDbEntity
  8
0
 62
7
100
AcDbPolyline
 90
2
 70
0
 10
19.389436
 20
-57.032721
 30
0.0
 10
19.389436
 20
-35.205950
 30
0.0
  0
SPLINE
  5
13b
100
AcDbEntity
  8
0
 62
7
100
AcDbSpline
 70
8
 71
3
 72
8
 73
4
 74
0
 40
0
 40
0
 40
0
 40
0
 40
1
 40
1
 40
1
 40
1
 10
50.570538
 20
-66.953981
 30
0.0
 10
53.201820
 20
-66.953981
 30
0.0
 10
55.725331
 20
-65.908709
 30
0.0
 10
57.585928
 20
-64.048112
 30
0.0
  0
SPLINE
  5
13c
100
AcDbEntity
  8
0
 62
7
100
AcDbSpline
 70
8
 71
3
 72
8
 73
4
 74
0
 40
0
 40
0
 40
0
 40
0
 40
1
 40
1
 40
1
 40
1
 10
57.585928
 20
-64.048112
 30
0.0
 10
59.446525
 20
-62.187514
 30
0.0
 10
60.491798
 20
-59.664003
 30
0.0
 10
60.491798
 20
-57.032721
 30
0.0
  0
SPLINE
  5
13d
100
AcDbEntity
  8
0
 62
7
100
AcDbSpline
 70
8
 71
3
 72
8
 73
4
 74
0
 40
0
 40
0
 40
0
 40
0
 40
1
 40
1
 40
1
 40
1
 10
747.537140
 20
-79.922635
 30
0.0
 10
746.275982
 20
-79.922635
 30
0.0
 10
745.139006
 20
-80.682339
 30
0.0
 10
744.656382
 20
-81.847497
 30
0.0
  0
SPLINE
  5
13e
100
AcDbEntity
  8
0
 62
7
100
AcDbSpline
 70
8
 71
3
 72
8
 73
4
 74
0
 40
0
 40
0
 40
0
 40
0
 40
1
 40
1
 40
1
 40
1
 10
744.656382
 20
-81.847497
 30
0.0
 10
744.173757
 20
-83.012655
 30
0.0
 10
744.440530
 20
-84.353809
 30
0.0
 10
745.332303
 20
-85.245583
 30
0.0
  0
SPLINE
  5
13f
100
AcDbEntity
  8
0
 62
7
100
AcDbSpline
 70
8
 71
3
 72
8
 73
4
 74
0
 40
0
 40
0
 40
0
 40
0
 40
1
 40
1
 40
1
 40
1
 10
745.332303
 20
-85.245583
 30
0.0
 10
746.224076
 20
-86.137356
 30
0.0
 10
747.565231
 20
-86.404128
 30
0.0
 10
748.730389
 20
-85.921504
 30
0.0
  0
SPLINE
  5
140
100
AcDbEntity
  8
0
 62
7
100
AcDbSpline
 70
8
 71
3
 72
8
 73
4
 74
0
 40
0
 40
0
 40
0
 40
0
 40
1
 40
1
 40
1
 40
1
 10
748.730389
 20
-85.921504
 30
0.0
 10
749.895547
 20
-85.438880
 30
0.0
 10
750.655250
 20
-84.301904
 30
0.0
 10
750.655250
 20
-83.040746
 30
0.0
  0
SPLINE
  5
141
100
AcDbEntity
  8
0
 62
7
100
AcDbSpline
 70
8
 71
3
 72
8
 73
4
 74
0
 40
0
 40
0
 40
0
 40
0
 40
1
 40
1
 40
1
 40
1
 10
750.655250
 20
-83.040746
 30
0.0
 10
750.655250
 20
-82.213771
 30
0.0
 10
750.326736
 20
-81.420668
 30
0.0
 10
749.741977
 20
-80.835909
 30
0.0
  0
SPLINE
  5
142
100
AcDbEntity
  8
0
 62
7
100
AcDbSpline
 70
8
 71
3
 72
8
 73
4
 74
0
 40
0
 40
0
 40
0
 40
0
 40
1
 40
1
 40
1
 40
1
 10
749.741977
 20
-80.835909
 30
0.0
 10
749.157218
 20
-80.251150
 30
0.0
 10
748.364114
 20
-79.922635
 30
0.0
 10
747.537140
 20
-79.922635
 30
0.0
  0
LWPOLYLINE
  5
143
100
AcDbEntity
  8
0
 62
7
100
AcDbPolyline
 90
2
 70
0
 10
50.570538
 20
-66.953981
 30
0.0
 10
29.310695
 20
-66.953981
 30
0.0
  0
SPLINE
  5
144
100
AcDbEntity
  8
0
 62
7
100
AcDbSpline
 70
8
 71
3
 72
8
 73
4
 74
0
 40
0
 40
0
 40
0
 40
0
 40
1
 40
1
 40
1
 40
1
 10
283.365811
 20
-43.001225
 30
0.0
 10
282.104653
 20
-43.001225
 30
0.0
 10
280.967677
 20
-43.760929
 30
0.0
 10
280.485052
 20
-44.926087
 30
0.0
  0
SPLINE
  5
145
100
AcDbEntity
  8
0
 62
7
100
AcDbSpline
 70
8
 71
3
 72
8
 73
4
 74
0
 40
0
 40
0
 40
0
 40
0
 40
1
 40
1
 40
1
 40
1
 10
280.485052
 20
-44.926087
 30
0.0
 10
280.002428
 20
-46.091244
 30
0.0
 10
280.269201
 20
-47.432399
 30
0.0
 10
281.160974
 20
-48.324173
 30
0.0
  0
SPLINE
  5
146
100
AcDbEntity
  8
0
 62
7
100
AcDbSpline
 70
8
 71
3
 72
8
 73
4
 74
0
 40
0
 40
0
 40
0
 40
0
 40
1
 40
1
 40
1
 40
1
 10
281.160974
 20
-48.324173
 30
0.0
 10
282.052747
 20
-49.215946
 30
0.0
 10
283.393902
 20
-49.482718
 30
0.0
 10
284.559060
 20
-49.000094
 30
0.0
  0
SPLINE
  5
147
100
AcDbEntity
  8
0
 62
7
100
AcDbSpline
 70
8
 71
3
 72
8
 73
4
 74
0
 40
0
 40
0
 40
0
 40
0
 40
1
 40
1
 40
1
 40
1
 10
284.559060
 20
-49.000094
 30
0.0
 10
285.724218
 20
-48.517470
 30
0.0
 10
286.483921
 20
-47.380493
 30
0.0
 10
286.483921
 20
-46.119336
 30
0.0
  0
SPLINE
  5
148
100
AcDbEntity
  8
0
 62
7
100
AcDbSpline
 70
8
 71
3
 72
8
 73
4
 74
0
 40
0
 40
0
 40
0
 40
0
 40
1
 40
1
 40
1
 40
1
 10
286.483921
 20
-46.119336
 30
0.0
 10
286.483921
 20
-45.292361
 30
0.0
 10
286.155407
 20
-44.499258
 30
0.0
 10
285.570648
 20
-43.914499
 30
0.0
  0
SPLINE
  5
149
100
AcDbEntity
  8
0
 62
7
100
AcDbSpline
 70
8
 71
3
 72
8
 73
4
 74
0
 40
0
 40
0
 40
0
 40
0
 40
1
 40
1
 40
1
 40
1
 10
285.570648
 20
-43.914499
 30
0.0
 10
284.985888
 20
-43.329740
 30
0.0
 10
284.192785
 20
-43.001225
 30
0.0
 10
283.365811
 20
-43.001225
 30
0.0
  0
LWPOLYLINE
  5
14a
100
AcDbEntity
  8
0
 62
7
100
AcDbPolyline
 90
1
 70
1
 10
747.537140
 20
-79.922635
 30
0.0
  0
SPLINE
  5
14b
100
AcDbEntity
  8
0
 62
7
100
AcDbSpline
 70
8
 71
3
 72
8
 73
4
 74
0
 40
0
 40
0
 40
0
 40
0
 40
1
 40
1
 40
1
 40
1
 10
553.365811
 20
-43.001225
 30
0.0
 10
552.104653
 20
-43.001225
 30
0.0
 10
550.967677
 20
-43.760929
 30
0.0
 10
550.485052
 20
-44.926087
 30
0.0
  0
SPLINE
  5
14c
100
AcDbEntity
  8
0
 62
7
100
AcDbSpline
 70
8
 71
3
 72
8
 73
4
 74
0
 40
0
 40
0
 40
0
 40
0
 40
1
 40
1
 40
1
 40
1
 10
550.485052
 20
-44.926087
 30
0.0
 10
550.002428
 20
-46.091244
 30
0.0
 10
550.269201
 20
-47.432399
 30
0.0
 10
551.160974
 20
-48.324173
 30
0.0
  0
SPLINE
  5
14d
100
AcDbEntity
  8
0
 62
7
100
AcDbSpline
 70
8
 71
3
 72
8
 73
4
 74
0
 40
0
 40
0
 40
0
 40
0
 40
1
 40
1
 40
1
 40
1
 10
551.160974
 20
-48.324173
 30
0.0
 10
552.052747
 20
-49.215946
 30
0.0
 10
553.393902
 20
-49.482718
 30
0.0
 10
554.559060
 20
-49.000094
 30
0.0
  0
SPLINE
  5
14e
100
AcDbEntity
  8
0
 62
7
100
AcDbSpline
 70
8
 71
3
 72
8
 73
4
 74
0
 40
0
 40
0
 40
0
 40
0
 40
1
 40
1
 40
1
 40
1
 10
554.559060
 20
-49.000094
 30
0.0
 10
555.724218
 20
-48.517470
 30
0.0
 10
556.483921
 20
-47.380493
 30
0.0
 10
556.483921
 20
-46.119336
 30
0.0
  0
SPLINE
  5
14f
100
AcDbEntity
  8
0
 62
7
100
AcDbSpline
 70
8
 71
3
 72
8
 73
4
 74
0
 40
0
 40
0
 40
0
 40
0
 40
1
 40
1
 40
1
 40
1
 10
556.483921
 20
-46.119336
 30
0.0
 10
556.483921
 20
-45.292361
 30
0.0
 10
556.155407
 20
-44.499258
 30
0.0
 10
555.570648
 20
-43.914499
 30
0.0
  0
SPLINE
  5
150
100
AcDbEntity
  8
0
 62
7
100
AcDbSpline
 70
8
 71
3
 72
8
 73
4
 74
0
 40
0
 40
0
 40
0
 40
0
 40
1
 40
1
 40
1
 40
1
 10
555.570648
 20
-43.914499
 30
0.0
 10
554.985888
 20
-43.329740
 30
0.0
 10
554.192785
 20
-43.001225
 30
0.0
 10
553.365811
 20
-43.001225
 30
0.0
  0
LWPOLYLINE
  5
151
100
AcDbEntity
  8
0
 62
7
100
AcDbPolyline
 90
1
 70
1
 10
283.365811
 20
-43.001225
 30
0.0
  0
SPLINE
  5
152
100
AcDbEntity
  8
0
 62
7
100
AcDbSpline
 70
8
 71
3
 72
8
 73
4
 74
0
 40
0
 40
0
 40
0
 40
0
 40
1
 40
1
 40
1
 40
1
 10
7.087181
 20
-79.922635
 30
0.0
 10
5.826023
 20
-79.922635
 30
0.0
 10
4.689047
 20
-80.682339
 30
0.0
 10
4.206423
 20
-81.847497
 30
0.0
  0
SPLINE
  5
153
100
AcDbEntity
  8
0
 62
7
100
AcDbSpline
 70
8
 71
3
 72
8
 73
4
 74
0
 40
0
 40
0
 40
0
 40
0
 40
1
 40
1
 40
1
 40
1
 10
4.206423
 20
-81.847497
 30
0.0
 10
3.723799
 20
-83.012655
 30
0.0
 10
3.990571
 20
-84.353809
 30
0.0
 10
4.882344
 20
-85.245583
 30
0.0
  0
SPLINE
  5
154
100
AcDbEntity
  8
0
 62
7
100
AcDbSpline
 70
8
 71
3
 72
8
 73
4
 74
0
 40
0
 40
0
 40
0
 40
0
 40
1
 40
1
 40
1
 40
1
 10
4.882344
 20
-85.245583
 30
0.0
 10
5.774117
 20
-86.137356
 30
0.0
 10
7.115272
 20
-86.404128
 30
0.0
 10
8.280430
 20
-85.921504
 30
0.0
  0
SPLINE
  5
155
100
AcDbEntity
  8
0
 62
7
100
AcDbSpline
 70
8
 71
3
 72
8
 73
4
 74
0
 40
0
 40
0
 40
0
 40
0
 40
1
 40
1
 40
1
 40
1
 10
8.280430
 20
-85.921504
 30
0.0
 10
9.445588
 20
-85.438880
 30
0.0
 10
10.205291
 20
-84.301904
 30
0.0
 10
10.205291
 20
-83.040746
 30
0.0
  0
SPLINE
  5
156
100
AcDbEntity
  8
0
 62
7
100
AcDbSpline
 70
8
 71
3
 72
8
 73
4
 74
0
 40
0
 40
0
 40
0
 40
0
 40
1
 40
1
 40
1
 40
1
 10
10.205291
 20
-83.040746
 30
0.0
 10
10.205291
 20
-82.213771
 30
0.0
 10
9.876777
 20
-81.420668
 30
0.0
 10
9.292018
 20
-80.835909
 30
0.0
  0
SPLINE
  5
157
100
AcDbEntity
  8
0
 62
7
100
AcDbSpline
 70
8
 71
3
 72
8
 73
4
 74
0
 40
0
 40
0
 40
0
 40
0
 40
1
 40
1
 40
1
 40
1
 10
9.292018
 20
-80.835909
 30
0.0
 10
8.707259
 20
-80.251150
 30
0.0
 10
7.914155
 20
-79.922635
 30
0.0
 10
7.087181
 20
-79.922635
 30
0.0
  0
LWPOLYLINE
  5
158
100
AcDbEntity
  8
0
 62
7
100
AcDbPolyline
 90
1
 70
1
 10
553.365811
 20
-43.001225
 30
0.0
  0
SPLINE
  5
159
100
AcDbEntity
  8
0
 62
7
100
AcDbSpline
 70
8
 71
3
 72
8
 73
4
 74
0
 40
0
 40
0
 40
0
 40
0
 40
1
 40
1
 40
1
 40
1
 10
482.675465
 20
-43.595863
 30
0.0
 10
482.675465
 20
-39.836889
 30
0.0
 10
481.182219
 20
-36.231873
 30
0.0
 10
478.524223
 20
-33.573877
 30
0.0
  0
SPLINE
  5
15a
100
AcDbEntity
  8
0
 62
7
100
AcDbSpline
 70
8
 71
3
 72
8
 73
4
 74
0
 40
0
 40
0
 40
0
 40
0
 40
1
 40
1
 40
1
 40
1
 10
478.524223
 20
-33.573877
 30
0.0
 10
475.866227
 20
-30.915881
 30
0.0
 10
472.261211
 20
-29.422635
 30
0.0
 10
468.502237
 20
-29.422635
 30
0.0
  0
LWPOLYLINE
  5
15b
100
AcDbEntity
  8
0
 62
7
100
AcDbPolyline
 90
1
 70
1
 10
7.087181
 20
-79.922635
 30
0.0
  0
SPLINE
  5
15c
100
AcDbEntity
  8
0
 62
7
100
AcDbSpline
 70
8
 71
3
 72
8
 73
4
 74
0
 40
0
 40
0
 40
0
 40
0
 40
1
 40
1
 40
1
 40
1
 10
468.502237
 20
-76.349431
 30
0.0
 10
472.261211
 20
-76.349431
 30
0.0
 10
475.866227
 20
-74.856185
 30
0.0
 10
478.524223
 20
-72.198189
 30
0.0
  0
SPLINE
  5
15d
100
AcDbEntity
  8
0
 62
7
100
AcDbSpline
 70
8
 71
3
 72
8
 73
4
 74
0
 40
0
 40
0
 40
0
 40
0
 40
1
 40
1
 40
1
 40
1
 10
478.524223
 20
-72.198189
 30
0.0
 10
481.182219
 20
-69.540193
 30
0.0
 10
482.675465
 20
-65.935177
 30
0.0
 10
482.675465
 20
-62.176203
 30
0.0
  0
LWPOLYLINE
  5
15e
100
AcDbEntity
  8
0
 62
7
100
AcDbPolyline
 90
2
 70
0
 10
482.675465
 20
-62.176203
 30
0.0
 10
482.675465
 20
-43.595863
 30
0.0
  0
SPLINE
  5
15f
100
AcDbEntity
  8
0
 62
7
100
AcDbSpline
 70
8
 71
3
 72
8
 73
4
 74
0
 40
0
 40
0
 40
0
 40
0
 40
1
 40
1
 40
1
 40
1
 10
413.841997
 20
-62.176203
 30
0.0
 10
413.841997
 20
-65.935177
 30
0.0
 10
415.335243
 20
-69.540193
 30
0.0
 10
417.993239
 20
-72.198189
 30
0.0
  0
SPLINE
  5
160
100
AcDbEntity
  8
0
 62
7
100
AcDbSpline
 70
8
 71
3
 72
8
 73
4
 74
0
 40
0
 40
0
 40
0
 40
0
 40
1
 40
1
 40
1
 40
1
 10
417.993239
 20
-72.198189
 30
0.0
 10
420.651235
 20
-74.856185
 30
0.0
 10
424.256251
 20
-76.349431
 30
0.0
 10
428.015225
 20
-76.349431
 30
0.0
  0
LWPOLYLINE
  5
161
100
AcDbEntity
  8
0
 62
7
100
AcDbPolyline
 90
2
 70
0
 10
428.015225
 20
-76.349431
 30
0.0
 10
468.502237
 20
-76.349431
 30
0.0
  0
SPLINE
  5
162
100
AcDbEntity
  8
0
 62
7
100
AcDbSpline
 70
8
 71
3
 72
8
 73
4
 74
0
 40
0
 40
0
 40
0
 40
0
 40
1
 40
1
 40
1
 40
1
 10
428.015225
 20
-29.422635
 30
0.0
 10
424.256251
 20
-29.422635
 30
0.0
 10
420.651235
 20
-30.915881
 30
0.0
 10
417.993239
 20
-33.573877
 30
0.0
  0
SPLINE
  5
163
100
AcDbEntity
  8
0
 62
7
100
AcDbSpline
 70
8
 71
3
 72
8
 73
4
 74
0
 40
0
 40
0
 40
0
 40
0
 40
1
 40
1
 40
1
 40
1
 10
417.993239
 20
-33.573877
 30
0.0
 10
415.335243
 20
-36.231873
 30
0.0
 10
413.841997
 20
-39.836889
 30
0.0
 10
413.841997
 20
-43.595863
 30
0.0
  0
LWPOLYLINE
  5
164
100
AcDbEntity
  8
0
 62
7
100
AcDbPolyline
 90
2
 70
0
 10
413.841997
 20
-43.595863
 30
0.0
 10
413.841997
 20
-62.176203
 30
0.0
  0
LWPOLYLINE
  5
165
100
AcDbEntity
  8
0
 62
7
100
AcDbPolyline
 90
2
 70
0
 10
468.502237
 20
-29.422635
 30
0.0
 10
428.015225
 20
-29.422635
 30
0.0
  0
LWPOLYLINE
  5
166
100
AcDbEntity
  8
0
 62
7
100
AcDbPolyline
 90
2
 70
0
 10
679.365814
 20
-26.276816
 30
0.0
 10
642.515420
 20
-26.276816
 30
0.0
  0
LWPOLYLINE
  5
167
100
AcDbEntity
  8
0
 62
7
100
AcDbPolyline
 90
2
 70
0
 10
641.098097
 20
-27.694139
 30
0.0
 10
641.098097
 20
-64.544532
 30
0.0
  0
LWPOLYLINE
  5
168
100
AcDbEntity
  8
0
 62
7
100
AcDbPolyline
 90
2
 70
0
 10
642.515420
 20
-65.961855
 30
0.0
 10
679.365814
 20
-65.961855
 30
0.0
  0
SPLINE
  5
169
100
AcDbEntity
  8
0
 62
7
100
AcDbSpline
 70
8
 71
3
 72
8
 73
4
 74
0
 40
0
 40
0
 40
0
 40
0
 40
1
 40
1
 40
1
 40
1
 10
680.783136
 20
-27.694139
 30
0.0
 10
680.783136
 20
-27.318241
 30
0.0
 10
680.633812
 20
-26.957740
 30
0.0
 10
680.368012
 20
-26.691940
 30
0.0
  0
SPLINE
  5
16a
100
AcDbEntity
  8
0
 62
7
100
AcDbSpline
 70
8
 71
3
 72
8
 73
4
 74
0
 40
0
 40
0
 40
0
 40
0
 40
1
 40
1
 40
1
 40
1
 10
680.368012
 20
-26.691940
 30
0.0
 10
680.102213
 20
-26.426141
 30
0.0
 10
679.741711
 20
-26.276816
 30
0.0
 10
679.365814
 20
-26.276816
 30
0.0
  0
SPLINE
  5
16b
100
AcDbEntity
  8
0
 62
7
100
AcDbSpline
 70
8
 71
3
 72
8
 73
4
 74
0
 40
0
 40
0
 40
0
 40
0
 40
1
 40
1
 40
1
 40
1
 10
642.515420
 20
-26.276816
 30
0.0
 10
642.139522
 20
-26.276816
 30
0.0
 10
641.779021
 20
-26.426141
 30
0.0
 10
641.513221
 20
-26.691940
 30
0.0
  0
SPLINE
  5
16c
100
AcDbEntity
  8
0
 62
7
100
AcDbSpline
 70
8
 71
3
 72
8
 73
4
 74
0
 40
0
 40
0
 40
0
 40
0
 40
1
 40
1
 40
1
 40
1
 10
641.513221
 20
-26.691940
 30
0.0
 10
641.247422
 20
-26.957740
 30
0.0
 10
641.098097
 20
-27.318241
 30
0.0
 10
641.098097
 20
-27.694139
 30
0.0
  0
SPLINE
  5
16d
100
AcDbEntity
  8
0
 62
7
100
AcDbSpline
 70
8
 71
3
 72
8
 73
4
 74
0
 40
0
 40
0
 40
0
 40
0
 40
1
 40
1
 40
1
 40
1
 10
641.098097
 20
-64.544532
 30
0.0
 10
641.098097
 20
-64.920430
 30
0.0
 10
641.247422
 20
-65.280931
 30
0.0
 10
641.513221
 20
-65.546731
 30
0.0
  0
SPLINE
  5
16e
100
AcDbEntity
  8
0
 62
7
100
AcDbSpline
 70
8
 71
3
 72
8
 73
4
 74
0
 40
0
 40
0
 40
0
 40
0
 40
1
 40
1
 40
1
 40
1
 10
641.513221
 20
-65.546731
 30
0.0
 10
641.779021
 20
-65.812531
 30
0.0
 10
642.139522
 20
-65.961855
 30
0.0
 10
642.515420
 20
-65.961855
 30
0.0
  0
SPLINE
  5
16f
100
AcDbEntity
  8
0
 62
7
100
AcDbSpline
 70
8
 71
3
 72
8
 73
4
 74
0
 40
0
 40
0
 40
0
 40
0
 40
1
 40
1
 40
1
 40
1
 10
679.365814
 20
-65.961855
 30
0.0
 10
679.741711
 20
-65.961855
 30
0.0
 10
680.102213
 20
-65.812531
 30
0.0
 10
680.368012
 20
-65.546731
 30
0.0
  0
SPLINE
  5
170
100
AcDbEntity
  8
0
 62
7
100
AcDbSpline
 70
8
 71
3
 72
8
 73
4
 74
0
 40
0
 40
0
 40
0
 40
0
 40
1
 40
1
 40
1
 40
1
 10
680.368012
 20
-65.546731
 30
0.0
 10
680.633812
 20
-65.280931
 30
0.0
 10
680.783136
 20
-64.920430
 30
0.0
 10
680.783136
 20
-64.544532
 30
0.0
  0
LWPOLYLINE
  5
171
100
AcDbEntity
  8
0
 62
7
100
AcDbPolyline
 90
2
 70
0
 10
680.783136
 20
-64.544532
 30
0.0
 10
680.783136
 20
-27.694139
 30
0.0
  0
LWPOLYLINE
  5
172
100
AcDbEntity
  8
0
 62
7
100
AcDbPolyline
 90
2
 70
0
 10
733.365814
 20
-26.276816
 30
0.0
 10
696.515420
 20
-26.276816
 30
0.0
  0
LWPOLYLINE
  5
173
100
AcDbEntity
  8
0
 62
7
100
AcDbPolyline
 90
2
 70
0
 10
695.098097
 20
-27.694139
 30
0.0
 10
695.098097
 20
-64.544532
 30
0.0
  0
LWPOLYLINE
  5
174
100
AcDbEntity
  8
0
 62
7
100
AcDbPolyline
 90
2
 70
0
 10
696.515420
 20
-65.961855
 30
0.0
 10
733.365814
 20
-65.961855
 30
0.0
  0
SPLINE
  5
175
100
AcDbEntity
  8
0
 62
7
100
AcDbSpline
 70
8
 71
3
 72
8
 73
4
 74
0
 40
0
 40
0
 40
0
 40
0
 40
1
 40
1
 40
1
 40
1
 10
734.783136
 20
-27.694139
 30
0.0
 10
734.783136
 20
-27.318241
 30
0.0
 10
734.633812
 20
-26.957740
 30
0.0
 10
734.368012
 20
-26.691940
 30
0.0
  0
SPLINE
  5
176
100
AcDbEntity
  8
0
 62
7
100
AcDbSpline
 70
8
 71
3
 72
8
 73
4
 74
0
 40
0
 40
0
 40
0
 40
0
 40
1
 40
1
 40
1
 40
1
 10
734.368012
 20
-26.691940
 30
0.0
 10
734.102213
 20
-26.426141
 30
0.0
 10
733.741711
 20
-26.276816
 30
0.0
 10
733.365814
 20
-26.276816
 30
0.0
  0
SPLINE
  5
177
100
AcDbEntity
  8
0
 62
7
100
AcDbSpline
 70
8
 71
3
 72
8
 73
4
 74
0
 40
0
 40
0
 40
0
 40
0
 40
1
 40
1
 40
1
 40
1
 10
696.515420
 20
-26.276816
 30
0.0
 10
696.139522
 20
-26.276816
 30
0.0
 10
695.779021
 20
-26.426141
 30
0.0
 10
695.513221
 20
-26.691940
 30
0.0
  0
SPLINE
  5
178
100
AcDbEntity
  8
0
 62
7
100
AcDbSpline
 70
8
 71
3
 72
8
 73
4
 74
0
 40
0
 40
0
 40
0
 40
0
 40
1
 40
1
 40
1
 40
1
 10
695.513221
 20
-26.691940
 30
0.0
 10
695.247422
 20
-26.957740
 30
0.0
 10
695.098097
 20
-27.318241
 30
0.0
 10
695.098097
 20
-27.694139
 30
0.0
  0
SPLINE
  5
179
100
AcDbEntity
  8
0
 62
7
100
AcDbSpline
 70
8
 71
3
 72
8
 73
4
 74
0
 40
0
 40
0
 40
0
 40
0
 40
1
 40
1
 40
1
 40
1
 10
695.098097
 20
-64.544532
 30
0.0
 10
695.098097
 20
-64.920430
 30
0.0
 10
695.247422
 20
-65.280931
 30
0.0
 10
695.513221
 20
-65.546731
 30
0.0
  0
SPLINE
  5
17a
100
AcDbEntity
  8
0
 62
7
100
AcDbSpline
 70
8
 71
3
 72
8
 73
4
 74
0
 40
0
 40
0
 40
0
 40
0
 40
1
 40
1
 40
1
 40
1
 10
695.513221
 20
-65.546731
 30
0.0
 10
695.779021
 20
-65.812531
 30
0.0
 10
696.139522
 20
-65.961855
 30
0.0
 10
696.515420
 20
-65.961855
 30
0.0
  0
SPLINE
  5
17b
100
AcDbEntity
  8
0
 62
7
100
AcDbSpline
 70
8
 71
3
 72
8
 73
4
 74
0
 40
0
 40
0
 40
0
 40
0
 40
1
 40
1
 40
1
 40
1
 10
733.365814
 20
-65.961855
 30
0.0
 10
733.741711
 20
-65.961855
 30
0.0
 10
734.102213
 20
-65.812531
 30
0.0
 10
734.368012
 20
-65.546731
 30
0.0
  0
SPLINE
  5
17c
100
AcDbEntity
  8
0
 62
7
100
AcDbSpline
 70
8
 71
3
 72
8
 73
4
 74
0
 40
0
 40
0
 40
0
 40
0
 40
1
 40
1
 40
1
 40
1
 10
734.368012
 20
-65.546731
 30
0.0
 10
734.633812
 20
-65.280931
 30
0.0
 10
734.783136
 20
-64.920430
 30
0.0
 10
734.783136
 20
-64.544532
 30
0.0
  0
LWPOLYLINE
  5
17d
100
AcDbEntity
  8
0
 62
7
100
AcDbPolyline
 90
2
 70
0
 10
734.783136
 20
-64.544532
 30
0.0
 10
734.783136
 20
-27.694139
 30
0.0
  0
LWPOLYLINE
  5
17e
100
AcDbEntity
  8
0
 62
7
100
AcDbPolyline
 90
2
 70
0
 10
139.365814
 20
-26.276816
 30
0.0
 10
102.515420
 20
-26.276816
 30
0.0
  0
LWPOLYLINE
  5
17f
100
AcDbEntity
  8
0
 62
7
100
AcDbPolyline
 90
2
 70
0
 10
101.098097
 20
-27.694139
 30
0.0
 10
101.098097
 20
-64.544532
 30
0.0
  0
LWPOLYLINE
  5
180
100
AcDbEntity
  8
0
 62
7
100
AcDbPolyline
 90
2
 70
0
 10
102.515420
 20
-65.961855
 30
0.0
 10
139.365814
 20
-65.961855
 30
0.0
  0
SPLINE
  5
181
100
AcDbEntity
  8
0
 62
7
100
AcDbSpline
 70
8
 71
3
 72
8
 73
4
 74
0
 40
0
 40
0
 40
0
 40
0
 40
1
 40
1
 40
1
 40
1
 10
140.783136
 20
-27.694139
 30
0.0
 10
140.783136
 20
-27.318241
 30
0.0
 10
140.633812
 20
-26.957740
 30
0.0
 10
140.368012
 20
-26.691940
 30
0.0
  0
SPLINE
  5
182
100
AcDbEntity
  8
0
 62
7
100
AcDbSpline
 70
8
 71
3
 72
8
 73
4
 74
0
 40
0
 40
0
 40
0
 40
0
 40
1
 40
1
 40
1
 40
1
 10
140.368012
 20
-26.691940
 30
0.0
 10
140.102213
 20
-26.426141
 30
0.0
 10
139.741711
 20
-26.276816
 30
0.0
 10
139.365814
 20
-26.276816
 30
0.0
  0
SPLINE
  5
183
100
AcDbEntity
  8
0
 62
7
100
AcDbSpline
 70
8
 71
3
 72
8
 73
4
 74
0
 40
0
 40
0
 40
0
 40
0
 40
1
 40
1
 40
1
 40
1
 10
102.515420
 20
-26.276816
 30
0.0
 10
102.139522
 20
-26.276816
 30
0.0
 10
101.779021
 20
-26.426141
 30
0.0
 10
101.513221
 20
-26.691940
 30
0.0
  0
SPLINE
  5
184
100
AcDbEntity
  8
0
 62
7
100
AcDbSpline
 70
8
 71
3
 72
8
 73
4
 74
0
 40
0
 40
0
 40
0
 40
0
 40
1
 40
1
 40
1
 40
1
 10
101.513221
 20
-26.691940
 30
0.0
 10
101.247422
 20
-26.957740
 30
0.0
 10
101.098097
 20
-27.318241
 30
0.0
 10
101.098097
 20
-27.694139
 30
0.0
  0
SPLINE
  5
185
100
AcDbEntity
  8
0
 62
7
100
AcDbSpline
 70
8
 71
3
 72
8
 73
4
 74
0
 40
0
 40
0
 40
0
 40
0
 40
1
 40
1
 40
1
 40
1
 10
101.098097
 20
-64.544532
 30
0.0
 10
101.098097
 20
-64.920430
 30
0.0
 10
101.247422
 20
-65.280931
 30
0.0
 10
101.513221
 20
-65.546731
 30
0.0
  0
SPLINE
  5
186
100
AcDbEntity
  8
0
 62
7
100
AcDbSpline
 70
8
 71
3
 72
8
 73
4
 74
0
 40
0
 40
0
 40
0
 40
0
 40
1
 40
1
 40
1
 40
1
 10
101.513221
 20
-65.546731
 30
0.0
 10
101.779021
 20
-65.812531
 30
0.0
 10
102.139522
 20
-65.961855
 30
0.0
 10
102.515420
 20
-65.961855
 30
0.0
  0
SPLINE
  5
187
100
AcDbEntity
  8
0
 62
7
100
AcDbSpline
 70
8
 71
3
 72
8
 73
4
 74
0
 40
0
 40
0
 40
0
 40
0
 40
1
 40
1
 40
1
 40
1
 10
139.365814
 20
-65.961855
 30
0.0
 10
139.741711
 20
-65.961855
 30
0.0
 10
140.102213
 20
-65.812531
 30
0.0
 10
140.368012
 20
-65.546731
 30
0.0
  0
SPLINE
  5
188
100
AcDbEntity
  8
0
 62
7
100
AcDbSpline
 70
8
 71
3
 72
8
 73
4
 74
0
 40
0
 40
0
 40
0
 40
0
 40
1
 40
1
 40
1
 40
1
 10
140.368012
 20
-65.546731
 30
0.0
 10
140.633812
 20
-65.280931
 30
0.0
 10
140.783136
 20
-64.920430
 30
0.0
 10
140.783136
 20
-64.544532
 30
0.0
  0
SPLINE
  5
189
100
AcDbEntity
  8
0
 62
7
100
AcDbSpline
 70
8
 71
3
 72
8
 73
4
 74
0
 40
0
 40
0
 40
0
 40
0
 40
1
 40
1
 40
1
 40
1
 10
625.365814
 20
-65.961855
 30
0.0
 10
625.741711
 20
-65.961855
 30
0.0
 10
626.102213
 20
-65.812531
 30
0.0
 10
626.368012
 20
-65.546731
 30
0.0
  0
SPLINE
  5
18a
100
AcDbEntity
  8
0
 62
7
100
AcDbSpline
 70
8
 71
3
 72
8
 73
4
 74
0
 40
0
 40
0
 40
0
 40
0
 40
1
 40
1
 40
1
 40
1
 10
626.368012
 20
-65.546731
 30
0.0
 10
626.633812
 20
-65.280931
 30
0.0
 10
626.783136
 20
-64.920430
 30
0.0
 10
626.783136
 20
-64.544532
 30
0.0
  0
SPLINE
  5
18b
100
AcDbEntity
  8
0
 62
7
100
AcDbSpline
 70
8
 71
3
 72
8
 73
4
 74
0
 40
0
 40
0
 40
0
 40
0
 40
1
 40
1
 40
1
 40
1
 10
587.098097
 20
-64.544532
 30
0.0
 10
587.098097
 20
-64.920430
 30
0.0
 10
587.247422
 20
-65.280931
 30
0.0
 10
587.513221
 20
-65.546731
 30
0.0
  0
SPLINE
  5
18c
100
AcDbEntity
  8
0
 62
7
100
AcDbSpline
 70
8
 71
3
 72
8
 73
4
 74
0
 40
0
 40
0
 40
0
 40
0
 40
1
 40
1
 40
1
 40
1
 10
587.513221
 20
-65.546731
 30
0.0
 10
587.779021
 20
-65.812531
 30
0.0
 10
588.139522
 20
-65.961855
 30
0.0
 10
588.515420
 20
-65.961855
 30
0.0
  0
SPLINE
  5
18d
100
AcDbEntity
  8
0
 62
7
100
AcDbSpline
 70
8
 71
3
 72
8
 73
4
 74
0
 40
0
 40
0
 40
0
 40
0
 40
1
 40
1
 40
1
 40
1
 10
588.515420
 20
-26.276816
 30
0.0
 10
588.139522
 20
-26.276816
 30
0.0
 10
587.779021
 20
-26.426141
 30
0.0
 10
587.513221
 20
-26.691940
 30
0.0
  0
SPLINE
  5
18e
100
AcDbEntity
  8
0
 62
7
100
AcDbSpline
 70
8
 71
3
 72
8
 73
4
 74
0
 40
0
 40
0
 40
0
 40
0
 40
1
 40
1
 40
1
 40
1
 10
587.513221
 20
-26.691940
 30
0.0
 10
587.247422
 20
-26.957740
 30
0.0
 10
587.098097
 20
-27.318241
 30
0.0
 10
587.098097
 20
-27.694139
 30
0.0
  0
SPLINE
  5
18f
100
AcDbEntity
  8
0
 62
7
100
AcDbSpline
 70
8
 71
3
 72
8
 73
4
 74
0
 40
0
 40
0
 40
0
 40
0
 40
1
 40
1
 40
1
 40
1
 10
626.783136
 20
-27.694139
 30
0.0
 10
626.783136
 20
-27.318241
 30
0.0
 10
626.633812
 20
-26.957740
 30
0.0
 10
626.368012
 20
-26.691940
 30
0.0
  0
SPLINE
  5
190
100
AcDbEntity
  8
0
 62
7
100
AcDbSpline
 70
8
 71
3
 72
8
 73
4
 74
0
 40
0
 40
0
 40
0
 40
0
 40
1
 40
1
 40
1
 40
1
 10
626.368012
 20
-26.691940
 30
0.0
 10
626.102213
 20
-26.426141
 30
0.0
 10
625.741711
 20
-26.276816
 30
0.0
 10
625.365814
 20
-26.276816
 30
0.0
  0
LWPOLYLINE
  5
191
100
AcDbEntity
  8
0
 62
7
100
AcDbPolyline
 90
2
 70
0
 10
140.783136
 20
-64.544532
 30
0.0
 10
140.783136
 20
-27.694139
 30
0.0
  0
LWPOLYLINE
  5
192
100
AcDbEntity
  8
0
 62
7
100
AcDbPolyline
 90
2
 70
0
 10
626.783136
 20
-64.544532
 30
0.0
 10
626.783136
 20
-27.694139
 30
0.0
  0
LWPOLYLINE
  5
193
100
AcDbEntity
  8
0
 62
7
100
AcDbPolyline
 90
2
 70
0
 10
588.515420
 20
-65.961855
 30
0.0
 10
625.365814
 20
-65.961855
 30
0.0
  0
LWPOLYLINE
  5
194
100
AcDbEntity
  8
0
 62
7
100
AcDbPolyline
 90
2
 70
0
 10
587.098097
 20
-27.694139
 30
0.0
 10
587.098097
 20
-64.544532
 30
0.0
  0
LWPOLYLINE
  5
195
100
AcDbEntity
  8
0
 62
7
100
AcDbPolyline
 90
2
 70
0
 10
625.365814
 20
-26.276816
 30
0.0
 10
588.515420
 20
-26.276816
 30
0.0
  0
ENDSEC
  0
SECTION
  2
OBJECTS
  0
DICTIONARY
  5
C
330
0
100
AcDbDictionary
  3
ACAD_GROUP
350
D
  3
ACAD_MLINESTYLE
350
17
  0
DICTIONARY
  5
D
330
C
100
AcDbDictionary
  0
DICTIONARY
  5
1A
330
C
100
AcDbDictionary
  0
DICTIONARY
  5
17
330
C
100
AcDbDictionary
  3
STANDARD
350
18
  0
DICTIONARY
  5
19
330
C
100
AcDbDictionary
  0
ENDSEC
  0
EOF
